<svg width="444" height="149" viewBox="0 0 444 149" fill="none" xmlns="http://www.w3.org/2000/svg">
<g clip-path="url(#clip0_12_1775)">
<g clip-path="url(#clip1_12_1775)">
<g clip-path="url(#clip2_12_1775)">
<path d="M416.207 89.1666C419.459 89.1666 422.096 88.4017 422.096 87.4581C422.096 86.5145 419.459 85.7496 416.207 85.7496C412.954 85.7496 410.317 86.5145 410.317 87.4581C410.317 88.4017 412.954 89.1666 416.207 89.1666Z" fill="black"/>
<path d="M410.644 86.5256C410.644 83.4432 413.134 80.9446 416.207 80.9446C419.279 80.9446 421.77 83.4432 421.77 86.5256C421.77 87.6788 419.279 88.6113 416.207 88.6113C413.134 88.6113 410.644 87.6717 410.644 86.5256Z" fill="#6EBA44"/>
<path d="M416.207 80.9446C419.279 80.9446 421.77 83.4432 421.77 86.5256C421.77 87.6788 419.279 88.6113 416.207 88.6113" fill="black"/>
</g>
<g clip-path="url(#clip3_12_1775)">
<path d="M258.758 48.8871C262.011 48.8871 264.647 48.1222 264.647 47.1786C264.647 46.2351 262.011 45.4702 258.758 45.4702C255.505 45.4702 252.868 46.2351 252.868 47.1786C252.868 48.1222 255.505 48.8871 258.758 48.8871Z" fill="black"/>
<path d="M253.195 46.2461C253.195 43.1637 255.685 40.6651 258.758 40.6651C261.83 40.6651 264.321 43.1637 264.321 46.2461C264.321 47.3993 261.83 48.3318 258.758 48.3318C255.685 48.3318 253.195 47.3922 253.195 46.2461Z" fill="#6EBA44"/>
<path d="M258.758 40.6651C261.83 40.6651 264.321 43.1637 264.321 46.2461C264.321 47.3993 261.83 48.3318 258.758 48.3318" fill="black"/>
</g>
<g clip-path="url(#clip4_12_1775)">
<path d="M229.478 99.2315C232.73 99.2315 235.367 98.4666 235.367 97.523C235.367 96.5795 232.73 95.8146 229.478 95.8146C226.225 95.8146 223.588 96.5795 223.588 97.523C223.588 98.4666 226.225 99.2315 229.478 99.2315Z" fill="black"/>
<path d="M223.914 96.5905C223.914 93.5082 226.405 91.0095 229.478 91.0095C232.55 91.0095 235.041 93.5082 235.041 96.5905C235.041 97.7437 232.55 98.6763 229.478 98.6763C226.405 98.6763 223.914 97.7366 223.914 96.5905Z" fill="#6EBA44"/>
<path d="M229.478 91.0095C232.55 91.0095 235.041 93.5082 235.041 96.5905C235.041 97.7437 232.55 98.6763 229.478 98.6763" fill="black"/>
</g>
<g clip-path="url(#clip5_12_1775)">
<path d="M416.207 78.2909C419.459 78.2909 422.096 77.526 422.096 76.5824C422.096 75.6389 419.459 74.874 416.207 74.874C412.954 74.874 410.317 75.6389 410.317 76.5824C410.317 77.526 412.954 78.2909 416.207 78.2909Z" fill="black"/>
<path d="M410.644 75.6499C410.644 72.5675 413.134 70.0689 416.207 70.0689C419.279 70.0689 421.77 72.5675 421.77 75.6499C421.77 76.8031 419.279 77.7357 416.207 77.7357C413.134 77.7357 410.644 76.796 410.644 75.6499Z" fill="#6EBA44"/>
<path d="M416.207 70.0689C419.279 70.0689 421.77 72.5675 421.77 75.6499C421.77 76.8031 419.279 77.7357 416.207 77.7357" fill="black"/>
</g>
<g clip-path="url(#clip6_12_1775)">
<path d="M426.844 84.3542C430.139 84.3542 432.811 83.2551 432.811 81.8992C432.811 80.5433 430.139 79.4442 426.844 79.4442C423.548 79.4442 420.877 80.5433 420.877 81.8992C420.877 83.2551 423.548 84.3542 426.844 84.3542Z" fill="black"/>
<path d="M426.844 58.5901C426.844 58.5901 425.102 81.7796 425.102 81.8992C425.102 82.4601 425.881 82.9106 426.844 82.9106C427.806 82.9106 428.585 82.4601 428.585 81.8992C428.585 81.7796 426.844 58.5901 426.844 58.5901Z" fill="#5E853A"/>
<g style="mix-blend-mode:multiply" opacity="0.2">
<path d="M426.844 82.9106C427.806 82.9106 428.585 82.4601 428.585 81.8992C428.585 81.7796 426.844 58.5901 426.844 58.5901" fill="black"/>
</g>
<path d="M434.497 71.6469L426.844 58.5901L419.191 71.6469C418.879 72.1434 418.714 72.6859 418.714 73.2376C418.714 75.8397 422.353 77.9454 426.844 77.9454C431.335 77.9454 434.974 75.8397 434.974 73.2376C434.974 72.6767 434.809 72.1434 434.497 71.6469Z" fill="#6EBA44"/>
<g style="mix-blend-mode:multiply" opacity="0.2">
<path d="M426.844 58.5901L434.497 71.6469C434.809 72.1434 434.974 72.6859 434.974 73.2376C434.974 75.8397 431.335 77.9454 426.844 77.9454V58.5901Z" fill="#231815"/>
</g>
</g>
<path d="M0 108.262L254.761 14.0197L443.096 81.0929C443.096 81.0929 344.868 120.522 329.05 126.682C291.905 141.146 225.49 152.111 166.496 147.721C107.492 143.331 0 108.262 0 108.262Z" fill="#DCDCDB"/>
<path d="M138.428 121.827C141.966 120.512 147.712 120.512 151.26 121.827C154.808 123.142 154.798 125.278 151.26 126.603C147.722 127.927 141.976 127.918 138.428 126.603C134.89 125.288 134.89 123.152 138.428 121.827Z" fill="#6BC1A8"/>
<path d="M328.616 79.5604C324.182 81.2115 316.987 81.2115 312.552 79.5604C308.117 77.9093 308.117 75.2398 312.552 73.5887L341.547 62.802C345.982 61.1509 353.176 61.1509 357.611 62.802C362.046 64.4531 362.046 67.1226 357.611 68.7737L328.616 79.5604Z" fill="#6BC1A8"/>
<path d="M266.459 95.3104C264.379 96.0815 261.009 96.0815 258.929 95.3104C256.85 94.5392 256.85 93.2835 258.929 92.5123L272.53 87.4502C274.609 86.679 277.98 86.679 280.059 87.4502C282.139 88.2214 282.139 89.477 280.059 90.2482L266.459 95.3104Z" fill="#6BC1A8"/>
<path d="M387.532 103.358C385.196 102.637 385.196 101.223 387.532 100.204L434.63 81.607C436.966 80.5886 440.76 80.3612 443.096 81.083" fill="#6BC1A8"/>
<path d="M356.645 68.6947C361.287 67.2512 361.287 64.4532 356.645 62.4362L263.098 25.4886C258.456 23.4717 250.917 23.007 246.275 24.4505" fill="#6BC1A8"/>
<path d="M296.419 29.127C293.147 29.9674 293.147 31.5889 296.419 32.7555L431.24 80.4898C434.512 81.6565 439.814 81.9234 443.086 81.0929" fill="#6BC1A8"/>
<g style="mix-blend-mode:multiply">
<path d="M262.694 94.4897V93.2044L345.646 62.5647L345.814 63.7314L262.694 94.4897Z" fill="#8B8B8B"/>
</g>
<g style="mix-blend-mode:multiply">
<path d="M144.844 124.408V123.122L235.267 89.7737L235.434 90.9403L144.844 124.408Z" fill="#8B8B8B"/>
</g>
<g style="mix-blend-mode:multiply">
<path d="M145.011 124.477L144.844 123.122L74.9893 97.1296V98.3556L145.011 124.477Z" fill="#8B8B8B"/>
</g>
<g style="mix-blend-mode:multiply">
<path d="M262.694 94.4897V93.2044L229.551 80.8457L229.56 82.0816L262.694 94.4897Z" fill="#8B8B8B"/>
</g>
<path d="M238.135 75.2299L158.553 45.8261L257.254 9.30365L336.836 38.7075L238.135 75.2299Z" fill="#F0F0F0"/>
<path d="M345.646 62.5647L262.694 93.2044V72.6L345.646 41.9603V62.5647Z" fill="#064055"/>
<path opacity="0.3" d="M345.646 62.5647L262.694 93.2044V72.6L345.646 41.9603V62.5647Z" fill="url(#paint0_linear_12_1775)"/>
<path d="M144.844 111.832L74.9893 85.8288L174.302 49.247L244.343 75.1113L144.844 111.832Z" fill="#F0F0F0"/>
<path d="M339.26 64.9277L269.327 90.7524V72.8076L339.26 46.9828V64.9277Z" fill="#B1B1B1"/>
<path d="M74.9893 97.1296L144.844 123.122V102.518L74.9893 76.5251V97.1296Z" fill="#C6C6C6"/>
<path d="M257.254 9.30364L345.646 41.9603V32.6567L257.254 0V9.30364Z" fill="#C6C6C6"/>
<path d="M345.646 41.9603L262.694 72.6V63.2964L345.646 32.6567V41.9603Z" fill="#B1B1B1"/>
<g style="mix-blend-mode:multiply">
<path d="M345.646 41.9603L262.694 72.6V63.2964L345.646 32.6567V41.9603Z" fill="#B1B1B1"/>
</g>
<path d="M148.796 83.0604L120.57 93.4912V84.1875L148.796 73.7469V83.0604Z" fill="#B1B1B1"/>
<path d="M244.314 34.7725L270.608 45.3911L293.393 37.4815L244.314 19.1708V34.7725Z" fill="#C6C6C6"/>
<path d="M244.314 34.5648L213.003 46.1128V37.2936L244.314 25.7358V34.5648Z" fill="#B1B1B1"/>
<path d="M257.254 9.30363L74.9893 76.5251V67.2116L257.254 0V9.30363Z" fill="#B1B1B1"/>
<path d="M120.57 93.4911L144.844 102.518V93.2143L120.57 84.1875V93.4911Z" fill="#C6C6C6"/>
<g style="mix-blend-mode:multiply">
<path d="M120.57 93.4911L144.844 102.518V93.2143L120.57 84.1875V93.4911Z" fill="#C6C6C6"/>
</g>
<path d="M110.4 63.3755L134.683 72.2342V62.9306L110.4 54.0718V63.3755Z" fill="#C6C6C6"/>
<path d="M214.639 41.6637L134.683 72.2342V62.9305L214.639 32.36V41.6637Z" fill="#B1B1B1"/>
<path d="M134.683 62.9305L110.4 54.0718L192.11 24.0748L214.639 32.36L134.683 62.9305Z" fill="#F0F0F0"/>
<path d="M200.221 52.2427L224.505 62.0605V50.1071L200.221 40.2894V52.2427Z" fill="#C6C6C6"/>
<path d="M250.493 50.9278L224.505 62.0605V50.1072L250.493 38.9744V50.9278Z" fill="#B1B1B1"/>
<path d="M224.505 50.1071L200.221 40.2894L227.964 29.7993L250.493 38.9744L224.505 50.1071Z" fill="#F0F0F0"/>
<path d="M170.251 66.7766L190.188 74.8345V53.6763L170.251 45.6185V66.7766Z" fill="#C6C6C6"/>
<path d="M211.525 65.689L190.188 74.8344V53.6763L211.525 44.5408V65.689Z" fill="#B1B1B1"/>
<path d="M190.188 53.6763L170.251 45.6184L193.027 37.0069L211.525 44.5408L190.188 53.6763Z" fill="#F0F0F0"/>
<path d="M148.914 75.8033L168.842 83.8612V72.1353L148.914 64.0774V75.8033Z" fill="#C6C6C6"/>
<path d="M190.188 74.8345L168.842 83.97V72.1353L190.188 62.9998V74.8345Z" fill="#B1B1B1"/>
<path d="M168.842 72.1353L148.914 64.0774L171.69 55.456L190.188 62.9998L168.842 72.1353Z" fill="#F0F0F0"/>
<path d="M93.0245 73.9446L74.9893 67.2116L135.649 44.9462L152.393 51.2442L93.0245 73.9446Z" fill="#F0F0F0"/>
<path d="M197.225 21.3855C197.225 23.3233 190.376 26.9123 181.939 29.4038C173.493 31.8953 166.654 32.3501 166.654 30.4123C166.654 28.4744 173.503 24.8855 181.939 22.394C190.385 19.9024 197.225 19.4476 197.225 21.3855Z" fill="#F0F0F0"/>
<path d="M166.644 30.4123C166.644 32.3501 173.493 31.8953 181.93 29.4038C190.376 26.9123 197.215 23.3233 197.215 21.3855V27.6242C197.215 29.562 190.366 33.151 181.93 35.6425C173.484 38.134 166.644 38.5888 166.644 36.651V30.4123Z" fill="#B1B1B1"/>
<path d="M128.178 69.8415L93.0146 83.2582V73.9545L128.178 60.5379V69.8415Z" fill="#B1B1B1"/>
<path d="M74.9893 76.5251L94.7295 83.881V74.5774L74.9893 67.2116V76.5251Z" fill="#C6C6C6"/>
<g style="mix-blend-mode:multiply">
<path d="M74.9893 76.5251L94.7295 83.881V74.5774L74.9893 67.2116V76.5251Z" fill="#C6C6C6"/>
</g>
<path d="M107.591 79.1353L94.7295 83.881V74.5774L107.591 69.8317V79.1353Z" fill="#B1B1B1"/>
<g style="mix-blend-mode:multiply">
<path d="M107.591 79.1353L94.7295 83.881V74.5774L107.591 69.8317V79.1353Z" fill="#B1B1B1"/>
</g>
<path opacity="0.4" d="M292.171 78.4531L288.426 79.8373V78.8387L292.171 77.4545V78.4531ZM297.7 75.4178L293.955 76.802V77.8006L297.7 76.4164V75.4178ZM286.633 79.5011L282.888 80.8853V81.8839L286.633 80.4997V79.5011ZM275.565 83.5844L271.82 84.9686V85.9672L275.565 84.583V83.5844ZM281.094 81.5477L277.349 82.9319V83.9305L281.094 82.5463V81.5477ZM308.778 71.3345L305.033 72.7187V73.7172L308.778 72.3331V71.3345ZM330.913 63.158L327.168 64.5421V65.5407L330.913 64.1565V63.158ZM325.374 65.2046L321.629 66.5887V67.5873L325.374 66.2031V65.2046ZM303.239 73.3712L299.494 74.7554V75.754L303.239 74.3698V73.3712ZM314.306 69.2879L310.561 70.6721V71.6706L314.306 70.2865V69.2879ZM319.845 67.2413L316.1 68.6255V69.624L319.845 68.2399V67.2413Z" fill="black"/>
<path opacity="0.4" d="M292.171 70.9687L288.426 72.3528V71.3542L292.171 69.9701V70.9687ZM297.7 67.9334L293.955 69.3175V70.3161L297.7 68.9319V67.9334ZM286.633 72.0167L282.888 73.4009V74.3994L286.633 73.0153V72.0167ZM275.565 76.1L271.82 77.4842V78.4827L275.565 77.0986V76.1ZM281.094 74.0534L277.349 75.4376V76.4361L281.094 75.052V74.0534ZM308.778 63.8402L305.033 65.2243V66.2229L308.778 64.8387V63.8402ZM330.913 55.6735L327.168 57.0577V58.0563L330.913 56.6721V55.6735ZM325.374 57.7201L321.629 59.1043V60.1029L325.374 58.7187V57.7201ZM303.239 65.8868L299.494 67.2709V68.2695L303.239 66.8853V65.8868ZM314.306 61.8034L310.561 63.1876V64.1862L314.306 62.802V61.8034ZM319.845 59.7568L316.1 61.141V62.1396L319.845 60.7554V59.7568Z" fill="black"/>
<path d="M74.9893 97.1296L79.5227 98.8301V78.2257L74.9893 76.5251V97.1296Z" fill="#C6C6C6"/>
<g style="mix-blend-mode:multiply">
<path d="M74.9893 97.1296L79.5227 98.8301V78.2257L74.9893 76.5251V97.1296Z" fill="#C6C6C6"/>
</g>
<path d="M94.7295 104.485L99.2629 106.186V100.936L94.7295 99.2355V104.485Z" fill="#C6C6C6"/>
<g style="mix-blend-mode:multiply">
<path d="M94.7295 104.485L99.2629 106.186V100.936L94.7295 99.2355V104.485Z" fill="#C6C6C6"/>
</g>
<path d="M99.2629 106.186L103.796 107.887V102.637L99.2629 100.936V106.186Z" fill="#C6C6C6"/>
<g style="mix-blend-mode:multiply">
<path d="M99.2629 106.186L103.796 107.887V102.637L99.2629 100.936V106.186Z" fill="#C6C6C6"/>
</g>
<path d="M241.614 55.2582L228.742 60.004V50.6904L241.614 45.9546V55.2582Z" fill="#B1B1B1"/>
<path d="M228.742 60.004L262.694 72.6V63.2964L228.742 50.6905V60.004Z" fill="#C6C6C6"/>
<g style="mix-blend-mode:multiply">
<path d="M228.742 60.004L262.694 72.6V63.2964L228.742 50.6905V60.004Z" fill="#C6C6C6"/>
</g>
<path d="M148.796 83.0604L173.07 92.0872V82.7737L148.796 73.7469V83.0604Z" fill="#C6C6C6"/>
<path d="M173.07 92.0872L144.844 102.518V93.2143L173.07 82.7737V92.0872Z" fill="#B1B1B1"/>
<g style="mix-blend-mode:multiply">
<path d="M173.07 92.0872L144.844 102.518V93.2143L173.07 82.7737V92.0872Z" fill="#B1B1B1"/>
</g>
<path d="M395.554 67.8839C418.546 75.9714 410.987 90.4855 395.623 97.0603L397.052 97.9601L437.991 82.5463L438.316 80.8259L394.697 66.0548L395.554 67.8839Z" fill="#6BC1A8"/>
<path d="M359.69 94.292C355.255 95.9431 348.061 95.9431 343.626 94.292C339.191 92.6409 339.191 89.9714 343.626 88.3203L372.62 77.5336C377.055 75.8824 384.25 75.8824 388.685 77.5336C393.12 79.1847 393.12 81.8542 388.685 83.5053L359.69 94.292Z" fill="#6BC1A8"/>
<path d="M228.742 80.6085L262.694 93.2045V72.6L228.742 60.004V80.6085Z" fill="#C6C6C6"/>
<path d="M253.765 89.8527L262.694 93.2044V72.6L253.765 69.2483V89.8527Z" fill="#386677"/>
<path opacity="0.2" d="M253.765 89.8527L262.694 93.2044V72.6L253.765 69.2483V89.8527Z" fill="url(#paint1_linear_12_1775)"/>
<path d="M144.844 102.518V123.122L235.267 89.7539V84.5236L244.343 81.1621V65.8076L144.844 102.518Z" fill="#B1B1B1"/>
<path opacity="0.5" d="M160.573 114.521L157.311 115.717V114.926L160.573 113.73V114.521ZM167.521 111.189L164.259 112.385V113.176L167.521 111.98V111.189ZM174.459 108.648L171.197 109.844V110.635L174.459 109.439V108.648ZM181.407 106.107L178.145 107.303V108.094L181.407 106.898V106.107ZM188.345 103.576L185.083 104.772V105.563L188.345 104.367V103.576ZM195.284 101.035L192.021 102.231V103.022L195.284 101.826V101.035ZM202.232 98.4939L198.969 99.6903V100.481L202.232 99.2849V98.4939ZM209.17 95.953L205.908 97.1493V97.9403L209.17 96.7439V95.953ZM216.118 93.412L212.856 94.6084V95.3993L216.118 94.203V93.412ZM223.056 90.881L219.794 92.0773V92.8683L223.056 91.6719V90.881ZM229.994 88.34L226.732 89.5363V90.3273L229.994 89.131V88.34Z" fill="black"/>
<g style="mix-blend-mode:multiply">
<path d="M275.378 35.3954L278.64 36.5917V37.3827L275.378 36.1863V35.3954ZM268.43 33.6454L271.692 34.8417V34.0507L268.43 32.8544V33.6454ZM261.492 31.1044L264.754 32.3007V31.5098L261.492 30.3135V31.1044ZM254.554 28.5734L257.816 29.7697V28.9787L254.554 27.7824V28.5734ZM247.606 26.0324L250.868 27.2287V26.4378L247.606 25.2415V26.0324Z" fill="#B1B1B1"/>
</g>
<g style="mix-blend-mode:multiply">
<path d="M275.378 38.6778L278.64 39.8742V40.6651L275.378 39.4688V38.6778ZM268.43 36.9377L271.692 38.1341V37.3431L268.43 36.1468V36.9377ZM261.492 34.3968L264.754 35.5931V34.8021L261.492 33.6058V34.3968ZM254.554 31.8558L257.816 33.0522V32.2612L254.554 31.0649V31.8558ZM247.606 29.3149L250.868 30.5112V29.7202L247.606 28.5239V29.3149Z" fill="#B1B1B1"/>
</g>
<path opacity="0.3" d="M275.378 41.9702L277.832 42.8897L275.378 43.7499V41.9801V41.9702ZM268.43 42.1383L271.692 43.3346V40.6256L268.43 39.4292V42.1383ZM261.492 39.5973L264.754 40.7936V38.0846L261.492 36.8883V39.5973ZM254.554 37.0663L257.816 38.2626V35.5536L254.554 34.3572V37.0663ZM247.606 34.5253L250.868 35.7216V33.0126L247.606 31.8163V34.5253Z" fill="black"/>
<g clip-path="url(#clip7_12_1775)">
<path opacity="0.3" d="M415.99 88.4547C419.243 88.4547 421.879 87.6898 421.879 86.7462C421.879 85.8027 419.243 85.0378 415.99 85.0378C412.737 85.0378 410.1 85.8027 410.1 86.7462C410.1 87.6898 412.737 88.4547 415.99 88.4547Z" fill="black"/>
<path d="M410.427 85.8137C410.427 82.7314 412.917 80.2327 415.99 80.2327C419.062 80.2327 421.553 82.7314 421.553 85.8137C421.553 86.9669 419.062 87.8995 415.99 87.8995C412.917 87.8995 410.427 86.9598 410.427 85.8137Z" fill="#4B9E81"/>
<path opacity="0.3" d="M415.99 80.2327C419.062 80.2327 421.553 82.7314 421.553 85.8137C421.553 86.9669 419.062 87.8995 415.99 87.8995" fill="black"/>
</g>
<g clip-path="url(#clip8_12_1775)">
<path opacity="0.3" d="M258.541 48.1752C261.794 48.1752 264.431 47.4103 264.431 46.4668C264.431 45.5232 261.794 44.7583 258.541 44.7583C255.288 44.7583 252.651 45.5232 252.651 46.4668C252.651 47.4103 255.288 48.1752 258.541 48.1752Z" fill="black"/>
<path d="M252.978 45.5342C252.978 42.4519 255.469 39.9532 258.541 39.9532C261.614 39.9532 264.104 42.4519 264.104 45.5342C264.104 46.6875 261.614 47.62 258.541 47.62C255.469 47.62 252.978 46.6803 252.978 45.5342Z" fill="#4B9E81"/>
<path opacity="0.3" d="M258.541 39.9532C261.614 39.9532 264.104 42.4519 264.104 45.5342C264.104 46.6875 261.614 47.62 258.541 47.62" fill="black"/>
</g>
<g clip-path="url(#clip9_12_1775)">
<path opacity="0.3" d="M229.261 98.5197C232.513 98.5197 235.15 97.7548 235.15 96.8112C235.15 95.8676 232.513 95.1027 229.261 95.1027C226.008 95.1027 223.371 95.8676 223.371 96.8112C223.371 97.7548 226.008 98.5197 229.261 98.5197Z" fill="black"/>
<path d="M223.698 95.8787C223.698 92.7963 226.188 90.2977 229.261 90.2977C232.333 90.2977 234.824 92.7963 234.824 95.8787C234.824 97.0319 232.333 97.9644 229.261 97.9644C226.188 97.9644 223.698 97.0248 223.698 95.8787Z" fill="#4B9E81"/>
<path opacity="0.3" d="M229.261 90.2977C232.333 90.2977 234.824 92.7963 234.824 95.8787C234.824 97.0319 232.333 97.9644 229.261 97.9644" fill="black"/>
</g>
<g clip-path="url(#clip10_12_1775)">
<path opacity="0.3" d="M415.99 77.579C419.243 77.579 421.879 76.8141 421.879 75.8706C421.879 74.927 419.243 74.1621 415.99 74.1621C412.737 74.1621 410.1 74.927 410.1 75.8706C410.1 76.8141 412.737 77.579 415.99 77.579Z" fill="black"/>
<path d="M410.427 74.9381C410.427 71.8557 412.917 69.3571 415.99 69.3571C419.062 69.3571 421.553 71.8557 421.553 74.9381C421.553 76.0913 419.062 77.0238 415.99 77.0238C412.917 77.0238 410.427 76.0841 410.427 74.9381Z" fill="#4B9E81"/>
<path opacity="0.3" d="M415.99 69.3571C419.062 69.3571 421.553 71.8557 421.553 74.9381C421.553 76.0913 419.062 77.0238 415.99 77.0238" fill="black"/>
</g>
<g clip-path="url(#clip11_12_1775)">
<path opacity="0.3" d="M426.627 83.6325C429.922 83.6325 432.594 82.5333 432.594 81.1774C432.594 79.8216 429.922 78.7224 426.627 78.7224C423.332 78.7224 420.66 79.8216 420.66 81.1774C420.66 82.5333 423.332 83.6325 426.627 83.6325Z" fill="black"/>
<path d="M426.627 57.8684C426.627 57.8684 424.885 81.0579 424.885 81.1774C424.885 81.7383 425.665 82.1889 426.627 82.1889C427.589 82.1889 428.368 81.7383 428.368 81.1774C428.368 81.0579 426.627 57.8684 426.627 57.8684Z" fill="#9B7225"/>
<g style="mix-blend-mode:multiply" opacity="0.2">
<path d="M426.627 82.1889C427.589 82.1889 428.368 81.7383 428.368 81.1774C428.368 81.0579 426.627 57.8684 426.627 57.8684" fill="black"/>
</g>
<path d="M434.28 70.9251L426.627 57.8684L418.974 70.9251C418.662 71.4217 418.497 71.9642 418.497 72.5159C418.497 75.118 422.136 77.2236 426.627 77.2236C431.118 77.2236 434.757 75.118 434.757 72.5159C434.757 71.955 434.592 71.4217 434.28 70.9251Z" fill="#4B9E81"/>
<g style="mix-blend-mode:multiply" opacity="0.2">
<path d="M426.627 57.8684L434.28 70.9251C434.592 71.4217 434.757 71.9642 434.757 72.5159C434.757 75.118 431.118 77.2236 426.627 77.2236V57.8684Z" fill="#231815"/>
</g>
</g>
<g clip-path="url(#clip12_12_1775)">
<path opacity="0.3" d="M381.233 82.8119C384.529 82.8119 387.2 81.7127 387.2 80.3568C387.2 79.001 384.529 77.9018 381.233 77.9018C377.938 77.9018 375.266 79.001 375.266 80.3568C375.266 81.7127 377.938 82.8119 381.233 82.8119Z" fill="black"/>
<path d="M381.233 57.0478C381.233 57.0478 379.492 80.2373 379.492 80.3568C379.492 80.9177 380.271 81.3682 381.233 81.3682C382.196 81.3682 382.975 80.9177 382.975 80.3568C382.975 80.2373 381.233 57.0478 381.233 57.0478Z" fill="#9B7225"/>
<g style="mix-blend-mode:multiply" opacity="0.2">
<path d="M381.233 81.3682C382.196 81.3682 382.975 80.9177 382.975 80.3568C382.975 80.2373 381.233 57.0478 381.233 57.0478" fill="black"/>
</g>
<path d="M388.886 70.1045L381.233 57.0478L373.58 70.1045C373.268 70.601 373.103 71.1435 373.103 71.6952C373.103 74.2974 376.742 76.403 381.233 76.403C385.724 76.403 389.363 74.2974 389.363 71.6952C389.363 71.1343 389.198 70.601 388.886 70.1045Z" fill="#4B9E81"/>
<g style="mix-blend-mode:multiply" opacity="0.2">
<path d="M381.233 57.0478L388.886 70.1045C389.198 70.601 389.363 71.1435 389.363 71.6952C389.363 74.2974 385.724 76.403 381.233 76.403V57.0478Z" fill="#231815"/>
</g>
</g>
<g clip-path="url(#clip13_12_1775)">
<path opacity="0.3" d="M367.219 87.7455C370.514 87.7455 373.186 86.6463 373.186 85.2904C373.186 83.9345 370.514 82.8354 367.219 82.8354C363.924 82.8354 361.252 83.9345 361.252 85.2904C361.252 86.6463 363.924 87.7455 367.219 87.7455Z" fill="black"/>
<path d="M367.219 61.9814C367.219 61.9814 365.477 85.1709 365.477 85.2904C365.477 85.8513 366.256 86.3018 367.219 86.3018C368.181 86.3018 368.96 85.8513 368.96 85.2904C368.96 85.1709 367.219 61.9814 367.219 61.9814Z" fill="#9B7225"/>
<g style="mix-blend-mode:multiply" opacity="0.2">
<path d="M367.219 86.3018C368.181 86.3018 368.96 85.8513 368.96 85.2904C368.96 85.1709 367.219 61.9814 367.219 61.9814" fill="black"/>
</g>
<path d="M374.872 75.0381L367.219 61.9814L359.566 75.0381C359.254 75.5346 359.089 76.0771 359.089 76.6288C359.089 79.231 362.728 81.3366 367.219 81.3366C371.71 81.3366 375.349 79.231 375.349 76.6288C375.349 76.0679 375.184 75.5346 374.872 75.0381Z" fill="#4B9E81"/>
<g style="mix-blend-mode:multiply" opacity="0.2">
<path d="M367.219 61.9814L374.872 75.0381C375.184 75.5346 375.349 76.0771 375.349 76.6288C375.349 79.231 371.71 81.3366 367.219 81.3366V61.9814Z" fill="#231815"/>
</g>
</g>
<g clip-path="url(#clip14_12_1775)">
<path opacity="0.3" d="M353.215 92.679C356.51 92.679 359.181 91.5799 359.181 90.224C359.181 88.8681 356.51 87.769 353.215 87.769C349.919 87.769 347.248 88.8681 347.248 90.224C347.248 91.5799 349.919 92.679 353.215 92.679Z" fill="black"/>
<path d="M353.214 66.915C353.214 66.915 351.473 90.1045 351.473 90.224C351.473 90.7849 352.252 91.2354 353.214 91.2354C354.177 91.2354 354.956 90.7849 354.956 90.224C354.956 90.1045 353.214 66.915 353.214 66.915Z" fill="#9B7225"/>
<g style="mix-blend-mode:multiply" opacity="0.2">
<path d="M353.214 91.2354C354.177 91.2354 354.956 90.7849 354.956 90.224C354.956 90.1045 353.214 66.915 353.214 66.915" fill="black"/>
</g>
<path d="M360.868 79.9717L353.214 66.915L345.561 79.9717C345.25 80.4682 345.085 81.0107 345.085 81.5624C345.085 84.1646 348.723 86.2702 353.214 86.2702C357.706 86.2702 361.344 84.1646 361.344 81.5624C361.344 81.0015 361.179 80.4682 360.868 79.9717Z" fill="#4B9E81"/>
<g style="mix-blend-mode:multiply" opacity="0.2">
<path d="M353.214 66.915L360.868 79.9717C361.179 80.4682 361.344 81.0107 361.344 81.5624C361.344 84.1646 357.706 86.2702 353.214 86.2702V66.915Z" fill="#231815"/>
</g>
</g>
<path d="M178.648 130.884L246.157 104.673C246.157 104.673 254.228 109.34 268.134 106.829L178.638 130.884H178.648Z" fill="#6BC1A8" stroke="#6BC1A8" stroke-width="4.35" stroke-linecap="round" stroke-linejoin="round"/>
<path d="M329.04 124.803L358.133 113.324" stroke="#6BC1A8" stroke-width="4.35" stroke-miterlimit="10" stroke-linecap="round"/>
<path d="M329.04 124.803C300.627 135.867 255.086 144.884 208.835 146.545" stroke="#6BC1A8" stroke-width="4.35" stroke-miterlimit="10" stroke-linecap="round"/>
<path d="M227.028 104.357L234.37 107.649V99.1564L227.028 95.864V104.357Z" fill="#C6C6C6"/>
<path d="M245.989 102.973L234.37 107.649V99.1564L245.989 93.9756V102.973Z" fill="#B1B1B1"/>
<path d="M234.37 99.1564L227.028 95.8641L239.593 91.4446L245.989 93.9756L234.37 99.1564Z" fill="#F0F0F0"/>
<path d="M195.786 115.509L204.321 119.207V112.533L195.786 108.836V115.509Z" fill="#C6C6C6"/>
<path d="M234.37 107.649L204.321 119.207V112.533L234.37 100.976V107.649Z" fill="#B1B1B1"/>
<path d="M204.321 112.533L195.786 108.836L226.959 97.7129L234.37 100.976L204.321 112.533Z" fill="#F0F0F0"/>
<path d="M148.648 140.217L140.104 143.677V137.004L148.648 133.533V140.217Z" fill="#C6C6C6"/>
<path d="M110.055 131.289L140.103 143.677V137.004L110.055 124.615V131.289Z" fill="#B1B1B1"/>
<path d="M140.104 137.004L148.648 133.533L117.466 121.56L110.055 124.615L140.104 137.004Z" fill="#F0F0F0"/>
<path d="M285.923 103.853C285.923 103.853 303.939 96.5364 316.248 99.5025C328.557 102.478 347.943 117.111 347.943 117.111L358.143 113.315C358.143 113.315 329.139 98.3358 310.315 98.7807" fill="#6BC1A8"/>
<path d="M285.923 103.853C285.923 103.853 303.939 96.5364 316.248 99.5025C328.557 102.478 347.943 117.111 347.943 117.111L358.143 113.315C358.143 113.315 329.139 98.3358 310.315 98.7807" stroke="#6BC1A8" stroke-width="4.35" stroke-linecap="round" stroke-linejoin="round"/>
<path d="M331.258 106.196C331.258 107.55 334.175 108.658 337.772 108.658C341.369 108.658 344.286 107.56 344.286 106.196V95.0434C344.286 93.6889 341.369 92.5815 337.772 92.5815C334.175 92.5815 331.258 93.679 331.258 95.0434V106.196Z" fill="#B1B1B1"/>
<path d="M337.772 97.5053C341.37 97.5053 344.286 96.403 344.286 95.0434C344.286 93.6838 341.37 92.5815 337.772 92.5815C334.174 92.5815 331.258 93.6838 331.258 95.0434C331.258 96.403 334.174 97.5053 337.772 97.5053Z" fill="white"/>
<path d="M257.431 124.843L204.35 138.586L203.454 138.16L256.534 124.418L257.431 124.843ZM212.057 141.552L197.333 134.641L196.437 134.878L211.161 141.789L212.057 141.552ZM216.827 140.316L202.103 133.405L201.207 133.642L215.931 140.553L216.827 140.316ZM221.597 139.08L206.873 132.169L205.977 132.406L220.7 139.317L221.597 139.08ZM226.357 137.844L211.634 130.933L210.737 131.17L225.461 138.081L226.357 137.844ZM231.127 136.608L216.404 129.697L215.507 129.935L230.231 136.846L231.127 136.608ZM235.888 135.372L221.164 128.461L220.267 128.699L234.991 135.61L235.888 135.372ZM240.658 134.146L225.934 127.235L225.037 127.473L239.761 134.384L240.658 134.146ZM245.428 132.91L230.704 126L229.807 126.237L244.531 133.148L245.428 132.91ZM250.188 131.675L235.464 124.764L234.567 125.001L249.291 131.912L250.188 131.675ZM254.958 130.439L240.234 123.528L239.337 123.765L254.061 130.676L254.958 130.439ZM259.718 129.203L244.994 122.292L244.097 122.529L258.821 129.44L259.718 129.203ZM264.488 127.967L249.764 121.056L248.867 121.293L263.591 128.204L264.488 127.967Z" fill="#F0F0F0"/>
<path d="M320.575 109.607L267.494 123.35L266.597 122.925L319.678 109.182L320.575 109.607ZM275.201 126.316L260.477 119.405L259.58 119.642L274.304 126.553L275.201 126.316ZM279.971 125.08L265.247 118.169L264.35 118.406L279.074 125.317L279.971 125.08ZM284.731 123.844L270.007 116.933L269.11 117.17L283.834 124.081L284.731 123.844ZM289.501 122.608L274.777 115.697L273.88 115.935L288.604 122.846L289.501 122.608ZM294.271 121.372L279.547 114.461L278.65 114.699L293.374 121.61L294.271 121.372ZM299.031 120.146L284.307 113.235L283.41 113.473L298.134 120.384L299.031 120.146ZM303.801 118.911L289.077 112L288.18 112.237L302.904 119.148L303.801 118.911ZM308.561 117.675L293.837 110.764L292.94 111.001L307.664 117.912L308.561 117.675ZM313.331 116.439L298.607 109.528L297.71 109.765L312.434 116.676L313.331 116.439ZM318.101 115.203L303.377 108.292L302.48 108.529L317.204 115.44L318.101 115.203ZM322.861 113.967L308.137 107.056L307.24 107.293L321.964 114.204L322.861 113.967ZM327.631 112.741L312.907 105.83L312.01 106.067L326.734 112.978L327.631 112.741Z" fill="#F0F0F0"/>
<path opacity="0.2" d="M266.567 71.1269L267.533 70.7709V61.6453L266.567 62.0012V71.1269ZM271.101 69.4659L272.067 69.1099V59.9842L271.101 60.3402V69.4659ZM275.644 67.8048L276.61 67.4489V58.3232L275.644 58.6792V67.8048ZM280.187 66.1438L281.153 65.7879V56.6622L280.187 57.0182V66.1438ZM284.721 64.4828L285.687 64.1269V55.0012L284.721 55.3571V64.4828ZM289.264 62.8218L290.23 62.4659V53.3402L289.264 53.6961V62.8218ZM293.807 61.1608L294.773 60.8049V51.6792L293.807 52.0351V61.1608ZM298.341 59.4998L299.307 59.1439V50.0182L298.341 50.3741V59.4998ZM302.884 57.8388L303.85 57.4828V48.3572L302.884 48.7131V57.8388ZM307.428 56.1778L308.393 55.8218V46.6962L307.428 47.0521V56.1778ZM311.961 54.5168L312.927 54.1608V45.0352L311.961 45.3911V54.5168ZM316.504 52.8557L317.47 52.4998V43.3741L316.504 43.7301V52.8557ZM321.048 51.1947L322.013 50.8388V41.7131L321.048 42.0691V51.1947ZM325.581 49.5337L326.547 49.1778V40.0521L325.581 40.4081V49.5337ZM330.124 47.8727L331.09 47.5168V38.3911L330.124 38.747V47.8727ZM334.668 46.2117L335.633 45.8558V36.7301L334.668 37.086V46.2117ZM339.211 44.5507L340.177 44.1948V35.0691L339.211 35.425V44.5507ZM343.744 42.8897L344.71 42.5338V33.4081L343.744 33.764V42.8897ZM264.379 71.8684L265.345 71.5125V62.3868L264.379 62.7427V71.8684ZM268.923 70.2074L269.889 69.8514V60.7258L268.923 61.0817V70.2074ZM273.456 68.5464L274.422 68.1904V59.0648L273.456 59.4207V68.5464ZM277.999 66.8854L278.965 66.5294V57.4038L277.999 57.7597V66.8854ZM282.543 65.2243L283.509 64.8684V55.7427L282.543 56.0987V65.2243ZM287.076 63.5633L288.042 63.2074V54.0817L287.076 54.4377V63.5633ZM291.62 61.9023L292.585 61.5464V52.4207L291.62 52.7767V61.9023ZM296.163 60.2413L297.129 59.8854V50.7597L296.163 51.1156V60.2413ZM300.696 58.5803L301.662 58.2244V49.0987L300.696 49.4546V58.5803ZM305.24 56.9193L306.205 56.5634V47.4377L305.24 47.7936V56.9193ZM309.783 55.2583L310.749 54.9023V45.7767L309.783 46.1326V55.2583ZM314.316 53.5973L315.282 53.2413V44.1157L314.316 44.4716V53.5973ZM318.86 51.9363L319.826 51.5803V42.4547L318.86 42.8106V51.9363ZM323.403 50.2752L324.369 49.9193V40.7936L323.403 41.1496V50.2752ZM327.936 48.6142L328.902 48.2583V39.1326L327.936 39.4886V48.6142ZM332.48 46.9532L333.446 46.5973V37.4716L332.48 37.8276V46.9532ZM337.023 45.2922L337.989 44.9363V35.8106L337.023 36.1665V45.2922ZM341.557 43.6312L342.522 43.2753V34.1496L341.557 34.5055V43.6312Z" fill="black"/>
<path opacity="0.3" d="M260.437 62.3769L259.471 62.0308V71.3839L260.437 71.7299V62.3769ZM255.904 60.7356L254.938 60.3896V69.7427L255.904 70.0887V60.7356ZM251.36 59.0944L250.395 58.7483V68.1014L251.36 68.4475V59.0944ZM246.817 57.4532L245.851 57.1071V66.4602L246.817 66.8062V57.4532ZM242.284 55.8218L241.318 55.4758V64.8288L242.284 65.1749V55.8218ZM237.74 54.1806L236.774 53.8345V63.1876L237.74 63.5336V54.1806ZM233.197 52.5393L232.231 52.1933V61.5464L233.197 61.8924V52.5393ZM262.625 63.1085L261.659 62.7625V72.1155L262.625 72.4616V63.1085ZM258.082 61.4673L257.116 61.1212V70.4743L258.082 70.8203V61.4673ZM253.548 59.8359L252.582 59.4899V68.8429L253.548 69.189V59.8359ZM249.005 58.1947L248.039 57.8486V67.2017L249.005 67.5478V58.1947ZM244.462 56.5534L243.496 56.2074V65.5605L244.462 65.9065V56.5534ZM239.928 54.9122L238.962 54.5662V63.9192L239.928 64.2653V54.9122ZM235.385 53.271L234.419 52.9249V62.278L235.385 62.624V53.271ZM230.842 51.6297L229.876 51.2837V60.6368L230.842 60.9828V51.6297Z" fill="black"/>
<path opacity="0.2" d="M148.333 101.134L149.299 100.778V91.3556L148.333 91.7115V101.134ZM152.856 99.4926L153.822 99.1366V89.7144L152.856 90.0703V99.4926ZM157.38 97.8414L158.346 97.4855V88.0632L157.38 88.4192V97.8414ZM161.904 96.1903L162.869 95.8344V86.4121L161.904 86.768V96.1903ZM166.427 94.5491L167.393 94.1932V84.7709L166.427 85.1268V94.5491ZM170.951 92.898L171.917 92.542V83.1198L170.951 83.4757V92.898ZM146.066 101.954L147.032 101.598V92.1762L146.066 92.5321V101.954ZM150.59 100.313L151.555 99.9573V90.535L150.59 90.8909V100.313ZM155.123 98.6621L156.089 98.3061V88.8839L155.123 89.2398V98.6621ZM159.647 97.0208L160.613 96.6649V87.2426L159.647 87.5985V97.0208ZM164.17 95.3697L165.136 95.0138V85.5915L164.17 85.9474V95.3697ZM168.694 93.7285L169.66 93.3725V83.9503L168.694 84.3062V93.7285Z" fill="black"/>
<path opacity="0.2" d="M98.2979 82.6155L99.2637 82.2596V72.8373L98.2979 73.1932V82.6155ZM102.821 80.9644L103.787 80.6084V71.1862L102.821 71.5421V80.9644ZM96.041 83.4361L97.0068 83.0802V73.6579L96.041 74.0138V83.4361ZM100.565 81.7949L101.53 81.4389V72.0167L100.565 72.3726V81.7949ZM105.088 80.1437L106.054 79.7878V70.3655L105.088 70.7215V80.1437Z" fill="black"/>
<path opacity="0.2" d="M90.9056 72.9955L89.9398 72.6395V82.0618L90.9056 82.4177V72.9955ZM86.382 71.3443L85.4162 70.9884V80.4107L86.382 80.7666V71.3443ZM81.8584 69.7031L80.8926 69.3472V78.7694L81.8584 79.1254V69.7031ZM77.3348 68.052L76.369 67.696V77.1183L77.3348 77.4743V68.052ZM93.1724 73.8161L92.2065 73.4601V82.8824L93.1724 83.2384V73.8161ZM88.6488 72.1748L87.683 71.8189V81.2412L88.6488 81.5971V72.1748ZM84.1252 70.5237L83.1593 70.1678V79.5901L84.1252 79.946V70.5237ZM79.6016 68.8825L78.6357 68.5265V77.9488L79.6016 78.3048V68.8825Z" fill="black"/>
<path opacity="0.2" d="M141.266 91.8697L140.301 91.5137V100.936L141.266 101.292V91.8697ZM136.743 90.2284L135.777 89.8725V99.2948L136.743 99.6507V90.2284ZM132.219 88.5773L131.253 88.2214V97.6437L132.219 97.9996V88.5773ZM127.696 86.9361L126.73 86.5801V96.0024L127.696 96.3583V86.9361ZM123.172 85.2849L122.206 84.929V94.3513L123.172 94.7072V85.2849ZM143.533 92.7002L142.567 92.3442V101.767L143.533 102.122V92.7002ZM139.01 91.049L138.044 90.6931V100.115L139.01 100.471V91.049ZM134.486 89.3979L133.52 89.042V98.4643L134.486 98.8202V89.3979ZM129.962 87.7567L128.997 87.4008V96.823L129.962 97.179V87.7567ZM125.429 86.1056L124.463 85.7496V95.1719L125.429 95.5278V86.1056Z" fill="black"/>
<path d="M228.417 71.7003L213.693 66.0845L224.229 61.9715L238.775 67.9037L228.417 71.7003Z" fill="#F0F0F0"/>
<path d="M264.458 17.1044V16.6694L268.854 15.1073H270.086L271.249 15.5225L265.631 17.5197L264.468 17.1044H264.458ZM259.797 19.5861L265.414 17.5889L264.251 17.1736H263.019L258.624 18.7358V19.1708L259.787 19.5861H259.797ZM271.387 15.572L265.769 17.5691L267.553 18.2019L273.17 16.2047L271.387 15.572ZM250.02 20.2485L255.638 18.2513L253.854 17.6186L248.236 19.6157L250.02 20.2485ZM259.688 15.5621L254.071 17.5592L255.854 18.192L261.472 16.1948L259.688 15.5621ZM265.523 13.4957L259.905 15.4929L261.689 16.1256L267.306 14.1285L265.523 13.4957ZM255.884 22.3346L261.502 20.3375L259.718 19.7047L254.1 21.7019L255.884 22.3346ZM261.748 24.4109L267.366 22.4137L265.582 21.781L259.964 23.7781L261.748 24.4109ZM277.25 17.6482L271.633 19.6454L273.417 20.2782L279.034 18.281L277.25 17.6482ZM271.416 19.7245L265.799 21.7216L267.582 22.3544L273.2 20.3572L271.416 19.7245ZM271.485 19.596L277.103 17.5988L275.94 17.1835H274.708L270.312 18.7457V19.1807L271.475 19.596H271.485ZM265.661 21.6623L271.278 19.6652L270.115 19.2499H268.883L264.488 20.812V21.2471L265.651 21.6623H265.661ZM265.552 17.6383L259.935 19.6355L261.718 20.2683L267.336 18.2711L265.552 17.6383ZM273.338 20.3968L267.72 22.394L268.883 22.8092H270.115L274.511 21.2471V20.812L273.348 20.3968H273.338ZM265.454 21.7414L264.291 21.3262H263.059L258.663 22.8883V23.3233L259.826 23.7386L265.444 21.7414H265.454ZM259.757 15.4335L265.375 13.4364L264.212 13.0211H262.98L258.584 14.5833V15.0183L259.747 15.4335H259.757ZM261.64 20.3869L256.022 22.3841L257.185 22.7993H258.417L262.812 21.2372V20.8022L261.649 20.3869H261.64ZM267.474 18.3205L261.856 20.3177L263.019 20.733H264.251L268.647 19.1708V18.7358L267.484 18.3205H267.474ZM280.335 18.7457L279.172 18.3304L273.555 20.3276L274.718 20.7428H275.95L280.345 19.1807V18.7457H280.335ZM267.504 22.4632L261.886 24.4603L263.049 24.8756H264.281L268.676 23.3135V22.8784L267.513 22.4632H267.504ZM273.298 16.2542L267.681 18.2513L268.844 18.6666H270.076L274.471 17.1044V16.6694L273.308 16.2542H273.298ZM259.59 19.6553L258.427 19.24H257.195L252.799 20.8022V21.2372L253.962 21.6524L259.58 19.6553H259.59ZM253.726 17.579L252.563 17.1638H251.331L246.935 18.7259V19.1609L248.098 19.5762L253.716 17.579H253.726ZM253.933 17.4999L259.55 15.5027L258.387 15.0875H257.155L252.76 16.6496V17.0847L253.923 17.4999H253.933ZM255.776 18.3106L250.158 20.3078L251.321 20.7231H252.553L256.948 19.1609V18.7259L255.786 18.3106H255.776ZM267.435 14.1779L261.817 16.1751L262.98 16.5903H264.212L268.607 15.0282V14.5931L267.444 14.1779H267.435ZM261.61 16.2443L255.992 18.2414L257.155 18.6567H258.387L262.783 17.0945V16.6595L261.62 16.2443H261.61Z" fill="#3D396B" stroke="white" stroke-width="0.145" stroke-miterlimit="10"/>
<path d="M282.464 23.6694V23.2344L286.859 21.6722H288.091L289.254 22.0875L283.637 24.0846L282.474 23.6694H282.464ZM277.802 26.151L283.42 24.1538L282.257 23.7386H281.025L276.629 25.3007V25.7358L277.792 26.151H277.802ZM289.392 22.1369L283.775 24.1341L285.558 24.7668L291.176 22.7697L289.392 22.1369ZM268.026 26.8233L273.643 24.8262L271.86 24.1934L266.242 26.1906L268.026 26.8233ZM277.694 22.127L272.076 24.1242L273.86 24.7569L279.478 22.7598L277.694 22.127ZM283.528 20.0606L277.911 22.0578L279.694 22.6906L285.312 20.6934L283.528 20.0606ZM273.89 28.8996L279.507 26.9024L277.723 26.2696L272.106 28.2668L273.89 28.8996ZM279.754 30.9758L285.371 28.9787L283.587 28.3459L277.97 30.3431L279.754 30.9758ZM295.256 24.223L289.639 26.2202L291.422 26.853L297.04 24.8558L295.256 24.223ZM289.422 26.2894L283.804 28.2866L285.588 28.9194L291.206 26.9222L289.422 26.2894ZM289.491 26.1609L295.108 24.1637L293.945 23.7485H292.713L288.318 25.3106V25.7456L289.481 26.1609H289.491ZM283.666 28.2372L289.284 26.24L288.121 25.8247H286.889L282.493 27.3869V27.8219L283.656 28.2372H283.666ZM283.558 24.2132L277.94 26.2103L279.724 26.8431L285.342 24.8459L283.558 24.2132ZM291.344 26.9716L285.726 28.9688L286.889 29.384H288.121L292.516 27.8219V27.3869L291.353 26.9716H291.344ZM283.459 28.3064L282.296 27.8911H281.064L276.669 29.4533V29.8883L277.832 30.3035L283.449 28.3064H283.459ZM277.763 22.0084L283.38 20.0112L282.217 19.5959H280.986L276.59 21.1581V21.5931L277.753 22.0084H277.763ZM279.655 26.9519L274.038 28.949L275.2 29.3643H276.432L280.828 27.8021V27.3671L279.665 26.9519H279.655ZM285.48 24.8855L279.862 26.8826L281.025 27.2979H282.257L286.652 25.7358V25.3007L285.489 24.8855H285.48ZM298.341 25.3205L297.178 24.9052L291.56 26.9024L292.723 27.3177H293.955L298.351 25.7555V25.3205H298.341ZM285.519 29.038L279.901 31.0352L281.064 31.4504H282.296L286.692 29.8883V29.4533L285.529 29.038H285.519ZM291.314 22.8191L285.696 24.8163L286.859 25.2315H288.091L292.487 23.6694V23.2344L291.324 22.8191H291.314ZM277.595 26.2301L276.432 25.8149H275.2L270.805 27.377V27.812L271.968 28.2273L277.585 26.2301H277.595ZM271.731 24.144L270.568 23.7287H269.337L264.941 25.2908V25.7259L266.104 26.1411L271.722 24.144H271.731ZM271.938 24.0747L277.556 22.0776L276.393 21.6623H275.161L270.766 23.2245V23.6595L271.929 24.0747H271.938ZM273.791 24.8756L268.174 26.8728L269.337 27.288H270.568L274.964 25.7259V25.2908L273.801 24.8756H273.791ZM285.45 20.7428L279.832 22.74L280.995 23.1553H282.227L286.623 21.5931V21.1581L285.46 20.7428H285.45ZM279.616 22.8092L273.998 24.8064L275.161 25.2216H276.393L280.788 23.6595V23.2245L279.626 22.8092H279.616Z" fill="#3D396B" stroke="white" stroke-width="0.145" stroke-miterlimit="10"/>
<path d="M300.47 30.2442V29.8092L304.865 28.247H306.097L307.26 28.6623L301.642 30.6595L300.479 30.2442H300.47ZM295.808 32.7258L301.426 30.7287L300.263 30.3134H299.031L294.635 31.8756V32.3106L295.798 32.7258H295.808ZM307.398 28.7117L301.78 30.7089L303.564 31.3417L309.182 29.3445L307.398 28.7117ZM286.032 33.3883L291.649 31.3911L289.865 30.7583L284.248 32.7555L286.032 33.3883ZM295.709 28.7018L290.092 30.699L291.876 31.3318L297.493 29.3346L295.709 28.7018ZM301.534 26.6256L295.916 28.6227L297.7 29.2555L303.318 27.2583L301.534 26.6256ZM291.895 35.4744L297.513 33.4772L295.729 32.8445L290.112 34.8416L291.895 35.4744ZM297.759 37.5507L303.377 35.5535L301.593 34.9207L295.976 36.9179L297.759 37.5507ZM313.262 30.788L307.644 32.7852L309.428 33.4179L315.046 31.4208L313.262 30.788ZM307.437 32.8544L301.82 34.8515L303.604 35.4843L309.221 33.4871L307.437 32.8544ZM307.506 32.7357L313.124 30.7386L311.961 30.3233H310.729L306.333 31.8854V32.3205L307.496 32.7357H307.506ZM301.672 34.8021L307.289 32.8049L306.127 32.3897H304.895L300.499 33.9518V34.3868L301.662 34.8021H301.672ZM301.573 30.7781L295.956 32.7753L297.74 33.408L303.357 31.4109L301.573 30.7781ZM309.349 33.5366L303.732 35.5337L304.895 35.949H306.127L310.522 34.3868V33.9518L309.359 33.5366H309.349ZM301.465 34.8713L300.302 34.4561H299.07L294.675 36.0182V36.4532L295.838 36.8685L301.455 34.8713H301.465ZM295.778 28.5733L301.396 26.5761L300.233 26.1609H299.001L294.606 27.723V28.1581L295.769 28.5733H295.778ZM297.661 33.5267L292.043 35.5238L293.206 35.9391H294.438L298.834 34.377V33.9419L297.671 33.5267H297.661ZM303.485 31.4603L297.868 33.4575L299.031 33.8727H300.263L304.658 32.3106V31.8756L303.495 31.4603H303.485ZM316.347 31.8854L315.184 31.4702L309.566 33.4674L310.729 33.8826H311.961L316.356 32.3205V31.8854H316.347ZM303.525 35.6029L297.907 37.6001L299.07 38.0154H300.302L304.698 36.4532V36.0182L303.535 35.6029H303.525ZM309.32 29.3939L303.702 31.3911L304.865 31.8063H306.097L310.492 30.2442V29.8092L309.33 29.3939H309.32ZM295.601 32.795L294.438 32.3798H293.206L288.811 33.9419V34.377L289.974 34.7922L295.591 32.795H295.601ZM289.737 30.7188L288.574 30.3035H287.342L282.947 31.8657V32.3007L284.11 32.7159L289.727 30.7188H289.737ZM289.944 30.6397L295.562 28.6425L294.399 28.2273H293.167L288.771 29.7894V30.2244L289.934 30.6397H289.944ZM291.797 31.4504L286.179 33.4476L287.342 33.8628H288.574L292.97 32.3007V31.8657L291.807 31.4504H291.797ZM303.456 27.3078L297.838 29.3049L299.001 29.7202H300.233L304.629 28.1581V27.723L303.466 27.3078H303.456ZM297.621 29.3742L292.004 31.3713L293.167 31.7866H294.399L298.794 30.2244V29.7894L297.631 29.3742H297.621Z" fill="#3D396B" stroke="white" stroke-width="0.145" stroke-miterlimit="10"/>
<g clip-path="url(#clip15_12_1775)">
<path opacity="0.3" d="M323.899 78.6999C327.087 78.6999 329.672 77.6847 329.672 76.4325C329.672 75.1802 327.087 74.1651 323.899 74.1651C320.711 74.1651 318.126 75.1802 318.126 76.4325C318.126 77.6847 320.711 78.6999 323.899 78.6999Z" fill="black"/>
<path d="M323.899 58.511C323.899 58.511 322.213 76.5448 322.213 76.6641C322.213 77.2046 322.968 77.6399 323.899 77.6399C324.83 77.6399 325.585 77.2046 325.585 76.6641C325.585 76.5448 323.899 58.511 323.899 58.511Z" fill="#9B7225"/>
<g style="mix-blend-mode:multiply" opacity="0.2">
<path d="M323.899 77.6399C324.83 77.6399 325.585 77.2046 325.585 76.6641C325.585 76.5448 323.899 58.511 323.899 58.511" fill="black"/>
</g>
<path d="M323.899 73.3087C327.972 73.3087 331.274 69.9961 331.274 65.9099C331.274 61.8236 327.972 58.511 323.899 58.511C319.826 58.511 316.524 61.8236 316.524 65.9099C316.524 69.9961 319.826 73.3087 323.899 73.3087Z" fill="#4B9E81"/>
<path opacity="0.3" d="M323.899 58.511C327.971 58.511 331.274 61.8244 331.274 65.9099C331.274 69.9954 327.971 73.3087 323.899 73.3087" fill="black"/>
</g>
<g clip-path="url(#clip16_12_1775)">
<path opacity="0.3" d="M317.671 126.375C320.859 126.375 323.443 125.36 323.443 124.107C323.443 122.855 320.859 121.84 317.671 121.84C314.482 121.84 311.898 122.855 311.898 124.107C311.898 125.36 314.482 126.375 317.671 126.375Z" fill="black"/>
<path d="M317.671 106.186C317.671 106.186 315.984 124.22 315.984 124.339C315.984 124.88 316.74 125.315 317.671 125.315C318.601 125.315 319.357 124.88 319.357 124.339C319.357 124.22 317.671 106.186 317.671 106.186Z" fill="#9B7225"/>
<g style="mix-blend-mode:multiply" opacity="0.2">
<path d="M317.671 125.315C318.601 125.315 319.357 124.88 319.357 124.339C319.357 124.22 317.671 106.186 317.671 106.186" fill="black"/>
</g>
<path d="M317.671 120.984C321.744 120.984 325.046 117.671 325.046 113.585C325.046 109.499 321.744 106.186 317.671 106.186C313.597 106.186 310.295 109.499 310.295 113.585C310.295 117.671 313.597 120.984 317.671 120.984Z" fill="#4B9E81"/>
<path opacity="0.3" d="M317.671 106.186C321.743 106.186 325.046 109.499 325.046 113.585C325.046 117.67 321.743 120.984 317.671 120.984" fill="black"/>
</g>
<g clip-path="url(#clip17_12_1775)">
<path opacity="0.3" d="M263.919 139.742C267.108 139.742 269.692 138.727 269.692 137.475C269.692 136.222 267.108 135.207 263.919 135.207C260.731 135.207 258.147 136.222 258.147 137.475C258.147 138.727 260.731 139.742 263.919 139.742Z" fill="black"/>
<path d="M263.92 119.553C263.92 119.553 262.233 137.587 262.233 137.706C262.233 138.247 262.989 138.682 263.92 138.682C264.85 138.682 265.606 138.247 265.606 137.706C265.606 137.587 263.92 119.553 263.92 119.553Z" fill="#9B7225"/>
<g style="mix-blend-mode:multiply" opacity="0.2">
<path d="M263.919 138.682C264.85 138.682 265.606 138.247 265.606 137.706C265.606 137.587 263.919 119.553 263.919 119.553" fill="black"/>
</g>
<path d="M263.919 134.351C267.993 134.351 271.295 131.038 271.295 126.952C271.295 122.866 267.993 119.553 263.919 119.553C259.846 119.553 256.544 122.866 256.544 126.952C256.544 131.038 259.846 134.351 263.919 134.351Z" fill="#4B9E81"/>
<path opacity="0.3" d="M263.919 119.553C267.992 119.553 271.295 122.867 271.295 126.952C271.295 131.038 267.992 134.351 263.919 134.351" fill="black"/>
</g>
<g clip-path="url(#clip18_12_1775)">
<path opacity="0.3" d="M200.343 147.968C203.531 147.968 206.115 146.953 206.115 145.701C206.115 144.448 203.531 143.433 200.343 143.433C197.155 143.433 194.57 144.448 194.57 145.701C194.57 146.953 197.155 147.968 200.343 147.968Z" fill="black"/>
<path d="M200.343 127.779C200.343 127.779 198.656 145.813 198.656 145.932C198.656 146.473 199.412 146.908 200.343 146.908C201.273 146.908 202.029 146.473 202.029 145.932C202.029 145.813 200.343 127.779 200.343 127.779Z" fill="#9B7225"/>
<g style="mix-blend-mode:multiply" opacity="0.2">
<path d="M200.343 146.908C201.273 146.908 202.029 146.473 202.029 145.932C202.029 145.813 200.343 127.779 200.343 127.779" fill="black"/>
</g>
<path d="M200.343 142.577C204.416 142.577 207.718 139.264 207.718 135.178C207.718 131.092 204.416 127.779 200.343 127.779C196.269 127.779 192.968 131.092 192.968 135.178C192.968 139.264 196.269 142.577 200.343 142.577Z" fill="#4B9E81"/>
<path opacity="0.3" d="M200.343 127.779C204.415 127.779 207.718 131.092 207.718 135.178C207.718 139.263 204.415 142.577 200.343 142.577" fill="black"/>
</g>
</g>
</g>
<defs>
<linearGradient id="paint0_linear_12_1775" x1="304.175" y1="93.2044" x2="304.175" y2="41.9603" gradientUnits="userSpaceOnUse">
<stop stop-color="white"/>
<stop offset="0.87" stop-color="white" stop-opacity="0.02"/>
</linearGradient>
<linearGradient id="paint1_linear_12_1775" x1="251.942" y1="70.2963" x2="264.578" y2="92.1114" gradientUnits="userSpaceOnUse">
<stop stop-color="white"/>
<stop offset="1" stop-color="white" stop-opacity="0.02"/>
</linearGradient>
<clipPath id="clip0_12_1775">
<rect width="444" height="149" fill="white"/>
</clipPath>
<clipPath id="clip1_12_1775">
<rect width="443.096" height="148.7" fill="white"/>
</clipPath>
<clipPath id="clip2_12_1775">
<rect width="11.7791" height="8.222" fill="white" transform="translate(410.317 80.9446)"/>
</clipPath>
<clipPath id="clip3_12_1775">
<rect width="11.7791" height="8.222" fill="white" transform="translate(252.868 40.6651)"/>
</clipPath>
<clipPath id="clip4_12_1775">
<rect width="11.7791" height="8.222" fill="white" transform="translate(223.588 91.0095)"/>
</clipPath>
<clipPath id="clip5_12_1775">
<rect width="11.7791" height="8.222" fill="white" transform="translate(410.317 70.0689)"/>
</clipPath>
<clipPath id="clip6_12_1775">
<rect width="16.2687" height="25.7641" fill="white" transform="translate(418.714 58.5901)"/>
</clipPath>
<clipPath id="clip7_12_1775">
<rect width="11.7791" height="8.222" fill="white" transform="translate(410.1 80.2327)"/>
</clipPath>
<clipPath id="clip8_12_1775">
<rect width="11.7791" height="8.222" fill="white" transform="translate(252.651 39.9532)"/>
</clipPath>
<clipPath id="clip9_12_1775">
<rect width="11.7791" height="8.222" fill="white" transform="translate(223.371 90.2977)"/>
</clipPath>
<clipPath id="clip10_12_1775">
<rect width="11.7791" height="8.222" fill="white" transform="translate(410.1 69.3571)"/>
</clipPath>
<clipPath id="clip11_12_1775">
<rect width="16.2687" height="25.7641" fill="white" transform="translate(418.497 57.8684)"/>
</clipPath>
<clipPath id="clip12_12_1775">
<rect width="16.2687" height="25.7641" fill="white" transform="translate(373.103 57.0478)"/>
</clipPath>
<clipPath id="clip13_12_1775">
<rect width="16.2687" height="25.7641" fill="white" transform="translate(359.089 61.9814)"/>
</clipPath>
<clipPath id="clip14_12_1775">
<rect width="16.2687" height="25.7641" fill="white" transform="translate(345.085 66.915)"/>
</clipPath>
<clipPath id="clip15_12_1775">
<rect width="14.7573" height="20.1888" fill="white" transform="translate(316.524 58.511)"/>
</clipPath>
<clipPath id="clip16_12_1775">
<rect width="14.7573" height="20.1888" fill="white" transform="translate(310.295 106.186)"/>
</clipPath>
<clipPath id="clip17_12_1775">
<rect width="14.7573" height="20.1888" fill="white" transform="translate(256.544 119.553)"/>
</clipPath>
<clipPath id="clip18_12_1775">
<rect width="14.7573" height="20.1888" fill="white" transform="translate(192.968 127.779)"/>
</clipPath>
</defs>
</svg>
