<svg width="192" height="49" viewBox="0 0 192 49" fill="none" xmlns="http://www.w3.org/2000/svg">
<rect width="192" height="49" rx="24.5" fill="#C6C6C6"/>
<path d="M29.5165 33.4C27.9332 33.4 26.5165 33.025 25.2665 32.275C24.0332 31.525 23.0665 30.4667 22.3665 29.1C21.6665 27.7167 21.3165 26.1 21.3165 24.25C21.3165 22.3833 21.6665 20.7667 22.3665 19.4C23.0665 18.0167 24.0332 16.95 25.2665 16.2C26.5165 15.4333 27.9332 15.05 29.5165 15.05C30.6998 15.05 31.7832 15.2667 32.7665 15.7C33.7665 16.1333 34.6332 16.7417 35.3665 17.525C35.6998 17.8917 35.8082 18.2667 35.6915 18.65C35.5748 19.0167 35.3498 19.3 35.0165 19.5L34.8915 19.575C34.6748 19.7083 34.3665 19.7583 33.9665 19.725C33.5665 19.6917 33.1998 19.5167 32.8665 19.2C32.4332 18.7667 31.9332 18.4417 31.3665 18.225C30.8165 17.9917 30.1998 17.875 29.5165 17.875C28.4832 17.875 27.5748 18.1417 26.7915 18.675C26.0082 19.1917 25.3998 19.9333 24.9665 20.9C24.5498 21.85 24.3415 22.9667 24.3415 24.25C24.3415 25.5167 24.5498 26.6333 24.9665 27.6C25.3998 28.55 26.0082 29.2917 26.7915 29.825C27.5748 30.3417 28.4832 30.6 29.5165 30.6C30.8332 30.6 31.9498 30.1583 32.8665 29.275C33.1998 28.9583 33.5415 28.775 33.8915 28.725C34.2415 28.675 34.5748 28.725 34.8915 28.875L34.9415 28.925C35.2915 29.0917 35.5332 29.375 35.6665 29.775C35.8165 30.1583 35.7332 30.5333 35.4165 30.9C34.6832 31.7 33.8165 32.3167 32.8165 32.75C31.8165 33.1833 30.7165 33.4 29.5165 33.4ZM44.4134 33.275C43.3134 33.275 42.3217 33.0167 41.4384 32.5C40.5717 31.9667 39.88 31.2333 39.3634 30.3C38.8634 29.35 38.6134 28.2417 38.6134 26.975C38.6134 25.7083 38.8634 24.6083 39.3634 23.675C39.88 22.725 40.5717 21.9917 41.4384 21.475C42.3217 20.9417 43.3134 20.675 44.4134 20.675C45.5467 20.675 46.5467 20.9417 47.4134 21.475C48.2967 21.9917 48.9884 22.725 49.4884 23.675C49.9884 24.6083 50.2384 25.7083 50.2384 26.975C50.2384 28.2417 49.9884 29.35 49.4884 30.3C48.9884 31.2333 48.2967 31.9667 47.4134 32.5C46.5467 33.0167 45.5467 33.275 44.4134 33.275ZM44.4134 30.725C45.2967 30.725 46.0134 30.4 46.5634 29.75C47.13 29.1 47.4134 28.175 47.4134 26.975C47.4134 25.775 47.13 24.85 46.5634 24.2C46.0134 23.55 45.2967 23.225 44.4134 23.225C43.5467 23.225 42.8384 23.55 42.2884 24.2C41.7384 24.85 41.4634 25.775 41.4634 26.975C41.4634 28.175 41.7384 29.1 42.2884 29.75C42.8384 30.4 43.5467 30.725 44.4134 30.725ZM54.5911 33C53.6411 33 53.1661 32.5083 53.1661 31.525V22.45C53.1661 21.4667 53.5911 20.975 54.4411 20.975C55.2744 20.975 55.7161 21.1917 55.7661 21.625L55.8661 22.425C56.0994 21.925 56.4911 21.5083 57.0411 21.175C57.5911 20.8417 58.2244 20.675 58.9411 20.675C59.7244 20.675 60.4078 20.8583 60.9911 21.225C61.5744 21.5917 62.0244 22.1167 62.3411 22.8C62.6578 22.1833 63.1161 21.675 63.7161 21.275C64.3328 20.875 65.0328 20.675 65.8161 20.675C66.9994 20.675 67.9494 21.0917 68.6661 21.925C69.3994 22.7417 69.7661 23.9 69.7661 25.4V31.525C69.7661 32.5083 69.2994 33 68.3661 33C67.3994 33 66.9161 32.5083 66.9161 31.525V26.05C66.9161 25.1667 66.7578 24.475 66.4411 23.975C66.1244 23.475 65.6828 23.225 65.1161 23.225C64.3994 23.225 63.8411 23.4833 63.4411 24C63.0578 24.5167 62.8661 25.25 62.8661 26.2V31.525C62.8661 32.5083 62.3994 33 61.4661 33C60.5161 33 60.0411 32.5083 60.0411 31.525V26.05C60.0411 25.1667 59.8744 24.475 59.5411 23.975C59.2078 23.475 58.7578 23.225 58.1911 23.225C57.4911 23.225 56.9494 23.4917 56.5661 24.025C56.1828 24.5417 55.9911 25.2667 55.9911 26.2V31.525C55.9911 32.5083 55.5244 33 54.5911 33ZM75.1194 33C74.1861 33 73.7194 32.5083 73.7194 31.525V22.45C73.7194 21.4667 74.1861 20.975 75.1194 20.975C76.0528 20.975 76.5194 21.4667 76.5194 22.45V31.525C76.5194 32.5083 76.0528 33 75.1194 33ZM75.0944 19C74.6111 19 74.1944 18.825 73.8444 18.475C73.4944 18.125 73.3194 17.7083 73.3194 17.225C73.3194 16.7417 73.4944 16.325 73.8444 15.975C74.1944 15.625 74.6111 15.45 75.0944 15.45C75.5778 15.45 75.9944 15.625 76.3444 15.975C76.6944 16.325 76.8694 16.7417 76.8694 17.225C76.8694 17.7083 76.6944 18.125 76.3444 18.475C75.9944 18.825 75.5778 19 75.0944 19ZM81.8362 33C80.8862 33 80.4112 32.5083 80.4112 31.525V22.45C80.4112 21.4667 80.8362 20.975 81.6862 20.975C82.5362 20.975 82.9779 21.1917 83.0112 21.625L83.0862 22.4C83.4196 21.9333 83.8612 21.5333 84.4112 21.2C84.9612 20.85 85.6112 20.675 86.3612 20.675C87.6112 20.675 88.6279 21.075 89.4112 21.875C90.2112 22.675 90.6112 23.85 90.6112 25.4V31.525C90.6112 32.5083 90.1446 33 89.2112 33C88.2612 33 87.7862 32.5083 87.7862 31.525V26.075C87.7862 25.125 87.5946 24.4167 87.2112 23.95C86.8279 23.4667 86.3112 23.225 85.6612 23.225C84.9446 23.225 84.3612 23.475 83.9112 23.975C83.4612 24.4583 83.2362 25.1833 83.2362 26.15V31.525C83.2362 32.5083 82.7696 33 81.8362 33ZM99.1175 37.975C97.2341 37.975 95.7425 37.425 94.6425 36.325C94.2925 35.9583 94.1508 35.6 94.2175 35.25C94.2841 34.9 94.5008 34.6083 94.8675 34.375C95.2341 34.125 95.5675 34.0417 95.8675 34.125C96.1675 34.2083 96.5008 34.3917 96.8675 34.675C97.4508 35.175 98.2008 35.425 99.1175 35.425C100.101 35.425 100.826 35.125 101.292 34.525C101.759 33.925 101.992 32.9667 101.992 31.65V30.975C101.209 31.7917 100.217 32.2 99.0175 32.2C97.9675 32.2 97.0258 31.9833 96.1925 31.55C95.3758 31.1 94.7341 30.45 94.2675 29.6C93.8008 28.7333 93.5675 27.675 93.5675 26.425C93.5675 25.1583 93.8008 24.1 94.2675 23.25C94.7341 22.4 95.3758 21.7583 96.1925 21.325C97.0258 20.8917 97.9675 20.675 99.0175 20.675C99.6675 20.675 100.292 20.8167 100.892 21.1C101.492 21.3667 101.984 21.825 102.367 22.475V22.05C102.367 21.6333 102.476 21.35 102.692 21.2C102.909 21.05 103.209 20.975 103.592 20.975C104.392 20.975 104.792 21.4667 104.792 22.45V31.65C104.792 33.6333 104.326 35.1833 103.392 36.3C102.476 37.4167 101.051 37.975 99.1175 37.975ZM99.2425 29.725C100.109 29.725 100.817 29.4333 101.367 28.85C101.917 28.25 102.192 27.4417 102.192 26.425C102.192 25.3917 101.917 24.5917 101.367 24.025C100.817 23.4417 100.109 23.15 99.2425 23.15C98.3758 23.15 97.6841 23.4417 97.1675 24.025C96.6675 24.5917 96.4175 25.3917 96.4175 26.425C96.4175 27.4417 96.6675 28.25 97.1675 28.85C97.6841 29.4333 98.3758 29.725 99.2425 29.725ZM122.446 33.35C121.213 33.35 120.063 33.1417 118.996 32.725C117.93 32.2917 117.013 31.575 116.246 30.575C115.963 30.175 115.863 29.8083 115.946 29.475C116.046 29.125 116.296 28.8417 116.696 28.625C117.08 28.3917 117.43 28.325 117.746 28.425C118.063 28.5083 118.38 28.725 118.696 29.075C119.146 29.5583 119.68 29.9333 120.296 30.2C120.93 30.4667 121.68 30.6 122.546 30.6C123.713 30.6 124.53 30.3917 124.996 29.975C125.48 29.5417 125.721 28.9583 125.721 28.225C125.721 27.7583 125.613 27.3583 125.396 27.025C125.196 26.6917 124.763 26.3833 124.096 26.1C123.446 25.8 122.438 25.5 121.071 25.2C119.455 24.8167 118.255 24.2083 117.471 23.375C116.705 22.5417 116.321 21.4833 116.321 20.2C116.321 19.1833 116.563 18.2917 117.046 17.525C117.546 16.7417 118.238 16.1333 119.121 15.7C120.021 15.2667 121.071 15.05 122.271 15.05C123.521 15.05 124.613 15.2667 125.546 15.7C126.48 16.1333 127.263 16.6917 127.896 17.375C128.213 17.725 128.338 18.075 128.271 18.425C128.205 18.775 127.988 19.0917 127.621 19.375C127.255 19.675 126.905 19.7917 126.571 19.725C126.238 19.6583 125.905 19.4667 125.571 19.15C125.155 18.7667 124.68 18.45 124.146 18.2C123.613 17.95 122.98 17.825 122.246 17.825C121.38 17.825 120.671 18.0167 120.121 18.4C119.588 18.7667 119.321 19.325 119.321 20.075C119.321 20.4083 119.396 20.7333 119.546 21.05C119.713 21.35 120.063 21.6417 120.596 21.925C121.146 22.2083 121.988 22.4833 123.121 22.75C125.121 23.2 126.563 23.875 127.446 24.775C128.33 25.675 128.771 26.8083 128.771 28.175C128.771 29.8417 128.188 31.125 127.021 32.025C125.871 32.9083 124.346 33.35 122.446 33.35ZM137.147 33.275C136.047 33.275 135.055 33.0167 134.172 32.5C133.305 31.9667 132.613 31.2333 132.097 30.3C131.597 29.35 131.347 28.2417 131.347 26.975C131.347 25.7083 131.597 24.6083 132.097 23.675C132.613 22.725 133.305 21.9917 134.172 21.475C135.055 20.9417 136.047 20.675 137.147 20.675C138.28 20.675 139.28 20.9417 140.147 21.475C141.03 21.9917 141.722 22.725 142.222 23.675C142.722 24.6083 142.972 25.7083 142.972 26.975C142.972 28.2417 142.722 29.35 142.222 30.3C141.722 31.2333 141.03 31.9667 140.147 32.5C139.28 33.0167 138.28 33.275 137.147 33.275ZM137.147 30.725C138.03 30.725 138.747 30.4 139.297 29.75C139.863 29.1 140.147 28.175 140.147 26.975C140.147 25.775 139.863 24.85 139.297 24.2C138.747 23.55 138.03 23.225 137.147 23.225C136.28 23.225 135.572 23.55 135.022 24.2C134.472 24.85 134.197 25.775 134.197 26.975C134.197 28.175 134.472 29.1 135.022 29.75C135.572 30.4 136.28 30.725 137.147 30.725ZM151.075 33.275C149.975 33.275 148.983 33.0167 148.1 32.5C147.233 31.9667 146.541 31.2333 146.025 30.3C145.525 29.35 145.275 28.2417 145.275 26.975C145.275 25.7083 145.525 24.6083 146.025 23.675C146.541 22.725 147.233 21.9917 148.1 21.475C148.983 20.9417 149.975 20.675 151.075 20.675C152.208 20.675 153.208 20.9417 154.075 21.475C154.958 21.9917 155.65 22.725 156.15 23.675C156.65 24.6083 156.9 25.7083 156.9 26.975C156.9 28.2417 156.65 29.35 156.15 30.3C155.65 31.2333 154.958 31.9667 154.075 32.5C153.208 33.0167 152.208 33.275 151.075 33.275ZM151.075 30.725C151.958 30.725 152.675 30.4 153.225 29.75C153.791 29.1 154.075 28.175 154.075 26.975C154.075 25.775 153.791 24.85 153.225 24.2C152.675 23.55 151.958 23.225 151.075 23.225C150.208 23.225 149.5 23.55 148.95 24.2C148.4 24.85 148.125 25.775 148.125 26.975C148.125 28.175 148.4 29.1 148.95 29.75C149.5 30.4 150.208 30.725 151.075 30.725ZM161.252 33C160.302 33 159.827 32.5083 159.827 31.525V22.45C159.827 21.4667 160.252 20.975 161.102 20.975C161.952 20.975 162.394 21.1917 162.427 21.625L162.502 22.4C162.836 21.9333 163.277 21.5333 163.827 21.2C164.377 20.85 165.027 20.675 165.777 20.675C167.027 20.675 168.044 21.075 168.827 21.875C169.627 22.675 170.027 23.85 170.027 25.4V31.525C170.027 32.5083 169.561 33 168.627 33C167.677 33 167.202 32.5083 167.202 31.525V26.075C167.202 25.125 167.011 24.4167 166.627 23.95C166.244 23.4667 165.727 23.225 165.077 23.225C164.361 23.225 163.777 23.475 163.327 23.975C162.877 24.4583 162.652 25.1833 162.652 26.15V31.525C162.652 32.5083 162.186 33 161.252 33Z" fill="white"/>
</svg>
