<svg width="471" height="231" viewBox="0 0 471 231" fill="none" xmlns="http://www.w3.org/2000/svg">
<path d="M33.6597 119.03C26.0597 121.78 13.7297 120.85 6.12969 116.96C-1.47031 113.06 -1.47031 107.67 6.12969 104.92L176.99 10.2901C189.66 5.70006 248.45 11.5701 261.13 18.0701C273.8 24.5701 273.8 33.5501 261.13 38.1401L33.6697 119.04L33.6597 119.03Z" fill="#FAD764"/>
<g clip-path="url(#clip0_2001_2996)">
<path opacity="0.2" d="M233.231 43.1134L175.542 22.1184L193.141 16.083L250.831 37.0781L233.231 43.1134Z" fill="black"/>
<path d="M246.809 36.9168L248.993 37.7088L249.105 25.9338L246.921 25.1418L246.809 36.9168Z" fill="#B1B1B1"/>
<path d="M250.831 37.0781L248.993 37.7088L249.105 25.9338L250.943 25.3031L250.831 37.0781Z" fill="#C6C6C6"/>
<path d="M174.793 21.8456L176.977 22.644L177.004 19.7667L174.82 18.9747L174.793 21.8456Z" fill="#B1B1B1"/>
<path d="M178.814 22.0134L176.976 22.644L177.004 19.7667L178.841 19.136L178.814 22.0134Z" fill="#C6C6C6"/>
<path d="M175.338 20.2499L233.765 41.5177L233.259 40.2361L174.82 18.9747L175.338 20.2499Z" fill="#B1B1B1"/>
<path d="M231.047 42.3215L233.231 43.1135L233.258 40.2362L231.074 39.4442L231.047 42.3215Z" fill="#B1B1B1"/>
<path d="M248.536 35.5981L234.495 40.4099L234.503 39.5869L248.544 34.7751L248.536 35.5981Z" fill="#C6C6C6"/>
<path d="M248.545 34.7751L234.503 39.587L233.343 39.1482L247.384 34.3429L248.545 34.7751Z" fill="white"/>
<path d="M235.068 42.4829L233.231 43.1135L233.258 40.2362L235.098 39.3658L235.068 42.4829Z" fill="#C6C6C6"/>
<path d="M253.815 22.7314L233.765 41.5177L233.258 40.2361L253.298 21.4498L253.815 22.7314Z" fill="#C6C6C6"/>
<path d="M233.258 40.2362L253.298 21.4498L194.87 0.188509L174.82 18.9748L233.258 40.2362Z" fill="#F0F0F0"/>
<path d="M227.363 21.1648L227.054 20.2545L231.539 16.2075L233.108 15.9891L234.89 16.6476L229.156 21.8234L227.373 21.1649L227.363 21.1648ZM223.209 27.1852L228.943 22.0094L227.16 21.3508L225.591 21.5693L221.106 25.6162L221.415 26.5265L223.198 27.1851L223.209 27.1852ZM235.102 16.7209L229.367 21.8967L232.089 22.9012L237.823 17.7254L235.102 16.7209ZM211.226 30.3379L216.96 25.1621L214.239 24.1577L208.504 29.3335L211.226 30.3379ZM220.176 18.7894L214.442 23.9652L217.163 24.9696L222.898 19.7938L220.176 18.7894ZM226.123 13.4212L220.389 18.597L223.111 19.6014L228.845 14.4256L226.123 13.4212ZM220.204 33.6377L225.938 28.4619L223.217 27.4574L217.482 32.6332L220.204 33.6377ZM229.182 36.9375L234.916 31.7617L232.195 30.7572L226.46 35.933L229.182 36.9375ZM244.069 20.0206L238.335 25.1964L241.057 26.2009L246.791 21.0251L244.069 20.0206ZM238.132 25.3889L232.398 30.5647L235.119 31.5692L240.854 26.3934L238.132 25.3889ZM238.124 25.1231L243.858 19.9473L242.075 19.2888L240.506 19.5072L236.021 23.5542L236.33 24.4645L238.113 25.123L238.124 25.1231ZM232.187 30.4914L237.921 25.3156L236.138 24.6571L234.569 24.8755L230.084 28.9225L230.393 29.8328L232.176 30.4913L232.187 30.4914ZM229.154 22.0891L223.42 27.2649L226.141 28.2694L231.876 23.0936L229.154 22.0891ZM241.065 26.4731L235.33 31.649L237.113 32.3075L238.682 32.0891L243.167 28.0421L242.858 27.1318L241.075 26.4732L241.065 26.4731ZM231.973 30.6838L230.19 30.0253L228.621 30.2437L224.136 34.2907L224.445 35.201L226.228 35.8595L231.962 30.6837L231.973 30.6838ZM220.178 18.5172L225.913 13.3414L224.13 12.6828L222.561 12.9013L218.076 16.9483L218.385 17.8585L220.168 18.5171L220.178 18.5172ZM226.149 28.5417L220.415 33.7175L222.198 34.376L223.767 34.1576L228.252 30.1106L227.943 29.2003L226.16 28.5418L226.149 28.5417ZM232.087 23.1669L226.352 28.3427L228.135 29.0012L229.704 28.7828L234.189 24.7358L233.88 23.8255L232.097 23.167L232.087 23.1669ZM248.795 21.757L247.012 21.0985L241.278 26.2743L243.061 26.9328L244.63 26.7144L249.115 22.6674L248.806 21.7571L248.795 21.757ZM235.127 31.8415L229.393 37.0173L231.176 37.6758L232.745 37.4574L237.23 33.4104L236.921 32.5001L235.138 31.8416L235.127 31.8415ZM238.034 17.7987L232.3 22.9745L234.083 23.633L235.652 23.4146L240.137 19.3676L239.828 18.4573L238.045 17.7988L238.034 17.7987ZM222.995 27.3776L221.212 26.719L219.643 26.9375L215.158 30.9845L215.467 31.8947L217.25 32.5533L222.984 27.3775L222.995 27.3776ZM214.017 24.0778L212.234 23.4193L210.665 23.6377L206.18 27.6847L206.489 28.595L208.272 29.2535L214.006 24.0777L214.017 24.0778ZM214.231 23.8854L219.965 18.7096L218.182 18.051L216.613 18.2695L212.128 22.3165L212.437 23.2267L214.22 23.8853L214.231 23.8854ZM217.171 25.2354L211.437 30.4112L213.22 31.0698L214.789 30.8513L219.274 26.8043L218.965 25.8941L217.182 25.2355L217.171 25.2354ZM229.056 14.4989L223.322 19.6747L225.105 20.3332L226.674 20.1148L231.159 16.0678L230.85 15.1575L229.067 14.499L229.056 14.4989ZM223.119 19.8672L217.385 25.043L219.168 25.7016L220.737 25.4831L225.222 21.4361L224.913 20.5259L223.13 19.8673L223.119 19.8672Z" fill="#036E9D" stroke="white" stroke-width="0.117363" stroke-miterlimit="10"/>
<path d="M200.302 11.2124L199.993 10.3021L204.478 6.25514L206.047 6.0367L207.83 6.69524L202.096 11.871L200.313 11.2125L200.302 11.2124ZM196.148 17.2393L201.882 12.0635L200.099 11.4049L198.53 11.6233L194.045 15.6703L194.354 16.5806L196.137 17.2392L196.148 17.2393ZM208.041 6.76854L202.307 11.9443L205.029 12.9488L210.763 7.773L208.041 6.76854ZM184.166 20.3855L189.9 15.2097L187.178 14.2053L181.444 19.3811L184.166 20.3855ZM193.115 8.83697L187.381 14.0128L190.103 15.0172L195.837 9.84143L193.115 8.83697ZM199.063 3.46876L193.329 8.64456L196.051 9.64902L201.785 4.47322L199.063 3.46876ZM193.144 23.6853L198.878 18.5095L196.156 17.5051L190.422 22.6809L193.144 23.6853ZM202.122 26.9851L207.856 21.8093L205.134 20.8048L199.4 25.9806L202.122 26.9851ZM217.008 10.0682L211.274 15.244L213.996 16.2485L219.73 11.0727L217.008 10.0682ZM211.071 15.4365L205.337 20.6123L208.059 21.6168L213.793 16.441L211.071 15.4365ZM211.074 15.1708L216.808 9.99502L215.025 9.33648L213.456 9.55491L208.971 13.6019L209.28 14.5122L211.063 15.1707L211.074 15.1708ZM205.126 20.539L210.86 15.3632L209.077 14.7047L207.508 14.9231L203.024 18.9701L203.333 19.8804L205.115 20.5389L205.126 20.539ZM202.093 12.1367L196.359 17.3125L199.081 18.317L204.815 13.1412L202.093 12.1367ZM214.004 16.5208L208.27 21.6966L210.053 22.3551L211.622 22.1367L216.107 18.0897L215.798 17.1794L214.015 16.5209L214.004 16.5208ZM204.912 20.7314L203.13 20.0729L201.561 20.2913L197.076 24.3383L197.385 25.2486L199.168 25.9071L204.902 20.7313L204.912 20.7314ZM193.118 8.56479L198.852 3.38899L197.069 2.73045L195.5 2.94888L191.015 6.99587L191.324 7.90615L193.107 8.56469L193.118 8.56479ZM199.089 18.5893L193.355 23.7651L195.138 24.4236L196.707 24.2052L201.191 20.1582L200.882 19.2479L199.099 18.5894L199.089 18.5893ZM205.026 13.221L199.292 18.3968L201.075 19.0553L202.644 18.8369L207.129 14.7899L206.82 13.8796L205.037 13.2211L205.026 13.221ZM221.735 11.8046L219.952 11.1461L214.218 16.3219L216.001 16.9804L217.57 16.762L222.054 12.715L221.745 11.8047L221.735 11.8046ZM208.067 21.8891L202.333 27.0649L204.116 27.7234L205.685 27.505L210.169 23.458L209.86 22.5477L208.078 21.8892L208.067 21.8891ZM210.974 7.84629L205.24 13.0221L207.023 13.6806L208.592 13.4622L213.076 9.41521L212.767 8.50493L210.984 7.84639L210.974 7.84629ZM195.934 17.4252L194.152 16.7666L192.583 16.9851L188.098 21.0321L188.407 21.9423L190.19 22.6009L195.924 17.4251L195.934 17.4252ZM186.956 14.1254L185.174 13.4669L183.605 13.6853L179.12 17.7323L179.429 18.6426L181.212 19.3011L186.946 14.1253L186.956 14.1254ZM187.17 13.933L192.904 8.75719L191.121 8.09866L189.552 8.31709L185.068 12.3641L185.376 13.2744L187.159 13.9329L187.17 13.933ZM190.111 15.283L184.377 20.4588L186.16 21.1174L187.729 20.8989L192.213 16.8519L191.904 15.9417L190.121 15.2831L190.111 15.283ZM201.996 4.54652L196.262 9.72232L198.045 10.3809L199.613 10.1624L204.098 6.11543L203.789 5.20516L202.006 4.54662L201.996 4.54652ZM196.059 9.91482L190.324 15.0906L192.107 15.7492L193.676 15.5307L198.161 11.4837L197.852 10.5735L196.069 9.91492L196.059 9.91482Z" fill="#036E9D" stroke="white" stroke-width="0.117363" stroke-miterlimit="10"/>
</g>
<g clip-path="url(#clip1_2001_2996)">
<path opacity="0.2" d="M184.231 62.1134L126.542 41.1184L144.141 35.083L201.831 56.0781L184.231 62.1134Z" fill="black"/>
<path d="M197.809 55.9168L199.993 56.7088L200.105 44.9338L197.921 44.1418L197.809 55.9168Z" fill="#B1B1B1"/>
<path d="M201.831 56.0781L199.993 56.7088L200.105 44.9338L201.943 44.3031L201.831 56.0781Z" fill="#C6C6C6"/>
<path d="M125.793 40.8456L127.977 41.644L128.004 38.7667L125.82 37.9747L125.793 40.8456Z" fill="#B1B1B1"/>
<path d="M129.814 41.0134L127.976 41.644L128.004 38.7667L129.841 38.136L129.814 41.0134Z" fill="#C6C6C6"/>
<path d="M126.338 39.2499L184.765 60.5177L184.259 59.2361L125.82 37.9747L126.338 39.2499Z" fill="#B1B1B1"/>
<path d="M182.047 61.3215L184.231 62.1135L184.258 59.2362L182.074 58.4442L182.047 61.3215Z" fill="#B1B1B1"/>
<path d="M199.536 54.5981L185.495 59.4099L185.503 58.5869L199.544 53.7751L199.536 54.5981Z" fill="#C6C6C6"/>
<path d="M199.545 53.7751L185.503 58.587L184.343 58.1482L198.384 53.3429L199.545 53.7751Z" fill="white"/>
<path d="M186.068 61.4829L184.231 62.1135L184.258 59.2362L186.098 58.3658L186.068 61.4829Z" fill="#C6C6C6"/>
<path d="M204.815 41.7314L184.765 60.5177L184.258 59.2361L204.298 40.4498L204.815 41.7314Z" fill="#C6C6C6"/>
<path d="M184.258 59.2362L204.298 40.4498L145.87 19.1885L125.82 37.9748L184.258 59.2362Z" fill="#F0F0F0"/>
<path d="M178.363 40.1648L178.054 39.2545L182.539 35.2075L184.108 34.9891L185.89 35.6476L180.156 40.8234L178.373 40.1649L178.363 40.1648ZM174.209 46.1852L179.943 41.0094L178.16 40.3508L176.591 40.5693L172.106 44.6162L172.415 45.5265L174.198 46.1851L174.209 46.1852ZM186.102 35.7209L180.367 40.8967L183.089 41.9012L188.823 36.7254L186.102 35.7209ZM162.226 49.3379L167.96 44.1621L165.239 43.1577L159.504 48.3335L162.226 49.3379ZM171.176 37.7894L165.442 42.9652L168.163 43.9696L173.898 38.7938L171.176 37.7894ZM177.123 32.4212L171.389 37.597L174.111 38.6014L179.845 33.4256L177.123 32.4212ZM171.204 52.6377L176.938 47.4619L174.217 46.4574L168.482 51.6332L171.204 52.6377ZM180.182 55.9375L185.916 50.7617L183.195 49.7572L177.46 54.933L180.182 55.9375ZM195.069 39.0206L189.335 44.1964L192.057 45.2009L197.791 40.0251L195.069 39.0206ZM189.132 44.3889L183.398 49.5647L186.119 50.5692L191.854 45.3934L189.132 44.3889ZM189.124 44.1231L194.858 38.9473L193.075 38.2888L191.506 38.5072L187.021 42.5542L187.33 43.4645L189.113 44.123L189.124 44.1231ZM183.187 49.4914L188.921 44.3156L187.138 43.6571L185.569 43.8755L181.084 47.9225L181.393 48.8328L183.176 49.4913L183.187 49.4914ZM180.154 41.0891L174.42 46.2649L177.141 47.2694L182.876 42.0936L180.154 41.0891ZM192.065 45.4731L186.33 50.649L188.113 51.3075L189.682 51.0891L194.167 47.0421L193.858 46.1318L192.075 45.4732L192.065 45.4731ZM182.973 49.6838L181.19 49.0253L179.621 49.2437L175.136 53.2907L175.445 54.201L177.228 54.8595L182.962 49.6837L182.973 49.6838ZM171.178 37.5172L176.913 32.3414L175.13 31.6828L173.561 31.9013L169.076 35.9483L169.385 36.8585L171.168 37.5171L171.178 37.5172ZM177.149 47.5417L171.415 52.7175L173.198 53.376L174.767 53.1576L179.252 49.1106L178.943 48.2003L177.16 47.5418L177.149 47.5417ZM183.087 42.1669L177.352 47.3427L179.135 48.0012L180.704 47.7828L185.189 43.7358L184.88 42.8255L183.097 42.167L183.087 42.1669ZM199.795 40.757L198.012 40.0985L192.278 45.2743L194.061 45.9328L195.63 45.7144L200.115 41.6674L199.806 40.7571L199.795 40.757ZM186.127 50.8415L180.393 56.0173L182.176 56.6758L183.745 56.4574L188.23 52.4104L187.921 51.5001L186.138 50.8416L186.127 50.8415ZM189.034 36.7987L183.3 41.9745L185.083 42.633L186.652 42.4146L191.137 38.3676L190.828 37.4573L189.045 36.7988L189.034 36.7987ZM173.995 46.3776L172.212 45.719L170.643 45.9375L166.158 49.9845L166.467 50.8947L168.25 51.5533L173.984 46.3775L173.995 46.3776ZM165.017 43.0778L163.234 42.4193L161.665 42.6377L157.18 46.6847L157.489 47.595L159.272 48.2535L165.006 43.0777L165.017 43.0778ZM165.231 42.8854L170.965 37.7096L169.182 37.051L167.613 37.2695L163.128 41.3165L163.437 42.2267L165.22 42.8853L165.231 42.8854ZM168.171 44.2354L162.437 49.4112L164.22 50.0698L165.789 49.8513L170.274 45.8043L169.965 44.8941L168.182 44.2355L168.171 44.2354ZM180.056 33.4989L174.322 38.6747L176.105 39.3332L177.674 39.1148L182.159 35.0678L181.85 34.1575L180.067 33.499L180.056 33.4989ZM174.119 38.8672L168.385 44.043L170.168 44.7016L171.737 44.4831L176.222 40.4361L175.913 39.5259L174.13 38.8673L174.119 38.8672Z" fill="#036E9D" stroke="white" stroke-width="0.117363" stroke-miterlimit="10"/>
<path d="M151.302 30.2124L150.993 29.3021L155.478 25.2551L157.047 25.0367L158.83 25.6952L153.096 30.871L151.313 30.2125L151.302 30.2124ZM147.148 36.2393L152.882 31.0635L151.099 30.4049L149.53 30.6233L145.045 34.6703L145.354 35.5806L147.137 36.2392L147.148 36.2393ZM159.041 25.7685L153.307 30.9443L156.029 31.9488L161.763 26.773L159.041 25.7685ZM135.166 39.3855L140.9 34.2097L138.178 33.2053L132.444 38.3811L135.166 39.3855ZM144.115 27.837L138.381 33.0128L141.103 34.0172L146.837 28.8414L144.115 27.837ZM150.063 22.4688L144.329 27.6446L147.051 28.649L152.785 23.4732L150.063 22.4688ZM144.144 42.6853L149.878 37.5095L147.156 36.5051L141.422 41.6809L144.144 42.6853ZM153.122 45.9851L158.856 40.8093L156.134 39.8048L150.4 44.9806L153.122 45.9851ZM168.008 29.0682L162.274 34.244L164.996 35.2485L170.73 30.0727L168.008 29.0682ZM162.071 34.4365L156.337 39.6123L159.059 40.6168L164.793 35.441L162.071 34.4365ZM162.074 34.1708L167.808 28.995L166.025 28.3365L164.456 28.5549L159.971 32.6019L160.28 33.5122L162.063 34.1707L162.074 34.1708ZM156.126 39.539L161.86 34.3632L160.077 33.7047L158.508 33.9231L154.024 37.9701L154.333 38.8804L156.115 39.5389L156.126 39.539ZM153.093 31.1367L147.359 36.3125L150.081 37.317L155.815 32.1412L153.093 31.1367ZM165.004 35.5208L159.27 40.6966L161.053 41.3551L162.622 41.1367L167.107 37.0897L166.798 36.1794L165.015 35.5209L165.004 35.5208ZM155.912 39.7314L154.13 39.0729L152.561 39.2913L148.076 43.3383L148.385 44.2486L150.168 44.9071L155.902 39.7313L155.912 39.7314ZM144.118 27.5648L149.852 22.389L148.069 21.7304L146.5 21.9489L142.015 25.9959L142.324 26.9061L144.107 27.5647L144.118 27.5648ZM150.089 37.5893L144.355 42.7651L146.138 43.4236L147.707 43.2052L152.191 39.1582L151.882 38.2479L150.099 37.5894L150.089 37.5893ZM156.026 32.221L150.292 37.3968L152.075 38.0553L153.644 37.8369L158.129 33.7899L157.82 32.8796L156.037 32.2211L156.026 32.221ZM172.735 30.8046L170.952 30.1461L165.218 35.3219L167.001 35.9804L168.57 35.762L173.054 31.715L172.745 30.8047L172.735 30.8046ZM159.067 40.8891L153.333 46.0649L155.116 46.7234L156.685 46.505L161.169 42.458L160.86 41.5477L159.078 40.8892L159.067 40.8891ZM161.974 26.8463L156.24 32.0221L158.023 32.6806L159.592 32.4622L164.076 28.4152L163.767 27.5049L161.984 26.8464L161.974 26.8463ZM146.934 36.4252L145.152 35.7666L143.583 35.9851L139.098 40.0321L139.407 40.9423L141.19 41.6009L146.924 36.4251L146.934 36.4252ZM137.956 33.1254L136.174 32.4669L134.605 32.6853L130.12 36.7323L130.429 37.6426L132.212 38.3011L137.946 33.1253L137.956 33.1254ZM138.17 32.933L143.904 27.7572L142.121 27.0987L140.552 27.3171L136.068 31.3641L136.376 32.2744L138.159 32.9329L138.17 32.933ZM141.111 34.283L135.377 39.4588L137.16 40.1174L138.729 39.8989L143.213 35.8519L142.904 34.9417L141.121 34.2831L141.111 34.283ZM152.996 23.5465L147.262 28.7223L149.045 29.3809L150.613 29.1624L155.098 25.1154L154.789 24.2052L153.006 23.5466L152.996 23.5465ZM147.059 28.9148L141.324 34.0906L143.107 34.7492L144.676 34.5307L149.161 30.4837L148.852 29.5735L147.069 28.9149L147.059 28.9148Z" fill="#036E9D" stroke="white" stroke-width="0.117363" stroke-miterlimit="10"/>
</g>
<g clip-path="url(#clip2_2001_2996)">
<path opacity="0.2" d="M135.634 81.1134L77.9451 60.1184L95.5446 54.083L153.234 75.0781L135.634 81.1134Z" fill="black"/>
<path d="M149.213 74.9168L151.396 75.7088L151.508 63.9338L149.324 63.1418L149.213 74.9168Z" fill="#B1B1B1"/>
<path d="M153.234 75.0781L151.397 75.7088L151.509 63.9338L153.346 63.3031L153.234 75.0781Z" fill="#C6C6C6"/>
<path d="M77.1964 59.8456L79.3803 60.644L79.4076 57.7667L77.2236 56.9747L77.1964 59.8456Z" fill="#B1B1B1"/>
<path d="M81.2171 60.0134L79.3796 60.644L79.4069 57.7667L81.2444 57.136L81.2171 60.0134Z" fill="#C6C6C6"/>
<path d="M77.7409 58.2499L136.169 79.5177L135.662 78.2361L77.2236 56.9747L77.7409 58.2499Z" fill="#B1B1B1"/>
<path d="M133.45 80.3215L135.634 81.1135L135.661 78.2362L133.478 77.4442L133.45 80.3215Z" fill="#B1B1B1"/>
<path d="M150.94 73.5981L136.898 78.4099L136.906 77.5869L150.948 72.7751L150.94 73.5981Z" fill="#C6C6C6"/>
<path d="M150.948 72.7751L136.907 77.587L135.746 77.1482L149.787 72.3429L150.948 72.7751Z" fill="white"/>
<path d="M137.472 80.4829L135.634 81.1135L135.661 78.2362L137.501 77.3658L137.472 80.4829Z" fill="#C6C6C6"/>
<path d="M156.218 60.7314L136.168 79.5177L135.662 78.2361L155.701 59.4498L156.218 60.7314Z" fill="#C6C6C6"/>
<path d="M135.662 78.2362L155.701 59.4498L97.2729 38.1885L77.2233 56.9748L135.662 78.2362Z" fill="#F0F0F0"/>
<path d="M129.766 59.1648L129.457 58.2545L133.942 54.2075L135.511 53.9891L137.294 54.6476L131.56 59.8234L129.777 59.1649L129.766 59.1648ZM125.612 65.1852L131.346 60.0094L129.563 59.3508L127.994 59.5693L123.509 63.6162L123.818 64.5265L125.601 65.1851L125.612 65.1852ZM137.505 54.7209L131.771 59.8967L134.493 60.9012L140.227 55.7254L137.505 54.7209ZM113.63 68.3379L119.364 63.1621L116.642 62.1577L110.908 67.3335L113.63 68.3379ZM122.579 56.7894L116.845 61.9652L119.567 62.9696L125.301 57.7938L122.579 56.7894ZM128.527 51.4212L122.793 56.597L125.514 57.6014L131.249 52.4256L128.527 51.4212ZM122.608 71.6377L128.342 66.4619L125.62 65.4574L119.886 70.6332L122.608 71.6377ZM131.586 74.9375L137.32 69.7617L134.598 68.7572L128.864 73.933L131.586 74.9375ZM146.472 58.0206L140.738 63.1964L143.46 64.2009L149.194 59.0251L146.472 58.0206ZM140.535 63.3889L134.801 68.5647L137.523 69.5692L143.257 64.3934L140.535 63.3889ZM140.527 63.1231L146.261 57.9473L144.478 57.2888L142.909 57.5072L138.425 61.5542L138.734 62.4645L140.516 63.123L140.527 63.1231ZM134.59 68.4914L140.324 63.3156L138.541 62.6571L136.972 62.8755L132.487 66.9225L132.796 67.8328L134.579 68.4913L134.59 68.4914ZM131.557 60.0891L125.823 65.2649L128.545 66.2694L134.279 61.0936L131.557 60.0891ZM143.468 64.4731L137.734 69.649L139.517 70.3075L141.086 70.0891L145.57 66.0421L145.261 65.1318L143.479 64.4732L143.468 64.4731ZM134.376 68.6838L132.593 68.0253L131.024 68.2437L126.54 72.2907L126.849 73.201L128.632 73.8595L134.366 68.6837L134.376 68.6838ZM122.582 56.5172L128.316 51.3414L126.533 50.6828L124.964 50.9013L120.479 54.9483L120.788 55.8585L122.571 56.5171L122.582 56.5172ZM128.553 66.5417L122.819 71.7175L124.601 72.376L126.17 72.1576L130.655 68.1106L130.346 67.2003L128.563 66.5418L128.553 66.5417ZM134.49 61.1669L128.756 66.3427L130.539 67.0012L132.108 66.7828L136.592 62.7358L136.283 61.8255L134.501 61.167L134.49 61.1669ZM151.199 59.757L149.416 59.0985L143.682 64.2743L145.465 64.9328L147.033 64.7144L151.518 60.6674L151.209 59.7571L151.199 59.757ZM137.531 69.8415L131.797 75.0173L133.58 75.6758L135.148 75.4574L139.633 71.4104L139.324 70.5001L137.541 69.8416L137.531 69.8415ZM140.438 55.7987L134.704 60.9745L136.486 61.633L138.055 61.4146L142.54 57.3676L142.231 56.4573L140.448 55.7988L140.438 55.7987ZM125.398 65.3776L123.615 64.719L122.047 64.9375L117.562 68.9845L117.871 69.8947L119.654 70.5533L125.388 65.3775L125.398 65.3776ZM116.42 62.0778L114.637 61.4193L113.068 61.6377L108.584 65.6847L108.893 66.595L110.675 67.2535L116.41 62.0777L116.42 62.0778ZM116.634 61.8854L122.368 56.7096L120.585 56.051L119.016 56.2695L114.531 60.3165L114.84 61.2267L116.623 61.8853L116.634 61.8854ZM119.575 63.2354L113.841 68.4112L115.623 69.0698L117.192 68.8513L121.677 64.8043L121.368 63.8941L119.585 63.2355L119.575 63.2354ZM131.46 52.4989L125.726 57.6747L127.508 58.3332L129.077 58.1148L133.562 54.0678L133.253 53.1575L131.47 52.499L131.46 52.4989ZM125.523 57.8672L119.788 63.043L121.571 63.7016L123.14 63.4831L127.625 59.4361L127.316 58.5259L125.533 57.8673L125.523 57.8672Z" fill="#036E9D" stroke="white" stroke-width="0.117363" stroke-miterlimit="10"/>
<path d="M102.706 49.2124L102.397 48.3021L106.881 44.2551L108.45 44.0367L110.233 44.6952L104.499 49.871L102.716 49.2125L102.706 49.2124ZM98.5513 55.2393L104.286 50.0635L102.503 49.4049L100.934 49.6233L96.4488 53.6703L96.7578 54.5806L98.5407 55.2392L98.5513 55.2393ZM110.444 44.7685L104.71 49.9443L107.432 50.9488L113.166 45.773L110.444 44.7685ZM86.569 58.3855L92.3032 53.2097L89.5813 52.2053L83.8471 57.3811L86.569 58.3855ZM95.5185 46.837L89.7843 52.0128L92.5061 53.0172L98.2404 47.8414L95.5185 46.837ZM101.466 41.4688L95.7321 46.6446L98.4539 47.649L104.188 42.4732L101.466 41.4688ZM95.547 61.6853L101.281 56.5095L98.5594 55.5051L92.8251 60.6809L95.547 61.6853ZM104.525 64.9851L110.259 59.8093L107.537 58.8048L101.803 63.9806L104.525 64.9851ZM119.412 48.0682L113.678 53.244L116.399 54.2485L122.134 49.0727L119.412 48.0682ZM113.475 53.4365L107.74 58.6123L110.462 59.6168L116.196 54.441L113.475 53.4365ZM113.477 53.1708L119.211 47.995L117.428 47.3365L115.859 47.5549L111.375 51.6019L111.684 52.5122L113.467 53.1707L113.477 53.1708ZM107.529 58.539L113.264 53.3632L111.481 52.7047L109.912 52.9231L105.427 56.9701L105.736 57.8804L107.519 58.5389L107.529 58.539ZM104.497 50.1367L98.7623 55.3125L101.484 56.317L107.218 51.1412L104.497 50.1367ZM116.407 54.5208L110.673 59.6966L112.456 60.3551L114.025 60.1367L118.51 56.0897L118.201 55.1794L116.418 54.5209L116.407 54.5208ZM107.316 58.7314L105.533 58.0729L103.964 58.2913L99.4791 62.3383L99.7881 63.2486L101.571 63.9071L107.305 58.7313L107.316 58.7314ZM95.5211 46.5648L101.255 41.389L99.4724 40.7304L97.9034 40.9489L93.4186 44.9959L93.7276 45.9061L95.5105 46.5647L95.5211 46.5648ZM101.492 56.5893L95.758 61.7651L97.5409 62.4236L99.1098 62.2052L103.595 58.1582L103.286 57.2479L101.503 56.5894L101.492 56.5893ZM107.429 51.221L101.695 56.3968L103.478 57.0553L105.047 56.8369L109.532 52.7899L109.223 51.8796L107.44 51.2211L107.429 51.221ZM124.138 49.8046L122.355 49.1461L116.621 54.3219L118.404 54.9804L119.973 54.762L124.458 50.715L124.149 49.8047L124.138 49.8046ZM110.47 59.8891L104.736 65.0649L106.519 65.7234L108.088 65.505L112.573 61.458L112.264 60.5477L110.481 59.8892L110.47 59.8891ZM113.377 45.8463L107.643 51.0221L109.426 51.6806L110.995 51.4622L115.48 47.4152L115.171 46.5049L113.388 45.8464L113.377 45.8463ZM98.3378 55.4252L96.5549 54.7666L94.986 54.9851L90.5011 59.0321L90.8101 59.9423L92.593 60.6009L98.3272 55.4251L98.3378 55.4252ZM89.3597 52.1254L87.5768 51.4669L86.0079 51.6853L81.5231 55.7323L81.832 56.6426L83.6149 57.3011L89.3492 52.1253L89.3597 52.1254ZM89.5733 51.933L95.3075 46.7572L93.5246 46.0987L91.9557 46.3171L87.4708 50.3641L87.7798 51.2744L89.5627 51.9329L89.5733 51.933ZM92.5142 53.283L86.78 58.4588L88.5629 59.1174L90.1318 58.8989L94.6167 54.8519L94.3077 53.9417L92.5248 53.2831L92.5142 53.283ZM104.399 42.5465L98.665 47.7223L100.448 48.3809L102.017 48.1624L106.502 44.1154L106.193 43.2052L104.41 42.5466L104.399 42.5465ZM98.462 47.9148L92.7278 53.0906L94.5107 53.7492L96.0796 53.5307L100.564 49.4837L100.255 48.5735L98.4726 47.9149L98.462 47.9148Z" fill="#036E9D" stroke="white" stroke-width="0.117363" stroke-miterlimit="10"/>
</g>
<g clip-path="url(#clip3_2001_2996)">
<g clip-path="url(#clip4_2001_2996)">
<path d="M77.4578 77.14L52 67.0212L64.6374 62L90.0951 72.1188L77.4578 77.14Z" fill="#F0F0F0"/>
<path d="M52 92.0477L77.4578 102.166V77.14L52 67.0212V92.0477Z" fill="#C6C6C6"/>
<g style="mix-blend-mode:multiply">
<path d="M53.1318 76.2638L59.4529 78.7761V74.6575L53.1318 72.1453V76.2638Z" fill="#C6C6C6"/>
</g>
<g style="mix-blend-mode:multiply">
<path d="M53.1318 76.2639L59.4529 78.7762V78.3713L53.1318 75.859V76.2639Z" fill="#C6C6C6"/>
</g>
<g style="mix-blend-mode:multiply">
<path d="M52 70.34L77.4578 80.4587V77.14L52 67.0212V70.34Z" fill="#C6C6C6"/>
</g>
<path d="M90.0954 97.1452L77.458 102.166V77.14L90.0954 72.1188V97.1452Z" fill="#B1B1B1"/>
<path d="M60.7979 95.1539V70.3698" stroke="white" stroke-opacity="0.5"/>
<path d="M74.4903 88.5796C74.4903 91.5897 71.9127 92.811 68.7329 91.3043C65.5531 89.7976 62.9707 86.1371 62.9707 83.1237C62.9707 80.1136 65.5483 78.8923 68.7281 80.399C71.9079 81.9057 74.4903 85.5662 74.4903 88.5796Z" fill="#4B4A48"/>
<path d="M72.1963 83.4687L68.766 81.8193L66.4823 85.2409L67.8843 85.9345L65.8223 88.7986L65.8849 88.8285L71.5797 86.5319L69.2478 85.4268L72.1963 83.4687Z" fill="#FFE68C"/>
<g style="mix-blend-mode:multiply">
<path d="M90.0954 75.4375L77.458 80.4587V77.14L90.0954 72.1188V75.4375Z" fill="#C6C6C6"/>
</g>
<g style="mix-blend-mode:multiply">
<path d="M52 92.0476L77.4578 102.166V101.615L52 91.4967V92.0476Z" fill="#C6C6C6"/>
</g>
<g style="mix-blend-mode:multiply">
<path d="M90.0954 97.1452L77.458 102.166V101.615L90.0954 96.5909V97.1452Z" fill="#C6C6C6"/>
</g>
<path d="M60.7979 70.3698L72.939 65.5377" stroke="white" stroke-opacity="0.5"/>
</g>
</g>
<path d="M325.32 141.65C325.32 109.26 293.46 83 254.16 83C214.86 83 183 109.26 183 141.65" fill="#FAD764"/>
<rect x="41.5" y="137.5" width="426" height="90" rx="29.5" fill="white"/>
<rect x="41.5" y="137.5" width="426" height="90" rx="29.5" stroke="#FAD764" stroke-width="7"/>
<path d="M95.6464 200.598C91.629 200.598 88.5624 199.54 86.4464 197.424C84.3304 195.277 83.2724 192.073 83.2724 187.81V170.514C83.2724 169.625 83.5024 168.95 83.9624 168.49C84.453 168.03 85.1277 167.8 85.9864 167.8C87.765 167.8 88.6544 168.705 88.6544 170.514V187.534C88.6544 190.294 89.2677 192.303 90.4944 193.56C91.7517 194.787 93.469 195.4 95.6464 195.4C97.8237 195.4 99.5257 194.787 100.752 193.56C101.979 192.303 102.592 190.294 102.592 187.534V170.514C102.592 168.705 103.482 167.8 105.26 167.8C107.039 167.8 107.928 168.705 107.928 170.514V187.81C107.928 192.073 106.886 195.277 104.8 197.424C102.715 199.54 99.6637 200.598 95.6464 200.598ZM117.688 200C115.909 200 115.02 199.095 115.02 197.286V170.514C115.02 169.471 115.28 168.766 115.802 168.398C116.354 167.999 117.151 167.8 118.194 167.8C119.604 167.8 120.678 168.413 121.414 169.64L129.556 183.256L137.606 169.686C138.035 168.919 138.526 168.413 139.078 168.168C139.66 167.923 140.412 167.8 141.332 167.8C143.141 167.8 144.046 168.705 144.046 170.514V197.286C144.046 199.095 143.141 200 141.332 200C139.522 200 138.618 199.095 138.618 197.286V177.046L132.132 188.27C131.488 189.527 130.614 190.156 129.51 190.156C128.406 190.156 127.532 189.527 126.888 188.27L120.356 177.046V197.286C120.356 199.095 119.466 200 117.688 200ZM154.187 200C152.377 200 151.473 199.095 151.473 197.286V170.514C151.473 168.705 152.377 167.8 154.187 167.8H170.287C172.096 167.8 173.001 168.628 173.001 170.284C173.001 171.909 172.096 172.722 170.287 172.722H156.763V181.094H168.861C170.67 181.094 171.575 181.922 171.575 183.578C171.575 185.234 170.67 186.062 168.861 186.062H156.763V195.078H170.793C172.602 195.078 173.507 195.891 173.507 197.516C173.507 199.172 172.602 200 170.793 200H154.187ZM192.686 200.736C189.773 200.736 187.181 200.046 184.912 198.666C182.673 197.286 180.91 195.339 179.622 192.824C178.365 190.279 177.736 187.304 177.736 183.9C177.736 180.465 178.365 177.491 179.622 174.976C180.91 172.431 182.673 170.468 184.912 169.088C187.181 167.677 189.773 166.972 192.686 166.972C194.495 166.972 196.213 167.233 197.838 167.754C199.463 168.245 200.905 168.935 202.162 169.824C202.898 170.315 203.281 170.897 203.312 171.572C203.373 172.216 203.143 172.875 202.622 173.55C202.07 174.225 201.487 174.577 200.874 174.608C200.261 174.639 199.586 174.424 198.85 173.964C197.991 173.412 197.041 172.983 195.998 172.676C194.955 172.339 193.851 172.17 192.686 172.17C190.754 172.17 189.083 172.661 187.672 173.642C186.292 174.623 185.219 176.003 184.452 177.782C183.685 179.53 183.302 181.569 183.302 183.9C183.302 186.2 183.685 188.239 184.452 190.018C185.219 191.766 186.292 193.131 187.672 194.112C189.083 195.093 190.754 195.584 192.686 195.584C194.127 195.584 195.323 195.446 196.274 195.17C197.255 194.863 198.114 194.495 198.85 194.066V187.166H196.274C194.465 187.166 193.56 186.338 193.56 184.682C193.56 183.026 194.465 182.198 196.274 182.198H201.518C203.327 182.198 204.232 183.118 204.232 184.958V195.4C204.232 196.167 204.109 196.811 203.864 197.332C203.649 197.823 203.235 198.206 202.622 198.482C201.303 199.157 199.785 199.693 198.068 200.092C196.381 200.521 194.587 200.736 192.686 200.736ZM211.132 200C210.242 200 209.629 199.739 209.292 199.218C208.954 198.697 208.954 197.991 209.292 197.102L219.688 169.824C220.148 168.475 221.114 167.8 222.586 167.8H222.954C224.426 167.8 225.392 168.475 225.852 169.824L236.294 197.102C236.631 197.991 236.616 198.697 236.248 199.218C235.91 199.739 235.297 200 234.408 200H233.534C232.092 200 231.142 199.31 230.682 197.93L228.888 192.916H216.514L214.72 197.93C214.26 199.31 213.309 200 211.868 200H211.132ZM218.262 187.994H227.186L222.77 175.436L218.262 187.994ZM244.585 200C242.898 200 242.055 199.157 242.055 197.47V170.33C242.055 168.643 242.898 167.8 244.585 167.8H244.815C246.502 167.8 247.345 168.643 247.345 170.33V180.588H261.973V170.33C261.973 168.643 262.832 167.8 264.549 167.8H264.825C266.512 167.8 267.355 168.643 267.355 170.33V197.47C267.355 199.157 266.512 200 264.825 200H264.549C262.832 200 261.973 199.157 261.973 197.47V185.51H247.345V197.47C247.345 199.157 246.502 200 244.815 200H244.585ZM274.964 200C274.074 200 273.461 199.739 273.124 199.218C272.786 198.697 272.786 197.991 273.124 197.102L283.52 169.824C283.98 168.475 284.946 167.8 286.418 167.8H286.786C288.258 167.8 289.224 168.475 289.684 169.824L300.126 197.102C300.463 197.991 300.448 198.697 300.08 199.218C299.742 199.739 299.129 200 298.24 200H297.366C295.924 200 294.974 199.31 294.514 197.93L292.72 192.916H280.346L278.552 197.93C278.092 199.31 277.141 200 275.7 200H274.964ZM282.094 187.994H291.018L286.602 175.436L282.094 187.994ZM308.509 200C306.761 200 305.887 199.095 305.887 197.286V170.514C305.887 168.705 306.792 167.8 308.601 167.8H320.607C323.613 167.8 325.989 168.505 327.737 169.916C329.516 171.327 330.405 173.703 330.405 177.046C330.405 179.867 329.761 182.014 328.473 183.486C327.185 184.927 325.407 185.817 323.137 186.154L328.427 196.78C328.887 197.731 328.979 198.513 328.703 199.126C328.427 199.709 327.845 200 326.955 200H326.081C324.548 200 323.49 199.31 322.907 197.93L317.617 186.384H311.177V197.286C311.177 199.095 310.288 200 308.509 200ZM311.177 181.416H319.871C321.435 181.416 322.647 181.079 323.505 180.404C324.364 179.729 324.793 178.61 324.793 177.046C324.793 175.513 324.364 174.409 323.505 173.734C322.647 173.059 321.435 172.722 319.871 172.722H311.177V181.416ZM336.46 200C335.571 200 334.957 199.739 334.62 199.218C334.283 198.697 334.283 197.991 334.62 197.102L345.016 169.824C345.476 168.475 346.442 167.8 347.914 167.8H348.282C349.754 167.8 350.72 168.475 351.18 169.824L361.622 197.102C361.959 197.991 361.944 198.697 361.576 199.218C361.239 199.739 360.625 200 359.736 200H358.862C357.421 200 356.47 199.31 356.01 197.93L354.216 192.916H341.842L340.048 197.93C339.588 199.31 338.637 200 337.196 200H336.46ZM343.59 187.994H352.514L348.098 175.436L343.59 187.994ZM375.709 200.46C373.256 200.46 371.339 199.847 369.959 198.62C368.579 197.393 367.598 195.553 367.015 193.1C366.463 190.647 366.187 187.58 366.187 183.9C366.187 180.22 366.463 177.153 367.015 174.7C367.598 172.216 368.579 170.361 369.959 169.134C371.339 167.907 373.256 167.294 375.709 167.294C378.163 167.294 380.064 167.907 381.413 169.134C382.793 170.361 383.759 172.216 384.311 174.7C384.894 177.153 385.185 180.22 385.185 183.9C385.185 187.58 384.894 190.647 384.311 193.1C383.759 195.553 382.793 197.393 381.413 198.62C380.064 199.847 378.163 200.46 375.709 200.46ZM375.709 195.768C376.844 195.768 377.733 195.415 378.377 194.71C379.052 193.974 379.543 192.747 379.849 191.03C380.156 189.313 380.309 186.936 380.309 183.9C380.309 180.833 380.156 178.441 379.849 176.724C379.543 175.007 379.052 173.795 378.377 173.09C377.733 172.354 376.844 171.986 375.709 171.986C374.575 171.986 373.67 172.354 372.995 173.09C372.321 173.795 371.83 175.007 371.523 176.724C371.247 178.441 371.109 180.833 371.109 183.9C371.109 186.936 371.247 189.313 371.523 191.03C371.83 192.747 372.321 193.974 372.995 194.71C373.67 195.415 374.575 195.768 375.709 195.768ZM398.937 200C397.281 200 396.453 199.095 396.453 197.286V174.056L393.141 176.218C391.608 177.261 390.412 177.077 389.553 175.666C388.664 174.255 388.986 173.075 390.519 172.124L396.039 168.674C396.591 168.337 397.128 168.107 397.649 167.984C398.171 167.831 398.769 167.754 399.443 167.754C400.731 167.754 401.375 168.659 401.375 170.468V197.286C401.375 199.095 400.563 200 398.937 200ZM411.872 200C410.062 200 409.158 199.494 409.158 198.482C409.158 196.274 409.725 194.127 410.86 192.042C412.025 189.957 413.957 187.626 416.656 185.05C417.606 184.13 418.511 183.21 419.37 182.29C420.228 181.339 420.934 180.419 421.486 179.53C422.038 178.61 422.329 177.736 422.36 176.908C422.39 175.313 422.022 174.133 421.256 173.366C420.52 172.599 419.462 172.216 418.082 172.216C416.211 172.216 415.015 173.167 414.494 175.068C414.248 175.896 413.926 176.54 413.528 177C413.16 177.429 412.577 177.644 411.78 177.644C411.013 177.644 410.4 177.383 409.94 176.862C409.48 176.341 409.357 175.635 409.572 174.746C410.062 172.477 411.059 170.713 412.562 169.456C414.064 168.168 415.904 167.524 418.082 167.524C419.86 167.524 421.44 167.892 422.82 168.628C424.23 169.364 425.334 170.437 426.132 171.848C426.929 173.259 427.297 174.991 427.236 177.046C427.205 178.487 426.868 179.821 426.224 181.048C425.58 182.275 424.721 183.471 423.648 184.636C422.605 185.771 421.409 186.982 420.06 188.27C418.649 189.65 417.392 190.969 416.288 192.226C415.214 193.483 414.586 194.572 414.402 195.492H423.97C425.779 195.492 426.684 196.243 426.684 197.746C426.684 199.249 425.779 200 423.97 200H411.872Z" fill="#007440"/>
<rect x="47" y="143" width="415" height="79" rx="24" fill="white"/>
<rect x="47" y="143" width="415" height="79" rx="24" stroke="#E68600" stroke-width="4"/>
<path d="M211.844 132.356C211.265 132.48 210.759 132.439 210.325 132.232C209.912 132.046 209.633 131.705 209.488 131.209C209.343 130.713 209.416 130.258 209.705 129.845C209.994 129.432 210.397 129.184 210.914 129.101C213.001 128.729 214.572 128.119 215.626 127.272C216.701 126.404 217.393 125.216 217.703 123.707H212.123C211.668 123.707 211.276 123.552 210.945 123.242C210.635 122.911 210.48 122.519 210.48 122.064C210.48 121.589 210.635 121.196 210.945 120.886C211.276 120.555 211.668 120.39 212.123 120.39H217.92V117.476H216.866C216.473 117.476 216.122 117.362 215.812 117.135C215.523 116.887 215.326 116.587 215.223 116.236C214.541 116.773 213.828 117.29 213.084 117.786C212.361 118.261 211.627 118.685 210.883 119.057C210.428 119.284 209.963 119.346 209.488 119.243C209.013 119.119 208.661 118.83 208.434 118.375C208.227 117.962 208.207 117.538 208.372 117.104C208.558 116.67 208.878 116.35 209.333 116.143C210.697 115.482 212.051 114.645 213.394 113.632C213.022 113.281 212.567 112.888 212.03 112.454C211.513 111.999 211.11 111.658 210.821 111.431C210.49 111.183 210.315 110.842 210.294 110.408C210.294 109.974 210.439 109.602 210.728 109.292C211.017 108.982 211.369 108.806 211.782 108.765C212.216 108.724 212.598 108.848 212.929 109.137C213.136 109.302 213.415 109.53 213.766 109.819C214.117 110.108 214.479 110.418 214.851 110.749C215.244 111.059 215.564 111.328 215.812 111.555C216.556 110.811 217.155 110.119 217.61 109.478C218.168 108.693 217.961 108.3 216.99 108.3H211.999C211.606 108.3 211.265 108.155 210.976 107.866C210.687 107.556 210.542 107.205 210.542 106.812C210.542 106.399 210.687 106.047 210.976 105.758C211.265 105.469 211.606 105.324 211.999 105.324H217.951C219.17 105.324 220.1 105.562 220.741 106.037C221.382 106.492 221.723 107.091 221.764 107.835C221.805 108.579 221.526 109.385 220.927 110.253C220.059 111.534 218.974 112.805 217.672 114.066H228.615C226.321 111.917 224.451 109.416 223.004 106.564C222.818 106.171 222.797 105.779 222.942 105.386C223.087 104.993 223.345 104.694 223.717 104.487C224.11 104.301 224.533 104.26 224.988 104.363C225.443 104.446 225.773 104.683 225.98 105.076C226.228 105.51 226.486 105.944 226.755 106.378C227.024 106.791 227.292 107.205 227.561 107.618C227.871 107.37 228.202 107.091 228.553 106.781C228.904 106.471 229.235 106.182 229.545 105.913C229.855 105.624 230.082 105.407 230.227 105.262C230.558 104.973 230.93 104.828 231.343 104.828C231.777 104.807 232.159 104.952 232.49 105.262C232.8 105.551 232.955 105.913 232.955 106.347C232.976 106.781 232.821 107.143 232.49 107.432C232.304 107.597 232.025 107.845 231.653 108.176C231.302 108.486 230.919 108.817 230.506 109.168C230.113 109.499 229.762 109.788 229.452 110.036C229.679 110.263 229.896 110.491 230.103 110.718C230.33 110.945 230.547 111.173 230.754 111.4C231.043 111.152 231.384 110.863 231.777 110.532C232.19 110.181 232.583 109.84 232.955 109.509C233.327 109.178 233.596 108.93 233.761 108.765C234.071 108.476 234.443 108.331 234.877 108.331C235.311 108.31 235.683 108.455 235.993 108.765C236.303 109.054 236.458 109.416 236.458 109.85C236.479 110.284 236.334 110.646 236.024 110.935C235.859 111.1 235.6 111.328 235.249 111.617C234.918 111.906 234.567 112.206 234.195 112.516C233.823 112.826 233.482 113.115 233.172 113.384C234.164 114.107 235.29 114.8 236.551 115.461C237.006 115.668 237.285 116.009 237.388 116.484C237.512 116.959 237.46 117.404 237.233 117.817C236.964 118.272 236.572 118.551 236.055 118.654C235.538 118.757 235.042 118.675 234.567 118.406C233.203 117.662 231.942 116.835 230.785 115.926C230.744 116.36 230.558 116.732 230.227 117.042C229.917 117.331 229.535 117.476 229.08 117.476H227.685V120.39H233.451C233.926 120.39 234.319 120.555 234.629 120.886C234.96 121.196 235.125 121.589 235.125 122.064C235.125 122.519 234.96 122.911 234.629 123.242C234.319 123.552 233.926 123.707 233.451 123.707H227.685V126.993C227.685 127.716 227.861 128.202 228.212 128.45C228.584 128.698 229.318 128.822 230.413 128.822C231.343 128.822 231.984 128.688 232.335 128.419C232.707 128.13 232.996 127.623 233.203 126.9C233.368 126.363 233.668 125.991 234.102 125.784C234.536 125.557 235.011 125.526 235.528 125.691C236.086 125.856 236.458 126.135 236.644 126.528C236.851 126.921 236.902 127.365 236.799 127.861C236.468 129.473 235.755 130.61 234.66 131.271C233.565 131.932 232.139 132.263 230.382 132.263C228.894 132.263 227.695 132.129 226.786 131.86C225.877 131.591 225.205 131.095 224.771 130.372C224.358 129.649 224.151 128.615 224.151 127.272V123.707H221.206C220.875 126.063 219.966 127.944 218.478 129.349C216.99 130.754 214.779 131.757 211.844 132.356ZM221.361 120.39H224.151V117.476H221.361V120.39ZM258.964 132.542C257.352 132.542 256.091 132.408 255.182 132.139C254.273 131.891 253.632 131.436 253.26 130.775C252.888 130.114 252.692 129.163 252.671 127.923H249.912C248.217 127.923 246.926 127.778 246.037 127.489C245.148 127.179 244.539 126.662 244.208 125.939C243.877 125.216 243.712 124.224 243.712 122.963C243.712 121.682 243.877 120.679 244.208 119.956C244.539 119.233 245.148 118.726 246.037 118.437C246.926 118.148 248.217 118.003 249.912 118.003H258.747C260.442 118.003 261.733 118.148 262.622 118.437C263.511 118.726 264.12 119.233 264.451 119.956C264.782 120.679 264.947 121.682 264.947 122.963C264.947 124.224 264.782 125.216 264.451 125.939C264.12 126.662 263.511 127.179 262.622 127.489C261.733 127.778 260.442 127.923 258.747 127.923H256.236C256.277 128.564 256.474 128.977 256.825 129.163C257.176 129.349 257.889 129.442 258.964 129.442H262.374C263.304 129.442 264.017 129.38 264.513 129.256C265.009 129.132 265.371 128.915 265.598 128.605C265.846 128.295 266.022 127.871 266.125 127.334C266.208 126.921 266.456 126.6 266.869 126.373C267.282 126.146 267.747 126.104 268.264 126.249C268.739 126.373 269.08 126.621 269.287 126.993C269.514 127.344 269.576 127.758 269.473 128.233C269.287 129.308 268.936 130.155 268.419 130.775C267.902 131.416 267.158 131.87 266.187 132.139C265.216 132.408 263.945 132.542 262.374 132.542H258.964ZM254.438 117.445C253.942 117.445 253.518 117.28 253.167 116.949C252.836 116.618 252.671 116.184 252.671 115.647V111.245H246.192C245.365 111.245 244.787 111.359 244.456 111.586C244.125 111.813 243.96 112.289 243.96 113.012V114.407C243.96 114.924 243.784 115.347 243.433 115.678C243.102 115.988 242.699 116.143 242.224 116.143C241.728 116.143 241.304 115.988 240.953 115.678C240.622 115.347 240.457 114.924 240.457 114.407V112.981C240.457 111.948 240.622 111.121 240.953 110.501C241.304 109.881 241.893 109.437 242.72 109.168C243.547 108.879 244.673 108.734 246.099 108.734H252.671V107.401H243.371C242.978 107.401 242.648 107.267 242.379 106.998C242.131 106.709 242.007 106.368 242.007 105.975C242.007 105.603 242.131 105.283 242.379 105.014C242.648 104.725 242.978 104.58 243.371 104.58H265.66C266.053 104.58 266.373 104.725 266.621 105.014C266.89 105.283 267.024 105.603 267.024 105.975C267.024 106.368 266.89 106.709 266.621 106.998C266.373 107.267 266.053 107.401 265.66 107.401H256.205V108.734H262.777C264.224 108.734 265.35 108.879 266.156 109.168C266.983 109.437 267.561 109.881 267.892 110.501C268.243 111.121 268.419 111.948 268.419 112.981V114.407C268.419 114.924 268.243 115.347 267.892 115.678C267.541 115.988 267.127 116.143 266.652 116.143C266.177 116.143 265.763 115.988 265.412 115.678C265.061 115.347 264.885 114.924 264.885 114.407V113.012C264.885 112.289 264.72 111.813 264.389 111.586C264.079 111.359 263.511 111.245 262.684 111.245H256.205V115.647C256.205 116.184 256.029 116.618 255.678 116.949C255.347 117.28 254.934 117.445 254.438 117.445ZM258.096 116.949C257.827 116.949 257.59 116.856 257.383 116.67C257.197 116.463 257.104 116.226 257.104 115.957C257.104 115.688 257.197 115.461 257.383 115.275C257.59 115.068 257.827 114.965 258.096 114.965H263.056C263.345 114.965 263.583 115.068 263.769 115.275C263.955 115.461 264.048 115.688 264.048 115.957C264.048 116.226 263.955 116.463 263.769 116.67C263.583 116.856 263.345 116.949 263.056 116.949H258.096ZM258.096 114.159C257.827 114.159 257.59 114.066 257.383 113.88C257.197 113.673 257.104 113.436 257.104 113.167C257.104 112.898 257.197 112.671 257.383 112.485C257.59 112.278 257.827 112.175 258.096 112.175H263.056C263.345 112.175 263.583 112.278 263.769 112.485C263.955 112.671 264.048 112.898 264.048 113.167C264.048 113.436 263.955 113.673 263.769 113.88C263.583 114.066 263.345 114.159 263.056 114.159H258.096ZM245.758 116.949C245.489 116.949 245.262 116.856 245.076 116.67C244.89 116.463 244.797 116.226 244.797 115.957C244.797 115.688 244.89 115.461 245.076 115.275C245.262 115.068 245.489 114.965 245.758 114.965H250.749C251.018 114.965 251.245 115.068 251.431 115.275C251.617 115.461 251.71 115.688 251.71 115.957C251.71 116.226 251.617 116.463 251.431 116.67C251.245 116.856 251.018 116.949 250.749 116.949H245.758ZM245.758 114.159C245.489 114.159 245.262 114.066 245.076 113.88C244.89 113.673 244.797 113.436 244.797 113.167C244.797 112.898 244.89 112.671 245.076 112.485C245.262 112.278 245.489 112.175 245.758 112.175H250.749C251.018 112.175 251.245 112.278 251.431 112.485C251.617 112.671 251.71 112.898 251.71 113.167C251.71 113.436 251.617 113.673 251.431 113.88C251.245 114.066 251.018 114.159 250.749 114.159H245.758ZM247.246 121.816H252.671V120.514H249.943C248.992 120.514 248.331 120.586 247.959 120.731C247.587 120.855 247.349 121.217 247.246 121.816ZM249.943 125.412H252.671V124.11H247.246C247.349 124.689 247.587 125.05 247.959 125.195C248.331 125.34 248.992 125.412 249.943 125.412ZM256.236 121.816H261.413C261.33 121.217 261.103 120.855 260.731 120.731C260.359 120.586 259.687 120.514 258.716 120.514H256.236V121.816ZM256.236 125.412H258.716C259.687 125.412 260.359 125.34 260.731 125.195C261.103 125.05 261.33 124.689 261.413 124.11H256.236V125.412ZM295.141 132.79C294.645 132.79 294.221 132.625 293.87 132.294C293.519 131.963 293.343 131.529 293.343 130.992V116.98H290.615C290.47 120.101 289.871 122.87 288.817 125.288C287.784 127.685 286.306 129.711 284.384 131.364C283.95 131.736 283.454 131.953 282.896 132.015C282.359 132.098 281.873 131.943 281.439 131.55C281.046 131.157 280.85 130.703 280.85 130.186C280.871 129.69 281.108 129.246 281.563 128.853C282.824 127.758 283.847 126.58 284.632 125.319C285.438 124.038 286.027 122.601 286.399 121.01C286.771 119.398 286.957 117.548 286.957 115.461V111.462C286.957 110.181 287.091 109.158 287.36 108.393C287.649 107.608 288.125 106.998 288.786 106.564C289.468 106.13 290.388 105.799 291.545 105.572C292.454 105.407 293.457 105.19 294.552 104.921C295.647 104.632 296.701 104.342 297.714 104.053C298.251 103.888 298.737 103.908 299.171 104.115C299.626 104.322 299.925 104.632 300.07 105.045C300.256 105.541 300.256 106.016 300.07 106.471C299.884 106.905 299.522 107.205 298.985 107.37C297.993 107.639 296.96 107.907 295.885 108.176C294.81 108.424 293.818 108.631 292.909 108.796C292.289 108.92 291.814 109.075 291.483 109.261C291.152 109.426 290.925 109.685 290.801 110.036C290.698 110.367 290.646 110.863 290.646 111.524V113.539H299.016C299.553 113.539 299.967 113.715 300.256 114.066C300.566 114.397 300.721 114.8 300.721 115.275C300.721 115.73 300.566 116.133 300.256 116.484C299.967 116.815 299.553 116.98 299.016 116.98H296.939V130.992C296.939 131.529 296.763 131.963 296.412 132.294C296.061 132.625 295.637 132.79 295.141 132.79ZM272.046 132.449C271.612 132.242 271.323 131.912 271.178 131.457C271.033 131.002 271.075 130.568 271.302 130.155C272.129 128.626 272.759 127.014 273.193 125.319C273.627 123.624 273.844 121.733 273.844 119.646V116.081C273.844 114.696 273.999 113.622 274.309 112.857C274.64 112.092 275.208 111.555 276.014 111.245C276.841 110.935 277.988 110.78 279.455 110.78C280.943 110.78 282.09 110.935 282.896 111.245C283.702 111.555 284.26 112.092 284.57 112.857C284.88 113.622 285.035 114.696 285.035 116.081C285.035 117.466 284.87 118.54 284.539 119.305C284.229 120.049 283.671 120.576 282.865 120.886C282.059 121.175 280.912 121.32 279.424 121.32H277.347C277.244 123.449 276.954 125.34 276.479 126.993C276.004 128.626 275.384 130.155 274.619 131.581C274.371 132.036 273.999 132.346 273.503 132.511C273.007 132.676 272.521 132.656 272.046 132.449ZM273.72 108.641C273.245 108.641 272.862 108.486 272.573 108.176C272.284 107.866 272.139 107.494 272.139 107.06C272.139 106.605 272.284 106.233 272.573 105.944C272.862 105.634 273.245 105.479 273.72 105.479H284.446C284.921 105.479 285.304 105.634 285.593 105.944C285.882 106.233 286.027 106.605 286.027 107.06C286.027 107.494 285.882 107.866 285.593 108.176C285.304 108.486 284.921 108.641 284.446 108.641H273.72ZM277.378 118.127H279.455C280.323 118.127 280.881 118.013 281.129 117.786C281.398 117.538 281.532 116.97 281.532 116.081C281.532 115.192 281.398 114.634 281.129 114.407C280.881 114.159 280.323 114.035 279.455 114.035C278.587 114.035 278.019 114.149 277.75 114.376C277.502 114.603 277.378 115.161 277.378 116.05V118.127Z" fill="#007440"/>
<path d="M254.5 38V91.5" stroke="#FAD764" stroke-width="4"/>
<defs>
<clipPath id="clip0_2001_2996">
<rect width="79.0268" height="42.5591" fill="white" transform="translate(175) rotate(0.543567)"/>
</clipPath>
<clipPath id="clip1_2001_2996">
<rect width="79.0268" height="42.5591" fill="white" transform="translate(126 19) rotate(0.543567)"/>
</clipPath>
<clipPath id="clip2_2001_2996">
<rect width="79.0268" height="42.5591" fill="white" transform="translate(77.4033 38) rotate(0.543567)"/>
</clipPath>
<clipPath id="clip3_2001_2996">
<rect width="38" height="40" fill="white" transform="translate(52 62)"/>
</clipPath>
<clipPath id="clip4_2001_2996">
<rect width="38.0951" height="40.1664" fill="white" transform="translate(52 62)"/>
</clipPath>
</defs>
</svg>
