<svg width="577" height="234" viewBox="0 0 577 234" fill="none" xmlns="http://www.w3.org/2000/svg">
<path d="M32.1987 189.125C24.4534 188.246 12.3289 192.091 5.124 197.719C-2.08091 203.346 -1.63061 208.624 6.11468 209.493L233.801 233.875C241.558 234.754 253.671 230.909 260.876 225.281C268.081 219.654 267.631 214.376 259.885 213.507L32.1987 189.125Z" fill="#FAD764"/>
<g clip-path="url(#clip0_2001_2997)">
<path opacity="0.2" d="M104.634 219.113L46.9451 198.118L64.5446 192.083L122.234 213.078L104.634 219.113Z" fill="black"/>
<path d="M118.213 212.917L120.396 213.709L120.508 201.934L118.324 201.142L118.213 212.917Z" fill="#B1B1B1"/>
<path d="M122.234 213.078L120.397 213.709L120.509 201.934L122.346 201.303L122.234 213.078Z" fill="#C6C6C6"/>
<path d="M46.1964 197.846L48.3803 198.644L48.4076 195.767L46.2236 194.975L46.1964 197.846Z" fill="#B1B1B1"/>
<path d="M50.2171 198.013L48.3796 198.644L48.4069 195.767L50.2444 195.136L50.2171 198.013Z" fill="#C6C6C6"/>
<path d="M46.7409 196.25L105.169 217.518L104.662 216.236L46.2236 194.975L46.7409 196.25Z" fill="#B1B1B1"/>
<path d="M102.45 218.322L104.634 219.114L104.661 216.236L102.478 215.444L102.45 218.322Z" fill="#B1B1B1"/>
<path d="M119.94 211.598L105.898 216.41L105.906 215.587L119.948 210.775L119.94 211.598Z" fill="#C6C6C6"/>
<path d="M119.948 210.775L105.907 215.587L104.746 215.148L118.787 210.343L119.948 210.775Z" fill="white"/>
<path d="M106.472 218.483L104.634 219.114L104.661 216.236L106.501 215.366L106.472 218.483Z" fill="#C6C6C6"/>
<path d="M125.218 198.731L105.168 217.518L104.662 216.236L124.701 197.45L125.218 198.731Z" fill="#C6C6C6"/>
<path d="M104.662 216.236L124.701 197.45L66.2729 176.189L46.2233 194.975L104.662 216.236Z" fill="#F0F0F0"/>
<path d="M98.7661 197.165L98.4571 196.255L102.942 192.208L104.511 191.989L106.294 192.648L100.56 197.823L98.7767 197.165L98.7661 197.165ZM94.6119 203.185L100.346 198.009L98.5632 197.351L96.9943 197.569L92.5094 201.616L92.8184 202.527L94.6013 203.185L94.6119 203.185ZM106.505 192.721L100.771 197.897L103.493 198.901L109.227 193.725L106.505 192.721ZM82.6295 206.338L88.3637 201.162L85.6419 200.158L79.9076 205.333L82.6295 206.338ZM91.579 194.789L85.8448 199.965L88.5667 200.97L94.3009 195.794L91.579 194.789ZM97.5268 189.421L91.7926 194.597L94.5145 195.601L100.249 190.426L97.5268 189.421ZM91.6076 209.638L97.3418 204.462L94.6199 203.457L88.8857 208.633L91.6076 209.638ZM100.586 212.937L106.32 207.762L103.598 206.757L97.8637 211.933L100.586 212.937ZM115.472 196.021L109.738 201.196L112.46 202.201L118.194 197.025L115.472 196.021ZM109.535 201.389L103.801 206.565L106.523 207.569L112.257 202.393L109.535 201.389ZM109.527 201.123L115.261 195.947L113.478 195.289L111.909 195.507L107.425 199.554L107.734 200.464L109.516 201.123L109.527 201.123ZM103.59 206.491L109.324 201.316L107.541 200.657L105.972 200.876L101.487 204.923L101.796 205.833L103.579 206.491L103.59 206.491ZM100.557 198.089L94.8229 203.265L97.5447 204.269L103.279 199.094L100.557 198.089ZM112.468 202.473L106.734 207.649L108.517 208.307L110.086 208.089L114.57 204.042L114.261 203.132L112.479 202.473L112.468 202.473ZM103.376 206.684L101.593 206.025L100.024 206.244L95.5396 210.291L95.8486 211.201L97.6315 211.86L103.366 206.684L103.376 206.684ZM91.5816 194.517L97.3158 189.341L95.5329 188.683L93.964 188.901L89.4791 192.948L89.7881 193.859L91.571 194.517L91.5816 194.517ZM97.5527 204.542L91.8185 209.717L93.6015 210.376L95.1704 210.158L99.6552 206.111L99.3462 205.2L97.5633 204.542L97.5527 204.542ZM103.49 199.167L97.7558 204.343L99.5387 205.001L101.108 204.783L105.592 200.736L105.283 199.826L103.501 199.167L103.49 199.167ZM120.199 197.757L118.416 197.098L112.682 202.274L114.465 202.933L116.033 202.714L120.518 198.667L120.209 197.757L120.199 197.757ZM106.531 207.841L100.797 213.017L102.58 213.676L104.148 213.457L108.633 209.41L108.324 208.5L106.541 207.842L106.531 207.841ZM109.438 193.799L103.704 198.974L105.486 199.633L107.055 199.415L111.54 195.368L111.231 194.457L109.448 193.799L109.438 193.799ZM94.3983 203.378L92.6154 202.719L91.0465 202.937L86.5617 206.984L86.8706 207.895L88.6535 208.553L94.3878 203.377L94.3983 203.378ZM85.4203 200.078L83.6374 199.419L82.0685 199.638L77.5836 203.685L77.8926 204.595L79.6755 205.253L85.4097 200.078L85.4203 200.078ZM85.6339 199.885L91.3681 194.71L89.5851 194.051L88.0162 194.269L83.5314 198.316L83.8403 199.227L85.6233 199.885L85.6339 199.885ZM88.5748 201.235L82.8405 206.411L84.6235 207.07L86.1924 206.851L90.6772 202.804L90.3683 201.894L88.5853 201.236L88.5748 201.235ZM100.46 190.499L94.7255 195.675L96.5084 196.333L98.0773 196.115L102.562 192.068L102.253 191.158L100.47 190.499L100.46 190.499ZM94.5225 195.867L88.7883 201.043L90.5712 201.702L92.1402 201.483L96.625 197.436L96.316 196.526L94.5331 195.867L94.5225 195.867Z" fill="#036E9D" stroke="white" stroke-width="0.117363" stroke-miterlimit="10"/>
<path d="M71.7056 187.212L71.3966 186.302L75.8814 182.255L77.4504 182.037L79.2333 182.695L73.4991 187.871L71.7161 187.213L71.7056 187.212ZM67.5513 193.239L73.2855 188.063L71.5026 187.405L69.9337 187.623L65.4488 191.67L65.7578 192.581L67.5407 193.239L67.5513 193.239ZM79.4443 182.769L73.7101 187.944L76.432 188.949L82.1662 183.773L79.4443 182.769ZM55.569 196.386L61.3032 191.21L58.5813 190.205L52.8471 195.381L55.569 196.386ZM64.5185 184.837L58.7843 190.013L61.5061 191.017L67.2404 185.841L64.5185 184.837ZM70.4663 179.469L64.7321 184.645L67.4539 185.649L73.1881 180.473L70.4663 179.469ZM64.547 199.685L70.2812 194.51L67.5594 193.505L61.8251 198.681L64.547 199.685ZM73.5251 202.985L79.2593 197.809L76.5374 196.805L70.8032 201.981L73.5251 202.985ZM88.4118 186.068L82.6776 191.244L85.3994 192.248L91.1336 187.073L88.4118 186.068ZM82.4746 191.437L76.7404 196.612L79.4622 197.617L85.1965 192.441L82.4746 191.437ZM82.4771 191.171L88.2113 185.995L86.4284 185.336L84.8595 185.555L80.3746 189.602L80.6836 190.512L82.4665 191.171L82.4771 191.171ZM76.5293 196.539L82.2636 191.363L80.4806 190.705L78.9117 190.923L74.4269 194.97L74.7358 195.88L76.5188 196.539L76.5293 196.539ZM73.4965 188.137L67.7623 193.313L70.4842 194.317L76.2184 189.141L73.4965 188.137ZM85.4074 192.521L79.6732 197.697L81.4561 198.355L83.0251 198.137L87.5099 194.09L87.2009 193.179L85.418 192.521L85.4074 192.521ZM76.3158 196.731L74.5329 196.073L72.9639 196.291L68.4791 200.338L68.7881 201.249L70.571 201.907L76.3052 196.731L76.3158 196.731ZM64.5211 184.565L70.2553 179.389L68.4724 178.73L66.9034 178.949L62.4186 182.996L62.7276 183.906L64.5105 184.565L64.5211 184.565ZM70.4922 194.589L64.758 199.765L66.5409 200.424L68.1098 200.205L72.5947 196.158L72.2857 195.248L70.5028 194.589L70.4922 194.589ZM76.4294 189.221L70.6952 194.397L72.4781 195.055L74.047 194.837L78.5319 190.79L78.2229 189.88L76.44 189.221L76.4294 189.221ZM93.1382 187.805L91.3553 187.146L85.6211 192.322L87.404 192.98L88.9729 192.762L93.4577 188.715L93.1488 187.805L93.1382 187.805ZM79.4702 197.889L73.736 203.065L75.519 203.723L77.0879 203.505L81.5727 199.458L81.2638 198.548L79.4808 197.889L79.4702 197.889ZM82.3772 183.846L76.643 189.022L78.4259 189.681L79.9948 189.462L84.4797 185.415L84.1707 184.505L82.3878 183.846L82.3772 183.846ZM67.3378 193.425L65.5549 192.767L63.986 192.985L59.5011 197.032L59.8101 197.942L61.593 198.601L67.3272 193.425L67.3378 193.425ZM58.3597 190.125L56.5768 189.467L55.0079 189.685L50.5231 193.732L50.832 194.643L52.6149 195.301L58.3492 190.125L58.3597 190.125ZM58.5733 189.933L64.3075 184.757L62.5246 184.099L60.9557 184.317L56.4708 188.364L56.7798 189.274L58.5627 189.933L58.5733 189.933ZM61.5142 191.283L55.78 196.459L57.5629 197.117L59.1318 196.899L63.6167 192.852L63.3077 191.942L61.5248 191.283L61.5142 191.283ZM73.3992 180.547L67.665 185.722L69.4479 186.381L71.0168 186.162L75.5016 182.115L75.1927 181.205L73.4098 180.547L73.3992 180.547ZM67.462 185.915L61.7278 191.091L63.5107 191.749L65.0796 191.531L69.5645 187.484L69.2555 186.573L67.4726 185.915L67.462 185.915Z" fill="#036E9D" stroke="white" stroke-width="0.117363" stroke-miterlimit="10"/>
</g>
<g clip-path="url(#clip1_2001_2997)">
<path opacity="0.2" d="M202.634 229.113L144.945 208.118L162.545 202.083L220.234 223.078L202.634 229.113Z" fill="black"/>
<path d="M216.213 222.917L218.396 223.709L218.508 211.934L216.324 211.142L216.213 222.917Z" fill="#B1B1B1"/>
<path d="M220.234 223.078L218.397 223.709L218.509 211.934L220.346 211.303L220.234 223.078Z" fill="#C6C6C6"/>
<path d="M144.196 207.846L146.38 208.644L146.408 205.767L144.224 204.975L144.196 207.846Z" fill="#B1B1B1"/>
<path d="M148.217 208.013L146.38 208.644L146.407 205.767L148.244 205.136L148.217 208.013Z" fill="#C6C6C6"/>
<path d="M144.741 206.25L203.169 227.518L202.662 226.236L144.224 204.975L144.741 206.25Z" fill="#B1B1B1"/>
<path d="M200.45 228.322L202.634 229.114L202.661 226.236L200.478 225.444L200.45 228.322Z" fill="#B1B1B1"/>
<path d="M217.94 221.598L203.898 226.41L203.906 225.587L217.948 220.775L217.94 221.598Z" fill="#C6C6C6"/>
<path d="M217.948 220.775L203.907 225.587L202.746 225.148L216.787 220.343L217.948 220.775Z" fill="white"/>
<path d="M204.472 228.483L202.634 229.114L202.661 226.236L204.501 225.366L204.472 228.483Z" fill="#C6C6C6"/>
<path d="M223.218 208.731L203.168 227.518L202.662 226.236L222.701 207.45L223.218 208.731Z" fill="#C6C6C6"/>
<path d="M202.662 226.236L222.701 207.45L164.273 186.189L144.223 204.975L202.662 226.236Z" fill="#F0F0F0"/>
<path d="M196.766 207.165L196.457 206.255L200.942 202.208L202.511 201.989L204.294 202.648L198.56 207.823L196.777 207.165L196.766 207.165ZM192.612 213.185L198.346 208.009L196.563 207.351L194.994 207.569L190.509 211.616L190.818 212.527L192.601 213.185L192.612 213.185ZM204.505 202.721L198.771 207.897L201.493 208.901L207.227 203.725L204.505 202.721ZM180.63 216.338L186.364 211.162L183.642 210.158L177.908 215.333L180.63 216.338ZM189.579 204.789L183.845 209.965L186.567 210.97L192.301 205.794L189.579 204.789ZM195.527 199.421L189.793 204.597L192.514 205.601L198.249 200.426L195.527 199.421ZM189.608 219.638L195.342 214.462L192.62 213.457L186.886 218.633L189.608 219.638ZM198.586 222.937L204.32 217.762L201.598 216.757L195.864 221.933L198.586 222.937ZM213.472 206.021L207.738 211.196L210.46 212.201L216.194 207.025L213.472 206.021ZM207.535 211.389L201.801 216.565L204.523 217.569L210.257 212.393L207.535 211.389ZM207.527 211.123L213.261 205.947L211.478 205.289L209.909 205.507L205.425 209.554L205.734 210.464L207.516 211.123L207.527 211.123ZM201.59 216.491L207.324 211.316L205.541 210.657L203.972 210.876L199.487 214.923L199.796 215.833L201.579 216.491L201.59 216.491ZM198.557 208.089L192.823 213.265L195.545 214.269L201.279 209.094L198.557 208.089ZM210.468 212.473L204.734 217.649L206.517 218.307L208.086 218.089L212.57 214.042L212.261 213.132L210.479 212.473L210.468 212.473ZM201.376 216.684L199.593 216.025L198.024 216.244L193.54 220.291L193.849 221.201L195.632 221.86L201.366 216.684L201.376 216.684ZM189.582 204.517L195.316 199.341L193.533 198.683L191.964 198.901L187.479 202.948L187.788 203.859L189.571 204.517L189.582 204.517ZM195.553 214.542L189.819 219.717L191.601 220.376L193.17 220.158L197.655 216.111L197.346 215.2L195.563 214.542L195.553 214.542ZM201.49 209.167L195.756 214.343L197.539 215.001L199.108 214.783L203.592 210.736L203.283 209.826L201.501 209.167L201.49 209.167ZM218.199 207.757L216.416 207.098L210.682 212.274L212.465 212.933L214.033 212.714L218.518 208.667L218.209 207.757L218.199 207.757ZM204.531 217.841L198.797 223.017L200.58 223.676L202.148 223.457L206.633 219.41L206.324 218.5L204.541 217.842L204.531 217.841ZM207.438 203.799L201.704 208.974L203.486 209.633L205.055 209.415L209.54 205.368L209.231 204.457L207.448 203.799L207.438 203.799ZM192.398 213.378L190.615 212.719L189.047 212.937L184.562 216.984L184.871 217.895L186.654 218.553L192.388 213.377L192.398 213.378ZM183.42 210.078L181.637 209.419L180.068 209.638L175.584 213.685L175.893 214.595L177.675 215.253L183.41 210.078L183.42 210.078ZM183.634 209.885L189.368 204.71L187.585 204.051L186.016 204.269L181.531 208.316L181.84 209.227L183.623 209.885L183.634 209.885ZM186.575 211.235L180.841 216.411L182.623 217.07L184.192 216.851L188.677 212.804L188.368 211.894L186.585 211.236L186.575 211.235ZM198.46 200.499L192.726 205.675L194.508 206.333L196.077 206.115L200.562 202.068L200.253 201.158L198.47 200.499L198.46 200.499ZM192.523 205.867L186.788 211.043L188.571 211.702L190.14 211.483L194.625 207.436L194.316 206.526L192.533 205.867L192.523 205.867Z" fill="#036E9D" stroke="white" stroke-width="0.117363" stroke-miterlimit="10"/>
<path d="M169.706 197.212L169.397 196.302L173.881 192.255L175.45 192.037L177.233 192.695L171.499 197.871L169.716 197.213L169.706 197.212ZM165.551 203.239L171.286 198.063L169.503 197.405L167.934 197.623L163.449 201.67L163.758 202.581L165.541 203.239L165.551 203.239ZM177.444 192.769L171.71 197.944L174.432 198.949L180.166 193.773L177.444 192.769ZM153.569 206.386L159.303 201.21L156.581 200.205L150.847 205.381L153.569 206.386ZM162.518 194.837L156.784 200.013L159.506 201.017L165.24 195.841L162.518 194.837ZM168.466 189.469L162.732 194.645L165.454 195.649L171.188 190.473L168.466 189.469ZM162.547 209.685L168.281 204.51L165.559 203.505L159.825 208.681L162.547 209.685ZM171.525 212.985L177.259 207.809L174.537 206.805L168.803 211.981L171.525 212.985ZM186.412 196.068L180.678 201.244L183.399 202.248L189.134 197.073L186.412 196.068ZM180.475 201.437L174.74 206.612L177.462 207.617L183.196 202.441L180.475 201.437ZM180.477 201.171L186.211 195.995L184.428 195.336L182.859 195.555L178.375 199.602L178.684 200.512L180.467 201.171L180.477 201.171ZM174.529 206.539L180.264 201.363L178.481 200.705L176.912 200.923L172.427 204.97L172.736 205.88L174.519 206.539L174.529 206.539ZM171.497 198.137L165.762 203.313L168.484 204.317L174.218 199.141L171.497 198.137ZM183.407 202.521L177.673 207.697L179.456 208.355L181.025 208.137L185.51 204.09L185.201 203.179L183.418 202.521L183.407 202.521ZM174.316 206.731L172.533 206.073L170.964 206.291L166.479 210.338L166.788 211.249L168.571 211.907L174.305 206.731L174.316 206.731ZM162.521 194.565L168.255 189.389L166.472 188.73L164.903 188.949L160.419 192.996L160.728 193.906L162.51 194.565L162.521 194.565ZM168.492 204.589L162.758 209.765L164.541 210.424L166.11 210.205L170.595 206.158L170.286 205.248L168.503 204.589L168.492 204.589ZM174.429 199.221L168.695 204.397L170.478 205.055L172.047 204.837L176.532 200.79L176.223 199.88L174.44 199.221L174.429 199.221ZM191.138 197.805L189.355 197.146L183.621 202.322L185.404 202.98L186.973 202.762L191.458 198.715L191.149 197.805L191.138 197.805ZM177.47 207.889L171.736 213.065L173.519 213.723L175.088 213.505L179.573 209.458L179.264 208.548L177.481 207.889L177.47 207.889ZM180.377 193.846L174.643 199.022L176.426 199.681L177.995 199.462L182.48 195.415L182.171 194.505L180.388 193.846L180.377 193.846ZM165.338 203.425L163.555 202.767L161.986 202.985L157.501 207.032L157.81 207.942L159.593 208.601L165.327 203.425L165.338 203.425ZM156.36 200.125L154.577 199.467L153.008 199.685L148.523 203.732L148.832 204.643L150.615 205.301L156.349 200.125L156.36 200.125ZM156.573 199.933L162.308 194.757L160.525 194.099L158.956 194.317L154.471 198.364L154.78 199.274L156.563 199.933L156.573 199.933ZM159.514 201.283L153.78 206.459L155.563 207.117L157.132 206.899L161.617 202.852L161.308 201.942L159.525 201.283L159.514 201.283ZM171.399 190.547L165.665 195.722L167.448 196.381L169.017 196.162L173.502 192.115L173.193 191.205L171.41 190.547L171.399 190.547ZM165.462 195.915L159.728 201.091L161.511 201.749L163.08 201.531L167.564 197.484L167.255 196.573L165.473 195.915L165.462 195.915Z" fill="#036E9D" stroke="white" stroke-width="0.117363" stroke-miterlimit="10"/>
</g>
<path d="M431.32 58.65C431.32 26.26 399.46 0 360.16 0C320.86 0 289 26.26 289 58.65" fill="#FAD764"/>
<rect x="147.5" y="54.5" width="426" height="90" rx="29.5" fill="white"/>
<rect x="147.5" y="54.5" width="426" height="90" rx="29.5" stroke="#FAD764" stroke-width="7"/>
<path d="M201.646 117.598C197.629 117.598 194.562 116.54 192.446 114.424C190.33 112.277 189.272 109.073 189.272 104.81V87.514C189.272 86.6247 189.502 85.95 189.962 85.49C190.453 85.03 191.128 84.8 191.986 84.8C193.765 84.8 194.654 85.7047 194.654 87.514V104.534C194.654 107.294 195.268 109.303 196.494 110.56C197.752 111.787 199.469 112.4 201.646 112.4C203.824 112.4 205.526 111.787 206.752 110.56C207.979 109.303 208.592 107.294 208.592 104.534V87.514C208.592 85.7047 209.482 84.8 211.26 84.8C213.039 84.8 213.928 85.7047 213.928 87.514V104.81C213.928 109.073 212.886 112.277 210.8 114.424C208.715 116.54 205.664 117.598 201.646 117.598ZM223.688 117C221.909 117 221.02 116.095 221.02 114.286V87.514C221.02 86.4713 221.28 85.766 221.802 85.398C222.354 84.9993 223.151 84.8 224.194 84.8C225.604 84.8 226.678 85.4133 227.414 86.64L235.556 100.256L243.606 86.686C244.035 85.9193 244.526 85.4133 245.078 85.168C245.66 84.9227 246.412 84.8 247.332 84.8C249.141 84.8 250.046 85.7047 250.046 87.514V114.286C250.046 116.095 249.141 117 247.332 117C245.522 117 244.618 116.095 244.618 114.286V94.046L238.132 105.27C237.488 106.527 236.614 107.156 235.51 107.156C234.406 107.156 233.532 106.527 232.888 105.27L226.356 94.046V114.286C226.356 116.095 225.466 117 223.688 117ZM260.187 117C258.377 117 257.473 116.095 257.473 114.286V87.514C257.473 85.7047 258.377 84.8 260.187 84.8H276.287C278.096 84.8 279.001 85.628 279.001 87.284C279.001 88.9093 278.096 89.722 276.287 89.722H262.763V98.094H274.861C276.67 98.094 277.575 98.922 277.575 100.578C277.575 102.234 276.67 103.062 274.861 103.062H262.763V112.078H276.793C278.602 112.078 279.507 112.891 279.507 114.516C279.507 116.172 278.602 117 276.793 117H260.187ZM298.686 117.736C295.773 117.736 293.181 117.046 290.912 115.666C288.673 114.286 286.91 112.339 285.622 109.824C284.365 107.279 283.736 104.304 283.736 100.9C283.736 97.4653 284.365 94.4907 285.622 91.976C286.91 89.4307 288.673 87.468 290.912 86.088C293.181 84.6773 295.773 83.972 298.686 83.972C300.495 83.972 302.213 84.2327 303.838 84.754C305.463 85.2447 306.905 85.9347 308.162 86.824C308.898 87.3147 309.281 87.8973 309.312 88.572C309.373 89.216 309.143 89.8753 308.622 90.55C308.07 91.2247 307.487 91.5773 306.874 91.608C306.261 91.6387 305.586 91.424 304.85 90.964C303.991 90.412 303.041 89.9827 301.998 89.676C300.955 89.3387 299.851 89.17 298.686 89.17C296.754 89.17 295.083 89.6607 293.672 90.642C292.292 91.6233 291.219 93.0033 290.452 94.782C289.685 96.53 289.302 98.5693 289.302 100.9C289.302 103.2 289.685 105.239 290.452 107.018C291.219 108.766 292.292 110.131 293.672 111.112C295.083 112.093 296.754 112.584 298.686 112.584C300.127 112.584 301.323 112.446 302.274 112.17C303.255 111.863 304.114 111.495 304.85 111.066V104.166H302.274C300.465 104.166 299.56 103.338 299.56 101.682C299.56 100.026 300.465 99.198 302.274 99.198H307.518C309.327 99.198 310.232 100.118 310.232 101.958V112.4C310.232 113.167 310.109 113.811 309.864 114.332C309.649 114.823 309.235 115.206 308.622 115.482C307.303 116.157 305.785 116.693 304.068 117.092C302.381 117.521 300.587 117.736 298.686 117.736ZM317.132 117C316.242 117 315.629 116.739 315.292 116.218C314.954 115.697 314.954 114.991 315.292 114.102L325.688 86.824C326.148 85.4747 327.114 84.8 328.586 84.8H328.954C330.426 84.8 331.392 85.4747 331.852 86.824L342.294 114.102C342.631 114.991 342.616 115.697 342.248 116.218C341.91 116.739 341.297 117 340.408 117H339.534C338.092 117 337.142 116.31 336.682 114.93L334.888 109.916H322.514L320.72 114.93C320.26 116.31 319.309 117 317.868 117H317.132ZM324.262 104.994H333.186L328.77 92.436L324.262 104.994ZM350.585 117C348.898 117 348.055 116.157 348.055 114.47V87.33C348.055 85.6433 348.898 84.8 350.585 84.8H350.815C352.502 84.8 353.345 85.6433 353.345 87.33V97.588H367.973V87.33C367.973 85.6433 368.832 84.8 370.549 84.8H370.825C372.512 84.8 373.355 85.6433 373.355 87.33V114.47C373.355 116.157 372.512 117 370.825 117H370.549C368.832 117 367.973 116.157 367.973 114.47V102.51H353.345V114.47C353.345 116.157 352.502 117 350.815 117H350.585ZM380.964 117C380.074 117 379.461 116.739 379.124 116.218C378.786 115.697 378.786 114.991 379.124 114.102L389.52 86.824C389.98 85.4747 390.946 84.8 392.418 84.8H392.786C394.258 84.8 395.224 85.4747 395.684 86.824L406.126 114.102C406.463 114.991 406.448 115.697 406.08 116.218C405.742 116.739 405.129 117 404.24 117H403.366C401.924 117 400.974 116.31 400.514 114.93L398.72 109.916H386.346L384.552 114.93C384.092 116.31 383.141 117 381.7 117H380.964ZM388.094 104.994H397.018L392.602 92.436L388.094 104.994ZM414.509 117C412.761 117 411.887 116.095 411.887 114.286V87.514C411.887 85.7047 412.792 84.8 414.601 84.8H426.607C429.613 84.8 431.989 85.5053 433.737 86.916C435.516 88.3267 436.405 90.7033 436.405 94.046C436.405 96.8673 435.761 99.014 434.473 100.486C433.185 101.927 431.407 102.817 429.137 103.154L434.427 113.78C434.887 114.731 434.979 115.513 434.703 116.126C434.427 116.709 433.845 117 432.955 117H432.081C430.548 117 429.49 116.31 428.907 114.93L423.617 103.384H417.177V114.286C417.177 116.095 416.288 117 414.509 117ZM417.177 98.416H425.871C427.435 98.416 428.647 98.0787 429.505 97.404C430.364 96.7293 430.793 95.61 430.793 94.046C430.793 92.5127 430.364 91.4087 429.505 90.734C428.647 90.0593 427.435 89.722 425.871 89.722H417.177V98.416ZM442.46 117C441.571 117 440.957 116.739 440.62 116.218C440.283 115.697 440.283 114.991 440.62 114.102L451.016 86.824C451.476 85.4747 452.442 84.8 453.914 84.8H454.282C455.754 84.8 456.72 85.4747 457.18 86.824L467.622 114.102C467.959 114.991 467.944 115.697 467.576 116.218C467.239 116.739 466.625 117 465.736 117H464.862C463.421 117 462.47 116.31 462.01 114.93L460.216 109.916H447.842L446.048 114.93C445.588 116.31 444.637 117 443.196 117H442.46ZM449.59 104.994H458.514L454.098 92.436L449.59 104.994ZM481.709 117.46C479.256 117.46 477.339 116.847 475.959 115.62C474.579 114.393 473.598 112.553 473.015 110.1C472.463 107.647 472.187 104.58 472.187 100.9C472.187 97.22 472.463 94.1533 473.015 91.7C473.598 89.216 474.579 87.3607 475.959 86.134C477.339 84.9073 479.256 84.294 481.709 84.294C484.163 84.294 486.064 84.9073 487.413 86.134C488.793 87.3607 489.759 89.216 490.311 91.7C490.894 94.1533 491.185 97.22 491.185 100.9C491.185 104.58 490.894 107.647 490.311 110.1C489.759 112.553 488.793 114.393 487.413 115.62C486.064 116.847 484.163 117.46 481.709 117.46ZM481.709 112.768C482.844 112.768 483.733 112.415 484.377 111.71C485.052 110.974 485.543 109.747 485.849 108.03C486.156 106.313 486.309 103.936 486.309 100.9C486.309 97.8333 486.156 95.4413 485.849 93.724C485.543 92.0067 485.052 90.7953 484.377 90.09C483.733 89.354 482.844 88.986 481.709 88.986C480.575 88.986 479.67 89.354 478.995 90.09C478.321 90.7953 477.83 92.0067 477.523 93.724C477.247 95.4413 477.109 97.8333 477.109 100.9C477.109 103.936 477.247 106.313 477.523 108.03C477.83 109.747 478.321 110.974 478.995 111.71C479.67 112.415 480.575 112.768 481.709 112.768ZM504.937 117C503.281 117 502.453 116.095 502.453 114.286V91.056L499.141 93.218C497.608 94.2607 496.412 94.0767 495.553 92.666C494.664 91.2553 494.986 90.0747 496.519 89.124L502.039 85.674C502.591 85.3367 503.128 85.1067 503.649 84.984C504.171 84.8307 504.769 84.754 505.443 84.754C506.731 84.754 507.375 85.6587 507.375 87.468V114.286C507.375 116.095 506.563 117 504.937 117ZM517.872 117C516.062 117 515.158 116.494 515.158 115.482C515.158 113.274 515.725 111.127 516.86 109.042C518.025 106.957 519.957 104.626 522.656 102.05C523.606 101.13 524.511 100.21 525.37 99.29C526.228 98.3393 526.934 97.4193 527.486 96.53C528.038 95.61 528.329 94.736 528.36 93.908C528.39 92.3133 528.022 91.1327 527.256 90.366C526.52 89.5993 525.462 89.216 524.082 89.216C522.211 89.216 521.015 90.1667 520.494 92.068C520.248 92.896 519.926 93.54 519.528 94C519.16 94.4293 518.577 94.644 517.78 94.644C517.013 94.644 516.4 94.3833 515.94 93.862C515.48 93.3407 515.357 92.6353 515.572 91.746C516.062 89.4767 517.059 87.7133 518.562 86.456C520.064 85.168 521.904 84.524 524.082 84.524C525.86 84.524 527.44 84.892 528.82 85.628C530.23 86.364 531.334 87.4373 532.132 88.848C532.929 90.2587 533.297 91.9913 533.236 94.046C533.205 95.4873 532.868 96.8213 532.224 98.048C531.58 99.2747 530.721 100.471 529.648 101.636C528.605 102.771 527.409 103.982 526.06 105.27C524.649 106.65 523.392 107.969 522.288 109.226C521.214 110.483 520.586 111.572 520.402 112.492H529.97C531.779 112.492 532.684 113.243 532.684 114.746C532.684 116.249 531.779 117 529.97 117H517.872Z" fill="#007440"/>
<rect x="153" y="60" width="416" height="79" rx="24" fill="white"/>
<rect x="153" y="60" width="416" height="79" rx="24" stroke="#E68600" stroke-width="4"/>
<path d="M317.844 49.356C317.265 49.48 316.759 49.4387 316.325 49.232C315.912 49.046 315.633 48.705 315.488 48.209C315.343 47.713 315.416 47.2583 315.705 46.845C315.994 46.4317 316.397 46.1837 316.914 46.101C319.001 45.729 320.572 45.1193 321.626 44.272C322.701 43.404 323.393 42.2157 323.703 40.707H318.123C317.668 40.707 317.276 40.552 316.945 40.242C316.635 39.9113 316.48 39.5187 316.48 39.064C316.48 38.5887 316.635 38.196 316.945 37.886C317.276 37.5553 317.668 37.39 318.123 37.39H323.92V34.476H322.866C322.473 34.476 322.122 34.3623 321.812 34.135C321.523 33.887 321.326 33.5873 321.223 33.236C320.541 33.7733 319.828 34.29 319.084 34.786C318.361 35.2613 317.627 35.685 316.883 36.057C316.428 36.2843 315.963 36.3463 315.488 36.243C315.013 36.119 314.661 35.8297 314.434 35.375C314.227 34.9617 314.207 34.538 314.372 34.104C314.558 33.67 314.878 33.3497 315.333 33.143C316.697 32.4817 318.051 31.6447 319.394 30.632C319.022 30.2807 318.567 29.888 318.03 29.454C317.513 28.9993 317.11 28.6583 316.821 28.431C316.49 28.183 316.315 27.842 316.294 27.408C316.294 26.974 316.439 26.602 316.728 26.292C317.017 25.982 317.369 25.8063 317.782 25.765C318.216 25.7237 318.598 25.8477 318.929 26.137C319.136 26.3023 319.415 26.5297 319.766 26.819C320.117 27.1083 320.479 27.4183 320.851 27.749C321.244 28.059 321.564 28.3277 321.812 28.555C322.556 27.811 323.155 27.1187 323.61 26.478C324.168 25.6927 323.961 25.3 322.99 25.3H317.999C317.606 25.3 317.265 25.1553 316.976 24.866C316.687 24.556 316.542 24.2047 316.542 23.812C316.542 23.3987 316.687 23.0473 316.976 22.758C317.265 22.4687 317.606 22.324 317.999 22.324H323.951C325.17 22.324 326.1 22.5617 326.741 23.037C327.382 23.4917 327.723 24.091 327.764 24.835C327.805 25.579 327.526 26.385 326.927 27.253C326.059 28.5343 324.974 29.8053 323.672 31.066H334.615C332.321 28.9167 330.451 26.416 329.004 23.564C328.818 23.1713 328.797 22.7787 328.942 22.386C329.087 21.9933 329.345 21.6937 329.717 21.487C330.11 21.301 330.533 21.2597 330.988 21.363C331.443 21.4457 331.773 21.6833 331.98 22.076C332.228 22.51 332.486 22.944 332.755 23.378C333.024 23.7913 333.292 24.2047 333.561 24.618C333.871 24.37 334.202 24.091 334.553 23.781C334.904 23.471 335.235 23.1817 335.545 22.913C335.855 22.6237 336.082 22.4067 336.227 22.262C336.558 21.9727 336.93 21.828 337.343 21.828C337.777 21.8073 338.159 21.952 338.49 22.262C338.8 22.5513 338.955 22.913 338.955 23.347C338.976 23.781 338.821 24.1427 338.49 24.432C338.304 24.5973 338.025 24.8453 337.653 25.176C337.302 25.486 336.919 25.8167 336.506 26.168C336.113 26.4987 335.762 26.788 335.452 27.036C335.679 27.2633 335.896 27.4907 336.103 27.718C336.33 27.9453 336.547 28.1727 336.754 28.4C337.043 28.152 337.384 27.8627 337.777 27.532C338.19 27.1807 338.583 26.8397 338.955 26.509C339.327 26.1783 339.596 25.9303 339.761 25.765C340.071 25.4757 340.443 25.331 340.877 25.331C341.311 25.3103 341.683 25.455 341.993 25.765C342.303 26.0543 342.458 26.416 342.458 26.85C342.479 27.284 342.334 27.6457 342.024 27.935C341.859 28.1003 341.6 28.3277 341.249 28.617C340.918 28.9063 340.567 29.206 340.195 29.516C339.823 29.826 339.482 30.1153 339.172 30.384C340.164 31.1073 341.29 31.7997 342.551 32.461C343.006 32.6677 343.285 33.0087 343.388 33.484C343.512 33.9593 343.46 34.4037 343.233 34.817C342.964 35.2717 342.572 35.5507 342.055 35.654C341.538 35.7573 341.042 35.6747 340.567 35.406C339.203 34.662 337.942 33.8353 336.785 32.926C336.744 33.36 336.558 33.732 336.227 34.042C335.917 34.3313 335.535 34.476 335.08 34.476H333.685V37.39H339.451C339.926 37.39 340.319 37.5553 340.629 37.886C340.96 38.196 341.125 38.5887 341.125 39.064C341.125 39.5187 340.96 39.9113 340.629 40.242C340.319 40.552 339.926 40.707 339.451 40.707H333.685V43.993C333.685 44.7163 333.861 45.202 334.212 45.45C334.584 45.698 335.318 45.822 336.413 45.822C337.343 45.822 337.984 45.6877 338.335 45.419C338.707 45.1297 338.996 44.6233 339.203 43.9C339.368 43.3627 339.668 42.9907 340.102 42.784C340.536 42.5567 341.011 42.5257 341.528 42.691C342.086 42.8563 342.458 43.1353 342.644 43.528C342.851 43.9207 342.902 44.365 342.799 44.861C342.468 46.473 341.755 47.6097 340.66 48.271C339.565 48.9323 338.139 49.263 336.382 49.263C334.894 49.263 333.695 49.1287 332.786 48.86C331.877 48.5913 331.205 48.0953 330.771 47.372C330.358 46.6487 330.151 45.6153 330.151 44.272V40.707H327.206C326.875 43.063 325.966 44.9437 324.478 46.349C322.99 47.7543 320.779 48.7567 317.844 49.356ZM327.361 37.39H330.151V34.476H327.361V37.39ZM364.964 49.542C363.352 49.542 362.091 49.4077 361.182 49.139C360.273 48.891 359.632 48.4363 359.26 47.775C358.888 47.1137 358.692 46.163 358.671 44.923H355.912C354.217 44.923 352.926 44.7783 352.037 44.489C351.148 44.179 350.539 43.6623 350.208 42.939C349.877 42.2157 349.712 41.2237 349.712 39.963C349.712 38.6817 349.877 37.6793 350.208 36.956C350.539 36.2327 351.148 35.7263 352.037 35.437C352.926 35.1477 354.217 35.003 355.912 35.003H364.747C366.442 35.003 367.733 35.1477 368.622 35.437C369.511 35.7263 370.12 36.2327 370.451 36.956C370.782 37.6793 370.947 38.6817 370.947 39.963C370.947 41.2237 370.782 42.2157 370.451 42.939C370.12 43.6623 369.511 44.179 368.622 44.489C367.733 44.7783 366.442 44.923 364.747 44.923H362.236C362.277 45.5637 362.474 45.977 362.825 46.163C363.176 46.349 363.889 46.442 364.964 46.442H368.374C369.304 46.442 370.017 46.38 370.513 46.256C371.009 46.132 371.371 45.915 371.598 45.605C371.846 45.295 372.022 44.8713 372.125 44.334C372.208 43.9207 372.456 43.6003 372.869 43.373C373.282 43.1457 373.747 43.1043 374.264 43.249C374.739 43.373 375.08 43.621 375.287 43.993C375.514 44.3443 375.576 44.7577 375.473 45.233C375.287 46.3077 374.936 47.155 374.419 47.775C373.902 48.4157 373.158 48.8703 372.187 49.139C371.216 49.4077 369.945 49.542 368.374 49.542H364.964ZM360.438 34.445C359.942 34.445 359.518 34.2797 359.167 33.949C358.836 33.6183 358.671 33.1843 358.671 32.647V28.245H352.192C351.365 28.245 350.787 28.3587 350.456 28.586C350.125 28.8133 349.96 29.2887 349.96 30.012V31.407C349.96 31.9237 349.784 32.3473 349.433 32.678C349.102 32.988 348.699 33.143 348.224 33.143C347.728 33.143 347.304 32.988 346.953 32.678C346.622 32.3473 346.457 31.9237 346.457 31.407V29.981C346.457 28.9477 346.622 28.121 346.953 27.501C347.304 26.881 347.893 26.4367 348.72 26.168C349.547 25.8787 350.673 25.734 352.099 25.734H358.671V24.401H349.371C348.978 24.401 348.648 24.2667 348.379 23.998C348.131 23.7087 348.007 23.3677 348.007 22.975C348.007 22.603 348.131 22.2827 348.379 22.014C348.648 21.7247 348.978 21.58 349.371 21.58H371.66C372.053 21.58 372.373 21.7247 372.621 22.014C372.89 22.2827 373.024 22.603 373.024 22.975C373.024 23.3677 372.89 23.7087 372.621 23.998C372.373 24.2667 372.053 24.401 371.66 24.401H362.205V25.734H368.777C370.224 25.734 371.35 25.8787 372.156 26.168C372.983 26.4367 373.561 26.881 373.892 27.501C374.243 28.121 374.419 28.9477 374.419 29.981V31.407C374.419 31.9237 374.243 32.3473 373.892 32.678C373.541 32.988 373.127 33.143 372.652 33.143C372.177 33.143 371.763 32.988 371.412 32.678C371.061 32.3473 370.885 31.9237 370.885 31.407V30.012C370.885 29.2887 370.72 28.8133 370.389 28.586C370.079 28.3587 369.511 28.245 368.684 28.245H362.205V32.647C362.205 33.1843 362.029 33.6183 361.678 33.949C361.347 34.2797 360.934 34.445 360.438 34.445ZM364.096 33.949C363.827 33.949 363.59 33.856 363.383 33.67C363.197 33.4633 363.104 33.2257 363.104 32.957C363.104 32.6883 363.197 32.461 363.383 32.275C363.59 32.0683 363.827 31.965 364.096 31.965H369.056C369.345 31.965 369.583 32.0683 369.769 32.275C369.955 32.461 370.048 32.6883 370.048 32.957C370.048 33.2257 369.955 33.4633 369.769 33.67C369.583 33.856 369.345 33.949 369.056 33.949H364.096ZM364.096 31.159C363.827 31.159 363.59 31.066 363.383 30.88C363.197 30.6733 363.104 30.4357 363.104 30.167C363.104 29.8983 363.197 29.671 363.383 29.485C363.59 29.2783 363.827 29.175 364.096 29.175H369.056C369.345 29.175 369.583 29.2783 369.769 29.485C369.955 29.671 370.048 29.8983 370.048 30.167C370.048 30.4357 369.955 30.6733 369.769 30.88C369.583 31.066 369.345 31.159 369.056 31.159H364.096ZM351.758 33.949C351.489 33.949 351.262 33.856 351.076 33.67C350.89 33.4633 350.797 33.2257 350.797 32.957C350.797 32.6883 350.89 32.461 351.076 32.275C351.262 32.0683 351.489 31.965 351.758 31.965H356.749C357.018 31.965 357.245 32.0683 357.431 32.275C357.617 32.461 357.71 32.6883 357.71 32.957C357.71 33.2257 357.617 33.4633 357.431 33.67C357.245 33.856 357.018 33.949 356.749 33.949H351.758ZM351.758 31.159C351.489 31.159 351.262 31.066 351.076 30.88C350.89 30.6733 350.797 30.4357 350.797 30.167C350.797 29.8983 350.89 29.671 351.076 29.485C351.262 29.2783 351.489 29.175 351.758 29.175H356.749C357.018 29.175 357.245 29.2783 357.431 29.485C357.617 29.671 357.71 29.8983 357.71 30.167C357.71 30.4357 357.617 30.6733 357.431 30.88C357.245 31.066 357.018 31.159 356.749 31.159H351.758ZM353.246 38.816H358.671V37.514H355.943C354.992 37.514 354.331 37.5863 353.959 37.731C353.587 37.855 353.349 38.2167 353.246 38.816ZM355.943 42.412H358.671V41.11H353.246C353.349 41.6887 353.587 42.0503 353.959 42.195C354.331 42.3397 354.992 42.412 355.943 42.412ZM362.236 38.816H367.413C367.33 38.2167 367.103 37.855 366.731 37.731C366.359 37.5863 365.687 37.514 364.716 37.514H362.236V38.816ZM362.236 42.412H364.716C365.687 42.412 366.359 42.3397 366.731 42.195C367.103 42.0503 367.33 41.6887 367.413 41.11H362.236V42.412ZM401.141 49.79C400.645 49.79 400.221 49.6247 399.87 49.294C399.519 48.9633 399.343 48.5293 399.343 47.992V33.98H396.615C396.47 37.1007 395.871 39.87 394.817 42.288C393.784 44.6853 392.306 46.7107 390.384 48.364C389.95 48.736 389.454 48.953 388.896 49.015C388.359 49.0977 387.873 48.9427 387.439 48.55C387.046 48.1573 386.85 47.7027 386.85 47.186C386.871 46.69 387.108 46.2457 387.563 45.853C388.824 44.7577 389.847 43.5797 390.632 42.319C391.438 41.0377 392.027 39.6013 392.399 38.01C392.771 36.398 392.957 34.5483 392.957 32.461V28.462C392.957 27.1807 393.091 26.1577 393.36 25.393C393.649 24.6077 394.125 23.998 394.786 23.564C395.468 23.13 396.388 22.7993 397.545 22.572C398.454 22.4067 399.457 22.1897 400.552 21.921C401.647 21.6317 402.701 21.3423 403.714 21.053C404.251 20.8877 404.737 20.9083 405.171 21.115C405.626 21.3217 405.925 21.6317 406.07 22.045C406.256 22.541 406.256 23.0163 406.07 23.471C405.884 23.905 405.522 24.2047 404.985 24.37C403.993 24.6387 402.96 24.9073 401.885 25.176C400.81 25.424 399.818 25.6307 398.909 25.796C398.289 25.92 397.814 26.075 397.483 26.261C397.152 26.4263 396.925 26.6847 396.801 27.036C396.698 27.3667 396.646 27.8627 396.646 28.524V30.539H405.016C405.553 30.539 405.967 30.7147 406.256 31.066C406.566 31.3967 406.721 31.7997 406.721 32.275C406.721 32.7297 406.566 33.1327 406.256 33.484C405.967 33.8147 405.553 33.98 405.016 33.98H402.939V47.992C402.939 48.5293 402.763 48.9633 402.412 49.294C402.061 49.6247 401.637 49.79 401.141 49.79ZM378.046 49.449C377.612 49.2423 377.323 48.9117 377.178 48.457C377.033 48.0023 377.075 47.5683 377.302 47.155C378.129 45.6257 378.759 44.0137 379.193 42.319C379.627 40.6243 379.844 38.7333 379.844 36.646V33.081C379.844 31.6963 379.999 30.6217 380.309 29.857C380.64 29.0923 381.208 28.555 382.014 28.245C382.841 27.935 383.988 27.78 385.455 27.78C386.943 27.78 388.09 27.935 388.896 28.245C389.702 28.555 390.26 29.0923 390.57 29.857C390.88 30.6217 391.035 31.6963 391.035 33.081C391.035 34.4657 390.87 35.5403 390.539 36.305C390.229 37.049 389.671 37.576 388.865 37.886C388.059 38.1753 386.912 38.32 385.424 38.32H383.347C383.244 40.4487 382.954 42.3397 382.479 43.993C382.004 45.6257 381.384 47.155 380.619 48.581C380.371 49.0357 379.999 49.3457 379.503 49.511C379.007 49.6763 378.521 49.6557 378.046 49.449ZM379.72 25.641C379.245 25.641 378.862 25.486 378.573 25.176C378.284 24.866 378.139 24.494 378.139 24.06C378.139 23.6053 378.284 23.2333 378.573 22.944C378.862 22.634 379.245 22.479 379.72 22.479H390.446C390.921 22.479 391.304 22.634 391.593 22.944C391.882 23.2333 392.027 23.6053 392.027 24.06C392.027 24.494 391.882 24.866 391.593 25.176C391.304 25.486 390.921 25.641 390.446 25.641H379.72ZM383.378 35.127H385.455C386.323 35.127 386.881 35.0133 387.129 34.786C387.398 34.538 387.532 33.9697 387.532 33.081C387.532 32.1923 387.398 31.6343 387.129 31.407C386.881 31.159 386.323 31.035 385.455 31.035C384.587 31.035 384.019 31.1487 383.75 31.376C383.502 31.6033 383.378 32.1613 383.378 33.05V35.127Z" fill="#007440"/>
<path d="M242 142L242 220" stroke="#FAD764" stroke-width="4"/>
<rect x="264" y="122" width="192" height="49" rx="24.5" fill="#C6C6C6"/>
<rect x="264" y="122" width="192" height="49" rx="24.5" stroke="#007440"/>
<path d="M293.517 155.4C291.933 155.4 290.517 155.025 289.267 154.275C288.033 153.525 287.067 152.467 286.367 151.1C285.667 149.717 285.317 148.1 285.317 146.25C285.317 144.383 285.667 142.767 286.367 141.4C287.067 140.017 288.033 138.95 289.267 138.2C290.517 137.433 291.933 137.05 293.517 137.05C294.7 137.05 295.783 137.267 296.767 137.7C297.767 138.133 298.633 138.742 299.367 139.525C299.7 139.892 299.808 140.267 299.692 140.65C299.575 141.017 299.35 141.3 299.017 141.5L298.892 141.575C298.675 141.708 298.367 141.758 297.967 141.725C297.567 141.692 297.2 141.517 296.867 141.2C296.433 140.767 295.933 140.442 295.367 140.225C294.817 139.992 294.2 139.875 293.517 139.875C292.483 139.875 291.575 140.142 290.792 140.675C290.008 141.192 289.4 141.933 288.967 142.9C288.55 143.85 288.342 144.967 288.342 146.25C288.342 147.517 288.55 148.633 288.967 149.6C289.4 150.55 290.008 151.292 290.792 151.825C291.575 152.342 292.483 152.6 293.517 152.6C294.833 152.6 295.95 152.158 296.867 151.275C297.2 150.958 297.542 150.775 297.892 150.725C298.242 150.675 298.575 150.725 298.892 150.875L298.942 150.925C299.292 151.092 299.533 151.375 299.667 151.775C299.817 152.158 299.733 152.533 299.417 152.9C298.683 153.7 297.817 154.317 296.817 154.75C295.817 155.183 294.717 155.4 293.517 155.4ZM308.413 155.275C307.313 155.275 306.322 155.017 305.438 154.5C304.572 153.967 303.88 153.233 303.363 152.3C302.863 151.35 302.613 150.242 302.613 148.975C302.613 147.708 302.863 146.608 303.363 145.675C303.88 144.725 304.572 143.992 305.438 143.475C306.322 142.942 307.313 142.675 308.413 142.675C309.547 142.675 310.547 142.942 311.413 143.475C312.297 143.992 312.988 144.725 313.488 145.675C313.988 146.608 314.238 147.708 314.238 148.975C314.238 150.242 313.988 151.35 313.488 152.3C312.988 153.233 312.297 153.967 311.413 154.5C310.547 155.017 309.547 155.275 308.413 155.275ZM308.413 152.725C309.297 152.725 310.013 152.4 310.563 151.75C311.13 151.1 311.413 150.175 311.413 148.975C311.413 147.775 311.13 146.85 310.563 146.2C310.013 145.55 309.297 145.225 308.413 145.225C307.547 145.225 306.838 145.55 306.288 146.2C305.738 146.85 305.463 147.775 305.463 148.975C305.463 150.175 305.738 151.1 306.288 151.75C306.838 152.4 307.547 152.725 308.413 152.725ZM318.591 155C317.641 155 317.166 154.508 317.166 153.525V144.45C317.166 143.467 317.591 142.975 318.441 142.975C319.274 142.975 319.716 143.192 319.766 143.625L319.866 144.425C320.099 143.925 320.491 143.508 321.041 143.175C321.591 142.842 322.224 142.675 322.941 142.675C323.724 142.675 324.408 142.858 324.991 143.225C325.574 143.592 326.024 144.117 326.341 144.8C326.658 144.183 327.116 143.675 327.716 143.275C328.333 142.875 329.033 142.675 329.816 142.675C330.999 142.675 331.949 143.092 332.666 143.925C333.399 144.742 333.766 145.9 333.766 147.4V153.525C333.766 154.508 333.299 155 332.366 155C331.399 155 330.916 154.508 330.916 153.525V148.05C330.916 147.167 330.758 146.475 330.441 145.975C330.124 145.475 329.683 145.225 329.116 145.225C328.399 145.225 327.841 145.483 327.441 146C327.058 146.517 326.866 147.25 326.866 148.2V153.525C326.866 154.508 326.399 155 325.466 155C324.516 155 324.041 154.508 324.041 153.525V148.05C324.041 147.167 323.874 146.475 323.541 145.975C323.208 145.475 322.758 145.225 322.191 145.225C321.491 145.225 320.949 145.492 320.566 146.025C320.183 146.542 319.991 147.267 319.991 148.2V153.525C319.991 154.508 319.524 155 318.591 155ZM339.119 155C338.186 155 337.719 154.508 337.719 153.525V144.45C337.719 143.467 338.186 142.975 339.119 142.975C340.053 142.975 340.519 143.467 340.519 144.45V153.525C340.519 154.508 340.053 155 339.119 155ZM339.094 141C338.611 141 338.194 140.825 337.844 140.475C337.494 140.125 337.319 139.708 337.319 139.225C337.319 138.742 337.494 138.325 337.844 137.975C338.194 137.625 338.611 137.45 339.094 137.45C339.578 137.45 339.994 137.625 340.344 137.975C340.694 138.325 340.869 138.742 340.869 139.225C340.869 139.708 340.694 140.125 340.344 140.475C339.994 140.825 339.578 141 339.094 141ZM345.836 155C344.886 155 344.411 154.508 344.411 153.525V144.45C344.411 143.467 344.836 142.975 345.686 142.975C346.536 142.975 346.978 143.192 347.011 143.625L347.086 144.4C347.42 143.933 347.861 143.533 348.411 143.2C348.961 142.85 349.611 142.675 350.361 142.675C351.611 142.675 352.628 143.075 353.411 143.875C354.211 144.675 354.611 145.85 354.611 147.4V153.525C354.611 154.508 354.145 155 353.211 155C352.261 155 351.786 154.508 351.786 153.525V148.075C351.786 147.125 351.595 146.417 351.211 145.95C350.828 145.467 350.311 145.225 349.661 145.225C348.945 145.225 348.361 145.475 347.911 145.975C347.461 146.458 347.236 147.183 347.236 148.15V153.525C347.236 154.508 346.77 155 345.836 155ZM363.117 159.975C361.234 159.975 359.742 159.425 358.642 158.325C358.292 157.958 358.151 157.6 358.217 157.25C358.284 156.9 358.501 156.608 358.867 156.375C359.234 156.125 359.567 156.042 359.867 156.125C360.167 156.208 360.501 156.392 360.867 156.675C361.451 157.175 362.201 157.425 363.117 157.425C364.101 157.425 364.826 157.125 365.292 156.525C365.759 155.925 365.992 154.967 365.992 153.65V152.975C365.209 153.792 364.217 154.2 363.017 154.2C361.967 154.2 361.026 153.983 360.192 153.55C359.376 153.1 358.734 152.45 358.267 151.6C357.801 150.733 357.567 149.675 357.567 148.425C357.567 147.158 357.801 146.1 358.267 145.25C358.734 144.4 359.376 143.758 360.192 143.325C361.026 142.892 361.967 142.675 363.017 142.675C363.667 142.675 364.292 142.817 364.892 143.1C365.492 143.367 365.984 143.825 366.367 144.475V144.05C366.367 143.633 366.476 143.35 366.692 143.2C366.909 143.05 367.209 142.975 367.592 142.975C368.392 142.975 368.792 143.467 368.792 144.45V153.65C368.792 155.633 368.326 157.183 367.392 158.3C366.476 159.417 365.051 159.975 363.117 159.975ZM363.242 151.725C364.109 151.725 364.817 151.433 365.367 150.85C365.917 150.25 366.192 149.442 366.192 148.425C366.192 147.392 365.917 146.592 365.367 146.025C364.817 145.442 364.109 145.15 363.242 145.15C362.376 145.15 361.684 145.442 361.167 146.025C360.667 146.592 360.417 147.392 360.417 148.425C360.417 149.442 360.667 150.25 361.167 150.85C361.684 151.433 362.376 151.725 363.242 151.725ZM386.446 155.35C385.213 155.35 384.063 155.142 382.996 154.725C381.93 154.292 381.013 153.575 380.246 152.575C379.963 152.175 379.863 151.808 379.946 151.475C380.046 151.125 380.296 150.842 380.696 150.625C381.08 150.392 381.43 150.325 381.746 150.425C382.063 150.508 382.38 150.725 382.696 151.075C383.146 151.558 383.68 151.933 384.296 152.2C384.93 152.467 385.68 152.6 386.546 152.6C387.713 152.6 388.53 152.392 388.996 151.975C389.48 151.542 389.721 150.958 389.721 150.225C389.721 149.758 389.613 149.358 389.396 149.025C389.196 148.692 388.763 148.383 388.096 148.1C387.446 147.8 386.438 147.5 385.071 147.2C383.455 146.817 382.255 146.208 381.471 145.375C380.705 144.542 380.321 143.483 380.321 142.2C380.321 141.183 380.563 140.292 381.046 139.525C381.546 138.742 382.238 138.133 383.121 137.7C384.021 137.267 385.071 137.05 386.271 137.05C387.521 137.05 388.613 137.267 389.546 137.7C390.48 138.133 391.263 138.692 391.896 139.375C392.213 139.725 392.338 140.075 392.271 140.425C392.205 140.775 391.988 141.092 391.621 141.375C391.255 141.675 390.905 141.792 390.571 141.725C390.238 141.658 389.905 141.467 389.571 141.15C389.155 140.767 388.68 140.45 388.146 140.2C387.613 139.95 386.98 139.825 386.246 139.825C385.38 139.825 384.671 140.017 384.121 140.4C383.588 140.767 383.321 141.325 383.321 142.075C383.321 142.408 383.396 142.733 383.546 143.05C383.713 143.35 384.063 143.642 384.596 143.925C385.146 144.208 385.988 144.483 387.121 144.75C389.121 145.2 390.563 145.875 391.446 146.775C392.33 147.675 392.771 148.808 392.771 150.175C392.771 151.842 392.188 153.125 391.021 154.025C389.871 154.908 388.346 155.35 386.446 155.35ZM401.147 155.275C400.047 155.275 399.055 155.017 398.172 154.5C397.305 153.967 396.613 153.233 396.097 152.3C395.597 151.35 395.347 150.242 395.347 148.975C395.347 147.708 395.597 146.608 396.097 145.675C396.613 144.725 397.305 143.992 398.172 143.475C399.055 142.942 400.047 142.675 401.147 142.675C402.28 142.675 403.28 142.942 404.147 143.475C405.03 143.992 405.722 144.725 406.222 145.675C406.722 146.608 406.972 147.708 406.972 148.975C406.972 150.242 406.722 151.35 406.222 152.3C405.722 153.233 405.03 153.967 404.147 154.5C403.28 155.017 402.28 155.275 401.147 155.275ZM401.147 152.725C402.03 152.725 402.747 152.4 403.297 151.75C403.863 151.1 404.147 150.175 404.147 148.975C404.147 147.775 403.863 146.85 403.297 146.2C402.747 145.55 402.03 145.225 401.147 145.225C400.28 145.225 399.572 145.55 399.022 146.2C398.472 146.85 398.197 147.775 398.197 148.975C398.197 150.175 398.472 151.1 399.022 151.75C399.572 152.4 400.28 152.725 401.147 152.725ZM415.075 155.275C413.975 155.275 412.983 155.017 412.1 154.5C411.233 153.967 410.541 153.233 410.025 152.3C409.525 151.35 409.275 150.242 409.275 148.975C409.275 147.708 409.525 146.608 410.025 145.675C410.541 144.725 411.233 143.992 412.1 143.475C412.983 142.942 413.975 142.675 415.075 142.675C416.208 142.675 417.208 142.942 418.075 143.475C418.958 143.992 419.65 144.725 420.15 145.675C420.65 146.608 420.9 147.708 420.9 148.975C420.9 150.242 420.65 151.35 420.15 152.3C419.65 153.233 418.958 153.967 418.075 154.5C417.208 155.017 416.208 155.275 415.075 155.275ZM415.075 152.725C415.958 152.725 416.675 152.4 417.225 151.75C417.791 151.1 418.075 150.175 418.075 148.975C418.075 147.775 417.791 146.85 417.225 146.2C416.675 145.55 415.958 145.225 415.075 145.225C414.208 145.225 413.5 145.55 412.95 146.2C412.4 146.85 412.125 147.775 412.125 148.975C412.125 150.175 412.4 151.1 412.95 151.75C413.5 152.4 414.208 152.725 415.075 152.725ZM425.252 155C424.302 155 423.827 154.508 423.827 153.525V144.45C423.827 143.467 424.252 142.975 425.102 142.975C425.952 142.975 426.394 143.192 426.427 143.625L426.502 144.4C426.836 143.933 427.277 143.533 427.827 143.2C428.377 142.85 429.027 142.675 429.777 142.675C431.027 142.675 432.044 143.075 432.827 143.875C433.627 144.675 434.027 145.85 434.027 147.4V153.525C434.027 154.508 433.561 155 432.627 155C431.677 155 431.202 154.508 431.202 153.525V148.075C431.202 147.125 431.011 146.417 430.627 145.95C430.244 145.467 429.727 145.225 429.077 145.225C428.361 145.225 427.777 145.475 427.327 145.975C426.877 146.458 426.652 147.183 426.652 148.15V153.525C426.652 154.508 426.186 155 425.252 155Z" fill="white"/>
<defs>
<clipPath id="clip0_2001_2997">
<rect width="79.0268" height="42.5591" fill="white" transform="translate(46.4033 176) rotate(0.543567)"/>
</clipPath>
<clipPath id="clip1_2001_2997">
<rect width="79.0268" height="42.5591" fill="white" transform="translate(144.403 186) rotate(0.543567)"/>
</clipPath>
</defs>
</svg>
