<svg width="337" height="363" viewBox="0 0 337 363" fill="none" xmlns="http://www.w3.org/2000/svg">
<path d="M223.49 119.32C286.169 119.32 336.98 100.668 336.98 77.66C336.98 54.6518 286.169 36 223.49 36C160.811 36 110 54.6518 110 77.66C110 100.668 160.811 119.32 223.49 119.32Z" fill="url(#paint0_radial_2001_2998)"/>
<g clip-path="url(#clip0_2001_2998)">
<g style="mix-blend-mode:multiply" opacity="0.3">
<path d="M234.869 110.14L128.189 67.59L137.189 63.55L243.879 106.1L234.869 110.14Z" fill="#434343"/>
</g>
<g style="mix-blend-mode:multiply" opacity="0.3">
<path d="M249.809 104.6L143.119 62.05L152.119 58L258.809 100.55L249.809 104.6Z" fill="#434343"/>
</g>
<g style="mix-blend-mode:multiply" opacity="0.3">
<path d="M264.741 99.06L158.051 56.51L167.061 52.46L273.741 95.01L264.741 99.06Z" fill="#434343"/>
</g>
<g style="mix-blend-mode:multiply" opacity="0.3">
<path d="M279.67 93.51L172.99 50.97L181.99 46.92L288.68 89.47L279.67 93.51Z" fill="#434343"/>
</g>
<g style="mix-blend-mode:multiply" opacity="0.3">
<path d="M294.61 87.97L187.92 45.42L196.92 41.37L303.61 83.92L294.61 87.97Z" fill="#434343"/>
</g>
<g style="mix-blend-mode:multiply" opacity="0.3">
<path d="M309.54 82.43L202.85 39.88L211.86 35.83L318.54 78.38L309.54 82.43Z" fill="#434343"/>
</g>
<g clip-path="url(#clip1_2001_2998)">
<path d="M175.84 57.7V91.93" stroke="#C6C6C6" stroke-miterlimit="10"/>
<path d="M230.18 113.27V79.05" stroke="#C6C6C6" stroke-miterlimit="10"/>
<path d="M121.5 36.36V70.58" stroke="#C6C6C6" stroke-miterlimit="10"/>
<path d="M260.6 67.4399V101.66" stroke="#C6C6C6" stroke-miterlimit="10"/>
<path d="M291.02 55.84V90.06" stroke="#C6C6C6" stroke-miterlimit="10"/>
<path d="M175.84 57.7V91.93" stroke="#C6C6C6" stroke-miterlimit="10"/>
<path d="M206.26 46.1V80.32" stroke="#C6C6C6" stroke-miterlimit="10"/>
<path d="M236.68 68.72V34.49" stroke="#C6C6C6" stroke-miterlimit="10"/>
<path d="M321.449 44.23V78.45" stroke="#C6C6C6" stroke-miterlimit="10"/>
<path d="M267.109 22.89V57.11" stroke="#C6C6C6" stroke-miterlimit="10"/>
<path d="M151.92 24.75V58.98" stroke="#C6C6C6" stroke-miterlimit="10"/>
<path d="M182.34 13.15V47.37" stroke="#C6C6C6" stroke-miterlimit="10"/>
<path d="M212.77 1.54004V35.77" stroke="#C6C6C6" stroke-miterlimit="10"/>
<path d="M212.92 31.15L182.49 42.76" stroke="#C6C6C6" stroke-miterlimit="10"/>
<path d="M182.49 42.76L152.07 54.36" stroke="#C6C6C6" stroke-miterlimit="10"/>
<path d="M152.07 54.36L121.65 65.97" stroke="#C6C6C6" stroke-miterlimit="10"/>
<path d="M267.131 52.02L236.711 63.63" stroke="#C6C6C6" stroke-miterlimit="10"/>
<path d="M236.709 63.63L206.289 75.23" stroke="#C6C6C6" stroke-miterlimit="10"/>
<path d="M206.289 75.23L175.869 86.84" stroke="#C6C6C6" stroke-miterlimit="10"/>
<path d="M321.35 72.89L290.93 84.49" stroke="#C6C6C6" stroke-miterlimit="10"/>
<path d="M290.93 84.49L260.51 96.1" stroke="#C6C6C6" stroke-miterlimit="10"/>
<path d="M260.51 96.1L230.09 107.71" stroke="#C6C6C6" stroke-miterlimit="10"/>
<path d="M212.92 2.5L182.49 14.1" stroke="#C6C6C6" stroke-miterlimit="10"/>
<path d="M182.49 14.1L152.07 25.71" stroke="#C6C6C6" stroke-miterlimit="10"/>
<path d="M152.07 25.71L121.65 37.31" stroke="#C6C6C6" stroke-miterlimit="10"/>
<path d="M267.131 23.36L236.711 34.97" stroke="#C6C6C6" stroke-miterlimit="10"/>
<path d="M236.709 34.97L206.289 46.58" stroke="#C6C6C6" stroke-miterlimit="10"/>
<path d="M206.289 46.58L175.869 58.18" stroke="#C6C6C6" stroke-miterlimit="10"/>
<path d="M321.35 44.23L290.93 55.84" stroke="#C6C6C6" stroke-miterlimit="10"/>
<path d="M290.93 55.84L260.51 67.44" stroke="#C6C6C6" stroke-miterlimit="10"/>
<path d="M260.51 67.4399L230.09 79.0499" stroke="#C6C6C6" stroke-miterlimit="10"/>
<path d="M121.5 65.02L230.18 107.71" stroke="#C6C6C6" stroke-miterlimit="10"/>
<path d="M151.83 53.41L260.51 96.1" stroke="#C6C6C6" stroke-miterlimit="10"/>
<path d="M182.16 41.8101L290.84 84.4901" stroke="#C6C6C6" stroke-miterlimit="10"/>
<path d="M212.49 30.2L321.17 72.8899" stroke="#C6C6C6" stroke-miterlimit="10"/>
<path d="M121.5 36.36L230.18 79.05" stroke="#C6C6C6" stroke-miterlimit="10"/>
<path d="M151.92 24.75L260.6 67.44" stroke="#C6C6C6" stroke-miterlimit="10"/>
<path d="M182.34 13.15L291.02 55.84" stroke="#C6C6C6" stroke-miterlimit="10"/>
<path d="M212.77 1.54004L321.45 44.23" stroke="#C6C6C6" stroke-miterlimit="10"/>
<path d="M255.091 27.59L262.241 20.54L209.711 0L202.551 7.05L255.091 27.59Z" fill="#F0F0F0"/>
<path d="M235.25 18.5301L240.49 13.2601L237.97 12.2801L232.73 17.5501L235.25 18.5301ZM243.56 21.7701L248.8 16.5001L246.28 15.5201L241.04 20.7901L243.56 21.7701ZM251.86 25.0101L257.1 19.7401L254.58 18.7601L249.34 24.0301L251.86 25.0101ZM254.39 18.6801L252.74 18.0401L251.3 18.2801L247.2 22.4001L247.5 23.3201L249.15 23.9601L254.39 18.6901V18.6801ZM249 16.5801L243.76 21.8501L245.41 22.4901L246.85 22.2501L250.95 18.1301L250.65 17.2101L249 16.5701V16.5801ZM257.3 19.8201L252.06 25.0901L253.71 25.7301L255.15 25.4901L259.25 21.3701L258.95 20.4501L257.3 19.8101V19.8201ZM246.08 15.4401L244.43 14.8001L242.99 15.0401L238.89 19.1601L239.19 20.0801L240.84 20.7201L246.08 15.4501V15.4401ZM237.78 12.2001L236.13 11.5601L234.69 11.8001L230.59 15.9201L230.89 16.8401L232.54 17.4801L237.78 12.2101V12.2001ZM240.69 13.3401L235.45 18.6101L237.1 19.2501L238.54 19.0101L242.64 14.8901L242.34 13.9701L240.69 13.3301V13.3401Z" fill="#036EA3" stroke="white" stroke-width="0.1" stroke-miterlimit="10"/>
<path d="M210.221 8.76004L215.461 3.49004L212.941 2.51004L207.701 7.78004L210.221 8.76004ZM218.521 12L223.761 6.73004L221.241 5.75004L216.001 11.02L218.521 12ZM226.831 15.24L232.071 9.97004L229.551 8.99004L224.311 14.26L226.831 15.24ZM229.351 8.91004L227.701 8.27004L226.261 8.51004L222.161 12.63L222.461 13.55L224.111 14.19L229.351 8.92004V8.91004ZM223.961 6.81004L218.721 12.08L220.371 12.72L221.811 12.48L225.911 8.36004L225.611 7.44004L223.961 6.80004V6.81004ZM232.261 10.05L227.021 15.32L228.671 15.96L230.111 15.72L234.211 11.6L233.911 10.68L232.261 10.04V10.05ZM221.041 5.67004L219.391 5.03004L217.951 5.27004L213.851 9.39004L214.151 10.31L215.801 10.95L221.041 5.68004V5.67004ZM212.741 2.43004L211.091 1.79004L209.651 2.03004L205.551 6.15004L205.851 7.07004L207.501 7.71004L212.741 2.44004V2.43004ZM215.651 3.57004L210.411 8.84004L212.061 9.48004L213.501 9.24004L217.601 5.12004L217.301 4.20004L215.651 3.56004V3.57004Z" fill="#036EA3" stroke="white" stroke-width="0.1" stroke-miterlimit="10"/>
<path d="M240.001 33.2L247.151 26.15L194.621 5.60999L187.471 12.66L240.001 33.2Z" fill="#F0F0F0"/>
<path d="M220.17 24.14L225.41 18.87L222.89 17.89L217.65 23.16L220.17 24.14ZM228.47 27.38L233.71 22.11L231.19 21.13L225.95 26.4L228.47 27.38ZM236.78 30.62L242.02 25.35L239.5 24.37L234.26 29.64L236.78 30.62ZM239.3 24.29L237.65 23.65L236.21 23.89L232.11 28.01L232.41 28.93L234.06 29.57L239.3 24.3V24.29ZM233.91 22.18L228.67 27.45L230.32 28.09L231.76 27.85L235.86 23.73L235.56 22.81L233.91 22.17V22.18ZM242.21 25.42L236.97 30.69L238.62 31.33L240.06 31.09L244.16 26.97L243.86 26.05L242.21 25.41V25.42ZM230.99 21.05L229.34 20.41L227.9 20.65L223.8 24.77L224.1 25.69L225.75 26.33L230.99 21.06V21.05ZM222.69 17.81L221.04 17.17L219.6 17.41L215.5 21.53L215.8 22.45L217.45 23.09L222.69 17.82V17.81ZM225.6 18.94L220.36 24.21L222.01 24.85L223.45 24.61L227.55 20.49L227.25 19.57L225.6 18.93V18.94Z" fill="#036EA3" stroke="white" stroke-width="0.1" stroke-miterlimit="10"/>
<path d="M195.131 14.37L200.371 9.10002L197.851 8.12002L192.611 13.39L195.131 14.37ZM203.431 17.61L208.671 12.34L206.151 11.36L200.911 16.63L203.431 17.61ZM211.741 20.85L216.981 15.58L214.461 14.6L209.221 19.87L211.741 20.85ZM214.261 14.52L212.611 13.88L211.171 14.12L207.071 18.24L207.371 19.16L209.021 19.8L214.261 14.53V14.52ZM208.871 12.42L203.631 17.69L205.281 18.33L206.721 18.09L210.821 13.97L210.521 13.05L208.871 12.41V12.42ZM217.171 15.66L211.931 20.93L213.581 21.57L215.021 21.33L219.121 17.21L218.821 16.29L217.171 15.65V15.66ZM205.951 11.28L204.301 10.64L202.861 10.88L198.761 15L199.061 15.92L200.711 16.56L205.951 11.29V11.28ZM197.651 8.04002L196.001 7.40002L194.561 7.64002L190.461 11.76L190.761 12.68L192.411 13.32L197.651 8.05002V8.04002ZM200.561 9.18002L195.321 14.45L196.971 15.09L198.411 14.85L202.511 10.73L202.211 9.81002L200.561 9.17002V9.18002Z" fill="#036EA3" stroke="white" stroke-width="0.1" stroke-miterlimit="10"/>
<path d="M309.51 48.87L316.67 41.82L264.14 21.28L256.98 28.33L309.51 48.87Z" fill="#F0F0F0"/>
<path d="M289.68 39.81L294.92 34.54L292.4 33.56L287.16 38.83L289.68 39.81ZM297.99 43.05L303.23 37.78L300.71 36.8L295.47 42.07L297.99 43.05ZM306.29 46.29L311.53 41.02L309.01 40.04L303.77 45.31L306.29 46.29ZM308.81 39.96L307.16 39.32L305.72 39.56L301.62 43.68L301.92 44.6L303.57 45.24L308.81 39.97V39.96ZM303.42 37.86L298.18 43.13L299.83 43.77L301.27 43.53L305.37 39.41L305.07 38.49L303.42 37.85V37.86ZM311.73 41.1L306.49 46.37L308.14 47.01L309.58 46.77L313.68 42.65L313.38 41.73L311.73 41.09V41.1ZM300.51 36.72L298.86 36.08L297.42 36.32L293.32 40.44L293.62 41.36L295.27 42L300.51 36.73V36.72ZM292.2 33.48L290.55 32.84L289.11 33.08L285.01 37.2L285.31 38.12L286.96 38.76L292.2 33.49V33.48ZM295.12 34.62L289.88 39.89L291.53 40.53L292.97 40.29L297.07 36.17L296.77 35.25L295.12 34.61V34.62Z" fill="#036EA3" stroke="white" stroke-width="0.1" stroke-miterlimit="10"/>
<path d="M264.641 30.0499L269.881 24.7799L267.361 23.7999L262.121 29.0699L264.641 30.0499ZM272.951 33.2899L278.191 28.0199L275.671 27.0399L270.431 32.3099L272.951 33.2899ZM281.251 36.5199L286.491 31.2499L283.971 30.2699L278.731 35.5399L281.251 36.5199ZM283.771 30.1899L282.121 29.5499L280.681 29.7899L276.581 33.9099L276.881 34.8299L278.531 35.4699L283.771 30.1999V30.1899ZM278.381 28.0899L273.141 33.3599L274.791 33.9999L276.231 33.7599L280.331 29.6399L280.031 28.7199L278.381 28.0799V28.0899ZM286.691 31.3299L281.451 36.5999L283.101 37.2399L284.541 36.9999L288.641 32.8799L288.341 31.9599L286.691 31.3199V31.3299ZM275.471 26.9499L273.821 26.3099L272.381 26.5499L268.281 30.6699L268.581 31.5899L270.231 32.2299L275.471 26.9599V26.9499ZM267.161 23.7099L265.511 23.0699L264.071 23.3099L259.971 27.4299L260.271 28.3499L261.921 28.9899L267.161 23.7199V23.7099ZM270.081 24.8499L264.841 30.1199L266.491 30.7599L267.931 30.5199L272.031 26.3999L271.731 25.4799L270.081 24.8399V24.8499Z" fill="#036EA3" stroke="white" stroke-width="0.1" stroke-miterlimit="10"/>
<path d="M294.421 54.48L301.581 47.43L249.051 26.89L241.891 33.94L294.421 54.48Z" fill="#F0F0F0"/>
<path d="M274.59 45.4199L279.83 40.15L277.31 39.1699L272.07 44.4399L274.59 45.4199ZM282.9 48.66L288.14 43.3899L285.62 42.41L280.38 47.68L282.9 48.66ZM291.2 51.9L296.44 46.63L293.92 45.65L288.68 50.9199L291.2 51.9ZM293.72 45.57L292.07 44.93L290.63 45.1699L286.53 49.29L286.83 50.2099L288.48 50.8499L293.72 45.58V45.57ZM288.33 43.47L283.09 48.74L284.74 49.38L286.18 49.1399L290.28 45.02L289.98 44.0999L288.33 43.4599V43.47ZM296.64 46.7099L291.4 51.9799L293.05 52.6199L294.49 52.38L298.59 48.2599L298.29 47.34L296.64 46.7V46.7099ZM285.42 42.33L283.77 41.6899L282.33 41.93L278.23 46.0499L278.53 46.97L280.18 47.61L285.42 42.34V42.33ZM277.11 39.09L275.46 38.45L274.02 38.6899L269.92 42.81L270.22 43.7299L271.87 44.3699L277.11 39.0999V39.09ZM280.03 40.2299L274.79 45.5L276.44 46.1399L277.88 45.9L281.98 41.7799L281.68 40.86L280.03 40.22V40.2299Z" fill="#036EA3" stroke="white" stroke-width="0.1" stroke-miterlimit="10"/>
<path d="M249.551 35.6501L254.791 30.3801L252.271 29.4001L247.031 34.6701L249.551 35.6501ZM257.861 38.8901L263.101 33.6201L260.581 32.6401L255.341 37.9101L257.861 38.8901ZM266.161 42.1301L271.401 36.8601L268.881 35.8801L263.641 41.1501L266.161 42.1301ZM268.681 35.8001L267.031 35.1601L265.591 35.4001L261.491 39.5201L261.791 40.4401L263.441 41.0801L268.681 35.8101V35.8001ZM263.291 33.7001L258.051 38.9701L259.701 39.6101L261.141 39.3701L265.241 35.2501L264.941 34.3301L263.291 33.6901V33.7001ZM271.601 36.9401L266.361 42.2101L268.011 42.8501L269.451 42.6101L273.551 38.4901L273.251 37.5701L271.601 36.9301V36.9401ZM260.381 32.5601L258.731 31.9201L257.291 32.1601L253.191 36.2801L253.491 37.2001L255.141 37.8401L260.381 32.5701V32.5601ZM252.071 29.3201L250.421 28.6801L248.981 28.9201L244.881 33.0401L245.181 33.9601L246.831 34.6001L252.071 29.3301V29.3201ZM254.991 30.4601L249.751 35.7301L251.401 36.3701L252.841 36.1301L256.941 32.0101L256.641 31.0901L254.991 30.4501V30.4601Z" fill="#036EA3" stroke="white" stroke-width="0.1" stroke-miterlimit="10"/>
<path d="M223.94 38.8901L231.09 31.8401L178.56 11.3101L171.41 18.3601L223.94 38.8901Z" fill="#F0F0F0"/>
<path d="M204.109 29.84L209.349 24.57L206.829 23.59L201.589 28.86L204.109 29.84ZM212.409 33.08L217.649 27.81L215.129 26.83L209.889 32.1L212.409 33.08ZM220.719 36.32L225.959 31.05L223.439 30.07L218.199 35.34L220.719 36.32ZM223.239 29.98L221.589 29.34L220.149 29.58L216.049 33.7L216.349 34.62L217.999 35.26L223.239 29.99V29.98ZM217.849 27.88L212.609 33.15L214.259 33.79L215.699 33.55L219.799 29.43L219.499 28.51L217.849 27.87V27.88ZM226.149 31.12L220.909 36.39L222.559 37.03L223.999 36.79L228.099 32.67L227.799 31.75L226.149 31.11V31.12ZM214.929 26.74L213.279 26.1L211.839 26.34L207.739 30.46L208.039 31.38L209.689 32.02L214.929 26.75V26.74ZM206.629 23.5L204.979 22.86L203.539 23.1L199.439 27.22L199.739 28.14L201.389 28.78L206.629 23.51V23.5ZM209.539 24.64L204.299 29.91L205.949 30.55L207.389 30.31L211.489 26.19L211.189 25.27L209.539 24.63V24.64Z" fill="#036EA3" stroke="white" stroke-width="0.1" stroke-miterlimit="10"/>
<path d="M179.07 20.07L184.31 14.8L181.79 13.82L176.55 19.09L179.07 20.07ZM187.37 23.31L192.61 18.04L190.09 17.06L184.85 22.33L187.37 23.31ZM195.68 26.55L200.92 21.28L198.4 20.3L193.16 25.57L195.68 26.55ZM198.2 20.22L196.55 19.58L195.11 19.82L191.01 23.94L191.31 24.86L192.96 25.5L198.2 20.23V20.22ZM192.81 18.12L187.57 23.39L189.22 24.03L190.66 23.79L194.76 19.67L194.46 18.75L192.81 18.11V18.12ZM201.11 21.35L195.87 26.62L197.52 27.26L198.96 27.02L203.06 22.9L202.76 21.98L201.11 21.34V21.35ZM189.89 16.98L188.24 16.34L186.8 16.58L182.7 20.7L183 21.62L184.65 22.26L189.89 16.99V16.98ZM181.59 13.74L179.94 13.1L178.5 13.34L174.4 17.46L174.7 18.38L176.35 19.02L181.59 13.75V13.74ZM184.5 14.88L179.26 20.15L180.91 20.79L182.35 20.55L186.45 16.43L186.15 15.51L184.5 14.87V14.88Z" fill="#036EA3" stroke="white" stroke-width="0.1" stroke-miterlimit="10"/>
<path d="M208.85 44.5L216.01 37.45L163.47 16.92L156.32 23.97L208.85 44.5Z" fill="#F0F0F0"/>
<path d="M189.02 35.44L194.26 30.17L191.74 29.19L186.5 34.46L189.02 35.44ZM197.32 38.68L202.56 33.41L200.04 32.43L194.8 37.7L197.32 38.68ZM205.63 41.92L210.87 36.65L208.35 35.67L203.11 40.94L205.63 41.92ZM208.15 35.59L206.5 34.95L205.06 35.19L200.96 39.31L201.26 40.23L202.91 40.87L208.15 35.6V35.59ZM202.76 33.49L197.52 38.76L199.17 39.4L200.61 39.16L204.71 35.04L204.41 34.12L202.76 33.48V33.49ZM211.06 36.73L205.82 42L207.47 42.64L208.91 42.4L213.01 38.28L212.71 37.36L211.06 36.72V36.73ZM199.84 32.35L198.19 31.71L196.75 31.95L192.65 36.07L192.95 36.99L194.6 37.63L199.84 32.36V32.35ZM191.54 29.11L189.89 28.47L188.45 28.71L184.35 32.83L184.65 33.75L186.3 34.39L191.54 29.12V29.11ZM194.45 30.25L189.21 35.52L190.86 36.16L192.3 35.92L196.4 31.8L196.1 30.88L194.45 30.24V30.25Z" fill="#036EA3" stroke="white" stroke-width="0.1" stroke-miterlimit="10"/>
<path d="M163.981 25.68L169.221 20.41L166.701 19.43L161.461 24.7L163.981 25.68ZM172.281 28.92L177.521 23.65L175.001 22.67L169.761 27.94L172.281 28.92ZM180.591 32.16L185.831 26.89L183.311 25.91L178.071 31.18L180.591 32.16ZM183.111 25.83L181.461 25.19L180.021 25.43L175.921 29.55L176.221 30.47L177.871 31.11L183.111 25.84V25.83ZM177.721 23.72L172.481 28.99L174.131 29.63L175.571 29.39L179.671 25.27L179.371 24.35L177.721 23.71V23.72ZM186.031 26.96L180.791 32.23L182.441 32.87L183.881 32.63L187.981 28.51L187.681 27.59L186.031 26.95V26.96ZM174.811 22.59L173.161 21.95L171.721 22.19L167.621 26.31L167.921 27.23L169.571 27.87L174.811 22.6V22.59ZM166.501 19.35L164.851 18.71L163.411 18.95L159.311 23.07L159.611 23.99L161.261 24.63L166.501 19.36V19.35ZM169.421 20.48L164.181 25.75L165.831 26.39L167.271 26.15L171.371 22.03L171.071 21.11L169.421 20.47V20.48Z" fill="#036EA3" stroke="white" stroke-width="0.1" stroke-miterlimit="10"/>
<path d="M278.36 60.18L285.52 53.13L232.99 32.59L225.83 39.64L278.36 60.18Z" fill="#F0F0F0"/>
<path d="M258.529 51.12L263.769 45.85L261.249 44.87L256.009 50.14L258.529 51.12ZM266.839 54.36L272.079 49.09L269.559 48.11L264.319 53.38L266.839 54.36ZM275.139 57.6L280.379 52.33L277.859 51.35L272.619 56.62L275.139 57.6ZM277.659 51.27L276.009 50.63L274.569 50.87L270.469 54.99L270.769 55.91L272.419 56.55L277.659 51.28V51.27ZM272.269 49.16L267.029 54.43L268.679 55.07L270.119 54.83L274.219 50.71L273.919 49.79L272.269 49.15V49.16ZM280.579 52.4L275.339 57.67L276.989 58.31L278.429 58.07L282.529 53.95L282.229 53.03L280.579 52.39V52.4ZM269.359 48.03L267.709 47.39L266.269 47.63L262.169 51.75L262.469 52.67L264.119 53.31L269.359 48.04V48.03ZM261.049 44.79L259.399 44.15L257.959 44.39L253.859 48.51L254.159 49.43L255.809 50.07L261.049 44.8V44.79ZM263.969 45.92L258.729 51.19L260.379 51.83L261.819 51.59L265.919 47.47L265.619 46.55L263.969 45.91V45.92Z" fill="#036EA3" stroke="white" stroke-width="0.1" stroke-miterlimit="10"/>
<path d="M233.49 41.35L238.73 36.08L236.21 35.1L230.97 40.37L233.49 41.35ZM241.8 44.59L247.04 39.32L244.52 38.34L239.28 43.61L241.8 44.59ZM250.1 47.83L255.34 42.56L252.82 41.58L247.58 46.85L250.1 47.83ZM252.62 41.5L250.97 40.86L249.53 41.1L245.43 45.22L245.73 46.14L247.38 46.78L252.62 41.51V41.5ZM247.23 39.4L241.99 44.67L243.64 45.31L245.08 45.07L249.18 40.95L248.88 40.03L247.23 39.39V39.4ZM255.54 42.64L250.3 47.91L251.95 48.55L253.39 48.31L257.49 44.19L257.19 43.27L255.54 42.63V42.64ZM244.32 38.26L242.67 37.62L241.23 37.86L237.13 41.98L237.43 42.9L239.08 43.54L244.32 38.27V38.26ZM236.01 35.02L234.36 34.38L232.92 34.62L228.82 38.74L229.12 39.66L230.77 40.3L236.01 35.03V35.02ZM238.93 36.16L233.69 41.43L235.34 42.07L236.78 41.83L240.88 37.71L240.58 36.79L238.93 36.15V36.16Z" fill="#036EA3" stroke="white" stroke-width="0.1" stroke-miterlimit="10"/>
<path d="M263.28 65.79L270.43 58.74L217.9 38.2L210.74 45.25L263.28 65.79Z" fill="#F0F0F0"/>
<path d="M243.439 56.73L248.679 51.46L246.159 50.48L240.919 55.75L243.439 56.73ZM251.749 59.97L256.989 54.7L254.469 53.72L249.229 58.99L251.749 59.97ZM260.049 63.21L265.289 57.94L262.769 56.96L257.529 62.23L260.049 63.21ZM262.579 56.88L260.929 56.24L259.489 56.48L255.389 60.6L255.689 61.52L257.339 62.16L262.579 56.89V56.88ZM257.189 54.77L251.949 60.04L253.599 60.68L255.039 60.44L259.139 56.32L258.839 55.4L257.189 54.76V54.77ZM265.489 58.01L260.249 63.28L261.899 63.92L263.339 63.68L267.439 59.56L267.139 58.64L265.489 58V58.01ZM254.269 53.64L252.619 53L251.179 53.24L247.079 57.36L247.379 58.28L249.029 58.92L254.269 53.65V53.64ZM245.969 50.4L244.319 49.76L242.879 50L238.779 54.12L239.079 55.04L240.729 55.68L245.969 50.41V50.4ZM248.879 51.53L243.639 56.8L245.289 57.44L246.729 57.2L250.829 53.08L250.529 52.16L248.879 51.52V51.53Z" fill="#036EA3" stroke="white" stroke-width="0.1" stroke-miterlimit="10"/>
<path d="M218.4 46.96L223.64 41.69L221.12 40.71L215.88 45.98L218.4 46.96ZM226.71 50.2L231.95 44.93L229.43 43.95L224.19 49.22L226.71 50.2ZM235.01 53.44L240.25 48.17L237.73 47.19L232.49 52.46L235.01 53.44ZM237.54 47.11L235.89 46.47L234.45 46.71L230.35 50.83L230.65 51.75L232.3 52.39L237.54 47.12V47.11ZM232.15 45.01L226.91 50.28L228.56 50.92L230 50.68L234.1 46.56L233.8 45.64L232.15 45V45.01ZM240.45 48.25L235.21 53.52L236.86 54.16L238.3 53.92L242.4 49.8L242.1 48.88L240.45 48.24V48.25ZM229.23 43.87L227.58 43.23L226.14 43.47L222.04 47.59L222.34 48.51L223.99 49.15L229.23 43.88V43.87ZM220.93 40.63L219.28 39.99L217.84 40.23L213.74 44.35L214.04 45.27L215.69 45.91L220.93 40.64V40.63ZM223.84 41.77L218.6 47.04L220.25 47.68L221.69 47.44L225.79 43.32L225.49 42.4L223.84 41.76V41.77Z" fill="#036EA3" stroke="white" stroke-width="0.1" stroke-miterlimit="10"/>
<path d="M192.79 50.2L199.95 43.15L147.42 22.61L140.26 29.66L192.79 50.2Z" fill="#F0F0F0"/>
<path d="M172.959 41.14L178.199 35.87L175.679 34.89L170.439 40.16L172.959 41.14ZM181.259 44.38L186.499 39.11L183.979 38.13L178.739 43.4L181.259 44.38ZM189.569 47.62L194.809 42.35L192.289 41.37L187.049 46.64L189.569 47.62ZM192.089 41.29L190.439 40.65L188.999 40.89L184.899 45.01L185.199 45.93L186.849 46.57L192.089 41.3V41.29ZM186.699 39.19L181.459 44.46L183.109 45.1L184.549 44.86L188.649 40.74L188.349 39.82L186.699 39.18V39.19ZM194.999 42.43L189.759 47.7L191.409 48.34L192.849 48.1L196.949 43.98L196.649 43.06L194.999 42.42V42.43ZM183.779 38.05L182.129 37.41L180.689 37.65L176.589 41.77L176.889 42.69L178.539 43.33L183.779 38.06V38.05ZM175.479 34.81L173.829 34.17L172.389 34.41L168.289 38.53L168.589 39.45L170.239 40.09L175.479 34.82V34.81ZM178.389 35.95L173.149 41.22L174.799 41.86L176.239 41.62L180.339 37.5L180.039 36.58L178.389 35.94V35.95Z" fill="#036EA3" stroke="white" stroke-width="0.1" stroke-miterlimit="10"/>
<path d="M147.92 31.38L153.16 26.11L150.64 25.13L145.4 30.4L147.92 31.38ZM156.22 34.62L161.46 29.35L158.94 28.37L153.7 33.64L156.22 34.62ZM164.53 37.86L169.77 32.59L167.25 31.61L162.01 36.88L164.53 37.86ZM167.05 31.52L165.4 30.88L163.96 31.12L159.86 35.24L160.16 36.16L161.81 36.8L167.05 31.53V31.52ZM161.66 29.42L156.42 34.69L158.07 35.33L159.51 35.09L163.61 30.97L163.31 30.05L161.66 29.41V29.42ZM169.97 32.66L164.73 37.93L166.38 38.57L167.82 38.33L171.92 34.21L171.62 33.29L169.97 32.65V32.66ZM158.75 28.28L157.1 27.64L155.66 27.88L151.56 32L151.86 32.92L153.51 33.56L158.75 28.29V28.28ZM150.44 25.04L148.79 24.4L147.35 24.64L143.25 28.76L143.55 29.68L145.2 30.32L150.44 25.05V25.04ZM153.36 26.18L148.12 31.45L149.77 32.09L151.21 31.85L155.31 27.73L155.01 26.81L153.36 26.17V26.18Z" fill="#036EA3" stroke="white" stroke-width="0.1" stroke-miterlimit="10"/>
<path d="M177.7 55.81L184.86 48.76L132.33 28.22L125.17 35.27L177.7 55.81Z" fill="#F0F0F0"/>
<path d="M157.869 46.75L163.109 41.48L160.589 40.5L155.349 45.77L157.869 46.75ZM166.179 49.99L171.419 44.72L168.899 43.74L163.659 49.01L166.179 49.99ZM174.479 53.23L179.719 47.96L177.199 46.98L171.959 52.25L174.479 53.23ZM176.999 46.9L175.349 46.26L173.909 46.5L169.809 50.62L170.109 51.54L171.759 52.18L176.999 46.91V46.9ZM171.609 44.8L166.369 50.07L168.019 50.71L169.459 50.47L173.559 46.35L173.259 45.43L171.609 44.79V44.8ZM179.919 48.04L174.679 53.31L176.329 53.95L177.769 53.71L181.869 49.59L181.569 48.67L179.919 48.03V48.04ZM168.699 43.66L167.049 43.02L165.609 43.26L161.509 47.38L161.809 48.3L163.459 48.94L168.699 43.67V43.66ZM160.389 40.42L158.739 39.78L157.299 40.02L153.199 44.14L153.499 45.06L155.149 45.7L160.389 40.43V40.42ZM163.309 41.56L158.069 46.83L159.719 47.47L161.159 47.23L165.259 43.11L164.959 42.19L163.309 41.55V41.56Z" fill="#036EA3" stroke="white" stroke-width="0.1" stroke-miterlimit="10"/>
<path d="M132.83 36.98L138.07 31.71L135.55 30.73L130.31 36L132.83 36.98ZM141.14 40.22L146.38 34.95L143.86 33.97L138.62 39.24L141.14 40.22ZM149.44 43.46L154.68 38.19L152.16 37.21L146.92 42.48L149.44 43.46ZM151.96 37.13L150.31 36.49L148.87 36.73L144.77 40.85L145.07 41.77L146.72 42.41L151.96 37.14V37.13ZM146.57 35.03L141.33 40.3L142.98 40.94L144.42 40.7L148.52 36.58L148.22 35.66L146.57 35.02V35.03ZM154.88 38.27L149.64 43.54L151.29 44.18L152.73 43.94L156.83 39.82L156.53 38.9L154.88 38.26V38.27ZM143.66 33.89L142.01 33.25L140.57 33.49L136.47 37.61L136.77 38.53L138.42 39.17L143.66 33.9V33.89ZM135.35 30.65L133.7 30.01L132.26 30.25L128.16 34.37L128.46 35.29L130.11 35.93L135.35 30.66V30.65ZM138.27 31.79L133.03 37.06L134.68 37.7L136.12 37.46L140.22 33.34L139.92 32.42L138.27 31.78V31.79Z" fill="#036EA3" stroke="white" stroke-width="0.1" stroke-miterlimit="10"/>
<path d="M247.22 71.48L254.37 64.43L201.84 43.9L194.68 50.95L247.22 71.48Z" fill="#F0F0F0"/>
<path d="M227.381 62.4199L232.621 57.15L230.101 56.1699L224.861 61.4399L227.381 62.4199ZM235.691 65.66L240.931 60.3899L238.411 59.41L233.171 64.68L235.691 65.66ZM243.991 68.9L249.231 63.63L246.711 62.65L241.471 67.9199L243.991 68.9ZM246.521 62.57L244.871 61.93L243.431 62.1699L239.331 66.29L239.631 67.2099L241.281 67.8499L246.521 62.58V62.57ZM241.131 60.47L235.891 65.7399L237.541 66.3799L238.981 66.1399L243.081 62.02L242.781 61.0999L241.131 60.4599V60.47ZM249.431 63.7099L244.191 68.98L245.841 69.62L247.281 69.3799L251.381 65.26L251.081 64.3399L249.431 63.7V63.7099ZM238.211 59.33L236.561 58.6899L235.121 58.93L231.021 63.0499L231.321 63.97L232.971 64.61L238.211 59.34V59.33ZM229.911 56.09L228.261 55.45L226.821 55.6899L222.721 59.81L223.021 60.7299L224.671 61.3699L229.911 56.0999V56.09ZM232.821 57.2299L227.581 62.5L229.231 63.1399L230.671 62.9L234.771 58.7799L234.471 57.86L232.821 57.22V57.2299Z" fill="#036EA3" stroke="white" stroke-width="0.1" stroke-miterlimit="10"/>
<path d="M202.35 52.6599L207.59 47.3899L205.07 46.4099L199.83 51.6799L202.35 52.6599ZM210.65 55.8999L215.89 50.6299L213.37 49.6499L208.13 54.9199L210.65 55.8999ZM218.96 59.1399L224.2 53.8699L221.68 52.8899L216.44 58.1599L218.96 59.1399ZM221.48 52.8099L219.83 52.1699L218.39 52.4099L214.29 56.5299L214.59 57.4499L216.24 58.0899L221.48 52.8199V52.8099ZM216.09 50.6999L210.85 55.9699L212.5 56.6099L213.94 56.3699L218.04 52.2499L217.74 51.3299L216.09 50.6899V50.6999ZM224.39 53.9399L219.15 59.2099L220.8 59.8499L222.24 59.6099L226.34 55.4899L226.04 54.5699L224.39 53.9299V53.9399ZM213.17 49.5699L211.52 48.9299L210.08 49.1699L205.98 53.2899L206.28 54.2099L207.93 54.8499L213.17 49.5799V49.5699ZM204.87 46.3299L203.22 45.6899L201.78 45.9299L197.68 50.0499L197.98 50.9699L199.63 51.6099L204.87 46.3399V46.3299ZM207.78 47.4599L202.54 52.7299L204.19 53.3699L205.63 53.1299L209.73 49.0099L209.43 48.0899L207.78 47.4499V47.4599Z" fill="#036EA3" stroke="white" stroke-width="0.1" stroke-miterlimit="10"/>
<path d="M232.13 77.09L239.28 70.04L186.75 49.5L179.6 56.55L232.13 77.09Z" fill="#F0F0F0"/>
<path d="M212.301 68.0301L217.541 62.7601L215.021 61.7801L209.781 67.0501L212.301 68.0301ZM220.601 71.2701L225.841 66.0001L223.321 65.0201L218.081 70.2901L220.601 71.2701ZM228.911 74.5101L234.151 69.2401L231.631 68.2601L226.391 73.5301L228.911 74.5101ZM231.431 68.1801L229.781 67.5401L228.341 67.7801L224.241 71.9001L224.541 72.8201L226.191 73.4601L231.431 68.1901V68.1801ZM226.041 66.0801L220.801 71.3501L222.451 71.9901L223.891 71.7501L227.991 67.6301L227.691 66.7101L226.041 66.0701V66.0801ZM234.341 69.3201L229.101 74.5901L230.751 75.2301L232.191 74.9901L236.291 70.8701L235.991 69.9501L234.341 69.3101V69.3201ZM223.121 64.9401L221.471 64.3001L220.031 64.5401L215.931 68.6601L216.231 69.5801L217.881 70.2201L223.121 64.9501V64.9401ZM214.821 61.7001L213.171 61.0601L211.731 61.3001L207.631 65.4201L207.931 66.3401L209.581 66.9801L214.821 61.7101V61.7001ZM217.731 62.8401L212.491 68.1101L214.141 68.7501L215.581 68.5101L219.681 64.3901L219.381 63.4701L217.731 62.8301V62.8401Z" fill="#036EA3" stroke="white" stroke-width="0.1" stroke-miterlimit="10"/>
<path d="M187.26 58.2701L192.5 53L189.98 52.0201L184.74 57.2901L187.26 58.2701ZM195.56 61.51L200.8 56.2401L198.28 55.26L193.04 60.53L195.56 61.51ZM203.87 64.75L209.11 59.48L206.59 58.5L201.35 63.7701L203.87 64.75ZM206.39 58.42L204.74 57.78L203.3 58.0201L199.2 62.14L199.5 63.0601L201.15 63.7001L206.39 58.43V58.42ZM201 56.3101L195.76 61.5801L197.41 62.2201L198.85 61.98L202.95 57.8601L202.65 56.94L201 56.3V56.3101ZM209.3 59.55L204.06 64.82L205.71 65.46L207.15 65.2201L211.25 61.1L210.95 60.18L209.3 59.5401V59.55ZM198.08 55.18L196.43 54.5401L194.99 54.78L190.89 58.9001L191.19 59.82L192.84 60.46L198.08 55.19V55.18ZM189.78 51.94L188.13 51.3L186.69 51.5401L182.59 55.66L182.89 56.5801L184.54 57.2201L189.78 51.9501V51.94ZM192.69 53.07L187.45 58.34L189.1 58.98L190.54 58.7401L194.64 54.62L194.34 53.7001L192.69 53.0601V53.07Z" fill="#036EA3" stroke="white" stroke-width="0.1" stroke-miterlimit="10"/>
</g>
</g>
<path d="M237.32 249.65C237.32 217.26 205.46 191 166.16 191C126.86 191 95 217.26 95 249.65" fill="#FAD764"/>
<rect x="3.5" y="245.5" width="325" height="90" rx="29.5" fill="white"/>
<rect x="3.5" y="245.5" width="325" height="90" rx="29.5" stroke="#FAD764" stroke-width="7"/>
<path d="M48.2109 308C46.4629 308 45.5889 307.095 45.5889 305.286V278.514C45.5889 276.705 46.4629 275.8 48.2109 275.8C49.9896 275.8 50.8789 276.705 50.8789 278.514V289.784L61.2289 277.87C61.9036 277.042 62.5169 276.49 63.0689 276.214C63.6209 275.938 64.3262 275.8 65.1849 275.8C65.9516 275.8 66.5189 275.984 66.8869 276.352C67.2549 276.72 67.4236 277.165 67.3929 277.686C67.3929 278.207 67.2089 278.698 66.8409 279.158L56.5369 290.796L67.4849 304.734C67.8529 305.225 68.0522 305.746 68.0829 306.298C68.1136 306.85 67.9296 307.31 67.5309 307.678C67.1629 308.046 66.5342 308.23 65.6449 308.23C64.7249 308.23 63.9736 308.061 63.3909 307.724C62.8389 307.356 62.3482 306.881 61.9189 306.298L50.8789 291.532V305.286C50.8789 307.095 49.9896 308 48.2109 308ZM85.772 308.736C82.8587 308.736 80.252 308.046 77.952 306.666C75.6827 305.286 73.904 303.339 72.616 300.824C71.328 298.279 70.684 295.304 70.684 291.9C70.684 288.465 71.328 285.491 72.616 282.976C73.904 280.431 75.6827 278.468 77.952 277.088C80.252 275.677 82.8587 274.972 85.772 274.972C88.6854 274.972 91.2614 275.677 93.5 277.088C95.7694 278.468 97.548 280.431 98.836 282.976C100.155 285.491 100.814 288.465 100.814 291.9C100.814 295.304 100.155 298.279 98.836 300.824C97.548 303.339 95.7694 305.286 93.5 306.666C91.2614 308.046 88.6854 308.736 85.772 308.736ZM85.772 303.584C87.704 303.584 89.3754 303.109 90.786 302.158C92.1967 301.177 93.2854 299.812 94.052 298.064C94.8494 296.285 95.248 294.231 95.248 291.9C95.248 289.539 94.8494 287.484 94.052 285.736C93.2854 283.957 92.1967 282.593 90.786 281.642C89.3754 280.661 87.704 280.17 85.772 280.17C83.8707 280.17 82.1994 280.661 80.758 281.642C79.3167 282.593 78.1974 283.957 77.4 285.736C76.6334 287.484 76.25 289.539 76.25 291.9C76.25 294.231 76.6334 296.285 77.4 298.064C78.1974 299.812 79.3167 301.177 80.758 302.158C82.1994 303.109 83.8707 303.584 85.772 303.584ZM109.258 308C107.51 308 106.636 307.095 106.636 305.286V278.514C106.636 276.705 107.51 275.8 109.258 275.8C111.037 275.8 111.926 276.705 111.926 278.514V305.286C111.926 307.095 111.037 308 109.258 308ZM120.474 308C118.665 308 117.76 307.172 117.76 305.516V304.918C117.76 303.691 118.128 302.557 118.864 301.514L133.676 280.722H121.026C120.168 280.722 119.493 280.523 119.002 280.124C118.542 279.695 118.312 279.081 118.312 278.284C118.312 276.628 119.217 275.8 121.026 275.8H137.54C139.35 275.8 140.254 276.628 140.254 278.284V278.882C140.254 280.139 139.886 281.259 139.15 282.24L124.338 303.078H137.954C139.764 303.078 140.668 303.891 140.668 305.516C140.668 307.172 139.764 308 137.954 308H120.474ZM158.439 308.598C154.421 308.598 151.355 307.54 149.239 305.424C147.123 303.277 146.065 300.073 146.065 295.81V278.514C146.065 277.625 146.295 276.95 146.755 276.49C147.245 276.03 147.92 275.8 148.779 275.8C150.557 275.8 151.447 276.705 151.447 278.514V295.534C151.447 298.294 152.06 300.303 153.287 301.56C154.544 302.787 156.261 303.4 158.439 303.4C160.616 303.4 162.318 302.787 163.545 301.56C164.771 300.303 165.385 298.294 165.385 295.534V278.514C165.385 276.705 166.274 275.8 168.053 275.8C169.831 275.8 170.721 276.705 170.721 278.514V295.81C170.721 300.073 169.678 303.277 167.593 305.424C165.507 307.54 162.456 308.598 158.439 308.598ZM180.48 308C178.701 308 177.812 307.095 177.812 305.286V278.514C177.812 277.471 178.073 276.766 178.594 276.398C179.146 275.999 179.943 275.8 180.986 275.8C182.397 275.8 183.47 276.413 184.206 277.64L192.348 291.256L200.398 277.686C200.827 276.919 201.318 276.413 201.87 276.168C202.453 275.923 203.204 275.8 204.124 275.8C205.933 275.8 206.838 276.705 206.838 278.514V305.286C206.838 307.095 205.933 308 204.124 308C202.315 308 201.41 307.095 201.41 305.286V285.046L194.924 296.27C194.28 297.527 193.406 298.156 192.302 298.156C191.198 298.156 190.324 297.527 189.68 296.27L183.148 285.046V305.286C183.148 307.095 182.259 308 180.48 308ZM216.887 308C215.139 308 214.265 307.095 214.265 305.286V278.514C214.265 276.705 215.139 275.8 216.887 275.8C218.666 275.8 219.555 276.705 219.555 278.514V305.286C219.555 307.095 218.666 308 216.887 308ZM235.326 308.46C232.872 308.46 230.956 307.847 229.576 306.62C228.196 305.393 227.214 303.553 226.632 301.1C226.08 298.647 225.804 295.58 225.804 291.9C225.804 288.22 226.08 285.153 226.632 282.7C227.214 280.216 228.196 278.361 229.576 277.134C230.956 275.907 232.872 275.294 235.326 275.294C237.779 275.294 239.68 275.907 241.03 277.134C242.41 278.361 243.376 280.216 243.928 282.7C244.51 285.153 244.802 288.22 244.802 291.9C244.802 295.58 244.51 298.647 243.928 301.1C243.376 303.553 242.41 305.393 241.03 306.62C239.68 307.847 237.779 308.46 235.326 308.46ZM235.326 303.768C236.46 303.768 237.35 303.415 237.994 302.71C238.668 301.974 239.159 300.747 239.466 299.03C239.772 297.313 239.926 294.936 239.926 291.9C239.926 288.833 239.772 286.441 239.466 284.724C239.159 283.007 238.668 281.795 237.994 281.09C237.35 280.354 236.46 279.986 235.326 279.986C234.191 279.986 233.286 280.354 232.612 281.09C231.937 281.795 231.446 283.007 231.14 284.724C230.864 286.441 230.726 288.833 230.726 291.9C230.726 294.936 230.864 297.313 231.14 299.03C231.446 300.747 231.937 301.974 232.612 302.71C233.286 303.415 234.191 303.768 235.326 303.768ZM258.553 308C256.897 308 256.069 307.095 256.069 305.286V282.056L252.757 284.218C251.224 285.261 250.028 285.077 249.169 283.666C248.28 282.255 248.602 281.075 250.135 280.124L255.655 276.674C256.207 276.337 256.744 276.107 257.265 275.984C257.787 275.831 258.385 275.754 259.059 275.754C260.347 275.754 260.991 276.659 260.991 278.468V305.286C260.991 307.095 260.179 308 258.553 308ZM277.468 308.46C273.972 308.46 271.35 307.065 269.602 304.274C269.111 303.477 268.988 302.771 269.234 302.158C269.479 301.545 269.954 301.131 270.66 300.916C271.426 300.671 272.055 300.671 272.546 300.916C273.036 301.161 273.573 301.591 274.156 302.204C274.493 302.664 274.922 303.047 275.444 303.354C275.996 303.63 276.64 303.768 277.376 303.768C278.94 303.768 280.182 303.385 281.102 302.618C282.022 301.851 282.482 300.563 282.482 298.754C282.482 297.129 282.022 295.825 281.102 294.844C280.182 293.863 278.863 293.372 277.146 293.372C275.612 293.372 274.846 292.621 274.846 291.118C274.846 289.615 275.612 288.864 277.146 288.864C278.679 288.864 279.814 288.419 280.55 287.53C281.286 286.61 281.654 285.491 281.654 284.172C281.654 282.639 281.209 281.565 280.32 280.952C279.461 280.308 278.48 279.986 277.376 279.986C276.762 279.986 276.21 280.139 275.72 280.446C275.26 280.753 274.861 281.121 274.524 281.55C273.941 282.163 273.389 282.593 272.868 282.838C272.377 283.083 271.764 283.053 271.028 282.746C270.322 282.47 269.862 282.025 269.648 281.412C269.433 280.768 269.602 280.078 270.154 279.342C271.043 278.023 272.116 277.027 273.374 276.352C274.662 275.647 276.026 275.294 277.468 275.294C279.338 275.294 280.964 275.662 282.344 276.398C283.754 277.103 284.843 278.1 285.61 279.388C286.407 280.676 286.806 282.194 286.806 283.942C286.806 285.537 286.376 286.978 285.518 288.266C284.69 289.523 283.632 290.443 282.344 291.026C283.877 291.609 285.119 292.605 286.07 294.016C287.051 295.427 287.542 297.067 287.542 298.938C287.542 301.851 286.652 304.167 284.874 305.884C283.126 307.601 280.657 308.46 277.468 308.46Z" fill="#C6C6C6"/>
<rect x="9" y="251" width="314" height="79" rx="24" fill="white"/>
<rect x="9" y="251" width="314" height="79" rx="24" stroke="#E68600" stroke-width="4"/>
<path d="M123.844 240.356C123.265 240.48 122.759 240.439 122.325 240.232C121.912 240.046 121.633 239.705 121.488 239.209C121.343 238.713 121.416 238.258 121.705 237.845C121.994 237.432 122.397 237.184 122.914 237.101C125.001 236.729 126.572 236.119 127.626 235.272C128.701 234.404 129.393 233.216 129.703 231.707H124.123C123.668 231.707 123.276 231.552 122.945 231.242C122.635 230.911 122.48 230.519 122.48 230.064C122.48 229.589 122.635 229.196 122.945 228.886C123.276 228.555 123.668 228.39 124.123 228.39H129.92V225.476H128.866C128.473 225.476 128.122 225.362 127.812 225.135C127.523 224.887 127.326 224.587 127.223 224.236C126.541 224.773 125.828 225.29 125.084 225.786C124.361 226.261 123.627 226.685 122.883 227.057C122.428 227.284 121.963 227.346 121.488 227.243C121.013 227.119 120.661 226.83 120.434 226.375C120.227 225.962 120.207 225.538 120.372 225.104C120.558 224.67 120.878 224.35 121.333 224.143C122.697 223.482 124.051 222.645 125.394 221.632C125.022 221.281 124.567 220.888 124.03 220.454C123.513 219.999 123.11 219.658 122.821 219.431C122.49 219.183 122.315 218.842 122.294 218.408C122.294 217.974 122.439 217.602 122.728 217.292C123.017 216.982 123.369 216.806 123.782 216.765C124.216 216.724 124.598 216.848 124.929 217.137C125.136 217.302 125.415 217.53 125.766 217.819C126.117 218.108 126.479 218.418 126.851 218.749C127.244 219.059 127.564 219.328 127.812 219.555C128.556 218.811 129.155 218.119 129.61 217.478C130.168 216.693 129.961 216.3 128.99 216.3H123.999C123.606 216.3 123.265 216.155 122.976 215.866C122.687 215.556 122.542 215.205 122.542 214.812C122.542 214.399 122.687 214.047 122.976 213.758C123.265 213.469 123.606 213.324 123.999 213.324H129.951C131.17 213.324 132.1 213.562 132.741 214.037C133.382 214.492 133.723 215.091 133.764 215.835C133.805 216.579 133.526 217.385 132.927 218.253C132.059 219.534 130.974 220.805 129.672 222.066H140.615C138.321 219.917 136.451 217.416 135.004 214.564C134.818 214.171 134.797 213.779 134.942 213.386C135.087 212.993 135.345 212.694 135.717 212.487C136.11 212.301 136.533 212.26 136.988 212.363C137.443 212.446 137.773 212.683 137.98 213.076C138.228 213.51 138.486 213.944 138.755 214.378C139.024 214.791 139.292 215.205 139.561 215.618C139.871 215.37 140.202 215.091 140.553 214.781C140.904 214.471 141.235 214.182 141.545 213.913C141.855 213.624 142.082 213.407 142.227 213.262C142.558 212.973 142.93 212.828 143.343 212.828C143.777 212.807 144.159 212.952 144.49 213.262C144.8 213.551 144.955 213.913 144.955 214.347C144.976 214.781 144.821 215.143 144.49 215.432C144.304 215.597 144.025 215.845 143.653 216.176C143.302 216.486 142.919 216.817 142.506 217.168C142.113 217.499 141.762 217.788 141.452 218.036C141.679 218.263 141.896 218.491 142.103 218.718C142.33 218.945 142.547 219.173 142.754 219.4C143.043 219.152 143.384 218.863 143.777 218.532C144.19 218.181 144.583 217.84 144.955 217.509C145.327 217.178 145.596 216.93 145.761 216.765C146.071 216.476 146.443 216.331 146.877 216.331C147.311 216.31 147.683 216.455 147.993 216.765C148.303 217.054 148.458 217.416 148.458 217.85C148.479 218.284 148.334 218.646 148.024 218.935C147.859 219.1 147.6 219.328 147.249 219.617C146.918 219.906 146.567 220.206 146.195 220.516C145.823 220.826 145.482 221.115 145.172 221.384C146.164 222.107 147.29 222.8 148.551 223.461C149.006 223.668 149.285 224.009 149.388 224.484C149.512 224.959 149.46 225.404 149.233 225.817C148.964 226.272 148.572 226.551 148.055 226.654C147.538 226.757 147.042 226.675 146.567 226.406C145.203 225.662 143.942 224.835 142.785 223.926C142.744 224.36 142.558 224.732 142.227 225.042C141.917 225.331 141.535 225.476 141.08 225.476H139.685V228.39H145.451C145.926 228.39 146.319 228.555 146.629 228.886C146.96 229.196 147.125 229.589 147.125 230.064C147.125 230.519 146.96 230.911 146.629 231.242C146.319 231.552 145.926 231.707 145.451 231.707H139.685V234.993C139.685 235.716 139.861 236.202 140.212 236.45C140.584 236.698 141.318 236.822 142.413 236.822C143.343 236.822 143.984 236.688 144.335 236.419C144.707 236.13 144.996 235.623 145.203 234.9C145.368 234.363 145.668 233.991 146.102 233.784C146.536 233.557 147.011 233.526 147.528 233.691C148.086 233.856 148.458 234.135 148.644 234.528C148.851 234.921 148.902 235.365 148.799 235.861C148.468 237.473 147.755 238.61 146.66 239.271C145.565 239.932 144.139 240.263 142.382 240.263C140.894 240.263 139.695 240.129 138.786 239.86C137.877 239.591 137.205 239.095 136.771 238.372C136.358 237.649 136.151 236.615 136.151 235.272V231.707H133.206C132.875 234.063 131.966 235.944 130.478 237.349C128.99 238.754 126.779 239.757 123.844 240.356ZM133.361 228.39H136.151V225.476H133.361V228.39ZM170.964 240.542C169.352 240.542 168.091 240.408 167.182 240.139C166.273 239.891 165.632 239.436 165.26 238.775C164.888 238.114 164.692 237.163 164.671 235.923H161.912C160.217 235.923 158.926 235.778 158.037 235.489C157.148 235.179 156.539 234.662 156.208 233.939C155.877 233.216 155.712 232.224 155.712 230.963C155.712 229.682 155.877 228.679 156.208 227.956C156.539 227.233 157.148 226.726 158.037 226.437C158.926 226.148 160.217 226.003 161.912 226.003H170.747C172.442 226.003 173.733 226.148 174.622 226.437C175.511 226.726 176.12 227.233 176.451 227.956C176.782 228.679 176.947 229.682 176.947 230.963C176.947 232.224 176.782 233.216 176.451 233.939C176.12 234.662 175.511 235.179 174.622 235.489C173.733 235.778 172.442 235.923 170.747 235.923H168.236C168.277 236.564 168.474 236.977 168.825 237.163C169.176 237.349 169.889 237.442 170.964 237.442H174.374C175.304 237.442 176.017 237.38 176.513 237.256C177.009 237.132 177.371 236.915 177.598 236.605C177.846 236.295 178.022 235.871 178.125 235.334C178.208 234.921 178.456 234.6 178.869 234.373C179.282 234.146 179.747 234.104 180.264 234.249C180.739 234.373 181.08 234.621 181.287 234.993C181.514 235.344 181.576 235.758 181.473 236.233C181.287 237.308 180.936 238.155 180.419 238.775C179.902 239.416 179.158 239.87 178.187 240.139C177.216 240.408 175.945 240.542 174.374 240.542H170.964ZM166.438 225.445C165.942 225.445 165.518 225.28 165.167 224.949C164.836 224.618 164.671 224.184 164.671 223.647V219.245H158.192C157.365 219.245 156.787 219.359 156.456 219.586C156.125 219.813 155.96 220.289 155.96 221.012V222.407C155.96 222.924 155.784 223.347 155.433 223.678C155.102 223.988 154.699 224.143 154.224 224.143C153.728 224.143 153.304 223.988 152.953 223.678C152.622 223.347 152.457 222.924 152.457 222.407V220.981C152.457 219.948 152.622 219.121 152.953 218.501C153.304 217.881 153.893 217.437 154.72 217.168C155.547 216.879 156.673 216.734 158.099 216.734H164.671V215.401H155.371C154.978 215.401 154.648 215.267 154.379 214.998C154.131 214.709 154.007 214.368 154.007 213.975C154.007 213.603 154.131 213.283 154.379 213.014C154.648 212.725 154.978 212.58 155.371 212.58H177.66C178.053 212.58 178.373 212.725 178.621 213.014C178.89 213.283 179.024 213.603 179.024 213.975C179.024 214.368 178.89 214.709 178.621 214.998C178.373 215.267 178.053 215.401 177.66 215.401H168.205V216.734H174.777C176.224 216.734 177.35 216.879 178.156 217.168C178.983 217.437 179.561 217.881 179.892 218.501C180.243 219.121 180.419 219.948 180.419 220.981V222.407C180.419 222.924 180.243 223.347 179.892 223.678C179.541 223.988 179.127 224.143 178.652 224.143C178.177 224.143 177.763 223.988 177.412 223.678C177.061 223.347 176.885 222.924 176.885 222.407V221.012C176.885 220.289 176.72 219.813 176.389 219.586C176.079 219.359 175.511 219.245 174.684 219.245H168.205V223.647C168.205 224.184 168.029 224.618 167.678 224.949C167.347 225.28 166.934 225.445 166.438 225.445ZM170.096 224.949C169.827 224.949 169.59 224.856 169.383 224.67C169.197 224.463 169.104 224.226 169.104 223.957C169.104 223.688 169.197 223.461 169.383 223.275C169.59 223.068 169.827 222.965 170.096 222.965H175.056C175.345 222.965 175.583 223.068 175.769 223.275C175.955 223.461 176.048 223.688 176.048 223.957C176.048 224.226 175.955 224.463 175.769 224.67C175.583 224.856 175.345 224.949 175.056 224.949H170.096ZM170.096 222.159C169.827 222.159 169.59 222.066 169.383 221.88C169.197 221.673 169.104 221.436 169.104 221.167C169.104 220.898 169.197 220.671 169.383 220.485C169.59 220.278 169.827 220.175 170.096 220.175H175.056C175.345 220.175 175.583 220.278 175.769 220.485C175.955 220.671 176.048 220.898 176.048 221.167C176.048 221.436 175.955 221.673 175.769 221.88C175.583 222.066 175.345 222.159 175.056 222.159H170.096ZM157.758 224.949C157.489 224.949 157.262 224.856 157.076 224.67C156.89 224.463 156.797 224.226 156.797 223.957C156.797 223.688 156.89 223.461 157.076 223.275C157.262 223.068 157.489 222.965 157.758 222.965H162.749C163.018 222.965 163.245 223.068 163.431 223.275C163.617 223.461 163.71 223.688 163.71 223.957C163.71 224.226 163.617 224.463 163.431 224.67C163.245 224.856 163.018 224.949 162.749 224.949H157.758ZM157.758 222.159C157.489 222.159 157.262 222.066 157.076 221.88C156.89 221.673 156.797 221.436 156.797 221.167C156.797 220.898 156.89 220.671 157.076 220.485C157.262 220.278 157.489 220.175 157.758 220.175H162.749C163.018 220.175 163.245 220.278 163.431 220.485C163.617 220.671 163.71 220.898 163.71 221.167C163.71 221.436 163.617 221.673 163.431 221.88C163.245 222.066 163.018 222.159 162.749 222.159H157.758ZM159.246 229.816H164.671V228.514H161.943C160.992 228.514 160.331 228.586 159.959 228.731C159.587 228.855 159.349 229.217 159.246 229.816ZM161.943 233.412H164.671V232.11H159.246C159.349 232.689 159.587 233.05 159.959 233.195C160.331 233.34 160.992 233.412 161.943 233.412ZM168.236 229.816H173.413C173.33 229.217 173.103 228.855 172.731 228.731C172.359 228.586 171.687 228.514 170.716 228.514H168.236V229.816ZM168.236 233.412H170.716C171.687 233.412 172.359 233.34 172.731 233.195C173.103 233.05 173.33 232.689 173.413 232.11H168.236V233.412ZM207.141 240.79C206.645 240.79 206.221 240.625 205.87 240.294C205.519 239.963 205.343 239.529 205.343 238.992V224.98H202.615C202.47 228.101 201.871 230.87 200.817 233.288C199.784 235.685 198.306 237.711 196.384 239.364C195.95 239.736 195.454 239.953 194.896 240.015C194.359 240.098 193.873 239.943 193.439 239.55C193.046 239.157 192.85 238.703 192.85 238.186C192.871 237.69 193.108 237.246 193.563 236.853C194.824 235.758 195.847 234.58 196.632 233.319C197.438 232.038 198.027 230.601 198.399 229.01C198.771 227.398 198.957 225.548 198.957 223.461V219.462C198.957 218.181 199.091 217.158 199.36 216.393C199.649 215.608 200.125 214.998 200.786 214.564C201.468 214.13 202.388 213.799 203.545 213.572C204.454 213.407 205.457 213.19 206.552 212.921C207.647 212.632 208.701 212.342 209.714 212.053C210.251 211.888 210.737 211.908 211.171 212.115C211.626 212.322 211.925 212.632 212.07 213.045C212.256 213.541 212.256 214.016 212.07 214.471C211.884 214.905 211.522 215.205 210.985 215.37C209.993 215.639 208.96 215.907 207.885 216.176C206.81 216.424 205.818 216.631 204.909 216.796C204.289 216.92 203.814 217.075 203.483 217.261C203.152 217.426 202.925 217.685 202.801 218.036C202.698 218.367 202.646 218.863 202.646 219.524V221.539H211.016C211.553 221.539 211.967 221.715 212.256 222.066C212.566 222.397 212.721 222.8 212.721 223.275C212.721 223.73 212.566 224.133 212.256 224.484C211.967 224.815 211.553 224.98 211.016 224.98H208.939V238.992C208.939 239.529 208.763 239.963 208.412 240.294C208.061 240.625 207.637 240.79 207.141 240.79ZM184.046 240.449C183.612 240.242 183.323 239.912 183.178 239.457C183.033 239.002 183.075 238.568 183.302 238.155C184.129 236.626 184.759 235.014 185.193 233.319C185.627 231.624 185.844 229.733 185.844 227.646V224.081C185.844 222.696 185.999 221.622 186.309 220.857C186.64 220.092 187.208 219.555 188.014 219.245C188.841 218.935 189.988 218.78 191.455 218.78C192.943 218.78 194.09 218.935 194.896 219.245C195.702 219.555 196.26 220.092 196.57 220.857C196.88 221.622 197.035 222.696 197.035 224.081C197.035 225.466 196.87 226.54 196.539 227.305C196.229 228.049 195.671 228.576 194.865 228.886C194.059 229.175 192.912 229.32 191.424 229.32H189.347C189.244 231.449 188.954 233.34 188.479 234.993C188.004 236.626 187.384 238.155 186.619 239.581C186.371 240.036 185.999 240.346 185.503 240.511C185.007 240.676 184.521 240.656 184.046 240.449ZM185.72 216.641C185.245 216.641 184.862 216.486 184.573 216.176C184.284 215.866 184.139 215.494 184.139 215.06C184.139 214.605 184.284 214.233 184.573 213.944C184.862 213.634 185.245 213.479 185.72 213.479H196.446C196.921 213.479 197.304 213.634 197.593 213.944C197.882 214.233 198.027 214.605 198.027 215.06C198.027 215.494 197.882 215.866 197.593 216.176C197.304 216.486 196.921 216.641 196.446 216.641H185.72ZM189.378 226.127H191.455C192.323 226.127 192.881 226.013 193.129 225.786C193.398 225.538 193.532 224.97 193.532 224.081C193.532 223.192 193.398 222.634 193.129 222.407C192.881 222.159 192.323 222.035 191.455 222.035C190.587 222.035 190.019 222.149 189.75 222.376C189.502 222.603 189.378 223.161 189.378 224.05V226.127Z" fill="#007440"/>
<path d="M166 103L166 195" stroke="#FAD764" stroke-width="4"/>
<rect x="73" y="314" width="192" height="49" rx="24.5" fill="#C6C6C6"/>
<rect x="73" y="314" width="192" height="49" rx="24.5" stroke="#007440"/>
<path d="M102.517 347.4C100.933 347.4 99.5165 347.025 98.2665 346.275C97.0332 345.525 96.0665 344.467 95.3665 343.1C94.6665 341.717 94.3165 340.1 94.3165 338.25C94.3165 336.383 94.6665 334.767 95.3665 333.4C96.0665 332.017 97.0332 330.95 98.2665 330.2C99.5165 329.433 100.933 329.05 102.517 329.05C103.7 329.05 104.783 329.267 105.767 329.7C106.767 330.133 107.633 330.742 108.367 331.525C108.7 331.892 108.808 332.267 108.692 332.65C108.575 333.017 108.35 333.3 108.017 333.5L107.892 333.575C107.675 333.708 107.367 333.758 106.967 333.725C106.567 333.692 106.2 333.517 105.867 333.2C105.433 332.767 104.933 332.442 104.367 332.225C103.817 331.992 103.2 331.875 102.517 331.875C101.483 331.875 100.575 332.142 99.7915 332.675C99.0082 333.192 98.3998 333.933 97.9665 334.9C97.5498 335.85 97.3415 336.967 97.3415 338.25C97.3415 339.517 97.5498 340.633 97.9665 341.6C98.3998 342.55 99.0082 343.292 99.7915 343.825C100.575 344.342 101.483 344.6 102.517 344.6C103.833 344.6 104.95 344.158 105.867 343.275C106.2 342.958 106.542 342.775 106.892 342.725C107.242 342.675 107.575 342.725 107.892 342.875L107.942 342.925C108.292 343.092 108.533 343.375 108.667 343.775C108.817 344.158 108.733 344.533 108.417 344.9C107.683 345.7 106.817 346.317 105.817 346.75C104.817 347.183 103.717 347.4 102.517 347.4ZM117.413 347.275C116.313 347.275 115.322 347.017 114.438 346.5C113.572 345.967 112.88 345.233 112.363 344.3C111.863 343.35 111.613 342.242 111.613 340.975C111.613 339.708 111.863 338.608 112.363 337.675C112.88 336.725 113.572 335.992 114.438 335.475C115.322 334.942 116.313 334.675 117.413 334.675C118.547 334.675 119.547 334.942 120.413 335.475C121.297 335.992 121.988 336.725 122.488 337.675C122.988 338.608 123.238 339.708 123.238 340.975C123.238 342.242 122.988 343.35 122.488 344.3C121.988 345.233 121.297 345.967 120.413 346.5C119.547 347.017 118.547 347.275 117.413 347.275ZM117.413 344.725C118.297 344.725 119.013 344.4 119.563 343.75C120.13 343.1 120.413 342.175 120.413 340.975C120.413 339.775 120.13 338.85 119.563 338.2C119.013 337.55 118.297 337.225 117.413 337.225C116.547 337.225 115.838 337.55 115.288 338.2C114.738 338.85 114.463 339.775 114.463 340.975C114.463 342.175 114.738 343.1 115.288 343.75C115.838 344.4 116.547 344.725 117.413 344.725ZM127.591 347C126.641 347 126.166 346.508 126.166 345.525V336.45C126.166 335.467 126.591 334.975 127.441 334.975C128.274 334.975 128.716 335.192 128.766 335.625L128.866 336.425C129.099 335.925 129.491 335.508 130.041 335.175C130.591 334.842 131.224 334.675 131.941 334.675C132.724 334.675 133.408 334.858 133.991 335.225C134.574 335.592 135.024 336.117 135.341 336.8C135.658 336.183 136.116 335.675 136.716 335.275C137.333 334.875 138.033 334.675 138.816 334.675C139.999 334.675 140.949 335.092 141.666 335.925C142.399 336.742 142.766 337.9 142.766 339.4V345.525C142.766 346.508 142.299 347 141.366 347C140.399 347 139.916 346.508 139.916 345.525V340.05C139.916 339.167 139.758 338.475 139.441 337.975C139.124 337.475 138.683 337.225 138.116 337.225C137.399 337.225 136.841 337.483 136.441 338C136.058 338.517 135.866 339.25 135.866 340.2V345.525C135.866 346.508 135.399 347 134.466 347C133.516 347 133.041 346.508 133.041 345.525V340.05C133.041 339.167 132.874 338.475 132.541 337.975C132.208 337.475 131.758 337.225 131.191 337.225C130.491 337.225 129.949 337.492 129.566 338.025C129.183 338.542 128.991 339.267 128.991 340.2V345.525C128.991 346.508 128.524 347 127.591 347ZM148.119 347C147.186 347 146.719 346.508 146.719 345.525V336.45C146.719 335.467 147.186 334.975 148.119 334.975C149.053 334.975 149.519 335.467 149.519 336.45V345.525C149.519 346.508 149.053 347 148.119 347ZM148.094 333C147.611 333 147.194 332.825 146.844 332.475C146.494 332.125 146.319 331.708 146.319 331.225C146.319 330.742 146.494 330.325 146.844 329.975C147.194 329.625 147.611 329.45 148.094 329.45C148.578 329.45 148.994 329.625 149.344 329.975C149.694 330.325 149.869 330.742 149.869 331.225C149.869 331.708 149.694 332.125 149.344 332.475C148.994 332.825 148.578 333 148.094 333ZM154.836 347C153.886 347 153.411 346.508 153.411 345.525V336.45C153.411 335.467 153.836 334.975 154.686 334.975C155.536 334.975 155.978 335.192 156.011 335.625L156.086 336.4C156.42 335.933 156.861 335.533 157.411 335.2C157.961 334.85 158.611 334.675 159.361 334.675C160.611 334.675 161.628 335.075 162.411 335.875C163.211 336.675 163.611 337.85 163.611 339.4V345.525C163.611 346.508 163.145 347 162.211 347C161.261 347 160.786 346.508 160.786 345.525V340.075C160.786 339.125 160.595 338.417 160.211 337.95C159.828 337.467 159.311 337.225 158.661 337.225C157.945 337.225 157.361 337.475 156.911 337.975C156.461 338.458 156.236 339.183 156.236 340.15V345.525C156.236 346.508 155.77 347 154.836 347ZM172.117 351.975C170.234 351.975 168.742 351.425 167.642 350.325C167.292 349.958 167.151 349.6 167.217 349.25C167.284 348.9 167.501 348.608 167.867 348.375C168.234 348.125 168.567 348.042 168.867 348.125C169.167 348.208 169.501 348.392 169.867 348.675C170.451 349.175 171.201 349.425 172.117 349.425C173.101 349.425 173.826 349.125 174.292 348.525C174.759 347.925 174.992 346.967 174.992 345.65V344.975C174.209 345.792 173.217 346.2 172.017 346.2C170.967 346.2 170.026 345.983 169.192 345.55C168.376 345.1 167.734 344.45 167.267 343.6C166.801 342.733 166.567 341.675 166.567 340.425C166.567 339.158 166.801 338.1 167.267 337.25C167.734 336.4 168.376 335.758 169.192 335.325C170.026 334.892 170.967 334.675 172.017 334.675C172.667 334.675 173.292 334.817 173.892 335.1C174.492 335.367 174.984 335.825 175.367 336.475V336.05C175.367 335.633 175.476 335.35 175.692 335.2C175.909 335.05 176.209 334.975 176.592 334.975C177.392 334.975 177.792 335.467 177.792 336.45V345.65C177.792 347.633 177.326 349.183 176.392 350.3C175.476 351.417 174.051 351.975 172.117 351.975ZM172.242 343.725C173.109 343.725 173.817 343.433 174.367 342.85C174.917 342.25 175.192 341.442 175.192 340.425C175.192 339.392 174.917 338.592 174.367 338.025C173.817 337.442 173.109 337.15 172.242 337.15C171.376 337.15 170.684 337.442 170.167 338.025C169.667 338.592 169.417 339.392 169.417 340.425C169.417 341.442 169.667 342.25 170.167 342.85C170.684 343.433 171.376 343.725 172.242 343.725ZM195.446 347.35C194.213 347.35 193.063 347.142 191.996 346.725C190.93 346.292 190.013 345.575 189.246 344.575C188.963 344.175 188.863 343.808 188.946 343.475C189.046 343.125 189.296 342.842 189.696 342.625C190.08 342.392 190.43 342.325 190.746 342.425C191.063 342.508 191.38 342.725 191.696 343.075C192.146 343.558 192.68 343.933 193.296 344.2C193.93 344.467 194.68 344.6 195.546 344.6C196.713 344.6 197.53 344.392 197.996 343.975C198.48 343.542 198.721 342.958 198.721 342.225C198.721 341.758 198.613 341.358 198.396 341.025C198.196 340.692 197.763 340.383 197.096 340.1C196.446 339.8 195.438 339.5 194.071 339.2C192.455 338.817 191.255 338.208 190.471 337.375C189.705 336.542 189.321 335.483 189.321 334.2C189.321 333.183 189.563 332.292 190.046 331.525C190.546 330.742 191.238 330.133 192.121 329.7C193.021 329.267 194.071 329.05 195.271 329.05C196.521 329.05 197.613 329.267 198.546 329.7C199.48 330.133 200.263 330.692 200.896 331.375C201.213 331.725 201.338 332.075 201.271 332.425C201.205 332.775 200.988 333.092 200.621 333.375C200.255 333.675 199.905 333.792 199.571 333.725C199.238 333.658 198.905 333.467 198.571 333.15C198.155 332.767 197.68 332.45 197.146 332.2C196.613 331.95 195.98 331.825 195.246 331.825C194.38 331.825 193.671 332.017 193.121 332.4C192.588 332.767 192.321 333.325 192.321 334.075C192.321 334.408 192.396 334.733 192.546 335.05C192.713 335.35 193.063 335.642 193.596 335.925C194.146 336.208 194.988 336.483 196.121 336.75C198.121 337.2 199.563 337.875 200.446 338.775C201.33 339.675 201.771 340.808 201.771 342.175C201.771 343.842 201.188 345.125 200.021 346.025C198.871 346.908 197.346 347.35 195.446 347.35ZM210.147 347.275C209.047 347.275 208.055 347.017 207.172 346.5C206.305 345.967 205.613 345.233 205.097 344.3C204.597 343.35 204.347 342.242 204.347 340.975C204.347 339.708 204.597 338.608 205.097 337.675C205.613 336.725 206.305 335.992 207.172 335.475C208.055 334.942 209.047 334.675 210.147 334.675C211.28 334.675 212.28 334.942 213.147 335.475C214.03 335.992 214.722 336.725 215.222 337.675C215.722 338.608 215.972 339.708 215.972 340.975C215.972 342.242 215.722 343.35 215.222 344.3C214.722 345.233 214.03 345.967 213.147 346.5C212.28 347.017 211.28 347.275 210.147 347.275ZM210.147 344.725C211.03 344.725 211.747 344.4 212.297 343.75C212.863 343.1 213.147 342.175 213.147 340.975C213.147 339.775 212.863 338.85 212.297 338.2C211.747 337.55 211.03 337.225 210.147 337.225C209.28 337.225 208.572 337.55 208.022 338.2C207.472 338.85 207.197 339.775 207.197 340.975C207.197 342.175 207.472 343.1 208.022 343.75C208.572 344.4 209.28 344.725 210.147 344.725ZM224.075 347.275C222.975 347.275 221.983 347.017 221.1 346.5C220.233 345.967 219.541 345.233 219.025 344.3C218.525 343.35 218.275 342.242 218.275 340.975C218.275 339.708 218.525 338.608 219.025 337.675C219.541 336.725 220.233 335.992 221.1 335.475C221.983 334.942 222.975 334.675 224.075 334.675C225.208 334.675 226.208 334.942 227.075 335.475C227.958 335.992 228.65 336.725 229.15 337.675C229.65 338.608 229.9 339.708 229.9 340.975C229.9 342.242 229.65 343.35 229.15 344.3C228.65 345.233 227.958 345.967 227.075 346.5C226.208 347.017 225.208 347.275 224.075 347.275ZM224.075 344.725C224.958 344.725 225.675 344.4 226.225 343.75C226.791 343.1 227.075 342.175 227.075 340.975C227.075 339.775 226.791 338.85 226.225 338.2C225.675 337.55 224.958 337.225 224.075 337.225C223.208 337.225 222.5 337.55 221.95 338.2C221.4 338.85 221.125 339.775 221.125 340.975C221.125 342.175 221.4 343.1 221.95 343.75C222.5 344.4 223.208 344.725 224.075 344.725ZM234.252 347C233.302 347 232.827 346.508 232.827 345.525V336.45C232.827 335.467 233.252 334.975 234.102 334.975C234.952 334.975 235.394 335.192 235.427 335.625L235.502 336.4C235.836 335.933 236.277 335.533 236.827 335.2C237.377 334.85 238.027 334.675 238.777 334.675C240.027 334.675 241.044 335.075 241.827 335.875C242.627 336.675 243.027 337.85 243.027 339.4V345.525C243.027 346.508 242.561 347 241.627 347C240.677 347 240.202 346.508 240.202 345.525V340.075C240.202 339.125 240.011 338.417 239.627 337.95C239.244 337.467 238.727 337.225 238.077 337.225C237.361 337.225 236.777 337.475 236.327 337.975C235.877 338.458 235.652 339.183 235.652 340.15V345.525C235.652 346.508 235.186 347 234.252 347Z" fill="white"/>
<defs>
<radialGradient id="paint0_radial_2001_2998" cx="0" cy="0" r="1" gradientUnits="userSpaceOnUse" gradientTransform="translate(223.49 76.2231) scale(113.49 41.9913)">
<stop offset="0.58" stop-color="#FAD764" stop-opacity="0"/>
<stop offset="0.62" stop-color="#FAD764" stop-opacity="0.01"/>
<stop offset="0.7" stop-color="#FAD764" stop-opacity="0.0484"/>
<stop offset="0.81" stop-color="#FAD764" stop-opacity="0.2304"/>
<stop offset="0.94" stop-color="#FAD764" stop-opacity="0.6889"/>
<stop offset="1" stop-color="#FAD764"/>
</radialGradient>
<clipPath id="clip0_2001_2998">
<rect width="200.95" height="113.27" fill="white" transform="translate(121)"/>
</clipPath>
<clipPath id="clip1_2001_2998">
<rect width="200.95" height="113.27" fill="white" transform="translate(121)"/>
</clipPath>
</defs>
</svg>
