<svg width="359" height="142" viewBox="0 0 359 142" fill="none" xmlns="http://www.w3.org/2000/svg">
<g clip-path="url(#clip0_127_4491)">
<path d="M121.66 140.03C114.06 142.78 101.73 141.85 94.1297 137.96C86.5297 134.06 86.5297 128.67 94.1297 125.92L264.99 31.2901C277.66 26.7001 336.45 32.5701 349.13 39.0701C361.8 45.5701 361.8 54.5501 349.13 59.1401L121.67 140.04L121.66 140.03Z" fill="#FAD764"/>
<g clip-path="url(#clip1_127_4491)">
<path opacity="0.2" d="M321.231 64.1134L263.542 43.1184L281.141 37.083L338.831 58.0781L321.231 64.1134Z" fill="black"/>
<path d="M334.809 57.9168L336.993 58.7088L337.105 46.9338L334.921 46.1418L334.809 57.9168Z" fill="#B1B1B1"/>
<path d="M338.831 58.0781L336.993 58.7088L337.105 46.9338L338.943 46.3031L338.831 58.0781Z" fill="#C6C6C6"/>
<path d="M262.793 42.8456L264.977 43.644L265.004 40.7667L262.82 39.9747L262.793 42.8456Z" fill="#B1B1B1"/>
<path d="M266.814 43.0134L264.976 43.644L265.004 40.7667L266.841 40.136L266.814 43.0134Z" fill="#C6C6C6"/>
<path d="M263.338 41.2499L321.765 62.5177L321.259 61.2361L262.82 39.9747L263.338 41.2499Z" fill="#B1B1B1"/>
<path d="M319.047 63.3215L321.231 64.1135L321.258 61.2362L319.074 60.4442L319.047 63.3215Z" fill="#B1B1B1"/>
<path d="M336.536 56.5981L322.495 61.4099L322.503 60.5869L336.544 55.7751L336.536 56.5981Z" fill="#C6C6C6"/>
<path d="M336.545 55.7751L322.503 60.587L321.343 60.1482L335.384 55.3429L336.545 55.7751Z" fill="white"/>
<path d="M323.068 63.4829L321.231 64.1135L321.258 61.2362L323.098 60.3658L323.068 63.4829Z" fill="#C6C6C6"/>
<path d="M341.815 43.7314L321.765 62.5177L321.258 61.2361L341.298 42.4498L341.815 43.7314Z" fill="#C6C6C6"/>
<path d="M321.258 61.2362L341.298 42.4498L282.87 21.1885L262.82 39.9748L321.258 61.2362Z" fill="#F0F0F0"/>
<path d="M315.363 42.1648L315.054 41.2545L319.539 37.2075L321.108 36.9891L322.89 37.6476L317.156 42.8234L315.373 42.1649L315.363 42.1648ZM311.209 48.1852L316.943 43.0094L315.16 42.3508L313.591 42.5693L309.106 46.6162L309.415 47.5265L311.198 48.1851L311.209 48.1852ZM323.102 37.7209L317.367 42.8967L320.089 43.9012L325.823 38.7254L323.102 37.7209ZM299.226 51.3379L304.96 46.1621L302.239 45.1577L296.504 50.3335L299.226 51.3379ZM308.176 39.7894L302.442 44.9652L305.163 45.9696L310.898 40.7938L308.176 39.7894ZM314.123 34.4212L308.389 39.597L311.111 40.6014L316.845 35.4256L314.123 34.4212ZM308.204 54.6377L313.938 49.4619L311.217 48.4574L305.482 53.6332L308.204 54.6377ZM317.182 57.9375L322.916 52.7617L320.195 51.7572L314.46 56.933L317.182 57.9375ZM332.069 41.0206L326.335 46.1964L329.057 47.2009L334.791 42.0251L332.069 41.0206ZM326.132 46.3889L320.398 51.5647L323.119 52.5692L328.854 47.3934L326.132 46.3889ZM326.124 46.1231L331.858 40.9473L330.075 40.2888L328.506 40.5072L324.021 44.5542L324.33 45.4645L326.113 46.123L326.124 46.1231ZM320.187 51.4914L325.921 46.3156L324.138 45.6571L322.569 45.8755L318.084 49.9225L318.393 50.8328L320.176 51.4913L320.187 51.4914ZM317.154 43.0891L311.42 48.2649L314.141 49.2694L319.876 44.0936L317.154 43.0891ZM329.065 47.4731L323.33 52.6489L325.113 53.3075L326.682 53.0891L331.167 49.0421L330.858 48.1318L329.075 47.4732L329.065 47.4731ZM319.973 51.6838L318.19 51.0253L316.621 51.2437L312.136 55.2907L312.445 56.201L314.228 56.8595L319.962 51.6837L319.973 51.6838ZM308.178 39.5172L313.913 34.3414L312.13 33.6828L310.561 33.9013L306.076 37.9483L306.385 38.8585L308.168 39.5171L308.178 39.5172ZM314.149 49.5417L308.415 54.7175L310.198 55.376L311.767 55.1576L316.252 51.1106L315.943 50.2003L314.16 49.5418L314.149 49.5417ZM320.087 44.1669L314.352 49.3427L316.135 50.0012L317.704 49.7828L322.189 45.7358L321.88 44.8255L320.097 44.167L320.087 44.1669ZM336.795 42.757L335.012 42.0985L329.278 47.2743L331.061 47.9328L332.63 47.7144L337.115 43.6674L336.806 42.7571L336.795 42.757ZM323.127 52.8415L317.393 58.0173L319.176 58.6758L320.745 58.4574L325.23 54.4104L324.921 53.5001L323.138 52.8416L323.127 52.8415ZM326.034 38.7987L320.3 43.9745L322.083 44.633L323.652 44.4146L328.137 40.3676L327.828 39.4573L326.045 38.7988L326.034 38.7987ZM310.995 48.3776L309.212 47.719L307.643 47.9375L303.158 51.9845L303.467 52.8947L305.25 53.5533L310.984 48.3775L310.995 48.3776ZM302.017 45.0778L300.234 44.4193L298.665 44.6377L294.18 48.6847L294.489 49.595L296.272 50.2535L302.006 45.0777L302.017 45.0778ZM302.231 44.8854L307.965 39.7096L306.182 39.051L304.613 39.2695L300.128 43.3165L300.437 44.2267L302.22 44.8853L302.231 44.8854ZM305.171 46.2354L299.437 51.4112L301.22 52.0698L302.789 51.8513L307.274 47.8043L306.965 46.8941L305.182 46.2355L305.171 46.2354ZM317.056 35.4989L311.322 40.6747L313.105 41.3332L314.674 41.1148L319.159 37.0678L318.85 36.1575L317.067 35.499L317.056 35.4989ZM311.119 40.8672L305.385 46.043L307.168 46.7016L308.737 46.4831L313.222 42.4361L312.913 41.5259L311.13 40.8673L311.119 40.8672Z" fill="#036E9D" stroke="white" stroke-width="0.117363" stroke-miterlimit="10"/>
<path d="M288.302 32.2124L287.993 31.3021L292.478 27.2551L294.047 27.0367L295.83 27.6952L290.096 32.871L288.313 32.2125L288.302 32.2124ZM284.148 38.2393L289.882 33.0634L288.099 32.4049L286.53 32.6233L282.045 36.6703L282.354 37.5806L284.137 38.2392L284.148 38.2393ZM296.041 27.7685L290.307 32.9443L293.029 33.9488L298.763 28.773L296.041 27.7685ZM272.166 41.3855L277.9 36.2097L275.178 35.2053L269.444 40.3811L272.166 41.3855ZM281.115 29.837L275.381 35.0128L278.103 36.0172L283.837 30.8414L281.115 29.837ZM287.063 24.4688L281.329 29.6446L284.051 30.649L289.785 25.4732L287.063 24.4688ZM281.144 44.6853L286.878 39.5095L284.156 38.5051L278.422 43.6809L281.144 44.6853ZM290.122 47.9851L295.856 42.8093L293.134 41.8048L287.4 46.9806L290.122 47.9851ZM305.008 31.0682L299.274 36.244L301.996 37.2485L307.73 32.0727L305.008 31.0682ZM299.071 36.4365L293.337 41.6123L296.059 42.6168L301.793 37.441L299.071 36.4365ZM299.074 36.1708L304.808 30.995L303.025 30.3365L301.456 30.5549L296.971 34.6019L297.28 35.5122L299.063 36.1707L299.074 36.1708ZM293.126 41.539L298.86 36.3632L297.077 35.7047L295.508 35.9231L291.024 39.9701L291.333 40.8804L293.115 41.5389L293.126 41.539ZM290.093 33.1367L284.359 38.3125L287.081 39.317L292.815 34.1412L290.093 33.1367ZM302.004 37.5208L296.27 42.6966L298.053 43.3551L299.622 43.1367L304.107 39.0897L303.798 38.1794L302.015 37.5209L302.004 37.5208ZM292.912 41.7314L291.13 41.0729L289.561 41.2913L285.076 45.3383L285.385 46.2486L287.168 46.9071L292.902 41.7313L292.912 41.7314ZM281.118 29.5648L286.852 24.389L285.069 23.7304L283.5 23.9489L279.015 27.9959L279.324 28.9061L281.107 29.5647L281.118 29.5648ZM287.089 39.5893L281.355 44.7651L283.138 45.4236L284.707 45.2052L289.191 41.1582L288.882 40.2479L287.099 39.5894L287.089 39.5893ZM293.026 34.221L287.292 39.3968L289.075 40.0553L290.644 39.8369L295.129 35.7899L294.82 34.8796L293.037 34.2211L293.026 34.221ZM309.735 32.8046L307.952 32.1461L302.218 37.3219L304.001 37.9804L305.57 37.762L310.054 33.715L309.745 32.8047L309.735 32.8046ZM296.067 42.8891L290.333 48.0649L292.116 48.7234L293.685 48.505L298.169 44.458L297.86 43.5477L296.078 42.8892L296.067 42.8891ZM298.974 28.8463L293.24 34.0221L295.023 34.6806L296.592 34.4622L301.076 30.4152L300.767 29.5049L298.984 28.8464L298.974 28.8463ZM283.934 38.4252L282.152 37.7666L280.583 37.9851L276.098 42.0321L276.407 42.9423L278.19 43.6009L283.924 38.4251L283.934 38.4252ZM274.956 35.1254L273.174 34.4669L271.605 34.6853L267.12 38.7323L267.429 39.6426L269.212 40.3011L274.946 35.1253L274.956 35.1254ZM275.17 34.933L280.904 29.7572L279.121 29.0987L277.552 29.3171L273.068 33.3641L273.376 34.2744L275.159 34.9329L275.17 34.933ZM278.111 36.283L272.377 41.4588L274.16 42.1174L275.729 41.8989L280.213 37.8519L279.904 36.9417L278.121 36.2831L278.111 36.283ZM289.996 25.5465L284.262 30.7223L286.045 31.3809L287.613 31.1624L292.098 27.1154L291.789 26.2052L290.006 25.5466L289.996 25.5465ZM284.059 30.9148L278.324 36.0906L280.107 36.7492L281.676 36.5307L286.161 32.4837L285.852 31.5735L284.069 30.9149L284.059 30.9148Z" fill="#036E9D" stroke="white" stroke-width="0.117363" stroke-miterlimit="10"/>
</g>
<g clip-path="url(#clip2_127_4491)">
<path opacity="0.2" d="M272.231 83.1134L214.542 62.1184L232.141 56.083L289.831 77.0781L272.231 83.1134Z" fill="black"/>
<path d="M285.809 76.9168L287.993 77.7088L288.105 65.9338L285.921 65.1418L285.809 76.9168Z" fill="#B1B1B1"/>
<path d="M289.831 77.0781L287.993 77.7088L288.105 65.9338L289.943 65.3031L289.831 77.0781Z" fill="#C6C6C6"/>
<path d="M213.793 61.8456L215.977 62.644L216.004 59.7667L213.82 58.9747L213.793 61.8456Z" fill="#B1B1B1"/>
<path d="M217.814 62.0134L215.976 62.644L216.004 59.7667L217.841 59.136L217.814 62.0134Z" fill="#C6C6C6"/>
<path d="M214.338 60.2499L272.765 81.5177L272.259 80.2361L213.82 58.9747L214.338 60.2499Z" fill="#B1B1B1"/>
<path d="M270.047 82.3215L272.231 83.1135L272.258 80.2362L270.074 79.4442L270.047 82.3215Z" fill="#B1B1B1"/>
<path d="M287.536 75.5981L273.495 80.4099L273.503 79.5869L287.544 74.7751L287.536 75.5981Z" fill="#C6C6C6"/>
<path d="M287.545 74.7751L273.503 79.587L272.343 79.1482L286.384 74.3429L287.545 74.7751Z" fill="white"/>
<path d="M274.068 82.4829L272.231 83.1135L272.258 80.2362L274.098 79.3658L274.068 82.4829Z" fill="#C6C6C6"/>
<path d="M292.815 62.7314L272.765 81.5177L272.258 80.2361L292.298 61.4498L292.815 62.7314Z" fill="#C6C6C6"/>
<path d="M272.258 80.2362L292.298 61.4498L233.87 40.1885L213.82 58.9748L272.258 80.2362Z" fill="#F0F0F0"/>
<path d="M266.363 61.1648L266.054 60.2545L270.539 56.2075L272.108 55.9891L273.89 56.6476L268.156 61.8234L266.373 61.1649L266.363 61.1648ZM262.209 67.1852L267.943 62.0094L266.16 61.3508L264.591 61.5693L260.106 65.6162L260.415 66.5265L262.198 67.1851L262.209 67.1852ZM274.102 56.7209L268.367 61.8967L271.089 62.9012L276.823 57.7254L274.102 56.7209ZM250.226 70.3379L255.96 65.1621L253.239 64.1577L247.504 69.3335L250.226 70.3379ZM259.176 58.7894L253.442 63.9652L256.163 64.9696L261.898 59.7938L259.176 58.7894ZM265.123 53.4212L259.389 58.597L262.111 59.6014L267.845 54.4256L265.123 53.4212ZM259.204 73.6377L264.938 68.4619L262.217 67.4574L256.482 72.6332L259.204 73.6377ZM268.182 76.9375L273.916 71.7617L271.195 70.7572L265.46 75.933L268.182 76.9375ZM283.069 60.0206L277.335 65.1964L280.057 66.2009L285.791 61.0251L283.069 60.0206ZM277.132 65.3889L271.398 70.5647L274.119 71.5692L279.854 66.3934L277.132 65.3889ZM277.124 65.1231L282.858 59.9473L281.075 59.2888L279.506 59.5072L275.021 63.5542L275.33 64.4645L277.113 65.123L277.124 65.1231ZM271.187 70.4914L276.921 65.3156L275.138 64.6571L273.569 64.8755L269.084 68.9225L269.393 69.8328L271.176 70.4913L271.187 70.4914ZM268.154 62.0891L262.42 67.2649L265.141 68.2694L270.876 63.0936L268.154 62.0891ZM280.065 66.4731L274.33 71.6489L276.113 72.3075L277.682 72.0891L282.167 68.0421L281.858 67.1318L280.075 66.4732L280.065 66.4731ZM270.973 70.6838L269.19 70.0253L267.621 70.2437L263.136 74.2907L263.445 75.201L265.228 75.8595L270.962 70.6837L270.973 70.6838ZM259.178 58.5172L264.913 53.3414L263.13 52.6828L261.561 52.9013L257.076 56.9483L257.385 57.8585L259.168 58.5171L259.178 58.5172ZM265.149 68.5417L259.415 73.7175L261.198 74.376L262.767 74.1576L267.252 70.1106L266.943 69.2003L265.16 68.5418L265.149 68.5417ZM271.087 63.1669L265.352 68.3427L267.135 69.0012L268.704 68.7828L273.189 64.7358L272.88 63.8255L271.097 63.167L271.087 63.1669ZM287.795 61.757L286.012 61.0985L280.278 66.2743L282.061 66.9328L283.63 66.7144L288.115 62.6674L287.806 61.7571L287.795 61.757ZM274.127 71.8415L268.393 77.0173L270.176 77.6758L271.745 77.4574L276.23 73.4104L275.921 72.5001L274.138 71.8416L274.127 71.8415ZM277.034 57.7987L271.3 62.9745L273.083 63.633L274.652 63.4146L279.137 59.3676L278.828 58.4573L277.045 57.7988L277.034 57.7987ZM261.995 67.3776L260.212 66.719L258.643 66.9375L254.158 70.9845L254.467 71.8947L256.25 72.5533L261.984 67.3775L261.995 67.3776ZM253.017 64.0778L251.234 63.4193L249.665 63.6377L245.18 67.6847L245.489 68.595L247.272 69.2535L253.006 64.0777L253.017 64.0778ZM253.231 63.8854L258.965 58.7096L257.182 58.051L255.613 58.2695L251.128 62.3165L251.437 63.2267L253.22 63.8853L253.231 63.8854ZM256.171 65.2354L250.437 70.4112L252.22 71.0698L253.789 70.8513L258.274 66.8043L257.965 65.8941L256.182 65.2355L256.171 65.2354ZM268.056 54.4989L262.322 59.6747L264.105 60.3332L265.674 60.1148L270.159 56.0678L269.85 55.1575L268.067 54.499L268.056 54.4989ZM262.119 59.8672L256.385 65.043L258.168 65.7016L259.737 65.4831L264.222 61.4361L263.913 60.5259L262.13 59.8673L262.119 59.8672Z" fill="#036E9D" stroke="white" stroke-width="0.117363" stroke-miterlimit="10"/>
<path d="M239.302 51.2124L238.993 50.3021L243.478 46.2551L245.047 46.0367L246.83 46.6952L241.096 51.871L239.313 51.2125L239.302 51.2124ZM235.148 57.2393L240.882 52.0634L239.099 51.4049L237.53 51.6233L233.045 55.6703L233.354 56.5806L235.137 57.2392L235.148 57.2393ZM247.041 46.7685L241.307 51.9443L244.029 52.9488L249.763 47.773L247.041 46.7685ZM223.166 60.3855L228.9 55.2097L226.178 54.2053L220.444 59.3811L223.166 60.3855ZM232.115 48.837L226.381 54.0128L229.103 55.0172L234.837 49.8414L232.115 48.837ZM238.063 43.4688L232.329 48.6446L235.051 49.649L240.785 44.4732L238.063 43.4688ZM232.144 63.6853L237.878 58.5095L235.156 57.5051L229.422 62.6809L232.144 63.6853ZM241.122 66.9851L246.856 61.8093L244.134 60.8048L238.4 65.9806L241.122 66.9851ZM256.008 50.0682L250.274 55.244L252.996 56.2485L258.73 51.0727L256.008 50.0682ZM250.071 55.4365L244.337 60.6123L247.059 61.6168L252.793 56.441L250.071 55.4365ZM250.074 55.1708L255.808 49.995L254.025 49.3365L252.456 49.5549L247.971 53.6019L248.28 54.5122L250.063 55.1707L250.074 55.1708ZM244.126 60.539L249.86 55.3632L248.077 54.7047L246.508 54.9231L242.024 58.9701L242.333 59.8804L244.115 60.5389L244.126 60.539ZM241.093 52.1367L235.359 57.3125L238.081 58.317L243.815 53.1412L241.093 52.1367ZM253.004 56.5208L247.27 61.6966L249.053 62.3551L250.622 62.1367L255.107 58.0897L254.798 57.1794L253.015 56.5209L253.004 56.5208ZM243.912 60.7314L242.13 60.0729L240.561 60.2913L236.076 64.3383L236.385 65.2486L238.168 65.9071L243.902 60.7313L243.912 60.7314ZM232.118 48.5648L237.852 43.389L236.069 42.7304L234.5 42.9489L230.015 46.9959L230.324 47.9061L232.107 48.5647L232.118 48.5648ZM238.089 58.5893L232.355 63.7651L234.138 64.4236L235.707 64.2052L240.191 60.1582L239.882 59.2479L238.099 58.5894L238.089 58.5893ZM244.026 53.221L238.292 58.3968L240.075 59.0553L241.644 58.8369L246.129 54.7899L245.82 53.8796L244.037 53.2211L244.026 53.221ZM260.735 51.8046L258.952 51.1461L253.218 56.3219L255.001 56.9804L256.57 56.762L261.054 52.715L260.745 51.8047L260.735 51.8046ZM247.067 61.8891L241.333 67.0649L243.116 67.7234L244.685 67.505L249.169 63.458L248.86 62.5477L247.078 61.8892L247.067 61.8891ZM249.974 47.8463L244.24 53.0221L246.023 53.6806L247.592 53.4622L252.076 49.4152L251.767 48.5049L249.984 47.8464L249.974 47.8463ZM234.934 57.4252L233.152 56.7666L231.583 56.9851L227.098 61.0321L227.407 61.9423L229.19 62.6009L234.924 57.4251L234.934 57.4252ZM225.956 54.1254L224.174 53.4669L222.605 53.6853L218.12 57.7323L218.429 58.6426L220.212 59.3011L225.946 54.1253L225.956 54.1254ZM226.17 53.933L231.904 48.7572L230.121 48.0987L228.552 48.3171L224.068 52.3641L224.376 53.2744L226.159 53.9329L226.17 53.933ZM229.111 55.283L223.377 60.4588L225.16 61.1174L226.729 60.8989L231.213 56.8519L230.904 55.9417L229.121 55.2831L229.111 55.283ZM240.996 44.5465L235.262 49.7223L237.045 50.3809L238.613 50.1624L243.098 46.1154L242.789 45.2052L241.006 44.5466L240.996 44.5465ZM235.059 49.9148L229.324 55.0906L231.107 55.7492L232.676 55.5307L237.161 51.4837L236.852 50.5735L235.069 49.9149L235.059 49.9148Z" fill="#036E9D" stroke="white" stroke-width="0.117363" stroke-miterlimit="10"/>
</g>
<g clip-path="url(#clip3_127_4491)">
<path opacity="0.2" d="M223.634 102.113L165.945 81.1184L183.545 75.083L241.234 96.0781L223.634 102.113Z" fill="black"/>
<path d="M237.213 95.9168L239.396 96.7088L239.508 84.9338L237.324 84.1418L237.213 95.9168Z" fill="#B1B1B1"/>
<path d="M241.234 96.0781L239.397 96.7088L239.509 84.9338L241.346 84.3031L241.234 96.0781Z" fill="#C6C6C6"/>
<path d="M165.196 80.8456L167.38 81.644L167.408 78.7667L165.224 77.9747L165.196 80.8456Z" fill="#B1B1B1"/>
<path d="M169.217 81.0134L167.38 81.644L167.407 78.7667L169.244 78.136L169.217 81.0134Z" fill="#C6C6C6"/>
<path d="M165.741 79.2499L224.169 100.518L223.662 99.2361L165.224 77.9747L165.741 79.2499Z" fill="#B1B1B1"/>
<path d="M221.45 101.322L223.634 102.114L223.661 99.2362L221.478 98.4442L221.45 101.322Z" fill="#B1B1B1"/>
<path d="M238.94 94.5981L224.898 99.4099L224.906 98.5869L238.948 93.7751L238.94 94.5981Z" fill="#C6C6C6"/>
<path d="M238.948 93.7751L224.907 98.587L223.746 98.1482L237.787 93.3429L238.948 93.7751Z" fill="white"/>
<path d="M225.472 101.483L223.634 102.114L223.661 99.2362L225.501 98.3658L225.472 101.483Z" fill="#C6C6C6"/>
<path d="M244.218 81.7314L224.168 100.518L223.662 99.2361L243.701 80.4498L244.218 81.7314Z" fill="#C6C6C6"/>
<path d="M223.662 99.2362L243.701 80.4498L185.273 59.1885L165.223 77.9748L223.662 99.2362Z" fill="#F0F0F0"/>
<path d="M217.766 80.1648L217.457 79.2545L221.942 75.2075L223.511 74.9891L225.294 75.6476L219.56 80.8234L217.777 80.1649L217.766 80.1648ZM213.612 86.1852L219.346 81.0094L217.563 80.3508L215.994 80.5693L211.509 84.6162L211.818 85.5265L213.601 86.1851L213.612 86.1852ZM225.505 75.7209L219.771 80.8967L222.493 81.9012L228.227 76.7254L225.505 75.7209ZM201.63 89.3379L207.364 84.1621L204.642 83.1577L198.908 88.3335L201.63 89.3379ZM210.579 77.7894L204.845 82.9652L207.567 83.9696L213.301 78.7938L210.579 77.7894ZM216.527 72.4212L210.793 77.597L213.514 78.6014L219.249 73.4256L216.527 72.4212ZM210.608 92.6377L216.342 87.4619L213.62 86.4574L207.886 91.6332L210.608 92.6377ZM219.586 95.9375L225.32 90.7617L222.598 89.7572L216.864 94.933L219.586 95.9375ZM234.472 79.0206L228.738 84.1964L231.46 85.2009L237.194 80.0251L234.472 79.0206ZM228.535 84.3889L222.801 89.5647L225.523 90.5692L231.257 85.3934L228.535 84.3889ZM228.527 84.1231L234.261 78.9473L232.478 78.2888L230.909 78.5072L226.425 82.5542L226.734 83.4645L228.516 84.123L228.527 84.1231ZM222.59 89.4914L228.324 84.3156L226.541 83.6571L224.972 83.8755L220.487 87.9225L220.796 88.8328L222.579 89.4913L222.59 89.4914ZM219.557 81.0891L213.823 86.2649L216.545 87.2694L222.279 82.0936L219.557 81.0891ZM231.468 85.4731L225.734 90.6489L227.517 91.3075L229.086 91.0891L233.57 87.0421L233.261 86.1318L231.479 85.4732L231.468 85.4731ZM222.376 89.6838L220.593 89.0253L219.024 89.2437L214.54 93.2907L214.849 94.201L216.632 94.8595L222.366 89.6837L222.376 89.6838ZM210.582 77.5172L216.316 72.3414L214.533 71.6828L212.964 71.9013L208.479 75.9483L208.788 76.8585L210.571 77.5171L210.582 77.5172ZM216.553 87.5417L210.819 92.7175L212.601 93.376L214.17 93.1576L218.655 89.1106L218.346 88.2003L216.563 87.5418L216.553 87.5417ZM222.49 82.1669L216.756 87.3427L218.539 88.0012L220.108 87.7828L224.592 83.7358L224.283 82.8255L222.501 82.167L222.49 82.1669ZM239.199 80.757L237.416 80.0985L231.682 85.2743L233.465 85.9328L235.033 85.7144L239.518 81.6674L239.209 80.7571L239.199 80.757ZM225.531 90.8415L219.797 96.0173L221.58 96.6758L223.148 96.4574L227.633 92.4104L227.324 91.5001L225.541 90.8416L225.531 90.8415ZM228.438 76.7987L222.704 81.9745L224.486 82.633L226.055 82.4146L230.54 78.3676L230.231 77.4573L228.448 76.7988L228.438 76.7987ZM213.398 86.3776L211.615 85.719L210.047 85.9375L205.562 89.9845L205.871 90.8947L207.654 91.5533L213.388 86.3775L213.398 86.3776ZM204.42 83.0778L202.637 82.4193L201.068 82.6377L196.584 86.6847L196.893 87.595L198.675 88.2535L204.41 83.0777L204.42 83.0778ZM204.634 82.8854L210.368 77.7096L208.585 77.051L207.016 77.2695L202.531 81.3165L202.84 82.2267L204.623 82.8853L204.634 82.8854ZM207.575 84.2354L201.841 89.4112L203.623 90.0698L205.192 89.8513L209.677 85.8043L209.368 84.8941L207.585 84.2355L207.575 84.2354ZM219.46 73.4989L213.726 78.6747L215.508 79.3332L217.077 79.1148L221.562 75.0678L221.253 74.1575L219.47 73.499L219.46 73.4989ZM213.523 78.8672L207.788 84.043L209.571 84.7016L211.14 84.4831L215.625 80.4361L215.316 79.5259L213.533 78.8673L213.523 78.8672Z" fill="#036E9D" stroke="white" stroke-width="0.117363" stroke-miterlimit="10"/>
<path d="M190.706 70.2124L190.397 69.3021L194.881 65.2551L196.45 65.0367L198.233 65.6952L192.499 70.871L190.716 70.2125L190.706 70.2124ZM186.551 76.2393L192.286 71.0634L190.503 70.4049L188.934 70.6233L184.449 74.6703L184.758 75.5806L186.541 76.2392L186.551 76.2393ZM198.444 65.7685L192.71 70.9443L195.432 71.9488L201.166 66.773L198.444 65.7685ZM174.569 79.3855L180.303 74.2097L177.581 73.2053L171.847 78.3811L174.569 79.3855ZM183.518 67.837L177.784 73.0128L180.506 74.0172L186.24 68.8414L183.518 67.837ZM189.466 62.4688L183.732 67.6446L186.454 68.649L192.188 63.4732L189.466 62.4688ZM183.547 82.6853L189.281 77.5095L186.559 76.5051L180.825 81.6809L183.547 82.6853ZM192.525 85.9851L198.259 80.8093L195.537 79.8048L189.803 84.9806L192.525 85.9851ZM207.412 69.0682L201.678 74.244L204.399 75.2485L210.134 70.0727L207.412 69.0682ZM201.475 74.4365L195.74 79.6123L198.462 80.6168L204.196 75.441L201.475 74.4365ZM201.477 74.1708L207.211 68.995L205.428 68.3365L203.859 68.5549L199.375 72.6019L199.684 73.5122L201.467 74.1707L201.477 74.1708ZM195.529 79.539L201.264 74.3632L199.481 73.7047L197.912 73.9231L193.427 77.9701L193.736 78.8804L195.519 79.5389L195.529 79.539ZM192.497 71.1367L186.762 76.3125L189.484 77.317L195.218 72.1412L192.497 71.1367ZM204.407 75.5208L198.673 80.6966L200.456 81.3551L202.025 81.1367L206.51 77.0897L206.201 76.1794L204.418 75.5209L204.407 75.5208ZM195.316 79.7314L193.533 79.0729L191.964 79.2913L187.479 83.3383L187.788 84.2486L189.571 84.9071L195.305 79.7313L195.316 79.7314ZM183.521 67.5648L189.255 62.389L187.472 61.7304L185.903 61.9489L181.419 65.9959L181.728 66.9061L183.51 67.5647L183.521 67.5648ZM189.492 77.5893L183.758 82.7651L185.541 83.4236L187.11 83.2052L191.595 79.1582L191.286 78.2479L189.503 77.5894L189.492 77.5893ZM195.429 72.221L189.695 77.3968L191.478 78.0553L193.047 77.8369L197.532 73.7899L197.223 72.8796L195.44 72.2211L195.429 72.221ZM212.138 70.8046L210.355 70.1461L204.621 75.3219L206.404 75.9804L207.973 75.762L212.458 71.715L212.149 70.8047L212.138 70.8046ZM198.47 80.8891L192.736 86.0649L194.519 86.7234L196.088 86.505L200.573 82.458L200.264 81.5477L198.481 80.8892L198.47 80.8891ZM201.377 66.8463L195.643 72.0221L197.426 72.6806L198.995 72.4622L203.48 68.4152L203.171 67.5049L201.388 66.8464L201.377 66.8463ZM186.338 76.4252L184.555 75.7666L182.986 75.9851L178.501 80.0321L178.81 80.9423L180.593 81.6009L186.327 76.4251L186.338 76.4252ZM177.36 73.1254L175.577 72.4669L174.008 72.6853L169.523 76.7323L169.832 77.6426L171.615 78.3011L177.349 73.1253L177.36 73.1254ZM177.573 72.933L183.308 67.7572L181.525 67.0987L179.956 67.3171L175.471 71.3641L175.78 72.2744L177.563 72.9329L177.573 72.933ZM180.514 74.283L174.78 79.4588L176.563 80.1174L178.132 79.8989L182.617 75.8519L182.308 74.9417L180.525 74.2831L180.514 74.283ZM192.399 63.5465L186.665 68.7223L188.448 69.3809L190.017 69.1624L194.502 65.1154L194.193 64.2052L192.41 63.5466L192.399 63.5465ZM186.462 68.9148L180.728 74.0906L182.511 74.7492L184.08 74.5307L188.564 70.4837L188.255 69.5735L186.473 68.9149L186.462 68.9148Z" fill="#036E9D" stroke="white" stroke-width="0.117363" stroke-miterlimit="10"/>
</g>
<g clip-path="url(#clip4_127_4491)">
<g clip-path="url(#clip5_127_4491)">
<path d="M165.458 98.14L140 88.0212L152.637 83L178.095 93.1188L165.458 98.14Z" fill="#F0F0F0"/>
<path d="M140 113.048L165.458 123.166V98.14L140 88.0212V113.048Z" fill="#C6C6C6"/>
<g style="mix-blend-mode:multiply">
<path d="M141.132 97.2638L147.453 99.7761V95.6575L141.132 93.1453V97.2638Z" fill="#C6C6C6"/>
</g>
<g style="mix-blend-mode:multiply">
<path d="M141.132 97.2639L147.453 99.7762V99.3713L141.132 96.859V97.2639Z" fill="#C6C6C6"/>
</g>
<g style="mix-blend-mode:multiply">
<path d="M140 91.34L165.458 101.459V98.14L140 88.0212V91.34Z" fill="#C6C6C6"/>
</g>
<path d="M178.095 118.145L165.458 123.166V98.14L178.095 93.1188V118.145Z" fill="#B1B1B1"/>
<path d="M148.798 116.154V91.3698" stroke="white" stroke-opacity="0.5"/>
<path d="M162.49 109.58C162.49 112.59 159.913 113.811 156.733 112.304C153.553 110.798 150.971 107.137 150.971 104.124C150.971 101.114 153.548 99.8923 156.728 101.399C159.908 102.906 162.49 106.566 162.49 109.58Z" fill="#4B4A48"/>
<path d="M160.196 104.469L156.766 102.819L154.482 106.241L155.884 106.935L153.822 109.799L153.885 109.828L159.58 107.532L157.248 106.427L160.196 104.469Z" fill="#FFE68C"/>
<g style="mix-blend-mode:multiply">
<path d="M178.095 96.4375L165.458 101.459V98.14L178.095 93.1188V96.4375Z" fill="#C6C6C6"/>
</g>
<g style="mix-blend-mode:multiply">
<path d="M140 113.048L165.458 123.166V122.615L140 112.497V113.048Z" fill="#C6C6C6"/>
</g>
<g style="mix-blend-mode:multiply">
<path d="M178.095 118.145L165.458 123.166V122.615L178.095 117.591V118.145Z" fill="#C6C6C6"/>
</g>
<path d="M148.798 91.3698L160.939 86.5377" stroke="white" stroke-opacity="0.5"/>
</g>
</g>
</g>
<defs>
<clipPath id="clip0_127_4491">
<rect width="358.63" height="141.62" fill="white"/>
</clipPath>
<clipPath id="clip1_127_4491">
<rect width="79.0268" height="42.5591" fill="white" transform="translate(263 21) rotate(0.543567)"/>
</clipPath>
<clipPath id="clip2_127_4491">
<rect width="79.0268" height="42.5591" fill="white" transform="translate(214 40) rotate(0.543567)"/>
</clipPath>
<clipPath id="clip3_127_4491">
<rect width="79.0268" height="42.5591" fill="white" transform="translate(165.403 59) rotate(0.543567)"/>
</clipPath>
<clipPath id="clip4_127_4491">
<rect width="38" height="40" fill="white" transform="translate(140 83)"/>
</clipPath>
<clipPath id="clip5_127_4491">
<rect width="38.0951" height="40.1664" fill="white" transform="translate(140 83)"/>
</clipPath>
</defs>
</svg>
