<svg width="227" height="120" viewBox="0 0 227 120" fill="none" xmlns="http://www.w3.org/2000/svg">
<path d="M113.49 119.32C176.169 119.32 226.98 100.668 226.98 77.66C226.98 54.6518 176.169 36 113.49 36C50.8112 36 0 54.6518 0 77.66C0 100.668 50.8112 119.32 113.49 119.32Z" fill="url(#paint0_radial_127_6055)"/>
<g clip-path="url(#clip0_127_6055)">
<g style="mix-blend-mode:multiply" opacity="0.3">
<path d="M124.869 110.14L18.1895 67.59L27.1895 63.55L133.879 106.1L124.869 110.14Z" fill="#434343"/>
</g>
<g style="mix-blend-mode:multiply" opacity="0.3">
<path d="M139.809 104.6L33.1191 62.05L42.1191 58L148.809 100.55L139.809 104.6Z" fill="#434343"/>
</g>
<g style="mix-blend-mode:multiply" opacity="0.3">
<path d="M154.741 99.06L48.0508 56.51L57.0608 52.46L163.741 95.01L154.741 99.06Z" fill="#434343"/>
</g>
<g style="mix-blend-mode:multiply" opacity="0.3">
<path d="M169.67 93.51L62.9902 50.97L71.9902 46.92L178.68 89.47L169.67 93.51Z" fill="#434343"/>
</g>
<g style="mix-blend-mode:multiply" opacity="0.3">
<path d="M184.61 87.97L77.9199 45.42L86.9199 41.37L193.61 83.92L184.61 87.97Z" fill="#434343"/>
</g>
<g style="mix-blend-mode:multiply" opacity="0.3">
<path d="M199.54 82.43L92.8496 39.88L101.86 35.83L208.54 78.38L199.54 82.43Z" fill="#434343"/>
</g>
<g clip-path="url(#clip1_127_6055)">
<path d="M65.8398 57.7V91.93" stroke="#C6C6C6" stroke-miterlimit="10"/>
<path d="M120.18 113.27V79.05" stroke="#C6C6C6" stroke-miterlimit="10"/>
<path d="M11.5 36.36V70.58" stroke="#C6C6C6" stroke-miterlimit="10"/>
<path d="M150.6 67.4399V101.66" stroke="#C6C6C6" stroke-miterlimit="10"/>
<path d="M181.02 55.84V90.06" stroke="#C6C6C6" stroke-miterlimit="10"/>
<path d="M65.8398 57.7V91.93" stroke="#C6C6C6" stroke-miterlimit="10"/>
<path d="M96.2598 46.1V80.32" stroke="#C6C6C6" stroke-miterlimit="10"/>
<path d="M126.68 68.72V34.49" stroke="#C6C6C6" stroke-miterlimit="10"/>
<path d="M211.449 44.23V78.45" stroke="#C6C6C6" stroke-miterlimit="10"/>
<path d="M157.109 22.89V57.11" stroke="#C6C6C6" stroke-miterlimit="10"/>
<path d="M41.9199 24.75V58.98" stroke="#C6C6C6" stroke-miterlimit="10"/>
<path d="M72.3398 13.15V47.37" stroke="#C6C6C6" stroke-miterlimit="10"/>
<path d="M102.77 1.54004V35.77" stroke="#C6C6C6" stroke-miterlimit="10"/>
<path d="M102.92 31.15L72.4902 42.76" stroke="#C6C6C6" stroke-miterlimit="10"/>
<path d="M72.4903 42.76L42.0703 54.36" stroke="#C6C6C6" stroke-miterlimit="10"/>
<path d="M42.0704 54.36L11.6504 65.97" stroke="#C6C6C6" stroke-miterlimit="10"/>
<path d="M157.131 52.02L126.711 63.63" stroke="#C6C6C6" stroke-miterlimit="10"/>
<path d="M126.709 63.63L96.2891 75.23" stroke="#C6C6C6" stroke-miterlimit="10"/>
<path d="M96.2891 75.23L65.8691 86.84" stroke="#C6C6C6" stroke-miterlimit="10"/>
<path d="M211.35 72.89L180.93 84.49" stroke="#C6C6C6" stroke-miterlimit="10"/>
<path d="M180.93 84.49L150.51 96.1" stroke="#C6C6C6" stroke-miterlimit="10"/>
<path d="M150.51 96.1L120.09 107.71" stroke="#C6C6C6" stroke-miterlimit="10"/>
<path d="M102.92 2.5L72.4902 14.1" stroke="#C6C6C6" stroke-miterlimit="10"/>
<path d="M72.4903 14.1L42.0703 25.71" stroke="#C6C6C6" stroke-miterlimit="10"/>
<path d="M42.0704 25.71L11.6504 37.31" stroke="#C6C6C6" stroke-miterlimit="10"/>
<path d="M157.131 23.36L126.711 34.97" stroke="#C6C6C6" stroke-miterlimit="10"/>
<path d="M126.709 34.97L96.2891 46.58" stroke="#C6C6C6" stroke-miterlimit="10"/>
<path d="M96.2891 46.58L65.8691 58.18" stroke="#C6C6C6" stroke-miterlimit="10"/>
<path d="M211.35 44.23L180.93 55.84" stroke="#C6C6C6" stroke-miterlimit="10"/>
<path d="M180.93 55.84L150.51 67.44" stroke="#C6C6C6" stroke-miterlimit="10"/>
<path d="M150.51 67.4399L120.09 79.0499" stroke="#C6C6C6" stroke-miterlimit="10"/>
<path d="M11.5 65.02L120.18 107.71" stroke="#C6C6C6" stroke-miterlimit="10"/>
<path d="M41.8301 53.41L150.51 96.1" stroke="#C6C6C6" stroke-miterlimit="10"/>
<path d="M72.1602 41.8101L180.84 84.4901" stroke="#C6C6C6" stroke-miterlimit="10"/>
<path d="M102.49 30.2L211.17 72.8899" stroke="#C6C6C6" stroke-miterlimit="10"/>
<path d="M11.5 36.36L120.18 79.05" stroke="#C6C6C6" stroke-miterlimit="10"/>
<path d="M41.9199 24.75L150.6 67.44" stroke="#C6C6C6" stroke-miterlimit="10"/>
<path d="M72.3398 13.15L181.02 55.84" stroke="#C6C6C6" stroke-miterlimit="10"/>
<path d="M102.77 1.54004L211.45 44.23" stroke="#C6C6C6" stroke-miterlimit="10"/>
<path d="M145.091 27.59L152.241 20.54L99.7108 0L92.5508 7.05L145.091 27.59Z" fill="#F0F0F0"/>
<path d="M125.25 18.5301L130.49 13.2601L127.97 12.2801L122.73 17.5501L125.25 18.5301ZM133.56 21.7701L138.8 16.5001L136.28 15.5201L131.04 20.7901L133.56 21.7701ZM141.86 25.0101L147.1 19.7401L144.58 18.7601L139.34 24.0301L141.86 25.0101ZM144.39 18.6801L142.74 18.0401L141.3 18.2801L137.2 22.4001L137.5 23.3201L139.15 23.9601L144.39 18.6901V18.6801ZM139 16.5801L133.76 21.8501L135.41 22.4901L136.85 22.2501L140.95 18.1301L140.65 17.2101L139 16.5701V16.5801ZM147.3 19.8201L142.06 25.0901L143.71 25.7301L145.15 25.4901L149.25 21.3701L148.95 20.4501L147.3 19.8101V19.8201ZM136.08 15.4401L134.43 14.8001L132.99 15.0401L128.89 19.1601L129.19 20.0801L130.84 20.7201L136.08 15.4501V15.4401ZM127.78 12.2001L126.13 11.5601L124.69 11.8001L120.59 15.9201L120.89 16.8401L122.54 17.4801L127.78 12.2101V12.2001ZM130.69 13.3401L125.45 18.6101L127.1 19.2501L128.54 19.0101L132.64 14.8901L132.34 13.9701L130.69 13.3301V13.3401Z" fill="#036EA3" stroke="white" stroke-width="0.1" stroke-miterlimit="10"/>
<path d="M100.221 8.76004L105.461 3.49004L102.941 2.51004L97.7008 7.78004L100.221 8.76004ZM108.521 12L113.761 6.73004L111.241 5.75004L106.001 11.02L108.521 12ZM116.831 15.24L122.071 9.97004L119.551 8.99004L114.311 14.26L116.831 15.24ZM119.351 8.91004L117.701 8.27004L116.261 8.51004L112.161 12.63L112.461 13.55L114.111 14.19L119.351 8.92004V8.91004ZM113.961 6.81004L108.721 12.08L110.371 12.72L111.811 12.48L115.911 8.36004L115.611 7.44004L113.961 6.80004V6.81004ZM122.261 10.05L117.021 15.32L118.671 15.96L120.111 15.72L124.211 11.6L123.911 10.68L122.261 10.04V10.05ZM111.041 5.67004L109.391 5.03004L107.951 5.27004L103.851 9.39004L104.151 10.31L105.801 10.95L111.041 5.68004V5.67004ZM102.741 2.43004L101.091 1.79004L99.6508 2.03004L95.5508 6.15004L95.8508 7.07004L97.5008 7.71004L102.741 2.44004V2.43004ZM105.651 3.57004L100.411 8.84004L102.061 9.48004L103.501 9.24004L107.601 5.12004L107.301 4.20004L105.651 3.56004V3.57004Z" fill="#036EA3" stroke="white" stroke-width="0.1" stroke-miterlimit="10"/>
<path d="M130.001 33.2L137.151 26.15L84.6207 5.60999L77.4707 12.66L130.001 33.2Z" fill="#F0F0F0"/>
<path d="M110.17 24.14L115.41 18.87L112.89 17.89L107.65 23.16L110.17 24.14ZM118.47 27.38L123.71 22.11L121.19 21.13L115.95 26.4L118.47 27.38ZM126.78 30.62L132.02 25.35L129.5 24.37L124.26 29.64L126.78 30.62ZM129.3 24.29L127.65 23.65L126.21 23.89L122.11 28.01L122.41 28.93L124.06 29.57L129.3 24.3V24.29ZM123.91 22.18L118.67 27.45L120.32 28.09L121.76 27.85L125.86 23.73L125.56 22.81L123.91 22.17V22.18ZM132.21 25.42L126.97 30.69L128.62 31.33L130.06 31.09L134.16 26.97L133.86 26.05L132.21 25.41V25.42ZM120.99 21.05L119.34 20.41L117.9 20.65L113.8 24.77L114.1 25.69L115.75 26.33L120.99 21.06V21.05ZM112.69 17.81L111.04 17.17L109.6 17.41L105.5 21.53L105.8 22.45L107.45 23.09L112.69 17.82V17.81ZM115.6 18.94L110.36 24.21L112.01 24.85L113.45 24.61L117.55 20.49L117.25 19.57L115.6 18.93V18.94Z" fill="#036EA3" stroke="white" stroke-width="0.1" stroke-miterlimit="10"/>
<path d="M85.1309 14.37L90.3709 9.10002L87.8509 8.12002L82.6109 13.39L85.1309 14.37ZM93.4309 17.61L98.6709 12.34L96.1509 11.36L90.9109 16.63L93.4309 17.61ZM101.741 20.85L106.981 15.58L104.461 14.6L99.2209 19.87L101.741 20.85ZM104.261 14.52L102.611 13.88L101.171 14.12L97.0709 18.24L97.3709 19.16L99.0209 19.8L104.261 14.53V14.52ZM98.8709 12.42L93.6309 17.69L95.2809 18.33L96.7209 18.09L100.821 13.97L100.521 13.05L98.8709 12.41V12.42ZM107.171 15.66L101.931 20.93L103.581 21.57L105.021 21.33L109.121 17.21L108.821 16.29L107.171 15.65V15.66ZM95.9509 11.28L94.3009 10.64L92.8609 10.88L88.7609 15L89.0609 15.92L90.7109 16.56L95.9509 11.29V11.28ZM87.6509 8.04002L86.0009 7.40002L84.5609 7.64002L80.4609 11.76L80.7609 12.68L82.4109 13.32L87.6509 8.05002V8.04002ZM90.5609 9.18002L85.3209 14.45L86.9709 15.09L88.4109 14.85L92.5109 10.73L92.2109 9.81002L90.5609 9.17002V9.18002Z" fill="#036EA3" stroke="white" stroke-width="0.1" stroke-miterlimit="10"/>
<path d="M199.51 48.87L206.67 41.82L154.14 21.28L146.98 28.33L199.51 48.87Z" fill="#F0F0F0"/>
<path d="M179.68 39.81L184.92 34.54L182.4 33.56L177.16 38.83L179.68 39.81ZM187.99 43.05L193.23 37.78L190.71 36.8L185.47 42.07L187.99 43.05ZM196.29 46.29L201.53 41.02L199.01 40.04L193.77 45.31L196.29 46.29ZM198.81 39.96L197.16 39.32L195.72 39.56L191.62 43.68L191.92 44.6L193.57 45.24L198.81 39.97V39.96ZM193.42 37.86L188.18 43.13L189.83 43.77L191.27 43.53L195.37 39.41L195.07 38.49L193.42 37.85V37.86ZM201.73 41.1L196.49 46.37L198.14 47.01L199.58 46.77L203.68 42.65L203.38 41.73L201.73 41.09V41.1ZM190.51 36.72L188.86 36.08L187.42 36.32L183.32 40.44L183.62 41.36L185.27 42L190.51 36.73V36.72ZM182.2 33.48L180.55 32.84L179.11 33.08L175.01 37.2L175.31 38.12L176.96 38.76L182.2 33.49V33.48ZM185.12 34.62L179.88 39.89L181.53 40.53L182.97 40.29L187.07 36.17L186.77 35.25L185.12 34.61V34.62Z" fill="#036EA3" stroke="white" stroke-width="0.1" stroke-miterlimit="10"/>
<path d="M154.641 30.0499L159.881 24.7799L157.361 23.7999L152.121 29.0699L154.641 30.0499ZM162.951 33.2899L168.191 28.0199L165.671 27.0399L160.431 32.3099L162.951 33.2899ZM171.251 36.5199L176.491 31.2499L173.971 30.2699L168.731 35.5399L171.251 36.5199ZM173.771 30.1899L172.121 29.5499L170.681 29.7899L166.581 33.9099L166.881 34.8299L168.531 35.4699L173.771 30.1999V30.1899ZM168.381 28.0899L163.141 33.3599L164.791 33.9999L166.231 33.7599L170.331 29.6399L170.031 28.7199L168.381 28.0799V28.0899ZM176.691 31.3299L171.451 36.5999L173.101 37.2399L174.541 36.9999L178.641 32.8799L178.341 31.9599L176.691 31.3199V31.3299ZM165.471 26.9499L163.821 26.3099L162.381 26.5499L158.281 30.6699L158.581 31.5899L160.231 32.2299L165.471 26.9599V26.9499ZM157.161 23.7099L155.511 23.0699L154.071 23.3099L149.971 27.4299L150.271 28.3499L151.921 28.9899L157.161 23.7199V23.7099ZM160.081 24.8499L154.841 30.1199L156.491 30.7599L157.931 30.5199L162.031 26.3999L161.731 25.4799L160.081 24.8399V24.8499Z" fill="#036EA3" stroke="white" stroke-width="0.1" stroke-miterlimit="10"/>
<path d="M184.421 54.48L191.581 47.43L139.051 26.89L131.891 33.94L184.421 54.48Z" fill="#F0F0F0"/>
<path d="M164.59 45.4199L169.83 40.15L167.31 39.1699L162.07 44.4399L164.59 45.4199ZM172.9 48.66L178.14 43.3899L175.62 42.41L170.38 47.68L172.9 48.66ZM181.2 51.9L186.44 46.63L183.92 45.65L178.68 50.9199L181.2 51.9ZM183.72 45.57L182.07 44.93L180.63 45.1699L176.53 49.29L176.83 50.2099L178.48 50.8499L183.72 45.58V45.57ZM178.33 43.47L173.09 48.74L174.74 49.38L176.18 49.1399L180.28 45.02L179.98 44.0999L178.33 43.4599V43.47ZM186.64 46.7099L181.4 51.9799L183.05 52.6199L184.49 52.38L188.59 48.2599L188.29 47.34L186.64 46.7V46.7099ZM175.42 42.33L173.77 41.6899L172.33 41.93L168.23 46.0499L168.53 46.97L170.18 47.61L175.42 42.34V42.33ZM167.11 39.09L165.46 38.45L164.02 38.6899L159.92 42.81L160.22 43.7299L161.87 44.3699L167.11 39.0999V39.09ZM170.03 40.2299L164.79 45.5L166.44 46.1399L167.88 45.9L171.98 41.7799L171.68 40.86L170.03 40.22V40.2299Z" fill="#036EA3" stroke="white" stroke-width="0.1" stroke-miterlimit="10"/>
<path d="M139.551 35.6501L144.791 30.3801L142.271 29.4001L137.031 34.6701L139.551 35.6501ZM147.861 38.8901L153.101 33.6201L150.581 32.6401L145.341 37.9101L147.861 38.8901ZM156.161 42.1301L161.401 36.8601L158.881 35.8801L153.641 41.1501L156.161 42.1301ZM158.681 35.8001L157.031 35.1601L155.591 35.4001L151.491 39.5201L151.791 40.4401L153.441 41.0801L158.681 35.8101V35.8001ZM153.291 33.7001L148.051 38.9701L149.701 39.6101L151.141 39.3701L155.241 35.2501L154.941 34.3301L153.291 33.6901V33.7001ZM161.601 36.9401L156.361 42.2101L158.011 42.8501L159.451 42.6101L163.551 38.4901L163.251 37.5701L161.601 36.9301V36.9401ZM150.381 32.5601L148.731 31.9201L147.291 32.1601L143.191 36.2801L143.491 37.2001L145.141 37.8401L150.381 32.5701V32.5601ZM142.071 29.3201L140.421 28.6801L138.981 28.9201L134.881 33.0401L135.181 33.9601L136.831 34.6001L142.071 29.3301V29.3201ZM144.991 30.4601L139.751 35.7301L141.401 36.3701L142.841 36.1301L146.941 32.0101L146.641 31.0901L144.991 30.4501V30.4601Z" fill="#036EA3" stroke="white" stroke-width="0.1" stroke-miterlimit="10"/>
<path d="M113.94 38.8901L121.09 31.8401L68.5602 11.3101L61.4102 18.3601L113.94 38.8901Z" fill="#F0F0F0"/>
<path d="M94.1095 29.84L99.3494 24.57L96.8295 23.59L91.5894 28.86L94.1095 29.84ZM102.409 33.08L107.649 27.81L105.129 26.83L99.8895 32.1L102.409 33.08ZM110.719 36.32L115.959 31.05L113.439 30.07L108.199 35.34L110.719 36.32ZM113.239 29.98L111.589 29.34L110.149 29.58L106.049 33.7L106.349 34.62L107.999 35.26L113.239 29.99V29.98ZM107.849 27.88L102.609 33.15L104.259 33.79L105.699 33.55L109.799 29.43L109.499 28.51L107.849 27.87V27.88ZM116.149 31.12L110.909 36.39L112.559 37.03L113.999 36.79L118.099 32.67L117.799 31.75L116.149 31.11V31.12ZM104.929 26.74L103.279 26.1L101.839 26.34L97.7394 30.46L98.0395 31.38L99.6895 32.02L104.929 26.75V26.74ZM96.6294 23.5L94.9795 22.86L93.5395 23.1L89.4395 27.22L89.7394 28.14L91.3895 28.78L96.6294 23.51V23.5ZM99.5395 24.64L94.2995 29.91L95.9494 30.55L97.3895 30.31L101.489 26.19L101.189 25.27L99.5395 24.63V24.64Z" fill="#036EA3" stroke="white" stroke-width="0.1" stroke-miterlimit="10"/>
<path d="M69.0704 20.07L74.3104 14.8L71.7904 13.82L66.5504 19.09L69.0704 20.07ZM77.3704 23.31L82.6104 18.04L80.0904 17.06L74.8504 22.33L77.3704 23.31ZM85.6804 26.55L90.9204 21.28L88.4004 20.3L83.1604 25.57L85.6804 26.55ZM88.2004 20.22L86.5504 19.58L85.1104 19.82L81.0104 23.94L81.3104 24.86L82.9604 25.5L88.2004 20.23V20.22ZM82.8104 18.12L77.5704 23.39L79.2204 24.03L80.6604 23.79L84.7604 19.67L84.4604 18.75L82.8104 18.11V18.12ZM91.1104 21.35L85.8704 26.62L87.5204 27.26L88.9604 27.02L93.0604 22.9L92.7604 21.98L91.1104 21.34V21.35ZM79.8904 16.98L78.2404 16.34L76.8004 16.58L72.7004 20.7L73.0004 21.62L74.6504 22.26L79.8904 16.99V16.98ZM71.5904 13.74L69.9404 13.1L68.5004 13.34L64.4004 17.46L64.7004 18.38L66.3504 19.02L71.5904 13.75V13.74ZM74.5004 14.88L69.2604 20.15L70.9104 20.79L72.3504 20.55L76.4504 16.43L76.1504 15.51L74.5004 14.87V14.88Z" fill="#036EA3" stroke="white" stroke-width="0.1" stroke-miterlimit="10"/>
<path d="M98.8503 44.5L106.01 37.45L53.4703 16.92L46.3203 23.97L98.8503 44.5Z" fill="#F0F0F0"/>
<path d="M79.0196 35.44L84.2596 30.17L81.7396 29.19L76.4996 34.46L79.0196 35.44ZM87.3196 38.68L92.5596 33.41L90.0396 32.43L84.7996 37.7L87.3196 38.68ZM95.6296 41.92L100.87 36.65L98.3496 35.67L93.1096 40.94L95.6296 41.92ZM98.1496 35.59L96.4996 34.95L95.0596 35.19L90.9596 39.31L91.2596 40.23L92.9096 40.87L98.1496 35.6V35.59ZM92.7596 33.49L87.5196 38.76L89.1696 39.4L90.6096 39.16L94.7096 35.04L94.4096 34.12L92.7596 33.48V33.49ZM101.06 36.73L95.8196 42L97.4696 42.64L98.9096 42.4L103.01 38.28L102.71 37.36L101.06 36.72V36.73ZM89.8396 32.35L88.1896 31.71L86.7496 31.95L82.6496 36.07L82.9496 36.99L84.5996 37.63L89.8396 32.36V32.35ZM81.5396 29.11L79.8896 28.47L78.4496 28.71L74.3496 32.83L74.6496 33.75L76.2996 34.39L81.5396 29.12V29.11ZM84.4496 30.25L79.2096 35.52L80.8596 36.16L82.2996 35.92L86.3996 31.8L86.0996 30.88L84.4496 30.24V30.25Z" fill="#036EA3" stroke="white" stroke-width="0.1" stroke-miterlimit="10"/>
<path d="M53.9805 25.68L59.2205 20.41L56.7005 19.43L51.4605 24.7L53.9805 25.68ZM62.2805 28.92L67.5205 23.65L65.0005 22.67L59.7605 27.94L62.2805 28.92ZM70.5905 32.16L75.8305 26.89L73.3105 25.91L68.0705 31.18L70.5905 32.16ZM73.1105 25.83L71.4605 25.19L70.0205 25.43L65.9205 29.55L66.2205 30.47L67.8705 31.11L73.1105 25.84V25.83ZM67.7205 23.72L62.4805 28.99L64.1305 29.63L65.5705 29.39L69.6705 25.27L69.3705 24.35L67.7205 23.71V23.72ZM76.0305 26.96L70.7905 32.23L72.4405 32.87L73.8805 32.63L77.9805 28.51L77.6805 27.59L76.0305 26.95V26.96ZM64.8105 22.59L63.1605 21.95L61.7205 22.19L57.6205 26.31L57.9205 27.23L59.5705 27.87L64.8105 22.6V22.59ZM56.5005 19.35L54.8505 18.71L53.4105 18.95L49.3105 23.07L49.6105 23.99L51.2605 24.63L56.5005 19.36V19.35ZM59.4205 20.48L54.1805 25.75L55.8305 26.39L57.2705 26.15L61.3705 22.03L61.0705 21.11L59.4205 20.47V20.48Z" fill="#036EA3" stroke="white" stroke-width="0.1" stroke-miterlimit="10"/>
<path d="M168.36 60.18L175.52 53.13L122.99 32.59L115.83 39.64L168.36 60.18Z" fill="#F0F0F0"/>
<path d="M148.529 51.12L153.769 45.85L151.249 44.87L146.009 50.14L148.529 51.12ZM156.839 54.36L162.079 49.09L159.559 48.11L154.319 53.38L156.839 54.36ZM165.139 57.6L170.379 52.33L167.859 51.35L162.619 56.62L165.139 57.6ZM167.659 51.27L166.009 50.63L164.569 50.87L160.469 54.99L160.769 55.91L162.419 56.55L167.659 51.28V51.27ZM162.269 49.16L157.029 54.43L158.679 55.07L160.119 54.83L164.219 50.71L163.919 49.79L162.269 49.15V49.16ZM170.579 52.4L165.339 57.67L166.989 58.31L168.429 58.07L172.529 53.95L172.229 53.03L170.579 52.39V52.4ZM159.359 48.03L157.709 47.39L156.269 47.63L152.169 51.75L152.469 52.67L154.119 53.31L159.359 48.04V48.03ZM151.049 44.79L149.399 44.15L147.959 44.39L143.859 48.51L144.159 49.43L145.809 50.07L151.049 44.8V44.79ZM153.969 45.92L148.729 51.19L150.379 51.83L151.819 51.59L155.919 47.47L155.619 46.55L153.969 45.91V45.92Z" fill="#036EA3" stroke="white" stroke-width="0.1" stroke-miterlimit="10"/>
<path d="M123.49 41.35L128.73 36.08L126.21 35.1L120.97 40.37L123.49 41.35ZM131.8 44.59L137.04 39.32L134.52 38.34L129.28 43.61L131.8 44.59ZM140.1 47.83L145.34 42.56L142.82 41.58L137.58 46.85L140.1 47.83ZM142.62 41.5L140.97 40.86L139.53 41.1L135.43 45.22L135.73 46.14L137.38 46.78L142.62 41.51V41.5ZM137.23 39.4L131.99 44.67L133.64 45.31L135.08 45.07L139.18 40.95L138.88 40.03L137.23 39.39V39.4ZM145.54 42.64L140.3 47.91L141.95 48.55L143.39 48.31L147.49 44.19L147.19 43.27L145.54 42.63V42.64ZM134.32 38.26L132.67 37.62L131.23 37.86L127.13 41.98L127.43 42.9L129.08 43.54L134.32 38.27V38.26ZM126.01 35.02L124.36 34.38L122.92 34.62L118.82 38.74L119.12 39.66L120.77 40.3L126.01 35.03V35.02ZM128.93 36.16L123.69 41.43L125.34 42.07L126.78 41.83L130.88 37.71L130.58 36.79L128.93 36.15V36.16Z" fill="#036EA3" stroke="white" stroke-width="0.1" stroke-miterlimit="10"/>
<path d="M153.28 65.79L160.43 58.74L107.9 38.2L100.74 45.25L153.28 65.79Z" fill="#F0F0F0"/>
<path d="M133.439 56.73L138.679 51.46L136.159 50.48L130.919 55.75L133.439 56.73ZM141.749 59.97L146.989 54.7L144.469 53.72L139.229 58.99L141.749 59.97ZM150.049 63.21L155.289 57.94L152.769 56.96L147.529 62.23L150.049 63.21ZM152.579 56.88L150.929 56.24L149.489 56.48L145.389 60.6L145.689 61.52L147.339 62.16L152.579 56.89V56.88ZM147.189 54.77L141.949 60.04L143.599 60.68L145.039 60.44L149.139 56.32L148.839 55.4L147.189 54.76V54.77ZM155.489 58.01L150.249 63.28L151.899 63.92L153.339 63.68L157.439 59.56L157.139 58.64L155.489 58V58.01ZM144.269 53.64L142.619 53L141.179 53.24L137.079 57.36L137.379 58.28L139.029 58.92L144.269 53.65V53.64ZM135.969 50.4L134.319 49.76L132.879 50L128.779 54.12L129.079 55.04L130.729 55.68L135.969 50.41V50.4ZM138.879 51.53L133.639 56.8L135.289 57.44L136.729 57.2L140.829 53.08L140.529 52.16L138.879 51.52V51.53Z" fill="#036EA3" stroke="white" stroke-width="0.1" stroke-miterlimit="10"/>
<path d="M108.4 46.96L113.64 41.69L111.12 40.71L105.88 45.98L108.4 46.96ZM116.71 50.2L121.95 44.93L119.43 43.95L114.19 49.22L116.71 50.2ZM125.01 53.44L130.25 48.17L127.73 47.19L122.49 52.46L125.01 53.44ZM127.54 47.11L125.89 46.47L124.45 46.71L120.35 50.83L120.65 51.75L122.3 52.39L127.54 47.12V47.11ZM122.15 45.01L116.91 50.28L118.56 50.92L120 50.68L124.1 46.56L123.8 45.64L122.15 45V45.01ZM130.45 48.25L125.21 53.52L126.86 54.16L128.3 53.92L132.4 49.8L132.1 48.88L130.45 48.24V48.25ZM119.23 43.87L117.58 43.23L116.14 43.47L112.04 47.59L112.34 48.51L113.99 49.15L119.23 43.88V43.87ZM110.93 40.63L109.28 39.99L107.84 40.23L103.74 44.35L104.04 45.27L105.69 45.91L110.93 40.64V40.63ZM113.84 41.77L108.6 47.04L110.25 47.68L111.69 47.44L115.79 43.32L115.49 42.4L113.84 41.76V41.77Z" fill="#036EA3" stroke="white" stroke-width="0.1" stroke-miterlimit="10"/>
<path d="M82.7898 50.2L89.9498 43.15L37.4198 22.61L30.2598 29.66L82.7898 50.2Z" fill="#F0F0F0"/>
<path d="M62.9591 41.14L68.1991 35.87L65.6791 34.89L60.4391 40.16L62.9591 41.14ZM71.2591 44.38L76.4991 39.11L73.9791 38.13L68.7391 43.4L71.2591 44.38ZM79.5691 47.62L84.8091 42.35L82.2891 41.37L77.0491 46.64L79.5691 47.62ZM82.0891 41.29L80.4391 40.65L78.9991 40.89L74.8991 45.01L75.1991 45.93L76.8491 46.57L82.0891 41.3V41.29ZM76.6991 39.19L71.4591 44.46L73.1091 45.1L74.5491 44.86L78.6491 40.74L78.3491 39.82L76.6991 39.18V39.19ZM84.9991 42.43L79.7591 47.7L81.4091 48.34L82.8491 48.1L86.9491 43.98L86.6491 43.06L84.9991 42.42V42.43ZM73.7791 38.05L72.1291 37.41L70.6891 37.65L66.5891 41.77L66.8891 42.69L68.5391 43.33L73.7791 38.06V38.05ZM65.4791 34.81L63.8291 34.17L62.3891 34.41L58.2891 38.53L58.5891 39.45L60.2391 40.09L65.4791 34.82V34.81ZM68.3891 35.95L63.1491 41.22L64.7991 41.86L66.2391 41.62L70.3391 37.5L70.0391 36.58L68.3891 35.94V35.95Z" fill="#036EA3" stroke="white" stroke-width="0.1" stroke-miterlimit="10"/>
<path d="M37.92 31.38L43.16 26.11L40.64 25.13L35.4 30.4L37.92 31.38ZM46.22 34.62L51.46 29.35L48.94 28.37L43.7 33.64L46.22 34.62ZM54.53 37.86L59.77 32.59L57.25 31.61L52.01 36.88L54.53 37.86ZM57.05 31.52L55.4 30.88L53.96 31.12L49.86 35.24L50.16 36.16L51.81 36.8L57.05 31.53V31.52ZM51.66 29.42L46.42 34.69L48.07 35.33L49.51 35.09L53.61 30.97L53.31 30.05L51.66 29.41V29.42ZM59.97 32.66L54.73 37.93L56.38 38.57L57.82 38.33L61.92 34.21L61.62 33.29L59.97 32.65V32.66ZM48.75 28.28L47.1 27.64L45.66 27.88L41.56 32L41.86 32.92L43.51 33.56L48.75 28.29V28.28ZM40.44 25.04L38.79 24.4L37.35 24.64L33.25 28.76L33.55 29.68L35.2 30.32L40.44 25.05V25.04ZM43.36 26.18L38.12 31.45L39.77 32.09L41.21 31.85L45.31 27.73L45.01 26.81L43.36 26.17V26.18Z" fill="#036EA3" stroke="white" stroke-width="0.1" stroke-miterlimit="10"/>
<path d="M67.6999 55.81L74.8599 48.76L22.3299 28.22L15.1699 35.27L67.6999 55.81Z" fill="#F0F0F0"/>
<path d="M47.8692 46.75L53.1092 41.48L50.5892 40.5L45.3492 45.77L47.8692 46.75ZM56.1792 49.99L61.4192 44.72L58.8992 43.74L53.6592 49.01L56.1792 49.99ZM64.4792 53.23L69.7192 47.96L67.1992 46.98L61.9592 52.25L64.4792 53.23ZM66.9992 46.9L65.3492 46.26L63.9092 46.5L59.8092 50.62L60.1092 51.54L61.7592 52.18L66.9992 46.91V46.9ZM61.6092 44.8L56.3692 50.07L58.0192 50.71L59.4592 50.47L63.5592 46.35L63.2592 45.43L61.6092 44.79V44.8ZM69.9192 48.04L64.6792 53.31L66.3292 53.95L67.7692 53.71L71.8692 49.59L71.5692 48.67L69.9192 48.03V48.04ZM58.6992 43.66L57.0492 43.02L55.6092 43.26L51.5092 47.38L51.8092 48.3L53.4592 48.94L58.6992 43.67V43.66ZM50.3892 40.42L48.7392 39.78L47.2992 40.02L43.1992 44.14L43.4992 45.06L45.1492 45.7L50.3892 40.43V40.42ZM53.3092 41.56L48.0692 46.83L49.7192 47.47L51.1592 47.23L55.2592 43.11L54.9592 42.19L53.3092 41.55V41.56Z" fill="#036EA3" stroke="white" stroke-width="0.1" stroke-miterlimit="10"/>
<path d="M22.8302 36.98L28.0702 31.71L25.5502 30.73L20.3102 36L22.8302 36.98ZM31.1402 40.22L36.3802 34.95L33.8602 33.97L28.6202 39.24L31.1402 40.22ZM39.4402 43.46L44.6802 38.19L42.1602 37.21L36.9202 42.48L39.4402 43.46ZM41.9602 37.13L40.3102 36.49L38.8702 36.73L34.7702 40.85L35.0702 41.77L36.7202 42.41L41.9602 37.14V37.13ZM36.5702 35.03L31.3302 40.3L32.9802 40.94L34.4202 40.7L38.5202 36.58L38.2202 35.66L36.5702 35.02V35.03ZM44.8802 38.27L39.6402 43.54L41.2902 44.18L42.7302 43.94L46.8302 39.82L46.5302 38.9L44.8802 38.26V38.27ZM33.6602 33.89L32.0102 33.25L30.5702 33.49L26.4702 37.61L26.7702 38.53L28.4202 39.17L33.6602 33.9V33.89ZM25.3502 30.65L23.7002 30.01L22.2602 30.25L18.1602 34.37L18.4602 35.29L20.1102 35.93L25.3502 30.66V30.65ZM28.2702 31.79L23.0302 37.06L24.6802 37.7L26.1202 37.46L30.2202 33.34L29.9202 32.42L28.2702 31.78V31.79Z" fill="#036EA3" stroke="white" stroke-width="0.1" stroke-miterlimit="10"/>
<path d="M137.22 71.48L144.37 64.43L91.8397 43.9L84.6797 50.95L137.22 71.48Z" fill="#F0F0F0"/>
<path d="M117.381 62.4199L122.621 57.15L120.101 56.1699L114.861 61.4399L117.381 62.4199ZM125.691 65.66L130.931 60.3899L128.411 59.41L123.171 64.68L125.691 65.66ZM133.991 68.9L139.231 63.63L136.711 62.65L131.471 67.9199L133.991 68.9ZM136.521 62.57L134.871 61.93L133.431 62.1699L129.331 66.29L129.631 67.2099L131.281 67.8499L136.521 62.58V62.57ZM131.131 60.47L125.891 65.7399L127.541 66.3799L128.981 66.1399L133.081 62.02L132.781 61.0999L131.131 60.4599V60.47ZM139.431 63.7099L134.191 68.98L135.841 69.62L137.281 69.3799L141.381 65.26L141.081 64.3399L139.431 63.7V63.7099ZM128.211 59.33L126.561 58.6899L125.121 58.93L121.021 63.0499L121.321 63.97L122.971 64.61L128.211 59.34V59.33ZM119.911 56.09L118.261 55.45L116.821 55.6899L112.721 59.81L113.021 60.7299L114.671 61.3699L119.911 56.0999V56.09ZM122.821 57.2299L117.581 62.5L119.231 63.1399L120.671 62.9L124.771 58.7799L124.471 57.86L122.821 57.22V57.2299Z" fill="#036EA3" stroke="white" stroke-width="0.1" stroke-miterlimit="10"/>
<path d="M92.3497 52.6599L97.5897 47.3899L95.0697 46.4099L89.8297 51.6799L92.3497 52.6599ZM100.65 55.8999L105.89 50.6299L103.37 49.6499L98.1297 54.9199L100.65 55.8999ZM108.96 59.1399L114.2 53.8699L111.68 52.8899L106.44 58.1599L108.96 59.1399ZM111.48 52.8099L109.83 52.1699L108.39 52.4099L104.29 56.5299L104.59 57.4499L106.24 58.0899L111.48 52.8199V52.8099ZM106.09 50.6999L100.85 55.9699L102.5 56.6099L103.94 56.3699L108.04 52.2499L107.74 51.3299L106.09 50.6899V50.6999ZM114.39 53.9399L109.15 59.2099L110.8 59.8499L112.24 59.6099L116.34 55.4899L116.04 54.5699L114.39 53.9299V53.9399ZM103.17 49.5699L101.52 48.9299L100.08 49.1699L95.9797 53.2899L96.2797 54.2099L97.9297 54.8499L103.17 49.5799V49.5699ZM94.8697 46.3299L93.2197 45.6899L91.7797 45.9299L87.6797 50.0499L87.9797 50.9699L89.6297 51.6099L94.8697 46.3399V46.3299ZM97.7797 47.4599L92.5397 52.7299L94.1897 53.3699L95.6297 53.1299L99.7297 49.0099L99.4297 48.0899L97.7797 47.4499V47.4599Z" fill="#036EA3" stroke="white" stroke-width="0.1" stroke-miterlimit="10"/>
<path d="M122.13 77.09L129.28 70.04L76.7496 49.5L69.5996 56.55L122.13 77.09Z" fill="#F0F0F0"/>
<path d="M102.301 68.0301L107.541 62.7601L105.021 61.7801L99.7809 67.0501L102.301 68.0301ZM110.601 71.2701L115.841 66.0001L113.321 65.0201L108.081 70.2901L110.601 71.2701ZM118.911 74.5101L124.151 69.2401L121.631 68.2601L116.391 73.5301L118.911 74.5101ZM121.431 68.1801L119.781 67.5401L118.341 67.7801L114.241 71.9001L114.541 72.8201L116.191 73.4601L121.431 68.1901V68.1801ZM116.041 66.0801L110.801 71.3501L112.451 71.9901L113.891 71.7501L117.991 67.6301L117.691 66.7101L116.041 66.0701V66.0801ZM124.341 69.3201L119.101 74.5901L120.751 75.2301L122.191 74.9901L126.291 70.8701L125.991 69.9501L124.341 69.3101V69.3201ZM113.121 64.9401L111.471 64.3001L110.031 64.5401L105.931 68.6601L106.231 69.5801L107.881 70.2201L113.121 64.9501V64.9401ZM104.821 61.7001L103.171 61.0601L101.731 61.3001L97.6309 65.4201L97.9309 66.3401L99.5809 66.9801L104.821 61.7101V61.7001ZM107.731 62.8401L102.491 68.1101L104.141 68.7501L105.581 68.5101L109.681 64.3901L109.381 63.4701L107.731 62.8301V62.8401Z" fill="#036EA3" stroke="white" stroke-width="0.1" stroke-miterlimit="10"/>
<path d="M77.2598 58.2701L82.4998 53L79.9798 52.0201L74.7398 57.2901L77.2598 58.2701ZM85.5598 61.51L90.7998 56.2401L88.2798 55.26L83.0398 60.53L85.5598 61.51ZM93.8698 64.75L99.1098 59.48L96.5898 58.5L91.3498 63.7701L93.8698 64.75ZM96.3898 58.42L94.7398 57.78L93.2998 58.0201L89.1998 62.14L89.4998 63.0601L91.1498 63.7001L96.3898 58.43V58.42ZM90.9998 56.3101L85.7598 61.5801L87.4098 62.2201L88.8498 61.98L92.9498 57.8601L92.6498 56.94L90.9998 56.3V56.3101ZM99.2998 59.55L94.0598 64.82L95.7098 65.46L97.1498 65.2201L101.25 61.1L100.95 60.18L99.2998 59.5401V59.55ZM88.0798 55.18L86.4298 54.5401L84.9898 54.78L80.8898 58.9001L81.1898 59.82L82.8398 60.46L88.0798 55.19V55.18ZM79.7798 51.94L78.1298 51.3L76.6898 51.5401L72.5898 55.66L72.8898 56.5801L74.5398 57.2201L79.7798 51.9501V51.94ZM82.6898 53.07L77.4498 58.34L79.0998 58.98L80.5398 58.7401L84.6398 54.62L84.3398 53.7001L82.6898 53.0601V53.07Z" fill="#036EA3" stroke="white" stroke-width="0.1" stroke-miterlimit="10"/>
</g>
</g>
<defs>
<radialGradient id="paint0_radial_127_6055" cx="0" cy="0" r="1" gradientUnits="userSpaceOnUse" gradientTransform="translate(113.49 76.2231) scale(113.49 41.9913)">
<stop offset="0.58" stop-color="#FAD764" stop-opacity="0"/>
<stop offset="0.62" stop-color="#FAD764" stop-opacity="0.01"/>
<stop offset="0.7" stop-color="#FAD764" stop-opacity="0.0484"/>
<stop offset="0.81" stop-color="#FAD764" stop-opacity="0.2304"/>
<stop offset="0.94" stop-color="#FAD764" stop-opacity="0.6889"/>
<stop offset="1" stop-color="#FAD764"/>
</radialGradient>
<clipPath id="clip0_127_6055">
<rect width="200.95" height="113.27" fill="white" transform="translate(11)"/>
</clipPath>
<clipPath id="clip1_127_6055">
<rect width="200.95" height="113.27" fill="white" transform="translate(11)"/>
</clipPath>
</defs>
</svg>
