<svg width="738" height="886" viewBox="0 0 738 886" fill="none" xmlns="http://www.w3.org/2000/svg">
<path d="M346 270L358.129 881.79C358.464 884.168 360.495 886 362.98 886C365.465 886 367.516 884.168 367.832 881.79L367.871 881.439C367.871 881.342 367.911 881.244 367.911 881.128C367.911 881.128 367.911 881.128 367.911 881.108L380 270H346Z" fill="#4B9E81"/>
<rect x="10.5" y="10.5" width="717" height="271" rx="29.5" fill="white"/>
<rect x="10.5" y="10.5" width="717" height="271" rx="29.5" stroke="#4B9E81" stroke-width="7"/>
<path d="M116.44 129.36C115.213 129.893 113.96 129.92 112.68 129.44C111.4 129.013 110.467 128.187 109.88 126.96C109.347 125.733 109.293 124.48 109.72 123.2C110.2 121.867 111.053 120.933 112.28 120.4C118.307 117.573 122.76 113.76 125.64 108.96C128.52 104.16 130.04 97.9733 130.2 90.4H118.04C118.093 92.5333 118.12 94.56 118.12 96.48C118.12 98.4 118.067 100.133 117.96 101.68C117.907 103.067 117.373 104.213 116.36 105.12C115.347 105.973 114.147 106.373 112.76 106.32C111.427 106.213 110.333 105.653 109.48 104.64C108.627 103.573 108.227 102.373 108.28 101.04C108.387 99.6 108.44 97.9733 108.44 96.16C108.44 94.2933 108.413 92.3733 108.36 90.4H91.96C90.6267 90.4 89.48 89.9467 88.52 89.04C87.6133 88.1333 87.16 87.0133 87.16 85.68C87.16 84.3467 87.6133 83.2267 88.52 82.32C89.48 81.36 90.6267 80.88 91.96 80.88H108.04C107.933 79.0133 107.8 77.2533 107.64 75.6C107.533 73.8933 107.373 72.4 107.16 71.12C106.947 69.7867 107.213 68.5867 107.96 67.52C108.76 66.4 109.827 65.7333 111.16 65.52C112.547 65.2533 113.773 65.52 114.84 66.32C115.96 67.12 116.6 68.1867 116.76 69.52C116.973 71.0133 117.16 72.7467 117.32 74.72C117.48 76.64 117.613 78.6933 117.72 80.88H130.12C130.067 78.5867 129.987 76.3733 129.88 74.24C129.827 72.0533 129.72 70.16 129.56 68.56C129.453 67.1733 129.827 65.9733 130.68 64.96C131.587 63.8933 132.707 63.3067 134.04 63.2C135.427 63.0933 136.627 63.4933 137.64 64.4C138.707 65.2533 139.267 66.3733 139.32 67.76C139.48 69.4133 139.587 71.4133 139.64 73.76C139.747 76.0533 139.827 78.4267 139.88 80.88H155.08C156.413 80.88 157.533 81.36 158.44 82.32C159.4 83.2267 159.88 84.3467 159.88 85.68C159.88 87.0133 159.4 88.1333 158.44 89.04C157.533 89.9467 156.413 90.4 155.08 90.4H139.88C139.72 99.8933 137.667 107.92 133.72 114.48C129.773 120.987 124.013 125.947 116.44 129.36ZM179.56 128.56C178.547 127.653 178.013 126.533 177.96 125.2C177.907 123.813 178.333 122.613 179.24 121.6C183.4 117.12 186.947 112.08 189.88 106.48C192.867 100.827 195.187 94.72 196.84 88.16C193.853 88.32 191.053 88.48 188.44 88.64C185.88 88.7467 184.2 88.8267 183.4 88.88C182.067 88.9333 180.893 88.5067 179.88 87.6C178.867 86.64 178.333 85.4933 178.28 84.16C178.227 82.7733 178.653 81.5733 179.56 80.56C180.467 79.5467 181.613 79.0133 183 78.96C183.587 78.9067 184.707 78.8533 186.36 78.8C188.013 78.7467 189.933 78.6933 192.12 78.64C194.36 78.5333 196.6 78.4267 198.84 78.32C199.48 74.32 199.88 70.1867 200.04 65.92C200.093 64.5333 200.627 63.3867 201.64 62.48C202.653 61.52 203.827 61.0933 205.16 61.2C206.547 61.2533 207.693 61.7867 208.6 62.8C209.56 63.76 209.987 64.9333 209.88 66.32C209.827 68.2933 209.693 70.24 209.48 72.16C209.267 74.08 209.027 76.0267 208.76 78L211.08 77.84C216.893 77.6267 221.373 78.3467 224.52 80C227.667 81.6533 229.693 84.4 230.6 88.24C231.507 92.08 231.453 97.2267 230.44 103.68C229.587 109.12 228.36 113.547 226.76 116.96C225.213 120.373 223.32 122.96 221.08 124.72C218.893 126.427 216.413 127.467 213.64 127.84C210.867 128.267 207.853 128.213 204.6 127.68C203.267 127.467 202.2 126.8 201.4 125.68C200.6 124.56 200.307 123.333 200.52 122C200.787 120.613 201.48 119.547 202.6 118.8C203.72 118 204.947 117.733 206.28 118C208.04 118.32 209.64 118.4 211.08 118.24C212.52 118.08 213.827 117.493 215 116.48C216.227 115.467 217.293 113.813 218.2 111.52C219.16 109.173 219.987 105.973 220.68 101.92C221.427 97.7067 221.64 94.56 221.32 92.48C221 90.3467 220.04 88.9333 218.44 88.24C216.893 87.5467 214.547 87.2533 211.4 87.36C210.6 87.36 209.08 87.44 206.84 87.6C204.92 95.6533 202.2 103.2 198.68 110.24C195.16 117.28 191.107 123.307 186.52 128.32C185.613 129.333 184.467 129.84 183.08 129.84C181.747 129.893 180.573 129.467 179.56 128.56ZM267 129.44C265.72 129.973 264.44 130 263.16 129.52C261.933 129.04 261.027 128.16 260.44 126.88C259.907 125.653 259.88 124.4 260.36 123.12C260.893 121.84 261.773 120.933 263 120.4C273.987 115.653 283.027 109.627 290.12 102.32C288.947 101.147 287.827 100.08 286.76 99.12C285.693 98.16 284.787 97.3867 284.04 96.8C283.027 95.8933 282.413 94.7733 282.2 93.44C282.04 92.1067 282.387 90.9333 283.24 89.92C284.147 88.8533 285.267 88.24 286.6 88.08C287.987 87.92 289.187 88.2933 290.2 89.2C291.107 89.8933 292.067 90.72 293.08 91.68C294.147 92.5867 295.267 93.5733 296.44 94.64C297.4 93.2533 298.307 91.84 299.16 90.4C300.013 88.96 300.813 87.4933 301.56 86C302.413 84.24 302.573 82.9333 302.04 82.08C301.56 81.1733 300.28 80.72 298.2 80.72H287.32C284.653 84.2933 281.667 87.7333 278.36 91.04C275.053 94.2933 271.907 97.0133 268.92 99.2C267.8 100 266.547 100.293 265.16 100.08C263.827 99.8133 262.787 99.12 262.04 98C261.24 96.88 260.947 95.6533 261.16 94.32C261.427 92.9867 262.12 91.92 263.24 91.12C266.333 88.88 269.293 86.3467 272.12 83.52C275 80.6933 277.587 77.7333 279.88 74.64C282.173 71.4933 284.013 68.4533 285.4 65.52C285.987 64.2933 286.893 63.44 288.12 62.96C289.4 62.4267 290.653 62.4267 291.88 62.96C293.107 63.4933 293.96 64.4267 294.44 65.76C294.973 67.04 294.947 68.2933 294.36 69.52C294.253 69.7867 294.12 70.08 293.96 70.4C293.853 70.6667 293.72 70.9333 293.56 71.2H299.72C303.827 71.2 306.973 71.9733 309.16 73.52C311.4 75.0667 312.653 77.2267 312.92 80C313.187 82.72 312.44 85.84 310.68 89.36C308.707 93.52 306.253 97.4933 303.32 101.28C304.547 102.453 305.667 103.573 306.68 104.64C307.693 105.707 308.547 106.667 309.24 107.52C310.147 108.587 310.52 109.813 310.36 111.2C310.2 112.587 309.56 113.733 308.44 114.64C307.373 115.493 306.147 115.84 304.76 115.68C303.427 115.467 302.307 114.853 301.4 113.84C300.867 113.2 300.2 112.453 299.4 111.6C298.6 110.747 297.747 109.867 296.84 108.96C288.52 117.6 278.573 124.427 267 129.44ZM373 129.52C371.667 129.52 370.52 129.013 369.56 128C368.6 127.04 368.12 125.893 368.12 124.56V92.56C364.707 95.5467 361.187 98.4267 357.56 101.2C353.933 103.973 350.307 106.507 346.68 108.8C345.507 109.493 344.253 109.68 342.92 109.36C341.64 109.04 340.627 108.293 339.88 107.12C339.187 105.947 339 104.693 339.32 103.36C339.64 102.027 340.387 101.013 341.56 100.32C344.92 98.24 348.413 95.8133 352.04 93.04C355.72 90.2667 359.293 87.3067 362.76 84.16C366.28 81.0133 369.507 77.8667 372.44 74.72C375.427 71.52 377.907 68.5067 379.88 65.68C380.68 64.56 381.747 63.8667 383.08 63.6C384.413 63.3333 385.64 63.6 386.76 64.4C387.88 65.1467 388.573 66.2133 388.84 67.6C389.107 68.9333 388.84 70.16 388.04 71.28C385.267 75.0133 381.907 78.9333 377.96 83.04V124.56C377.96 125.893 377.48 127.04 376.52 128C375.56 129.013 374.387 129.52 373 129.52ZM431.56 122.88C430.28 123.36 429 123.307 427.72 122.72C426.493 122.133 425.64 121.2 425.16 119.92C424.68 118.64 424.733 117.387 425.32 116.16C425.907 114.88 426.84 114 428.12 113.52C432.387 112.027 436.68 110.187 441 108C445.373 105.813 449.533 103.44 453.48 100.88C457.48 98.2667 461.107 95.6 464.36 92.88C467.667 90.1067 470.36 87.44 472.44 84.88C473.347 83.8133 474.467 83.2 475.8 83.04C477.187 82.88 478.387 83.2533 479.4 84.16C480.467 85.0133 481.08 86.1333 481.24 87.52C481.4 88.8533 481.027 90.0533 480.12 91.12C477.933 93.7867 475.027 96.64 471.4 99.68C467.773 102.667 463.72 105.627 459.24 108.56C454.76 111.493 450.147 114.213 445.4 116.72C440.653 119.227 436.04 121.28 431.56 122.88ZM438.44 91.36C436.413 89.6533 434.147 87.8933 431.64 86.08C429.133 84.2133 426.867 82.6933 424.84 81.52C423.667 80.7733 422.92 79.76 422.6 78.48C422.28 77.1467 422.467 75.8933 423.16 74.72C423.907 73.5467 424.92 72.8 426.2 72.48C427.533 72.1067 428.787 72.2933 429.96 73.04C431.4 73.9467 433.027 75.0667 434.84 76.4C436.707 77.68 438.493 78.96 440.2 80.24C441.96 81.52 443.4 82.6133 444.52 83.52C445.587 84.3733 446.2 85.4933 446.36 86.88C446.573 88.2133 446.253 89.4133 445.4 90.48C444.547 91.5467 443.427 92.1867 442.04 92.4C440.707 92.56 439.507 92.2133 438.44 91.36ZM512.84 128.72C511.56 129.253 510.28 129.253 509 128.72C507.773 128.24 506.867 127.387 506.28 126.16C505.747 124.933 505.72 123.68 506.2 122.4C506.733 121.12 507.613 120.213 508.84 119.68C517.693 115.787 525.347 110.96 531.8 105.2C538.253 99.44 543.347 92.88 547.08 85.52C547.987 83.8133 548.147 82.5333 547.56 81.68C547.027 80.8267 545.667 80.4 543.48 80.4H532.84C530.28 83.8133 527.427 87.1467 524.28 90.4C521.133 93.6 517.853 96.3733 514.44 98.72C513.373 99.52 512.147 99.8133 510.76 99.6C509.427 99.3333 508.36 98.64 507.56 97.52C506.813 96.4 506.547 95.1733 506.76 93.84C507.027 92.4533 507.72 91.3867 508.84 90.64C511.827 88.6133 514.733 86.1867 517.56 83.36C520.387 80.5333 522.947 77.5733 525.24 74.48C527.587 71.3333 529.427 68.2667 530.76 65.28C531.293 64.0533 532.2 63.2 533.48 62.72C534.76 62.1867 536.013 62.2133 537.24 62.8C538.467 63.3333 539.32 64.24 539.8 65.52C540.333 66.8 540.307 68.0533 539.72 69.28C539.507 69.8133 539.24 70.3467 538.92 70.88H544.44C550.787 70.88 555 72.5067 557.08 75.76C559.213 79.0133 558.947 83.4133 556.28 88.96C553.56 94.6133 549.987 99.9733 545.56 105.04C541.187 110.107 536.227 114.667 530.68 118.72C525.133 122.72 519.187 126.053 512.84 128.72ZM588.6 124.4C587.427 124.987 586.173 125.067 584.84 124.64C583.56 124.16 582.627 123.307 582.04 122.08C581.453 120.853 581.373 119.6 581.8 118.32C582.28 117.04 583.107 116.107 584.28 115.52C591.907 111.84 598.68 107.413 604.6 102.24C610.573 97.0133 615.427 91.36 619.16 85.28C621.507 81.44 620.227 79.52 615.32 79.52H593.48C592.147 79.52 591 79.04 590.04 78.08C589.08 77.0667 588.6 75.8933 588.6 74.56C588.6 73.1733 589.08 72 590.04 71.04C591 70.08 592.147 69.6 593.48 69.6H615.64C620.44 69.6 624.12 70.48 626.68 72.24C629.24 73.9467 630.627 76.2933 630.84 79.28C631.107 82.2667 630.12 85.7067 627.88 89.6C626.707 91.7333 625.293 93.8667 623.64 96C626.093 98.0267 628.6 100.267 631.16 102.72C633.773 105.12 636.2 107.467 638.44 109.76C640.733 112 642.653 113.92 644.2 115.52C645.107 116.48 645.56 117.653 645.56 119.04C645.56 120.427 645.053 121.6 644.04 122.56C643.08 123.52 641.907 124 640.52 124C639.133 123.947 637.96 123.44 637 122.48C635.56 120.987 633.747 119.12 631.56 116.88C629.373 114.587 627.053 112.24 624.6 109.84C622.147 107.387 619.773 105.173 617.48 103.2C613.427 107.413 608.893 111.387 603.88 115.12C598.92 118.8 593.827 121.893 588.6 124.4ZM283.508 218.872C282.735 219.027 282.039 218.891 281.42 218.466C280.801 218.079 280.434 217.519 280.318 216.784C280.241 216.436 280.163 216.049 280.086 215.624C280.009 215.237 279.912 214.812 279.796 214.348C278.597 214.541 277.186 214.754 275.562 214.986C273.977 215.218 272.43 215.431 270.922 215.624C269.414 215.856 268.157 216.049 267.152 216.204C266.185 216.359 265.373 216.204 264.716 215.74C264.059 215.276 263.653 214.58 263.498 213.652C263.421 212.879 263.633 212.183 264.136 211.564C264.677 210.907 265.393 210.539 266.282 210.462L267.152 210.404C267.925 209.244 268.834 207.833 269.878 206.17C270.961 204.507 272.043 202.787 273.126 201.008C272.43 200.351 271.599 199.635 270.632 198.862C269.665 198.05 268.718 197.277 267.79 196.542C266.901 195.769 266.166 195.169 265.586 194.744C264.967 194.203 264.639 193.545 264.6 192.772C264.561 191.999 264.793 191.303 265.296 190.684C265.837 190.027 266.514 189.659 267.326 189.582C268.177 189.505 268.931 189.737 269.588 190.278L269.704 190.394C270.245 189.466 270.825 188.422 271.444 187.262C272.101 186.102 272.701 185.019 273.242 184.014C273.822 182.97 274.228 182.197 274.46 181.694C274.537 181.578 274.595 181.462 274.634 181.346C274.711 181.23 274.789 181.133 274.866 181.056H269.472C268.66 181.056 267.964 180.785 267.384 180.244C266.804 179.664 266.514 178.968 266.514 178.156C266.514 177.344 266.804 176.648 267.384 176.068C267.964 175.488 268.66 175.198 269.472 175.198H277.36C277.283 175.121 277.205 175.043 277.128 174.966C277.051 174.85 276.973 174.734 276.896 174.618C276.741 174.309 276.49 173.864 276.142 173.284C275.794 172.665 275.427 172.047 275.04 171.428C274.692 170.809 274.402 170.326 274.17 169.978C273.706 169.282 273.59 168.528 273.822 167.716C274.093 166.865 274.595 166.247 275.33 165.86C276.181 165.396 276.993 165.261 277.766 165.454C278.578 165.647 279.235 166.131 279.738 166.904C279.931 167.213 280.221 167.716 280.608 168.412C281.033 169.069 281.439 169.727 281.826 170.384C282.251 171.003 282.522 171.428 282.638 171.66C282.986 172.279 283.102 172.917 282.986 173.574C282.909 174.193 282.657 174.734 282.232 175.198H287.916C288.225 174.502 288.612 173.613 289.076 172.53C289.579 171.447 290.043 170.384 290.468 169.34C290.893 168.296 291.203 167.523 291.396 167.02C291.744 166.131 292.343 165.531 293.194 165.222C294.045 164.913 294.895 164.932 295.746 165.28C296.635 165.667 297.215 166.266 297.486 167.078C297.795 167.851 297.776 168.644 297.428 169.456C297.157 170.075 296.732 170.945 296.152 172.066C295.611 173.149 295.069 174.193 294.528 175.198H303.576C304.388 175.198 305.065 175.488 305.606 176.068C306.186 176.648 306.476 177.344 306.476 178.156C306.476 178.968 306.186 179.664 305.606 180.244C305.065 180.785 304.388 181.056 303.576 181.056H296.152C296.887 181.404 297.409 181.945 297.718 182.68C298.027 183.415 297.989 184.149 297.602 184.884C297.293 185.541 296.848 186.411 296.268 187.494C295.688 188.538 295.089 189.64 294.47 190.8C293.851 191.921 293.271 192.927 292.73 193.816C293.155 194.203 293.581 194.57 294.006 194.918C294.431 195.227 294.837 195.537 295.224 195.846C295.959 194.454 296.635 193.139 297.254 191.902C297.873 190.626 298.375 189.505 298.762 188.538C299.071 187.803 299.593 187.32 300.328 187.088C301.101 186.817 301.855 186.837 302.59 187.146C303.363 187.455 303.866 187.997 304.098 188.77C304.369 189.543 304.33 190.297 303.982 191.032C303.247 192.579 302.3 194.415 301.14 196.542C299.98 198.669 298.781 200.853 297.544 203.096C296.345 205.3 295.224 207.291 294.18 209.07L299.226 208.432C299.071 207.929 298.917 207.465 298.762 207.04C298.607 206.576 298.453 206.17 298.298 205.822C298.027 205.126 298.047 204.43 298.356 203.734C298.704 203.038 299.245 202.574 299.98 202.342C300.715 202.071 301.411 202.091 302.068 202.4C302.764 202.671 303.247 203.154 303.518 203.85C303.866 204.739 304.272 205.841 304.736 207.156C305.2 208.471 305.645 209.805 306.07 211.158C306.534 212.473 306.901 213.613 307.172 214.58C307.365 215.353 307.269 216.049 306.882 216.668C306.495 217.325 305.915 217.751 305.142 217.944C304.369 218.176 303.634 218.118 302.938 217.77C302.242 217.422 301.797 216.861 301.604 216.088C301.488 215.74 301.372 215.334 301.256 214.87C301.14 214.445 301.005 214 300.85 213.536C299.651 213.729 298.24 213.961 296.616 214.232C295.031 214.503 293.484 214.754 291.976 214.986C290.468 215.257 289.231 215.469 288.264 215.624C287.259 215.74 286.427 215.585 285.77 215.16L285.886 215.682C286.079 216.455 285.925 217.132 285.422 217.712C284.919 218.331 284.281 218.717 283.508 218.872ZM255.088 216.494C254.315 216.069 253.812 215.45 253.58 214.638C253.387 213.865 253.503 213.111 253.928 212.376C254.585 211.139 255.339 209.631 256.19 207.852C257.041 206.073 257.872 204.275 258.684 202.458C259.496 200.641 260.134 199.094 260.598 197.818C260.946 196.929 261.507 196.329 262.28 196.02C263.053 195.711 263.846 195.73 264.658 196.078C266.321 196.851 266.823 198.185 266.166 200.08C265.741 201.433 265.122 203.038 264.31 204.894C263.537 206.75 262.725 208.587 261.874 210.404C261.062 212.221 260.327 213.768 259.67 215.044C259.245 215.856 258.587 216.417 257.698 216.726C256.847 217.035 255.977 216.958 255.088 216.494ZM284.9 211.332C285.403 210.481 286.176 209.998 287.22 209.882L287.626 209.824C288.283 208.703 289.018 207.407 289.83 205.938C290.642 204.469 291.473 202.941 292.324 201.356C291.628 200.737 290.758 200.041 289.714 199.268C288.709 198.456 287.703 197.663 286.698 196.89C285.731 196.117 284.939 195.517 284.32 195.092C284.088 194.899 283.875 194.686 283.682 194.454C282.793 195.962 281.787 197.625 280.666 199.442C279.545 201.221 278.404 202.999 277.244 204.778C276.123 206.557 275.059 208.2 274.054 209.708L278.578 209.186C278.462 208.645 278.327 208.161 278.172 207.736C278.056 207.272 277.959 206.847 277.882 206.46C277.65 205.725 277.727 205.029 278.114 204.372C278.501 203.715 279.061 203.289 279.796 203.096C280.569 202.903 281.285 202.98 281.942 203.328C282.599 203.676 283.025 204.217 283.218 204.952C283.489 205.725 283.759 206.692 284.03 207.852C284.339 209.012 284.629 210.172 284.9 211.332ZM276.316 195.788C277.089 194.551 277.785 193.391 278.404 192.308C279.023 191.187 279.545 190.22 279.97 189.408C280.395 188.673 280.975 188.209 281.71 188.016C282.483 187.823 283.218 187.919 283.914 188.306C284.533 188.654 284.977 189.176 285.248 189.872C285.712 189.717 286.195 189.679 286.698 189.756C287.239 189.833 287.723 190.027 288.148 190.336C288.612 189.485 289.095 188.557 289.598 187.552C290.139 186.547 290.623 185.599 291.048 184.71C291.473 183.782 291.802 183.067 292.034 182.564C292.343 181.868 292.846 181.365 293.542 181.056H279.274C280.241 182.023 280.415 183.105 279.796 184.304C279.448 185 278.926 185.928 278.23 187.088C277.573 188.248 276.857 189.447 276.084 190.684C275.349 191.883 274.692 192.965 274.112 193.932C274.499 194.241 274.885 194.551 275.272 194.86C275.659 195.169 276.007 195.479 276.316 195.788ZM260.54 189.524C260.153 189.253 259.593 188.886 258.858 188.422C258.123 187.958 257.389 187.494 256.654 187.03C255.919 186.566 255.32 186.199 254.856 185.928C254.121 185.503 253.657 184.903 253.464 184.13C253.271 183.357 253.387 182.603 253.812 181.868C254.237 181.095 254.837 180.592 255.61 180.36C256.422 180.128 257.253 180.263 258.104 180.766C258.568 180.998 259.167 181.346 259.902 181.81C260.675 182.274 261.429 182.738 262.164 183.202C262.937 183.666 263.537 184.033 263.962 184.304C264.735 184.768 265.219 185.425 265.412 186.276C265.605 187.127 265.431 187.939 264.89 188.712C264.426 189.447 263.769 189.891 262.918 190.046C262.067 190.201 261.275 190.027 260.54 189.524ZM262.628 176.532C262.241 176.223 261.681 175.855 260.946 175.43C260.25 174.966 259.535 174.502 258.8 174.038C258.065 173.574 257.466 173.207 257.002 172.936C256.306 172.511 255.861 171.911 255.668 171.138C255.475 170.365 255.571 169.611 255.958 168.876C256.383 168.103 257.002 167.619 257.814 167.426C258.626 167.194 259.457 167.31 260.308 167.774C260.772 168.006 261.352 168.354 262.048 168.818C262.783 169.282 263.517 169.746 264.252 170.21C264.987 170.635 265.567 170.983 265.992 171.254C266.765 171.757 267.249 172.433 267.442 173.284C267.635 174.096 267.461 174.889 266.92 175.662C266.456 176.397 265.799 176.841 264.948 176.996C264.097 177.151 263.324 176.996 262.628 176.532ZM320.048 218.814C319.043 219.085 318.153 219.085 317.38 218.814C316.607 218.582 316.065 218.021 315.756 217.132C315.524 216.359 315.582 215.566 315.93 214.754C316.278 213.981 316.877 213.497 317.728 213.304C318.733 213.072 319.855 212.763 321.092 212.376C322.368 211.951 323.663 211.487 324.978 210.984C326.331 210.481 327.549 209.979 328.632 209.476C326.196 209.089 324.456 208.258 323.412 206.982C322.368 205.667 321.846 203.715 321.846 201.124V194.28C321.846 191.071 322.658 188.847 324.282 187.61C325.906 186.334 328.69 185.696 332.634 185.696H346.38C350.363 185.696 353.166 186.334 354.79 187.61C356.414 188.847 357.226 191.071 357.226 194.28V201.124C357.226 203.753 356.685 205.725 355.602 207.04C354.558 208.316 352.779 209.128 350.266 209.476C351.929 210.249 353.785 211.003 355.834 211.738C357.883 212.473 359.643 212.995 361.112 213.304C362.001 213.497 362.601 213.981 362.91 214.754C363.258 215.566 363.316 216.359 363.084 217.132C362.775 218.021 362.233 218.582 361.46 218.814C360.687 219.085 359.797 219.085 358.792 218.814C357.555 218.466 356.124 217.983 354.5 217.364C352.915 216.784 351.349 216.165 349.802 215.508C348.255 214.851 346.941 214.232 345.858 213.652C345.123 213.227 344.679 212.666 344.524 211.97C344.369 211.235 344.466 210.539 344.814 209.882C344.853 209.843 344.872 209.824 344.872 209.824C344.872 209.785 344.891 209.747 344.93 209.708H333.91C333.987 209.785 334.026 209.843 334.026 209.882C334.374 210.539 334.471 211.235 334.316 211.97C334.2 212.666 333.755 213.227 332.982 213.652C331.899 214.232 330.585 214.851 329.038 215.508C327.491 216.165 325.925 216.784 324.34 217.364C322.755 217.983 321.324 218.466 320.048 218.814ZM318.308 187.958C317.535 188.461 316.665 188.693 315.698 188.654C314.731 188.615 313.977 188.19 313.436 187.378C313.011 186.721 312.875 185.986 313.03 185.174C313.185 184.323 313.61 183.705 314.306 183.318C316.355 182.197 318.018 180.921 319.294 179.49C320.57 178.059 321.575 176.358 322.31 174.386H316.22C315.447 174.386 314.828 174.154 314.364 173.69C313.9 173.187 313.668 172.588 313.668 171.892C313.668 171.157 313.9 170.539 314.364 170.036C314.828 169.533 315.447 169.282 316.22 169.282H323.47C323.547 168.973 323.586 168.644 323.586 168.296C323.625 167.909 323.663 167.542 323.702 167.194C323.779 166.189 324.166 165.473 324.862 165.048C325.558 164.623 326.351 164.449 327.24 164.526C328.052 164.603 328.729 164.932 329.27 165.512C329.811 166.092 330.043 166.865 329.966 167.832C329.927 168.103 329.889 168.354 329.85 168.586C329.85 168.818 329.831 169.05 329.792 169.282H333.446C335.766 169.282 337.467 169.862 338.55 171.022C339.671 172.143 340.077 173.961 339.768 176.474C339.497 178.717 339.014 180.437 338.318 181.636C337.661 182.835 336.713 183.666 335.476 184.13C334.277 184.594 332.711 184.826 330.778 184.826C329.966 184.826 329.27 184.594 328.69 184.13C328.149 183.627 327.839 182.951 327.762 182.1C327.723 181.327 327.936 180.669 328.4 180.128C328.864 179.548 329.463 179.239 330.198 179.2C331.474 179.123 332.286 178.949 332.634 178.678C333.021 178.407 333.311 177.731 333.504 176.648C333.659 175.797 333.62 175.217 333.388 174.908C333.156 174.56 332.537 174.386 331.532 174.386H328.574C327.607 177.402 326.254 180.051 324.514 182.332C322.774 184.575 320.705 186.45 318.308 187.958ZM351.658 183.55C349.531 183.55 347.811 183.337 346.496 182.912C345.22 182.448 344.292 181.655 343.712 180.534C343.171 179.374 342.9 177.731 342.9 175.604C342.9 173.439 343.171 171.795 343.712 170.674C344.292 169.514 345.22 168.721 346.496 168.296C347.811 167.832 349.531 167.6 351.658 167.6H355.022C357.187 167.6 358.908 167.832 360.184 168.296C361.46 168.721 362.369 169.514 362.91 170.674C363.49 171.795 363.78 173.439 363.78 175.604C363.78 177.731 363.49 179.374 362.91 180.534C362.369 181.655 361.46 182.448 360.184 182.912C358.908 183.337 357.187 183.55 355.022 183.55H351.658ZM328.748 198.804H350.266V196.484H328.748V198.804ZM351.948 178.446H354.732C356.047 178.446 356.897 178.272 357.284 177.924C357.671 177.537 357.864 176.764 357.864 175.604C357.864 174.405 357.671 173.632 357.284 173.284C356.897 172.897 356.047 172.704 354.732 172.704H351.948C350.633 172.704 349.783 172.897 349.396 173.284C349.009 173.632 348.816 174.405 348.816 175.604C348.816 176.764 349.009 177.537 349.396 177.924C349.783 178.272 350.633 178.446 351.948 178.446ZM332.75 205.01H346.322C347.714 205.01 348.681 204.855 349.222 204.546C349.763 204.237 350.092 203.618 350.208 202.69H328.864C328.941 203.618 329.251 204.237 329.792 204.546C330.372 204.855 331.358 205.01 332.75 205.01ZM328.864 192.598H350.208C350.053 191.747 349.705 191.187 349.164 190.916C348.623 190.607 347.675 190.452 346.322 190.452H332.75C331.397 190.452 330.43 190.607 329.85 190.916C329.309 191.187 328.98 191.747 328.864 192.598ZM375.264 213.768C374.336 213.768 373.543 213.439 372.886 212.782C372.229 212.125 371.9 211.332 371.9 210.404C371.9 209.476 372.229 208.703 372.886 208.084C373.543 207.427 374.336 207.098 375.264 207.098H394.81V178.214H378.86C377.932 178.214 377.139 177.905 376.482 177.286C375.825 176.629 375.496 175.836 375.496 174.908C375.496 173.98 375.825 173.187 376.482 172.53C377.139 171.873 377.932 171.544 378.86 171.544H418.3C419.228 171.544 420.021 171.873 420.678 172.53C421.335 173.187 421.664 173.98 421.664 174.908C421.664 175.836 421.335 176.629 420.678 177.286C420.021 177.905 419.228 178.214 418.3 178.214H402.35V207.098H421.954C422.882 207.098 423.655 207.427 424.274 208.084C424.931 208.703 425.26 209.476 425.26 210.404C425.26 211.332 424.931 212.125 424.274 212.782C423.655 213.439 422.882 213.768 421.954 213.768H375.264ZM471.892 218.524C470.925 218.524 470.113 218.292 469.456 217.828C468.837 217.403 468.47 216.707 468.354 215.74C468.277 214.851 468.509 214.077 469.05 213.42C469.63 212.763 470.345 212.415 471.196 212.376C472.472 212.299 473.342 212.125 473.806 211.854C474.309 211.583 474.695 210.984 474.966 210.056C475.198 209.321 475.43 208.393 475.662 207.272C475.894 206.151 476.087 204.991 476.242 203.792C476.397 202.787 476.358 202.052 476.126 201.588C475.894 201.124 475.43 200.815 474.734 200.66C473.845 202.825 472.665 204.991 471.196 207.156C469.765 209.321 468.161 211.351 466.382 213.246C464.642 215.102 462.844 216.687 460.988 218.002C460.331 218.466 459.577 218.698 458.726 218.698C457.875 218.698 457.179 218.389 456.638 217.77C456.135 217.229 455.884 216.591 455.884 215.856C455.923 215.121 456.232 214.541 456.812 214.116C459.441 212.105 461.8 209.94 463.888 207.62C465.976 205.3 467.658 202.941 468.934 200.544H466.324C465.241 202.516 463.849 204.469 462.148 206.402C460.447 208.297 458.61 210.056 456.638 211.68C454.666 213.304 452.713 214.619 450.78 215.624C450.045 216.011 449.272 216.107 448.46 215.914C447.687 215.759 447.087 215.315 446.662 214.58C446.314 213.961 446.237 213.304 446.43 212.608C446.623 211.873 447.029 211.332 447.648 210.984C450.045 209.747 452.385 208.181 454.666 206.286C456.947 204.391 458.823 202.477 460.292 200.544H457.16C456.039 201.82 454.84 203.038 453.564 204.198C452.327 205.319 451.07 206.363 449.794 207.33C449.137 207.794 448.383 208.007 447.532 207.968C446.681 207.929 446.005 207.601 445.502 206.982C445.077 206.402 444.883 205.745 444.922 205.01C444.999 204.237 445.347 203.657 445.966 203.27C446.662 202.767 447.358 202.226 448.054 201.646C448.789 201.027 449.504 200.409 450.2 199.79C450.084 199.867 449.968 199.945 449.852 200.022C449.736 200.099 449.601 200.177 449.446 200.254C448.247 200.795 446.778 201.433 445.038 202.168C443.298 202.864 441.539 203.541 439.76 204.198C437.981 204.855 436.454 205.397 435.178 205.822C434.211 206.17 433.322 206.112 432.51 205.648C431.737 205.184 431.215 204.527 430.944 203.676C430.673 202.787 430.731 201.975 431.118 201.24C431.505 200.467 432.181 199.945 433.148 199.674C434.501 199.326 436.067 198.881 437.846 198.34V183.666H433.612C432.684 183.666 431.949 183.376 431.408 182.796C430.867 182.216 430.596 181.52 430.596 180.708C430.596 179.857 430.867 179.142 431.408 178.562C431.949 177.982 432.684 177.692 433.612 177.692H437.846V168.76C437.846 167.755 438.155 166.981 438.774 166.44C439.393 165.86 440.166 165.57 441.094 165.57C442.022 165.57 442.795 165.86 443.414 166.44C444.033 166.981 444.342 167.755 444.342 168.76V177.692H448.17C449.059 177.692 449.775 177.982 450.316 178.562C450.857 179.142 451.128 179.857 451.128 180.708C451.128 181.52 450.857 182.216 450.316 182.796C449.775 183.376 449.059 183.666 448.17 183.666H444.342V196.136C444.922 195.904 445.483 195.691 446.024 195.498C446.565 195.266 447.087 195.053 447.59 194.86C448.325 194.551 449.04 194.551 449.736 194.86C450.471 195.169 450.954 195.691 451.186 196.426C451.534 197.586 451.399 198.533 450.78 199.268C452.868 197.257 454.666 195.247 456.174 193.236H451.012C450.277 193.236 449.678 192.985 449.214 192.482C448.789 191.941 448.576 191.322 448.576 190.626C448.576 189.93 448.789 189.331 449.214 188.828C449.678 188.287 450.277 188.016 451.012 188.016H482.448C483.221 188.016 483.821 188.287 484.246 188.828C484.71 189.331 484.942 189.93 484.942 190.626C484.942 191.322 484.71 191.941 484.246 192.482C483.821 192.985 483.221 193.236 482.448 193.236H462.38C462.148 193.623 461.916 194.029 461.684 194.454C461.452 194.841 461.201 195.247 460.93 195.672H474.908C477.653 195.672 479.664 196.271 480.94 197.47C482.216 198.669 482.699 200.679 482.39 203.502C482.119 206.75 481.636 209.689 480.94 212.318C480.399 214.483 479.393 216.049 477.924 217.016C476.493 218.021 474.483 218.524 471.892 218.524ZM463.946 185.986C461.355 185.986 459.325 185.715 457.856 185.174C456.387 184.594 455.343 183.608 454.724 182.216C454.144 180.785 453.854 178.794 453.854 176.242C453.854 173.651 454.144 171.66 454.724 170.268C455.343 168.876 456.387 167.909 457.856 167.368C459.325 166.788 461.355 166.498 463.946 166.498H468.876C471.467 166.498 473.497 166.788 474.966 167.368C476.435 167.909 477.479 168.876 478.098 170.268C478.717 171.66 479.026 173.651 479.026 176.242C479.026 178.794 478.717 180.785 478.098 182.216C477.479 183.608 476.435 184.594 474.966 185.174C473.497 185.715 471.467 185.986 468.876 185.986H463.946ZM464.642 180.998H468.296C469.843 180.998 470.925 180.843 471.544 180.534C472.163 180.225 472.53 179.49 472.646 178.33H460.234C460.35 179.49 460.717 180.225 461.336 180.534C461.993 180.843 463.095 180.998 464.642 180.998ZM460.234 173.98H472.646C472.491 172.859 472.105 172.163 471.486 171.892C470.867 171.583 469.804 171.428 468.296 171.428H464.642C463.095 171.428 462.013 171.583 461.394 171.892C460.775 172.163 460.389 172.859 460.234 173.98Z" fill="#007440"/>
<rect x="16" y="16" width="706" height="260" rx="24" fill="white"/>
<rect x="16" y="16" width="706" height="260" rx="24" stroke="#007440" stroke-width="4"/>
<path d="M116.44 129.36C115.213 129.893 113.96 129.92 112.68 129.44C111.4 129.013 110.467 128.187 109.88 126.96C109.347 125.733 109.293 124.48 109.72 123.2C110.2 121.867 111.053 120.933 112.28 120.4C118.307 117.573 122.76 113.76 125.64 108.96C128.52 104.16 130.04 97.9733 130.2 90.4H118.04C118.093 92.5333 118.12 94.56 118.12 96.48C118.12 98.4 118.067 100.133 117.96 101.68C117.907 103.067 117.373 104.213 116.36 105.12C115.347 105.973 114.147 106.373 112.76 106.32C111.427 106.213 110.333 105.653 109.48 104.64C108.627 103.573 108.227 102.373 108.28 101.04C108.387 99.6 108.44 97.9733 108.44 96.16C108.44 94.2933 108.413 92.3733 108.36 90.4H91.96C90.6267 90.4 89.48 89.9467 88.52 89.04C87.6133 88.1333 87.16 87.0133 87.16 85.68C87.16 84.3467 87.6133 83.2267 88.52 82.32C89.48 81.36 90.6267 80.88 91.96 80.88H108.04C107.933 79.0133 107.8 77.2533 107.64 75.6C107.533 73.8933 107.373 72.4 107.16 71.12C106.947 69.7867 107.213 68.5867 107.96 67.52C108.76 66.4 109.827 65.7333 111.16 65.52C112.547 65.2533 113.773 65.52 114.84 66.32C115.96 67.12 116.6 68.1867 116.76 69.52C116.973 71.0133 117.16 72.7467 117.32 74.72C117.48 76.64 117.613 78.6933 117.72 80.88H130.12C130.067 78.5867 129.987 76.3733 129.88 74.24C129.827 72.0533 129.72 70.16 129.56 68.56C129.453 67.1733 129.827 65.9733 130.68 64.96C131.587 63.8933 132.707 63.3067 134.04 63.2C135.427 63.0933 136.627 63.4933 137.64 64.4C138.707 65.2533 139.267 66.3733 139.32 67.76C139.48 69.4133 139.587 71.4133 139.64 73.76C139.747 76.0533 139.827 78.4267 139.88 80.88H155.08C156.413 80.88 157.533 81.36 158.44 82.32C159.4 83.2267 159.88 84.3467 159.88 85.68C159.88 87.0133 159.4 88.1333 158.44 89.04C157.533 89.9467 156.413 90.4 155.08 90.4H139.88C139.72 99.8933 137.667 107.92 133.72 114.48C129.773 120.987 124.013 125.947 116.44 129.36ZM179.56 128.56C178.547 127.653 178.013 126.533 177.96 125.2C177.907 123.813 178.333 122.613 179.24 121.6C183.4 117.12 186.947 112.08 189.88 106.48C192.867 100.827 195.187 94.72 196.84 88.16C193.853 88.32 191.053 88.48 188.44 88.64C185.88 88.7467 184.2 88.8267 183.4 88.88C182.067 88.9333 180.893 88.5067 179.88 87.6C178.867 86.64 178.333 85.4933 178.28 84.16C178.227 82.7733 178.653 81.5733 179.56 80.56C180.467 79.5467 181.613 79.0133 183 78.96C183.587 78.9067 184.707 78.8533 186.36 78.8C188.013 78.7467 189.933 78.6933 192.12 78.64C194.36 78.5333 196.6 78.4267 198.84 78.32C199.48 74.32 199.88 70.1867 200.04 65.92C200.093 64.5333 200.627 63.3867 201.64 62.48C202.653 61.52 203.827 61.0933 205.16 61.2C206.547 61.2533 207.693 61.7867 208.6 62.8C209.56 63.76 209.987 64.9333 209.88 66.32C209.827 68.2933 209.693 70.24 209.48 72.16C209.267 74.08 209.027 76.0267 208.76 78L211.08 77.84C216.893 77.6267 221.373 78.3467 224.52 80C227.667 81.6533 229.693 84.4 230.6 88.24C231.507 92.08 231.453 97.2267 230.44 103.68C229.587 109.12 228.36 113.547 226.76 116.96C225.213 120.373 223.32 122.96 221.08 124.72C218.893 126.427 216.413 127.467 213.64 127.84C210.867 128.267 207.853 128.213 204.6 127.68C203.267 127.467 202.2 126.8 201.4 125.68C200.6 124.56 200.307 123.333 200.52 122C200.787 120.613 201.48 119.547 202.6 118.8C203.72 118 204.947 117.733 206.28 118C208.04 118.32 209.64 118.4 211.08 118.24C212.52 118.08 213.827 117.493 215 116.48C216.227 115.467 217.293 113.813 218.2 111.52C219.16 109.173 219.987 105.973 220.68 101.92C221.427 97.7067 221.64 94.56 221.32 92.48C221 90.3467 220.04 88.9333 218.44 88.24C216.893 87.5467 214.547 87.2533 211.4 87.36C210.6 87.36 209.08 87.44 206.84 87.6C204.92 95.6533 202.2 103.2 198.68 110.24C195.16 117.28 191.107 123.307 186.52 128.32C185.613 129.333 184.467 129.84 183.08 129.84C181.747 129.893 180.573 129.467 179.56 128.56ZM267 129.44C265.72 129.973 264.44 130 263.16 129.52C261.933 129.04 261.027 128.16 260.44 126.88C259.907 125.653 259.88 124.4 260.36 123.12C260.893 121.84 261.773 120.933 263 120.4C273.987 115.653 283.027 109.627 290.12 102.32C288.947 101.147 287.827 100.08 286.76 99.12C285.693 98.16 284.787 97.3867 284.04 96.8C283.027 95.8933 282.413 94.7733 282.2 93.44C282.04 92.1067 282.387 90.9333 283.24 89.92C284.147 88.8533 285.267 88.24 286.6 88.08C287.987 87.92 289.187 88.2933 290.2 89.2C291.107 89.8933 292.067 90.72 293.08 91.68C294.147 92.5867 295.267 93.5733 296.44 94.64C297.4 93.2533 298.307 91.84 299.16 90.4C300.013 88.96 300.813 87.4933 301.56 86C302.413 84.24 302.573 82.9333 302.04 82.08C301.56 81.1733 300.28 80.72 298.2 80.72H287.32C284.653 84.2933 281.667 87.7333 278.36 91.04C275.053 94.2933 271.907 97.0133 268.92 99.2C267.8 100 266.547 100.293 265.16 100.08C263.827 99.8133 262.787 99.12 262.04 98C261.24 96.88 260.947 95.6533 261.16 94.32C261.427 92.9867 262.12 91.92 263.24 91.12C266.333 88.88 269.293 86.3467 272.12 83.52C275 80.6933 277.587 77.7333 279.88 74.64C282.173 71.4933 284.013 68.4533 285.4 65.52C285.987 64.2933 286.893 63.44 288.12 62.96C289.4 62.4267 290.653 62.4267 291.88 62.96C293.107 63.4933 293.96 64.4267 294.44 65.76C294.973 67.04 294.947 68.2933 294.36 69.52C294.253 69.7867 294.12 70.08 293.96 70.4C293.853 70.6667 293.72 70.9333 293.56 71.2H299.72C303.827 71.2 306.973 71.9733 309.16 73.52C311.4 75.0667 312.653 77.2267 312.92 80C313.187 82.72 312.44 85.84 310.68 89.36C308.707 93.52 306.253 97.4933 303.32 101.28C304.547 102.453 305.667 103.573 306.68 104.64C307.693 105.707 308.547 106.667 309.24 107.52C310.147 108.587 310.52 109.813 310.36 111.2C310.2 112.587 309.56 113.733 308.44 114.64C307.373 115.493 306.147 115.84 304.76 115.68C303.427 115.467 302.307 114.853 301.4 113.84C300.867 113.2 300.2 112.453 299.4 111.6C298.6 110.747 297.747 109.867 296.84 108.96C288.52 117.6 278.573 124.427 267 129.44ZM373 129.52C371.667 129.52 370.52 129.013 369.56 128C368.6 127.04 368.12 125.893 368.12 124.56V92.56C364.707 95.5467 361.187 98.4267 357.56 101.2C353.933 103.973 350.307 106.507 346.68 108.8C345.507 109.493 344.253 109.68 342.92 109.36C341.64 109.04 340.627 108.293 339.88 107.12C339.187 105.947 339 104.693 339.32 103.36C339.64 102.027 340.387 101.013 341.56 100.32C344.92 98.24 348.413 95.8133 352.04 93.04C355.72 90.2667 359.293 87.3067 362.76 84.16C366.28 81.0133 369.507 77.8667 372.44 74.72C375.427 71.52 377.907 68.5067 379.88 65.68C380.68 64.56 381.747 63.8667 383.08 63.6C384.413 63.3333 385.64 63.6 386.76 64.4C387.88 65.1467 388.573 66.2133 388.84 67.6C389.107 68.9333 388.84 70.16 388.04 71.28C385.267 75.0133 381.907 78.9333 377.96 83.04V124.56C377.96 125.893 377.48 127.04 376.52 128C375.56 129.013 374.387 129.52 373 129.52ZM431.56 122.88C430.28 123.36 429 123.307 427.72 122.72C426.493 122.133 425.64 121.2 425.16 119.92C424.68 118.64 424.733 117.387 425.32 116.16C425.907 114.88 426.84 114 428.12 113.52C432.387 112.027 436.68 110.187 441 108C445.373 105.813 449.533 103.44 453.48 100.88C457.48 98.2667 461.107 95.6 464.36 92.88C467.667 90.1067 470.36 87.44 472.44 84.88C473.347 83.8133 474.467 83.2 475.8 83.04C477.187 82.88 478.387 83.2533 479.4 84.16C480.467 85.0133 481.08 86.1333 481.24 87.52C481.4 88.8533 481.027 90.0533 480.12 91.12C477.933 93.7867 475.027 96.64 471.4 99.68C467.773 102.667 463.72 105.627 459.24 108.56C454.76 111.493 450.147 114.213 445.4 116.72C440.653 119.227 436.04 121.28 431.56 122.88ZM438.44 91.36C436.413 89.6533 434.147 87.8933 431.64 86.08C429.133 84.2133 426.867 82.6933 424.84 81.52C423.667 80.7733 422.92 79.76 422.6 78.48C422.28 77.1467 422.467 75.8933 423.16 74.72C423.907 73.5467 424.92 72.8 426.2 72.48C427.533 72.1067 428.787 72.2933 429.96 73.04C431.4 73.9467 433.027 75.0667 434.84 76.4C436.707 77.68 438.493 78.96 440.2 80.24C441.96 81.52 443.4 82.6133 444.52 83.52C445.587 84.3733 446.2 85.4933 446.36 86.88C446.573 88.2133 446.253 89.4133 445.4 90.48C444.547 91.5467 443.427 92.1867 442.04 92.4C440.707 92.56 439.507 92.2133 438.44 91.36ZM512.84 128.72C511.56 129.253 510.28 129.253 509 128.72C507.773 128.24 506.867 127.387 506.28 126.16C505.747 124.933 505.72 123.68 506.2 122.4C506.733 121.12 507.613 120.213 508.84 119.68C517.693 115.787 525.347 110.96 531.8 105.2C538.253 99.44 543.347 92.88 547.08 85.52C547.987 83.8133 548.147 82.5333 547.56 81.68C547.027 80.8267 545.667 80.4 543.48 80.4H532.84C530.28 83.8133 527.427 87.1467 524.28 90.4C521.133 93.6 517.853 96.3733 514.44 98.72C513.373 99.52 512.147 99.8133 510.76 99.6C509.427 99.3333 508.36 98.64 507.56 97.52C506.813 96.4 506.547 95.1733 506.76 93.84C507.027 92.4533 507.72 91.3867 508.84 90.64C511.827 88.6133 514.733 86.1867 517.56 83.36C520.387 80.5333 522.947 77.5733 525.24 74.48C527.587 71.3333 529.427 68.2667 530.76 65.28C531.293 64.0533 532.2 63.2 533.48 62.72C534.76 62.1867 536.013 62.2133 537.24 62.8C538.467 63.3333 539.32 64.24 539.8 65.52C540.333 66.8 540.307 68.0533 539.72 69.28C539.507 69.8133 539.24 70.3467 538.92 70.88H544.44C550.787 70.88 555 72.5067 557.08 75.76C559.213 79.0133 558.947 83.4133 556.28 88.96C553.56 94.6133 549.987 99.9733 545.56 105.04C541.187 110.107 536.227 114.667 530.68 118.72C525.133 122.72 519.187 126.053 512.84 128.72ZM588.6 124.4C587.427 124.987 586.173 125.067 584.84 124.64C583.56 124.16 582.627 123.307 582.04 122.08C581.453 120.853 581.373 119.6 581.8 118.32C582.28 117.04 583.107 116.107 584.28 115.52C591.907 111.84 598.68 107.413 604.6 102.24C610.573 97.0133 615.427 91.36 619.16 85.28C621.507 81.44 620.227 79.52 615.32 79.52H593.48C592.147 79.52 591 79.04 590.04 78.08C589.08 77.0667 588.6 75.8933 588.6 74.56C588.6 73.1733 589.08 72 590.04 71.04C591 70.08 592.147 69.6 593.48 69.6H615.64C620.44 69.6 624.12 70.48 626.68 72.24C629.24 73.9467 630.627 76.2933 630.84 79.28C631.107 82.2667 630.12 85.7067 627.88 89.6C626.707 91.7333 625.293 93.8667 623.64 96C626.093 98.0267 628.6 100.267 631.16 102.72C633.773 105.12 636.2 107.467 638.44 109.76C640.733 112 642.653 113.92 644.2 115.52C645.107 116.48 645.56 117.653 645.56 119.04C645.56 120.427 645.053 121.6 644.04 122.56C643.08 123.52 641.907 124 640.52 124C639.133 123.947 637.96 123.44 637 122.48C635.56 120.987 633.747 119.12 631.56 116.88C629.373 114.587 627.053 112.24 624.6 109.84C622.147 107.387 619.773 105.173 617.48 103.2C613.427 107.413 608.893 111.387 603.88 115.12C598.92 118.8 593.827 121.893 588.6 124.4ZM283.508 218.872C282.735 219.027 282.039 218.891 281.42 218.466C280.801 218.079 280.434 217.519 280.318 216.784C280.241 216.436 280.163 216.049 280.086 215.624C280.009 215.237 279.912 214.812 279.796 214.348C278.597 214.541 277.186 214.754 275.562 214.986C273.977 215.218 272.43 215.431 270.922 215.624C269.414 215.856 268.157 216.049 267.152 216.204C266.185 216.359 265.373 216.204 264.716 215.74C264.059 215.276 263.653 214.58 263.498 213.652C263.421 212.879 263.633 212.183 264.136 211.564C264.677 210.907 265.393 210.539 266.282 210.462L267.152 210.404C267.925 209.244 268.834 207.833 269.878 206.17C270.961 204.507 272.043 202.787 273.126 201.008C272.43 200.351 271.599 199.635 270.632 198.862C269.665 198.05 268.718 197.277 267.79 196.542C266.901 195.769 266.166 195.169 265.586 194.744C264.967 194.203 264.639 193.545 264.6 192.772C264.561 191.999 264.793 191.303 265.296 190.684C265.837 190.027 266.514 189.659 267.326 189.582C268.177 189.505 268.931 189.737 269.588 190.278L269.704 190.394C270.245 189.466 270.825 188.422 271.444 187.262C272.101 186.102 272.701 185.019 273.242 184.014C273.822 182.97 274.228 182.197 274.46 181.694C274.537 181.578 274.595 181.462 274.634 181.346C274.711 181.23 274.789 181.133 274.866 181.056H269.472C268.66 181.056 267.964 180.785 267.384 180.244C266.804 179.664 266.514 178.968 266.514 178.156C266.514 177.344 266.804 176.648 267.384 176.068C267.964 175.488 268.66 175.198 269.472 175.198H277.36C277.283 175.121 277.205 175.043 277.128 174.966C277.051 174.85 276.973 174.734 276.896 174.618C276.741 174.309 276.49 173.864 276.142 173.284C275.794 172.665 275.427 172.047 275.04 171.428C274.692 170.809 274.402 170.326 274.17 169.978C273.706 169.282 273.59 168.528 273.822 167.716C274.093 166.865 274.595 166.247 275.33 165.86C276.181 165.396 276.993 165.261 277.766 165.454C278.578 165.647 279.235 166.131 279.738 166.904C279.931 167.213 280.221 167.716 280.608 168.412C281.033 169.069 281.439 169.727 281.826 170.384C282.251 171.003 282.522 171.428 282.638 171.66C282.986 172.279 283.102 172.917 282.986 173.574C282.909 174.193 282.657 174.734 282.232 175.198H287.916C288.225 174.502 288.612 173.613 289.076 172.53C289.579 171.447 290.043 170.384 290.468 169.34C290.893 168.296 291.203 167.523 291.396 167.02C291.744 166.131 292.343 165.531 293.194 165.222C294.045 164.913 294.895 164.932 295.746 165.28C296.635 165.667 297.215 166.266 297.486 167.078C297.795 167.851 297.776 168.644 297.428 169.456C297.157 170.075 296.732 170.945 296.152 172.066C295.611 173.149 295.069 174.193 294.528 175.198H303.576C304.388 175.198 305.065 175.488 305.606 176.068C306.186 176.648 306.476 177.344 306.476 178.156C306.476 178.968 306.186 179.664 305.606 180.244C305.065 180.785 304.388 181.056 303.576 181.056H296.152C296.887 181.404 297.409 181.945 297.718 182.68C298.027 183.415 297.989 184.149 297.602 184.884C297.293 185.541 296.848 186.411 296.268 187.494C295.688 188.538 295.089 189.64 294.47 190.8C293.851 191.921 293.271 192.927 292.73 193.816C293.155 194.203 293.581 194.57 294.006 194.918C294.431 195.227 294.837 195.537 295.224 195.846C295.959 194.454 296.635 193.139 297.254 191.902C297.873 190.626 298.375 189.505 298.762 188.538C299.071 187.803 299.593 187.32 300.328 187.088C301.101 186.817 301.855 186.837 302.59 187.146C303.363 187.455 303.866 187.997 304.098 188.77C304.369 189.543 304.33 190.297 303.982 191.032C303.247 192.579 302.3 194.415 301.14 196.542C299.98 198.669 298.781 200.853 297.544 203.096C296.345 205.3 295.224 207.291 294.18 209.07L299.226 208.432C299.071 207.929 298.917 207.465 298.762 207.04C298.607 206.576 298.453 206.17 298.298 205.822C298.027 205.126 298.047 204.43 298.356 203.734C298.704 203.038 299.245 202.574 299.98 202.342C300.715 202.071 301.411 202.091 302.068 202.4C302.764 202.671 303.247 203.154 303.518 203.85C303.866 204.739 304.272 205.841 304.736 207.156C305.2 208.471 305.645 209.805 306.07 211.158C306.534 212.473 306.901 213.613 307.172 214.58C307.365 215.353 307.269 216.049 306.882 216.668C306.495 217.325 305.915 217.751 305.142 217.944C304.369 218.176 303.634 218.118 302.938 217.77C302.242 217.422 301.797 216.861 301.604 216.088C301.488 215.74 301.372 215.334 301.256 214.87C301.14 214.445 301.005 214 300.85 213.536C299.651 213.729 298.24 213.961 296.616 214.232C295.031 214.503 293.484 214.754 291.976 214.986C290.468 215.257 289.231 215.469 288.264 215.624C287.259 215.74 286.427 215.585 285.77 215.16L285.886 215.682C286.079 216.455 285.925 217.132 285.422 217.712C284.919 218.331 284.281 218.717 283.508 218.872ZM255.088 216.494C254.315 216.069 253.812 215.45 253.58 214.638C253.387 213.865 253.503 213.111 253.928 212.376C254.585 211.139 255.339 209.631 256.19 207.852C257.041 206.073 257.872 204.275 258.684 202.458C259.496 200.641 260.134 199.094 260.598 197.818C260.946 196.929 261.507 196.329 262.28 196.02C263.053 195.711 263.846 195.73 264.658 196.078C266.321 196.851 266.823 198.185 266.166 200.08C265.741 201.433 265.122 203.038 264.31 204.894C263.537 206.75 262.725 208.587 261.874 210.404C261.062 212.221 260.327 213.768 259.67 215.044C259.245 215.856 258.587 216.417 257.698 216.726C256.847 217.035 255.977 216.958 255.088 216.494ZM284.9 211.332C285.403 210.481 286.176 209.998 287.22 209.882L287.626 209.824C288.283 208.703 289.018 207.407 289.83 205.938C290.642 204.469 291.473 202.941 292.324 201.356C291.628 200.737 290.758 200.041 289.714 199.268C288.709 198.456 287.703 197.663 286.698 196.89C285.731 196.117 284.939 195.517 284.32 195.092C284.088 194.899 283.875 194.686 283.682 194.454C282.793 195.962 281.787 197.625 280.666 199.442C279.545 201.221 278.404 202.999 277.244 204.778C276.123 206.557 275.059 208.2 274.054 209.708L278.578 209.186C278.462 208.645 278.327 208.161 278.172 207.736C278.056 207.272 277.959 206.847 277.882 206.46C277.65 205.725 277.727 205.029 278.114 204.372C278.501 203.715 279.061 203.289 279.796 203.096C280.569 202.903 281.285 202.98 281.942 203.328C282.599 203.676 283.025 204.217 283.218 204.952C283.489 205.725 283.759 206.692 284.03 207.852C284.339 209.012 284.629 210.172 284.9 211.332ZM276.316 195.788C277.089 194.551 277.785 193.391 278.404 192.308C279.023 191.187 279.545 190.22 279.97 189.408C280.395 188.673 280.975 188.209 281.71 188.016C282.483 187.823 283.218 187.919 283.914 188.306C284.533 188.654 284.977 189.176 285.248 189.872C285.712 189.717 286.195 189.679 286.698 189.756C287.239 189.833 287.723 190.027 288.148 190.336C288.612 189.485 289.095 188.557 289.598 187.552C290.139 186.547 290.623 185.599 291.048 184.71C291.473 183.782 291.802 183.067 292.034 182.564C292.343 181.868 292.846 181.365 293.542 181.056H279.274C280.241 182.023 280.415 183.105 279.796 184.304C279.448 185 278.926 185.928 278.23 187.088C277.573 188.248 276.857 189.447 276.084 190.684C275.349 191.883 274.692 192.965 274.112 193.932C274.499 194.241 274.885 194.551 275.272 194.86C275.659 195.169 276.007 195.479 276.316 195.788ZM260.54 189.524C260.153 189.253 259.593 188.886 258.858 188.422C258.123 187.958 257.389 187.494 256.654 187.03C255.919 186.566 255.32 186.199 254.856 185.928C254.121 185.503 253.657 184.903 253.464 184.13C253.271 183.357 253.387 182.603 253.812 181.868C254.237 181.095 254.837 180.592 255.61 180.36C256.422 180.128 257.253 180.263 258.104 180.766C258.568 180.998 259.167 181.346 259.902 181.81C260.675 182.274 261.429 182.738 262.164 183.202C262.937 183.666 263.537 184.033 263.962 184.304C264.735 184.768 265.219 185.425 265.412 186.276C265.605 187.127 265.431 187.939 264.89 188.712C264.426 189.447 263.769 189.891 262.918 190.046C262.067 190.201 261.275 190.027 260.54 189.524ZM262.628 176.532C262.241 176.223 261.681 175.855 260.946 175.43C260.25 174.966 259.535 174.502 258.8 174.038C258.065 173.574 257.466 173.207 257.002 172.936C256.306 172.511 255.861 171.911 255.668 171.138C255.475 170.365 255.571 169.611 255.958 168.876C256.383 168.103 257.002 167.619 257.814 167.426C258.626 167.194 259.457 167.31 260.308 167.774C260.772 168.006 261.352 168.354 262.048 168.818C262.783 169.282 263.517 169.746 264.252 170.21C264.987 170.635 265.567 170.983 265.992 171.254C266.765 171.757 267.249 172.433 267.442 173.284C267.635 174.096 267.461 174.889 266.92 175.662C266.456 176.397 265.799 176.841 264.948 176.996C264.097 177.151 263.324 176.996 262.628 176.532ZM320.048 218.814C319.043 219.085 318.153 219.085 317.38 218.814C316.607 218.582 316.065 218.021 315.756 217.132C315.524 216.359 315.582 215.566 315.93 214.754C316.278 213.981 316.877 213.497 317.728 213.304C318.733 213.072 319.855 212.763 321.092 212.376C322.368 211.951 323.663 211.487 324.978 210.984C326.331 210.481 327.549 209.979 328.632 209.476C326.196 209.089 324.456 208.258 323.412 206.982C322.368 205.667 321.846 203.715 321.846 201.124V194.28C321.846 191.071 322.658 188.847 324.282 187.61C325.906 186.334 328.69 185.696 332.634 185.696H346.38C350.363 185.696 353.166 186.334 354.79 187.61C356.414 188.847 357.226 191.071 357.226 194.28V201.124C357.226 203.753 356.685 205.725 355.602 207.04C354.558 208.316 352.779 209.128 350.266 209.476C351.929 210.249 353.785 211.003 355.834 211.738C357.883 212.473 359.643 212.995 361.112 213.304C362.001 213.497 362.601 213.981 362.91 214.754C363.258 215.566 363.316 216.359 363.084 217.132C362.775 218.021 362.233 218.582 361.46 218.814C360.687 219.085 359.797 219.085 358.792 218.814C357.555 218.466 356.124 217.983 354.5 217.364C352.915 216.784 351.349 216.165 349.802 215.508C348.255 214.851 346.941 214.232 345.858 213.652C345.123 213.227 344.679 212.666 344.524 211.97C344.369 211.235 344.466 210.539 344.814 209.882C344.853 209.843 344.872 209.824 344.872 209.824C344.872 209.785 344.891 209.747 344.93 209.708H333.91C333.987 209.785 334.026 209.843 334.026 209.882C334.374 210.539 334.471 211.235 334.316 211.97C334.2 212.666 333.755 213.227 332.982 213.652C331.899 214.232 330.585 214.851 329.038 215.508C327.491 216.165 325.925 216.784 324.34 217.364C322.755 217.983 321.324 218.466 320.048 218.814ZM318.308 187.958C317.535 188.461 316.665 188.693 315.698 188.654C314.731 188.615 313.977 188.19 313.436 187.378C313.011 186.721 312.875 185.986 313.03 185.174C313.185 184.323 313.61 183.705 314.306 183.318C316.355 182.197 318.018 180.921 319.294 179.49C320.57 178.059 321.575 176.358 322.31 174.386H316.22C315.447 174.386 314.828 174.154 314.364 173.69C313.9 173.187 313.668 172.588 313.668 171.892C313.668 171.157 313.9 170.539 314.364 170.036C314.828 169.533 315.447 169.282 316.22 169.282H323.47C323.547 168.973 323.586 168.644 323.586 168.296C323.625 167.909 323.663 167.542 323.702 167.194C323.779 166.189 324.166 165.473 324.862 165.048C325.558 164.623 326.351 164.449 327.24 164.526C328.052 164.603 328.729 164.932 329.27 165.512C329.811 166.092 330.043 166.865 329.966 167.832C329.927 168.103 329.889 168.354 329.85 168.586C329.85 168.818 329.831 169.05 329.792 169.282H333.446C335.766 169.282 337.467 169.862 338.55 171.022C339.671 172.143 340.077 173.961 339.768 176.474C339.497 178.717 339.014 180.437 338.318 181.636C337.661 182.835 336.713 183.666 335.476 184.13C334.277 184.594 332.711 184.826 330.778 184.826C329.966 184.826 329.27 184.594 328.69 184.13C328.149 183.627 327.839 182.951 327.762 182.1C327.723 181.327 327.936 180.669 328.4 180.128C328.864 179.548 329.463 179.239 330.198 179.2C331.474 179.123 332.286 178.949 332.634 178.678C333.021 178.407 333.311 177.731 333.504 176.648C333.659 175.797 333.62 175.217 333.388 174.908C333.156 174.56 332.537 174.386 331.532 174.386H328.574C327.607 177.402 326.254 180.051 324.514 182.332C322.774 184.575 320.705 186.45 318.308 187.958ZM351.658 183.55C349.531 183.55 347.811 183.337 346.496 182.912C345.22 182.448 344.292 181.655 343.712 180.534C343.171 179.374 342.9 177.731 342.9 175.604C342.9 173.439 343.171 171.795 343.712 170.674C344.292 169.514 345.22 168.721 346.496 168.296C347.811 167.832 349.531 167.6 351.658 167.6H355.022C357.187 167.6 358.908 167.832 360.184 168.296C361.46 168.721 362.369 169.514 362.91 170.674C363.49 171.795 363.78 173.439 363.78 175.604C363.78 177.731 363.49 179.374 362.91 180.534C362.369 181.655 361.46 182.448 360.184 182.912C358.908 183.337 357.187 183.55 355.022 183.55H351.658ZM328.748 198.804H350.266V196.484H328.748V198.804ZM351.948 178.446H354.732C356.047 178.446 356.897 178.272 357.284 177.924C357.671 177.537 357.864 176.764 357.864 175.604C357.864 174.405 357.671 173.632 357.284 173.284C356.897 172.897 356.047 172.704 354.732 172.704H351.948C350.633 172.704 349.783 172.897 349.396 173.284C349.009 173.632 348.816 174.405 348.816 175.604C348.816 176.764 349.009 177.537 349.396 177.924C349.783 178.272 350.633 178.446 351.948 178.446ZM332.75 205.01H346.322C347.714 205.01 348.681 204.855 349.222 204.546C349.763 204.237 350.092 203.618 350.208 202.69H328.864C328.941 203.618 329.251 204.237 329.792 204.546C330.372 204.855 331.358 205.01 332.75 205.01ZM328.864 192.598H350.208C350.053 191.747 349.705 191.187 349.164 190.916C348.623 190.607 347.675 190.452 346.322 190.452H332.75C331.397 190.452 330.43 190.607 329.85 190.916C329.309 191.187 328.98 191.747 328.864 192.598ZM375.264 213.768C374.336 213.768 373.543 213.439 372.886 212.782C372.229 212.125 371.9 211.332 371.9 210.404C371.9 209.476 372.229 208.703 372.886 208.084C373.543 207.427 374.336 207.098 375.264 207.098H394.81V178.214H378.86C377.932 178.214 377.139 177.905 376.482 177.286C375.825 176.629 375.496 175.836 375.496 174.908C375.496 173.98 375.825 173.187 376.482 172.53C377.139 171.873 377.932 171.544 378.86 171.544H418.3C419.228 171.544 420.021 171.873 420.678 172.53C421.335 173.187 421.664 173.98 421.664 174.908C421.664 175.836 421.335 176.629 420.678 177.286C420.021 177.905 419.228 178.214 418.3 178.214H402.35V207.098H421.954C422.882 207.098 423.655 207.427 424.274 208.084C424.931 208.703 425.26 209.476 425.26 210.404C425.26 211.332 424.931 212.125 424.274 212.782C423.655 213.439 422.882 213.768 421.954 213.768H375.264ZM471.892 218.524C470.925 218.524 470.113 218.292 469.456 217.828C468.837 217.403 468.47 216.707 468.354 215.74C468.277 214.851 468.509 214.077 469.05 213.42C469.63 212.763 470.345 212.415 471.196 212.376C472.472 212.299 473.342 212.125 473.806 211.854C474.309 211.583 474.695 210.984 474.966 210.056C475.198 209.321 475.43 208.393 475.662 207.272C475.894 206.151 476.087 204.991 476.242 203.792C476.397 202.787 476.358 202.052 476.126 201.588C475.894 201.124 475.43 200.815 474.734 200.66C473.845 202.825 472.665 204.991 471.196 207.156C469.765 209.321 468.161 211.351 466.382 213.246C464.642 215.102 462.844 216.687 460.988 218.002C460.331 218.466 459.577 218.698 458.726 218.698C457.875 218.698 457.179 218.389 456.638 217.77C456.135 217.229 455.884 216.591 455.884 215.856C455.923 215.121 456.232 214.541 456.812 214.116C459.441 212.105 461.8 209.94 463.888 207.62C465.976 205.3 467.658 202.941 468.934 200.544H466.324C465.241 202.516 463.849 204.469 462.148 206.402C460.447 208.297 458.61 210.056 456.638 211.68C454.666 213.304 452.713 214.619 450.78 215.624C450.045 216.011 449.272 216.107 448.46 215.914C447.687 215.759 447.087 215.315 446.662 214.58C446.314 213.961 446.237 213.304 446.43 212.608C446.623 211.873 447.029 211.332 447.648 210.984C450.045 209.747 452.385 208.181 454.666 206.286C456.947 204.391 458.823 202.477 460.292 200.544H457.16C456.039 201.82 454.84 203.038 453.564 204.198C452.327 205.319 451.07 206.363 449.794 207.33C449.137 207.794 448.383 208.007 447.532 207.968C446.681 207.929 446.005 207.601 445.502 206.982C445.077 206.402 444.883 205.745 444.922 205.01C444.999 204.237 445.347 203.657 445.966 203.27C446.662 202.767 447.358 202.226 448.054 201.646C448.789 201.027 449.504 200.409 450.2 199.79C450.084 199.867 449.968 199.945 449.852 200.022C449.736 200.099 449.601 200.177 449.446 200.254C448.247 200.795 446.778 201.433 445.038 202.168C443.298 202.864 441.539 203.541 439.76 204.198C437.981 204.855 436.454 205.397 435.178 205.822C434.211 206.17 433.322 206.112 432.51 205.648C431.737 205.184 431.215 204.527 430.944 203.676C430.673 202.787 430.731 201.975 431.118 201.24C431.505 200.467 432.181 199.945 433.148 199.674C434.501 199.326 436.067 198.881 437.846 198.34V183.666H433.612C432.684 183.666 431.949 183.376 431.408 182.796C430.867 182.216 430.596 181.52 430.596 180.708C430.596 179.857 430.867 179.142 431.408 178.562C431.949 177.982 432.684 177.692 433.612 177.692H437.846V168.76C437.846 167.755 438.155 166.981 438.774 166.44C439.393 165.86 440.166 165.57 441.094 165.57C442.022 165.57 442.795 165.86 443.414 166.44C444.033 166.981 444.342 167.755 444.342 168.76V177.692H448.17C449.059 177.692 449.775 177.982 450.316 178.562C450.857 179.142 451.128 179.857 451.128 180.708C451.128 181.52 450.857 182.216 450.316 182.796C449.775 183.376 449.059 183.666 448.17 183.666H444.342V196.136C444.922 195.904 445.483 195.691 446.024 195.498C446.565 195.266 447.087 195.053 447.59 194.86C448.325 194.551 449.04 194.551 449.736 194.86C450.471 195.169 450.954 195.691 451.186 196.426C451.534 197.586 451.399 198.533 450.78 199.268C452.868 197.257 454.666 195.247 456.174 193.236H451.012C450.277 193.236 449.678 192.985 449.214 192.482C448.789 191.941 448.576 191.322 448.576 190.626C448.576 189.93 448.789 189.331 449.214 188.828C449.678 188.287 450.277 188.016 451.012 188.016H482.448C483.221 188.016 483.821 188.287 484.246 188.828C484.71 189.331 484.942 189.93 484.942 190.626C484.942 191.322 484.71 191.941 484.246 192.482C483.821 192.985 483.221 193.236 482.448 193.236H462.38C462.148 193.623 461.916 194.029 461.684 194.454C461.452 194.841 461.201 195.247 460.93 195.672H474.908C477.653 195.672 479.664 196.271 480.94 197.47C482.216 198.669 482.699 200.679 482.39 203.502C482.119 206.75 481.636 209.689 480.94 212.318C480.399 214.483 479.393 216.049 477.924 217.016C476.493 218.021 474.483 218.524 471.892 218.524ZM463.946 185.986C461.355 185.986 459.325 185.715 457.856 185.174C456.387 184.594 455.343 183.608 454.724 182.216C454.144 180.785 453.854 178.794 453.854 176.242C453.854 173.651 454.144 171.66 454.724 170.268C455.343 168.876 456.387 167.909 457.856 167.368C459.325 166.788 461.355 166.498 463.946 166.498H468.876C471.467 166.498 473.497 166.788 474.966 167.368C476.435 167.909 477.479 168.876 478.098 170.268C478.717 171.66 479.026 173.651 479.026 176.242C479.026 178.794 478.717 180.785 478.098 182.216C477.479 183.608 476.435 184.594 474.966 185.174C473.497 185.715 471.467 185.986 468.876 185.986H463.946ZM464.642 180.998H468.296C469.843 180.998 470.925 180.843 471.544 180.534C472.163 180.225 472.53 179.49 472.646 178.33H460.234C460.35 179.49 460.717 180.225 461.336 180.534C461.993 180.843 463.095 180.998 464.642 180.998ZM460.234 173.98H472.646C472.491 172.859 472.105 172.163 471.486 171.892C470.867 171.583 469.804 171.428 468.296 171.428H464.642C463.095 171.428 462.013 171.583 461.394 171.892C460.775 172.163 460.389 172.859 460.234 173.98Z" fill="#007440"/>
</svg>
