<svg width="926" height="760" viewBox="0 0 926 760" fill="none" xmlns="http://www.w3.org/2000/svg">
<path d="M852 144L864.129 755.79C864.464 758.168 866.495 760 868.98 760C871.465 760 873.516 758.168 873.832 755.79L873.871 755.439C873.871 755.342 873.911 755.244 873.911 755.128C873.911 755.128 873.911 755.128 873.911 755.108L886 144H852Z" fill="#4B9E81"/>
<rect x="10.5" y="10.5" width="905" height="173" rx="29.5" fill="white"/>
<rect x="10.5" y="10.5" width="905" height="173" rx="29.5" stroke="#4B9E81" stroke-width="7"/>
<path d="M128.589 130.32C127.256 130.533 126.002 130.267 124.829 129.52C123.709 128.773 123.016 127.733 122.749 126.4C122.322 123.893 121.682 120.72 120.829 116.88C120.029 113.04 119.122 108.853 118.109 104.32C117.096 99.7867 116.056 95.3067 114.989 90.88C111.096 91.5733 107.362 92.24 103.789 92.88C100.216 93.52 97.2557 94.0533 94.9091 94.48C93.5757 94.6933 92.3491 94.4 91.2291 93.6C90.1624 92.7467 89.5224 91.6533 89.3091 90.32C89.0957 88.9333 89.4157 87.7067 90.2691 86.64C91.1224 85.5733 92.2157 84.9333 93.5491 84.72C95.5224 84.4533 98.2157 84.0533 101.629 83.52C105.096 82.9333 108.802 82.2933 112.749 81.6C112.109 78.9867 111.469 76.56 110.829 74.32C110.242 72.0267 109.709 70.0533 109.229 68.4C108.856 67.12 108.989 65.8933 109.629 64.72C110.269 63.4933 111.256 62.6933 112.589 62.32C113.922 61.8933 115.176 62.0267 116.349 62.72C117.576 63.36 118.349 64.3467 118.669 65.68C119.202 67.6 119.762 69.7867 120.349 72.24C120.936 74.6933 121.576 77.28 122.269 80C125.522 79.4667 128.589 78.96 131.469 78.48C134.402 77.9467 136.882 77.4933 138.909 77.12C144.189 76.16 148.296 76.4 151.229 77.84C154.216 79.28 156.136 81.9467 156.989 85.84C158.002 90.16 156.989 94.1333 153.949 97.76C150.909 101.387 145.762 104.48 138.509 107.04C137.229 107.467 135.976 107.387 134.749 106.8C133.522 106.213 132.669 105.28 132.189 104C131.762 102.72 131.816 101.467 132.349 100.24C132.936 98.96 133.896 98.1067 135.229 97.68C138.962 96.5067 141.682 95.3333 143.389 94.16C145.096 92.9867 146.162 91.8667 146.589 90.8C147.016 89.7333 147.122 88.8267 146.909 88.08C146.696 87.1733 146.162 86.56 145.309 86.24C144.509 85.92 142.936 85.9467 140.589 86.32C138.669 86.6933 136.296 87.12 133.469 87.6C130.642 88.08 127.629 88.6133 124.429 89.2C125.496 93.5733 126.536 97.9733 127.549 102.4C128.562 106.773 129.496 110.88 130.349 114.72C131.202 118.507 131.922 121.76 132.509 124.48C132.776 125.813 132.509 127.04 131.709 128.16C130.962 129.333 129.922 130.053 128.589 130.32ZM187.149 122.88C185.869 123.36 184.589 123.307 183.309 122.72C182.082 122.133 181.229 121.2 180.749 119.92C180.269 118.64 180.322 117.387 180.909 116.16C181.496 114.88 182.429 114 183.709 113.52C187.976 112.027 192.269 110.187 196.589 108C200.962 105.813 205.122 103.44 209.069 100.88C213.069 98.2667 216.696 95.6 219.949 92.88C223.256 90.1067 225.949 87.44 228.029 84.88C228.936 83.8133 230.056 83.2 231.389 83.04C232.776 82.88 233.976 83.2533 234.989 84.16C236.056 85.0133 236.669 86.1333 236.829 87.52C236.989 88.8533 236.616 90.0533 235.709 91.12C233.522 93.7867 230.616 96.64 226.989 99.68C223.362 102.667 219.309 105.627 214.829 108.56C210.349 111.493 205.736 114.213 200.989 116.72C196.242 119.227 191.629 121.28 187.149 122.88ZM194.029 91.36C192.002 89.6533 189.736 87.8933 187.229 86.08C184.722 84.2133 182.456 82.6933 180.429 81.52C179.256 80.7733 178.509 79.76 178.189 78.48C177.869 77.1467 178.056 75.8933 178.749 74.72C179.496 73.5467 180.509 72.8 181.789 72.48C183.122 72.1067 184.376 72.2933 185.549 73.04C186.989 73.9467 188.616 75.0667 190.429 76.4C192.296 77.68 194.082 78.96 195.789 80.24C197.549 81.52 198.989 82.6133 200.109 83.52C201.176 84.3733 201.789 85.4933 201.949 86.88C202.162 88.2133 201.842 89.4133 200.989 90.48C200.136 91.5467 199.016 92.1867 197.629 92.4C196.296 92.56 195.096 92.2133 194.029 91.36ZM301.389 122.88C300.216 123.52 298.962 123.627 297.629 123.2C296.296 122.773 295.309 121.973 294.669 120.8C293.976 119.52 292.989 117.893 291.709 115.92C290.429 113.947 289.016 111.867 287.469 109.68C285.976 107.493 284.456 105.413 282.909 103.44C281.416 101.467 280.082 99.84 278.909 98.56C277.949 97.5467 277.469 96.3733 277.469 95.04C277.522 93.7067 278.029 92.56 278.989 91.6C280.002 90.6933 281.202 90.2667 282.589 90.32C283.976 90.3733 285.122 90.9067 286.029 91.92C286.936 92.9333 287.922 94.08 288.989 95.36C290.056 96.64 291.149 98 292.269 99.44C296.536 97.7333 299.842 96.1867 302.189 94.8C304.536 93.4133 306.136 92.1333 306.989 90.96C307.896 89.7867 308.322 88.6933 308.269 87.68C308.216 86.56 307.762 85.7333 306.909 85.2C306.056 84.6667 304.536 84.4533 302.349 84.56L259.309 86.24C257.976 86.2933 256.802 85.8667 255.789 84.96C254.776 84 254.242 82.8533 254.189 81.52C254.136 80.1333 254.562 78.96 255.469 78C256.429 76.9867 257.576 76.4533 258.909 76.4L301.789 74.96C307.602 74.7467 311.789 75.5733 314.349 77.44C316.909 79.2533 318.376 82.16 318.749 86.16C319.069 89.2533 318.376 92.0533 316.669 94.56C315.016 97.0667 312.562 99.36 309.309 101.44C306.109 103.467 302.296 105.36 297.869 107.12C299.042 108.827 300.109 110.453 301.069 112C302.082 113.547 302.909 114.933 303.549 116.16C304.189 117.387 304.296 118.667 303.869 120C303.442 121.28 302.616 122.24 301.389 122.88ZM344.509 100.88C343.176 100.88 342.002 100.4 340.989 99.44C340.029 98.4267 339.549 97.2533 339.549 95.92C339.549 94.5333 340.029 93.36 340.989 92.4C342.002 91.44 343.176 90.96 344.509 90.96H394.349C395.736 90.96 396.909 91.44 397.869 92.4C398.829 93.36 399.309 94.5333 399.309 95.92C399.309 97.2533 398.829 98.4267 397.869 99.44C396.909 100.4 395.736 100.88 394.349 100.88H344.509ZM475.011 132.16C473.518 132.16 472.318 131.76 471.411 130.96C470.504 130.213 470.051 129.12 470.051 127.68V106.4H459.011C454.691 106.4 451.224 105.947 448.611 105.04C445.998 104.133 444.104 102.507 442.931 100.16C441.758 97.8133 441.171 94.5333 441.171 90.32C441.171 86 441.758 82.6933 442.931 80.4C444.158 78.0533 446.078 76.4533 448.691 75.6C451.304 74.6933 454.744 74.24 459.011 74.24H470.051V63.36C470.051 61.92 470.504 60.8267 471.411 60.08C472.318 59.3333 473.518 58.96 475.011 58.96C476.558 58.96 477.758 59.3333 478.611 60.08C479.464 60.8267 479.891 61.92 479.891 63.36V74.24H491.091C495.358 74.24 498.798 74.6933 501.411 75.6C504.024 76.4533 505.918 78.0533 507.091 80.4C508.318 82.6933 508.931 86 508.931 90.32C508.931 94.5333 508.318 97.8133 507.091 100.16C505.864 102.507 503.944 104.133 501.331 105.04C498.718 105.947 495.304 106.4 491.091 106.4H479.891V127.68C479.891 129.12 479.464 130.213 478.611 130.96C477.758 131.76 476.558 132.16 475.011 132.16ZM479.891 97.6H491.091C493.118 97.6 494.691 97.44 495.811 97.12C496.984 96.7467 497.811 96.0533 498.291 95.04C498.824 93.9733 499.091 92.4 499.091 90.32C499.091 88.1333 498.851 86.5333 498.371 85.52C497.944 84.5067 497.144 83.84 495.971 83.52C494.798 83.2 493.171 83.04 491.091 83.04H479.891V97.6ZM459.011 97.6H470.051V83.04H459.011C456.984 83.04 455.384 83.2 454.211 83.52C453.038 83.84 452.211 84.5067 451.731 85.52C451.251 86.5333 451.011 88.1333 451.011 90.32C451.011 92.4 451.224 93.9733 451.651 95.04C452.131 96.0533 452.931 96.7467 454.051 97.12C455.224 97.44 456.878 97.6 459.011 97.6ZM526.371 132.72C524.878 133.147 523.518 133.067 522.291 132.48C521.118 131.893 520.291 130.933 519.811 129.6C519.384 128.267 519.518 127.04 520.211 125.92C520.904 124.747 522.131 123.947 523.891 123.52C530.504 121.973 536.051 119.6 540.531 116.4C545.064 113.2 548.238 109.333 550.051 104.8H523.411C522.131 104.8 521.091 104.4 520.291 103.6C519.544 102.747 519.171 101.733 519.171 100.56C519.171 99.3867 519.544 98.4 520.291 97.6C521.091 96.7467 522.131 96.32 523.411 96.32H529.171V86.56C529.171 81.2267 530.398 77.4667 532.851 75.28C535.304 73.04 539.438 71.92 545.251 71.92H551.731V62.88C551.731 61.3333 552.184 60.16 553.091 59.36C553.998 58.56 555.118 58.16 556.451 58.16C557.838 58.16 558.984 58.56 559.891 59.36C560.798 60.16 561.251 61.3333 561.251 62.88V71.92H568.211C574.078 71.92 578.211 73.04 580.611 75.28C583.064 77.4667 584.291 81.2267 584.291 86.56V96.32H589.811C591.144 96.32 592.184 96.7467 592.931 97.6C593.731 98.4 594.131 99.3867 594.131 100.56C594.131 101.733 593.731 102.747 592.931 103.6C592.184 104.4 591.144 104.8 589.811 104.8H564.051C566.238 108.96 569.491 112.693 573.811 116C578.184 119.307 583.278 121.653 589.091 123.04C590.638 123.413 591.784 124.187 592.531 125.36C593.331 126.48 593.518 127.707 593.091 129.04C592.558 130.587 591.678 131.6 590.451 132.08C589.224 132.613 587.864 132.693 586.371 132.32C582.318 131.2 578.451 129.6 574.771 127.52C571.091 125.493 567.784 123.067 564.851 120.24C561.918 117.413 559.491 114.293 557.571 110.88C554.904 115.893 550.904 120.24 545.571 123.92C540.238 127.6 533.838 130.533 526.371 132.72ZM561.171 96.32H574.771V87.12C574.771 84.6133 574.238 82.88 573.171 81.92C572.104 80.96 570.238 80.48 567.571 80.48H561.251V95.84L561.171 96.32ZM538.691 96.32H551.731V80.48H545.971C543.304 80.48 541.411 80.96 540.291 81.92C539.224 82.88 538.691 84.6133 538.691 87.12V96.32ZM662.531 132.96C661.251 132.96 660.158 132.533 659.251 131.68C658.398 130.827 657.971 129.733 657.971 128.4V95.84H651.491C651.331 103.947 650.131 110.773 647.891 116.32C645.651 121.867 642.051 126.72 637.091 130.88C636.078 131.733 634.851 132.187 633.411 132.24C632.024 132.347 630.851 131.893 629.891 130.88C629.091 129.973 628.718 128.907 628.771 127.68C628.824 126.507 629.331 125.52 630.291 124.72C633.011 122.48 635.251 120.08 637.011 117.52C638.824 114.907 640.184 111.867 641.091 108.4C642.051 104.88 642.584 100.693 642.691 95.84H637.651C636.478 95.84 635.464 95.44 634.611 94.64C633.811 93.7867 633.411 92.7733 633.411 91.6C633.411 90.4267 633.811 89.44 634.611 88.64C635.464 87.84 636.478 87.44 637.651 87.44H642.691V70.48H639.411C638.398 70.48 637.491 70.16 636.691 69.52C635.944 68.8267 635.491 67.9733 635.331 66.96C635.224 67.9733 634.798 68.8267 634.051 69.52C633.304 70.2133 632.398 70.56 631.331 70.56H621.251C620.984 73.2267 620.558 75.8667 619.971 78.48C619.438 81.0933 618.771 83.6533 617.971 86.16C618.504 86.1067 619.038 86.08 619.571 86.08C620.104 86.0267 620.664 86 621.251 86C625.411 86 628.371 86.8267 630.131 88.48C631.891 90.08 632.771 93.0667 632.771 97.44V111.12C632.771 115.493 631.891 118.507 630.131 120.16C628.371 121.813 625.411 122.64 621.251 122.64C617.144 122.64 614.211 121.813 612.451 120.16C610.691 118.507 609.811 115.493 609.811 111.12V104.08C609.438 104.613 609.064 105.2 608.691 105.84C608.318 106.427 607.918 107.013 607.491 107.6C606.798 108.613 605.811 109.227 604.531 109.44C603.304 109.653 602.158 109.413 601.091 108.72C600.078 108.08 599.464 107.173 599.251 106C599.038 104.827 599.278 103.76 599.971 102.8C603.438 98 606.264 92.8 608.451 87.2C610.638 81.6 611.998 76.0533 612.531 70.56H605.171C604.051 70.56 603.091 70.16 602.291 69.36C601.491 68.56 601.091 67.5733 601.091 66.4C601.091 65.28 601.491 64.32 602.291 63.52C603.091 62.72 604.051 62.32 605.171 62.32H631.331C632.344 62.32 633.224 62.6667 633.971 63.36C634.771 64 635.224 64.8267 635.331 65.84C635.491 64.8267 635.944 64 636.691 63.36C637.491 62.6667 638.398 62.32 639.411 62.32H670.291C671.411 62.32 672.371 62.72 673.171 63.52C673.971 64.32 674.371 65.28 674.371 66.4C674.371 67.52 673.971 68.48 673.171 69.28C672.371 70.08 671.411 70.48 670.291 70.48H667.011V87.44H671.811C672.984 87.44 673.971 87.84 674.771 88.64C675.624 89.44 676.051 90.4267 676.051 91.6C676.051 92.7733 675.624 93.7867 674.771 94.64C673.971 95.44 672.984 95.84 671.811 95.84H667.011V128.4C667.011 129.733 666.558 130.827 665.651 131.68C664.798 132.533 663.758 132.96 662.531 132.96ZM621.171 114.4C622.398 114.4 623.251 114.187 623.731 113.76C624.264 113.28 624.531 112.373 624.531 111.04V97.52C624.531 96.24 624.264 95.3867 623.731 94.96C623.251 94.48 622.398 94.24 621.171 94.24C619.944 94.24 619.064 94.48 618.531 94.96C618.051 95.3867 617.811 96.24 617.811 97.52V111.04C617.811 112.373 618.051 113.28 618.531 113.76C619.064 114.187 619.944 114.4 621.171 114.4ZM651.491 87.44H657.971V70.48H651.491V87.44ZM695.811 95.04C694.584 95.4667 693.358 95.4667 692.131 95.04C690.904 94.6133 690.078 93.7333 689.651 92.4C689.278 91.2267 689.358 90.16 689.891 89.2C690.424 88.1867 691.384 87.4667 692.771 87.04C696.078 85.9733 698.958 84.48 701.411 82.56C703.864 80.5867 705.971 78.32 707.731 75.76C707.838 75.6 707.944 75.44 708.051 75.28C708.211 75.12 708.344 75.0133 708.451 74.96H698.771C696.798 74.96 695.438 75.28 694.691 75.92C693.944 76.5067 693.571 77.5467 693.571 79.04V81.6C693.571 82.9867 693.118 84.0533 692.211 84.8C691.304 85.5467 690.211 85.92 688.931 85.92C687.651 85.92 686.558 85.52 685.651 84.72C684.744 83.8667 684.291 82.7467 684.291 81.36V78.8C684.291 74.3733 685.331 71.2533 687.411 69.44C689.491 67.6267 693.171 66.72 698.451 66.72H714.771V62.48C714.771 60.9333 715.278 59.7333 716.291 58.88C717.304 57.9733 718.478 57.52 719.811 57.52C721.198 57.52 722.371 57.9733 723.331 58.88C724.344 59.7333 724.851 60.9333 724.851 62.48V66.72H741.171C746.451 66.72 750.131 67.6267 752.211 69.44C754.291 71.2533 755.331 74.3733 755.331 78.8V81.36C755.331 82.7467 754.878 83.8667 753.971 84.72C753.064 85.52 751.971 85.92 750.691 85.92C750.104 85.92 749.571 85.84 749.091 85.68C748.078 88.4 746.478 90.3467 744.291 91.52C742.158 92.64 738.931 93.2 734.611 93.2C731.198 93.2 728.504 92.88 726.531 92.24C724.558 91.5467 723.144 90.4 722.291 88.8C721.491 87.2 721.091 85.0133 721.091 82.24V74.96H714.051C714.958 75.6533 715.491 76.5333 715.651 77.6C715.864 78.6667 715.651 79.7067 715.011 80.72C712.824 83.9733 710.184 86.8 707.091 89.2C704.051 91.5467 700.291 93.4933 695.811 95.04ZM690.291 133.04C688.798 133.307 687.518 133.147 686.451 132.56C685.384 131.973 684.691 130.987 684.371 129.6C684.158 128.32 684.398 127.2 685.091 126.24C685.838 125.28 686.931 124.667 688.371 124.4C694.184 123.333 698.824 121.493 702.291 118.88C705.758 116.213 708.291 112.453 709.891 107.6L692.851 108C691.518 108.053 690.451 107.627 689.651 106.72C688.851 105.813 688.451 104.747 688.451 103.52C688.398 102.187 688.771 101.12 689.571 100.32C690.424 99.52 691.518 99.0933 692.851 99.04L711.651 98.64C711.918 96.6133 712.078 94.4533 712.131 92.16C712.184 90.7733 712.691 89.6533 713.651 88.8C714.664 87.9467 715.864 87.5733 717.251 87.68C718.531 87.7333 719.598 88.2133 720.451 89.12C721.304 90.0267 721.704 91.2 721.651 92.64C721.598 93.6533 721.544 94.64 721.491 95.6C721.438 96.56 721.358 97.4933 721.251 98.4L724.291 98.32C727.491 98.2667 730.024 98.5867 731.891 99.28C733.811 99.9733 735.171 101.2 735.971 102.96C736.824 104.667 737.251 107.067 737.251 110.16V118.64C737.251 120.4 737.598 121.573 738.291 122.16C739.038 122.693 740.451 122.96 742.531 122.96C744.398 122.96 745.678 122.587 746.371 121.84C747.118 121.04 747.811 119.573 748.451 117.44C748.824 116.213 749.571 115.333 750.691 114.8C751.864 114.213 753.118 114.107 754.451 114.48C755.784 114.853 756.744 115.547 757.331 116.56C757.971 117.573 758.158 118.773 757.891 120.16C756.984 124.693 755.304 127.813 752.851 129.52C750.398 131.28 746.798 132.16 742.051 132.16C738.211 132.16 735.224 131.813 733.091 131.12C730.958 130.427 729.464 129.2 728.611 127.44C727.811 125.733 727.411 123.28 727.411 120.08V111.92C727.411 109.947 727.118 108.667 726.531 108.08C725.944 107.493 724.611 107.227 722.531 107.28L719.651 107.36C717.838 114.347 714.558 120 709.811 124.32C705.064 128.587 698.558 131.493 690.291 133.04ZM735.171 84.64C736.824 84.64 737.998 84.4267 738.691 84C739.384 83.52 740.078 82.5867 740.771 81.2C741.251 80.1867 741.971 79.5467 742.931 79.28C743.944 78.96 744.984 78.9333 746.051 79.2V79.04C746.051 77.5467 745.678 76.5067 744.931 75.92C744.184 75.28 742.824 74.96 740.851 74.96H730.291V81.04C730.291 82.5333 730.584 83.52 731.171 84C731.811 84.4267 733.144 84.64 735.171 84.64ZM824.691 133.2C823.411 133.2 822.318 132.773 821.411 131.92C820.504 131.067 820.051 129.947 820.051 128.56V92.4H813.011C812.638 100.453 811.091 107.6 808.371 113.84C805.704 120.027 801.891 125.253 796.931 129.52C795.811 130.48 794.531 131.04 793.091 131.2C791.704 131.413 790.451 131.013 789.331 130C788.318 128.987 787.811 127.813 787.811 126.48C787.864 125.2 788.478 124.053 789.651 123.04C792.904 120.213 795.544 117.173 797.571 113.92C799.651 110.613 801.171 106.907 802.131 102.8C803.091 98.64 803.571 93.8667 803.571 88.48V78.16C803.571 74.8533 803.918 72.2133 804.611 70.24C805.358 68.2133 806.584 66.64 808.291 65.52C810.051 64.4 812.424 63.5467 815.411 62.96C817.758 62.5333 820.344 61.9733 823.171 61.28C825.998 60.5333 828.718 59.7867 831.331 59.04C832.718 58.6133 833.971 58.6667 835.091 59.2C836.264 59.7333 837.038 60.5333 837.411 61.6C837.891 62.88 837.891 64.1067 837.411 65.28C836.931 66.4 835.998 67.1733 834.611 67.6C832.051 68.2933 829.384 68.9867 826.611 69.68C823.838 70.32 821.278 70.8533 818.931 71.28C817.331 71.6 816.104 72 815.251 72.48C814.398 72.9067 813.811 73.5733 813.491 74.48C813.224 75.3333 813.091 76.6133 813.091 78.32V83.52H834.691C836.078 83.52 837.144 83.9733 837.891 84.88C838.691 85.7333 839.091 86.7733 839.091 88C839.091 89.1733 838.691 90.2133 837.891 91.12C837.144 91.9733 836.078 92.4 834.691 92.4H829.331V128.56C829.331 129.947 828.878 131.067 827.971 131.92C827.064 132.773 825.971 133.2 824.691 133.2ZM765.091 132.32C763.971 131.787 763.224 130.933 762.851 129.76C762.478 128.587 762.584 127.467 763.171 126.4C765.304 122.453 766.931 118.293 768.051 113.92C769.171 109.547 769.731 104.667 769.731 99.28V90.08C769.731 86.5067 770.131 83.7333 770.931 81.76C771.784 79.7867 773.251 78.4 775.331 77.6C777.464 76.8 780.424 76.4 784.211 76.4C788.051 76.4 791.011 76.8 793.091 77.6C795.171 78.4 796.611 79.7867 797.411 81.76C798.211 83.7333 798.611 86.5067 798.611 90.08C798.611 93.6533 798.184 96.4267 797.331 98.4C796.531 100.32 795.091 101.68 793.011 102.48C790.931 103.227 787.971 103.6 784.131 103.6H778.771C778.504 109.093 777.758 113.973 776.531 118.24C775.304 122.453 773.704 126.4 771.731 130.08C771.091 131.253 770.131 132.053 768.851 132.48C767.571 132.907 766.318 132.853 765.091 132.32ZM769.411 70.88C768.184 70.88 767.198 70.48 766.451 69.68C765.704 68.88 765.331 67.92 765.331 66.8C765.331 65.6267 765.704 64.6667 766.451 63.92C767.198 63.12 768.184 62.72 769.411 62.72H797.091C798.318 62.72 799.304 63.12 800.051 63.92C800.798 64.6667 801.171 65.6267 801.171 66.8C801.171 67.92 800.798 68.88 800.051 69.68C799.304 70.48 798.318 70.88 797.091 70.88H769.411ZM778.851 95.36H784.211C786.451 95.36 787.891 95.0667 788.531 94.48C789.224 93.84 789.571 92.3733 789.571 90.08C789.571 87.7867 789.224 86.3467 788.531 85.76C787.891 85.12 786.451 84.8 784.211 84.8C781.971 84.8 780.504 85.0933 779.811 85.68C779.171 86.2667 778.851 87.7067 778.851 90V95.36Z" fill="#007440"/>
<rect x="16" y="16" width="894" height="162" rx="24" fill="white"/>
<rect x="16" y="16" width="894" height="162" rx="24" stroke="#007440" stroke-width="4"/>
<path d="M128.589 130.32C127.256 130.533 126.002 130.267 124.829 129.52C123.709 128.773 123.016 127.733 122.749 126.4C122.322 123.893 121.682 120.72 120.829 116.88C120.029 113.04 119.122 108.853 118.109 104.32C117.096 99.7867 116.056 95.3067 114.989 90.88C111.096 91.5733 107.362 92.24 103.789 92.88C100.216 93.52 97.2557 94.0533 94.9091 94.48C93.5757 94.6933 92.3491 94.4 91.2291 93.6C90.1624 92.7467 89.5224 91.6533 89.3091 90.32C89.0957 88.9333 89.4157 87.7067 90.2691 86.64C91.1224 85.5733 92.2157 84.9333 93.5491 84.72C95.5224 84.4533 98.2157 84.0533 101.629 83.52C105.096 82.9333 108.802 82.2933 112.749 81.6C112.109 78.9867 111.469 76.56 110.829 74.32C110.242 72.0267 109.709 70.0533 109.229 68.4C108.856 67.12 108.989 65.8933 109.629 64.72C110.269 63.4933 111.256 62.6933 112.589 62.32C113.922 61.8933 115.176 62.0267 116.349 62.72C117.576 63.36 118.349 64.3467 118.669 65.68C119.202 67.6 119.762 69.7867 120.349 72.24C120.936 74.6933 121.576 77.28 122.269 80C125.522 79.4667 128.589 78.96 131.469 78.48C134.402 77.9467 136.882 77.4933 138.909 77.12C144.189 76.16 148.296 76.4 151.229 77.84C154.216 79.28 156.136 81.9467 156.989 85.84C158.002 90.16 156.989 94.1333 153.949 97.76C150.909 101.387 145.762 104.48 138.509 107.04C137.229 107.467 135.976 107.387 134.749 106.8C133.522 106.213 132.669 105.28 132.189 104C131.762 102.72 131.816 101.467 132.349 100.24C132.936 98.96 133.896 98.1067 135.229 97.68C138.962 96.5067 141.682 95.3333 143.389 94.16C145.096 92.9867 146.162 91.8667 146.589 90.8C147.016 89.7333 147.122 88.8267 146.909 88.08C146.696 87.1733 146.162 86.56 145.309 86.24C144.509 85.92 142.936 85.9467 140.589 86.32C138.669 86.6933 136.296 87.12 133.469 87.6C130.642 88.08 127.629 88.6133 124.429 89.2C125.496 93.5733 126.536 97.9733 127.549 102.4C128.562 106.773 129.496 110.88 130.349 114.72C131.202 118.507 131.922 121.76 132.509 124.48C132.776 125.813 132.509 127.04 131.709 128.16C130.962 129.333 129.922 130.053 128.589 130.32ZM187.149 122.88C185.869 123.36 184.589 123.307 183.309 122.72C182.082 122.133 181.229 121.2 180.749 119.92C180.269 118.64 180.322 117.387 180.909 116.16C181.496 114.88 182.429 114 183.709 113.52C187.976 112.027 192.269 110.187 196.589 108C200.962 105.813 205.122 103.44 209.069 100.88C213.069 98.2667 216.696 95.6 219.949 92.88C223.256 90.1067 225.949 87.44 228.029 84.88C228.936 83.8133 230.056 83.2 231.389 83.04C232.776 82.88 233.976 83.2533 234.989 84.16C236.056 85.0133 236.669 86.1333 236.829 87.52C236.989 88.8533 236.616 90.0533 235.709 91.12C233.522 93.7867 230.616 96.64 226.989 99.68C223.362 102.667 219.309 105.627 214.829 108.56C210.349 111.493 205.736 114.213 200.989 116.72C196.242 119.227 191.629 121.28 187.149 122.88ZM194.029 91.36C192.002 89.6533 189.736 87.8933 187.229 86.08C184.722 84.2133 182.456 82.6933 180.429 81.52C179.256 80.7733 178.509 79.76 178.189 78.48C177.869 77.1467 178.056 75.8933 178.749 74.72C179.496 73.5467 180.509 72.8 181.789 72.48C183.122 72.1067 184.376 72.2933 185.549 73.04C186.989 73.9467 188.616 75.0667 190.429 76.4C192.296 77.68 194.082 78.96 195.789 80.24C197.549 81.52 198.989 82.6133 200.109 83.52C201.176 84.3733 201.789 85.4933 201.949 86.88C202.162 88.2133 201.842 89.4133 200.989 90.48C200.136 91.5467 199.016 92.1867 197.629 92.4C196.296 92.56 195.096 92.2133 194.029 91.36ZM301.389 122.88C300.216 123.52 298.962 123.627 297.629 123.2C296.296 122.773 295.309 121.973 294.669 120.8C293.976 119.52 292.989 117.893 291.709 115.92C290.429 113.947 289.016 111.867 287.469 109.68C285.976 107.493 284.456 105.413 282.909 103.44C281.416 101.467 280.082 99.84 278.909 98.56C277.949 97.5467 277.469 96.3733 277.469 95.04C277.522 93.7067 278.029 92.56 278.989 91.6C280.002 90.6933 281.202 90.2667 282.589 90.32C283.976 90.3733 285.122 90.9067 286.029 91.92C286.936 92.9333 287.922 94.08 288.989 95.36C290.056 96.64 291.149 98 292.269 99.44C296.536 97.7333 299.842 96.1867 302.189 94.8C304.536 93.4133 306.136 92.1333 306.989 90.96C307.896 89.7867 308.322 88.6933 308.269 87.68C308.216 86.56 307.762 85.7333 306.909 85.2C306.056 84.6667 304.536 84.4533 302.349 84.56L259.309 86.24C257.976 86.2933 256.802 85.8667 255.789 84.96C254.776 84 254.242 82.8533 254.189 81.52C254.136 80.1333 254.562 78.96 255.469 78C256.429 76.9867 257.576 76.4533 258.909 76.4L301.789 74.96C307.602 74.7467 311.789 75.5733 314.349 77.44C316.909 79.2533 318.376 82.16 318.749 86.16C319.069 89.2533 318.376 92.0533 316.669 94.56C315.016 97.0667 312.562 99.36 309.309 101.44C306.109 103.467 302.296 105.36 297.869 107.12C299.042 108.827 300.109 110.453 301.069 112C302.082 113.547 302.909 114.933 303.549 116.16C304.189 117.387 304.296 118.667 303.869 120C303.442 121.28 302.616 122.24 301.389 122.88ZM344.509 100.88C343.176 100.88 342.002 100.4 340.989 99.44C340.029 98.4267 339.549 97.2533 339.549 95.92C339.549 94.5333 340.029 93.36 340.989 92.4C342.002 91.44 343.176 90.96 344.509 90.96H394.349C395.736 90.96 396.909 91.44 397.869 92.4C398.829 93.36 399.309 94.5333 399.309 95.92C399.309 97.2533 398.829 98.4267 397.869 99.44C396.909 100.4 395.736 100.88 394.349 100.88H344.509ZM475.011 132.16C473.518 132.16 472.318 131.76 471.411 130.96C470.504 130.213 470.051 129.12 470.051 127.68V106.4H459.011C454.691 106.4 451.224 105.947 448.611 105.04C445.998 104.133 444.104 102.507 442.931 100.16C441.758 97.8133 441.171 94.5333 441.171 90.32C441.171 86 441.758 82.6933 442.931 80.4C444.158 78.0533 446.078 76.4533 448.691 75.6C451.304 74.6933 454.744 74.24 459.011 74.24H470.051V63.36C470.051 61.92 470.504 60.8267 471.411 60.08C472.318 59.3333 473.518 58.96 475.011 58.96C476.558 58.96 477.758 59.3333 478.611 60.08C479.464 60.8267 479.891 61.92 479.891 63.36V74.24H491.091C495.358 74.24 498.798 74.6933 501.411 75.6C504.024 76.4533 505.918 78.0533 507.091 80.4C508.318 82.6933 508.931 86 508.931 90.32C508.931 94.5333 508.318 97.8133 507.091 100.16C505.864 102.507 503.944 104.133 501.331 105.04C498.718 105.947 495.304 106.4 491.091 106.4H479.891V127.68C479.891 129.12 479.464 130.213 478.611 130.96C477.758 131.76 476.558 132.16 475.011 132.16ZM479.891 97.6H491.091C493.118 97.6 494.691 97.44 495.811 97.12C496.984 96.7467 497.811 96.0533 498.291 95.04C498.824 93.9733 499.091 92.4 499.091 90.32C499.091 88.1333 498.851 86.5333 498.371 85.52C497.944 84.5067 497.144 83.84 495.971 83.52C494.798 83.2 493.171 83.04 491.091 83.04H479.891V97.6ZM459.011 97.6H470.051V83.04H459.011C456.984 83.04 455.384 83.2 454.211 83.52C453.038 83.84 452.211 84.5067 451.731 85.52C451.251 86.5333 451.011 88.1333 451.011 90.32C451.011 92.4 451.224 93.9733 451.651 95.04C452.131 96.0533 452.931 96.7467 454.051 97.12C455.224 97.44 456.878 97.6 459.011 97.6ZM526.371 132.72C524.878 133.147 523.518 133.067 522.291 132.48C521.118 131.893 520.291 130.933 519.811 129.6C519.384 128.267 519.518 127.04 520.211 125.92C520.904 124.747 522.131 123.947 523.891 123.52C530.504 121.973 536.051 119.6 540.531 116.4C545.064 113.2 548.238 109.333 550.051 104.8H523.411C522.131 104.8 521.091 104.4 520.291 103.6C519.544 102.747 519.171 101.733 519.171 100.56C519.171 99.3867 519.544 98.4 520.291 97.6C521.091 96.7467 522.131 96.32 523.411 96.32H529.171V86.56C529.171 81.2267 530.398 77.4667 532.851 75.28C535.304 73.04 539.438 71.92 545.251 71.92H551.731V62.88C551.731 61.3333 552.184 60.16 553.091 59.36C553.998 58.56 555.118 58.16 556.451 58.16C557.838 58.16 558.984 58.56 559.891 59.36C560.798 60.16 561.251 61.3333 561.251 62.88V71.92H568.211C574.078 71.92 578.211 73.04 580.611 75.28C583.064 77.4667 584.291 81.2267 584.291 86.56V96.32H589.811C591.144 96.32 592.184 96.7467 592.931 97.6C593.731 98.4 594.131 99.3867 594.131 100.56C594.131 101.733 593.731 102.747 592.931 103.6C592.184 104.4 591.144 104.8 589.811 104.8H564.051C566.238 108.96 569.491 112.693 573.811 116C578.184 119.307 583.278 121.653 589.091 123.04C590.638 123.413 591.784 124.187 592.531 125.36C593.331 126.48 593.518 127.707 593.091 129.04C592.558 130.587 591.678 131.6 590.451 132.08C589.224 132.613 587.864 132.693 586.371 132.32C582.318 131.2 578.451 129.6 574.771 127.52C571.091 125.493 567.784 123.067 564.851 120.24C561.918 117.413 559.491 114.293 557.571 110.88C554.904 115.893 550.904 120.24 545.571 123.92C540.238 127.6 533.838 130.533 526.371 132.72ZM561.171 96.32H574.771V87.12C574.771 84.6133 574.238 82.88 573.171 81.92C572.104 80.96 570.238 80.48 567.571 80.48H561.251V95.84L561.171 96.32ZM538.691 96.32H551.731V80.48H545.971C543.304 80.48 541.411 80.96 540.291 81.92C539.224 82.88 538.691 84.6133 538.691 87.12V96.32ZM662.531 132.96C661.251 132.96 660.158 132.533 659.251 131.68C658.398 130.827 657.971 129.733 657.971 128.4V95.84H651.491C651.331 103.947 650.131 110.773 647.891 116.32C645.651 121.867 642.051 126.72 637.091 130.88C636.078 131.733 634.851 132.187 633.411 132.24C632.024 132.347 630.851 131.893 629.891 130.88C629.091 129.973 628.718 128.907 628.771 127.68C628.824 126.507 629.331 125.52 630.291 124.72C633.011 122.48 635.251 120.08 637.011 117.52C638.824 114.907 640.184 111.867 641.091 108.4C642.051 104.88 642.584 100.693 642.691 95.84H637.651C636.478 95.84 635.464 95.44 634.611 94.64C633.811 93.7867 633.411 92.7733 633.411 91.6C633.411 90.4267 633.811 89.44 634.611 88.64C635.464 87.84 636.478 87.44 637.651 87.44H642.691V70.48H639.411C638.398 70.48 637.491 70.16 636.691 69.52C635.944 68.8267 635.491 67.9733 635.331 66.96C635.224 67.9733 634.798 68.8267 634.051 69.52C633.304 70.2133 632.398 70.56 631.331 70.56H621.251C620.984 73.2267 620.558 75.8667 619.971 78.48C619.438 81.0933 618.771 83.6533 617.971 86.16C618.504 86.1067 619.038 86.08 619.571 86.08C620.104 86.0267 620.664 86 621.251 86C625.411 86 628.371 86.8267 630.131 88.48C631.891 90.08 632.771 93.0667 632.771 97.44V111.12C632.771 115.493 631.891 118.507 630.131 120.16C628.371 121.813 625.411 122.64 621.251 122.64C617.144 122.64 614.211 121.813 612.451 120.16C610.691 118.507 609.811 115.493 609.811 111.12V104.08C609.438 104.613 609.064 105.2 608.691 105.84C608.318 106.427 607.918 107.013 607.491 107.6C606.798 108.613 605.811 109.227 604.531 109.44C603.304 109.653 602.158 109.413 601.091 108.72C600.078 108.08 599.464 107.173 599.251 106C599.038 104.827 599.278 103.76 599.971 102.8C603.438 98 606.264 92.8 608.451 87.2C610.638 81.6 611.998 76.0533 612.531 70.56H605.171C604.051 70.56 603.091 70.16 602.291 69.36C601.491 68.56 601.091 67.5733 601.091 66.4C601.091 65.28 601.491 64.32 602.291 63.52C603.091 62.72 604.051 62.32 605.171 62.32H631.331C632.344 62.32 633.224 62.6667 633.971 63.36C634.771 64 635.224 64.8267 635.331 65.84C635.491 64.8267 635.944 64 636.691 63.36C637.491 62.6667 638.398 62.32 639.411 62.32H670.291C671.411 62.32 672.371 62.72 673.171 63.52C673.971 64.32 674.371 65.28 674.371 66.4C674.371 67.52 673.971 68.48 673.171 69.28C672.371 70.08 671.411 70.48 670.291 70.48H667.011V87.44H671.811C672.984 87.44 673.971 87.84 674.771 88.64C675.624 89.44 676.051 90.4267 676.051 91.6C676.051 92.7733 675.624 93.7867 674.771 94.64C673.971 95.44 672.984 95.84 671.811 95.84H667.011V128.4C667.011 129.733 666.558 130.827 665.651 131.68C664.798 132.533 663.758 132.96 662.531 132.96ZM621.171 114.4C622.398 114.4 623.251 114.187 623.731 113.76C624.264 113.28 624.531 112.373 624.531 111.04V97.52C624.531 96.24 624.264 95.3867 623.731 94.96C623.251 94.48 622.398 94.24 621.171 94.24C619.944 94.24 619.064 94.48 618.531 94.96C618.051 95.3867 617.811 96.24 617.811 97.52V111.04C617.811 112.373 618.051 113.28 618.531 113.76C619.064 114.187 619.944 114.4 621.171 114.4ZM651.491 87.44H657.971V70.48H651.491V87.44ZM695.811 95.04C694.584 95.4667 693.358 95.4667 692.131 95.04C690.904 94.6133 690.078 93.7333 689.651 92.4C689.278 91.2267 689.358 90.16 689.891 89.2C690.424 88.1867 691.384 87.4667 692.771 87.04C696.078 85.9733 698.958 84.48 701.411 82.56C703.864 80.5867 705.971 78.32 707.731 75.76C707.838 75.6 707.944 75.44 708.051 75.28C708.211 75.12 708.344 75.0133 708.451 74.96H698.771C696.798 74.96 695.438 75.28 694.691 75.92C693.944 76.5067 693.571 77.5467 693.571 79.04V81.6C693.571 82.9867 693.118 84.0533 692.211 84.8C691.304 85.5467 690.211 85.92 688.931 85.92C687.651 85.92 686.558 85.52 685.651 84.72C684.744 83.8667 684.291 82.7467 684.291 81.36V78.8C684.291 74.3733 685.331 71.2533 687.411 69.44C689.491 67.6267 693.171 66.72 698.451 66.72H714.771V62.48C714.771 60.9333 715.278 59.7333 716.291 58.88C717.304 57.9733 718.478 57.52 719.811 57.52C721.198 57.52 722.371 57.9733 723.331 58.88C724.344 59.7333 724.851 60.9333 724.851 62.48V66.72H741.171C746.451 66.72 750.131 67.6267 752.211 69.44C754.291 71.2533 755.331 74.3733 755.331 78.8V81.36C755.331 82.7467 754.878 83.8667 753.971 84.72C753.064 85.52 751.971 85.92 750.691 85.92C750.104 85.92 749.571 85.84 749.091 85.68C748.078 88.4 746.478 90.3467 744.291 91.52C742.158 92.64 738.931 93.2 734.611 93.2C731.198 93.2 728.504 92.88 726.531 92.24C724.558 91.5467 723.144 90.4 722.291 88.8C721.491 87.2 721.091 85.0133 721.091 82.24V74.96H714.051C714.958 75.6533 715.491 76.5333 715.651 77.6C715.864 78.6667 715.651 79.7067 715.011 80.72C712.824 83.9733 710.184 86.8 707.091 89.2C704.051 91.5467 700.291 93.4933 695.811 95.04ZM690.291 133.04C688.798 133.307 687.518 133.147 686.451 132.56C685.384 131.973 684.691 130.987 684.371 129.6C684.158 128.32 684.398 127.2 685.091 126.24C685.838 125.28 686.931 124.667 688.371 124.4C694.184 123.333 698.824 121.493 702.291 118.88C705.758 116.213 708.291 112.453 709.891 107.6L692.851 108C691.518 108.053 690.451 107.627 689.651 106.72C688.851 105.813 688.451 104.747 688.451 103.52C688.398 102.187 688.771 101.12 689.571 100.32C690.424 99.52 691.518 99.0933 692.851 99.04L711.651 98.64C711.918 96.6133 712.078 94.4533 712.131 92.16C712.184 90.7733 712.691 89.6533 713.651 88.8C714.664 87.9467 715.864 87.5733 717.251 87.68C718.531 87.7333 719.598 88.2133 720.451 89.12C721.304 90.0267 721.704 91.2 721.651 92.64C721.598 93.6533 721.544 94.64 721.491 95.6C721.438 96.56 721.358 97.4933 721.251 98.4L724.291 98.32C727.491 98.2667 730.024 98.5867 731.891 99.28C733.811 99.9733 735.171 101.2 735.971 102.96C736.824 104.667 737.251 107.067 737.251 110.16V118.64C737.251 120.4 737.598 121.573 738.291 122.16C739.038 122.693 740.451 122.96 742.531 122.96C744.398 122.96 745.678 122.587 746.371 121.84C747.118 121.04 747.811 119.573 748.451 117.44C748.824 116.213 749.571 115.333 750.691 114.8C751.864 114.213 753.118 114.107 754.451 114.48C755.784 114.853 756.744 115.547 757.331 116.56C757.971 117.573 758.158 118.773 757.891 120.16C756.984 124.693 755.304 127.813 752.851 129.52C750.398 131.28 746.798 132.16 742.051 132.16C738.211 132.16 735.224 131.813 733.091 131.12C730.958 130.427 729.464 129.2 728.611 127.44C727.811 125.733 727.411 123.28 727.411 120.08V111.92C727.411 109.947 727.118 108.667 726.531 108.08C725.944 107.493 724.611 107.227 722.531 107.28L719.651 107.36C717.838 114.347 714.558 120 709.811 124.32C705.064 128.587 698.558 131.493 690.291 133.04ZM735.171 84.64C736.824 84.64 737.998 84.4267 738.691 84C739.384 83.52 740.078 82.5867 740.771 81.2C741.251 80.1867 741.971 79.5467 742.931 79.28C743.944 78.96 744.984 78.9333 746.051 79.2V79.04C746.051 77.5467 745.678 76.5067 744.931 75.92C744.184 75.28 742.824 74.96 740.851 74.96H730.291V81.04C730.291 82.5333 730.584 83.52 731.171 84C731.811 84.4267 733.144 84.64 735.171 84.64ZM824.691 133.2C823.411 133.2 822.318 132.773 821.411 131.92C820.504 131.067 820.051 129.947 820.051 128.56V92.4H813.011C812.638 100.453 811.091 107.6 808.371 113.84C805.704 120.027 801.891 125.253 796.931 129.52C795.811 130.48 794.531 131.04 793.091 131.2C791.704 131.413 790.451 131.013 789.331 130C788.318 128.987 787.811 127.813 787.811 126.48C787.864 125.2 788.478 124.053 789.651 123.04C792.904 120.213 795.544 117.173 797.571 113.92C799.651 110.613 801.171 106.907 802.131 102.8C803.091 98.64 803.571 93.8667 803.571 88.48V78.16C803.571 74.8533 803.918 72.2133 804.611 70.24C805.358 68.2133 806.584 66.64 808.291 65.52C810.051 64.4 812.424 63.5467 815.411 62.96C817.758 62.5333 820.344 61.9733 823.171 61.28C825.998 60.5333 828.718 59.7867 831.331 59.04C832.718 58.6133 833.971 58.6667 835.091 59.2C836.264 59.7333 837.038 60.5333 837.411 61.6C837.891 62.88 837.891 64.1067 837.411 65.28C836.931 66.4 835.998 67.1733 834.611 67.6C832.051 68.2933 829.384 68.9867 826.611 69.68C823.838 70.32 821.278 70.8533 818.931 71.28C817.331 71.6 816.104 72 815.251 72.48C814.398 72.9067 813.811 73.5733 813.491 74.48C813.224 75.3333 813.091 76.6133 813.091 78.32V83.52H834.691C836.078 83.52 837.144 83.9733 837.891 84.88C838.691 85.7333 839.091 86.7733 839.091 88C839.091 89.1733 838.691 90.2133 837.891 91.12C837.144 91.9733 836.078 92.4 834.691 92.4H829.331V128.56C829.331 129.947 828.878 131.067 827.971 131.92C827.064 132.773 825.971 133.2 824.691 133.2ZM765.091 132.32C763.971 131.787 763.224 130.933 762.851 129.76C762.478 128.587 762.584 127.467 763.171 126.4C765.304 122.453 766.931 118.293 768.051 113.92C769.171 109.547 769.731 104.667 769.731 99.28V90.08C769.731 86.5067 770.131 83.7333 770.931 81.76C771.784 79.7867 773.251 78.4 775.331 77.6C777.464 76.8 780.424 76.4 784.211 76.4C788.051 76.4 791.011 76.8 793.091 77.6C795.171 78.4 796.611 79.7867 797.411 81.76C798.211 83.7333 798.611 86.5067 798.611 90.08C798.611 93.6533 798.184 96.4267 797.331 98.4C796.531 100.32 795.091 101.68 793.011 102.48C790.931 103.227 787.971 103.6 784.131 103.6H778.771C778.504 109.093 777.758 113.973 776.531 118.24C775.304 122.453 773.704 126.4 771.731 130.08C771.091 131.253 770.131 132.053 768.851 132.48C767.571 132.907 766.318 132.853 765.091 132.32ZM769.411 70.88C768.184 70.88 767.198 70.48 766.451 69.68C765.704 68.88 765.331 67.92 765.331 66.8C765.331 65.6267 765.704 64.6667 766.451 63.92C767.198 63.12 768.184 62.72 769.411 62.72H797.091C798.318 62.72 799.304 63.12 800.051 63.92C800.798 64.6667 801.171 65.6267 801.171 66.8C801.171 67.92 800.798 68.88 800.051 69.68C799.304 70.48 798.318 70.88 797.091 70.88H769.411ZM778.851 95.36H784.211C786.451 95.36 787.891 95.0667 788.531 94.48C789.224 93.84 789.571 92.3733 789.571 90.08C789.571 87.7867 789.224 86.3467 788.531 85.76C787.891 85.12 786.451 84.8 784.211 84.8C781.971 84.8 780.504 85.0933 779.811 85.68C779.171 86.2667 778.851 87.7067 778.851 90V95.36Z" fill="#007440"/>
</svg>
