<svg width="844" height="540" viewBox="0 0 844 540" fill="none" xmlns="http://www.w3.org/2000/svg">
<path d="M548 180L560.129 537.54C560.464 538.929 562.495 540 564.98 540C567.465 540 569.516 538.929 569.832 537.54L569.871 537.335C569.871 537.278 569.911 537.221 569.911 537.152C569.911 537.152 569.911 537.152 569.911 537.141L582 180H548Z" fill="#4B9E81"/>
<rect x="10.5" y="10.5" width="823" height="173" rx="29.5" fill="white"/>
<rect x="10.5" y="10.5" width="823" height="173" rx="29.5" stroke="#4B9E81" stroke-width="7"/>
<path d="M124.469 132.48C123.136 132.48 122.016 132.053 121.109 131.2C120.202 130.347 119.749 129.2 119.749 127.76V101.68C116.549 105.787 112.896 109.76 108.789 113.6C104.736 117.44 100.709 120.72 96.7091 123.44C95.5357 124.24 94.2557 124.56 92.8691 124.4C91.5357 124.24 90.4691 123.6 89.6691 122.48C88.8691 121.413 88.5491 120.24 88.7091 118.96C88.9224 117.627 89.5891 116.587 90.7091 115.84C93.4291 114.027 96.2557 111.893 99.1891 109.44C102.122 106.987 104.976 104.427 107.749 101.76C110.522 99.04 112.922 96.4533 114.949 94H92.8691C91.6957 94 90.6824 93.6 89.8291 92.8C89.0291 91.9467 88.6291 90.9333 88.6291 89.76C88.6291 88.5333 89.0291 87.52 89.8291 86.72C90.6824 85.92 91.6957 85.52 92.8691 85.52H119.749V63.6C119.749 62.2133 120.202 61.0933 121.109 60.24C122.016 59.3867 123.136 58.96 124.469 58.96C125.749 58.96 126.842 59.3867 127.749 60.24C128.656 61.0933 129.109 62.2133 129.109 63.6V85.52H155.749C156.922 85.52 157.909 85.92 158.709 86.72C159.562 87.52 159.989 88.5333 159.989 89.76C159.989 90.9333 159.562 91.9467 158.709 92.8C157.909 93.6 156.922 94 155.749 94H133.669C135.856 96.4 138.362 98.96 141.189 101.68C144.016 104.347 146.922 106.907 149.909 109.36C152.896 111.813 155.696 113.947 158.309 115.76C159.376 116.453 159.962 117.467 160.069 118.8C160.176 120.133 159.856 121.307 159.109 122.32C158.309 123.493 157.216 124.187 155.829 124.4C154.442 124.56 153.189 124.24 152.069 123.44C148.122 120.773 144.122 117.547 140.069 113.76C136.069 109.92 132.416 105.893 129.109 101.68V127.76C129.109 129.2 128.656 130.347 127.749 131.2C126.842 132.053 125.749 132.48 124.469 132.48ZM135.989 81.68C135.082 80.9867 134.576 80.0533 134.469 78.88C134.362 77.7067 134.656 76.6933 135.349 75.84C136.202 74.8267 137.162 73.6 138.229 72.16C139.349 70.6667 140.416 69.1733 141.429 67.68C142.442 66.1867 143.242 64.9867 143.829 64.08C144.576 62.9067 145.562 62.1867 146.789 61.92C148.016 61.6533 149.189 61.8667 150.309 62.56C151.376 63.1467 152.096 64.0267 152.469 65.2C152.842 66.3733 152.656 67.5467 151.909 68.72C151.162 69.84 150.229 71.1467 149.109 72.64C148.042 74.1333 146.922 75.6267 145.749 77.12C144.576 78.6133 143.509 79.92 142.549 81.04C141.696 82 140.629 82.56 139.349 82.72C138.122 82.8267 137.002 82.48 135.989 81.68ZM112.709 81.76C111.749 82.56 110.629 82.9333 109.349 82.88C108.069 82.7733 107.082 82.2667 106.389 81.36C105.642 80.3467 104.656 79.1467 103.429 77.76C102.256 76.32 101.082 74.9067 99.9091 73.52C98.7357 72.1333 97.7224 70.9867 96.8691 70.08C96.0691 69.2267 95.6957 68.2133 95.7491 67.04C95.8557 65.8133 96.3624 64.8267 97.2691 64.08C98.1757 63.2267 99.2691 62.8 100.549 62.8C101.829 62.8 102.896 63.2533 103.749 64.16C104.656 65.0667 105.696 66.2133 106.869 67.6C108.096 68.9333 109.296 70.2933 110.469 71.68C111.696 73.0667 112.682 74.2667 113.429 75.28C114.229 76.2933 114.576 77.4133 114.469 78.64C114.362 79.8667 113.776 80.9067 112.709 81.76ZM205.669 132.72C202.522 132.72 200.816 131.227 200.549 128.24C200.496 127.013 200.869 125.92 201.669 124.96C202.469 124 203.536 123.493 204.869 123.44C206.576 123.333 207.616 123.067 207.989 122.64C208.416 122.213 208.629 121.28 208.629 119.84V106.32H206.229C202.336 106.32 199.296 105.92 197.109 105.12C194.922 104.267 193.376 102.907 192.469 101.04C191.562 99.1733 191.109 96.64 191.109 93.44V88.4C191.109 85.3067 191.536 82.8267 192.389 80.96C193.242 79.0933 194.709 77.7333 196.789 76.88C198.869 76.0267 201.749 75.5733 205.429 75.52C205.696 74.6133 205.989 73.6267 206.309 72.56C206.629 71.44 206.896 70.4533 207.109 69.6H195.989C192.149 69.6 189.429 70.32 187.829 71.76C186.282 73.2 185.509 75.76 185.509 79.44V86.24C185.509 95.3067 184.896 103.12 183.669 109.68C182.496 116.24 180.496 122.16 177.669 127.44C177.082 128.613 176.149 129.387 174.869 129.76C173.642 130.133 172.416 130.053 171.189 129.52C169.962 128.933 169.216 128.053 168.949 126.88C168.682 125.707 168.842 124.56 169.429 123.44C171.136 120.293 172.496 116.933 173.509 113.36C174.522 109.787 175.269 105.787 175.749 101.36C176.229 96.88 176.469 91.8133 176.469 86.16V79.36C176.469 72.8 177.989 68.16 181.029 65.44C184.069 62.6667 189.002 61.28 195.829 61.28H238.069C239.349 61.28 240.362 61.7067 241.109 62.56C241.856 63.36 242.229 64.32 242.229 65.44C242.229 66.56 241.856 67.5467 241.109 68.4C240.362 69.2 239.349 69.6 238.069 69.6H217.669C217.402 70.5067 217.082 71.4933 216.709 72.56C216.336 73.6267 216.016 74.6133 215.749 75.52H219.989C223.936 75.52 227.002 75.9467 229.189 76.8C231.376 77.6 232.896 78.9333 233.749 80.8C234.656 82.6667 235.109 85.2 235.109 88.4V93.44C235.109 96.64 234.656 99.1733 233.749 101.04C232.896 102.907 231.376 104.267 229.189 105.12C227.002 105.92 223.936 106.32 219.989 106.32H217.989V121.6C217.989 125.493 217.029 128.32 215.109 130.08C213.189 131.84 210.042 132.72 205.669 132.72ZM186.389 126.64C185.482 125.787 185.029 124.72 185.029 123.44C185.029 122.16 185.482 121.093 186.389 120.24C187.936 118.853 189.562 117.253 191.269 115.44C193.029 113.573 194.496 111.867 195.669 110.32C196.416 109.307 197.402 108.72 198.629 108.56C199.856 108.4 200.949 108.693 201.909 109.44C202.922 110.133 203.482 111.067 203.589 112.24C203.749 113.36 203.509 114.453 202.869 115.52C201.642 117.333 200.149 119.227 198.389 121.2C196.629 123.173 194.976 124.88 193.429 126.32C192.416 127.227 191.242 127.733 189.909 127.84C188.629 128 187.456 127.6 186.389 126.64ZM233.269 126.72C232.362 125.813 231.269 124.693 229.989 123.36C228.709 121.973 227.456 120.587 226.229 119.2C225.056 117.813 224.096 116.613 223.349 115.6C222.656 114.64 222.389 113.573 222.549 112.4C222.762 111.227 223.376 110.293 224.389 109.6C225.296 108.907 226.336 108.613 227.509 108.72C228.736 108.827 229.722 109.36 230.469 110.32C231.162 111.227 232.096 112.32 233.269 113.6C234.442 114.88 235.642 116.133 236.869 117.36C238.096 118.587 239.136 119.6 239.989 120.4C240.896 121.147 241.376 122.16 241.429 123.44C241.482 124.667 241.056 125.733 240.149 126.64C239.136 127.6 237.962 128.08 236.629 128.08C235.349 128.08 234.229 127.627 233.269 126.72ZM206.709 98.72H219.509C221.802 98.72 223.376 98.4267 224.229 97.84C225.136 97.2533 225.616 96.0533 225.669 94.24H200.549C200.656 96.0533 201.136 97.2533 201.989 97.84C202.842 98.4267 204.416 98.72 206.709 98.72ZM200.549 87.44H225.669C225.616 85.68 225.136 84.5333 224.229 84C223.322 83.4133 221.749 83.12 219.509 83.12H206.709C204.469 83.12 202.896 83.4133 201.989 84C201.136 84.5333 200.656 85.68 200.549 87.44ZM287.509 133.28C286.176 133.28 285.029 132.827 284.069 131.92C283.109 131.013 282.629 129.813 282.629 128.32V94.4H276.789C274.762 94.4 273.162 94.5867 271.989 94.96C270.869 95.28 270.096 95.9467 269.669 96.96C269.242 97.92 269.029 99.36 269.029 101.28V121.92C269.029 123.413 268.549 124.613 267.589 125.52C266.682 126.373 265.536 126.8 264.149 126.8C262.816 126.8 261.669 126.373 260.709 125.52C259.749 124.613 259.269 123.413 259.269 121.92V101.28C259.269 97.1733 259.776 93.9733 260.789 91.68C261.856 89.3333 263.669 87.68 266.229 86.72C268.789 85.76 272.309 85.28 276.789 85.28H282.629V78.24H254.789C253.562 78.24 252.496 77.8133 251.589 76.96C250.736 76.0533 250.309 75.0133 250.309 73.84C250.309 72.6133 250.736 71.5733 251.589 70.72C252.496 69.8133 253.562 69.36 254.789 69.36H282.629V62.88C282.629 61.3867 283.109 60.2133 284.069 59.36C285.029 58.4533 286.176 58 287.509 58C288.896 58 290.069 58.4533 291.029 59.36C291.989 60.2133 292.469 61.3867 292.469 62.88V69.36H320.389C321.616 69.36 322.656 69.8133 323.509 70.72C324.416 71.5733 324.869 72.6133 324.869 73.84C324.869 75.0133 324.416 76.0533 323.509 76.96C322.656 77.8133 321.616 78.24 320.389 78.24H292.469V85.28H299.029C303.562 85.28 307.082 85.76 309.589 86.72C312.149 87.68 313.962 89.3333 315.029 91.68C316.096 93.9733 316.629 97.1733 316.629 101.28V112.48C316.629 117.387 315.536 120.907 313.349 123.04C311.162 125.173 307.749 126.24 303.109 126.24C301.456 126.24 300.096 125.787 299.029 124.88C298.016 123.973 297.456 122.773 297.349 121.28C297.296 120 297.696 118.827 298.549 117.76C299.402 116.693 300.602 116.107 302.149 116C304.016 115.893 305.242 115.573 305.829 115.04C306.416 114.507 306.709 113.467 306.709 111.92V101.28C306.709 99.36 306.496 97.92 306.069 96.96C305.642 95.9467 304.869 95.28 303.749 94.96C302.682 94.5867 301.109 94.4 299.029 94.4H292.469V128.32C292.469 129.813 291.989 131.013 291.029 131.92C290.069 132.827 288.896 133.28 287.509 133.28ZM359.749 131.28C358.362 131.653 357.109 131.547 355.989 130.96C354.922 130.427 354.202 129.547 353.829 128.32C353.456 127.147 353.536 126.053 354.069 125.04C354.656 124.027 355.642 123.333 357.029 122.96C362.949 121.52 368.309 119.307 373.109 116.32C369.109 111.893 365.909 106.773 363.509 100.96H360.549C359.216 100.96 358.176 100.56 357.429 99.76C356.682 98.96 356.309 97.9733 356.309 96.8C356.309 95.6267 356.682 94.64 357.429 93.84C358.176 93.04 359.216 92.64 360.549 92.64H386.629C389.616 92.64 391.909 93.2267 393.509 94.4C395.162 95.5733 396.096 97.12 396.309 99.04C396.576 100.907 396.122 102.96 394.949 105.2C393.829 107.333 392.576 109.333 391.189 111.2C389.856 113.013 388.416 114.747 386.869 116.4C391.349 119.067 396.389 120.96 401.989 122.08C403.482 122.4 404.576 123.12 405.269 124.24C406.016 125.307 406.176 126.533 405.749 127.92C405.322 129.253 404.522 130.213 403.349 130.8C402.176 131.387 400.816 131.493 399.269 131.12C391.696 129.307 385.189 126.373 379.749 122.32C376.922 124.293 373.829 126 370.469 127.44C367.162 128.933 363.589 130.213 359.749 131.28ZM359.029 91.04C358.229 90.3467 357.776 89.36 357.669 88.08C357.562 86.8 357.936 85.7067 358.789 84.8C360.069 83.52 361.082 82.2667 361.829 81.04C362.629 79.8133 363.216 78.3733 363.589 76.72C364.016 75.0133 364.229 72.9333 364.229 70.48C364.229 68.0267 364.629 66.1067 365.429 64.72C366.229 63.28 367.589 62.2667 369.509 61.68C371.482 61.04 374.176 60.72 377.589 60.72C381.002 60.72 383.669 61.04 385.589 61.68C387.509 62.32 388.842 63.36 389.589 64.8C390.389 66.1867 390.789 68.1067 390.789 70.56V78C390.789 79.0133 391.029 79.7333 391.509 80.16C392.042 80.5333 392.896 80.72 394.069 80.72C395.136 80.72 395.909 80.5067 396.389 80.08C396.922 79.6 397.376 78.4533 397.749 76.64C398.016 75.4133 398.682 74.5333 399.749 74C400.816 73.4667 402.016 73.36 403.349 73.68C404.629 74 405.562 74.64 406.149 75.6C406.789 76.56 407.002 77.6533 406.789 78.88C406.096 82.9333 404.762 85.76 402.789 87.36C400.869 88.96 397.856 89.76 393.749 89.76C389.216 89.76 386.069 89.1467 384.309 87.92C382.602 86.6933 381.749 84.3733 381.749 80.96V72C381.749 70.7733 381.482 69.9467 380.949 69.52C380.416 69.04 379.296 68.8 377.589 68.8C375.936 68.8 374.842 69.04 374.309 69.52C373.776 69.9467 373.482 70.7733 373.429 72C373.376 75.1467 373.056 77.84 372.469 80.08C371.936 82.32 371.136 84.2933 370.069 86C369.056 87.6533 367.749 89.2267 366.149 90.72C365.136 91.6267 363.909 92.1067 362.469 92.16C361.082 92.16 359.936 91.7867 359.029 91.04ZM346.949 132.8C345.669 132.8 344.602 132.4 343.749 131.6C342.896 130.8 342.469 129.733 342.469 128.4V101.28C341.936 101.813 341.376 102.347 340.789 102.88C340.256 103.413 339.722 103.92 339.189 104.4C338.176 105.36 337.056 105.867 335.829 105.92C334.602 105.973 333.456 105.493 332.389 104.48C331.536 103.733 331.109 102.72 331.109 101.44C331.109 100.16 331.616 99.0933 332.629 98.24C334.389 96.7467 336.282 94.9333 338.309 92.8C340.336 90.6667 342.282 88.4533 344.149 86.16C346.016 83.8133 347.562 81.6267 348.789 79.6C349.536 78.4267 350.496 77.68 351.669 77.36C352.842 77.04 353.989 77.2533 355.109 78C356.176 78.5867 356.842 79.44 357.109 80.56C357.429 81.68 357.216 82.8267 356.469 84C355.776 85.1733 354.976 86.3733 354.069 87.6C353.216 88.8267 352.309 90.0533 351.349 91.28V128.4C351.349 129.733 350.922 130.8 350.069 131.6C349.216 132.4 348.176 132.8 346.949 132.8ZM341.109 80.24C339.989 80.9867 338.736 81.3333 337.349 81.28C336.016 81.1733 334.949 80.6133 334.149 79.6C333.402 78.64 333.056 77.5733 333.109 76.4C333.216 75.1733 333.776 74.24 334.789 73.6C336.229 72.5867 337.802 71.4133 339.509 70.08C341.216 68.6933 342.842 67.2533 344.389 65.76C345.989 64.2667 347.349 62.8533 348.469 61.52C349.322 60.56 350.389 60.0533 351.669 60C352.949 59.8933 354.016 60.1867 354.869 60.88C355.829 61.68 356.362 62.6667 356.469 63.84C356.576 64.96 356.229 66.0267 355.429 67.04C353.509 69.44 351.189 71.84 348.469 74.24C345.802 76.5867 343.349 78.5867 341.109 80.24ZM379.829 110.96C381.962 108.88 383.776 106.64 385.269 104.24C386.656 102.053 385.936 100.96 383.109 100.96H372.549C374.469 104.747 376.896 108.08 379.829 110.96ZM474.069 133.2C472.789 133.2 471.696 132.773 470.789 131.92C469.882 131.067 469.429 129.947 469.429 128.56V92.4H462.389C462.016 100.453 460.469 107.6 457.749 113.84C455.082 120.027 451.269 125.253 446.309 129.52C445.189 130.48 443.909 131.04 442.469 131.2C441.082 131.413 439.829 131.013 438.709 130C437.696 128.987 437.189 127.813 437.189 126.48C437.242 125.2 437.856 124.053 439.029 123.04C442.282 120.213 444.922 117.173 446.949 113.92C449.029 110.613 450.549 106.907 451.509 102.8C452.469 98.64 452.949 93.8667 452.949 88.48V78.16C452.949 74.8533 453.296 72.2133 453.989 70.24C454.736 68.2133 455.962 66.64 457.669 65.52C459.429 64.4 461.802 63.5467 464.789 62.96C467.136 62.5333 469.722 61.9733 472.549 61.28C475.376 60.5333 478.096 59.7867 480.709 59.04C482.096 58.6133 483.349 58.6667 484.469 59.2C485.642 59.7333 486.416 60.5333 486.789 61.6C487.269 62.88 487.269 64.1067 486.789 65.28C486.309 66.4 485.376 67.1733 483.989 67.6C481.429 68.2933 478.762 68.9867 475.989 69.68C473.216 70.32 470.656 70.8533 468.309 71.28C466.709 71.6 465.482 72 464.629 72.48C463.776 72.9067 463.189 73.5733 462.869 74.48C462.602 75.3333 462.469 76.6133 462.469 78.32V83.52H484.069C485.456 83.52 486.522 83.9733 487.269 84.88C488.069 85.7333 488.469 86.7733 488.469 88C488.469 89.1733 488.069 90.2133 487.269 91.12C486.522 91.9733 485.456 92.4 484.069 92.4H478.709V128.56C478.709 129.947 478.256 131.067 477.349 131.92C476.442 132.773 475.349 133.2 474.069 133.2ZM414.469 132.32C413.349 131.787 412.602 130.933 412.229 129.76C411.856 128.587 411.962 127.467 412.549 126.4C414.682 122.453 416.309 118.293 417.429 113.92C418.549 109.547 419.109 104.667 419.109 99.28V90.08C419.109 86.5067 419.509 83.7333 420.309 81.76C421.162 79.7867 422.629 78.4 424.709 77.6C426.842 76.8 429.802 76.4 433.589 76.4C437.429 76.4 440.389 76.8 442.469 77.6C444.549 78.4 445.989 79.7867 446.789 81.76C447.589 83.7333 447.989 86.5067 447.989 90.08C447.989 93.6533 447.562 96.4267 446.709 98.4C445.909 100.32 444.469 101.68 442.389 102.48C440.309 103.227 437.349 103.6 433.509 103.6H428.149C427.882 109.093 427.136 113.973 425.909 118.24C424.682 122.453 423.082 126.4 421.109 130.08C420.469 131.253 419.509 132.053 418.229 132.48C416.949 132.907 415.696 132.853 414.469 132.32ZM418.789 70.88C417.562 70.88 416.576 70.48 415.829 69.68C415.082 68.88 414.709 67.92 414.709 66.8C414.709 65.6267 415.082 64.6667 415.829 63.92C416.576 63.12 417.562 62.72 418.789 62.72H446.469C447.696 62.72 448.682 63.12 449.429 63.92C450.176 64.6667 450.549 65.6267 450.549 66.8C450.549 67.92 450.176 68.88 449.429 69.68C448.682 70.48 447.696 70.88 446.469 70.88H418.789ZM428.229 95.36H433.589C435.829 95.36 437.269 95.0667 437.909 94.48C438.602 93.84 438.949 92.3733 438.949 90.08C438.949 87.7867 438.602 86.3467 437.909 85.76C437.269 85.12 435.829 84.8 433.589 84.8C431.349 84.8 429.882 85.0933 429.189 85.68C428.549 86.2667 428.229 87.7067 428.229 90V95.36ZM556.411 132.88C555.078 132.88 553.958 132.453 553.051 131.6C552.144 130.747 551.691 129.6 551.691 128.16V118.8H542.011C540.838 118.8 539.798 118.373 538.891 117.52C538.038 116.613 537.611 115.573 537.611 114.4C537.611 113.173 538.038 112.133 538.891 111.28C539.798 110.427 540.838 110 542.011 110H551.691V90.8C549.504 94.0533 547.051 97.3333 544.331 100.64C541.611 103.947 538.731 107.093 535.691 110.08C532.704 113.067 529.718 115.76 526.731 118.16C525.664 119.013 524.411 119.467 522.971 119.52C521.531 119.52 520.358 118.96 519.451 117.84C518.598 116.773 518.278 115.6 518.491 114.32C518.758 113.04 519.451 112 520.571 111.2C523.771 108.8 527.024 106 530.331 102.8C533.691 99.5467 536.864 96.16 539.851 92.64C542.838 89.0667 545.371 85.68 547.451 82.48H524.171C522.998 82.48 521.984 82.0533 521.131 81.2C520.278 80.3467 519.851 79.3333 519.851 78.16C519.851 76.9333 520.278 75.92 521.131 75.12C521.984 74.2667 522.998 73.84 524.171 73.84H551.691V62.88C551.691 61.4933 552.144 60.3733 553.051 59.52C553.958 58.6133 555.078 58.16 556.411 58.16C557.691 58.16 558.784 58.6133 559.691 59.52C560.598 60.3733 561.051 61.4933 561.051 62.88V73.84H588.571C589.798 73.84 590.811 74.2667 591.611 75.12C592.464 75.92 592.891 76.9333 592.891 78.16C592.891 79.3333 592.464 80.3467 591.611 81.2C590.811 82.0533 589.798 82.48 588.571 82.48H565.531C567.664 85.7867 570.251 89.2 573.291 92.72C576.331 96.1867 579.558 99.52 582.971 102.72C586.384 105.92 589.718 108.773 592.971 111.28C593.984 112.027 594.491 113.04 594.491 114.32C594.544 115.6 594.198 116.693 593.451 117.6C592.598 118.613 591.504 119.227 590.171 119.44C588.838 119.653 587.611 119.307 586.491 118.4C583.611 116 580.651 113.307 577.611 110.32C574.571 107.333 571.638 104.16 568.811 100.8C565.984 97.3867 563.398 93.92 561.051 90.4V110H571.051C572.278 110 573.318 110.427 574.171 111.28C575.024 112.133 575.451 113.173 575.451 114.4C575.451 115.573 575.024 116.613 574.171 117.52C573.318 118.373 572.278 118.8 571.051 118.8H561.051V128.16C561.051 129.6 560.598 130.747 559.691 131.6C558.784 132.453 557.691 132.88 556.411 132.88ZM603.691 131.52C602.304 131.04 601.398 130.16 600.971 128.88C600.544 127.6 600.624 126.373 601.211 125.2C603.238 121.147 604.811 116.24 605.931 110.48C607.104 104.72 607.691 97.8667 607.691 89.92V86.08C607.691 81.76 608.278 78.3467 609.451 75.84C610.678 73.3333 612.704 71.5733 615.531 70.56C618.411 69.4933 622.278 68.96 627.131 68.96H635.531V63.2C635.531 61.6533 636.038 60.4533 637.051 59.6C638.064 58.6933 639.238 58.24 640.571 58.24C641.958 58.24 643.131 58.6933 644.091 59.6C645.104 60.4533 645.611 61.6533 645.611 63.2V68.96H670.091C671.424 68.96 672.464 69.3867 673.211 70.24C673.958 71.04 674.331 72.0267 674.331 73.2C674.331 74.3733 673.958 75.3867 673.211 76.24C672.464 77.04 671.424 77.44 670.091 77.44H627.131C624.464 77.44 622.384 77.68 620.891 78.16C619.398 78.5867 618.358 79.44 617.771 80.72C617.184 81.9467 616.891 83.7333 616.891 86.08V90.08C616.891 98.4 616.331 105.76 615.211 112.16C614.091 118.507 612.438 124 610.251 128.64C609.611 129.92 608.678 130.827 607.451 131.36C606.278 131.893 605.024 131.947 603.691 131.52ZM637.451 132.56C635.798 132.56 634.491 132.133 633.531 131.28C632.571 130.427 632.064 129.253 632.011 127.76C631.958 126.373 632.358 125.227 633.211 124.32C634.064 123.36 635.238 122.853 636.731 122.8C638.811 122.693 640.171 122.373 640.811 121.84C641.504 121.253 641.851 120.133 641.851 118.48V93.84H623.371C622.091 93.84 621.078 93.44 620.331 92.64C619.584 91.84 619.211 90.8533 619.211 89.68C619.211 88.5067 619.584 87.52 620.331 86.72C621.078 85.92 622.091 85.52 623.371 85.52H670.171C671.451 85.52 672.464 85.92 673.211 86.72C673.958 87.52 674.331 88.5067 674.331 89.68C674.331 90.8533 673.958 91.84 673.211 92.64C672.464 93.44 671.451 93.84 670.171 93.84H651.291V120.64C651.291 124.853 650.224 127.893 648.091 129.76C646.011 131.627 642.464 132.56 637.451 132.56ZM711.051 131.68C707.424 131.68 704.544 131.307 702.411 130.56C700.278 129.867 698.758 128.64 697.851 126.88C696.944 125.12 696.491 122.64 696.491 119.44C696.491 116.24 696.944 113.76 697.851 112C698.758 110.187 700.278 108.933 702.411 108.24C704.544 107.547 707.424 107.2 711.051 107.2H728.331C731.958 107.2 734.838 107.547 736.971 108.24C739.104 108.933 740.624 110.187 741.531 112C742.438 113.76 742.891 116.24 742.891 119.44C742.891 122.64 742.438 125.12 741.531 126.88C740.624 128.64 739.104 129.867 736.971 130.56C734.838 131.307 731.958 131.68 728.331 131.68H711.051ZM687.691 102.8C686.464 102.8 685.478 102.427 684.731 101.68C684.038 100.88 683.691 99.92 683.691 98.8C683.691 97.7333 684.038 96.8 684.731 96C685.478 95.2 686.464 94.8 687.691 94.8H715.131V89.44H701.691C700.464 89.44 699.478 89.0667 698.731 88.32C698.038 87.52 697.691 86.56 697.691 85.44C697.691 84.3733 698.038 83.44 698.731 82.64C699.478 81.84 700.464 81.44 701.691 81.44H715.131V77.76C715.131 76.3733 715.558 75.28 716.411 74.48C717.318 73.6267 718.411 73.2 719.691 73.2C720.918 73.2 721.958 73.6267 722.811 74.48C723.718 75.28 724.171 76.3733 724.171 77.76V81.44H737.531C738.758 81.44 739.718 81.84 740.411 82.64C741.158 83.44 741.531 84.3733 741.531 85.44C741.531 86.56 741.158 87.52 740.411 88.32C739.718 89.0667 738.758 89.44 737.531 89.44H724.171V94.8H751.851C753.078 94.8 754.038 95.2 754.731 96C755.424 96.8 755.771 97.7333 755.771 98.8C755.771 99.92 755.424 100.88 754.731 101.68C754.038 102.427 753.078 102.8 751.851 102.8H687.691ZM688.411 88.08C687.024 88.7733 685.718 88.9867 684.491 88.72C683.264 88.4 682.304 87.68 681.611 86.56C680.918 85.3867 680.758 84.2133 681.131 83.04C681.558 81.8133 682.438 80.9333 683.771 80.4C687.131 79.0133 690.598 77.28 694.171 75.2C697.744 73.12 701.131 70.9067 704.331 68.56C707.531 66.2133 710.224 63.9733 712.411 61.84C713.531 60.7733 714.624 59.9467 715.691 59.36C716.811 58.72 718.091 58.4 719.531 58.4C720.918 58.4 722.171 58.8 723.291 59.6C724.464 60.3467 725.638 61.2533 726.811 62.32C729.104 64.3467 731.798 66.4 734.891 68.48C737.984 70.56 741.264 72.5067 744.731 74.32C748.251 76.08 751.664 77.5467 754.971 78.72C756.358 79.2533 757.318 80.16 757.851 81.44C758.438 82.72 758.411 83.9733 757.771 85.2C757.078 86.5333 756.064 87.4133 754.731 87.84C753.451 88.2133 752.091 88.08 750.651 87.44C747.398 86 743.931 84.2667 740.251 82.24C736.624 80.2133 733.184 78.0533 729.931 75.76C726.678 73.4667 723.931 71.2267 721.691 69.04C720.838 68.1867 720.118 67.76 719.531 67.76C718.944 67.76 718.224 68.16 717.371 68.96C715.078 71.1467 712.278 73.4133 708.971 75.76C705.718 78.1067 702.278 80.3467 698.651 82.48C695.078 84.6133 691.664 86.48 688.411 88.08ZM711.051 123.68H728.331C730.358 123.68 731.691 123.36 732.331 122.72C733.024 122.08 733.371 120.987 733.371 119.44C733.371 117.893 733.024 116.8 732.331 116.16C731.691 115.52 730.358 115.2 728.331 115.2H711.051C708.971 115.2 707.611 115.52 706.971 116.16C706.331 116.8 706.011 117.893 706.011 119.44C706.011 120.987 706.331 122.08 706.971 122.72C707.611 123.36 708.971 123.68 711.051 123.68Z" fill="#007440"/>
<rect x="16" y="16" width="812" height="162" rx="24" fill="white"/>
<rect x="16" y="16" width="812" height="162" rx="24" stroke="#007440" stroke-width="4"/>
<path d="M124.469 132.48C123.136 132.48 122.016 132.053 121.109 131.2C120.202 130.347 119.749 129.2 119.749 127.76V101.68C116.549 105.787 112.896 109.76 108.789 113.6C104.736 117.44 100.709 120.72 96.7091 123.44C95.5357 124.24 94.2557 124.56 92.8691 124.4C91.5357 124.24 90.4691 123.6 89.6691 122.48C88.8691 121.413 88.5491 120.24 88.7091 118.96C88.9224 117.627 89.5891 116.587 90.7091 115.84C93.4291 114.027 96.2557 111.893 99.1891 109.44C102.122 106.987 104.976 104.427 107.749 101.76C110.522 99.04 112.922 96.4533 114.949 94H92.8691C91.6957 94 90.6824 93.6 89.8291 92.8C89.0291 91.9467 88.6291 90.9333 88.6291 89.76C88.6291 88.5333 89.0291 87.52 89.8291 86.72C90.6824 85.92 91.6957 85.52 92.8691 85.52H119.749V63.6C119.749 62.2133 120.202 61.0933 121.109 60.24C122.016 59.3867 123.136 58.96 124.469 58.96C125.749 58.96 126.842 59.3867 127.749 60.24C128.656 61.0933 129.109 62.2133 129.109 63.6V85.52H155.749C156.922 85.52 157.909 85.92 158.709 86.72C159.562 87.52 159.989 88.5333 159.989 89.76C159.989 90.9333 159.562 91.9467 158.709 92.8C157.909 93.6 156.922 94 155.749 94H133.669C135.856 96.4 138.362 98.96 141.189 101.68C144.016 104.347 146.922 106.907 149.909 109.36C152.896 111.813 155.696 113.947 158.309 115.76C159.376 116.453 159.962 117.467 160.069 118.8C160.176 120.133 159.856 121.307 159.109 122.32C158.309 123.493 157.216 124.187 155.829 124.4C154.442 124.56 153.189 124.24 152.069 123.44C148.122 120.773 144.122 117.547 140.069 113.76C136.069 109.92 132.416 105.893 129.109 101.68V127.76C129.109 129.2 128.656 130.347 127.749 131.2C126.842 132.053 125.749 132.48 124.469 132.48ZM135.989 81.68C135.082 80.9867 134.576 80.0533 134.469 78.88C134.362 77.7067 134.656 76.6933 135.349 75.84C136.202 74.8267 137.162 73.6 138.229 72.16C139.349 70.6667 140.416 69.1733 141.429 67.68C142.442 66.1867 143.242 64.9867 143.829 64.08C144.576 62.9067 145.562 62.1867 146.789 61.92C148.016 61.6533 149.189 61.8667 150.309 62.56C151.376 63.1467 152.096 64.0267 152.469 65.2C152.842 66.3733 152.656 67.5467 151.909 68.72C151.162 69.84 150.229 71.1467 149.109 72.64C148.042 74.1333 146.922 75.6267 145.749 77.12C144.576 78.6133 143.509 79.92 142.549 81.04C141.696 82 140.629 82.56 139.349 82.72C138.122 82.8267 137.002 82.48 135.989 81.68ZM112.709 81.76C111.749 82.56 110.629 82.9333 109.349 82.88C108.069 82.7733 107.082 82.2667 106.389 81.36C105.642 80.3467 104.656 79.1467 103.429 77.76C102.256 76.32 101.082 74.9067 99.9091 73.52C98.7357 72.1333 97.7224 70.9867 96.8691 70.08C96.0691 69.2267 95.6957 68.2133 95.7491 67.04C95.8557 65.8133 96.3624 64.8267 97.2691 64.08C98.1757 63.2267 99.2691 62.8 100.549 62.8C101.829 62.8 102.896 63.2533 103.749 64.16C104.656 65.0667 105.696 66.2133 106.869 67.6C108.096 68.9333 109.296 70.2933 110.469 71.68C111.696 73.0667 112.682 74.2667 113.429 75.28C114.229 76.2933 114.576 77.4133 114.469 78.64C114.362 79.8667 113.776 80.9067 112.709 81.76ZM205.669 132.72C202.522 132.72 200.816 131.227 200.549 128.24C200.496 127.013 200.869 125.92 201.669 124.96C202.469 124 203.536 123.493 204.869 123.44C206.576 123.333 207.616 123.067 207.989 122.64C208.416 122.213 208.629 121.28 208.629 119.84V106.32H206.229C202.336 106.32 199.296 105.92 197.109 105.12C194.922 104.267 193.376 102.907 192.469 101.04C191.562 99.1733 191.109 96.64 191.109 93.44V88.4C191.109 85.3067 191.536 82.8267 192.389 80.96C193.242 79.0933 194.709 77.7333 196.789 76.88C198.869 76.0267 201.749 75.5733 205.429 75.52C205.696 74.6133 205.989 73.6267 206.309 72.56C206.629 71.44 206.896 70.4533 207.109 69.6H195.989C192.149 69.6 189.429 70.32 187.829 71.76C186.282 73.2 185.509 75.76 185.509 79.44V86.24C185.509 95.3067 184.896 103.12 183.669 109.68C182.496 116.24 180.496 122.16 177.669 127.44C177.082 128.613 176.149 129.387 174.869 129.76C173.642 130.133 172.416 130.053 171.189 129.52C169.962 128.933 169.216 128.053 168.949 126.88C168.682 125.707 168.842 124.56 169.429 123.44C171.136 120.293 172.496 116.933 173.509 113.36C174.522 109.787 175.269 105.787 175.749 101.36C176.229 96.88 176.469 91.8133 176.469 86.16V79.36C176.469 72.8 177.989 68.16 181.029 65.44C184.069 62.6667 189.002 61.28 195.829 61.28H238.069C239.349 61.28 240.362 61.7067 241.109 62.56C241.856 63.36 242.229 64.32 242.229 65.44C242.229 66.56 241.856 67.5467 241.109 68.4C240.362 69.2 239.349 69.6 238.069 69.6H217.669C217.402 70.5067 217.082 71.4933 216.709 72.56C216.336 73.6267 216.016 74.6133 215.749 75.52H219.989C223.936 75.52 227.002 75.9467 229.189 76.8C231.376 77.6 232.896 78.9333 233.749 80.8C234.656 82.6667 235.109 85.2 235.109 88.4V93.44C235.109 96.64 234.656 99.1733 233.749 101.04C232.896 102.907 231.376 104.267 229.189 105.12C227.002 105.92 223.936 106.32 219.989 106.32H217.989V121.6C217.989 125.493 217.029 128.32 215.109 130.08C213.189 131.84 210.042 132.72 205.669 132.72ZM186.389 126.64C185.482 125.787 185.029 124.72 185.029 123.44C185.029 122.16 185.482 121.093 186.389 120.24C187.936 118.853 189.562 117.253 191.269 115.44C193.029 113.573 194.496 111.867 195.669 110.32C196.416 109.307 197.402 108.72 198.629 108.56C199.856 108.4 200.949 108.693 201.909 109.44C202.922 110.133 203.482 111.067 203.589 112.24C203.749 113.36 203.509 114.453 202.869 115.52C201.642 117.333 200.149 119.227 198.389 121.2C196.629 123.173 194.976 124.88 193.429 126.32C192.416 127.227 191.242 127.733 189.909 127.84C188.629 128 187.456 127.6 186.389 126.64ZM233.269 126.72C232.362 125.813 231.269 124.693 229.989 123.36C228.709 121.973 227.456 120.587 226.229 119.2C225.056 117.813 224.096 116.613 223.349 115.6C222.656 114.64 222.389 113.573 222.549 112.4C222.762 111.227 223.376 110.293 224.389 109.6C225.296 108.907 226.336 108.613 227.509 108.72C228.736 108.827 229.722 109.36 230.469 110.32C231.162 111.227 232.096 112.32 233.269 113.6C234.442 114.88 235.642 116.133 236.869 117.36C238.096 118.587 239.136 119.6 239.989 120.4C240.896 121.147 241.376 122.16 241.429 123.44C241.482 124.667 241.056 125.733 240.149 126.64C239.136 127.6 237.962 128.08 236.629 128.08C235.349 128.08 234.229 127.627 233.269 126.72ZM206.709 98.72H219.509C221.802 98.72 223.376 98.4267 224.229 97.84C225.136 97.2533 225.616 96.0533 225.669 94.24H200.549C200.656 96.0533 201.136 97.2533 201.989 97.84C202.842 98.4267 204.416 98.72 206.709 98.72ZM200.549 87.44H225.669C225.616 85.68 225.136 84.5333 224.229 84C223.322 83.4133 221.749 83.12 219.509 83.12H206.709C204.469 83.12 202.896 83.4133 201.989 84C201.136 84.5333 200.656 85.68 200.549 87.44ZM287.509 133.28C286.176 133.28 285.029 132.827 284.069 131.92C283.109 131.013 282.629 129.813 282.629 128.32V94.4H276.789C274.762 94.4 273.162 94.5867 271.989 94.96C270.869 95.28 270.096 95.9467 269.669 96.96C269.242 97.92 269.029 99.36 269.029 101.28V121.92C269.029 123.413 268.549 124.613 267.589 125.52C266.682 126.373 265.536 126.8 264.149 126.8C262.816 126.8 261.669 126.373 260.709 125.52C259.749 124.613 259.269 123.413 259.269 121.92V101.28C259.269 97.1733 259.776 93.9733 260.789 91.68C261.856 89.3333 263.669 87.68 266.229 86.72C268.789 85.76 272.309 85.28 276.789 85.28H282.629V78.24H254.789C253.562 78.24 252.496 77.8133 251.589 76.96C250.736 76.0533 250.309 75.0133 250.309 73.84C250.309 72.6133 250.736 71.5733 251.589 70.72C252.496 69.8133 253.562 69.36 254.789 69.36H282.629V62.88C282.629 61.3867 283.109 60.2133 284.069 59.36C285.029 58.4533 286.176 58 287.509 58C288.896 58 290.069 58.4533 291.029 59.36C291.989 60.2133 292.469 61.3867 292.469 62.88V69.36H320.389C321.616 69.36 322.656 69.8133 323.509 70.72C324.416 71.5733 324.869 72.6133 324.869 73.84C324.869 75.0133 324.416 76.0533 323.509 76.96C322.656 77.8133 321.616 78.24 320.389 78.24H292.469V85.28H299.029C303.562 85.28 307.082 85.76 309.589 86.72C312.149 87.68 313.962 89.3333 315.029 91.68C316.096 93.9733 316.629 97.1733 316.629 101.28V112.48C316.629 117.387 315.536 120.907 313.349 123.04C311.162 125.173 307.749 126.24 303.109 126.24C301.456 126.24 300.096 125.787 299.029 124.88C298.016 123.973 297.456 122.773 297.349 121.28C297.296 120 297.696 118.827 298.549 117.76C299.402 116.693 300.602 116.107 302.149 116C304.016 115.893 305.242 115.573 305.829 115.04C306.416 114.507 306.709 113.467 306.709 111.92V101.28C306.709 99.36 306.496 97.92 306.069 96.96C305.642 95.9467 304.869 95.28 303.749 94.96C302.682 94.5867 301.109 94.4 299.029 94.4H292.469V128.32C292.469 129.813 291.989 131.013 291.029 131.92C290.069 132.827 288.896 133.28 287.509 133.28ZM359.749 131.28C358.362 131.653 357.109 131.547 355.989 130.96C354.922 130.427 354.202 129.547 353.829 128.32C353.456 127.147 353.536 126.053 354.069 125.04C354.656 124.027 355.642 123.333 357.029 122.96C362.949 121.52 368.309 119.307 373.109 116.32C369.109 111.893 365.909 106.773 363.509 100.96H360.549C359.216 100.96 358.176 100.56 357.429 99.76C356.682 98.96 356.309 97.9733 356.309 96.8C356.309 95.6267 356.682 94.64 357.429 93.84C358.176 93.04 359.216 92.64 360.549 92.64H386.629C389.616 92.64 391.909 93.2267 393.509 94.4C395.162 95.5733 396.096 97.12 396.309 99.04C396.576 100.907 396.122 102.96 394.949 105.2C393.829 107.333 392.576 109.333 391.189 111.2C389.856 113.013 388.416 114.747 386.869 116.4C391.349 119.067 396.389 120.96 401.989 122.08C403.482 122.4 404.576 123.12 405.269 124.24C406.016 125.307 406.176 126.533 405.749 127.92C405.322 129.253 404.522 130.213 403.349 130.8C402.176 131.387 400.816 131.493 399.269 131.12C391.696 129.307 385.189 126.373 379.749 122.32C376.922 124.293 373.829 126 370.469 127.44C367.162 128.933 363.589 130.213 359.749 131.28ZM359.029 91.04C358.229 90.3467 357.776 89.36 357.669 88.08C357.562 86.8 357.936 85.7067 358.789 84.8C360.069 83.52 361.082 82.2667 361.829 81.04C362.629 79.8133 363.216 78.3733 363.589 76.72C364.016 75.0133 364.229 72.9333 364.229 70.48C364.229 68.0267 364.629 66.1067 365.429 64.72C366.229 63.28 367.589 62.2667 369.509 61.68C371.482 61.04 374.176 60.72 377.589 60.72C381.002 60.72 383.669 61.04 385.589 61.68C387.509 62.32 388.842 63.36 389.589 64.8C390.389 66.1867 390.789 68.1067 390.789 70.56V78C390.789 79.0133 391.029 79.7333 391.509 80.16C392.042 80.5333 392.896 80.72 394.069 80.72C395.136 80.72 395.909 80.5067 396.389 80.08C396.922 79.6 397.376 78.4533 397.749 76.64C398.016 75.4133 398.682 74.5333 399.749 74C400.816 73.4667 402.016 73.36 403.349 73.68C404.629 74 405.562 74.64 406.149 75.6C406.789 76.56 407.002 77.6533 406.789 78.88C406.096 82.9333 404.762 85.76 402.789 87.36C400.869 88.96 397.856 89.76 393.749 89.76C389.216 89.76 386.069 89.1467 384.309 87.92C382.602 86.6933 381.749 84.3733 381.749 80.96V72C381.749 70.7733 381.482 69.9467 380.949 69.52C380.416 69.04 379.296 68.8 377.589 68.8C375.936 68.8 374.842 69.04 374.309 69.52C373.776 69.9467 373.482 70.7733 373.429 72C373.376 75.1467 373.056 77.84 372.469 80.08C371.936 82.32 371.136 84.2933 370.069 86C369.056 87.6533 367.749 89.2267 366.149 90.72C365.136 91.6267 363.909 92.1067 362.469 92.16C361.082 92.16 359.936 91.7867 359.029 91.04ZM346.949 132.8C345.669 132.8 344.602 132.4 343.749 131.6C342.896 130.8 342.469 129.733 342.469 128.4V101.28C341.936 101.813 341.376 102.347 340.789 102.88C340.256 103.413 339.722 103.92 339.189 104.4C338.176 105.36 337.056 105.867 335.829 105.92C334.602 105.973 333.456 105.493 332.389 104.48C331.536 103.733 331.109 102.72 331.109 101.44C331.109 100.16 331.616 99.0933 332.629 98.24C334.389 96.7467 336.282 94.9333 338.309 92.8C340.336 90.6667 342.282 88.4533 344.149 86.16C346.016 83.8133 347.562 81.6267 348.789 79.6C349.536 78.4267 350.496 77.68 351.669 77.36C352.842 77.04 353.989 77.2533 355.109 78C356.176 78.5867 356.842 79.44 357.109 80.56C357.429 81.68 357.216 82.8267 356.469 84C355.776 85.1733 354.976 86.3733 354.069 87.6C353.216 88.8267 352.309 90.0533 351.349 91.28V128.4C351.349 129.733 350.922 130.8 350.069 131.6C349.216 132.4 348.176 132.8 346.949 132.8ZM341.109 80.24C339.989 80.9867 338.736 81.3333 337.349 81.28C336.016 81.1733 334.949 80.6133 334.149 79.6C333.402 78.64 333.056 77.5733 333.109 76.4C333.216 75.1733 333.776 74.24 334.789 73.6C336.229 72.5867 337.802 71.4133 339.509 70.08C341.216 68.6933 342.842 67.2533 344.389 65.76C345.989 64.2667 347.349 62.8533 348.469 61.52C349.322 60.56 350.389 60.0533 351.669 60C352.949 59.8933 354.016 60.1867 354.869 60.88C355.829 61.68 356.362 62.6667 356.469 63.84C356.576 64.96 356.229 66.0267 355.429 67.04C353.509 69.44 351.189 71.84 348.469 74.24C345.802 76.5867 343.349 78.5867 341.109 80.24ZM379.829 110.96C381.962 108.88 383.776 106.64 385.269 104.24C386.656 102.053 385.936 100.96 383.109 100.96H372.549C374.469 104.747 376.896 108.08 379.829 110.96ZM474.069 133.2C472.789 133.2 471.696 132.773 470.789 131.92C469.882 131.067 469.429 129.947 469.429 128.56V92.4H462.389C462.016 100.453 460.469 107.6 457.749 113.84C455.082 120.027 451.269 125.253 446.309 129.52C445.189 130.48 443.909 131.04 442.469 131.2C441.082 131.413 439.829 131.013 438.709 130C437.696 128.987 437.189 127.813 437.189 126.48C437.242 125.2 437.856 124.053 439.029 123.04C442.282 120.213 444.922 117.173 446.949 113.92C449.029 110.613 450.549 106.907 451.509 102.8C452.469 98.64 452.949 93.8667 452.949 88.48V78.16C452.949 74.8533 453.296 72.2133 453.989 70.24C454.736 68.2133 455.962 66.64 457.669 65.52C459.429 64.4 461.802 63.5467 464.789 62.96C467.136 62.5333 469.722 61.9733 472.549 61.28C475.376 60.5333 478.096 59.7867 480.709 59.04C482.096 58.6133 483.349 58.6667 484.469 59.2C485.642 59.7333 486.416 60.5333 486.789 61.6C487.269 62.88 487.269 64.1067 486.789 65.28C486.309 66.4 485.376 67.1733 483.989 67.6C481.429 68.2933 478.762 68.9867 475.989 69.68C473.216 70.32 470.656 70.8533 468.309 71.28C466.709 71.6 465.482 72 464.629 72.48C463.776 72.9067 463.189 73.5733 462.869 74.48C462.602 75.3333 462.469 76.6133 462.469 78.32V83.52H484.069C485.456 83.52 486.522 83.9733 487.269 84.88C488.069 85.7333 488.469 86.7733 488.469 88C488.469 89.1733 488.069 90.2133 487.269 91.12C486.522 91.9733 485.456 92.4 484.069 92.4H478.709V128.56C478.709 129.947 478.256 131.067 477.349 131.92C476.442 132.773 475.349 133.2 474.069 133.2ZM414.469 132.32C413.349 131.787 412.602 130.933 412.229 129.76C411.856 128.587 411.962 127.467 412.549 126.4C414.682 122.453 416.309 118.293 417.429 113.92C418.549 109.547 419.109 104.667 419.109 99.28V90.08C419.109 86.5067 419.509 83.7333 420.309 81.76C421.162 79.7867 422.629 78.4 424.709 77.6C426.842 76.8 429.802 76.4 433.589 76.4C437.429 76.4 440.389 76.8 442.469 77.6C444.549 78.4 445.989 79.7867 446.789 81.76C447.589 83.7333 447.989 86.5067 447.989 90.08C447.989 93.6533 447.562 96.4267 446.709 98.4C445.909 100.32 444.469 101.68 442.389 102.48C440.309 103.227 437.349 103.6 433.509 103.6H428.149C427.882 109.093 427.136 113.973 425.909 118.24C424.682 122.453 423.082 126.4 421.109 130.08C420.469 131.253 419.509 132.053 418.229 132.48C416.949 132.907 415.696 132.853 414.469 132.32ZM418.789 70.88C417.562 70.88 416.576 70.48 415.829 69.68C415.082 68.88 414.709 67.92 414.709 66.8C414.709 65.6267 415.082 64.6667 415.829 63.92C416.576 63.12 417.562 62.72 418.789 62.72H446.469C447.696 62.72 448.682 63.12 449.429 63.92C450.176 64.6667 450.549 65.6267 450.549 66.8C450.549 67.92 450.176 68.88 449.429 69.68C448.682 70.48 447.696 70.88 446.469 70.88H418.789ZM428.229 95.36H433.589C435.829 95.36 437.269 95.0667 437.909 94.48C438.602 93.84 438.949 92.3733 438.949 90.08C438.949 87.7867 438.602 86.3467 437.909 85.76C437.269 85.12 435.829 84.8 433.589 84.8C431.349 84.8 429.882 85.0933 429.189 85.68C428.549 86.2667 428.229 87.7067 428.229 90V95.36ZM556.411 132.88C555.078 132.88 553.958 132.453 553.051 131.6C552.144 130.747 551.691 129.6 551.691 128.16V118.8H542.011C540.838 118.8 539.798 118.373 538.891 117.52C538.038 116.613 537.611 115.573 537.611 114.4C537.611 113.173 538.038 112.133 538.891 111.28C539.798 110.427 540.838 110 542.011 110H551.691V90.8C549.504 94.0533 547.051 97.3333 544.331 100.64C541.611 103.947 538.731 107.093 535.691 110.08C532.704 113.067 529.718 115.76 526.731 118.16C525.664 119.013 524.411 119.467 522.971 119.52C521.531 119.52 520.358 118.96 519.451 117.84C518.598 116.773 518.278 115.6 518.491 114.32C518.758 113.04 519.451 112 520.571 111.2C523.771 108.8 527.024 106 530.331 102.8C533.691 99.5467 536.864 96.16 539.851 92.64C542.838 89.0667 545.371 85.68 547.451 82.48H524.171C522.998 82.48 521.984 82.0533 521.131 81.2C520.278 80.3467 519.851 79.3333 519.851 78.16C519.851 76.9333 520.278 75.92 521.131 75.12C521.984 74.2667 522.998 73.84 524.171 73.84H551.691V62.88C551.691 61.4933 552.144 60.3733 553.051 59.52C553.958 58.6133 555.078 58.16 556.411 58.16C557.691 58.16 558.784 58.6133 559.691 59.52C560.598 60.3733 561.051 61.4933 561.051 62.88V73.84H588.571C589.798 73.84 590.811 74.2667 591.611 75.12C592.464 75.92 592.891 76.9333 592.891 78.16C592.891 79.3333 592.464 80.3467 591.611 81.2C590.811 82.0533 589.798 82.48 588.571 82.48H565.531C567.664 85.7867 570.251 89.2 573.291 92.72C576.331 96.1867 579.558 99.52 582.971 102.72C586.384 105.92 589.718 108.773 592.971 111.28C593.984 112.027 594.491 113.04 594.491 114.32C594.544 115.6 594.198 116.693 593.451 117.6C592.598 118.613 591.504 119.227 590.171 119.44C588.838 119.653 587.611 119.307 586.491 118.4C583.611 116 580.651 113.307 577.611 110.32C574.571 107.333 571.638 104.16 568.811 100.8C565.984 97.3867 563.398 93.92 561.051 90.4V110H571.051C572.278 110 573.318 110.427 574.171 111.28C575.024 112.133 575.451 113.173 575.451 114.4C575.451 115.573 575.024 116.613 574.171 117.52C573.318 118.373 572.278 118.8 571.051 118.8H561.051V128.16C561.051 129.6 560.598 130.747 559.691 131.6C558.784 132.453 557.691 132.88 556.411 132.88ZM603.691 131.52C602.304 131.04 601.398 130.16 600.971 128.88C600.544 127.6 600.624 126.373 601.211 125.2C603.238 121.147 604.811 116.24 605.931 110.48C607.104 104.72 607.691 97.8667 607.691 89.92V86.08C607.691 81.76 608.278 78.3467 609.451 75.84C610.678 73.3333 612.704 71.5733 615.531 70.56C618.411 69.4933 622.278 68.96 627.131 68.96H635.531V63.2C635.531 61.6533 636.038 60.4533 637.051 59.6C638.064 58.6933 639.238 58.24 640.571 58.24C641.958 58.24 643.131 58.6933 644.091 59.6C645.104 60.4533 645.611 61.6533 645.611 63.2V68.96H670.091C671.424 68.96 672.464 69.3867 673.211 70.24C673.958 71.04 674.331 72.0267 674.331 73.2C674.331 74.3733 673.958 75.3867 673.211 76.24C672.464 77.04 671.424 77.44 670.091 77.44H627.131C624.464 77.44 622.384 77.68 620.891 78.16C619.398 78.5867 618.358 79.44 617.771 80.72C617.184 81.9467 616.891 83.7333 616.891 86.08V90.08C616.891 98.4 616.331 105.76 615.211 112.16C614.091 118.507 612.438 124 610.251 128.64C609.611 129.92 608.678 130.827 607.451 131.36C606.278 131.893 605.024 131.947 603.691 131.52ZM637.451 132.56C635.798 132.56 634.491 132.133 633.531 131.28C632.571 130.427 632.064 129.253 632.011 127.76C631.958 126.373 632.358 125.227 633.211 124.32C634.064 123.36 635.238 122.853 636.731 122.8C638.811 122.693 640.171 122.373 640.811 121.84C641.504 121.253 641.851 120.133 641.851 118.48V93.84H623.371C622.091 93.84 621.078 93.44 620.331 92.64C619.584 91.84 619.211 90.8533 619.211 89.68C619.211 88.5067 619.584 87.52 620.331 86.72C621.078 85.92 622.091 85.52 623.371 85.52H670.171C671.451 85.52 672.464 85.92 673.211 86.72C673.958 87.52 674.331 88.5067 674.331 89.68C674.331 90.8533 673.958 91.84 673.211 92.64C672.464 93.44 671.451 93.84 670.171 93.84H651.291V120.64C651.291 124.853 650.224 127.893 648.091 129.76C646.011 131.627 642.464 132.56 637.451 132.56ZM711.051 131.68C707.424 131.68 704.544 131.307 702.411 130.56C700.278 129.867 698.758 128.64 697.851 126.88C696.944 125.12 696.491 122.64 696.491 119.44C696.491 116.24 696.944 113.76 697.851 112C698.758 110.187 700.278 108.933 702.411 108.24C704.544 107.547 707.424 107.2 711.051 107.2H728.331C731.958 107.2 734.838 107.547 736.971 108.24C739.104 108.933 740.624 110.187 741.531 112C742.438 113.76 742.891 116.24 742.891 119.44C742.891 122.64 742.438 125.12 741.531 126.88C740.624 128.64 739.104 129.867 736.971 130.56C734.838 131.307 731.958 131.68 728.331 131.68H711.051ZM687.691 102.8C686.464 102.8 685.478 102.427 684.731 101.68C684.038 100.88 683.691 99.92 683.691 98.8C683.691 97.7333 684.038 96.8 684.731 96C685.478 95.2 686.464 94.8 687.691 94.8H715.131V89.44H701.691C700.464 89.44 699.478 89.0667 698.731 88.32C698.038 87.52 697.691 86.56 697.691 85.44C697.691 84.3733 698.038 83.44 698.731 82.64C699.478 81.84 700.464 81.44 701.691 81.44H715.131V77.76C715.131 76.3733 715.558 75.28 716.411 74.48C717.318 73.6267 718.411 73.2 719.691 73.2C720.918 73.2 721.958 73.6267 722.811 74.48C723.718 75.28 724.171 76.3733 724.171 77.76V81.44H737.531C738.758 81.44 739.718 81.84 740.411 82.64C741.158 83.44 741.531 84.3733 741.531 85.44C741.531 86.56 741.158 87.52 740.411 88.32C739.718 89.0667 738.758 89.44 737.531 89.44H724.171V94.8H751.851C753.078 94.8 754.038 95.2 754.731 96C755.424 96.8 755.771 97.7333 755.771 98.8C755.771 99.92 755.424 100.88 754.731 101.68C754.038 102.427 753.078 102.8 751.851 102.8H687.691ZM688.411 88.08C687.024 88.7733 685.718 88.9867 684.491 88.72C683.264 88.4 682.304 87.68 681.611 86.56C680.918 85.3867 680.758 84.2133 681.131 83.04C681.558 81.8133 682.438 80.9333 683.771 80.4C687.131 79.0133 690.598 77.28 694.171 75.2C697.744 73.12 701.131 70.9067 704.331 68.56C707.531 66.2133 710.224 63.9733 712.411 61.84C713.531 60.7733 714.624 59.9467 715.691 59.36C716.811 58.72 718.091 58.4 719.531 58.4C720.918 58.4 722.171 58.8 723.291 59.6C724.464 60.3467 725.638 61.2533 726.811 62.32C729.104 64.3467 731.798 66.4 734.891 68.48C737.984 70.56 741.264 72.5067 744.731 74.32C748.251 76.08 751.664 77.5467 754.971 78.72C756.358 79.2533 757.318 80.16 757.851 81.44C758.438 82.72 758.411 83.9733 757.771 85.2C757.078 86.5333 756.064 87.4133 754.731 87.84C753.451 88.2133 752.091 88.08 750.651 87.44C747.398 86 743.931 84.2667 740.251 82.24C736.624 80.2133 733.184 78.0533 729.931 75.76C726.678 73.4667 723.931 71.2267 721.691 69.04C720.838 68.1867 720.118 67.76 719.531 67.76C718.944 67.76 718.224 68.16 717.371 68.96C715.078 71.1467 712.278 73.4133 708.971 75.76C705.718 78.1067 702.278 80.3467 698.651 82.48C695.078 84.6133 691.664 86.48 688.411 88.08ZM711.051 123.68H728.331C730.358 123.68 731.691 123.36 732.331 122.72C733.024 122.08 733.371 120.987 733.371 119.44C733.371 117.893 733.024 116.8 732.331 116.16C731.691 115.52 730.358 115.2 728.331 115.2H711.051C708.971 115.2 707.611 115.52 706.971 116.16C706.331 116.8 706.011 117.893 706.011 119.44C706.011 120.987 706.331 122.08 706.971 122.72C707.611 123.36 708.971 123.68 711.051 123.68Z" fill="#007440"/>
</svg>
