<svg width="369" height="443" viewBox="0 0 369 443" fill="none" xmlns="http://www.w3.org/2000/svg">
<path d="M173 135L179.064 440.895C179.232 442.084 180.248 443 181.49 443C182.733 443 183.758 442.084 183.916 440.895L183.936 440.72C183.936 440.671 183.955 440.622 183.955 440.564C183.955 440.564 183.955 440.564 183.955 440.554L190 135H173Z" fill="#4B9E81"/>
<rect x="3.5" y="3.5" width="362" height="139" rx="29.5" fill="white"/>
<rect x="3.5" y="3.5" width="362" height="139" rx="29.5" stroke="#4B9E81" stroke-width="7"/>
<path d="M58.22 64.68C57.6067 64.9467 56.98 64.96 56.34 64.72C55.7 64.5067 55.2333 64.0933 54.94 63.48C54.6733 62.8667 54.6467 62.24 54.86 61.6C55.1 60.9333 55.5267 60.4667 56.14 60.2C59.1533 58.7867 61.38 56.88 62.82 54.48C64.26 52.08 65.02 48.9867 65.1 45.2H59.02C59.0467 46.2667 59.06 47.28 59.06 48.24C59.06 49.2 59.0333 50.0667 58.98 50.84C58.9533 51.5333 58.6867 52.1067 58.18 52.56C57.6733 52.9867 57.0733 53.1867 56.38 53.16C55.7133 53.1067 55.1667 52.8267 54.74 52.32C54.3133 51.7867 54.1133 51.1867 54.14 50.52C54.1933 49.8 54.22 48.9867 54.22 48.08C54.22 47.1467 54.2067 46.1867 54.18 45.2H45.98C45.3133 45.2 44.74 44.9733 44.26 44.52C43.8067 44.0667 43.58 43.5067 43.58 42.84C43.58 42.1733 43.8067 41.6133 44.26 41.16C44.74 40.68 45.3133 40.44 45.98 40.44H54.02C53.9667 39.5067 53.9 38.6267 53.82 37.8C53.7667 36.9467 53.6867 36.2 53.58 35.56C53.4733 34.8933 53.6067 34.2933 53.98 33.76C54.38 33.2 54.9133 32.8667 55.58 32.76C56.2733 32.6267 56.8867 32.76 57.42 33.16C57.98 33.56 58.3 34.0933 58.38 34.76C58.4867 35.5067 58.58 36.3733 58.66 37.36C58.74 38.32 58.8067 39.3467 58.86 40.44H65.06C65.0333 39.2933 64.9933 38.1867 64.94 37.12C64.9133 36.0267 64.86 35.08 64.78 34.28C64.7267 33.5867 64.9133 32.9867 65.34 32.48C65.7933 31.9467 66.3533 31.6533 67.02 31.6C67.7133 31.5467 68.3133 31.7467 68.82 32.2C69.3533 32.6267 69.6333 33.1867 69.66 33.88C69.74 34.7067 69.7933 35.7067 69.82 36.88C69.8733 38.0267 69.9133 39.2133 69.94 40.44H77.54C78.2067 40.44 78.7667 40.68 79.22 41.16C79.7 41.6133 79.94 42.1733 79.94 42.84C79.94 43.5067 79.7 44.0667 79.22 44.52C78.7667 44.9733 78.2067 45.2 77.54 45.2H69.94C69.86 49.9467 68.8333 53.96 66.86 57.24C64.8867 60.4933 62.0067 62.9733 58.22 64.68ZM89.78 64.28C89.2733 63.8267 89.0067 63.2667 88.98 62.6C88.9533 61.9067 89.1667 61.3067 89.62 60.8C91.7 58.56 93.4733 56.04 94.94 53.24C96.4333 50.4133 97.5933 47.36 98.42 44.08C96.9267 44.16 95.5267 44.24 94.22 44.32C92.94 44.3733 92.1 44.4133 91.7 44.44C91.0333 44.4667 90.4467 44.2533 89.94 43.8C89.4333 43.32 89.1667 42.7467 89.14 42.08C89.1133 41.3867 89.3267 40.7867 89.78 40.28C90.2333 39.7733 90.8067 39.5067 91.5 39.48C91.7933 39.4533 92.3533 39.4267 93.18 39.4C94.0067 39.3733 94.9667 39.3467 96.06 39.32C97.18 39.2667 98.3 39.2133 99.42 39.16C99.74 37.16 99.94 35.0933 100.02 32.96C100.047 32.2667 100.313 31.6933 100.82 31.24C101.327 30.76 101.913 30.5467 102.58 30.6C103.273 30.6267 103.847 30.8933 104.3 31.4C104.78 31.88 104.993 32.4667 104.94 33.16C104.913 34.1467 104.847 35.12 104.74 36.08C104.633 37.04 104.513 38.0133 104.38 39L105.54 38.92C108.447 38.8133 110.687 39.1733 112.26 40C113.833 40.8267 114.847 42.2 115.3 44.12C115.753 46.04 115.727 48.6133 115.22 51.84C114.793 54.56 114.18 56.7733 113.38 58.48C112.607 60.1867 111.66 61.48 110.54 62.36C109.447 63.2133 108.207 63.7333 106.82 63.92C105.433 64.1333 103.927 64.1067 102.3 63.84C101.633 63.7333 101.1 63.4 100.7 62.84C100.3 62.28 100.153 61.6667 100.26 61C100.393 60.3067 100.74 59.7733 101.3 59.4C101.86 59 102.473 58.8667 103.14 59C104.02 59.16 104.82 59.2 105.54 59.12C106.26 59.04 106.913 58.7467 107.5 58.24C108.113 57.7333 108.647 56.9067 109.1 55.76C109.58 54.5867 109.993 52.9867 110.34 50.96C110.713 48.8533 110.82 47.28 110.66 46.24C110.5 45.1733 110.02 44.4667 109.22 44.12C108.447 43.7733 107.273 43.6267 105.7 43.68C105.3 43.68 104.54 43.72 103.42 43.8C102.46 47.8267 101.1 51.6 99.34 55.12C97.58 58.64 95.5533 61.6533 93.26 64.16C92.8067 64.6667 92.2333 64.92 91.54 64.92C90.8733 64.9467 90.2867 64.7333 89.78 64.28ZM133.5 64.72C132.86 64.9867 132.22 65 131.58 64.76C130.967 64.52 130.513 64.08 130.22 63.44C129.953 62.8267 129.94 62.2 130.18 61.56C130.447 60.92 130.887 60.4667 131.5 60.2C136.993 57.8267 141.513 54.8133 145.06 51.16C144.473 50.5733 143.913 50.04 143.38 49.56C142.847 49.08 142.393 48.6933 142.02 48.4C141.513 47.9467 141.207 47.3867 141.1 46.72C141.02 46.0533 141.193 45.4667 141.62 44.96C142.073 44.4267 142.633 44.12 143.3 44.04C143.993 43.96 144.593 44.1467 145.1 44.6C145.553 44.9467 146.033 45.36 146.54 45.84C147.073 46.2933 147.633 46.7867 148.22 47.32C148.7 46.6267 149.153 45.92 149.58 45.2C150.007 44.48 150.407 43.7467 150.78 43C151.207 42.12 151.287 41.4667 151.02 41.04C150.78 40.5867 150.14 40.36 149.1 40.36H143.66C142.327 42.1467 140.833 43.8667 139.18 45.52C137.527 47.1467 135.953 48.5067 134.46 49.6C133.9 50 133.273 50.1467 132.58 50.04C131.913 49.9067 131.393 49.56 131.02 49C130.62 48.44 130.473 47.8267 130.58 47.16C130.713 46.4933 131.06 45.96 131.62 45.56C133.167 44.44 134.647 43.1733 136.06 41.76C137.5 40.3467 138.793 38.8667 139.94 37.32C141.087 35.7467 142.007 34.2267 142.7 32.76C142.993 32.1467 143.447 31.72 144.06 31.48C144.7 31.2133 145.327 31.2133 145.94 31.48C146.553 31.7467 146.98 32.2133 147.22 32.88C147.487 33.52 147.473 34.1467 147.18 34.76C147.127 34.8933 147.06 35.04 146.98 35.2C146.927 35.3333 146.86 35.4667 146.78 35.6H149.86C151.913 35.6 153.487 35.9867 154.58 36.76C155.7 37.5333 156.327 38.6133 156.46 40C156.593 41.36 156.22 42.92 155.34 44.68C154.353 46.76 153.127 48.7467 151.66 50.64C152.273 51.2267 152.833 51.7867 153.34 52.32C153.847 52.8533 154.273 53.3333 154.62 53.76C155.073 54.2933 155.26 54.9067 155.18 55.6C155.1 56.2933 154.78 56.8667 154.22 57.32C153.687 57.7467 153.073 57.92 152.38 57.84C151.713 57.7333 151.153 57.4267 150.7 56.92C150.433 56.6 150.1 56.2267 149.7 55.8C149.3 55.3733 148.873 54.9333 148.42 54.48C144.26 58.8 139.287 62.2133 133.5 64.72ZM186.5 64.76C185.833 64.76 185.26 64.5067 184.78 64C184.3 63.52 184.06 62.9467 184.06 62.28V46.28C182.353 47.7733 180.593 49.2133 178.78 50.6C176.967 51.9867 175.153 53.2533 173.34 54.4C172.753 54.7467 172.127 54.84 171.46 54.68C170.82 54.52 170.313 54.1467 169.94 53.56C169.593 52.9733 169.5 52.3467 169.66 51.68C169.82 51.0133 170.193 50.5067 170.78 50.16C172.46 49.12 174.207 47.9067 176.02 46.52C177.86 45.1333 179.647 43.6533 181.38 42.08C183.14 40.5067 184.753 38.9333 186.22 37.36C187.713 35.76 188.953 34.2533 189.94 32.84C190.34 32.28 190.873 31.9333 191.54 31.8C192.207 31.6667 192.82 31.8 193.38 32.2C193.94 32.5733 194.287 33.1067 194.42 33.8C194.553 34.4667 194.42 35.08 194.02 35.64C192.633 37.5067 190.953 39.4667 188.98 41.52V62.28C188.98 62.9467 188.74 63.52 188.26 64C187.78 64.5067 187.193 64.76 186.5 64.76ZM215.78 61.44C215.14 61.68 214.5 61.6533 213.86 61.36C213.247 61.0667 212.82 60.6 212.58 59.96C212.34 59.32 212.367 58.6933 212.66 58.08C212.953 57.44 213.42 57 214.06 56.76C216.193 56.0133 218.34 55.0933 220.5 54C222.687 52.9067 224.767 51.72 226.74 50.44C228.74 49.1333 230.553 47.8 232.18 46.44C233.833 45.0533 235.18 43.72 236.22 42.44C236.673 41.9067 237.233 41.6 237.9 41.52C238.593 41.44 239.193 41.6267 239.7 42.08C240.233 42.5067 240.54 43.0667 240.62 43.76C240.7 44.4267 240.513 45.0267 240.06 45.56C238.967 46.8933 237.513 48.32 235.7 49.84C233.887 51.3333 231.86 52.8133 229.62 54.28C227.38 55.7467 225.073 57.1067 222.7 58.36C220.327 59.6133 218.02 60.64 215.78 61.44ZM219.22 45.68C218.207 44.8267 217.073 43.9467 215.82 43.04C214.567 42.1067 213.433 41.3467 212.42 40.76C211.833 40.3867 211.46 39.88 211.3 39.24C211.14 38.5733 211.233 37.9467 211.58 37.36C211.953 36.7733 212.46 36.4 213.1 36.24C213.767 36.0533 214.393 36.1467 214.98 36.52C215.7 36.9733 216.513 37.5333 217.42 38.2C218.353 38.84 219.247 39.48 220.1 40.12C220.98 40.76 221.7 41.3067 222.26 41.76C222.793 42.1867 223.1 42.7467 223.18 43.44C223.287 44.1067 223.127 44.7067 222.7 45.24C222.273 45.7733 221.713 46.0933 221.02 46.2C220.353 46.28 219.753 46.1067 219.22 45.68ZM256.42 64.36C255.78 64.6267 255.14 64.6267 254.5 64.36C253.887 64.12 253.433 63.6933 253.14 63.08C252.873 62.4667 252.86 61.84 253.1 61.2C253.367 60.56 253.807 60.1067 254.42 59.84C258.847 57.8933 262.673 55.48 265.9 52.6C269.127 49.72 271.673 46.44 273.54 42.76C273.993 41.9067 274.073 41.2667 273.78 40.84C273.513 40.4133 272.833 40.2 271.74 40.2H266.42C265.14 41.9067 263.713 43.5733 262.14 45.2C260.567 46.8 258.927 48.1867 257.22 49.36C256.687 49.76 256.073 49.9067 255.38 49.8C254.713 49.6667 254.18 49.32 253.78 48.76C253.407 48.2 253.273 47.5867 253.38 46.92C253.513 46.2267 253.86 45.6933 254.42 45.32C255.913 44.3067 257.367 43.0933 258.78 41.68C260.193 40.2667 261.473 38.7867 262.62 37.24C263.793 35.6667 264.713 34.1333 265.38 32.64C265.647 32.0267 266.1 31.6 266.74 31.36C267.38 31.0933 268.007 31.1067 268.62 31.4C269.233 31.6667 269.66 32.12 269.9 32.76C270.167 33.4 270.153 34.0267 269.86 34.64C269.753 34.9067 269.62 35.1733 269.46 35.44H272.22C275.393 35.44 277.5 36.2533 278.54 37.88C279.607 39.5067 279.473 41.7067 278.14 44.48C276.78 47.3067 274.993 49.9867 272.78 52.52C270.593 55.0533 268.113 57.3333 265.34 59.36C262.567 61.36 259.593 63.0267 256.42 64.36ZM294.3 62.2C293.713 62.4933 293.087 62.5333 292.42 62.32C291.78 62.08 291.313 61.6533 291.02 61.04C290.727 60.4267 290.687 59.8 290.9 59.16C291.14 58.52 291.553 58.0533 292.14 57.76C295.953 55.92 299.34 53.7067 302.3 51.12C305.287 48.5067 307.713 45.68 309.58 42.64C310.753 40.72 310.113 39.76 307.66 39.76H296.74C296.073 39.76 295.5 39.52 295.02 39.04C294.54 38.5333 294.3 37.9467 294.3 37.28C294.3 36.5867 294.54 36 295.02 35.52C295.5 35.04 296.073 34.8 296.74 34.8H307.82C310.22 34.8 312.06 35.24 313.34 36.12C314.62 36.9733 315.313 38.1467 315.42 39.64C315.553 41.1333 315.06 42.8533 313.94 44.8C313.353 45.8667 312.647 46.9333 311.82 48C313.047 49.0133 314.3 50.1333 315.58 51.36C316.887 52.56 318.1 53.7333 319.22 54.88C320.367 56 321.327 56.96 322.1 57.76C322.553 58.24 322.78 58.8267 322.78 59.52C322.78 60.2133 322.527 60.8 322.02 61.28C321.54 61.76 320.953 62 320.26 62C319.567 61.9733 318.98 61.72 318.5 61.24C317.78 60.4933 316.873 59.56 315.78 58.44C314.687 57.2933 313.527 56.12 312.3 54.92C311.073 53.6933 309.887 52.5867 308.74 51.6C306.713 53.7067 304.447 55.6933 301.94 57.56C299.46 59.4 296.913 60.9467 294.3 62.2ZM141.754 109.436C141.367 109.513 141.019 109.446 140.71 109.233C140.401 109.04 140.217 108.759 140.159 108.392C140.12 108.218 140.082 108.025 140.043 107.812C140.004 107.619 139.956 107.406 139.898 107.174C139.299 107.271 138.593 107.377 137.781 107.493C136.988 107.609 136.215 107.715 135.461 107.812C134.707 107.928 134.079 108.025 133.576 108.102C133.093 108.179 132.687 108.102 132.358 107.87C132.029 107.638 131.826 107.29 131.749 106.826C131.71 106.439 131.817 106.091 132.068 105.782C132.339 105.453 132.696 105.27 133.141 105.231L133.576 105.202C133.963 104.622 134.417 103.916 134.939 103.085C135.48 102.254 136.022 101.393 136.563 100.504C136.215 100.175 135.799 99.8177 135.316 99.431C134.833 99.025 134.359 98.6383 133.895 98.271C133.45 97.8843 133.083 97.5847 132.793 97.372C132.484 97.1013 132.319 96.7727 132.3 96.386C132.281 95.9993 132.397 95.6513 132.648 95.342C132.919 95.0133 133.257 94.8297 133.663 94.791C134.088 94.7523 134.465 94.8683 134.794 95.139L134.852 95.197C135.123 94.733 135.413 94.211 135.722 93.631C136.051 93.051 136.35 92.5097 136.621 92.007C136.911 91.485 137.114 91.0983 137.23 90.847C137.269 90.789 137.298 90.731 137.317 90.673C137.356 90.615 137.394 90.5667 137.433 90.528H134.736C134.33 90.528 133.982 90.3927 133.692 90.122C133.402 89.832 133.257 89.484 133.257 89.078C133.257 88.672 133.402 88.324 133.692 88.034C133.982 87.744 134.33 87.599 134.736 87.599H138.68C138.641 87.5603 138.603 87.5217 138.564 87.483C138.525 87.425 138.487 87.367 138.448 87.309C138.371 87.1543 138.245 86.932 138.071 86.642C137.897 86.3327 137.713 86.0233 137.52 85.714C137.346 85.4047 137.201 85.163 137.085 84.989C136.853 84.641 136.795 84.264 136.911 83.858C137.046 83.4327 137.298 83.1233 137.665 82.93C138.09 82.698 138.496 82.6303 138.883 82.727C139.289 82.8237 139.618 83.0653 139.869 83.452C139.966 83.6067 140.111 83.858 140.304 84.206C140.517 84.5347 140.72 84.8633 140.913 85.192C141.126 85.5013 141.261 85.714 141.319 85.83C141.493 86.1393 141.551 86.4583 141.493 86.787C141.454 87.0963 141.329 87.367 141.116 87.599H143.958C144.113 87.251 144.306 86.8063 144.538 86.265C144.789 85.7237 145.021 85.192 145.234 84.67C145.447 84.148 145.601 83.7613 145.698 83.51C145.872 83.0653 146.172 82.7657 146.597 82.611C147.022 82.4563 147.448 82.466 147.873 82.64C148.318 82.8333 148.608 83.133 148.743 83.539C148.898 83.9257 148.888 84.322 148.714 84.728C148.579 85.0373 148.366 85.4723 148.076 86.033C147.805 86.5743 147.535 87.0963 147.264 87.599H151.788C152.194 87.599 152.532 87.744 152.803 88.034C153.093 88.324 153.238 88.672 153.238 89.078C153.238 89.484 153.093 89.832 152.803 90.122C152.532 90.3927 152.194 90.528 151.788 90.528H148.076C148.443 90.702 148.704 90.9727 148.859 91.34C149.014 91.7073 148.994 92.0747 148.801 92.442C148.646 92.7707 148.424 93.2057 148.134 93.747C147.844 94.269 147.544 94.82 147.235 95.4C146.926 95.9607 146.636 96.4633 146.365 96.908C146.578 97.1013 146.79 97.285 147.003 97.459C147.216 97.6137 147.419 97.7683 147.612 97.923C147.979 97.227 148.318 96.5697 148.627 95.951C148.936 95.313 149.188 94.7523 149.381 94.269C149.536 93.9017 149.797 93.66 150.164 93.544C150.551 93.4087 150.928 93.4183 151.295 93.573C151.682 93.7277 151.933 93.9983 152.049 94.385C152.184 94.7717 152.165 95.1487 151.991 95.516C151.624 96.2893 151.15 97.2077 150.57 98.271C149.99 99.3343 149.391 100.427 148.772 101.548C148.173 102.65 147.612 103.646 147.09 104.535L149.613 104.216C149.536 103.965 149.458 103.733 149.381 103.52C149.304 103.288 149.226 103.085 149.149 102.911C149.014 102.563 149.023 102.215 149.178 101.867C149.352 101.519 149.623 101.287 149.99 101.171C150.357 101.036 150.705 101.045 151.034 101.2C151.382 101.335 151.624 101.577 151.759 101.925C151.933 102.37 152.136 102.921 152.368 103.578C152.6 104.235 152.822 104.902 153.035 105.579C153.267 106.236 153.451 106.807 153.586 107.29C153.683 107.677 153.634 108.025 153.441 108.334C153.248 108.663 152.958 108.875 152.571 108.972C152.184 109.088 151.817 109.059 151.469 108.885C151.121 108.711 150.899 108.431 150.802 108.044C150.744 107.87 150.686 107.667 150.628 107.435C150.57 107.222 150.502 107 150.425 106.768C149.826 106.865 149.12 106.981 148.308 107.116C147.515 107.251 146.742 107.377 145.988 107.493C145.234 107.628 144.615 107.735 144.132 107.812C143.629 107.87 143.214 107.793 142.885 107.58L142.943 107.841C143.04 108.228 142.962 108.566 142.711 108.856C142.46 109.165 142.141 109.359 141.754 109.436ZM127.544 108.247C127.157 108.034 126.906 107.725 126.79 107.319C126.693 106.932 126.751 106.555 126.964 106.188C127.293 105.569 127.67 104.815 128.095 103.926C128.52 103.037 128.936 102.138 129.342 101.229C129.748 100.32 130.067 99.547 130.299 98.909C130.473 98.4643 130.753 98.1647 131.14 98.01C131.527 97.8553 131.923 97.865 132.329 98.039C133.16 98.4257 133.412 99.0927 133.083 100.04C132.87 100.717 132.561 101.519 132.155 102.447C131.768 103.375 131.362 104.293 130.937 105.202C130.531 106.111 130.164 106.884 129.835 107.522C129.622 107.928 129.294 108.208 128.849 108.363C128.424 108.518 127.989 108.479 127.544 108.247ZM142.45 105.666C142.701 105.241 143.088 104.999 143.61 104.941L143.813 104.912C144.142 104.351 144.509 103.704 144.915 102.969C145.321 102.234 145.737 101.471 146.162 100.678C145.814 100.369 145.379 100.021 144.857 99.634C144.354 99.228 143.852 98.8317 143.349 98.445C142.866 98.0583 142.469 97.7587 142.16 97.546C142.044 97.4493 141.938 97.343 141.841 97.227C141.396 97.981 140.894 98.8123 140.333 99.721C139.772 100.61 139.202 101.5 138.622 102.389C138.061 103.278 137.53 104.1 137.027 104.854L139.289 104.593C139.231 104.322 139.163 104.081 139.086 103.868C139.028 103.636 138.98 103.423 138.941 103.23C138.825 102.863 138.864 102.515 139.057 102.186C139.25 101.857 139.531 101.645 139.898 101.548C140.285 101.451 140.642 101.49 140.971 101.664C141.3 101.838 141.512 102.109 141.609 102.476C141.744 102.863 141.88 103.346 142.015 103.926C142.17 104.506 142.315 105.086 142.45 105.666ZM138.158 97.894C138.545 97.2753 138.893 96.6953 139.202 96.154C139.511 95.5933 139.772 95.11 139.985 94.704C140.198 94.3367 140.488 94.1047 140.855 94.008C141.242 93.9113 141.609 93.9597 141.957 94.153C142.266 94.327 142.489 94.588 142.624 94.936C142.856 94.8587 143.098 94.8393 143.349 94.878C143.62 94.9167 143.861 95.0133 144.074 95.168C144.306 94.7427 144.548 94.2787 144.799 93.776C145.07 93.2733 145.311 92.7997 145.524 92.355C145.737 91.891 145.901 91.5333 146.017 91.282C146.172 90.934 146.423 90.6827 146.771 90.528H139.637C140.12 91.0113 140.207 91.5527 139.898 92.152C139.724 92.5 139.463 92.964 139.115 93.544C138.786 94.124 138.429 94.7233 138.042 95.342C137.675 95.9413 137.346 96.4827 137.056 96.966C137.249 97.1207 137.443 97.2753 137.636 97.43C137.829 97.5847 138.003 97.7393 138.158 97.894ZM130.27 94.762C130.077 94.6267 129.796 94.443 129.429 94.211C129.062 93.979 128.694 93.747 128.327 93.515C127.96 93.283 127.66 93.0993 127.428 92.964C127.061 92.7513 126.829 92.4517 126.732 92.065C126.635 91.6783 126.693 91.3013 126.906 90.934C127.119 90.5473 127.418 90.296 127.805 90.18C128.211 90.064 128.627 90.1317 129.052 90.383C129.284 90.499 129.584 90.673 129.951 90.905C130.338 91.137 130.715 91.369 131.082 91.601C131.469 91.833 131.768 92.0167 131.981 92.152C132.368 92.384 132.609 92.7127 132.706 93.138C132.803 93.5633 132.716 93.9693 132.445 94.356C132.213 94.7233 131.884 94.9457 131.459 95.023C131.034 95.1003 130.637 95.0133 130.27 94.762ZM131.314 88.266C131.121 88.1113 130.84 87.9277 130.473 87.715C130.125 87.483 129.767 87.251 129.4 87.019C129.033 86.787 128.733 86.6033 128.501 86.468C128.153 86.2553 127.931 85.9557 127.834 85.569C127.737 85.1823 127.786 84.8053 127.979 84.438C128.192 84.0513 128.501 83.8097 128.907 83.713C129.313 83.597 129.729 83.655 130.154 83.887C130.386 84.003 130.676 84.177 131.024 84.409C131.391 84.641 131.759 84.873 132.126 85.105C132.493 85.3177 132.783 85.4917 132.996 85.627C133.383 85.8783 133.624 86.2167 133.721 86.642C133.818 87.048 133.731 87.4443 133.46 87.831C133.228 88.1983 132.899 88.4207 132.474 88.498C132.049 88.5753 131.662 88.498 131.314 88.266ZM160.024 109.407C159.521 109.542 159.077 109.542 158.69 109.407C158.303 109.291 158.033 109.011 157.878 108.566C157.762 108.179 157.791 107.783 157.965 107.377C158.139 106.99 158.439 106.749 158.864 106.652C159.367 106.536 159.927 106.381 160.546 106.188C161.184 105.975 161.832 105.743 162.489 105.492C163.166 105.241 163.775 104.989 164.316 104.738C163.098 104.545 162.228 104.129 161.706 103.491C161.184 102.834 160.923 101.857 160.923 100.562V97.14C160.923 95.5353 161.329 94.4237 162.141 93.805C162.953 93.167 164.345 92.848 166.317 92.848H173.19C175.181 92.848 176.583 93.167 177.395 93.805C178.207 94.4237 178.613 95.5353 178.613 97.14V100.562C178.613 101.877 178.342 102.863 177.801 103.52C177.279 104.158 176.39 104.564 175.133 104.738C175.964 105.125 176.892 105.502 177.917 105.869C178.942 106.236 179.821 106.497 180.556 106.652C181.001 106.749 181.3 106.99 181.455 107.377C181.629 107.783 181.658 108.179 181.542 108.566C181.387 109.011 181.117 109.291 180.73 109.407C180.343 109.542 179.899 109.542 179.396 109.407C178.777 109.233 178.062 108.991 177.25 108.682C176.457 108.392 175.674 108.083 174.901 107.754C174.128 107.425 173.47 107.116 172.929 106.826C172.562 106.613 172.339 106.333 172.262 105.985C172.185 105.618 172.233 105.27 172.407 104.941C172.426 104.922 172.436 104.912 172.436 104.912C172.436 104.893 172.446 104.873 172.465 104.854H166.955C166.994 104.893 167.013 104.922 167.013 104.941C167.187 105.27 167.235 105.618 167.158 105.985C167.1 106.333 166.878 106.613 166.491 106.826C165.95 107.116 165.292 107.425 164.519 107.754C163.746 108.083 162.963 108.392 162.17 108.682C161.377 108.991 160.662 109.233 160.024 109.407ZM159.154 93.979C158.767 94.2303 158.332 94.3463 157.849 94.327C157.366 94.3077 156.989 94.095 156.718 93.689C156.505 93.3603 156.438 92.993 156.515 92.587C156.592 92.1617 156.805 91.8523 157.153 91.659C158.178 91.0983 159.009 90.4603 159.647 89.745C160.285 89.0297 160.788 88.179 161.155 87.193H158.11C157.723 87.193 157.414 87.077 157.182 86.845C156.95 86.5937 156.834 86.294 156.834 85.946C156.834 85.5787 156.95 85.2693 157.182 85.018C157.414 84.7667 157.723 84.641 158.11 84.641H161.735C161.774 84.4863 161.793 84.322 161.793 84.148C161.812 83.9547 161.832 83.771 161.851 83.597C161.89 83.0943 162.083 82.7367 162.431 82.524C162.779 82.3113 163.175 82.2243 163.62 82.263C164.026 82.3017 164.364 82.466 164.635 82.756C164.906 83.046 165.022 83.4327 164.983 83.916C164.964 84.0513 164.944 84.177 164.925 84.293C164.925 84.409 164.915 84.525 164.896 84.641H166.723C167.883 84.641 168.734 84.931 169.275 85.511C169.836 86.0717 170.039 86.9803 169.884 88.237C169.749 89.3583 169.507 90.2187 169.159 90.818C168.83 91.4173 168.357 91.833 167.738 92.065C167.139 92.297 166.356 92.413 165.389 92.413C164.983 92.413 164.635 92.297 164.345 92.065C164.074 91.8137 163.92 91.4753 163.881 91.05C163.862 90.6633 163.968 90.3347 164.2 90.064C164.432 89.774 164.732 89.6193 165.099 89.6C165.737 89.5613 166.143 89.4743 166.317 89.339C166.51 89.2037 166.655 88.8653 166.752 88.324C166.829 87.8987 166.81 87.6087 166.694 87.454C166.578 87.28 166.269 87.193 165.766 87.193H164.287C163.804 88.701 163.127 90.0253 162.257 91.166C161.387 92.2873 160.353 93.225 159.154 93.979ZM175.829 91.775C174.766 91.775 173.905 91.6687 173.248 91.456C172.61 91.224 172.146 90.8277 171.856 90.267C171.585 89.687 171.45 88.8653 171.45 87.802C171.45 86.7193 171.585 85.8977 171.856 85.337C172.146 84.757 172.61 84.3607 173.248 84.148C173.905 83.916 174.766 83.8 175.829 83.8H177.511C178.594 83.8 179.454 83.916 180.092 84.148C180.73 84.3607 181.184 84.757 181.455 85.337C181.745 85.8977 181.89 86.7193 181.89 87.802C181.89 88.8653 181.745 89.687 181.455 90.267C181.184 90.8277 180.73 91.224 180.092 91.456C179.454 91.6687 178.594 91.775 177.511 91.775H175.829ZM164.374 99.402H175.133V98.242H164.374V99.402ZM175.974 89.223H177.366C178.023 89.223 178.449 89.136 178.642 88.962C178.835 88.7687 178.932 88.382 178.932 87.802C178.932 87.2027 178.835 86.816 178.642 86.642C178.449 86.4487 178.023 86.352 177.366 86.352H175.974C175.317 86.352 174.891 86.4487 174.698 86.642C174.505 86.816 174.408 87.2027 174.408 87.802C174.408 88.382 174.505 88.7687 174.698 88.962C174.891 89.136 175.317 89.223 175.974 89.223ZM166.375 102.505H173.161C173.857 102.505 174.34 102.428 174.611 102.273C174.882 102.118 175.046 101.809 175.104 101.345H164.432C164.471 101.809 164.625 102.118 164.896 102.273C165.186 102.428 165.679 102.505 166.375 102.505ZM164.432 96.299H175.104C175.027 95.8737 174.853 95.5933 174.582 95.458C174.311 95.3033 173.838 95.226 173.161 95.226H166.375C165.698 95.226 165.215 95.3033 164.925 95.458C164.654 95.5933 164.49 95.8737 164.432 96.299ZM187.632 106.884C187.168 106.884 186.772 106.72 186.443 106.391C186.114 106.062 185.95 105.666 185.95 105.202C185.95 104.738 186.114 104.351 186.443 104.042C186.772 103.713 187.168 103.549 187.632 103.549H197.405V89.107H189.43C188.966 89.107 188.57 88.9523 188.241 88.643C187.912 88.3143 187.748 87.918 187.748 87.454C187.748 86.99 187.912 86.5937 188.241 86.265C188.57 85.9363 188.966 85.772 189.43 85.772H209.15C209.614 85.772 210.01 85.9363 210.339 86.265C210.668 86.5937 210.832 86.99 210.832 87.454C210.832 87.918 210.668 88.3143 210.339 88.643C210.01 88.9523 209.614 89.107 209.15 89.107H201.175V103.549H210.977C211.441 103.549 211.828 103.713 212.137 104.042C212.466 104.351 212.63 104.738 212.63 105.202C212.63 105.666 212.466 106.062 212.137 106.391C211.828 106.72 211.441 106.884 210.977 106.884H187.632ZM235.946 109.262C235.463 109.262 235.057 109.146 234.728 108.914C234.419 108.701 234.235 108.353 234.177 107.87C234.138 107.425 234.254 107.039 234.525 106.71C234.815 106.381 235.173 106.207 235.598 106.188C236.236 106.149 236.671 106.062 236.903 105.927C237.154 105.792 237.348 105.492 237.483 105.028C237.599 104.661 237.715 104.197 237.831 103.636C237.947 103.075 238.044 102.495 238.121 101.896C238.198 101.393 238.179 101.026 238.063 100.794C237.947 100.562 237.715 100.407 237.367 100.33C236.922 101.413 236.333 102.495 235.598 103.578C234.883 104.661 234.08 105.676 233.191 106.623C232.321 107.551 231.422 108.344 230.494 109.001C230.165 109.233 229.788 109.349 229.363 109.349C228.938 109.349 228.59 109.194 228.319 108.885C228.068 108.614 227.942 108.295 227.942 107.928C227.961 107.561 228.116 107.271 228.406 107.058C229.721 106.053 230.9 104.97 231.944 103.81C232.988 102.65 233.829 101.471 234.467 100.272H233.162C232.621 101.258 231.925 102.234 231.074 103.201C230.223 104.148 229.305 105.028 228.319 105.84C227.333 106.652 226.357 107.309 225.39 107.812C225.023 108.005 224.636 108.054 224.23 107.957C223.843 107.88 223.544 107.657 223.331 107.29C223.157 106.981 223.118 106.652 223.215 106.304C223.312 105.937 223.515 105.666 223.824 105.492C225.023 104.873 226.192 104.09 227.333 103.143C228.474 102.196 229.411 101.239 230.146 100.272H228.58C228.019 100.91 227.42 101.519 226.782 102.099C226.163 102.66 225.535 103.182 224.897 103.665C224.568 103.897 224.191 104.003 223.766 103.984C223.341 103.965 223.002 103.8 222.751 103.491C222.538 103.201 222.442 102.872 222.461 102.505C222.5 102.118 222.674 101.828 222.983 101.635C223.331 101.384 223.679 101.113 224.027 100.823C224.394 100.514 224.752 100.204 225.1 99.895C225.042 99.9337 224.984 99.9723 224.926 100.011C224.868 100.05 224.8 100.088 224.723 100.127C224.124 100.398 223.389 100.717 222.519 101.084C221.649 101.432 220.769 101.77 219.88 102.099C218.991 102.428 218.227 102.698 217.589 102.911C217.106 103.085 216.661 103.056 216.255 102.824C215.868 102.592 215.607 102.263 215.472 101.838C215.337 101.393 215.366 100.987 215.559 100.62C215.752 100.233 216.091 99.9723 216.574 99.837C217.251 99.663 218.034 99.4407 218.923 99.17V91.833H216.806C216.342 91.833 215.975 91.688 215.704 91.398C215.433 91.108 215.298 90.76 215.298 90.354C215.298 89.9287 215.433 89.571 215.704 89.281C215.975 88.991 216.342 88.846 216.806 88.846H218.923V84.38C218.923 83.8773 219.078 83.4907 219.387 83.22C219.696 82.93 220.083 82.785 220.547 82.785C221.011 82.785 221.398 82.93 221.707 83.22C222.016 83.4907 222.171 83.8773 222.171 84.38V88.846H224.085C224.53 88.846 224.887 88.991 225.158 89.281C225.429 89.571 225.564 89.9287 225.564 90.354C225.564 90.76 225.429 91.108 225.158 91.398C224.887 91.688 224.53 91.833 224.085 91.833H222.171V98.068C222.461 97.952 222.741 97.8457 223.012 97.749C223.283 97.633 223.544 97.5267 223.795 97.43C224.162 97.2753 224.52 97.2753 224.868 97.43C225.235 97.5847 225.477 97.8457 225.593 98.213C225.767 98.793 225.699 99.2667 225.39 99.634C226.434 98.6287 227.333 97.6233 228.087 96.618H225.506C225.139 96.618 224.839 96.4923 224.607 96.241C224.394 95.9703 224.288 95.661 224.288 95.313C224.288 94.965 224.394 94.6653 224.607 94.414C224.839 94.1433 225.139 94.008 225.506 94.008H241.224C241.611 94.008 241.91 94.1433 242.123 94.414C242.355 94.6653 242.471 94.965 242.471 95.313C242.471 95.661 242.355 95.9703 242.123 96.241C241.91 96.4923 241.611 96.618 241.224 96.618H231.19C231.074 96.8113 230.958 97.0143 230.842 97.227C230.726 97.4203 230.6 97.6233 230.465 97.836H237.454C238.827 97.836 239.832 98.1357 240.47 98.735C241.108 99.3343 241.35 100.34 241.195 101.751C241.06 103.375 240.818 104.844 240.47 106.159C240.199 107.242 239.697 108.025 238.962 108.508C238.247 109.011 237.241 109.262 235.946 109.262ZM231.973 92.993C230.678 92.993 229.663 92.8577 228.928 92.587C228.193 92.297 227.671 91.804 227.362 91.108C227.072 90.3927 226.927 89.397 226.927 88.121C226.927 86.8257 227.072 85.83 227.362 85.134C227.671 84.438 228.193 83.9547 228.928 83.684C229.663 83.394 230.678 83.249 231.973 83.249H234.438C235.733 83.249 236.748 83.394 237.483 83.684C238.218 83.9547 238.74 84.438 239.049 85.134C239.358 85.83 239.513 86.8257 239.513 88.121C239.513 89.397 239.358 90.3927 239.049 91.108C238.74 91.804 238.218 92.297 237.483 92.587C236.748 92.8577 235.733 92.993 234.438 92.993H231.973ZM232.321 90.499H234.148C234.921 90.499 235.463 90.4217 235.772 90.267C236.081 90.1123 236.265 89.745 236.323 89.165H230.117C230.175 89.745 230.359 90.1123 230.668 90.267C230.997 90.4217 231.548 90.499 232.321 90.499ZM230.117 86.99H236.323C236.246 86.4293 236.052 86.0813 235.743 85.946C235.434 85.7913 234.902 85.714 234.148 85.714H232.321C231.548 85.714 231.006 85.7913 230.697 85.946C230.388 86.0813 230.194 86.4293 230.117 86.99Z" fill="#007440"/>
<rect x="9" y="9" width="351" height="128" rx="24" fill="white"/>
<rect x="9" y="9" width="351" height="128" rx="24" stroke="#007440" stroke-width="4"/>
<path d="M58.22 64.68C57.6067 64.9467 56.98 64.96 56.34 64.72C55.7 64.5067 55.2333 64.0933 54.94 63.48C54.6733 62.8667 54.6467 62.24 54.86 61.6C55.1 60.9333 55.5267 60.4667 56.14 60.2C59.1533 58.7867 61.38 56.88 62.82 54.48C64.26 52.08 65.02 48.9867 65.1 45.2H59.02C59.0467 46.2667 59.06 47.28 59.06 48.24C59.06 49.2 59.0333 50.0667 58.98 50.84C58.9533 51.5333 58.6867 52.1067 58.18 52.56C57.6733 52.9867 57.0733 53.1867 56.38 53.16C55.7133 53.1067 55.1667 52.8267 54.74 52.32C54.3133 51.7867 54.1133 51.1867 54.14 50.52C54.1933 49.8 54.22 48.9867 54.22 48.08C54.22 47.1467 54.2067 46.1867 54.18 45.2H45.98C45.3133 45.2 44.74 44.9733 44.26 44.52C43.8067 44.0667 43.58 43.5067 43.58 42.84C43.58 42.1733 43.8067 41.6133 44.26 41.16C44.74 40.68 45.3133 40.44 45.98 40.44H54.02C53.9667 39.5067 53.9 38.6267 53.82 37.8C53.7667 36.9467 53.6867 36.2 53.58 35.56C53.4733 34.8933 53.6067 34.2933 53.98 33.76C54.38 33.2 54.9133 32.8667 55.58 32.76C56.2733 32.6267 56.8867 32.76 57.42 33.16C57.98 33.56 58.3 34.0933 58.38 34.76C58.4867 35.5067 58.58 36.3733 58.66 37.36C58.74 38.32 58.8067 39.3467 58.86 40.44H65.06C65.0333 39.2933 64.9933 38.1867 64.94 37.12C64.9133 36.0267 64.86 35.08 64.78 34.28C64.7267 33.5867 64.9133 32.9867 65.34 32.48C65.7933 31.9467 66.3533 31.6533 67.02 31.6C67.7133 31.5467 68.3133 31.7467 68.82 32.2C69.3533 32.6267 69.6333 33.1867 69.66 33.88C69.74 34.7067 69.7933 35.7067 69.82 36.88C69.8733 38.0267 69.9133 39.2133 69.94 40.44H77.54C78.2067 40.44 78.7667 40.68 79.22 41.16C79.7 41.6133 79.94 42.1733 79.94 42.84C79.94 43.5067 79.7 44.0667 79.22 44.52C78.7667 44.9733 78.2067 45.2 77.54 45.2H69.94C69.86 49.9467 68.8333 53.96 66.86 57.24C64.8867 60.4933 62.0067 62.9733 58.22 64.68ZM89.78 64.28C89.2733 63.8267 89.0067 63.2667 88.98 62.6C88.9533 61.9067 89.1667 61.3067 89.62 60.8C91.7 58.56 93.4733 56.04 94.94 53.24C96.4333 50.4133 97.5933 47.36 98.42 44.08C96.9267 44.16 95.5267 44.24 94.22 44.32C92.94 44.3733 92.1 44.4133 91.7 44.44C91.0333 44.4667 90.4467 44.2533 89.94 43.8C89.4333 43.32 89.1667 42.7467 89.14 42.08C89.1133 41.3867 89.3267 40.7867 89.78 40.28C90.2333 39.7733 90.8067 39.5067 91.5 39.48C91.7933 39.4533 92.3533 39.4267 93.18 39.4C94.0067 39.3733 94.9667 39.3467 96.06 39.32C97.18 39.2667 98.3 39.2133 99.42 39.16C99.74 37.16 99.94 35.0933 100.02 32.96C100.047 32.2667 100.313 31.6933 100.82 31.24C101.327 30.76 101.913 30.5467 102.58 30.6C103.273 30.6267 103.847 30.8933 104.3 31.4C104.78 31.88 104.993 32.4667 104.94 33.16C104.913 34.1467 104.847 35.12 104.74 36.08C104.633 37.04 104.513 38.0133 104.38 39L105.54 38.92C108.447 38.8133 110.687 39.1733 112.26 40C113.833 40.8267 114.847 42.2 115.3 44.12C115.753 46.04 115.727 48.6133 115.22 51.84C114.793 54.56 114.18 56.7733 113.38 58.48C112.607 60.1867 111.66 61.48 110.54 62.36C109.447 63.2133 108.207 63.7333 106.82 63.92C105.433 64.1333 103.927 64.1067 102.3 63.84C101.633 63.7333 101.1 63.4 100.7 62.84C100.3 62.28 100.153 61.6667 100.26 61C100.393 60.3067 100.74 59.7733 101.3 59.4C101.86 59 102.473 58.8667 103.14 59C104.02 59.16 104.82 59.2 105.54 59.12C106.26 59.04 106.913 58.7467 107.5 58.24C108.113 57.7333 108.647 56.9067 109.1 55.76C109.58 54.5867 109.993 52.9867 110.34 50.96C110.713 48.8533 110.82 47.28 110.66 46.24C110.5 45.1733 110.02 44.4667 109.22 44.12C108.447 43.7733 107.273 43.6267 105.7 43.68C105.3 43.68 104.54 43.72 103.42 43.8C102.46 47.8267 101.1 51.6 99.34 55.12C97.58 58.64 95.5533 61.6533 93.26 64.16C92.8067 64.6667 92.2333 64.92 91.54 64.92C90.8733 64.9467 90.2867 64.7333 89.78 64.28ZM133.5 64.72C132.86 64.9867 132.22 65 131.58 64.76C130.967 64.52 130.513 64.08 130.22 63.44C129.953 62.8267 129.94 62.2 130.18 61.56C130.447 60.92 130.887 60.4667 131.5 60.2C136.993 57.8267 141.513 54.8133 145.06 51.16C144.473 50.5733 143.913 50.04 143.38 49.56C142.847 49.08 142.393 48.6933 142.02 48.4C141.513 47.9467 141.207 47.3867 141.1 46.72C141.02 46.0533 141.193 45.4667 141.62 44.96C142.073 44.4267 142.633 44.12 143.3 44.04C143.993 43.96 144.593 44.1467 145.1 44.6C145.553 44.9467 146.033 45.36 146.54 45.84C147.073 46.2933 147.633 46.7867 148.22 47.32C148.7 46.6267 149.153 45.92 149.58 45.2C150.007 44.48 150.407 43.7467 150.78 43C151.207 42.12 151.287 41.4667 151.02 41.04C150.78 40.5867 150.14 40.36 149.1 40.36H143.66C142.327 42.1467 140.833 43.8667 139.18 45.52C137.527 47.1467 135.953 48.5067 134.46 49.6C133.9 50 133.273 50.1467 132.58 50.04C131.913 49.9067 131.393 49.56 131.02 49C130.62 48.44 130.473 47.8267 130.58 47.16C130.713 46.4933 131.06 45.96 131.62 45.56C133.167 44.44 134.647 43.1733 136.06 41.76C137.5 40.3467 138.793 38.8667 139.94 37.32C141.087 35.7467 142.007 34.2267 142.7 32.76C142.993 32.1467 143.447 31.72 144.06 31.48C144.7 31.2133 145.327 31.2133 145.94 31.48C146.553 31.7467 146.98 32.2133 147.22 32.88C147.487 33.52 147.473 34.1467 147.18 34.76C147.127 34.8933 147.06 35.04 146.98 35.2C146.927 35.3333 146.86 35.4667 146.78 35.6H149.86C151.913 35.6 153.487 35.9867 154.58 36.76C155.7 37.5333 156.327 38.6133 156.46 40C156.593 41.36 156.22 42.92 155.34 44.68C154.353 46.76 153.127 48.7467 151.66 50.64C152.273 51.2267 152.833 51.7867 153.34 52.32C153.847 52.8533 154.273 53.3333 154.62 53.76C155.073 54.2933 155.26 54.9067 155.18 55.6C155.1 56.2933 154.78 56.8667 154.22 57.32C153.687 57.7467 153.073 57.92 152.38 57.84C151.713 57.7333 151.153 57.4267 150.7 56.92C150.433 56.6 150.1 56.2267 149.7 55.8C149.3 55.3733 148.873 54.9333 148.42 54.48C144.26 58.8 139.287 62.2133 133.5 64.72ZM186.5 64.76C185.833 64.76 185.26 64.5067 184.78 64C184.3 63.52 184.06 62.9467 184.06 62.28V46.28C182.353 47.7733 180.593 49.2133 178.78 50.6C176.967 51.9867 175.153 53.2533 173.34 54.4C172.753 54.7467 172.127 54.84 171.46 54.68C170.82 54.52 170.313 54.1467 169.94 53.56C169.593 52.9733 169.5 52.3467 169.66 51.68C169.82 51.0133 170.193 50.5067 170.78 50.16C172.46 49.12 174.207 47.9067 176.02 46.52C177.86 45.1333 179.647 43.6533 181.38 42.08C183.14 40.5067 184.753 38.9333 186.22 37.36C187.713 35.76 188.953 34.2533 189.94 32.84C190.34 32.28 190.873 31.9333 191.54 31.8C192.207 31.6667 192.82 31.8 193.38 32.2C193.94 32.5733 194.287 33.1067 194.42 33.8C194.553 34.4667 194.42 35.08 194.02 35.64C192.633 37.5067 190.953 39.4667 188.98 41.52V62.28C188.98 62.9467 188.74 63.52 188.26 64C187.78 64.5067 187.193 64.76 186.5 64.76ZM215.78 61.44C215.14 61.68 214.5 61.6533 213.86 61.36C213.247 61.0667 212.82 60.6 212.58 59.96C212.34 59.32 212.367 58.6933 212.66 58.08C212.953 57.44 213.42 57 214.06 56.76C216.193 56.0133 218.34 55.0933 220.5 54C222.687 52.9067 224.767 51.72 226.74 50.44C228.74 49.1333 230.553 47.8 232.18 46.44C233.833 45.0533 235.18 43.72 236.22 42.44C236.673 41.9067 237.233 41.6 237.9 41.52C238.593 41.44 239.193 41.6267 239.7 42.08C240.233 42.5067 240.54 43.0667 240.62 43.76C240.7 44.4267 240.513 45.0267 240.06 45.56C238.967 46.8933 237.513 48.32 235.7 49.84C233.887 51.3333 231.86 52.8133 229.62 54.28C227.38 55.7467 225.073 57.1067 222.7 58.36C220.327 59.6133 218.02 60.64 215.78 61.44ZM219.22 45.68C218.207 44.8267 217.073 43.9467 215.82 43.04C214.567 42.1067 213.433 41.3467 212.42 40.76C211.833 40.3867 211.46 39.88 211.3 39.24C211.14 38.5733 211.233 37.9467 211.58 37.36C211.953 36.7733 212.46 36.4 213.1 36.24C213.767 36.0533 214.393 36.1467 214.98 36.52C215.7 36.9733 216.513 37.5333 217.42 38.2C218.353 38.84 219.247 39.48 220.1 40.12C220.98 40.76 221.7 41.3067 222.26 41.76C222.793 42.1867 223.1 42.7467 223.18 43.44C223.287 44.1067 223.127 44.7067 222.7 45.24C222.273 45.7733 221.713 46.0933 221.02 46.2C220.353 46.28 219.753 46.1067 219.22 45.68ZM256.42 64.36C255.78 64.6267 255.14 64.6267 254.5 64.36C253.887 64.12 253.433 63.6933 253.14 63.08C252.873 62.4667 252.86 61.84 253.1 61.2C253.367 60.56 253.807 60.1067 254.42 59.84C258.847 57.8933 262.673 55.48 265.9 52.6C269.127 49.72 271.673 46.44 273.54 42.76C273.993 41.9067 274.073 41.2667 273.78 40.84C273.513 40.4133 272.833 40.2 271.74 40.2H266.42C265.14 41.9067 263.713 43.5733 262.14 45.2C260.567 46.8 258.927 48.1867 257.22 49.36C256.687 49.76 256.073 49.9067 255.38 49.8C254.713 49.6667 254.18 49.32 253.78 48.76C253.407 48.2 253.273 47.5867 253.38 46.92C253.513 46.2267 253.86 45.6933 254.42 45.32C255.913 44.3067 257.367 43.0933 258.78 41.68C260.193 40.2667 261.473 38.7867 262.62 37.24C263.793 35.6667 264.713 34.1333 265.38 32.64C265.647 32.0267 266.1 31.6 266.74 31.36C267.38 31.0933 268.007 31.1067 268.62 31.4C269.233 31.6667 269.66 32.12 269.9 32.76C270.167 33.4 270.153 34.0267 269.86 34.64C269.753 34.9067 269.62 35.1733 269.46 35.44H272.22C275.393 35.44 277.5 36.2533 278.54 37.88C279.607 39.5067 279.473 41.7067 278.14 44.48C276.78 47.3067 274.993 49.9867 272.78 52.52C270.593 55.0533 268.113 57.3333 265.34 59.36C262.567 61.36 259.593 63.0267 256.42 64.36ZM294.3 62.2C293.713 62.4933 293.087 62.5333 292.42 62.32C291.78 62.08 291.313 61.6533 291.02 61.04C290.727 60.4267 290.687 59.8 290.9 59.16C291.14 58.52 291.553 58.0533 292.14 57.76C295.953 55.92 299.34 53.7067 302.3 51.12C305.287 48.5067 307.713 45.68 309.58 42.64C310.753 40.72 310.113 39.76 307.66 39.76H296.74C296.073 39.76 295.5 39.52 295.02 39.04C294.54 38.5333 294.3 37.9467 294.3 37.28C294.3 36.5867 294.54 36 295.02 35.52C295.5 35.04 296.073 34.8 296.74 34.8H307.82C310.22 34.8 312.06 35.24 313.34 36.12C314.62 36.9733 315.313 38.1467 315.42 39.64C315.553 41.1333 315.06 42.8533 313.94 44.8C313.353 45.8667 312.647 46.9333 311.82 48C313.047 49.0133 314.3 50.1333 315.58 51.36C316.887 52.56 318.1 53.7333 319.22 54.88C320.367 56 321.327 56.96 322.1 57.76C322.553 58.24 322.78 58.8267 322.78 59.52C322.78 60.2133 322.527 60.8 322.02 61.28C321.54 61.76 320.953 62 320.26 62C319.567 61.9733 318.98 61.72 318.5 61.24C317.78 60.4933 316.873 59.56 315.78 58.44C314.687 57.2933 313.527 56.12 312.3 54.92C311.073 53.6933 309.887 52.5867 308.74 51.6C306.713 53.7067 304.447 55.6933 301.94 57.56C299.46 59.4 296.913 60.9467 294.3 62.2ZM141.754 109.436C141.367 109.513 141.019 109.446 140.71 109.233C140.401 109.04 140.217 108.759 140.159 108.392C140.12 108.218 140.082 108.025 140.043 107.812C140.004 107.619 139.956 107.406 139.898 107.174C139.299 107.271 138.593 107.377 137.781 107.493C136.988 107.609 136.215 107.715 135.461 107.812C134.707 107.928 134.079 108.025 133.576 108.102C133.093 108.179 132.687 108.102 132.358 107.87C132.029 107.638 131.826 107.29 131.749 106.826C131.71 106.439 131.817 106.091 132.068 105.782C132.339 105.453 132.696 105.27 133.141 105.231L133.576 105.202C133.963 104.622 134.417 103.916 134.939 103.085C135.48 102.254 136.022 101.393 136.563 100.504C136.215 100.175 135.799 99.8177 135.316 99.431C134.833 99.025 134.359 98.6383 133.895 98.271C133.45 97.8843 133.083 97.5847 132.793 97.372C132.484 97.1013 132.319 96.7727 132.3 96.386C132.281 95.9993 132.397 95.6513 132.648 95.342C132.919 95.0133 133.257 94.8297 133.663 94.791C134.088 94.7523 134.465 94.8683 134.794 95.139L134.852 95.197C135.123 94.733 135.413 94.211 135.722 93.631C136.051 93.051 136.35 92.5097 136.621 92.007C136.911 91.485 137.114 91.0983 137.23 90.847C137.269 90.789 137.298 90.731 137.317 90.673C137.356 90.615 137.394 90.5667 137.433 90.528H134.736C134.33 90.528 133.982 90.3927 133.692 90.122C133.402 89.832 133.257 89.484 133.257 89.078C133.257 88.672 133.402 88.324 133.692 88.034C133.982 87.744 134.33 87.599 134.736 87.599H138.68C138.641 87.5603 138.603 87.5217 138.564 87.483C138.525 87.425 138.487 87.367 138.448 87.309C138.371 87.1543 138.245 86.932 138.071 86.642C137.897 86.3327 137.713 86.0233 137.52 85.714C137.346 85.4047 137.201 85.163 137.085 84.989C136.853 84.641 136.795 84.264 136.911 83.858C137.046 83.4327 137.298 83.1233 137.665 82.93C138.09 82.698 138.496 82.6303 138.883 82.727C139.289 82.8237 139.618 83.0653 139.869 83.452C139.966 83.6067 140.111 83.858 140.304 84.206C140.517 84.5347 140.72 84.8633 140.913 85.192C141.126 85.5013 141.261 85.714 141.319 85.83C141.493 86.1393 141.551 86.4583 141.493 86.787C141.454 87.0963 141.329 87.367 141.116 87.599H143.958C144.113 87.251 144.306 86.8063 144.538 86.265C144.789 85.7237 145.021 85.192 145.234 84.67C145.447 84.148 145.601 83.7613 145.698 83.51C145.872 83.0653 146.172 82.7657 146.597 82.611C147.022 82.4563 147.448 82.466 147.873 82.64C148.318 82.8333 148.608 83.133 148.743 83.539C148.898 83.9257 148.888 84.322 148.714 84.728C148.579 85.0373 148.366 85.4723 148.076 86.033C147.805 86.5743 147.535 87.0963 147.264 87.599H151.788C152.194 87.599 152.532 87.744 152.803 88.034C153.093 88.324 153.238 88.672 153.238 89.078C153.238 89.484 153.093 89.832 152.803 90.122C152.532 90.3927 152.194 90.528 151.788 90.528H148.076C148.443 90.702 148.704 90.9727 148.859 91.34C149.014 91.7073 148.994 92.0747 148.801 92.442C148.646 92.7707 148.424 93.2057 148.134 93.747C147.844 94.269 147.544 94.82 147.235 95.4C146.926 95.9607 146.636 96.4633 146.365 96.908C146.578 97.1013 146.79 97.285 147.003 97.459C147.216 97.6137 147.419 97.7683 147.612 97.923C147.979 97.227 148.318 96.5697 148.627 95.951C148.936 95.313 149.188 94.7523 149.381 94.269C149.536 93.9017 149.797 93.66 150.164 93.544C150.551 93.4087 150.928 93.4183 151.295 93.573C151.682 93.7277 151.933 93.9983 152.049 94.385C152.184 94.7717 152.165 95.1487 151.991 95.516C151.624 96.2893 151.15 97.2077 150.57 98.271C149.99 99.3343 149.391 100.427 148.772 101.548C148.173 102.65 147.612 103.646 147.09 104.535L149.613 104.216C149.536 103.965 149.458 103.733 149.381 103.52C149.304 103.288 149.226 103.085 149.149 102.911C149.014 102.563 149.023 102.215 149.178 101.867C149.352 101.519 149.623 101.287 149.99 101.171C150.357 101.036 150.705 101.045 151.034 101.2C151.382 101.335 151.624 101.577 151.759 101.925C151.933 102.37 152.136 102.921 152.368 103.578C152.6 104.235 152.822 104.902 153.035 105.579C153.267 106.236 153.451 106.807 153.586 107.29C153.683 107.677 153.634 108.025 153.441 108.334C153.248 108.663 152.958 108.875 152.571 108.972C152.184 109.088 151.817 109.059 151.469 108.885C151.121 108.711 150.899 108.431 150.802 108.044C150.744 107.87 150.686 107.667 150.628 107.435C150.57 107.222 150.502 107 150.425 106.768C149.826 106.865 149.12 106.981 148.308 107.116C147.515 107.251 146.742 107.377 145.988 107.493C145.234 107.628 144.615 107.735 144.132 107.812C143.629 107.87 143.214 107.793 142.885 107.58L142.943 107.841C143.04 108.228 142.962 108.566 142.711 108.856C142.46 109.165 142.141 109.359 141.754 109.436ZM127.544 108.247C127.157 108.034 126.906 107.725 126.79 107.319C126.693 106.932 126.751 106.555 126.964 106.188C127.293 105.569 127.67 104.815 128.095 103.926C128.52 103.037 128.936 102.138 129.342 101.229C129.748 100.32 130.067 99.547 130.299 98.909C130.473 98.4643 130.753 98.1647 131.14 98.01C131.527 97.8553 131.923 97.865 132.329 98.039C133.16 98.4257 133.412 99.0927 133.083 100.04C132.87 100.717 132.561 101.519 132.155 102.447C131.768 103.375 131.362 104.293 130.937 105.202C130.531 106.111 130.164 106.884 129.835 107.522C129.622 107.928 129.294 108.208 128.849 108.363C128.424 108.518 127.989 108.479 127.544 108.247ZM142.45 105.666C142.701 105.241 143.088 104.999 143.61 104.941L143.813 104.912C144.142 104.351 144.509 103.704 144.915 102.969C145.321 102.234 145.737 101.471 146.162 100.678C145.814 100.369 145.379 100.021 144.857 99.634C144.354 99.228 143.852 98.8317 143.349 98.445C142.866 98.0583 142.469 97.7587 142.16 97.546C142.044 97.4493 141.938 97.343 141.841 97.227C141.396 97.981 140.894 98.8123 140.333 99.721C139.772 100.61 139.202 101.5 138.622 102.389C138.061 103.278 137.53 104.1 137.027 104.854L139.289 104.593C139.231 104.322 139.163 104.081 139.086 103.868C139.028 103.636 138.98 103.423 138.941 103.23C138.825 102.863 138.864 102.515 139.057 102.186C139.25 101.857 139.531 101.645 139.898 101.548C140.285 101.451 140.642 101.49 140.971 101.664C141.3 101.838 141.512 102.109 141.609 102.476C141.744 102.863 141.88 103.346 142.015 103.926C142.17 104.506 142.315 105.086 142.45 105.666ZM138.158 97.894C138.545 97.2753 138.893 96.6953 139.202 96.154C139.511 95.5933 139.772 95.11 139.985 94.704C140.198 94.3367 140.488 94.1047 140.855 94.008C141.242 93.9113 141.609 93.9597 141.957 94.153C142.266 94.327 142.489 94.588 142.624 94.936C142.856 94.8587 143.098 94.8393 143.349 94.878C143.62 94.9167 143.861 95.0133 144.074 95.168C144.306 94.7427 144.548 94.2787 144.799 93.776C145.07 93.2733 145.311 92.7997 145.524 92.355C145.737 91.891 145.901 91.5333 146.017 91.282C146.172 90.934 146.423 90.6827 146.771 90.528H139.637C140.12 91.0113 140.207 91.5527 139.898 92.152C139.724 92.5 139.463 92.964 139.115 93.544C138.786 94.124 138.429 94.7233 138.042 95.342C137.675 95.9413 137.346 96.4827 137.056 96.966C137.249 97.1207 137.443 97.2753 137.636 97.43C137.829 97.5847 138.003 97.7393 138.158 97.894ZM130.27 94.762C130.077 94.6267 129.796 94.443 129.429 94.211C129.062 93.979 128.694 93.747 128.327 93.515C127.96 93.283 127.66 93.0993 127.428 92.964C127.061 92.7513 126.829 92.4517 126.732 92.065C126.635 91.6783 126.693 91.3013 126.906 90.934C127.119 90.5473 127.418 90.296 127.805 90.18C128.211 90.064 128.627 90.1317 129.052 90.383C129.284 90.499 129.584 90.673 129.951 90.905C130.338 91.137 130.715 91.369 131.082 91.601C131.469 91.833 131.768 92.0167 131.981 92.152C132.368 92.384 132.609 92.7127 132.706 93.138C132.803 93.5633 132.716 93.9693 132.445 94.356C132.213 94.7233 131.884 94.9457 131.459 95.023C131.034 95.1003 130.637 95.0133 130.27 94.762ZM131.314 88.266C131.121 88.1113 130.84 87.9277 130.473 87.715C130.125 87.483 129.767 87.251 129.4 87.019C129.033 86.787 128.733 86.6033 128.501 86.468C128.153 86.2553 127.931 85.9557 127.834 85.569C127.737 85.1823 127.786 84.8053 127.979 84.438C128.192 84.0513 128.501 83.8097 128.907 83.713C129.313 83.597 129.729 83.655 130.154 83.887C130.386 84.003 130.676 84.177 131.024 84.409C131.391 84.641 131.759 84.873 132.126 85.105C132.493 85.3177 132.783 85.4917 132.996 85.627C133.383 85.8783 133.624 86.2167 133.721 86.642C133.818 87.048 133.731 87.4443 133.46 87.831C133.228 88.1983 132.899 88.4207 132.474 88.498C132.049 88.5753 131.662 88.498 131.314 88.266ZM160.024 109.407C159.521 109.542 159.077 109.542 158.69 109.407C158.303 109.291 158.033 109.011 157.878 108.566C157.762 108.179 157.791 107.783 157.965 107.377C158.139 106.99 158.439 106.749 158.864 106.652C159.367 106.536 159.927 106.381 160.546 106.188C161.184 105.975 161.832 105.743 162.489 105.492C163.166 105.241 163.775 104.989 164.316 104.738C163.098 104.545 162.228 104.129 161.706 103.491C161.184 102.834 160.923 101.857 160.923 100.562V97.14C160.923 95.5353 161.329 94.4237 162.141 93.805C162.953 93.167 164.345 92.848 166.317 92.848H173.19C175.181 92.848 176.583 93.167 177.395 93.805C178.207 94.4237 178.613 95.5353 178.613 97.14V100.562C178.613 101.877 178.342 102.863 177.801 103.52C177.279 104.158 176.39 104.564 175.133 104.738C175.964 105.125 176.892 105.502 177.917 105.869C178.942 106.236 179.821 106.497 180.556 106.652C181.001 106.749 181.3 106.99 181.455 107.377C181.629 107.783 181.658 108.179 181.542 108.566C181.387 109.011 181.117 109.291 180.73 109.407C180.343 109.542 179.899 109.542 179.396 109.407C178.777 109.233 178.062 108.991 177.25 108.682C176.457 108.392 175.674 108.083 174.901 107.754C174.128 107.425 173.47 107.116 172.929 106.826C172.562 106.613 172.339 106.333 172.262 105.985C172.185 105.618 172.233 105.27 172.407 104.941C172.426 104.922 172.436 104.912 172.436 104.912C172.436 104.893 172.446 104.873 172.465 104.854H166.955C166.994 104.893 167.013 104.922 167.013 104.941C167.187 105.27 167.235 105.618 167.158 105.985C167.1 106.333 166.878 106.613 166.491 106.826C165.95 107.116 165.292 107.425 164.519 107.754C163.746 108.083 162.963 108.392 162.17 108.682C161.377 108.991 160.662 109.233 160.024 109.407ZM159.154 93.979C158.767 94.2303 158.332 94.3463 157.849 94.327C157.366 94.3077 156.989 94.095 156.718 93.689C156.505 93.3603 156.438 92.993 156.515 92.587C156.592 92.1617 156.805 91.8523 157.153 91.659C158.178 91.0983 159.009 90.4603 159.647 89.745C160.285 89.0297 160.788 88.179 161.155 87.193H158.11C157.723 87.193 157.414 87.077 157.182 86.845C156.95 86.5937 156.834 86.294 156.834 85.946C156.834 85.5787 156.95 85.2693 157.182 85.018C157.414 84.7667 157.723 84.641 158.11 84.641H161.735C161.774 84.4863 161.793 84.322 161.793 84.148C161.812 83.9547 161.832 83.771 161.851 83.597C161.89 83.0943 162.083 82.7367 162.431 82.524C162.779 82.3113 163.175 82.2243 163.62 82.263C164.026 82.3017 164.364 82.466 164.635 82.756C164.906 83.046 165.022 83.4327 164.983 83.916C164.964 84.0513 164.944 84.177 164.925 84.293C164.925 84.409 164.915 84.525 164.896 84.641H166.723C167.883 84.641 168.734 84.931 169.275 85.511C169.836 86.0717 170.039 86.9803 169.884 88.237C169.749 89.3583 169.507 90.2187 169.159 90.818C168.83 91.4173 168.357 91.833 167.738 92.065C167.139 92.297 166.356 92.413 165.389 92.413C164.983 92.413 164.635 92.297 164.345 92.065C164.074 91.8137 163.92 91.4753 163.881 91.05C163.862 90.6633 163.968 90.3347 164.2 90.064C164.432 89.774 164.732 89.6193 165.099 89.6C165.737 89.5613 166.143 89.4743 166.317 89.339C166.51 89.2037 166.655 88.8653 166.752 88.324C166.829 87.8987 166.81 87.6087 166.694 87.454C166.578 87.28 166.269 87.193 165.766 87.193H164.287C163.804 88.701 163.127 90.0253 162.257 91.166C161.387 92.2873 160.353 93.225 159.154 93.979ZM175.829 91.775C174.766 91.775 173.905 91.6687 173.248 91.456C172.61 91.224 172.146 90.8277 171.856 90.267C171.585 89.687 171.45 88.8653 171.45 87.802C171.45 86.7193 171.585 85.8977 171.856 85.337C172.146 84.757 172.61 84.3607 173.248 84.148C173.905 83.916 174.766 83.8 175.829 83.8H177.511C178.594 83.8 179.454 83.916 180.092 84.148C180.73 84.3607 181.184 84.757 181.455 85.337C181.745 85.8977 181.89 86.7193 181.89 87.802C181.89 88.8653 181.745 89.687 181.455 90.267C181.184 90.8277 180.73 91.224 180.092 91.456C179.454 91.6687 178.594 91.775 177.511 91.775H175.829ZM164.374 99.402H175.133V98.242H164.374V99.402ZM175.974 89.223H177.366C178.023 89.223 178.449 89.136 178.642 88.962C178.835 88.7687 178.932 88.382 178.932 87.802C178.932 87.2027 178.835 86.816 178.642 86.642C178.449 86.4487 178.023 86.352 177.366 86.352H175.974C175.317 86.352 174.891 86.4487 174.698 86.642C174.505 86.816 174.408 87.2027 174.408 87.802C174.408 88.382 174.505 88.7687 174.698 88.962C174.891 89.136 175.317 89.223 175.974 89.223ZM166.375 102.505H173.161C173.857 102.505 174.34 102.428 174.611 102.273C174.882 102.118 175.046 101.809 175.104 101.345H164.432C164.471 101.809 164.625 102.118 164.896 102.273C165.186 102.428 165.679 102.505 166.375 102.505ZM164.432 96.299H175.104C175.027 95.8737 174.853 95.5933 174.582 95.458C174.311 95.3033 173.838 95.226 173.161 95.226H166.375C165.698 95.226 165.215 95.3033 164.925 95.458C164.654 95.5933 164.49 95.8737 164.432 96.299ZM187.632 106.884C187.168 106.884 186.772 106.72 186.443 106.391C186.114 106.062 185.95 105.666 185.95 105.202C185.95 104.738 186.114 104.351 186.443 104.042C186.772 103.713 187.168 103.549 187.632 103.549H197.405V89.107H189.43C188.966 89.107 188.57 88.9523 188.241 88.643C187.912 88.3143 187.748 87.918 187.748 87.454C187.748 86.99 187.912 86.5937 188.241 86.265C188.57 85.9363 188.966 85.772 189.43 85.772H209.15C209.614 85.772 210.01 85.9363 210.339 86.265C210.668 86.5937 210.832 86.99 210.832 87.454C210.832 87.918 210.668 88.3143 210.339 88.643C210.01 88.9523 209.614 89.107 209.15 89.107H201.175V103.549H210.977C211.441 103.549 211.828 103.713 212.137 104.042C212.466 104.351 212.63 104.738 212.63 105.202C212.63 105.666 212.466 106.062 212.137 106.391C211.828 106.72 211.441 106.884 210.977 106.884H187.632ZM235.946 109.262C235.463 109.262 235.057 109.146 234.728 108.914C234.419 108.701 234.235 108.353 234.177 107.87C234.138 107.425 234.254 107.039 234.525 106.71C234.815 106.381 235.173 106.207 235.598 106.188C236.236 106.149 236.671 106.062 236.903 105.927C237.154 105.792 237.348 105.492 237.483 105.028C237.599 104.661 237.715 104.197 237.831 103.636C237.947 103.075 238.044 102.495 238.121 101.896C238.198 101.393 238.179 101.026 238.063 100.794C237.947 100.562 237.715 100.407 237.367 100.33C236.922 101.413 236.333 102.495 235.598 103.578C234.883 104.661 234.08 105.676 233.191 106.623C232.321 107.551 231.422 108.344 230.494 109.001C230.165 109.233 229.788 109.349 229.363 109.349C228.938 109.349 228.59 109.194 228.319 108.885C228.068 108.614 227.942 108.295 227.942 107.928C227.961 107.561 228.116 107.271 228.406 107.058C229.721 106.053 230.9 104.97 231.944 103.81C232.988 102.65 233.829 101.471 234.467 100.272H233.162C232.621 101.258 231.925 102.234 231.074 103.201C230.223 104.148 229.305 105.028 228.319 105.84C227.333 106.652 226.357 107.309 225.39 107.812C225.023 108.005 224.636 108.054 224.23 107.957C223.843 107.88 223.544 107.657 223.331 107.29C223.157 106.981 223.118 106.652 223.215 106.304C223.312 105.937 223.515 105.666 223.824 105.492C225.023 104.873 226.192 104.09 227.333 103.143C228.474 102.196 229.411 101.239 230.146 100.272H228.58C228.019 100.91 227.42 101.519 226.782 102.099C226.163 102.66 225.535 103.182 224.897 103.665C224.568 103.897 224.191 104.003 223.766 103.984C223.341 103.965 223.002 103.8 222.751 103.491C222.538 103.201 222.442 102.872 222.461 102.505C222.5 102.118 222.674 101.828 222.983 101.635C223.331 101.384 223.679 101.113 224.027 100.823C224.394 100.514 224.752 100.204 225.1 99.895C225.042 99.9337 224.984 99.9723 224.926 100.011C224.868 100.05 224.8 100.088 224.723 100.127C224.124 100.398 223.389 100.717 222.519 101.084C221.649 101.432 220.769 101.77 219.88 102.099C218.991 102.428 218.227 102.698 217.589 102.911C217.106 103.085 216.661 103.056 216.255 102.824C215.868 102.592 215.607 102.263 215.472 101.838C215.337 101.393 215.366 100.987 215.559 100.62C215.752 100.233 216.091 99.9723 216.574 99.837C217.251 99.663 218.034 99.4407 218.923 99.17V91.833H216.806C216.342 91.833 215.975 91.688 215.704 91.398C215.433 91.108 215.298 90.76 215.298 90.354C215.298 89.9287 215.433 89.571 215.704 89.281C215.975 88.991 216.342 88.846 216.806 88.846H218.923V84.38C218.923 83.8773 219.078 83.4907 219.387 83.22C219.696 82.93 220.083 82.785 220.547 82.785C221.011 82.785 221.398 82.93 221.707 83.22C222.016 83.4907 222.171 83.8773 222.171 84.38V88.846H224.085C224.53 88.846 224.887 88.991 225.158 89.281C225.429 89.571 225.564 89.9287 225.564 90.354C225.564 90.76 225.429 91.108 225.158 91.398C224.887 91.688 224.53 91.833 224.085 91.833H222.171V98.068C222.461 97.952 222.741 97.8457 223.012 97.749C223.283 97.633 223.544 97.5267 223.795 97.43C224.162 97.2753 224.52 97.2753 224.868 97.43C225.235 97.5847 225.477 97.8457 225.593 98.213C225.767 98.793 225.699 99.2667 225.39 99.634C226.434 98.6287 227.333 97.6233 228.087 96.618H225.506C225.139 96.618 224.839 96.4923 224.607 96.241C224.394 95.9703 224.288 95.661 224.288 95.313C224.288 94.965 224.394 94.6653 224.607 94.414C224.839 94.1433 225.139 94.008 225.506 94.008H241.224C241.611 94.008 241.91 94.1433 242.123 94.414C242.355 94.6653 242.471 94.965 242.471 95.313C242.471 95.661 242.355 95.9703 242.123 96.241C241.91 96.4923 241.611 96.618 241.224 96.618H231.19C231.074 96.8113 230.958 97.0143 230.842 97.227C230.726 97.4203 230.6 97.6233 230.465 97.836H237.454C238.827 97.836 239.832 98.1357 240.47 98.735C241.108 99.3343 241.35 100.34 241.195 101.751C241.06 103.375 240.818 104.844 240.47 106.159C240.199 107.242 239.697 108.025 238.962 108.508C238.247 109.011 237.241 109.262 235.946 109.262ZM231.973 92.993C230.678 92.993 229.663 92.8577 228.928 92.587C228.193 92.297 227.671 91.804 227.362 91.108C227.072 90.3927 226.927 89.397 226.927 88.121C226.927 86.8257 227.072 85.83 227.362 85.134C227.671 84.438 228.193 83.9547 228.928 83.684C229.663 83.394 230.678 83.249 231.973 83.249H234.438C235.733 83.249 236.748 83.394 237.483 83.684C238.218 83.9547 238.74 84.438 239.049 85.134C239.358 85.83 239.513 86.8257 239.513 88.121C239.513 89.397 239.358 90.3927 239.049 91.108C238.74 91.804 238.218 92.297 237.483 92.587C236.748 92.8577 235.733 92.993 234.438 92.993H231.973ZM232.321 90.499H234.148C234.921 90.499 235.463 90.4217 235.772 90.267C236.081 90.1123 236.265 89.745 236.323 89.165H230.117C230.175 89.745 230.359 90.1123 230.668 90.267C230.997 90.4217 231.548 90.499 232.321 90.499ZM230.117 86.99H236.323C236.246 86.4293 236.052 86.0813 235.743 85.946C235.434 85.7913 234.902 85.714 234.148 85.714H232.321C231.548 85.714 231.006 85.7913 230.697 85.946C230.388 86.0813 230.194 86.4293 230.117 86.99Z" fill="#007440"/>
</svg>
