<svg width="460" height="532" viewBox="0 0 460 532" fill="none" xmlns="http://www.w3.org/2000/svg">
<g clip-path="url(#clip0_2001_2999)">
<g clip-path="url(#clip1_2001_2999)">
<g clip-path="url(#clip2_2001_2999)">
<path d="M384.768 455.054C388.541 455.113 391.623 453.935 391.651 452.423C391.679 450.911 388.643 449.637 384.87 449.578C381.096 449.519 378.014 450.696 377.986 452.208C377.958 453.721 380.994 454.994 384.768 455.054Z" fill="black"/>
<path d="M385.222 430.675C385.222 430.675 382.82 452.42 382.817 452.564C382.805 453.217 383.69 453.756 384.791 453.774C385.893 453.791 386.797 453.28 386.809 452.627C386.812 452.483 385.222 430.675 385.222 430.675Z" fill="#5E853A"/>
<g style="mix-blend-mode:multiply" opacity="0.2">
<path d="M384.792 453.774C385.893 453.791 386.797 453.28 386.81 452.627C386.812 452.483 385.222 430.675 385.222 430.675" fill="black"/>
</g>
<path d="M384.889 448.544C389.71 448.619 393.692 444.681 393.784 439.747C393.876 434.812 390.042 430.751 385.221 430.675C380.4 430.599 376.418 434.538 376.326 439.472C376.234 444.406 380.068 448.468 384.889 448.544Z" fill="#6EBA44"/>
<path d="M385.222 430.675C390.042 430.751 393.876 434.813 393.784 439.747C393.693 444.68 389.709 448.619 384.889 448.544" fill="black"/>
</g>
<g clip-path="url(#clip3_2001_2999)">
<path d="M400.157 458.074C403.931 458.133 407.013 456.955 407.041 455.443C407.069 453.931 404.033 452.657 400.259 452.598C396.486 452.538 393.404 453.716 393.376 455.228C393.348 456.74 396.384 458.014 400.157 458.074Z" fill="black"/>
<path d="M400.611 433.695C400.611 433.695 398.21 455.44 398.207 455.584C398.195 456.237 399.08 456.776 400.181 456.794C401.283 456.811 402.187 456.3 402.199 455.647C402.202 455.503 400.611 433.695 400.611 433.695Z" fill="#5E853A"/>
<g style="mix-blend-mode:multiply" opacity="0.2">
<path d="M400.181 456.794C401.283 456.811 402.187 456.3 402.199 455.647C402.202 455.503 400.611 433.695 400.611 433.695" fill="black"/>
</g>
<path d="M400.278 451.564C405.099 451.639 409.082 447.701 409.174 442.766C409.266 437.832 405.432 433.771 400.611 433.695C395.79 433.619 391.807 437.558 391.716 442.492C391.624 447.426 395.457 451.488 400.278 451.564Z" fill="#6EBA44"/>
<path d="M400.611 433.695C405.431 433.771 409.266 437.833 409.174 442.766C409.082 447.7 405.099 451.639 400.279 451.564" fill="black"/>
</g>
<g clip-path="url(#clip4_2001_2999)">
<path d="M416.642 460.854C420.415 460.913 423.497 459.736 423.525 458.224C423.553 456.711 420.517 455.438 416.744 455.378C412.97 455.319 409.888 456.497 409.86 458.009C409.832 459.521 412.868 460.795 416.642 460.854Z" fill="black"/>
<path d="M417.096 436.475C417.096 436.475 414.694 458.22 414.692 458.365C414.679 459.017 415.564 459.557 416.665 459.574C417.767 459.592 418.671 459.08 418.683 458.427C418.686 458.283 417.096 436.475 417.096 436.475Z" fill="#5E853A"/>
<g style="mix-blend-mode:multiply" opacity="0.2">
<path d="M416.666 459.574C417.767 459.592 418.671 459.08 418.684 458.427C418.686 458.283 417.096 436.475 417.096 436.475" fill="black"/>
</g>
<path d="M416.763 454.344C421.584 454.42 425.566 450.481 425.658 445.547C425.75 440.613 421.916 436.551 417.095 436.475C412.274 436.4 408.292 440.338 408.2 445.273C408.108 450.207 411.942 454.268 416.763 454.344Z" fill="#6EBA44"/>
<path d="M417.096 436.475C421.916 436.551 425.75 440.614 425.658 445.547C425.567 450.48 421.583 454.42 416.763 454.344" fill="black"/>
</g>
<g clip-path="url(#clip5_2001_2999)">
<path d="M319.289 444.792C323.035 444.851 326.089 444 326.11 442.891C326.13 441.783 323.11 440.836 319.364 440.777C315.617 440.718 312.563 441.569 312.543 442.678C312.522 443.787 315.542 444.734 319.289 444.792Z" fill="black"/>
<path d="M312.939 441.588C313.007 437.966 315.93 435.075 319.469 435.131C323.008 435.186 325.822 438.167 325.754 441.79C325.729 443.145 322.84 444.195 319.301 444.14C315.762 444.084 312.914 442.935 312.939 441.588Z" fill="#6EBA44"/>
<path d="M319.469 435.131C323.008 435.186 325.822 438.167 325.754 441.79C325.729 443.145 322.84 444.195 319.301 444.14" fill="black"/>
</g>
<g clip-path="url(#clip6_2001_2999)">
<path d="M335.15 447.05C338.897 447.109 341.95 446.258 341.971 445.149C341.992 444.04 338.971 443.093 335.225 443.035C331.478 442.976 328.425 443.827 328.404 444.936C328.383 446.044 331.404 446.991 335.15 447.05Z" fill="black"/>
<path d="M328.801 443.846C328.868 440.224 331.792 437.332 335.33 437.388C338.869 437.444 341.683 440.425 341.616 444.047C341.591 445.402 338.702 446.453 335.163 446.397C331.624 446.342 328.776 445.192 328.801 443.846Z" fill="#6EBA44"/>
<path d="M335.33 437.388C338.869 437.444 341.683 440.425 341.616 444.047C341.59 445.402 338.701 446.453 335.162 446.397" fill="black"/>
</g>
<g clip-path="url(#clip7_2001_2999)">
<path d="M352.297 449.372C356.043 449.431 359.097 448.58 359.118 447.471C359.138 446.362 356.118 445.416 352.371 445.357C348.625 445.298 345.571 446.149 345.551 447.258C345.53 448.367 348.55 449.313 352.297 449.372Z" fill="black"/>
<path d="M345.947 446.168C346.015 442.546 348.938 439.655 352.477 439.71C356.016 439.766 358.83 442.747 358.762 446.369C358.737 447.725 355.848 448.775 352.309 448.72C348.77 448.664 345.922 447.515 345.947 446.168Z" fill="#6EBA44"/>
<path d="M352.477 439.71C356.015 439.766 358.829 442.747 358.762 446.369C358.737 447.725 355.848 448.775 352.309 448.72" fill="black"/>
</g>
<g clip-path="url(#clip8_2001_2999)">
<path d="M409.622 467.533C413.368 467.592 416.422 466.74 416.443 465.632C416.463 464.523 413.443 463.576 409.697 463.517C405.95 463.459 402.896 464.31 402.876 465.418C402.855 466.527 405.875 467.474 409.622 467.533Z" fill="black"/>
<path d="M403.272 464.328C403.34 460.706 406.263 457.815 409.802 457.871C413.341 457.926 416.155 460.908 416.088 464.53C416.062 465.885 413.173 466.936 409.634 466.88C406.095 466.824 403.247 465.675 403.272 464.328Z" fill="#6EBA44"/>
<path d="M409.802 457.871C413.341 457.926 416.155 460.908 416.087 464.53C416.062 465.885 413.173 466.936 409.634 466.88" fill="black"/>
</g>
<g clip-path="url(#clip9_2001_2999)">
<path d="M400.94 473.086C404.687 473.145 407.74 472.294 407.761 471.185C407.782 470.076 404.761 469.13 401.015 469.071C397.269 469.012 394.215 469.863 394.194 470.972C394.173 472.081 397.194 473.027 400.94 473.086Z" fill="black"/>
<path d="M394.591 469.882C394.658 466.26 397.582 463.369 401.12 463.424C404.659 463.48 407.473 466.461 407.406 470.083C407.381 471.439 404.492 472.489 400.953 472.434C397.414 472.378 394.566 471.229 394.591 469.882Z" fill="#6EBA44"/>
<path d="M401.12 463.424C404.659 463.48 407.473 466.461 407.406 470.083C407.38 471.439 404.491 472.489 400.952 472.434" fill="black"/>
</g>
<g clip-path="url(#clip10_2001_2999)">
<path d="M392.258 478.64C396.004 478.699 399.058 477.847 399.078 476.739C399.099 475.63 396.079 474.683 392.332 474.624C388.586 474.566 385.532 475.417 385.511 476.525C385.491 477.634 388.511 478.581 392.258 478.64Z" fill="black"/>
<path d="M385.908 475.435C385.976 471.813 388.899 468.922 392.438 468.978C395.977 469.034 398.791 472.015 398.723 475.637C398.698 476.992 395.809 478.043 392.27 477.987C388.731 477.932 385.883 476.782 385.908 475.435Z" fill="#6EBA44"/>
<path d="M392.438 468.978C395.976 469.034 398.79 472.015 398.723 475.637C398.698 476.992 395.809 478.043 392.27 477.987" fill="black"/>
</g>
<g clip-path="url(#clip11_2001_2999)">
<path d="M383.576 484.193C387.322 484.252 390.376 483.401 390.397 482.292C390.417 481.183 387.397 480.237 383.651 480.178C379.904 480.119 376.85 480.97 376.83 482.079C376.809 483.188 379.83 484.134 383.576 484.193Z" fill="black"/>
<path d="M377.227 480.989C377.294 477.367 380.217 474.476 383.756 474.531C387.295 474.587 390.109 477.568 390.042 481.19C390.016 482.545 387.127 483.596 383.588 483.541C380.05 483.485 377.201 482.336 377.227 480.989Z" fill="#6EBA44"/>
<path d="M383.756 474.531C387.295 474.587 390.109 477.568 390.041 481.19C390.016 482.545 387.127 483.596 383.588 483.541" fill="black"/>
</g>
<g clip-path="url(#clip12_2001_2999)">
<path d="M374.894 489.747C378.641 489.806 381.695 488.954 381.715 487.846C381.736 486.737 378.715 485.79 374.969 485.731C371.223 485.672 368.169 486.524 368.148 487.632C368.128 488.741 371.148 489.688 374.894 489.747Z" fill="black"/>
<path d="M368.545 486.542C368.612 482.92 371.536 480.029 375.075 480.085C378.613 480.14 381.427 483.122 381.36 486.744C381.335 488.099 378.446 489.15 374.907 489.094C371.368 489.038 368.52 487.889 368.545 486.542Z" fill="#6EBA44"/>
<path d="M375.074 480.085C378.613 480.14 381.427 483.122 381.36 486.744C381.334 488.099 378.445 489.15 374.906 489.094" fill="black"/>
</g>
<g clip-path="url(#clip13_2001_2999)">
<path d="M366.212 495.3C369.958 495.359 373.012 494.508 373.033 493.399C373.053 492.29 370.033 491.344 366.286 491.285C362.54 491.226 359.486 492.077 359.466 493.186C359.445 494.295 362.465 495.241 366.212 495.3Z" fill="black"/>
<path d="M359.862 492.096C359.93 488.474 362.853 485.583 366.392 485.638C369.931 485.694 372.745 488.675 372.677 492.297C372.652 493.652 369.763 494.703 366.224 494.648C362.685 494.592 359.837 493.443 359.862 492.096Z" fill="#6EBA44"/>
<path d="M366.392 485.638C369.93 485.694 372.744 488.675 372.677 492.297C372.652 493.652 369.763 494.703 366.224 494.648" fill="black"/>
</g>
<g clip-path="url(#clip14_2001_2999)">
<path d="M357.53 500.854C361.276 500.913 364.33 500.061 364.351 498.953C364.372 497.844 361.351 496.897 357.605 496.838C353.858 496.78 350.805 497.631 350.784 498.739C350.763 499.848 353.784 500.795 357.53 500.854Z" fill="black"/>
<path d="M351.181 497.649C351.248 494.027 354.171 491.136 357.71 491.192C361.249 491.248 364.063 494.229 363.996 497.851C363.97 499.206 361.081 500.257 357.543 500.201C354.004 500.146 351.156 498.996 351.181 497.649Z" fill="#6EBA44"/>
<path d="M357.71 491.192C361.249 491.248 364.063 494.229 363.995 497.851C363.97 499.206 361.081 500.257 357.542 500.201" fill="black"/>
</g>
<g clip-path="url(#clip15_2001_2999)">
<path d="M347.565 506.253C351.312 506.312 354.365 505.461 354.386 504.352C354.407 503.243 351.386 502.297 347.64 502.238C343.894 502.179 340.84 503.03 340.819 504.139C340.798 505.248 343.819 506.194 347.565 506.253Z" fill="black"/>
<path d="M341.216 503.049C341.283 499.427 344.207 496.536 347.745 496.591C351.284 496.647 354.098 499.628 354.031 503.25C354.006 504.605 351.117 505.656 347.578 505.601C344.039 505.545 341.191 504.396 341.216 503.049Z" fill="#6EBA44"/>
<path d="M347.745 496.591C351.284 496.647 354.098 499.628 354.031 503.25C354.005 504.605 351.116 505.656 347.577 505.601" fill="black"/>
</g>
<g clip-path="url(#clip16_2001_2999)">
<path d="M337.599 511.653C341.346 511.711 344.4 510.86 344.42 509.752C344.441 508.643 341.421 507.696 337.674 507.637C333.928 507.578 330.874 508.429 330.853 509.538C330.833 510.647 333.853 511.594 337.599 511.653Z" fill="black"/>
<path d="M331.25 508.448C331.317 504.826 334.241 501.935 337.78 501.991C341.318 502.046 344.132 505.028 344.065 508.65C344.04 510.005 341.151 511.056 337.612 511C334.073 510.944 331.225 509.795 331.25 508.448Z" fill="#6EBA44"/>
<path d="M337.779 501.991C341.318 502.046 344.132 505.028 344.065 508.65C344.04 510.005 341.15 511.056 337.612 511" fill="black"/>
</g>
<path d="M244.431 509.17C241.217 510.827 235.687 511.621 232.157 510.941L193.23 503.423C189.7 502.743 189.442 500.831 192.666 499.175L218.595 485.848C221.809 484.192 227.327 483.464 230.845 484.222L268.193 492.262C271.71 493.02 271.957 494.999 268.743 496.655L244.442 509.181L244.431 509.17Z" fill="#89CDB9"/>
<path d="M284.572 489.563L228.545 477.213L315.369 436.093L371.985 444.926L284.572 489.563Z" fill="#89CDB9"/>
<path d="M309.637 521.463C286.574 523.7 268.548 519.445 268.548 519.445L250.796 515.641L378.608 446.269L424.174 453.746C424.174 453.746 427.683 454.403 428.96 456.075C430.896 458.627 426.415 461.635 426.415 461.635L350.374 508.448C350.374 508.448 332.701 519.215 309.637 521.452L309.637 521.463Z" fill="#89CDB9"/>
<g clip-path="url(#clip17_2001_2999)">
<path opacity="0.3" d="M384.777 454.53C388.551 454.589 391.633 453.411 391.661 451.899C391.689 450.387 388.653 449.113 384.879 449.054C381.106 448.994 378.024 450.172 377.996 451.684C377.968 453.196 381.004 454.47 384.777 454.53Z" fill="black"/>
<path d="M385.231 430.151C385.231 430.151 382.83 451.896 382.827 452.04C382.815 452.693 383.7 453.232 384.801 453.25C385.903 453.267 386.807 452.755 386.819 452.103C386.822 451.959 385.231 430.151 385.231 430.151Z" fill="#9B7225"/>
<g style="mix-blend-mode:multiply" opacity="0.2">
<path d="M384.801 453.25C385.903 453.267 386.807 452.755 386.819 452.103C386.822 451.959 385.231 430.151 385.231 430.151" fill="black"/>
</g>
<path d="M384.898 448.02C389.719 448.095 393.702 444.157 393.794 439.222C393.886 434.288 390.052 430.227 385.231 430.151C380.41 430.075 376.427 434.014 376.336 438.948C376.244 443.882 380.077 447.944 384.898 448.02Z" fill="#4B9E81"/>
<path opacity="0.3" d="M385.231 430.151C390.051 430.227 393.886 434.289 393.794 439.222C393.702 444.156 389.719 448.095 384.899 448.02" fill="black"/>
</g>
<g clip-path="url(#clip18_2001_2999)">
<path opacity="0.3" d="M400.168 457.538C403.942 457.598 407.023 456.42 407.052 454.908C407.08 453.396 404.044 452.122 400.27 452.062C396.497 452.003 393.415 453.181 393.387 454.693C393.358 456.205 396.395 457.479 400.168 457.538Z" fill="black"/>
<path d="M400.622 433.16C400.622 433.16 398.221 454.905 398.218 455.049C398.206 455.702 399.09 456.241 400.192 456.258C401.293 456.276 402.198 455.764 402.21 455.112C402.212 454.967 400.622 433.16 400.622 433.16Z" fill="#9B7225"/>
<g style="mix-blend-mode:multiply" opacity="0.2">
<path d="M400.192 456.258C401.294 456.276 402.198 455.764 402.21 455.112C402.213 454.967 400.622 433.16 400.622 433.16" fill="black"/>
</g>
<path d="M400.289 451.028C405.11 451.104 409.093 447.165 409.184 442.231C409.276 437.297 405.443 433.235 400.622 433.16C395.801 433.084 391.818 437.022 391.726 441.957C391.634 446.891 395.468 450.953 400.289 451.028Z" fill="#4B9E81"/>
<path opacity="0.3" d="M400.622 433.16C405.442 433.235 409.277 437.298 409.185 442.231C409.093 447.165 405.109 451.104 400.289 451.028" fill="black"/>
</g>
<g clip-path="url(#clip19_2001_2999)">
<path opacity="0.3" d="M416.651 460.319C420.425 460.378 423.507 459.2 423.535 457.688C423.563 456.176 420.527 454.902 416.753 454.843C412.98 454.784 409.898 455.961 409.87 457.473C409.842 458.986 412.878 460.259 416.651 460.319Z" fill="black"/>
<path d="M417.105 435.94C417.105 435.94 414.704 457.685 414.701 457.829C414.689 458.482 415.574 459.022 416.675 459.039C417.777 459.056 418.681 458.545 418.693 457.892C418.696 457.748 417.105 435.94 417.105 435.94Z" fill="#9B7225"/>
<g style="mix-blend-mode:multiply" opacity="0.2">
<path d="M416.675 459.039C417.777 459.056 418.681 458.545 418.693 457.892C418.696 457.748 417.105 435.94 417.105 435.94" fill="black"/>
</g>
<path d="M416.772 453.809C421.593 453.884 425.576 449.946 425.668 445.012C425.76 440.077 421.926 436.016 417.105 435.94C412.284 435.864 408.302 439.803 408.21 444.737C408.118 449.671 411.951 453.733 416.772 453.809Z" fill="#4B9E81"/>
<path opacity="0.3" d="M417.105 435.94C421.926 436.016 425.76 440.078 425.668 445.012C425.576 449.945 421.593 453.884 416.773 453.809" fill="black"/>
</g>
<g clip-path="url(#clip20_2001_2999)">
<path opacity="0.3" d="M319.299 444.257C323.045 444.316 326.099 443.465 326.119 442.356C326.14 441.247 323.12 440.301 319.373 440.242C315.627 440.183 312.573 441.034 312.552 442.143C312.532 443.252 315.552 444.198 319.299 444.257Z" fill="black"/>
<path d="M312.949 441.053C313.017 437.431 315.94 434.54 319.479 434.595C323.018 434.651 325.832 437.632 325.764 441.254C325.739 442.609 322.85 443.66 319.311 443.604C315.772 443.549 312.924 442.4 312.949 441.053Z" fill="#4B9E81"/>
<path opacity="0.3" d="M319.479 434.595C323.017 434.651 325.831 437.632 325.764 441.254C325.739 442.609 322.85 443.66 319.311 443.604" fill="black"/>
</g>
<g clip-path="url(#clip21_2001_2999)">
<path opacity="0.3" d="M335.16 446.514C338.906 446.573 341.96 445.722 341.981 444.613C342.001 443.505 338.981 442.558 335.235 442.499C331.488 442.44 328.434 443.291 328.414 444.4C328.393 445.509 331.413 446.456 335.16 446.514Z" fill="black"/>
<path d="M328.811 443.31C328.878 439.688 331.801 436.797 335.34 436.853C338.879 436.908 341.693 439.89 341.626 443.512C341.6 444.867 338.711 445.918 335.172 445.862C331.634 445.806 328.785 444.657 328.811 443.31Z" fill="#4B9E81"/>
<path opacity="0.3" d="M335.34 436.853C338.879 436.908 341.693 439.89 341.625 443.512C341.6 444.867 338.711 445.918 335.172 445.862" fill="black"/>
</g>
<g clip-path="url(#clip22_2001_2999)">
<path opacity="0.3" d="M352.307 448.837C356.054 448.896 359.108 448.045 359.128 446.936C359.149 445.827 356.129 444.88 352.382 444.822C348.636 444.763 345.582 445.614 345.561 446.723C345.541 447.831 348.561 448.778 352.307 448.837Z" fill="black"/>
<path d="M345.958 445.633C346.025 442.01 348.949 439.119 352.488 439.175C356.026 439.231 358.84 442.212 358.773 445.834C358.748 447.189 355.859 448.24 352.32 448.184C348.781 448.129 345.933 446.979 345.958 445.633Z" fill="#4B9E81"/>
<path opacity="0.3" d="M352.487 439.175C356.026 439.231 358.84 442.212 358.773 445.834C358.748 447.189 355.858 448.24 352.32 448.184" fill="black"/>
</g>
<path d="M140.799 446.659L112.324 440.41L135.886 428.374L164.35 434.623L140.799 446.659Z" fill="#F0F0F0"/>
<path d="M112.195 447.336L140.671 453.585L140.8 446.659L112.324 440.41L112.195 447.336Z" fill="#C6C6C6"/>
<path d="M164.221 441.56L140.67 453.585L140.799 446.659L164.35 434.623L164.221 441.56Z" fill="#B1B1B1"/>
<path d="M164.221 441.56L140.67 453.585L140.725 450.641L164.276 438.604L164.221 441.56Z" fill="#B1B1B1"/>
<path d="M164.279 438.437L140.728 450.473L140.744 449.648L164.295 437.612L164.279 438.437Z" fill="black"/>
<path d="M112.253 444.224L140.728 450.473L140.744 449.648L112.269 443.399L112.253 444.224Z" fill="black"/>
<g style="mix-blend-mode:multiply">
<path d="M164.221 441.56L140.67 453.585L140.683 452.871L164.234 440.835L164.221 441.56Z" fill="#B1B1B1"/>
</g>
<g style="mix-blend-mode:multiply">
<path d="M112.195 447.336L140.67 453.585L140.683 452.871L112.208 446.622L112.195 447.336Z" fill="#B1B1B1"/>
</g>
<path d="M380.277 468.474L341.826 459.982L361.173 450.1L399.624 458.581L380.277 468.474Z" fill="#F0F0F0"/>
<g style="mix-blend-mode:multiply" opacity="0.6">
<path d="M380.14 467.624L343.849 459.624L361.301 450.794L397.592 458.806L380.14 467.624Z" fill="#C4C4C4"/>
</g>
<g style="mix-blend-mode:multiply" opacity="0.5">
<path d="M380.14 467.624L343.849 459.624L361.301 450.794L397.592 458.806L380.14 467.624Z" fill="#C7D9F4"/>
</g>
<path d="M341.675 468.124L380.126 476.605L380.277 468.474L341.826 459.982L341.675 468.124Z" fill="#C6C6C6"/>
<path d="M399.472 466.723L380.126 476.605L380.277 468.474L399.624 458.581L399.472 466.723Z" fill="#B1B1B1"/>
<g style="mix-blend-mode:multiply">
<path d="M341.675 468.124L380.126 476.605L380.171 474.185L341.72 465.704L341.675 468.124Z" fill="#C6C6C6"/>
</g>
<g style="mix-blend-mode:multiply">
<path d="M399.473 466.723L380.126 476.605L380.171 474.185L399.518 464.303L399.473 466.723Z" fill="#B1B1B1"/>
</g>
<g style="mix-blend-mode:multiply">
<path d="M399.565 461.771L380.218 471.653L380.225 471.252L399.572 461.37L399.565 461.771Z" fill="#B1B1B1"/>
</g>
<g clip-path="url(#clip23_2001_2999)">
<path opacity="0.3" d="M409.632 466.997C413.378 467.056 416.432 466.205 416.452 465.096C416.473 463.988 413.453 463.041 409.706 462.982C405.96 462.923 402.906 463.774 402.885 464.883C402.865 465.992 405.885 466.938 409.632 466.997Z" fill="black"/>
<path d="M403.282 463.793C403.35 460.171 406.273 457.28 409.812 457.336C413.351 457.391 416.165 460.372 416.097 463.995C416.072 465.35 413.183 466.4 409.644 466.345C406.105 466.289 403.257 465.14 403.282 463.793Z" fill="#4B9E81"/>
<path opacity="0.3" d="M409.812 457.336C413.35 457.391 416.164 460.372 416.097 463.995C416.072 465.35 413.183 466.4 409.644 466.345" fill="black"/>
</g>
<g clip-path="url(#clip24_2001_2999)">
<path opacity="0.3" d="M400.95 472.551C404.696 472.61 407.75 471.759 407.771 470.65C407.791 469.541 404.771 468.594 401.025 468.536C397.278 468.477 394.224 469.328 394.204 470.437C394.183 471.545 397.204 472.492 400.95 472.551Z" fill="black"/>
<path d="M394.601 469.347C394.668 465.724 397.591 462.833 401.13 462.889C404.669 462.945 407.483 465.926 407.416 469.548C407.39 470.903 404.501 471.954 400.962 471.898C397.424 471.843 394.575 470.693 394.601 469.347Z" fill="#4B9E81"/>
<path opacity="0.3" d="M401.13 462.889C404.669 462.945 407.483 465.926 407.415 469.548C407.39 470.903 404.501 471.954 400.962 471.898" fill="black"/>
</g>
<g clip-path="url(#clip25_2001_2999)">
<path opacity="0.3" d="M392.268 478.104C396.015 478.163 399.069 477.312 399.089 476.203C399.11 475.095 396.089 474.148 392.343 474.089C388.597 474.03 385.543 474.881 385.522 475.99C385.502 477.099 388.522 478.045 392.268 478.104Z" fill="black"/>
<path d="M385.919 474.9C385.986 471.278 388.91 468.387 392.449 468.443C395.987 468.498 398.801 471.479 398.734 475.101C398.709 476.457 395.82 477.507 392.281 477.452C388.742 477.396 385.894 476.247 385.919 474.9Z" fill="#4B9E81"/>
<path opacity="0.3" d="M392.448 468.443C395.987 468.498 398.801 471.479 398.734 475.101C398.708 476.457 395.819 477.507 392.281 477.452" fill="black"/>
</g>
<g clip-path="url(#clip26_2001_2999)">
<path opacity="0.3" d="M383.586 483.658C387.332 483.717 390.386 482.866 390.407 481.757C390.427 480.648 387.407 479.701 383.66 479.643C379.914 479.584 376.86 480.435 376.84 481.544C376.819 482.652 379.839 483.599 383.586 483.658Z" fill="black"/>
<path d="M377.236 480.454C377.304 476.831 380.227 473.94 383.766 473.996C387.305 474.052 390.119 477.033 390.051 480.655C390.026 482.01 387.137 483.061 383.598 483.005C380.059 482.95 377.211 481.8 377.236 480.454Z" fill="#4B9E81"/>
<path opacity="0.3" d="M383.766 473.996C387.304 474.052 390.118 477.033 390.051 480.655C390.026 482.01 387.137 483.061 383.598 483.005" fill="black"/>
</g>
<g clip-path="url(#clip27_2001_2999)">
<path opacity="0.3" d="M374.904 489.211C378.65 489.27 381.704 488.419 381.725 487.31C381.746 486.201 378.725 485.255 374.979 485.196C371.232 485.137 368.179 485.988 368.158 487.097C368.137 488.206 371.158 489.152 374.904 489.211Z" fill="black"/>
<path d="M368.555 486.007C368.622 482.385 371.545 479.494 375.084 479.549C378.623 479.605 381.437 482.586 381.37 486.208C381.345 487.564 378.455 488.614 374.917 488.559C371.378 488.503 368.53 487.354 368.555 486.007Z" fill="#4B9E81"/>
<path opacity="0.3" d="M375.084 479.549C378.623 479.605 381.437 482.586 381.369 486.208C381.344 487.564 378.455 488.614 374.916 488.559" fill="black"/>
</g>
<g clip-path="url(#clip28_2001_2999)">
<path opacity="0.3" d="M366.222 494.765C369.969 494.824 373.023 493.973 373.043 492.864C373.064 491.755 370.044 490.808 366.297 490.75C362.551 490.691 359.497 491.542 359.476 492.651C359.456 493.759 362.476 494.706 366.222 494.765Z" fill="black"/>
<path d="M359.873 491.561C359.94 487.938 362.864 485.047 366.403 485.103C369.942 485.159 372.756 488.14 372.688 491.762C372.663 493.117 369.774 494.168 366.235 494.112C362.696 494.057 359.848 492.907 359.873 491.561Z" fill="#4B9E81"/>
<path opacity="0.3" d="M366.402 485.103C369.941 485.159 372.755 488.14 372.688 491.762C372.663 493.117 369.773 494.168 366.235 494.112" fill="black"/>
</g>
<g clip-path="url(#clip29_2001_2999)">
<path opacity="0.3" d="M357.54 500.318C361.286 500.377 364.34 499.526 364.361 498.417C364.381 497.308 361.361 496.362 357.615 496.303C353.868 496.244 350.814 497.095 350.794 498.204C350.773 499.313 353.793 500.259 357.54 500.318Z" fill="black"/>
<path d="M351.19 497.114C351.258 493.492 354.181 490.601 357.72 490.656C361.259 490.712 364.073 493.693 364.005 497.315C363.98 498.671 361.091 499.721 357.552 499.666C354.013 499.61 351.165 498.461 351.19 497.114Z" fill="#4B9E81"/>
<path opacity="0.3" d="M357.72 490.656C361.259 490.712 364.073 493.693 364.005 497.315C363.98 498.671 361.091 499.721 357.552 499.666" fill="black"/>
</g>
<g clip-path="url(#clip30_2001_2999)">
<path opacity="0.3" d="M347.575 505.718C351.321 505.777 354.375 504.925 354.396 503.817C354.416 502.708 351.396 501.761 347.65 501.702C343.903 501.644 340.849 502.495 340.829 503.603C340.808 504.712 343.829 505.659 347.575 505.718Z" fill="black"/>
<path d="M341.226 502.513C341.293 498.891 344.216 496 347.755 496.056C351.294 496.112 354.108 499.093 354.041 502.715C354.015 504.07 351.126 505.121 347.587 505.065C344.049 505.01 341.2 503.86 341.226 502.513Z" fill="#4B9E81"/>
<path opacity="0.3" d="M347.755 496.056C351.294 496.112 354.108 499.093 354.04 502.715C354.015 504.07 351.126 505.121 347.587 505.065" fill="black"/>
</g>
<g clip-path="url(#clip31_2001_2999)">
<path opacity="0.3" d="M337.609 511.128C341.356 511.187 344.409 510.336 344.43 509.227C344.451 508.119 341.43 507.172 337.684 507.113C333.937 507.054 330.884 507.905 330.863 509.014C330.842 510.123 333.863 511.069 337.609 511.128Z" fill="black"/>
<path d="M331.26 507.924C331.327 504.302 334.251 501.411 337.789 501.467C341.328 501.522 344.142 504.503 344.075 508.126C344.05 509.481 341.161 510.531 337.622 510.476C334.083 510.42 331.235 509.271 331.26 507.924Z" fill="#4B9E81"/>
<path opacity="0.3" d="M337.789 501.467C341.328 501.522 344.142 504.503 344.075 508.126C344.049 509.481 341.16 510.531 337.621 510.476" fill="black"/>
</g>
<path d="M282.653 487.859L147.021 457.936L210.112 425.714L345.744 455.626L282.653 487.859Z" fill="#C6C6C6"/>
<path d="M282.834 478.111L230.595 466.59L293.687 434.357L345.925 445.889L282.834 478.111Z" fill="#F0F0F0"/>
<path d="M345.744 455.626L282.652 487.859L282.834 478.111L345.926 445.889L345.744 455.626Z" fill="#B1B1B1"/>
<g style="mix-blend-mode:multiply">
<path d="M345.869 448.922L282.777 481.156L282.801 479.884L345.892 447.651L345.869 448.922Z" fill="#B1B1B1"/>
</g>
<path d="M230.414 476.339L282.652 487.859L282.834 478.111L230.596 466.59L230.414 476.339Z" fill="#C6C6C6"/>
<path d="M199.44 459.719L147.202 448.199L210.294 415.966L262.532 427.486L199.44 459.719Z" fill="#F0F0F0"/>
<path d="M262.351 437.234L199.259 469.467L199.44 459.719L262.532 427.486L262.351 437.234Z" fill="#B1B1B1"/>
<path d="M147.021 457.936L199.259 469.467L199.44 459.719L147.202 448.199L147.021 457.936Z" fill="#C6C6C6"/>
<path d="M230.683 461.884L293.775 429.651L262.619 422.779L199.527 455.012L230.683 461.884Z" fill="#F0F0F0"/>
<path d="M293.688 434.357L230.596 466.59L230.683 461.884L293.775 429.65L293.688 434.357Z" fill="#B1B1B1"/>
<path d="M199.44 459.719L230.596 466.59L230.683 461.884L199.527 455.012L199.44 459.719Z" fill="#C6C6C6"/>
<g style="mix-blend-mode:multiply">
<path d="M199.258 469.467L230.414 476.339L230.596 466.59L199.439 459.719L199.258 469.467Z" fill="#8B8B8B"/>
</g>
<path d="M251.529 480.988L261.696 475.335L251.676 473.125L251.529 480.988Z" fill="#B1B1B1"/>
<path d="M168.124 462.596L178.291 456.932L168.271 454.733L168.124 462.596Z" fill="#B1B1B1"/>
<g style="mix-blend-mode:multiply">
<path d="M168.124 462.596L178.144 464.807L178.291 456.932L168.271 454.733L168.124 462.596Z" fill="#6D6E71"/>
</g>
<g style="mix-blend-mode:multiply">
<path d="M251.529 480.988L261.549 483.198L261.696 475.335L251.676 473.125L251.529 480.988Z" fill="#6D6E71"/>
</g>
<g style="mix-blend-mode:multiply">
<path d="M236.352 463.635L232.379 465.67L232.415 463.707L236.388 461.672L236.352 463.635ZM271.229 477.315L282.801 479.884L282.777 481.156L271.205 478.586L271.229 477.315ZM261.562 482.485L282.677 487.145L282.663 487.859L261.549 483.198L261.562 482.485ZM230.428 475.614L251.542 480.274L251.529 480.988L230.415 476.327L230.428 475.614ZM147.181 450.486L158.753 453.055L158.729 454.326L147.157 451.757L147.181 450.486ZM241.968 458.826L237.995 460.861L237.958 462.824L241.931 460.789L241.968 458.826ZM247.536 455.99L243.563 458.025L243.527 459.988L247.5 457.953L247.536 455.99ZM253.116 453.144L249.143 455.179L249.106 457.142L253.079 455.107L253.116 453.144ZM258.684 450.308L254.711 452.343L254.675 454.306L258.648 452.271L258.684 450.308ZM264.253 447.461L260.28 449.496L260.243 451.459L264.216 449.424L264.253 447.461ZM269.832 444.626L265.859 446.661L265.822 448.624L269.795 446.589L269.832 444.626ZM275.4 441.779L271.428 443.814L271.391 445.777L275.364 443.742L275.4 441.779ZM280.98 438.944L277.007 440.979L276.97 442.942L280.943 440.907L280.98 438.944ZM286.548 436.097L282.575 438.132L282.539 440.095L286.512 438.06L286.548 436.097ZM292.117 433.262L288.144 435.297L288.107 437.26L292.08 435.225L292.117 433.262Z" fill="#B1B1B1"/>
</g>
<g style="mix-blend-mode:multiply">
<path d="M345.744 455.626L282.653 487.859L282.666 487.134L345.758 454.912L345.744 455.626Z" fill="#B1B1B1"/>
</g>
<g opacity="0.7">
<path d="M285.76 449.171L278.041 447.499L285.742 443.693L293.461 445.365L285.76 449.171ZM302.211 447.255L294.492 445.582L286.791 449.389L294.51 451.061L302.211 447.255ZM310.973 449.155L303.253 447.483L295.552 451.289L303.271 452.961L310.973 449.155ZM284.715 449.679L276.996 448.007L261.858 455.479L269.577 457.151L284.715 449.679ZM293.476 451.58L285.757 449.908L270.619 457.379L278.338 459.051L293.476 451.58ZM302.226 453.469L294.507 451.797L279.369 459.268L287.088 460.94L302.226 453.469ZM268.542 457.67L260.823 455.998L253.122 459.804L260.841 461.476L268.542 457.67ZM277.293 459.559L269.574 457.887L261.873 461.693L269.592 463.365L277.293 459.559ZM286.054 461.46L278.335 459.788L270.634 463.594L278.353 465.266L286.054 461.46Z" fill="#064055"/>
<g opacity="0.2">
<path d="M285.76 449.171L278.041 447.499L285.742 443.693L293.461 445.365L285.76 449.171ZM302.211 447.255L294.492 445.582L286.791 449.389L294.51 451.061L302.211 447.255ZM310.973 449.155L303.253 447.483L295.552 451.289L303.271 452.961L310.973 449.155ZM284.715 449.679L276.996 448.007L261.858 455.479L269.577 457.151L284.715 449.679ZM293.476 451.58L285.757 449.908L270.619 457.379L278.338 459.051L293.476 451.58ZM302.226 453.469L294.507 451.797L279.369 459.268L287.088 460.94L302.226 453.469ZM268.542 457.67L260.823 455.998L253.122 459.804L260.841 461.476L268.542 457.67ZM277.293 459.559L269.574 457.887L261.873 461.693L269.592 463.365L277.293 459.559ZM286.054 461.46L278.335 459.788L270.634 463.594L278.353 465.266L286.054 461.46Z" fill="url(#paint0_linear_2001_2999)"/>
</g>
</g>
<g opacity="0.7">
<path d="M216.232 433.62L208.513 431.947L216.214 428.141L223.933 429.813L216.232 433.62ZM232.694 431.714L224.975 430.042L217.274 433.848L224.993 435.52L232.694 431.714ZM241.445 433.614L233.726 431.942L226.025 435.748L233.744 437.42L241.445 433.614ZM215.198 434.139L207.479 432.467L192.341 439.938L200.06 441.61L215.198 434.139ZM223.948 436.028L216.229 434.356L201.091 441.827L208.81 443.499L223.948 436.028ZM232.71 437.928L224.991 436.256L209.853 443.728L217.572 445.4L232.71 437.928ZM199.026 442.118L191.307 440.446L183.606 444.252L191.325 445.924L199.026 442.118ZM207.776 444.019L200.057 442.347L192.356 446.153L200.075 447.825L207.776 444.019ZM216.526 445.919L208.807 444.247L201.106 448.053L208.825 449.725L216.526 445.919Z" fill="#064055"/>
<g opacity="0.2">
<path d="M216.232 433.62L208.513 431.947L216.214 428.141L223.933 429.813L216.232 433.62ZM232.694 431.714L224.975 430.042L217.274 433.848L224.993 435.52L232.694 431.714ZM241.445 433.614L233.726 431.942L226.025 435.748L233.744 437.42L241.445 433.614ZM215.198 434.139L207.479 432.467L192.341 439.938L200.06 441.61L215.198 434.139ZM223.948 436.028L216.229 434.356L201.091 441.827L208.81 443.499L223.948 436.028ZM232.71 437.928L224.991 436.256L209.853 443.728L217.572 445.4L232.71 437.928ZM199.026 442.118L191.307 440.446L183.606 444.252L191.325 445.924L199.026 442.118ZM207.776 444.019L200.057 442.347L192.356 446.153L200.075 447.825L207.776 444.019ZM216.526 445.919L208.807 444.247L201.106 448.053L208.825 449.725L216.526 445.919Z" fill="url(#paint1_linear_2001_2999)"/>
</g>
</g>
<g opacity="0.7">
<path d="M253.746 438.036L246.027 436.364L253.728 432.558L261.447 434.23L253.746 438.036ZM270.208 436.13L262.489 434.458L254.788 438.264L262.507 439.936L270.208 436.13ZM252.712 438.555L244.993 436.883L229.855 444.355L237.574 446.027L252.712 438.555ZM261.462 440.456L253.743 438.783L238.605 446.255L246.324 447.927L261.462 440.456ZM236.529 446.546L228.809 444.874L221.108 448.68L228.827 450.352L236.529 446.546ZM245.29 448.435L237.571 446.763L229.87 450.569L237.589 452.241L245.29 448.435Z" fill="#064055"/>
<g opacity="0.2">
<path d="M253.746 438.036L246.027 436.364L253.728 432.558L261.447 434.23L253.746 438.036ZM270.208 436.13L262.489 434.458L254.788 438.264L262.507 439.936L270.208 436.13ZM252.712 438.555L244.993 436.883L229.855 444.355L237.574 446.027L252.712 438.555ZM261.462 440.456L253.743 438.783L238.605 446.255L246.324 447.927L261.462 440.456ZM236.529 446.546L228.809 444.874L221.108 448.68L228.827 450.352L236.529 446.546ZM245.29 448.435L237.571 446.763L229.87 450.569L237.589 452.241L245.29 448.435Z" fill="url(#paint2_linear_2001_2999)"/>
</g>
</g>
<path d="M102.139 476.911L40.4228 463.356L71.3139 447.575L133.03 461.119L102.139 476.911Z" fill="#F0F0F0"/>
<path d="M40.2661 471.777L101.982 485.332L102.139 476.911L40.4229 463.356L40.2661 471.777Z" fill="#C6C6C6"/>
<path d="M40.4223 463.412L94.4423 475.239L94.5991 466.818L40.5791 454.991L40.4223 463.412Z" fill="#C6C6C6"/>
<path d="M132.874 469.539L101.983 485.332L102.139 476.911L133.031 461.119L132.874 469.539Z" fill="#B1B1B1"/>
<path d="M94.5991 466.818L40.5791 454.991L71.4702 439.21L125.49 451.026L94.5991 466.818Z" fill="#F0F0F0"/>
<path d="M125.333 459.447L94.4416 475.239L94.5984 466.818L125.49 451.026L125.333 459.447Z" fill="#B1B1B1"/>
<g style="mix-blend-mode:multiply">
<path d="M124.155 455.992L96.4773 470.15L96.4893 469.503L124.167 455.356L124.155 455.992Z" fill="#B1B1B1"/>
</g>
<g style="mix-blend-mode:multiply">
<path d="M132.874 469.54L101.983 485.332L101.996 484.607L132.887 468.826L132.874 469.54Z" fill="#B1B1B1"/>
</g>
<g style="mix-blend-mode:multiply">
<path d="M40.266 471.777L101.982 485.332L101.996 484.607L40.2793 471.063L40.266 471.777Z" fill="#B1B1B1"/>
</g>
<g style="mix-blend-mode:multiply">
<path d="M42.0744 459.555L91.8064 470.434L91.8199 469.709L42.0879 458.83L42.0744 459.555Z" fill="#B1B1B1"/>
</g>
<g style="mix-blend-mode:multiply" opacity="0.3">
<path d="M94.5792 465.524L44.0988 454.444L72.149 440.202L122.629 451.282L94.5792 465.524Z" fill="#C4C4C4"/>
</g>
<path d="M180.703 490.686L118.987 477.131L149.889 461.35L211.606 474.894L180.703 490.686Z" fill="#F0F0F0"/>
<path d="M118.785 488.028L180.501 501.583L180.854 482.611L119.138 469.067L118.785 488.028Z" fill="#C6C6C6"/>
<path d="M211.402 485.791L180.5 501.583L180.703 490.686L211.605 474.894L211.402 485.791Z" fill="#B1B1B1"/>
<path d="M180.853 482.611L119.137 469.067L141.72 457.473L203.426 471.017L180.853 482.611Z" fill="#F0F0F0"/>
<g style="mix-blend-mode:multiply" opacity="0.3">
<path d="M180.732 481.515L122.023 468.633L141.558 458.575L200.268 471.458L180.732 481.515Z" fill="#C4C4C4"/>
</g>
<path d="M203.184 484.01L180.612 495.605L180.854 482.611L203.426 471.017L203.184 484.01Z" fill="#B1B1B1"/>
<path d="M118.784 488.028L180.5 501.583L180.632 494.5L118.916 480.945L118.784 488.028Z" fill="#6D6E71"/>
<path d="M211.402 485.791L180.5 501.583L180.572 497.712L211.474 481.932L211.402 485.791Z" fill="#B1B1B1"/>
<path d="M211.55 477.883L180.648 493.664L180.66 493.028L211.562 477.236L211.55 477.883Z" fill="#B1B1B1"/>
<path d="M110.468 482.107L172.185 495.651L172.218 493.844L110.502 480.3L110.468 482.107Z" fill="#C6C6C6"/>
<path d="M172.185 495.651L180.703 491.244L180.737 489.437L172.218 493.844L172.185 495.651Z" fill="#B1B1B1"/>
<path d="M172.219 493.844L110.502 480.3L119.021 475.882L180.738 489.437L172.219 493.844Z" fill="#F0F0F0"/>
<g style="mix-blend-mode:multiply">
<path d="M211.402 485.791L180.5 501.583L180.514 500.858L211.416 485.077L211.402 485.791Z" fill="#B1B1B1"/>
</g>
<g style="mix-blend-mode:multiply">
<path d="M200.983 485.761L183.154 494.875L183.176 493.715L201.004 484.612L200.983 485.761Z" fill="#B1B1B1"/>
</g>
<g style="mix-blend-mode:multiply">
<path d="M201.088 480.095L183.26 489.209L183.281 488.049L201.109 478.946L201.088 480.095Z" fill="#B1B1B1"/>
</g>
<g style="mix-blend-mode:multiply">
<path d="M118.784 488.028L124.027 485.109L118.859 483.968L118.784 488.028Z" fill="#B1B1B1"/>
</g>
</g>
</g>
<path d="M239 135L245.064 440.895C245.232 442.084 246.248 443 247.49 443C248.733 443 249.758 442.084 249.916 440.895L249.936 440.72C249.936 440.671 249.955 440.622 249.955 440.564C249.955 440.564 249.955 440.564 249.955 440.554L256 135H239Z" fill="#4B9E81"/>
<rect x="69.5" y="3.5" width="362" height="139" rx="29.5" fill="white"/>
<rect x="69.5" y="3.5" width="362" height="139" rx="29.5" stroke="#4B9E81" stroke-width="7"/>
<path d="M124.22 64.68C123.607 64.9467 122.98 64.96 122.34 64.72C121.7 64.5067 121.233 64.0933 120.94 63.48C120.673 62.8667 120.647 62.24 120.86 61.6C121.1 60.9333 121.527 60.4667 122.14 60.2C125.153 58.7867 127.38 56.88 128.82 54.48C130.26 52.08 131.02 48.9867 131.1 45.2H125.02C125.047 46.2667 125.06 47.28 125.06 48.24C125.06 49.2 125.033 50.0667 124.98 50.84C124.953 51.5333 124.687 52.1067 124.18 52.56C123.673 52.9867 123.073 53.1867 122.38 53.16C121.713 53.1067 121.167 52.8267 120.74 52.32C120.313 51.7867 120.113 51.1867 120.14 50.52C120.193 49.8 120.22 48.9867 120.22 48.08C120.22 47.1467 120.207 46.1867 120.18 45.2H111.98C111.313 45.2 110.74 44.9733 110.26 44.52C109.807 44.0667 109.58 43.5067 109.58 42.84C109.58 42.1733 109.807 41.6133 110.26 41.16C110.74 40.68 111.313 40.44 111.98 40.44H120.02C119.967 39.5067 119.9 38.6267 119.82 37.8C119.767 36.9467 119.687 36.2 119.58 35.56C119.473 34.8933 119.607 34.2933 119.98 33.76C120.38 33.2 120.913 32.8667 121.58 32.76C122.273 32.6267 122.887 32.76 123.42 33.16C123.98 33.56 124.3 34.0933 124.38 34.76C124.487 35.5067 124.58 36.3733 124.66 37.36C124.74 38.32 124.807 39.3467 124.86 40.44H131.06C131.033 39.2933 130.993 38.1867 130.94 37.12C130.913 36.0267 130.86 35.08 130.78 34.28C130.727 33.5867 130.913 32.9867 131.34 32.48C131.793 31.9467 132.353 31.6533 133.02 31.6C133.713 31.5467 134.313 31.7467 134.82 32.2C135.353 32.6267 135.633 33.1867 135.66 33.88C135.74 34.7067 135.793 35.7067 135.82 36.88C135.873 38.0267 135.913 39.2133 135.94 40.44H143.54C144.207 40.44 144.767 40.68 145.22 41.16C145.7 41.6133 145.94 42.1733 145.94 42.84C145.94 43.5067 145.7 44.0667 145.22 44.52C144.767 44.9733 144.207 45.2 143.54 45.2H135.94C135.86 49.9467 134.833 53.96 132.86 57.24C130.887 60.4933 128.007 62.9733 124.22 64.68ZM155.78 64.28C155.273 63.8267 155.007 63.2667 154.98 62.6C154.953 61.9067 155.167 61.3067 155.62 60.8C157.7 58.56 159.473 56.04 160.94 53.24C162.433 50.4133 163.593 47.36 164.42 44.08C162.927 44.16 161.527 44.24 160.22 44.32C158.94 44.3733 158.1 44.4133 157.7 44.44C157.033 44.4667 156.447 44.2533 155.94 43.8C155.433 43.32 155.167 42.7467 155.14 42.08C155.113 41.3867 155.327 40.7867 155.78 40.28C156.233 39.7733 156.807 39.5067 157.5 39.48C157.793 39.4533 158.353 39.4267 159.18 39.4C160.007 39.3733 160.967 39.3467 162.06 39.32C163.18 39.2667 164.3 39.2133 165.42 39.16C165.74 37.16 165.94 35.0933 166.02 32.96C166.047 32.2667 166.313 31.6933 166.82 31.24C167.327 30.76 167.913 30.5467 168.58 30.6C169.273 30.6267 169.847 30.8933 170.3 31.4C170.78 31.88 170.993 32.4667 170.94 33.16C170.913 34.1467 170.847 35.12 170.74 36.08C170.633 37.04 170.513 38.0133 170.38 39L171.54 38.92C174.447 38.8133 176.687 39.1733 178.26 40C179.833 40.8267 180.847 42.2 181.3 44.12C181.753 46.04 181.727 48.6133 181.22 51.84C180.793 54.56 180.18 56.7733 179.38 58.48C178.607 60.1867 177.66 61.48 176.54 62.36C175.447 63.2133 174.207 63.7333 172.82 63.92C171.433 64.1333 169.927 64.1067 168.3 63.84C167.633 63.7333 167.1 63.4 166.7 62.84C166.3 62.28 166.153 61.6667 166.26 61C166.393 60.3067 166.74 59.7733 167.3 59.4C167.86 59 168.473 58.8667 169.14 59C170.02 59.16 170.82 59.2 171.54 59.12C172.26 59.04 172.913 58.7467 173.5 58.24C174.113 57.7333 174.647 56.9067 175.1 55.76C175.58 54.5867 175.993 52.9867 176.34 50.96C176.713 48.8533 176.82 47.28 176.66 46.24C176.5 45.1733 176.02 44.4667 175.22 44.12C174.447 43.7733 173.273 43.6267 171.7 43.68C171.3 43.68 170.54 43.72 169.42 43.8C168.46 47.8267 167.1 51.6 165.34 55.12C163.58 58.64 161.553 61.6533 159.26 64.16C158.807 64.6667 158.233 64.92 157.54 64.92C156.873 64.9467 156.287 64.7333 155.78 64.28ZM199.5 64.72C198.86 64.9867 198.22 65 197.58 64.76C196.967 64.52 196.513 64.08 196.22 63.44C195.953 62.8267 195.94 62.2 196.18 61.56C196.447 60.92 196.887 60.4667 197.5 60.2C202.993 57.8267 207.513 54.8133 211.06 51.16C210.473 50.5733 209.913 50.04 209.38 49.56C208.847 49.08 208.393 48.6933 208.02 48.4C207.513 47.9467 207.207 47.3867 207.1 46.72C207.02 46.0533 207.193 45.4667 207.62 44.96C208.073 44.4267 208.633 44.12 209.3 44.04C209.993 43.96 210.593 44.1467 211.1 44.6C211.553 44.9467 212.033 45.36 212.54 45.84C213.073 46.2933 213.633 46.7867 214.22 47.32C214.7 46.6267 215.153 45.92 215.58 45.2C216.007 44.48 216.407 43.7467 216.78 43C217.207 42.12 217.287 41.4667 217.02 41.04C216.78 40.5867 216.14 40.36 215.1 40.36H209.66C208.327 42.1467 206.833 43.8667 205.18 45.52C203.527 47.1467 201.953 48.5067 200.46 49.6C199.9 50 199.273 50.1467 198.58 50.04C197.913 49.9067 197.393 49.56 197.02 49C196.62 48.44 196.473 47.8267 196.58 47.16C196.713 46.4933 197.06 45.96 197.62 45.56C199.167 44.44 200.647 43.1733 202.06 41.76C203.5 40.3467 204.793 38.8667 205.94 37.32C207.087 35.7467 208.007 34.2267 208.7 32.76C208.993 32.1467 209.447 31.72 210.06 31.48C210.7 31.2133 211.327 31.2133 211.94 31.48C212.553 31.7467 212.98 32.2133 213.22 32.88C213.487 33.52 213.473 34.1467 213.18 34.76C213.127 34.8933 213.06 35.04 212.98 35.2C212.927 35.3333 212.86 35.4667 212.78 35.6H215.86C217.913 35.6 219.487 35.9867 220.58 36.76C221.7 37.5333 222.327 38.6133 222.46 40C222.593 41.36 222.22 42.92 221.34 44.68C220.353 46.76 219.127 48.7467 217.66 50.64C218.273 51.2267 218.833 51.7867 219.34 52.32C219.847 52.8533 220.273 53.3333 220.62 53.76C221.073 54.2933 221.26 54.9067 221.18 55.6C221.1 56.2933 220.78 56.8667 220.22 57.32C219.687 57.7467 219.073 57.92 218.38 57.84C217.713 57.7333 217.153 57.4267 216.7 56.92C216.433 56.6 216.1 56.2267 215.7 55.8C215.3 55.3733 214.873 54.9333 214.42 54.48C210.26 58.8 205.287 62.2133 199.5 64.72ZM252.5 64.76C251.833 64.76 251.26 64.5067 250.78 64C250.3 63.52 250.06 62.9467 250.06 62.28V46.28C248.353 47.7733 246.593 49.2133 244.78 50.6C242.967 51.9867 241.153 53.2533 239.34 54.4C238.753 54.7467 238.127 54.84 237.46 54.68C236.82 54.52 236.313 54.1467 235.94 53.56C235.593 52.9733 235.5 52.3467 235.66 51.68C235.82 51.0133 236.193 50.5067 236.78 50.16C238.46 49.12 240.207 47.9067 242.02 46.52C243.86 45.1333 245.647 43.6533 247.38 42.08C249.14 40.5067 250.753 38.9333 252.22 37.36C253.713 35.76 254.953 34.2533 255.94 32.84C256.34 32.28 256.873 31.9333 257.54 31.8C258.207 31.6667 258.82 31.8 259.38 32.2C259.94 32.5733 260.287 33.1067 260.42 33.8C260.553 34.4667 260.42 35.08 260.02 35.64C258.633 37.5067 256.953 39.4667 254.98 41.52V62.28C254.98 62.9467 254.74 63.52 254.26 64C253.78 64.5067 253.193 64.76 252.5 64.76ZM281.78 61.44C281.14 61.68 280.5 61.6533 279.86 61.36C279.247 61.0667 278.82 60.6 278.58 59.96C278.34 59.32 278.367 58.6933 278.66 58.08C278.953 57.44 279.42 57 280.06 56.76C282.193 56.0133 284.34 55.0933 286.5 54C288.687 52.9067 290.767 51.72 292.74 50.44C294.74 49.1333 296.553 47.8 298.18 46.44C299.833 45.0533 301.18 43.72 302.22 42.44C302.673 41.9067 303.233 41.6 303.9 41.52C304.593 41.44 305.193 41.6267 305.7 42.08C306.233 42.5067 306.54 43.0667 306.62 43.76C306.7 44.4267 306.513 45.0267 306.06 45.56C304.967 46.8933 303.513 48.32 301.7 49.84C299.887 51.3333 297.86 52.8133 295.62 54.28C293.38 55.7467 291.073 57.1067 288.7 58.36C286.327 59.6133 284.02 60.64 281.78 61.44ZM285.22 45.68C284.207 44.8267 283.073 43.9467 281.82 43.04C280.567 42.1067 279.433 41.3467 278.42 40.76C277.833 40.3867 277.46 39.88 277.3 39.24C277.14 38.5733 277.233 37.9467 277.58 37.36C277.953 36.7733 278.46 36.4 279.1 36.24C279.767 36.0533 280.393 36.1467 280.98 36.52C281.7 36.9733 282.513 37.5333 283.42 38.2C284.353 38.84 285.247 39.48 286.1 40.12C286.98 40.76 287.7 41.3067 288.26 41.76C288.793 42.1867 289.1 42.7467 289.18 43.44C289.287 44.1067 289.127 44.7067 288.7 45.24C288.273 45.7733 287.713 46.0933 287.02 46.2C286.353 46.28 285.753 46.1067 285.22 45.68ZM322.42 64.36C321.78 64.6267 321.14 64.6267 320.5 64.36C319.887 64.12 319.433 63.6933 319.14 63.08C318.873 62.4667 318.86 61.84 319.1 61.2C319.367 60.56 319.807 60.1067 320.42 59.84C324.847 57.8933 328.673 55.48 331.9 52.6C335.127 49.72 337.673 46.44 339.54 42.76C339.993 41.9067 340.073 41.2667 339.78 40.84C339.513 40.4133 338.833 40.2 337.74 40.2H332.42C331.14 41.9067 329.713 43.5733 328.14 45.2C326.567 46.8 324.927 48.1867 323.22 49.36C322.687 49.76 322.073 49.9067 321.38 49.8C320.713 49.6667 320.18 49.32 319.78 48.76C319.407 48.2 319.273 47.5867 319.38 46.92C319.513 46.2267 319.86 45.6933 320.42 45.32C321.913 44.3067 323.367 43.0933 324.78 41.68C326.193 40.2667 327.473 38.7867 328.62 37.24C329.793 35.6667 330.713 34.1333 331.38 32.64C331.647 32.0267 332.1 31.6 332.74 31.36C333.38 31.0933 334.007 31.1067 334.62 31.4C335.233 31.6667 335.66 32.12 335.9 32.76C336.167 33.4 336.153 34.0267 335.86 34.64C335.753 34.9067 335.62 35.1733 335.46 35.44H338.22C341.393 35.44 343.5 36.2533 344.54 37.88C345.607 39.5067 345.473 41.7067 344.14 44.48C342.78 47.3067 340.993 49.9867 338.78 52.52C336.593 55.0533 334.113 57.3333 331.34 59.36C328.567 61.36 325.593 63.0267 322.42 64.36ZM360.3 62.2C359.713 62.4933 359.087 62.5333 358.42 62.32C357.78 62.08 357.313 61.6533 357.02 61.04C356.727 60.4267 356.687 59.8 356.9 59.16C357.14 58.52 357.553 58.0533 358.14 57.76C361.953 55.92 365.34 53.7067 368.3 51.12C371.287 48.5067 373.713 45.68 375.58 42.64C376.753 40.72 376.113 39.76 373.66 39.76H362.74C362.073 39.76 361.5 39.52 361.02 39.04C360.54 38.5333 360.3 37.9467 360.3 37.28C360.3 36.5867 360.54 36 361.02 35.52C361.5 35.04 362.073 34.8 362.74 34.8H373.82C376.22 34.8 378.06 35.24 379.34 36.12C380.62 36.9733 381.313 38.1467 381.42 39.64C381.553 41.1333 381.06 42.8533 379.94 44.8C379.353 45.8667 378.647 46.9333 377.82 48C379.047 49.0133 380.3 50.1333 381.58 51.36C382.887 52.56 384.1 53.7333 385.22 54.88C386.367 56 387.327 56.96 388.1 57.76C388.553 58.24 388.78 58.8267 388.78 59.52C388.78 60.2133 388.527 60.8 388.02 61.28C387.54 61.76 386.953 62 386.26 62C385.567 61.9733 384.98 61.72 384.5 61.24C383.78 60.4933 382.873 59.56 381.78 58.44C380.687 57.2933 379.527 56.12 378.3 54.92C377.073 53.6933 375.887 52.5867 374.74 51.6C372.713 53.7067 370.447 55.6933 367.94 57.56C365.46 59.4 362.913 60.9467 360.3 62.2ZM207.754 109.436C207.367 109.513 207.019 109.446 206.71 109.233C206.401 109.04 206.217 108.759 206.159 108.392C206.12 108.218 206.082 108.025 206.043 107.812C206.004 107.619 205.956 107.406 205.898 107.174C205.299 107.271 204.593 107.377 203.781 107.493C202.988 107.609 202.215 107.715 201.461 107.812C200.707 107.928 200.079 108.025 199.576 108.102C199.093 108.179 198.687 108.102 198.358 107.87C198.029 107.638 197.826 107.29 197.749 106.826C197.71 106.439 197.817 106.091 198.068 105.782C198.339 105.453 198.696 105.27 199.141 105.231L199.576 105.202C199.963 104.622 200.417 103.916 200.939 103.085C201.48 102.254 202.022 101.393 202.563 100.504C202.215 100.175 201.799 99.8177 201.316 99.431C200.833 99.025 200.359 98.6383 199.895 98.271C199.45 97.8843 199.083 97.5847 198.793 97.372C198.484 97.1013 198.319 96.7727 198.3 96.386C198.281 95.9993 198.397 95.6513 198.648 95.342C198.919 95.0133 199.257 94.8297 199.663 94.791C200.088 94.7523 200.465 94.8683 200.794 95.139L200.852 95.197C201.123 94.733 201.413 94.211 201.722 93.631C202.051 93.051 202.35 92.5097 202.621 92.007C202.911 91.485 203.114 91.0983 203.23 90.847C203.269 90.789 203.298 90.731 203.317 90.673C203.356 90.615 203.394 90.5667 203.433 90.528H200.736C200.33 90.528 199.982 90.3927 199.692 90.122C199.402 89.832 199.257 89.484 199.257 89.078C199.257 88.672 199.402 88.324 199.692 88.034C199.982 87.744 200.33 87.599 200.736 87.599H204.68C204.641 87.5603 204.603 87.5217 204.564 87.483C204.525 87.425 204.487 87.367 204.448 87.309C204.371 87.1543 204.245 86.932 204.071 86.642C203.897 86.3327 203.713 86.0233 203.52 85.714C203.346 85.4047 203.201 85.163 203.085 84.989C202.853 84.641 202.795 84.264 202.911 83.858C203.046 83.4327 203.298 83.1233 203.665 82.93C204.09 82.698 204.496 82.6303 204.883 82.727C205.289 82.8237 205.618 83.0653 205.869 83.452C205.966 83.6067 206.111 83.858 206.304 84.206C206.517 84.5347 206.72 84.8633 206.913 85.192C207.126 85.5013 207.261 85.714 207.319 85.83C207.493 86.1393 207.551 86.4583 207.493 86.787C207.454 87.0963 207.329 87.367 207.116 87.599H209.958C210.113 87.251 210.306 86.8063 210.538 86.265C210.789 85.7237 211.021 85.192 211.234 84.67C211.447 84.148 211.601 83.7613 211.698 83.51C211.872 83.0653 212.172 82.7657 212.597 82.611C213.022 82.4563 213.448 82.466 213.873 82.64C214.318 82.8333 214.608 83.133 214.743 83.539C214.898 83.9257 214.888 84.322 214.714 84.728C214.579 85.0373 214.366 85.4723 214.076 86.033C213.805 86.5743 213.535 87.0963 213.264 87.599H217.788C218.194 87.599 218.532 87.744 218.803 88.034C219.093 88.324 219.238 88.672 219.238 89.078C219.238 89.484 219.093 89.832 218.803 90.122C218.532 90.3927 218.194 90.528 217.788 90.528H214.076C214.443 90.702 214.704 90.9727 214.859 91.34C215.014 91.7073 214.994 92.0747 214.801 92.442C214.646 92.7707 214.424 93.2057 214.134 93.747C213.844 94.269 213.544 94.82 213.235 95.4C212.926 95.9607 212.636 96.4633 212.365 96.908C212.578 97.1013 212.79 97.285 213.003 97.459C213.216 97.6137 213.419 97.7683 213.612 97.923C213.979 97.227 214.318 96.5697 214.627 95.951C214.936 95.313 215.188 94.7523 215.381 94.269C215.536 93.9017 215.797 93.66 216.164 93.544C216.551 93.4087 216.928 93.4183 217.295 93.573C217.682 93.7277 217.933 93.9983 218.049 94.385C218.184 94.7717 218.165 95.1487 217.991 95.516C217.624 96.2893 217.15 97.2077 216.57 98.271C215.99 99.3343 215.391 100.427 214.772 101.548C214.173 102.65 213.612 103.646 213.09 104.535L215.613 104.216C215.536 103.965 215.458 103.733 215.381 103.52C215.304 103.288 215.226 103.085 215.149 102.911C215.014 102.563 215.023 102.215 215.178 101.867C215.352 101.519 215.623 101.287 215.99 101.171C216.357 101.036 216.705 101.045 217.034 101.2C217.382 101.335 217.624 101.577 217.759 101.925C217.933 102.37 218.136 102.921 218.368 103.578C218.6 104.235 218.822 104.902 219.035 105.579C219.267 106.236 219.451 106.807 219.586 107.29C219.683 107.677 219.634 108.025 219.441 108.334C219.248 108.663 218.958 108.875 218.571 108.972C218.184 109.088 217.817 109.059 217.469 108.885C217.121 108.711 216.899 108.431 216.802 108.044C216.744 107.87 216.686 107.667 216.628 107.435C216.57 107.222 216.502 107 216.425 106.768C215.826 106.865 215.12 106.981 214.308 107.116C213.515 107.251 212.742 107.377 211.988 107.493C211.234 107.628 210.615 107.735 210.132 107.812C209.629 107.87 209.214 107.793 208.885 107.58L208.943 107.841C209.04 108.228 208.962 108.566 208.711 108.856C208.46 109.165 208.141 109.359 207.754 109.436ZM193.544 108.247C193.157 108.034 192.906 107.725 192.79 107.319C192.693 106.932 192.751 106.555 192.964 106.188C193.293 105.569 193.67 104.815 194.095 103.926C194.52 103.037 194.936 102.138 195.342 101.229C195.748 100.32 196.067 99.547 196.299 98.909C196.473 98.4643 196.753 98.1647 197.14 98.01C197.527 97.8553 197.923 97.865 198.329 98.039C199.16 98.4257 199.412 99.0927 199.083 100.04C198.87 100.717 198.561 101.519 198.155 102.447C197.768 103.375 197.362 104.293 196.937 105.202C196.531 106.111 196.164 106.884 195.835 107.522C195.622 107.928 195.294 108.208 194.849 108.363C194.424 108.518 193.989 108.479 193.544 108.247ZM208.45 105.666C208.701 105.241 209.088 104.999 209.61 104.941L209.813 104.912C210.142 104.351 210.509 103.704 210.915 102.969C211.321 102.234 211.737 101.471 212.162 100.678C211.814 100.369 211.379 100.021 210.857 99.634C210.354 99.228 209.852 98.8317 209.349 98.445C208.866 98.0583 208.469 97.7587 208.16 97.546C208.044 97.4493 207.938 97.343 207.841 97.227C207.396 97.981 206.894 98.8123 206.333 99.721C205.772 100.61 205.202 101.5 204.622 102.389C204.061 103.278 203.53 104.1 203.027 104.854L205.289 104.593C205.231 104.322 205.163 104.081 205.086 103.868C205.028 103.636 204.98 103.423 204.941 103.23C204.825 102.863 204.864 102.515 205.057 102.186C205.25 101.857 205.531 101.645 205.898 101.548C206.285 101.451 206.642 101.49 206.971 101.664C207.3 101.838 207.512 102.109 207.609 102.476C207.744 102.863 207.88 103.346 208.015 103.926C208.17 104.506 208.315 105.086 208.45 105.666ZM204.158 97.894C204.545 97.2753 204.893 96.6953 205.202 96.154C205.511 95.5933 205.772 95.11 205.985 94.704C206.198 94.3367 206.488 94.1047 206.855 94.008C207.242 93.9113 207.609 93.9597 207.957 94.153C208.266 94.327 208.489 94.588 208.624 94.936C208.856 94.8587 209.098 94.8393 209.349 94.878C209.62 94.9167 209.861 95.0133 210.074 95.168C210.306 94.7427 210.548 94.2787 210.799 93.776C211.07 93.2733 211.311 92.7997 211.524 92.355C211.737 91.891 211.901 91.5333 212.017 91.282C212.172 90.934 212.423 90.6827 212.771 90.528H205.637C206.12 91.0113 206.207 91.5527 205.898 92.152C205.724 92.5 205.463 92.964 205.115 93.544C204.786 94.124 204.429 94.7233 204.042 95.342C203.675 95.9413 203.346 96.4827 203.056 96.966C203.249 97.1207 203.443 97.2753 203.636 97.43C203.829 97.5847 204.003 97.7393 204.158 97.894ZM196.27 94.762C196.077 94.6267 195.796 94.443 195.429 94.211C195.062 93.979 194.694 93.747 194.327 93.515C193.96 93.283 193.66 93.0993 193.428 92.964C193.061 92.7513 192.829 92.4517 192.732 92.065C192.635 91.6783 192.693 91.3013 192.906 90.934C193.119 90.5473 193.418 90.296 193.805 90.18C194.211 90.064 194.627 90.1317 195.052 90.383C195.284 90.499 195.584 90.673 195.951 90.905C196.338 91.137 196.715 91.369 197.082 91.601C197.469 91.833 197.768 92.0167 197.981 92.152C198.368 92.384 198.609 92.7127 198.706 93.138C198.803 93.5633 198.716 93.9693 198.445 94.356C198.213 94.7233 197.884 94.9457 197.459 95.023C197.034 95.1003 196.637 95.0133 196.27 94.762ZM197.314 88.266C197.121 88.1113 196.84 87.9277 196.473 87.715C196.125 87.483 195.767 87.251 195.4 87.019C195.033 86.787 194.733 86.6033 194.501 86.468C194.153 86.2553 193.931 85.9557 193.834 85.569C193.737 85.1823 193.786 84.8053 193.979 84.438C194.192 84.0513 194.501 83.8097 194.907 83.713C195.313 83.597 195.729 83.655 196.154 83.887C196.386 84.003 196.676 84.177 197.024 84.409C197.391 84.641 197.759 84.873 198.126 85.105C198.493 85.3177 198.783 85.4917 198.996 85.627C199.383 85.8783 199.624 86.2167 199.721 86.642C199.818 87.048 199.731 87.4443 199.46 87.831C199.228 88.1983 198.899 88.4207 198.474 88.498C198.049 88.5753 197.662 88.498 197.314 88.266ZM226.024 109.407C225.521 109.542 225.077 109.542 224.69 109.407C224.303 109.291 224.033 109.011 223.878 108.566C223.762 108.179 223.791 107.783 223.965 107.377C224.139 106.99 224.439 106.749 224.864 106.652C225.367 106.536 225.927 106.381 226.546 106.188C227.184 105.975 227.832 105.743 228.489 105.492C229.166 105.241 229.775 104.989 230.316 104.738C229.098 104.545 228.228 104.129 227.706 103.491C227.184 102.834 226.923 101.857 226.923 100.562V97.14C226.923 95.5353 227.329 94.4237 228.141 93.805C228.953 93.167 230.345 92.848 232.317 92.848H239.19C241.181 92.848 242.583 93.167 243.395 93.805C244.207 94.4237 244.613 95.5353 244.613 97.14V100.562C244.613 101.877 244.342 102.863 243.801 103.52C243.279 104.158 242.39 104.564 241.133 104.738C241.964 105.125 242.892 105.502 243.917 105.869C244.942 106.236 245.821 106.497 246.556 106.652C247.001 106.749 247.3 106.99 247.455 107.377C247.629 107.783 247.658 108.179 247.542 108.566C247.387 109.011 247.117 109.291 246.73 109.407C246.343 109.542 245.899 109.542 245.396 109.407C244.777 109.233 244.062 108.991 243.25 108.682C242.457 108.392 241.674 108.083 240.901 107.754C240.128 107.425 239.47 107.116 238.929 106.826C238.562 106.613 238.339 106.333 238.262 105.985C238.185 105.618 238.233 105.27 238.407 104.941C238.426 104.922 238.436 104.912 238.436 104.912C238.436 104.893 238.446 104.873 238.465 104.854H232.955C232.994 104.893 233.013 104.922 233.013 104.941C233.187 105.27 233.235 105.618 233.158 105.985C233.1 106.333 232.878 106.613 232.491 106.826C231.95 107.116 231.292 107.425 230.519 107.754C229.746 108.083 228.963 108.392 228.17 108.682C227.377 108.991 226.662 109.233 226.024 109.407ZM225.154 93.979C224.767 94.2303 224.332 94.3463 223.849 94.327C223.366 94.3077 222.989 94.095 222.718 93.689C222.505 93.3603 222.438 92.993 222.515 92.587C222.592 92.1617 222.805 91.8523 223.153 91.659C224.178 91.0983 225.009 90.4603 225.647 89.745C226.285 89.0297 226.788 88.179 227.155 87.193H224.11C223.723 87.193 223.414 87.077 223.182 86.845C222.95 86.5937 222.834 86.294 222.834 85.946C222.834 85.5787 222.95 85.2693 223.182 85.018C223.414 84.7667 223.723 84.641 224.11 84.641H227.735C227.774 84.4863 227.793 84.322 227.793 84.148C227.812 83.9547 227.832 83.771 227.851 83.597C227.89 83.0943 228.083 82.7367 228.431 82.524C228.779 82.3113 229.175 82.2243 229.62 82.263C230.026 82.3017 230.364 82.466 230.635 82.756C230.906 83.046 231.022 83.4327 230.983 83.916C230.964 84.0513 230.944 84.177 230.925 84.293C230.925 84.409 230.915 84.525 230.896 84.641H232.723C233.883 84.641 234.734 84.931 235.275 85.511C235.836 86.0717 236.039 86.9803 235.884 88.237C235.749 89.3583 235.507 90.2187 235.159 90.818C234.83 91.4173 234.357 91.833 233.738 92.065C233.139 92.297 232.356 92.413 231.389 92.413C230.983 92.413 230.635 92.297 230.345 92.065C230.074 91.8137 229.92 91.4753 229.881 91.05C229.862 90.6633 229.968 90.3347 230.2 90.064C230.432 89.774 230.732 89.6193 231.099 89.6C231.737 89.5613 232.143 89.4743 232.317 89.339C232.51 89.2037 232.655 88.8653 232.752 88.324C232.829 87.8987 232.81 87.6087 232.694 87.454C232.578 87.28 232.269 87.193 231.766 87.193H230.287C229.804 88.701 229.127 90.0253 228.257 91.166C227.387 92.2873 226.353 93.225 225.154 93.979ZM241.829 91.775C240.766 91.775 239.905 91.6687 239.248 91.456C238.61 91.224 238.146 90.8277 237.856 90.267C237.585 89.687 237.45 88.8653 237.45 87.802C237.45 86.7193 237.585 85.8977 237.856 85.337C238.146 84.757 238.61 84.3607 239.248 84.148C239.905 83.916 240.766 83.8 241.829 83.8H243.511C244.594 83.8 245.454 83.916 246.092 84.148C246.73 84.3607 247.184 84.757 247.455 85.337C247.745 85.8977 247.89 86.7193 247.89 87.802C247.89 88.8653 247.745 89.687 247.455 90.267C247.184 90.8277 246.73 91.224 246.092 91.456C245.454 91.6687 244.594 91.775 243.511 91.775H241.829ZM230.374 99.402H241.133V98.242H230.374V99.402ZM241.974 89.223H243.366C244.023 89.223 244.449 89.136 244.642 88.962C244.835 88.7687 244.932 88.382 244.932 87.802C244.932 87.2027 244.835 86.816 244.642 86.642C244.449 86.4487 244.023 86.352 243.366 86.352H241.974C241.317 86.352 240.891 86.4487 240.698 86.642C240.505 86.816 240.408 87.2027 240.408 87.802C240.408 88.382 240.505 88.7687 240.698 88.962C240.891 89.136 241.317 89.223 241.974 89.223ZM232.375 102.505H239.161C239.857 102.505 240.34 102.428 240.611 102.273C240.882 102.118 241.046 101.809 241.104 101.345H230.432C230.471 101.809 230.625 102.118 230.896 102.273C231.186 102.428 231.679 102.505 232.375 102.505ZM230.432 96.299H241.104C241.027 95.8737 240.853 95.5933 240.582 95.458C240.311 95.3033 239.838 95.226 239.161 95.226H232.375C231.698 95.226 231.215 95.3033 230.925 95.458C230.654 95.5933 230.49 95.8737 230.432 96.299ZM253.632 106.884C253.168 106.884 252.772 106.72 252.443 106.391C252.114 106.062 251.95 105.666 251.95 105.202C251.95 104.738 252.114 104.351 252.443 104.042C252.772 103.713 253.168 103.549 253.632 103.549H263.405V89.107H255.43C254.966 89.107 254.57 88.9523 254.241 88.643C253.912 88.3143 253.748 87.918 253.748 87.454C253.748 86.99 253.912 86.5937 254.241 86.265C254.57 85.9363 254.966 85.772 255.43 85.772H275.15C275.614 85.772 276.01 85.9363 276.339 86.265C276.668 86.5937 276.832 86.99 276.832 87.454C276.832 87.918 276.668 88.3143 276.339 88.643C276.01 88.9523 275.614 89.107 275.15 89.107H267.175V103.549H276.977C277.441 103.549 277.828 103.713 278.137 104.042C278.466 104.351 278.63 104.738 278.63 105.202C278.63 105.666 278.466 106.062 278.137 106.391C277.828 106.72 277.441 106.884 276.977 106.884H253.632ZM301.946 109.262C301.463 109.262 301.057 109.146 300.728 108.914C300.419 108.701 300.235 108.353 300.177 107.87C300.138 107.425 300.254 107.039 300.525 106.71C300.815 106.381 301.173 106.207 301.598 106.188C302.236 106.149 302.671 106.062 302.903 105.927C303.154 105.792 303.348 105.492 303.483 105.028C303.599 104.661 303.715 104.197 303.831 103.636C303.947 103.075 304.044 102.495 304.121 101.896C304.198 101.393 304.179 101.026 304.063 100.794C303.947 100.562 303.715 100.407 303.367 100.33C302.922 101.413 302.333 102.495 301.598 103.578C300.883 104.661 300.08 105.676 299.191 106.623C298.321 107.551 297.422 108.344 296.494 109.001C296.165 109.233 295.788 109.349 295.363 109.349C294.938 109.349 294.59 109.194 294.319 108.885C294.068 108.614 293.942 108.295 293.942 107.928C293.961 107.561 294.116 107.271 294.406 107.058C295.721 106.053 296.9 104.97 297.944 103.81C298.988 102.65 299.829 101.471 300.467 100.272H299.162C298.621 101.258 297.925 102.234 297.074 103.201C296.223 104.148 295.305 105.028 294.319 105.84C293.333 106.652 292.357 107.309 291.39 107.812C291.023 108.005 290.636 108.054 290.23 107.957C289.843 107.88 289.544 107.657 289.331 107.29C289.157 106.981 289.118 106.652 289.215 106.304C289.312 105.937 289.515 105.666 289.824 105.492C291.023 104.873 292.192 104.09 293.333 103.143C294.474 102.196 295.411 101.239 296.146 100.272H294.58C294.019 100.91 293.42 101.519 292.782 102.099C292.163 102.66 291.535 103.182 290.897 103.665C290.568 103.897 290.191 104.003 289.766 103.984C289.341 103.965 289.002 103.8 288.751 103.491C288.538 103.201 288.442 102.872 288.461 102.505C288.5 102.118 288.674 101.828 288.983 101.635C289.331 101.384 289.679 101.113 290.027 100.823C290.394 100.514 290.752 100.204 291.1 99.895C291.042 99.9337 290.984 99.9723 290.926 100.011C290.868 100.05 290.8 100.088 290.723 100.127C290.124 100.398 289.389 100.717 288.519 101.084C287.649 101.432 286.769 101.77 285.88 102.099C284.991 102.428 284.227 102.698 283.589 102.911C283.106 103.085 282.661 103.056 282.255 102.824C281.868 102.592 281.607 102.263 281.472 101.838C281.337 101.393 281.366 100.987 281.559 100.62C281.752 100.233 282.091 99.9723 282.574 99.837C283.251 99.663 284.034 99.4407 284.923 99.17V91.833H282.806C282.342 91.833 281.975 91.688 281.704 91.398C281.433 91.108 281.298 90.76 281.298 90.354C281.298 89.9287 281.433 89.571 281.704 89.281C281.975 88.991 282.342 88.846 282.806 88.846H284.923V84.38C284.923 83.8773 285.078 83.4907 285.387 83.22C285.696 82.93 286.083 82.785 286.547 82.785C287.011 82.785 287.398 82.93 287.707 83.22C288.016 83.4907 288.171 83.8773 288.171 84.38V88.846H290.085C290.53 88.846 290.887 88.991 291.158 89.281C291.429 89.571 291.564 89.9287 291.564 90.354C291.564 90.76 291.429 91.108 291.158 91.398C290.887 91.688 290.53 91.833 290.085 91.833H288.171V98.068C288.461 97.952 288.741 97.8457 289.012 97.749C289.283 97.633 289.544 97.5267 289.795 97.43C290.162 97.2753 290.52 97.2753 290.868 97.43C291.235 97.5847 291.477 97.8457 291.593 98.213C291.767 98.793 291.699 99.2667 291.39 99.634C292.434 98.6287 293.333 97.6233 294.087 96.618H291.506C291.139 96.618 290.839 96.4923 290.607 96.241C290.394 95.9703 290.288 95.661 290.288 95.313C290.288 94.965 290.394 94.6653 290.607 94.414C290.839 94.1433 291.139 94.008 291.506 94.008H307.224C307.611 94.008 307.91 94.1433 308.123 94.414C308.355 94.6653 308.471 94.965 308.471 95.313C308.471 95.661 308.355 95.9703 308.123 96.241C307.91 96.4923 307.611 96.618 307.224 96.618H297.19C297.074 96.8113 296.958 97.0143 296.842 97.227C296.726 97.4203 296.6 97.6233 296.465 97.836H303.454C304.827 97.836 305.832 98.1357 306.47 98.735C307.108 99.3343 307.35 100.34 307.195 101.751C307.06 103.375 306.818 104.844 306.47 106.159C306.199 107.242 305.697 108.025 304.962 108.508C304.247 109.011 303.241 109.262 301.946 109.262ZM297.973 92.993C296.678 92.993 295.663 92.8577 294.928 92.587C294.193 92.297 293.671 91.804 293.362 91.108C293.072 90.3927 292.927 89.397 292.927 88.121C292.927 86.8257 293.072 85.83 293.362 85.134C293.671 84.438 294.193 83.9547 294.928 83.684C295.663 83.394 296.678 83.249 297.973 83.249H300.438C301.733 83.249 302.748 83.394 303.483 83.684C304.218 83.9547 304.74 84.438 305.049 85.134C305.358 85.83 305.513 86.8257 305.513 88.121C305.513 89.397 305.358 90.3927 305.049 91.108C304.74 91.804 304.218 92.297 303.483 92.587C302.748 92.8577 301.733 92.993 300.438 92.993H297.973ZM298.321 90.499H300.148C300.921 90.499 301.463 90.4217 301.772 90.267C302.081 90.1123 302.265 89.745 302.323 89.165H296.117C296.175 89.745 296.359 90.1123 296.668 90.267C296.997 90.4217 297.548 90.499 298.321 90.499ZM296.117 86.99H302.323C302.246 86.4293 302.052 86.0813 301.743 85.946C301.434 85.7913 300.902 85.714 300.148 85.714H298.321C297.548 85.714 297.006 85.7913 296.697 85.946C296.388 86.0813 296.194 86.4293 296.117 86.99Z" fill="#007440"/>
<rect x="75" y="9" width="351" height="128" rx="24" fill="white"/>
<rect x="75" y="9" width="351" height="128" rx="24" stroke="#007440" stroke-width="4"/>
<defs>
<linearGradient id="paint0_linear_2001_2999" x1="251.426" y1="453.795" x2="309.179" y2="455.265" gradientUnits="userSpaceOnUse">
<stop stop-color="white" stop-opacity="0.02"/>
<stop offset="0.06" stop-color="white" stop-opacity="0.0121"/>
<stop offset="0.2" stop-color="white" stop-opacity="0.1225"/>
<stop offset="0.39" stop-color="white" stop-opacity="0.5329"/>
<stop offset="0.52" stop-color="white"/>
<stop offset="0.56" stop-color="white" stop-opacity="0.02"/>
<stop offset="1" stop-color="white"/>
</linearGradient>
<linearGradient id="paint1_linear_2001_2999" x1="182.159" y1="438.263" x2="239.901" y2="439.732" gradientUnits="userSpaceOnUse">
<stop stop-color="white" stop-opacity="0.02"/>
<stop offset="0.06" stop-color="white" stop-opacity="0.0121"/>
<stop offset="0.2" stop-color="white" stop-opacity="0.1225"/>
<stop offset="0.39" stop-color="white" stop-opacity="0.5329"/>
<stop offset="0.52" stop-color="white"/>
<stop offset="0.56" stop-color="white" stop-opacity="0.02"/>
<stop offset="1" stop-color="white"/>
</linearGradient>
<linearGradient id="paint2_linear_2001_2999" x1="219.625" y1="441.832" x2="268.608" y2="443.078" gradientUnits="userSpaceOnUse">
<stop stop-color="white" stop-opacity="0.02"/>
<stop offset="0.06" stop-color="white" stop-opacity="0.0121"/>
<stop offset="0.2" stop-color="white" stop-opacity="0.1225"/>
<stop offset="0.39" stop-color="white" stop-opacity="0.5329"/>
<stop offset="0.52" stop-color="white"/>
<stop offset="0.56" stop-color="white" stop-opacity="0.02"/>
<stop offset="1" stop-color="white"/>
</linearGradient>
<clipPath id="clip0_2001_2999">
<rect width="460" height="116" fill="white" transform="translate(0 416)"/>
</clipPath>
<clipPath id="clip1_2001_2999">
<rect width="459.634" height="114.912" fill="white" transform="matrix(0.999876 0.0157153 -0.0186141 0.999827 0 412.66)"/>
</clipPath>
<clipPath id="clip2_2001_2999">
<rect width="17.4686" height="24.3831" fill="white" transform="matrix(0.999876 0.0157153 -0.0186141 0.999827 376.492 430.538)"/>
</clipPath>
<clipPath id="clip3_2001_2999">
<rect width="17.4686" height="24.3831" fill="white" transform="matrix(0.999876 0.0157153 -0.0186141 0.999827 391.882 433.558)"/>
</clipPath>
<clipPath id="clip4_2001_2999">
<rect width="17.4686" height="24.3831" fill="white" transform="matrix(0.999876 0.0157153 -0.0186141 0.999827 408.366 436.338)"/>
</clipPath>
<clipPath id="clip5_2001_2999">
<rect width="13.5686" height="9.66339" fill="white" transform="matrix(0.999876 0.0157153 -0.0186141 0.999827 312.686 435.024)"/>
</clipPath>
<clipPath id="clip6_2001_2999">
<rect width="13.5687" height="9.66339" fill="white" transform="matrix(0.999876 0.0157153 -0.0186141 0.999827 328.547 437.281)"/>
</clipPath>
<clipPath id="clip7_2001_2999">
<rect width="13.5687" height="9.66339" fill="white" transform="matrix(0.999876 0.0157153 -0.0186141 0.999827 345.693 439.604)"/>
</clipPath>
<clipPath id="clip8_2001_2999">
<rect width="13.5687" height="9.66339" fill="white" transform="matrix(0.999876 0.0157153 -0.0186141 0.999827 403.019 457.764)"/>
</clipPath>
<clipPath id="clip9_2001_2999">
<rect width="13.5686" height="9.66339" fill="white" transform="matrix(0.999876 0.0157153 -0.0186141 0.999827 394.337 463.318)"/>
</clipPath>
<clipPath id="clip10_2001_2999">
<rect width="13.5687" height="9.66339" fill="white" transform="matrix(0.999876 0.0157153 -0.0186141 0.999827 385.654 468.871)"/>
</clipPath>
<clipPath id="clip11_2001_2999">
<rect width="13.5686" height="9.66339" fill="white" transform="matrix(0.999876 0.0157153 -0.0186141 0.999827 376.973 474.425)"/>
</clipPath>
<clipPath id="clip12_2001_2999">
<rect width="13.5687" height="9.66339" fill="white" transform="matrix(0.999876 0.0157153 -0.0186141 0.999827 368.291 479.978)"/>
</clipPath>
<clipPath id="clip13_2001_2999">
<rect width="13.5687" height="9.66339" fill="white" transform="matrix(0.999876 0.0157153 -0.0186141 0.999827 359.608 485.532)"/>
</clipPath>
<clipPath id="clip14_2001_2999">
<rect width="13.5686" height="9.66339" fill="white" transform="matrix(0.999876 0.0157153 -0.0186141 0.999827 350.927 491.085)"/>
</clipPath>
<clipPath id="clip15_2001_2999">
<rect width="13.5686" height="9.66339" fill="white" transform="matrix(0.999876 0.0157153 -0.0186141 0.999827 340.962 496.485)"/>
</clipPath>
<clipPath id="clip16_2001_2999">
<rect width="13.5687" height="9.66339" fill="white" transform="matrix(0.999876 0.0157153 -0.0186141 0.999827 330.996 501.884)"/>
</clipPath>
<clipPath id="clip17_2001_2999">
<rect width="17.4686" height="24.3831" fill="white" transform="matrix(0.999876 0.0157153 -0.0186141 0.999827 376.502 430.014)"/>
</clipPath>
<clipPath id="clip18_2001_2999">
<rect width="17.4686" height="24.3831" fill="white" transform="matrix(0.999876 0.0157153 -0.0186141 0.999827 391.893 433.022)"/>
</clipPath>
<clipPath id="clip19_2001_2999">
<rect width="17.4686" height="24.3831" fill="white" transform="matrix(0.999876 0.0157153 -0.0186141 0.999827 408.376 435.803)"/>
</clipPath>
<clipPath id="clip20_2001_2999">
<rect width="13.5686" height="9.66339" fill="white" transform="matrix(0.999876 0.0157153 -0.0186141 0.999827 312.695 434.489)"/>
</clipPath>
<clipPath id="clip21_2001_2999">
<rect width="13.5687" height="9.66339" fill="white" transform="matrix(0.999876 0.0157153 -0.0186141 0.999827 328.557 436.746)"/>
</clipPath>
<clipPath id="clip22_2001_2999">
<rect width="13.5687" height="9.66339" fill="white" transform="matrix(0.999876 0.0157153 -0.0186141 0.999827 345.704 439.068)"/>
</clipPath>
<clipPath id="clip23_2001_2999">
<rect width="13.5687" height="9.66339" fill="white" transform="matrix(0.999876 0.0157153 -0.0186141 0.999827 403.028 457.229)"/>
</clipPath>
<clipPath id="clip24_2001_2999">
<rect width="13.5686" height="9.66339" fill="white" transform="matrix(0.999876 0.0157153 -0.0186141 0.999827 394.347 462.782)"/>
</clipPath>
<clipPath id="clip25_2001_2999">
<rect width="13.5687" height="9.66339" fill="white" transform="matrix(0.999876 0.0157153 -0.0186141 0.999827 385.665 468.336)"/>
</clipPath>
<clipPath id="clip26_2001_2999">
<rect width="13.5686" height="9.66339" fill="white" transform="matrix(0.999876 0.0157153 -0.0186141 0.999827 376.982 473.889)"/>
</clipPath>
<clipPath id="clip27_2001_2999">
<rect width="13.5687" height="9.66339" fill="white" transform="matrix(0.999876 0.0157153 -0.0186141 0.999827 368.301 479.443)"/>
</clipPath>
<clipPath id="clip28_2001_2999">
<rect width="13.5687" height="9.66339" fill="white" transform="matrix(0.999876 0.0157153 -0.0186141 0.999827 359.619 484.996)"/>
</clipPath>
<clipPath id="clip29_2001_2999">
<rect width="13.5686" height="9.66339" fill="white" transform="matrix(0.999876 0.0157153 -0.0186141 0.999827 350.937 490.55)"/>
</clipPath>
<clipPath id="clip30_2001_2999">
<rect width="13.5686" height="9.66339" fill="white" transform="matrix(0.999876 0.0157153 -0.0186141 0.999827 340.972 495.949)"/>
</clipPath>
<clipPath id="clip31_2001_2999">
<rect width="13.5687" height="9.66339" fill="white" transform="matrix(0.999876 0.0157153 -0.0186141 0.999827 331.006 501.36)"/>
</clipPath>
</defs>
</svg>
