<svg width="532" height="116" viewBox="0 0 532 116" fill="none" xmlns="http://www.w3.org/2000/svg">
<path d="M64.3975 26.2506C48.9069 24.4913 24.6578 32.1826 10.248 43.4376C-4.16183 54.6926 -3.26121 65.2484 12.2294 66.9852L467.603 115.749C483.116 117.509 507.342 109.817 521.752 98.5624C536.162 87.3074 535.261 76.7516 519.771 75.0148L64.3975 26.2506Z" fill="#FAD764"/>
<g clip-path="url(#clip0_1_1994)">
<path opacity="0.2" d="M209.269 86.227L93.8903 44.237L129.089 32.1662L244.468 74.1562L209.269 86.227Z" fill="black"/>
<path d="M236.425 73.8336L240.793 75.4175L241.017 51.8675L236.649 50.2836L236.425 73.8336Z" fill="#B1B1B1"/>
<path d="M244.468 74.1562L240.793 75.4175L241.017 51.8675L244.692 50.6062L244.468 74.1562Z" fill="#C6C6C6"/>
<path d="M92.3921 43.6913L96.7599 45.2882L96.8145 39.5335L92.4466 37.9496L92.3921 43.6913Z" fill="#B1B1B1"/>
<path d="M100.435 44.0268L96.7599 45.2882L96.8145 39.5335L100.489 38.2722L100.435 44.0268Z" fill="#C6C6C6"/>
<path d="M93.4811 40.5L210.337 83.0355L209.324 80.4723L92.4466 37.9496L93.4811 40.5Z" fill="#B1B1B1"/>
<path d="M204.901 84.6431L209.269 86.227L209.324 80.4724L204.956 78.8884L204.901 84.6431Z" fill="#B1B1B1"/>
<path d="M239.88 71.1962L211.798 80.8199L211.813 79.1739L239.896 69.5502L239.88 71.1962Z" fill="#C6C6C6"/>
<path d="M239.896 69.5501L211.813 79.1738L209.492 78.2963L237.575 68.6856L239.896 69.5501Z" fill="white"/>
<path d="M212.944 84.9656L209.269 86.2269L209.324 80.4723L213.003 78.7314L212.944 84.9656Z" fill="#C6C6C6"/>
<path d="M250.436 45.4629L210.337 83.0354L209.324 80.4723L249.402 42.8995L250.436 45.4629Z" fill="#C6C6C6"/>
<path d="M209.324 80.4723L249.402 42.8996L132.546 0.377019L92.4466 37.9496L209.324 80.4723Z" fill="#F0F0F0"/>
<path d="M197.532 42.3297L196.914 40.5092L205.884 32.4152L209.021 31.9783L212.587 33.2954L201.119 43.647L197.553 42.3299L197.532 42.3297ZM189.223 54.3705L200.692 44.0188L197.126 42.7018L193.988 43.1386L185.018 51.2326L185.636 53.0532L189.202 54.3703L189.223 54.3705ZM213.009 33.442L201.541 43.7936L206.985 45.8025L218.453 35.4509L213.009 33.442ZM165.259 60.676L176.727 50.3244L171.283 48.3155L159.815 58.6671L165.259 60.676ZM183.158 37.5788L171.689 47.9304L177.133 49.9394L188.601 39.5878L183.158 37.5788ZM195.053 26.8424L183.585 37.194L189.029 39.203L200.497 28.8514L195.053 26.8424ZM183.215 67.2755L194.683 56.9239L189.239 54.915L177.771 65.2666L183.215 67.2755ZM201.171 73.8751L212.639 63.5235L207.196 61.5146L195.727 71.8662L201.171 73.8751ZM230.944 40.0413L219.476 50.3929L224.92 52.4019L236.388 42.0503L230.944 40.0413ZM219.07 50.7779L207.601 61.1296L213.045 63.1385L224.514 52.7869L219.07 50.7779ZM219.054 50.2463L230.522 39.8947L226.956 38.5777L223.819 39.0145L214.849 47.1085L215.467 48.9291L219.033 50.2461L219.054 50.2463ZM207.179 60.983L218.648 50.6314L215.082 49.3143L211.944 49.7511L202.974 57.8451L203.592 59.6657L207.158 60.9828L207.179 60.983ZM201.114 44.1784L189.645 54.53L195.089 56.5389L206.558 46.1873L201.114 44.1784ZM224.936 52.9464L213.467 63.298L217.033 64.6151L220.171 64.1782L229.141 56.0843L228.523 54.2637L224.957 52.9466L224.936 52.9464ZM206.752 61.3678L203.186 60.0507L200.049 60.4876L191.079 68.5815L191.697 70.4021L195.263 71.7192L206.731 61.3676L206.752 61.3678ZM183.163 37.0345L194.631 26.6829L191.065 25.3658L187.928 25.8027L178.958 33.8967L179.576 35.7172L183.142 37.0343L183.163 37.0345ZM195.105 57.0835L183.637 67.4351L187.203 68.7522L190.34 68.3153L199.31 60.2213L198.692 58.4008L195.126 57.0837L195.105 57.0835ZM206.98 46.3339L195.511 56.6855L199.077 58.0026L202.215 57.5657L211.185 49.4717L210.567 47.6512L207.001 46.3341L206.98 46.3339ZM240.397 43.5141L236.831 42.197L225.363 52.5486L228.929 53.8657L232.067 53.4289L241.036 45.3349L240.418 43.5143L240.397 43.5141ZM213.061 63.683L201.593 74.0346L205.159 75.3517L208.296 74.9148L217.266 66.8209L216.648 65.0003L213.082 63.6832L213.061 63.683ZM218.875 35.5975L207.407 45.9491L210.973 47.2662L214.11 46.8293L223.08 38.7353L222.462 36.9148L218.896 35.5977L218.875 35.5975ZM188.796 54.7553L185.23 53.4382L182.093 53.875L173.123 61.969L173.741 63.7896L177.307 65.1067L188.775 54.7551L188.796 54.7553ZM170.84 48.1557L167.274 46.8386L164.137 47.2755L155.167 55.3695L155.785 57.19L159.351 58.5071L170.819 48.1555L170.84 48.1557ZM171.267 47.7709L182.736 37.4193L179.17 36.1022L176.032 36.5391L167.062 44.6331L167.68 46.4536L171.246 47.7707L171.267 47.7709ZM177.149 50.471L165.681 60.8226L169.247 62.1396L172.384 61.7028L181.354 53.6088L180.736 51.7882L177.17 50.4712L177.149 50.471ZM200.919 28.9979L189.451 39.3495L193.016 40.6666L196.154 40.2298L205.124 32.1358L204.506 30.3152L200.94 28.9981L200.919 28.9979ZM189.045 39.7346L177.576 50.0862L181.142 51.4032L184.28 50.9664L193.25 42.8724L192.632 41.0518L189.066 39.7348L189.045 39.7346Z" fill="#036E9D" stroke="white" stroke-width="0.117363" stroke-miterlimit="10"/>
<path d="M143.41 22.4249L142.793 20.6044L151.762 12.5104L154.9 12.0735L158.466 13.3906L146.997 23.7422L143.432 22.4251L143.41 22.4249ZM135.102 34.4786L146.57 24.127L143.004 22.8099L139.867 23.2468L130.897 31.3408L131.515 33.1613L135.081 34.4784L135.102 34.4786ZM158.888 13.5372L147.42 23.8888L152.863 25.8977L164.332 15.5461L158.888 13.5372ZM111.137 40.7712L122.606 30.4196L117.162 28.4107L105.694 38.7623L111.137 40.7712ZM129.036 17.6741L117.568 28.0257L123.012 30.0346L134.48 19.683L129.036 17.6741ZM140.932 6.93764L129.463 17.2892L134.907 19.2982L146.376 8.94657L140.932 6.93764ZM129.093 47.3707L140.562 37.0191L135.118 35.0102L123.65 45.3618L129.093 47.3707ZM147.049 53.9703L158.518 43.6187L153.074 41.6098L141.606 51.9614L147.049 53.9703ZM176.823 20.1365L165.354 30.4882L170.798 32.4971L182.267 22.1455L176.823 20.1365ZM164.949 30.8732L153.48 41.2248L158.924 43.2337L170.392 32.8821L164.949 30.8732ZM164.954 30.3418L176.422 19.9902L172.856 18.6731L169.718 19.11L160.749 27.2039L161.367 29.0245L164.932 30.3416L164.954 30.3418ZM153.058 41.0782L164.526 30.7266L160.961 29.4095L157.823 29.8464L148.853 37.9403L149.471 39.7609L153.037 41.078L153.058 41.0782ZM146.992 24.2736L135.524 34.6252L140.968 36.6341L152.436 26.2825L146.992 24.2736ZM170.814 33.0416L159.346 43.3932L162.912 44.7103L166.049 44.2734L175.019 36.1795L174.401 34.3589L170.835 33.0418L170.814 33.0416ZM152.631 41.463L149.065 40.1459L145.927 40.5828L136.958 48.6768L137.575 50.4973L141.141 51.8144L152.61 41.4628L152.631 41.463ZM129.041 17.1297L140.51 6.7781L136.944 5.46102L133.806 5.89788L124.837 13.9919L125.454 15.8124L129.02 17.1295L129.041 17.1297ZM140.984 37.1787L129.515 47.5303L133.081 48.8474L136.219 48.4105L145.189 40.3165L144.571 38.496L141.005 37.1789L140.984 37.1787ZM152.858 26.4421L141.39 36.7937L144.956 38.1108L148.093 37.6739L157.063 29.5799L156.445 27.7594L152.879 26.4423L152.858 26.4421ZM186.276 23.6093L182.71 22.2923L171.241 32.6439L174.807 33.9609L177.945 33.5241L186.915 25.4301L186.297 23.6095L186.276 23.6093ZM158.94 43.7782L147.471 54.1299L151.037 55.4469L154.175 55.0101L163.145 46.9161L162.527 45.0955L158.961 43.7785L158.94 43.7782ZM164.754 15.6927L153.285 26.0443L156.851 27.3614L159.989 26.9245L168.959 18.8305L168.341 17.01L164.775 15.6929L164.754 15.6927ZM134.675 34.8505L131.109 33.5334L127.971 33.9703L119.002 42.0642L119.619 43.8848L123.185 45.2019L134.654 34.8503L134.675 34.8505ZM116.719 28.2509L113.153 26.9338L110.015 27.3707L101.045 35.4647L101.663 37.2853L105.229 38.6023L116.698 28.2507L116.719 28.2509ZM117.146 27.8661L128.614 17.5145L125.049 16.1974L121.911 16.6343L112.941 24.7283L113.559 26.5488L117.125 27.8659L117.146 27.8661ZM123.028 30.5662L111.559 40.9178L115.125 42.2349L118.263 41.798L127.233 33.704L126.615 31.8835L123.049 30.5664L123.028 30.5662ZM146.798 9.09315L135.329 19.4448L138.895 20.7618L142.033 20.325L151.003 12.231L150.385 10.4104L146.819 9.09336L146.798 9.09315ZM134.923 19.8298L123.455 30.1814L127.021 31.4984L130.159 31.0616L139.128 22.9676L138.51 21.147L134.944 19.83L134.923 19.8298Z" fill="#036E9D" stroke="white" stroke-width="0.117363" stroke-miterlimit="10"/>
</g>
<g clip-path="url(#clip1_1_1994)">
<path opacity="0.2" d="M405.269 106.227L289.89 64.237L325.089 52.1662L440.468 94.1562L405.269 106.227Z" fill="black"/>
<path d="M432.425 93.8336L436.793 95.4175L437.017 71.8675L432.649 70.2836L432.425 93.8336Z" fill="#B1B1B1"/>
<path d="M440.468 94.1562L436.793 95.4175L437.017 71.8675L440.692 70.6062L440.468 94.1562Z" fill="#C6C6C6"/>
<path d="M288.392 63.6913L292.76 65.2882L292.814 59.5335L288.447 57.9496L288.392 63.6913Z" fill="#B1B1B1"/>
<path d="M296.435 64.0268L292.76 65.2882L292.814 59.5335L296.489 58.2722L296.435 64.0268Z" fill="#C6C6C6"/>
<path d="M289.481 60.5L406.337 103.035L405.324 100.472L288.447 57.9496L289.481 60.5Z" fill="#B1B1B1"/>
<path d="M400.901 104.643L405.269 106.227L405.324 100.472L400.956 98.8884L400.901 104.643Z" fill="#B1B1B1"/>
<path d="M435.88 91.1962L407.798 100.82L407.813 99.1739L435.896 89.5502L435.88 91.1962Z" fill="#C6C6C6"/>
<path d="M435.896 89.5501L407.813 99.1738L405.492 98.2963L433.575 88.6856L435.896 89.5501Z" fill="white"/>
<path d="M408.944 104.966L405.269 106.227L405.324 100.472L409.003 98.7314L408.944 104.966Z" fill="#C6C6C6"/>
<path d="M446.436 65.4629L406.337 103.035L405.324 100.472L445.402 62.8995L446.436 65.4629Z" fill="#C6C6C6"/>
<path d="M405.324 100.472L445.402 62.8996L328.546 20.377L288.447 57.9496L405.324 100.472Z" fill="#F0F0F0"/>
<path d="M393.532 62.3297L392.914 60.5092L401.884 52.4152L405.021 51.9783L408.587 53.2954L397.119 63.647L393.553 62.3299L393.532 62.3297ZM385.223 74.3705L396.692 64.0188L393.126 62.7018L389.988 63.1386L381.018 71.2326L381.636 73.0532L385.202 74.3703L385.223 74.3705ZM409.009 53.442L397.541 63.7936L402.985 65.8025L414.453 55.4509L409.009 53.442ZM361.259 80.676L372.727 70.3244L367.283 68.3155L355.815 78.6671L361.259 80.676ZM379.158 57.5788L367.689 67.9304L373.133 69.9394L384.601 59.5878L379.158 57.5788ZM391.053 46.8424L379.585 57.194L385.029 59.203L396.497 48.8514L391.053 46.8424ZM379.215 87.2755L390.683 76.9239L385.239 74.915L373.771 85.2666L379.215 87.2755ZM397.171 93.8751L408.639 83.5235L403.196 81.5146L391.727 91.8662L397.171 93.8751ZM426.944 60.0413L415.476 70.3929L420.92 72.4019L432.388 62.0503L426.944 60.0413ZM415.07 70.7779L403.601 81.1296L409.045 83.1385L420.514 72.7869L415.07 70.7779ZM415.054 70.2463L426.522 59.8947L422.956 58.5777L419.819 59.0145L410.849 67.1085L411.467 68.9291L415.033 70.2461L415.054 70.2463ZM403.179 80.983L414.648 70.6314L411.082 69.3143L407.944 69.7511L398.974 77.8451L399.592 79.6657L403.158 80.9828L403.179 80.983ZM397.114 64.1784L385.645 74.53L391.089 76.5389L402.558 66.1873L397.114 64.1784ZM420.936 72.9464L409.467 83.298L413.033 84.6151L416.171 84.1782L425.141 76.0843L424.523 74.2637L420.957 72.9466L420.936 72.9464ZM402.752 81.3678L399.186 80.0507L396.049 80.4876L387.079 88.5815L387.697 90.4021L391.263 91.7192L402.731 81.3676L402.752 81.3678ZM379.163 57.0345L390.631 46.6829L387.065 45.3658L383.928 45.8027L374.958 53.8967L375.576 55.7172L379.142 57.0343L379.163 57.0345ZM391.105 77.0835L379.637 87.4351L383.203 88.7522L386.34 88.3153L395.31 80.2213L394.692 78.4008L391.126 77.0837L391.105 77.0835ZM402.98 66.3339L391.511 76.6855L395.077 78.0026L398.215 77.5657L407.185 69.4717L406.567 67.6512L403.001 66.3341L402.98 66.3339ZM436.397 63.5141L432.831 62.197L421.363 72.5486L424.929 73.8657L428.067 73.4289L437.036 65.3349L436.418 63.5143L436.397 63.5141ZM409.061 83.683L397.593 94.0346L401.159 95.3517L404.296 94.9148L413.266 86.8209L412.648 85.0003L409.082 83.6832L409.061 83.683ZM414.875 55.5975L403.407 65.9491L406.973 67.2662L410.11 66.8293L419.08 58.7353L418.462 56.9148L414.896 55.5977L414.875 55.5975ZM384.796 74.7553L381.23 73.4382L378.093 73.875L369.123 81.969L369.741 83.7896L373.307 85.1067L384.775 74.7551L384.796 74.7553ZM366.84 68.1557L363.274 66.8386L360.137 67.2755L351.167 75.3695L351.785 77.19L355.351 78.5071L366.819 68.1555L366.84 68.1557ZM367.267 67.7709L378.736 57.4193L375.17 56.1022L372.032 56.5391L363.062 64.6331L363.68 66.4536L367.246 67.7707L367.267 67.7709ZM373.149 70.471L361.681 80.8226L365.247 82.1396L368.384 81.7028L377.354 73.6088L376.736 71.7882L373.17 70.4712L373.149 70.471ZM396.919 48.9979L385.451 59.3495L389.016 60.6666L392.154 60.2298L401.124 52.1358L400.506 50.3152L396.94 48.9981L396.919 48.9979ZM385.045 59.7346L373.576 70.0862L377.142 71.4032L380.28 70.9664L389.25 62.8724L388.632 61.0518L385.066 59.7348L385.045 59.7346Z" fill="#036E9D" stroke="white" stroke-width="0.117363" stroke-miterlimit="10"/>
<path d="M339.41 42.4249L338.793 40.6044L347.762 32.5104L350.9 32.0735L354.466 33.3906L342.997 43.7422L339.432 42.4251L339.41 42.4249ZM331.102 54.4786L342.57 44.127L339.004 42.8099L335.867 43.2468L326.897 51.3408L327.515 53.1613L331.081 54.4784L331.102 54.4786ZM354.888 33.5372L343.42 43.8888L348.863 45.8977L360.332 35.5461L354.888 33.5372ZM307.137 60.7712L318.606 50.4196L313.162 48.4107L301.694 58.7623L307.137 60.7712ZM325.036 37.6741L313.568 48.0257L319.012 50.0346L330.48 39.683L325.036 37.6741ZM336.932 26.9376L325.463 37.2892L330.907 39.2982L342.376 28.9466L336.932 26.9376ZM325.093 67.3707L336.562 57.0191L331.118 55.0102L319.65 65.3618L325.093 67.3707ZM343.049 73.9703L354.518 63.6187L349.074 61.6098L337.606 71.9614L343.049 73.9703ZM372.823 40.1365L361.354 50.4882L366.798 52.4971L378.267 42.1455L372.823 40.1365ZM360.949 50.8732L349.48 61.2248L354.924 63.2337L366.392 52.8821L360.949 50.8732ZM360.954 50.3418L372.422 39.9902L368.856 38.6731L365.718 39.11L356.749 47.2039L357.367 49.0245L360.932 50.3416L360.954 50.3418ZM349.058 61.0782L360.526 50.7266L356.961 49.4095L353.823 49.8464L344.853 57.9403L345.471 59.7609L349.037 61.078L349.058 61.0782ZM342.992 44.2736L331.524 54.6252L336.968 56.6341L348.436 46.2825L342.992 44.2736ZM366.814 53.0416L355.346 63.3932L358.912 64.7103L362.049 64.2734L371.019 56.1795L370.401 54.3589L366.835 53.0418L366.814 53.0416ZM348.631 61.463L345.065 60.1459L341.927 60.5828L332.958 68.6768L333.575 70.4973L337.141 71.8144L348.61 61.4628L348.631 61.463ZM325.041 37.1297L336.51 26.7781L332.944 25.461L329.806 25.8979L320.837 33.9919L321.454 35.8124L325.02 37.1295L325.041 37.1297ZM336.984 57.1787L325.515 67.5303L329.081 68.8474L332.219 68.4105L341.189 60.3165L340.571 58.496L337.005 57.1789L336.984 57.1787ZM348.858 46.4421L337.39 56.7937L340.956 58.1108L344.093 57.6739L353.063 49.5799L352.445 47.7594L348.879 46.4423L348.858 46.4421ZM382.276 43.6093L378.71 42.2923L367.241 52.6439L370.807 53.9609L373.945 53.5241L382.915 45.4301L382.297 43.6095L382.276 43.6093ZM354.94 63.7782L343.471 74.1299L347.037 75.4469L350.175 75.0101L359.145 66.9161L358.527 65.0955L354.961 63.7785L354.94 63.7782ZM360.754 35.6927L349.285 46.0443L352.851 47.3614L355.989 46.9245L364.959 38.8305L364.341 37.01L360.775 35.6929L360.754 35.6927ZM330.675 54.8505L327.109 53.5334L323.971 53.9703L315.002 62.0642L315.619 63.8848L319.185 65.2019L330.654 54.8503L330.675 54.8505ZM312.719 48.2509L309.153 46.9338L306.015 47.3707L297.045 55.4647L297.663 57.2853L301.229 58.6023L312.698 48.2507L312.719 48.2509ZM313.146 47.8661L324.614 37.5145L321.049 36.1974L317.911 36.6343L308.941 44.7283L309.559 46.5488L313.125 47.8659L313.146 47.8661ZM319.028 50.5662L307.559 60.9178L311.125 62.2349L314.263 61.798L323.233 53.704L322.615 51.8835L319.049 50.5664L319.028 50.5662ZM342.798 29.0932L331.329 39.4448L334.895 40.7618L338.033 40.325L347.003 32.231L346.385 30.4104L342.819 29.0934L342.798 29.0932ZM330.923 39.8298L319.455 50.1814L323.021 51.4984L326.159 51.0616L335.128 42.9676L334.51 41.147L330.944 39.83L330.923 39.8298Z" fill="#036E9D" stroke="white" stroke-width="0.117363" stroke-miterlimit="10"/>
</g>
<defs>
<clipPath id="clip0_1_1994">
<rect width="79.0268" height="42.5591" fill="white" transform="translate(92.8066) scale(2) rotate(0.543567)"/>
</clipPath>
<clipPath id="clip1_1_1994">
<rect width="79.0268" height="42.5591" fill="white" transform="translate(288.807 20) scale(2) rotate(0.543567)"/>
</clipPath>
</defs>
</svg>
