<svg width="686" height="800" viewBox="0 0 686 800" fill="none" xmlns="http://www.w3.org/2000/svg">
<g opacity="0.85">
<rect x="154" y="3" width="379" height="77" rx="38.5" fill="white"/>
<rect x="154" y="3" width="379" height="77" rx="38.5" stroke="#FAD764" stroke-width="6"/>
<path d="M214.86 59.28C212.78 59.28 211.153 59.1067 209.98 58.76C208.807 58.44 207.98 57.8533 207.5 57C207.02 56.1467 206.767 54.92 206.74 53.32H203.18C200.993 53.32 199.327 53.1333 198.18 52.76C197.033 52.36 196.247 51.6933 195.82 50.76C195.393 49.8267 195.18 48.5467 195.18 46.92C195.18 45.2667 195.393 43.9733 195.82 43.04C196.247 42.1067 197.033 41.4533 198.18 41.08C199.327 40.7067 200.993 40.52 203.18 40.52H214.58C216.767 40.52 218.433 40.7067 219.58 41.08C220.727 41.4533 221.513 42.1067 221.94 43.04C222.367 43.9733 222.58 45.2667 222.58 46.92C222.58 48.5467 222.367 49.8267 221.94 50.76C221.513 51.6933 220.727 52.36 219.58 52.76C218.433 53.1333 216.767 53.32 214.58 53.32H211.34C211.393 54.1467 211.647 54.68 212.1 54.92C212.553 55.16 213.473 55.28 214.86 55.28H219.26C220.46 55.28 221.38 55.2 222.02 55.04C222.66 54.88 223.127 54.6 223.42 54.2C223.74 53.8 223.967 53.2533 224.1 52.56C224.207 52.0267 224.527 51.6133 225.06 51.32C225.593 51.0267 226.193 50.9733 226.86 51.16C227.473 51.32 227.913 51.64 228.18 52.12C228.473 52.5733 228.553 53.1067 228.42 53.72C228.18 55.1067 227.727 56.2 227.06 57C226.393 57.8267 225.433 58.4133 224.18 58.76C222.927 59.1067 221.287 59.28 219.26 59.28H214.86ZM209.02 39.8C208.38 39.8 207.833 39.5867 207.38 39.16C206.953 38.7333 206.74 38.1733 206.74 37.48V31.8H198.38C197.313 31.8 196.567 31.9467 196.14 32.24C195.713 32.5333 195.5 33.1467 195.5 34.08V35.88C195.5 36.5467 195.273 37.0933 194.82 37.52C194.393 37.92 193.873 38.12 193.26 38.12C192.62 38.12 192.073 37.92 191.62 37.52C191.193 37.0933 190.98 36.5467 190.98 35.88V34.04C190.98 32.7067 191.193 31.64 191.62 30.84C192.073 30.04 192.833 29.4667 193.9 29.12C194.967 28.7467 196.42 28.56 198.26 28.56H206.74V26.84H194.74C194.233 26.84 193.807 26.6667 193.46 26.32C193.14 25.9467 192.98 25.5067 192.98 25C192.98 24.52 193.14 24.1067 193.46 23.76C193.807 23.3867 194.233 23.2 194.74 23.2H223.5C224.007 23.2 224.42 23.3867 224.74 23.76C225.087 24.1067 225.26 24.52 225.26 25C225.26 25.5067 225.087 25.9467 224.74 26.32C224.42 26.6667 224.007 26.84 223.5 26.84H211.3V28.56H219.78C221.647 28.56 223.1 28.7467 224.14 29.12C225.207 29.4667 225.953 30.04 226.38 30.84C226.833 31.64 227.06 32.7067 227.06 34.04V35.88C227.06 36.5467 226.833 37.0933 226.38 37.52C225.927 37.92 225.393 38.12 224.78 38.12C224.167 38.12 223.633 37.92 223.18 37.52C222.727 37.0933 222.5 36.5467 222.5 35.88V34.08C222.5 33.1467 222.287 32.5333 221.86 32.24C221.46 31.9467 220.727 31.8 219.66 31.8H211.3V37.48C211.3 38.1733 211.073 38.7333 210.62 39.16C210.193 39.5867 209.66 39.8 209.02 39.8ZM213.74 39.16C213.393 39.16 213.087 39.04 212.82 38.8C212.58 38.5333 212.46 38.2267 212.46 37.88C212.46 37.5333 212.58 37.24 212.82 37C213.087 36.7333 213.393 36.6 213.74 36.6H220.14C220.513 36.6 220.82 36.7333 221.06 37C221.3 37.24 221.42 37.5333 221.42 37.88C221.42 38.2267 221.3 38.5333 221.06 38.8C220.82 39.04 220.513 39.16 220.14 39.16H213.74ZM213.74 35.56C213.393 35.56 213.087 35.44 212.82 35.2C212.58 34.9333 212.46 34.6267 212.46 34.28C212.46 33.9333 212.58 33.64 212.82 33.4C213.087 33.1333 213.393 33 213.74 33H220.14C220.513 33 220.82 33.1333 221.06 33.4C221.3 33.64 221.42 33.9333 221.42 34.28C221.42 34.6267 221.3 34.9333 221.06 35.2C220.82 35.44 220.513 35.56 220.14 35.56H213.74ZM197.82 39.16C197.473 39.16 197.18 39.04 196.94 38.8C196.7 38.5333 196.58 38.2267 196.58 37.88C196.58 37.5333 196.7 37.24 196.94 37C197.18 36.7333 197.473 36.6 197.82 36.6H204.26C204.607 36.6 204.9 36.7333 205.14 37C205.38 37.24 205.5 37.5333 205.5 37.88C205.5 38.2267 205.38 38.5333 205.14 38.8C204.9 39.04 204.607 39.16 204.26 39.16H197.82ZM197.82 35.56C197.473 35.56 197.18 35.44 196.94 35.2C196.7 34.9333 196.58 34.6267 196.58 34.28C196.58 33.9333 196.7 33.64 196.94 33.4C197.18 33.1333 197.473 33 197.82 33H204.26C204.607 33 204.9 33.1333 205.14 33.4C205.38 33.64 205.5 33.9333 205.5 34.28C205.5 34.6267 205.38 34.9333 205.14 35.2C204.9 35.44 204.607 35.56 204.26 35.56H197.82ZM199.74 45.44H206.74V43.76H203.22C201.993 43.76 201.14 43.8533 200.66 44.04C200.18 44.2 199.873 44.6667 199.74 45.44ZM203.22 50.08H206.74V48.4H199.74C199.873 49.1467 200.18 49.6133 200.66 49.8C201.14 49.9867 201.993 50.08 203.22 50.08ZM211.34 45.44H218.02C217.913 44.6667 217.62 44.2 217.14 44.04C216.66 43.8533 215.793 43.76 214.54 43.76H211.34V45.44ZM211.34 50.08H214.54C215.793 50.08 216.66 49.9867 217.14 49.8C217.62 49.6133 217.913 49.1467 218.02 48.4H211.34V50.08ZM271.34 57.16C270.647 58.2267 269.847 58.92 268.94 59.24C268.06 59.56 267.18 59.52 266.3 59.12C265.42 58.7467 264.647 58.04 263.98 57C263.367 56.04 262.86 54.8667 262.46 53.48C262.06 52.0933 261.767 50.5867 261.58 48.96C261.393 47.3333 261.287 45.68 261.26 44C261.26 43.12 261.073 42.52 260.7 42.2C260.327 41.88 259.66 41.72 258.7 41.72H240.06C239.5 41.72 239.02 41.52 238.62 41.12C238.247 40.72 238.06 40.2533 238.06 39.72C238.06 39.16 238.247 38.6933 238.62 38.32C239.02 37.92 239.5 37.72 240.06 37.72H258.82C260.66 37.72 262.087 37.92 263.1 38.32C264.14 38.72 264.847 39.3867 265.22 40.32C265.62 41.2533 265.793 42.5067 265.74 44.08C265.687 45.9467 265.793 47.68 266.06 49.28C266.327 50.8533 266.713 52.1467 267.22 53.16C267.433 53.56 267.673 53.7733 267.94 53.8C268.207 53.8 268.433 53.56 268.62 53.08C268.753 52.76 268.873 52.4667 268.98 52.2C269.087 51.9333 269.193 51.6667 269.3 51.4C269.54 50.8133 269.953 50.4267 270.54 50.24C271.127 50.0533 271.713 50.0933 272.3 50.36C272.913 50.6267 273.3 51.0267 273.46 51.56C273.62 52.0933 273.58 52.6667 273.34 53.28C273.073 53.8667 272.767 54.52 272.42 55.24C272.073 55.96 271.713 56.6 271.34 57.16ZM240.58 58.72C239.753 59.04 239.02 59.12 238.38 58.96C237.767 58.8267 237.3 58.4267 236.98 57.76C236.66 57.0933 236.633 56.4667 236.9 55.88C237.193 55.2667 237.713 54.8267 238.46 54.56C239.9 54.0267 241.287 53.3867 242.62 52.64C243.98 51.8933 245.273 51.0667 246.5 50.16C245.727 49.52 244.967 48.92 244.22 48.36C243.473 47.8 242.767 47.3067 242.1 46.88C241.567 46.56 241.233 46.1067 241.1 45.52C240.967 44.9067 241.047 44.3867 241.34 43.96C241.713 43.4267 242.207 43.0933 242.82 42.96C243.433 42.8 243.993 42.88 244.5 43.2C245.3 43.68 246.18 44.2667 247.14 44.96C248.1 45.6267 249.073 46.3467 250.06 47.12C251.42 45.76 252.62 44.3333 253.66 42.84C254.033 42.28 254.54 41.9333 255.18 41.8C255.82 41.64 256.42 41.7467 256.98 42.12C257.513 42.4933 257.82 43 257.9 43.64C257.98 44.2533 257.82 44.8533 257.42 45.44C256.913 46.1867 256.327 46.9467 255.66 47.72C255.02 48.4667 254.313 49.2133 253.54 49.96C254.393 50.68 255.18 51.3867 255.9 52.08C256.647 52.7733 257.313 53.4267 257.9 54.04C258.353 54.5467 258.567 55.1333 258.54 55.8C258.513 56.4667 258.233 57.04 257.7 57.52C257.193 57.9467 256.593 58.1333 255.9 58.08C255.233 58.0533 254.673 57.7867 254.22 57.28C253.66 56.6667 253.02 56.0133 252.3 55.32C251.58 54.6 250.807 53.8667 249.98 53.12C248.513 54.2933 246.98 55.36 245.38 56.32C243.78 57.3067 242.18 58.1067 240.58 58.72ZM236.34 36.36C235.833 35.96 235.553 35.4533 235.5 34.84C235.473 34.2 235.673 33.64 236.1 33.16C236.9 32.3067 237.7 31.2933 238.5 30.12C239.327 28.9467 240.1 27.7467 240.82 26.52C241.54 25.2933 242.127 24.1733 242.58 23.16C242.873 22.4933 243.327 22.0533 243.94 21.84C244.553 21.6267 245.153 21.6533 245.74 21.92C246.327 22.1867 246.727 22.5867 246.94 23.12C247.153 23.6267 247.113 24.2 246.82 24.84C246.767 24.9733 246.7 25.12 246.62 25.28C246.54 25.44 246.46 25.6133 246.38 25.8H268.18C268.713 25.8 269.167 25.9867 269.54 26.36C269.913 26.7067 270.1 27.1467 270.1 27.68C270.1 28.1867 269.913 28.6267 269.54 29C269.167 29.3733 268.713 29.56 268.18 29.56H244.26C243.567 30.7067 242.833 31.8267 242.06 32.92C241.313 34.0133 240.593 34.96 239.9 35.76C239.42 36.2933 238.847 36.6533 238.18 36.84C237.54 37 236.927 36.84 236.34 36.36ZM246.74 35.4C246.233 35.4 245.78 35.2133 245.38 34.84C245.007 34.4667 244.82 34.0133 244.82 33.48C244.82 32.9467 245.007 32.4933 245.38 32.12C245.78 31.7467 246.233 31.56 246.74 31.56H264.22C264.753 31.56 265.207 31.7467 265.58 32.12C265.953 32.4933 266.14 32.9467 266.14 33.48C266.14 34.0133 265.953 34.4667 265.58 34.84C265.207 35.2133 264.753 35.4 264.22 35.4H246.74ZM307.5 57.8C303.927 58.3067 300.913 58.4933 298.46 58.36C296.007 58.2533 294.033 57.8933 292.54 57.28C291.073 56.6667 290.007 55.8533 289.34 54.84C288.673 53.8 288.34 52.6267 288.34 51.32C288.34 49.32 289.14 47.4533 290.74 45.72C292.367 43.9867 294.713 42.4667 297.78 41.16C297.353 40.6267 296.833 40.2667 296.22 40.08C294.887 39.68 293.567 39.8267 292.26 40.52C290.98 41.2133 289.727 42.2267 288.5 43.56C288.047 44.04 287.447 44.3067 286.7 44.36C285.98 44.3867 285.393 44.16 284.94 43.68C284.513 43.1733 284.313 42.5867 284.34 41.92C284.393 41.2533 284.673 40.7067 285.18 40.28C286.487 39.16 287.633 37.9467 288.62 36.64C289.633 35.3333 290.487 33.9867 291.18 32.6C290.033 32.6267 288.953 32.6533 287.94 32.68C286.953 32.68 286.1 32.6667 285.38 32.64C284.713 32.64 284.153 32.4133 283.7 31.96C283.247 31.48 283.02 30.9067 283.02 30.24C283.047 29.5733 283.3 29.0267 283.78 28.6C284.26 28.1733 284.833 27.9733 285.5 28C286.433 28.0267 287.553 28.04 288.86 28.04C290.193 28.0133 291.58 27.9867 293.02 27.96C293.153 27.4533 293.273 26.96 293.38 26.48C293.487 26 293.58 25.52 293.66 25.04C293.767 24.3733 294.06 23.84 294.54 23.44C295.02 23.0133 295.593 22.84 296.26 22.92C296.927 23 297.46 23.2933 297.86 23.8C298.26 24.3067 298.42 24.8933 298.34 25.56C298.313 25.9067 298.26 26.2667 298.18 26.64C298.1 27.0133 298.007 27.3867 297.9 27.76C298.913 27.7067 299.86 27.6533 300.74 27.6C301.62 27.52 302.407 27.4267 303.1 27.32C303.767 27.24 304.353 27.4 304.86 27.8C305.393 28.1733 305.7 28.6933 305.78 29.36C305.86 30.0267 305.687 30.6133 305.26 31.12C304.86 31.6267 304.34 31.9067 303.7 31.96C302.713 32.0667 301.58 32.16 300.3 32.24C299.02 32.32 297.687 32.3867 296.3 32.44C295.713 33.7467 295.073 34.9733 294.38 36.12C295.02 35.9867 295.633 35.9467 296.22 36C296.807 36.0267 297.367 36.12 297.9 36.28C298.7 36.4933 299.473 36.8667 300.22 37.4C300.993 37.9067 301.673 38.6267 302.26 39.56C303.567 39.1867 304.953 38.84 306.42 38.52C307.913 38.2 309.487 37.92 311.14 37.68C311.78 37.5733 312.367 37.72 312.9 38.12C313.433 38.4933 313.74 39.0133 313.82 39.68C313.927 40.3467 313.78 40.9333 313.38 41.44C312.98 41.9467 312.447 42.2533 311.78 42.36C310.233 42.5467 308.807 42.7733 307.5 43.04C306.193 43.28 304.98 43.5467 303.86 43.84C303.993 44.56 304.1 45.3467 304.18 46.2C304.26 47.0533 304.3 47.9733 304.3 48.96C304.3 49.6267 304.06 50.2 303.58 50.68C303.127 51.1333 302.567 51.36 301.9 51.36C301.233 51.36 300.673 51.1333 300.22 50.68C299.767 50.2 299.54 49.6267 299.54 48.96C299.54 47.6 299.46 46.3867 299.3 45.32C297.113 46.2267 295.527 47.2 294.54 48.24C293.58 49.2533 293.1 50.24 293.1 51.2C293.1 51.92 293.527 52.5067 294.38 52.96C295.233 53.4133 296.66 53.6667 298.66 53.72C300.66 53.7733 303.393 53.5733 306.86 53.12C307.5 53.04 308.087 53.2 308.62 53.6C309.153 53.9733 309.46 54.4933 309.54 55.16C309.62 55.8 309.46 56.3733 309.06 56.88C308.66 57.3867 308.14 57.6933 307.5 57.8ZM333.34 59.48C332.7 59.48 332.153 59.2667 331.7 58.84C331.247 58.4133 331.02 57.8533 331.02 57.16V38.24C330.593 38.8267 330.167 39.3867 329.74 39.92C329.34 40.4533 328.94 40.9467 328.54 41.4C328.113 41.9067 327.567 42.1867 326.9 42.24C326.233 42.2933 325.647 42.1067 325.14 41.68C324.713 41.3067 324.473 40.8267 324.42 40.24C324.393 39.6267 324.567 39.0933 324.94 38.64C325.66 37.76 326.447 36.7067 327.3 35.48C328.18 34.2533 329.033 32.96 329.86 31.6C330.713 30.2133 331.487 28.88 332.18 27.6C332.873 26.2933 333.42 25.1467 333.82 24.16C334.087 23.5467 334.527 23.1333 335.14 22.92C335.753 22.7067 336.353 22.7333 336.94 23C337.553 23.2667 337.953 23.68 338.14 24.24C338.327 24.8 338.3 25.3733 338.06 25.96C337.713 26.7067 337.34 27.4933 336.94 28.32C336.54 29.12 336.113 29.9467 335.66 30.8V38.6C335.713 38.52 335.753 38.44 335.78 38.36C335.833 38.2533 335.887 38.16 335.94 38.08C336.607 37.2267 337.313 36.2133 338.06 35.04C338.807 33.8667 339.54 32.6267 340.26 31.32C340.98 29.9867 341.633 28.6933 342.22 27.44C342.833 26.1867 343.313 25.0533 343.66 24.04C343.9 23.3733 344.287 22.9067 344.82 22.64C345.38 22.3733 345.967 22.3467 346.58 22.56C347.193 22.7467 347.647 23.1067 347.94 23.64C348.233 24.1733 348.26 24.7733 348.02 25.44C347.807 26.08 347.553 26.7467 347.26 27.44C346.967 28.1067 346.647 28.8 346.3 29.52H359.62C360.233 29.52 360.753 29.7333 361.18 30.16C361.633 30.5867 361.86 31.1067 361.86 31.72C361.86 32.3333 361.633 32.8667 361.18 33.32C360.753 33.7467 360.233 33.96 359.62 33.96H350.66V38.28H358.34C358.953 38.28 359.46 38.4933 359.86 38.92C360.26 39.32 360.46 39.8133 360.46 40.4C360.46 40.9867 360.26 41.4933 359.86 41.92C359.46 42.32 358.953 42.52 358.34 42.52H350.66V46.8H358.34C358.953 46.8 359.473 47.0133 359.9 47.44C360.353 47.8667 360.58 48.3867 360.58 49C360.58 49.6133 360.353 50.1467 359.9 50.6C359.473 51.0267 358.953 51.24 358.34 51.24H350.66V57C350.66 57.72 350.42 58.2933 349.94 58.72C349.487 59.1467 348.927 59.36 348.26 59.36C347.593 59.36 347.033 59.1467 346.58 58.72C346.127 58.2933 345.9 57.72 345.9 57V33.96H344.02C343.3 35.2133 342.567 36.4267 341.82 37.6C341.073 38.7467 340.353 39.7733 339.66 40.68C339.26 41.1867 338.727 41.4933 338.06 41.6C337.42 41.68 336.833 41.5333 336.3 41.16C336.007 40.9467 335.793 40.6667 335.66 40.32V57.16C335.66 57.8533 335.433 58.4133 334.98 58.84C334.527 59.2667 333.98 59.48 333.34 59.48ZM388.18 57.72C385.753 57.6667 383.833 57.08 382.42 55.96C381.033 54.84 380.367 53.3067 380.42 51.36C380.473 50.2133 380.793 49.2133 381.38 48.36C381.993 47.5067 382.82 46.8667 383.86 46.44C384.9 45.9867 386.087 45.8267 387.42 45.96C389.553 46.1467 391.047 46.88 391.9 48.16C392.753 49.4133 393.007 50.8533 392.66 52.48C393.593 52.0267 394.353 51.3733 394.94 50.52C395.553 49.64 395.86 48.5067 395.86 47.12C395.86 46.08 395.553 45.1467 394.94 44.32C394.353 43.4667 393.513 42.8133 392.42 42.36C391.353 41.88 390.113 41.68 388.7 41.76C387.287 41.84 385.767 42.2667 384.14 43.04C382.513 43.7867 380.847 44.9867 379.14 46.64C378.66 47.0933 378.06 47.32 377.34 47.32C376.62 47.2933 376.033 47.0133 375.58 46.48C375.153 45.9733 374.953 45.4 374.98 44.76C375.033 44.0933 375.313 43.5733 375.82 43.2C377.473 41.9467 379.127 40.6267 380.78 39.24C382.433 37.8267 384.007 36.44 385.5 35.08C387.02 33.72 388.353 32.48 389.5 31.36C390.22 30.6667 390.46 30.0933 390.22 29.64C390.007 29.1867 389.433 29.0267 388.5 29.16C387.593 29.2667 386.553 29.4 385.38 29.56C384.233 29.72 383.153 29.8667 382.14 30C381.5 30.1067 380.913 29.96 380.38 29.56C379.847 29.16 379.54 28.6267 379.46 27.96C379.353 27.32 379.5 26.7467 379.9 26.24C380.3 25.7067 380.833 25.3867 381.5 25.28C382.087 25.2 382.82 25.12 383.7 25.04C384.607 24.96 385.527 24.88 386.46 24.8C387.42 24.72 388.233 24.6533 388.9 24.6C390.633 24.4667 392.047 24.6933 393.14 25.28C394.233 25.8667 394.98 26.6667 395.38 27.68C395.78 28.6667 395.793 29.7467 395.42 30.92C395.073 32.0933 394.313 33.2 393.14 34.24C392.607 34.6933 391.927 35.28 391.1 36C390.3 36.72 389.473 37.4533 388.62 38.2C390.14 37.9067 391.62 37.8933 393.06 38.16C394.5 38.4 395.78 38.9067 396.9 39.68C398.047 40.4533 398.953 41.48 399.62 42.76C400.287 44.0133 400.62 45.4933 400.62 47.2C400.62 49.6267 400.087 51.64 399.02 53.24C397.953 54.8133 396.487 55.96 394.62 56.68C392.753 57.4267 390.607 57.7733 388.18 57.72ZM387.46 53.28C387.513 53.28 387.593 53.28 387.7 53.28C387.78 53.28 387.873 53.2933 387.98 53.32C388.113 53.32 388.26 53.3067 388.42 53.28C388.793 52.4 388.86 51.6667 388.62 51.08C388.38 50.4933 387.9 50.1467 387.18 50.04C386.54 49.96 386.007 50.0533 385.58 50.32C385.18 50.56 384.953 50.96 384.9 51.52C384.873 52.5867 385.727 53.1733 387.46 53.28ZM442.86 59.12C442.193 59.12 441.633 58.96 441.18 58.64C440.753 58.3467 440.5 57.8667 440.42 57.2C440.367 56.5867 440.527 56.0533 440.9 55.6C441.3 55.1467 441.793 54.9067 442.38 54.88C443.26 54.8267 443.86 54.7067 444.18 54.52C444.527 54.3333 444.793 53.92 444.98 53.28C445.14 52.7733 445.3 52.1333 445.46 51.36C445.62 50.5867 445.753 49.7867 445.86 48.96C445.967 48.2667 445.94 47.76 445.78 47.44C445.62 47.12 445.3 46.9067 444.82 46.8C444.207 48.2933 443.393 49.7867 442.38 51.28C441.393 52.7733 440.287 54.1733 439.06 55.48C437.86 56.76 436.62 57.8533 435.34 58.76C434.887 59.08 434.367 59.24 433.78 59.24C433.193 59.24 432.713 59.0267 432.34 58.6C431.993 58.2267 431.82 57.7867 431.82 57.28C431.847 56.7733 432.06 56.3733 432.46 56.08C434.273 54.6933 435.9 53.2 437.34 51.6C438.78 50 439.94 48.3733 440.82 46.72H439.02C438.273 48.08 437.313 49.4267 436.14 50.76C434.967 52.0667 433.7 53.28 432.34 54.4C430.98 55.52 429.633 56.4267 428.3 57.12C427.793 57.3867 427.26 57.4533 426.7 57.32C426.167 57.2133 425.753 56.9067 425.46 56.4C425.22 55.9733 425.167 55.52 425.3 55.04C425.433 54.5333 425.713 54.16 426.14 53.92C427.793 53.0667 429.407 51.9867 430.98 50.68C432.553 49.3733 433.847 48.0533 434.86 46.72H432.7C431.927 47.6 431.1 48.44 430.22 49.24C429.367 50.0133 428.5 50.7333 427.62 51.4C427.167 51.72 426.647 51.8667 426.06 51.84C425.473 51.8133 425.007 51.5867 424.66 51.16C424.367 50.76 424.233 50.3067 424.26 49.8C424.313 49.2667 424.553 48.8667 424.98 48.6C425.46 48.2533 425.94 47.88 426.42 47.48C426.927 47.0533 427.42 46.6267 427.9 46.2C427.82 46.2533 427.74 46.3067 427.66 46.36C427.58 46.4133 427.487 46.4667 427.38 46.52C426.553 46.8933 425.54 47.3333 424.34 47.84C423.14 48.32 421.927 48.7867 420.7 49.24C419.473 49.6933 418.42 50.0667 417.54 50.36C416.873 50.6 416.26 50.56 415.7 50.24C415.167 49.92 414.807 49.4667 414.62 48.88C414.433 48.2667 414.473 47.7067 414.74 47.2C415.007 46.6667 415.473 46.3067 416.14 46.12C417.073 45.88 418.153 45.5733 419.38 45.2V35.08H416.46C415.82 35.08 415.313 34.88 414.94 34.48C414.567 34.08 414.38 33.6 414.38 33.04C414.38 32.4533 414.567 31.96 414.94 31.56C415.313 31.16 415.82 30.96 416.46 30.96H419.38V24.8C419.38 24.1067 419.593 23.5733 420.02 23.2C420.447 22.8 420.98 22.6 421.62 22.6C422.26 22.6 422.793 22.8 423.22 23.2C423.647 23.5733 423.86 24.1067 423.86 24.8V30.96H426.5C427.113 30.96 427.607 31.16 427.98 31.56C428.353 31.96 428.54 32.4533 428.54 33.04C428.54 33.6 428.353 34.08 427.98 34.48C427.607 34.88 427.113 35.08 426.5 35.08H423.86V43.68C424.26 43.52 424.647 43.3733 425.02 43.24C425.393 43.08 425.753 42.9333 426.1 42.8C426.607 42.5867 427.1 42.5867 427.58 42.8C428.087 43.0133 428.42 43.3733 428.58 43.88C428.82 44.68 428.727 45.3333 428.3 45.84C429.74 44.4533 430.98 43.0667 432.02 41.68H428.46C427.953 41.68 427.54 41.5067 427.22 41.16C426.927 40.7867 426.78 40.36 426.78 39.88C426.78 39.4 426.927 38.9867 427.22 38.64C427.54 38.2667 427.953 38.08 428.46 38.08H450.14C450.673 38.08 451.087 38.2667 451.38 38.64C451.7 38.9867 451.86 39.4 451.86 39.88C451.86 40.36 451.7 40.7867 451.38 41.16C451.087 41.5067 450.673 41.68 450.14 41.68H436.3C436.14 41.9467 435.98 42.2267 435.82 42.52C435.66 42.7867 435.487 43.0667 435.3 43.36H444.94C446.833 43.36 448.22 43.7733 449.1 44.6C449.98 45.4267 450.313 46.8133 450.1 48.76C449.913 51 449.58 53.0267 449.1 54.84C448.727 56.3333 448.033 57.4133 447.02 58.08C446.033 58.7733 444.647 59.12 442.86 59.12ZM437.38 36.68C435.593 36.68 434.193 36.4933 433.18 36.12C432.167 35.72 431.447 35.04 431.02 34.08C430.62 33.0933 430.42 31.72 430.42 29.96C430.42 28.1733 430.62 26.8 431.02 25.84C431.447 24.88 432.167 24.2133 433.18 23.84C434.193 23.44 435.593 23.24 437.38 23.24H440.78C442.567 23.24 443.967 23.44 444.98 23.84C445.993 24.2133 446.713 24.88 447.14 25.84C447.567 26.8 447.78 28.1733 447.78 29.96C447.78 31.72 447.567 33.0933 447.14 34.08C446.713 35.04 445.993 35.72 444.98 36.12C443.967 36.4933 442.567 36.68 440.78 36.68H437.38ZM437.86 33.24H440.38C441.447 33.24 442.193 33.1333 442.62 32.92C443.047 32.7067 443.3 32.2 443.38 31.4H434.82C434.9 32.2 435.153 32.7067 435.58 32.92C436.033 33.1333 436.793 33.24 437.86 33.24ZM434.82 28.4H443.38C443.273 27.6267 443.007 27.1467 442.58 26.96C442.153 26.7467 441.42 26.64 440.38 26.64H437.86C436.793 26.64 436.047 26.7467 435.62 26.96C435.193 27.1467 434.927 27.6267 434.82 28.4ZM489.54 59.6C488.9 59.6 488.353 59.3867 487.9 58.96C487.447 58.5333 487.22 57.9733 487.22 57.28V39.2H483.7C483.513 43.2267 482.74 46.8 481.38 49.92C480.047 53.0133 478.14 55.6267 475.66 57.76C475.1 58.24 474.46 58.52 473.74 58.6C473.047 58.7067 472.42 58.5067 471.86 58C471.353 57.4933 471.1 56.9067 471.1 56.24C471.127 55.6 471.433 55.0267 472.02 54.52C473.647 53.1067 474.967 51.5867 475.98 49.96C477.02 48.3067 477.78 46.4533 478.26 44.4C478.74 42.32 478.98 39.9333 478.98 37.24V32.08C478.98 30.4267 479.153 29.1067 479.5 28.12C479.873 27.1067 480.487 26.32 481.34 25.76C482.22 25.2 483.407 24.7733 484.9 24.48C486.073 24.2667 487.367 23.9867 488.78 23.64C490.193 23.2667 491.553 22.8933 492.86 22.52C493.553 22.3067 494.18 22.3333 494.74 22.6C495.327 22.8667 495.713 23.2667 495.9 23.8C496.14 24.44 496.14 25.0533 495.9 25.64C495.66 26.2 495.193 26.5867 494.5 26.8C493.22 27.1467 491.887 27.4933 490.5 27.84C489.113 28.16 487.833 28.4267 486.66 28.64C485.86 28.8 485.247 29 484.82 29.24C484.393 29.4533 484.1 29.7867 483.94 30.24C483.807 30.6667 483.74 31.3067 483.74 32.16V34.76H494.54C495.233 34.76 495.767 34.9867 496.14 35.44C496.54 35.8667 496.74 36.3867 496.74 37C496.74 37.5867 496.54 38.1067 496.14 38.56C495.767 38.9867 495.233 39.2 494.54 39.2H491.86V57.28C491.86 57.9733 491.633 58.5333 491.18 58.96C490.727 59.3867 490.18 59.6 489.54 59.6ZM459.74 59.16C459.18 58.8933 458.807 58.4667 458.62 57.88C458.433 57.2933 458.487 56.7333 458.78 56.2C459.847 54.2267 460.66 52.1467 461.22 49.96C461.78 47.7733 462.06 45.3333 462.06 42.64V38.04C462.06 36.2533 462.26 34.8667 462.66 33.88C463.087 32.8933 463.82 32.2 464.86 31.8C465.927 31.4 467.407 31.2 469.3 31.2C471.22 31.2 472.7 31.4 473.74 31.8C474.78 32.2 475.5 32.8933 475.9 33.88C476.3 34.8667 476.5 36.2533 476.5 38.04C476.5 39.8267 476.287 41.2133 475.86 42.2C475.46 43.16 474.74 43.84 473.7 44.24C472.66 44.6133 471.18 44.8 469.26 44.8H466.58C466.447 47.5467 466.073 49.9867 465.46 52.12C464.847 54.2267 464.047 56.2 463.06 58.04C462.74 58.6267 462.26 59.0267 461.62 59.24C460.98 59.4533 460.353 59.4267 459.74 59.16ZM461.9 28.44C461.287 28.44 460.793 28.24 460.42 27.84C460.047 27.44 459.86 26.96 459.86 26.4C459.86 25.8133 460.047 25.3333 460.42 24.96C460.793 24.56 461.287 24.36 461.9 24.36H475.74C476.353 24.36 476.847 24.56 477.22 24.96C477.593 25.3333 477.78 25.8133 477.78 26.4C477.78 26.96 477.593 27.44 477.22 27.84C476.847 28.24 476.353 28.44 475.74 28.44H461.9ZM466.62 40.68H469.3C470.42 40.68 471.14 40.5333 471.46 40.24C471.807 39.92 471.98 39.1867 471.98 38.04C471.98 36.8933 471.807 36.1733 471.46 35.88C471.14 35.56 470.42 35.4 469.3 35.4C468.18 35.4 467.447 35.5467 467.1 35.84C466.78 36.1333 466.62 36.8533 466.62 38V40.68Z" fill="#007440"/>
<rect x="3" y="37" width="680" height="760" rx="33" fill="#F6F4E5" stroke="#FAD764" stroke-width="6"/>
</g>
<rect x="8" y="42" width="670" height="750" rx="28" stroke="#E68600" stroke-width="4"/>
<path d="M9 556H679" stroke="#E68600" stroke-width="4"/>
<path d="M9 317H679" stroke="#E68600" stroke-width="4"/>
<rect x="159" y="8" width="369" height="67" rx="33.5" fill="white"/>
<rect x="159" y="8" width="369" height="67" rx="33.5" stroke="#E68600" stroke-width="4"/>
<path d="M214.86 59.28C212.78 59.28 211.153 59.1067 209.98 58.76C208.807 58.44 207.98 57.8533 207.5 57C207.02 56.1467 206.767 54.92 206.74 53.32H203.18C200.993 53.32 199.327 53.1333 198.18 52.76C197.033 52.36 196.247 51.6933 195.82 50.76C195.393 49.8267 195.18 48.5467 195.18 46.92C195.18 45.2667 195.393 43.9733 195.82 43.04C196.247 42.1067 197.033 41.4533 198.18 41.08C199.327 40.7067 200.993 40.52 203.18 40.52H214.58C216.767 40.52 218.433 40.7067 219.58 41.08C220.727 41.4533 221.513 42.1067 221.94 43.04C222.367 43.9733 222.58 45.2667 222.58 46.92C222.58 48.5467 222.367 49.8267 221.94 50.76C221.513 51.6933 220.727 52.36 219.58 52.76C218.433 53.1333 216.767 53.32 214.58 53.32H211.34C211.393 54.1467 211.647 54.68 212.1 54.92C212.553 55.16 213.473 55.28 214.86 55.28H219.26C220.46 55.28 221.38 55.2 222.02 55.04C222.66 54.88 223.127 54.6 223.42 54.2C223.74 53.8 223.967 53.2533 224.1 52.56C224.207 52.0267 224.527 51.6133 225.06 51.32C225.593 51.0267 226.193 50.9733 226.86 51.16C227.473 51.32 227.913 51.64 228.18 52.12C228.473 52.5733 228.553 53.1067 228.42 53.72C228.18 55.1067 227.727 56.2 227.06 57C226.393 57.8267 225.433 58.4133 224.18 58.76C222.927 59.1067 221.287 59.28 219.26 59.28H214.86ZM209.02 39.8C208.38 39.8 207.833 39.5867 207.38 39.16C206.953 38.7333 206.74 38.1733 206.74 37.48V31.8H198.38C197.313 31.8 196.567 31.9467 196.14 32.24C195.713 32.5333 195.5 33.1467 195.5 34.08V35.88C195.5 36.5467 195.273 37.0933 194.82 37.52C194.393 37.92 193.873 38.12 193.26 38.12C192.62 38.12 192.073 37.92 191.62 37.52C191.193 37.0933 190.98 36.5467 190.98 35.88V34.04C190.98 32.7067 191.193 31.64 191.62 30.84C192.073 30.04 192.833 29.4667 193.9 29.12C194.967 28.7467 196.42 28.56 198.26 28.56H206.74V26.84H194.74C194.233 26.84 193.807 26.6667 193.46 26.32C193.14 25.9467 192.98 25.5067 192.98 25C192.98 24.52 193.14 24.1067 193.46 23.76C193.807 23.3867 194.233 23.2 194.74 23.2H223.5C224.007 23.2 224.42 23.3867 224.74 23.76C225.087 24.1067 225.26 24.52 225.26 25C225.26 25.5067 225.087 25.9467 224.74 26.32C224.42 26.6667 224.007 26.84 223.5 26.84H211.3V28.56H219.78C221.647 28.56 223.1 28.7467 224.14 29.12C225.207 29.4667 225.953 30.04 226.38 30.84C226.833 31.64 227.06 32.7067 227.06 34.04V35.88C227.06 36.5467 226.833 37.0933 226.38 37.52C225.927 37.92 225.393 38.12 224.78 38.12C224.167 38.12 223.633 37.92 223.18 37.52C222.727 37.0933 222.5 36.5467 222.5 35.88V34.08C222.5 33.1467 222.287 32.5333 221.86 32.24C221.46 31.9467 220.727 31.8 219.66 31.8H211.3V37.48C211.3 38.1733 211.073 38.7333 210.62 39.16C210.193 39.5867 209.66 39.8 209.02 39.8ZM213.74 39.16C213.393 39.16 213.087 39.04 212.82 38.8C212.58 38.5333 212.46 38.2267 212.46 37.88C212.46 37.5333 212.58 37.24 212.82 37C213.087 36.7333 213.393 36.6 213.74 36.6H220.14C220.513 36.6 220.82 36.7333 221.06 37C221.3 37.24 221.42 37.5333 221.42 37.88C221.42 38.2267 221.3 38.5333 221.06 38.8C220.82 39.04 220.513 39.16 220.14 39.16H213.74ZM213.74 35.56C213.393 35.56 213.087 35.44 212.82 35.2C212.58 34.9333 212.46 34.6267 212.46 34.28C212.46 33.9333 212.58 33.64 212.82 33.4C213.087 33.1333 213.393 33 213.74 33H220.14C220.513 33 220.82 33.1333 221.06 33.4C221.3 33.64 221.42 33.9333 221.42 34.28C221.42 34.6267 221.3 34.9333 221.06 35.2C220.82 35.44 220.513 35.56 220.14 35.56H213.74ZM197.82 39.16C197.473 39.16 197.18 39.04 196.94 38.8C196.7 38.5333 196.58 38.2267 196.58 37.88C196.58 37.5333 196.7 37.24 196.94 37C197.18 36.7333 197.473 36.6 197.82 36.6H204.26C204.607 36.6 204.9 36.7333 205.14 37C205.38 37.24 205.5 37.5333 205.5 37.88C205.5 38.2267 205.38 38.5333 205.14 38.8C204.9 39.04 204.607 39.16 204.26 39.16H197.82ZM197.82 35.56C197.473 35.56 197.18 35.44 196.94 35.2C196.7 34.9333 196.58 34.6267 196.58 34.28C196.58 33.9333 196.7 33.64 196.94 33.4C197.18 33.1333 197.473 33 197.82 33H204.26C204.607 33 204.9 33.1333 205.14 33.4C205.38 33.64 205.5 33.9333 205.5 34.28C205.5 34.6267 205.38 34.9333 205.14 35.2C204.9 35.44 204.607 35.56 204.26 35.56H197.82ZM199.74 45.44H206.74V43.76H203.22C201.993 43.76 201.14 43.8533 200.66 44.04C200.18 44.2 199.873 44.6667 199.74 45.44ZM203.22 50.08H206.74V48.4H199.74C199.873 49.1467 200.18 49.6133 200.66 49.8C201.14 49.9867 201.993 50.08 203.22 50.08ZM211.34 45.44H218.02C217.913 44.6667 217.62 44.2 217.14 44.04C216.66 43.8533 215.793 43.76 214.54 43.76H211.34V45.44ZM211.34 50.08H214.54C215.793 50.08 216.66 49.9867 217.14 49.8C217.62 49.6133 217.913 49.1467 218.02 48.4H211.34V50.08ZM271.34 57.16C270.647 58.2267 269.847 58.92 268.94 59.24C268.06 59.56 267.18 59.52 266.3 59.12C265.42 58.7467 264.647 58.04 263.98 57C263.367 56.04 262.86 54.8667 262.46 53.48C262.06 52.0933 261.767 50.5867 261.58 48.96C261.393 47.3333 261.287 45.68 261.26 44C261.26 43.12 261.073 42.52 260.7 42.2C260.327 41.88 259.66 41.72 258.7 41.72H240.06C239.5 41.72 239.02 41.52 238.62 41.12C238.247 40.72 238.06 40.2533 238.06 39.72C238.06 39.16 238.247 38.6933 238.62 38.32C239.02 37.92 239.5 37.72 240.06 37.72H258.82C260.66 37.72 262.087 37.92 263.1 38.32C264.14 38.72 264.847 39.3867 265.22 40.32C265.62 41.2533 265.793 42.5067 265.74 44.08C265.687 45.9467 265.793 47.68 266.06 49.28C266.327 50.8533 266.713 52.1467 267.22 53.16C267.433 53.56 267.673 53.7733 267.94 53.8C268.207 53.8 268.433 53.56 268.62 53.08C268.753 52.76 268.873 52.4667 268.98 52.2C269.087 51.9333 269.193 51.6667 269.3 51.4C269.54 50.8133 269.953 50.4267 270.54 50.24C271.127 50.0533 271.713 50.0933 272.3 50.36C272.913 50.6267 273.3 51.0267 273.46 51.56C273.62 52.0933 273.58 52.6667 273.34 53.28C273.073 53.8667 272.767 54.52 272.42 55.24C272.073 55.96 271.713 56.6 271.34 57.16ZM240.58 58.72C239.753 59.04 239.02 59.12 238.38 58.96C237.767 58.8267 237.3 58.4267 236.98 57.76C236.66 57.0933 236.633 56.4667 236.9 55.88C237.193 55.2667 237.713 54.8267 238.46 54.56C239.9 54.0267 241.287 53.3867 242.62 52.64C243.98 51.8933 245.273 51.0667 246.5 50.16C245.727 49.52 244.967 48.92 244.22 48.36C243.473 47.8 242.767 47.3067 242.1 46.88C241.567 46.56 241.233 46.1067 241.1 45.52C240.967 44.9067 241.047 44.3867 241.34 43.96C241.713 43.4267 242.207 43.0933 242.82 42.96C243.433 42.8 243.993 42.88 244.5 43.2C245.3 43.68 246.18 44.2667 247.14 44.96C248.1 45.6267 249.073 46.3467 250.06 47.12C251.42 45.76 252.62 44.3333 253.66 42.84C254.033 42.28 254.54 41.9333 255.18 41.8C255.82 41.64 256.42 41.7467 256.98 42.12C257.513 42.4933 257.82 43 257.9 43.64C257.98 44.2533 257.82 44.8533 257.42 45.44C256.913 46.1867 256.327 46.9467 255.66 47.72C255.02 48.4667 254.313 49.2133 253.54 49.96C254.393 50.68 255.18 51.3867 255.9 52.08C256.647 52.7733 257.313 53.4267 257.9 54.04C258.353 54.5467 258.567 55.1333 258.54 55.8C258.513 56.4667 258.233 57.04 257.7 57.52C257.193 57.9467 256.593 58.1333 255.9 58.08C255.233 58.0533 254.673 57.7867 254.22 57.28C253.66 56.6667 253.02 56.0133 252.3 55.32C251.58 54.6 250.807 53.8667 249.98 53.12C248.513 54.2933 246.98 55.36 245.38 56.32C243.78 57.3067 242.18 58.1067 240.58 58.72ZM236.34 36.36C235.833 35.96 235.553 35.4533 235.5 34.84C235.473 34.2 235.673 33.64 236.1 33.16C236.9 32.3067 237.7 31.2933 238.5 30.12C239.327 28.9467 240.1 27.7467 240.82 26.52C241.54 25.2933 242.127 24.1733 242.58 23.16C242.873 22.4933 243.327 22.0533 243.94 21.84C244.553 21.6267 245.153 21.6533 245.74 21.92C246.327 22.1867 246.727 22.5867 246.94 23.12C247.153 23.6267 247.113 24.2 246.82 24.84C246.767 24.9733 246.7 25.12 246.62 25.28C246.54 25.44 246.46 25.6133 246.38 25.8H268.18C268.713 25.8 269.167 25.9867 269.54 26.36C269.913 26.7067 270.1 27.1467 270.1 27.68C270.1 28.1867 269.913 28.6267 269.54 29C269.167 29.3733 268.713 29.56 268.18 29.56H244.26C243.567 30.7067 242.833 31.8267 242.06 32.92C241.313 34.0133 240.593 34.96 239.9 35.76C239.42 36.2933 238.847 36.6533 238.18 36.84C237.54 37 236.927 36.84 236.34 36.36ZM246.74 35.4C246.233 35.4 245.78 35.2133 245.38 34.84C245.007 34.4667 244.82 34.0133 244.82 33.48C244.82 32.9467 245.007 32.4933 245.38 32.12C245.78 31.7467 246.233 31.56 246.74 31.56H264.22C264.753 31.56 265.207 31.7467 265.58 32.12C265.953 32.4933 266.14 32.9467 266.14 33.48C266.14 34.0133 265.953 34.4667 265.58 34.84C265.207 35.2133 264.753 35.4 264.22 35.4H246.74ZM307.5 57.8C303.927 58.3067 300.913 58.4933 298.46 58.36C296.007 58.2533 294.033 57.8933 292.54 57.28C291.073 56.6667 290.007 55.8533 289.34 54.84C288.673 53.8 288.34 52.6267 288.34 51.32C288.34 49.32 289.14 47.4533 290.74 45.72C292.367 43.9867 294.713 42.4667 297.78 41.16C297.353 40.6267 296.833 40.2667 296.22 40.08C294.887 39.68 293.567 39.8267 292.26 40.52C290.98 41.2133 289.727 42.2267 288.5 43.56C288.047 44.04 287.447 44.3067 286.7 44.36C285.98 44.3867 285.393 44.16 284.94 43.68C284.513 43.1733 284.313 42.5867 284.34 41.92C284.393 41.2533 284.673 40.7067 285.18 40.28C286.487 39.16 287.633 37.9467 288.62 36.64C289.633 35.3333 290.487 33.9867 291.18 32.6C290.033 32.6267 288.953 32.6533 287.94 32.68C286.953 32.68 286.1 32.6667 285.38 32.64C284.713 32.64 284.153 32.4133 283.7 31.96C283.247 31.48 283.02 30.9067 283.02 30.24C283.047 29.5733 283.3 29.0267 283.78 28.6C284.26 28.1733 284.833 27.9733 285.5 28C286.433 28.0267 287.553 28.04 288.86 28.04C290.193 28.0133 291.58 27.9867 293.02 27.96C293.153 27.4533 293.273 26.96 293.38 26.48C293.487 26 293.58 25.52 293.66 25.04C293.767 24.3733 294.06 23.84 294.54 23.44C295.02 23.0133 295.593 22.84 296.26 22.92C296.927 23 297.46 23.2933 297.86 23.8C298.26 24.3067 298.42 24.8933 298.34 25.56C298.313 25.9067 298.26 26.2667 298.18 26.64C298.1 27.0133 298.007 27.3867 297.9 27.76C298.913 27.7067 299.86 27.6533 300.74 27.6C301.62 27.52 302.407 27.4267 303.1 27.32C303.767 27.24 304.353 27.4 304.86 27.8C305.393 28.1733 305.7 28.6933 305.78 29.36C305.86 30.0267 305.687 30.6133 305.26 31.12C304.86 31.6267 304.34 31.9067 303.7 31.96C302.713 32.0667 301.58 32.16 300.3 32.24C299.02 32.32 297.687 32.3867 296.3 32.44C295.713 33.7467 295.073 34.9733 294.38 36.12C295.02 35.9867 295.633 35.9467 296.22 36C296.807 36.0267 297.367 36.12 297.9 36.28C298.7 36.4933 299.473 36.8667 300.22 37.4C300.993 37.9067 301.673 38.6267 302.26 39.56C303.567 39.1867 304.953 38.84 306.42 38.52C307.913 38.2 309.487 37.92 311.14 37.68C311.78 37.5733 312.367 37.72 312.9 38.12C313.433 38.4933 313.74 39.0133 313.82 39.68C313.927 40.3467 313.78 40.9333 313.38 41.44C312.98 41.9467 312.447 42.2533 311.78 42.36C310.233 42.5467 308.807 42.7733 307.5 43.04C306.193 43.28 304.98 43.5467 303.86 43.84C303.993 44.56 304.1 45.3467 304.18 46.2C304.26 47.0533 304.3 47.9733 304.3 48.96C304.3 49.6267 304.06 50.2 303.58 50.68C303.127 51.1333 302.567 51.36 301.9 51.36C301.233 51.36 300.673 51.1333 300.22 50.68C299.767 50.2 299.54 49.6267 299.54 48.96C299.54 47.6 299.46 46.3867 299.3 45.32C297.113 46.2267 295.527 47.2 294.54 48.24C293.58 49.2533 293.1 50.24 293.1 51.2C293.1 51.92 293.527 52.5067 294.38 52.96C295.233 53.4133 296.66 53.6667 298.66 53.72C300.66 53.7733 303.393 53.5733 306.86 53.12C307.5 53.04 308.087 53.2 308.62 53.6C309.153 53.9733 309.46 54.4933 309.54 55.16C309.62 55.8 309.46 56.3733 309.06 56.88C308.66 57.3867 308.14 57.6933 307.5 57.8ZM333.34 59.48C332.7 59.48 332.153 59.2667 331.7 58.84C331.247 58.4133 331.02 57.8533 331.02 57.16V38.24C330.593 38.8267 330.167 39.3867 329.74 39.92C329.34 40.4533 328.94 40.9467 328.54 41.4C328.113 41.9067 327.567 42.1867 326.9 42.24C326.233 42.2933 325.647 42.1067 325.14 41.68C324.713 41.3067 324.473 40.8267 324.42 40.24C324.393 39.6267 324.567 39.0933 324.94 38.64C325.66 37.76 326.447 36.7067 327.3 35.48C328.18 34.2533 329.033 32.96 329.86 31.6C330.713 30.2133 331.487 28.88 332.18 27.6C332.873 26.2933 333.42 25.1467 333.82 24.16C334.087 23.5467 334.527 23.1333 335.14 22.92C335.753 22.7067 336.353 22.7333 336.94 23C337.553 23.2667 337.953 23.68 338.14 24.24C338.327 24.8 338.3 25.3733 338.06 25.96C337.713 26.7067 337.34 27.4933 336.94 28.32C336.54 29.12 336.113 29.9467 335.66 30.8V38.6C335.713 38.52 335.753 38.44 335.78 38.36C335.833 38.2533 335.887 38.16 335.94 38.08C336.607 37.2267 337.313 36.2133 338.06 35.04C338.807 33.8667 339.54 32.6267 340.26 31.32C340.98 29.9867 341.633 28.6933 342.22 27.44C342.833 26.1867 343.313 25.0533 343.66 24.04C343.9 23.3733 344.287 22.9067 344.82 22.64C345.38 22.3733 345.967 22.3467 346.58 22.56C347.193 22.7467 347.647 23.1067 347.94 23.64C348.233 24.1733 348.26 24.7733 348.02 25.44C347.807 26.08 347.553 26.7467 347.26 27.44C346.967 28.1067 346.647 28.8 346.3 29.52H359.62C360.233 29.52 360.753 29.7333 361.18 30.16C361.633 30.5867 361.86 31.1067 361.86 31.72C361.86 32.3333 361.633 32.8667 361.18 33.32C360.753 33.7467 360.233 33.96 359.62 33.96H350.66V38.28H358.34C358.953 38.28 359.46 38.4933 359.86 38.92C360.26 39.32 360.46 39.8133 360.46 40.4C360.46 40.9867 360.26 41.4933 359.86 41.92C359.46 42.32 358.953 42.52 358.34 42.52H350.66V46.8H358.34C358.953 46.8 359.473 47.0133 359.9 47.44C360.353 47.8667 360.58 48.3867 360.58 49C360.58 49.6133 360.353 50.1467 359.9 50.6C359.473 51.0267 358.953 51.24 358.34 51.24H350.66V57C350.66 57.72 350.42 58.2933 349.94 58.72C349.487 59.1467 348.927 59.36 348.26 59.36C347.593 59.36 347.033 59.1467 346.58 58.72C346.127 58.2933 345.9 57.72 345.9 57V33.96H344.02C343.3 35.2133 342.567 36.4267 341.82 37.6C341.073 38.7467 340.353 39.7733 339.66 40.68C339.26 41.1867 338.727 41.4933 338.06 41.6C337.42 41.68 336.833 41.5333 336.3 41.16C336.007 40.9467 335.793 40.6667 335.66 40.32V57.16C335.66 57.8533 335.433 58.4133 334.98 58.84C334.527 59.2667 333.98 59.48 333.34 59.48ZM388.18 57.72C385.753 57.6667 383.833 57.08 382.42 55.96C381.033 54.84 380.367 53.3067 380.42 51.36C380.473 50.2133 380.793 49.2133 381.38 48.36C381.993 47.5067 382.82 46.8667 383.86 46.44C384.9 45.9867 386.087 45.8267 387.42 45.96C389.553 46.1467 391.047 46.88 391.9 48.16C392.753 49.4133 393.007 50.8533 392.66 52.48C393.593 52.0267 394.353 51.3733 394.94 50.52C395.553 49.64 395.86 48.5067 395.86 47.12C395.86 46.08 395.553 45.1467 394.94 44.32C394.353 43.4667 393.513 42.8133 392.42 42.36C391.353 41.88 390.113 41.68 388.7 41.76C387.287 41.84 385.767 42.2667 384.14 43.04C382.513 43.7867 380.847 44.9867 379.14 46.64C378.66 47.0933 378.06 47.32 377.34 47.32C376.62 47.2933 376.033 47.0133 375.58 46.48C375.153 45.9733 374.953 45.4 374.98 44.76C375.033 44.0933 375.313 43.5733 375.82 43.2C377.473 41.9467 379.127 40.6267 380.78 39.24C382.433 37.8267 384.007 36.44 385.5 35.08C387.02 33.72 388.353 32.48 389.5 31.36C390.22 30.6667 390.46 30.0933 390.22 29.64C390.007 29.1867 389.433 29.0267 388.5 29.16C387.593 29.2667 386.553 29.4 385.38 29.56C384.233 29.72 383.153 29.8667 382.14 30C381.5 30.1067 380.913 29.96 380.38 29.56C379.847 29.16 379.54 28.6267 379.46 27.96C379.353 27.32 379.5 26.7467 379.9 26.24C380.3 25.7067 380.833 25.3867 381.5 25.28C382.087 25.2 382.82 25.12 383.7 25.04C384.607 24.96 385.527 24.88 386.46 24.8C387.42 24.72 388.233 24.6533 388.9 24.6C390.633 24.4667 392.047 24.6933 393.14 25.28C394.233 25.8667 394.98 26.6667 395.38 27.68C395.78 28.6667 395.793 29.7467 395.42 30.92C395.073 32.0933 394.313 33.2 393.14 34.24C392.607 34.6933 391.927 35.28 391.1 36C390.3 36.72 389.473 37.4533 388.62 38.2C390.14 37.9067 391.62 37.8933 393.06 38.16C394.5 38.4 395.78 38.9067 396.9 39.68C398.047 40.4533 398.953 41.48 399.62 42.76C400.287 44.0133 400.62 45.4933 400.62 47.2C400.62 49.6267 400.087 51.64 399.02 53.24C397.953 54.8133 396.487 55.96 394.62 56.68C392.753 57.4267 390.607 57.7733 388.18 57.72ZM387.46 53.28C387.513 53.28 387.593 53.28 387.7 53.28C387.78 53.28 387.873 53.2933 387.98 53.32C388.113 53.32 388.26 53.3067 388.42 53.28C388.793 52.4 388.86 51.6667 388.62 51.08C388.38 50.4933 387.9 50.1467 387.18 50.04C386.54 49.96 386.007 50.0533 385.58 50.32C385.18 50.56 384.953 50.96 384.9 51.52C384.873 52.5867 385.727 53.1733 387.46 53.28ZM442.86 59.12C442.193 59.12 441.633 58.96 441.18 58.64C440.753 58.3467 440.5 57.8667 440.42 57.2C440.367 56.5867 440.527 56.0533 440.9 55.6C441.3 55.1467 441.793 54.9067 442.38 54.88C443.26 54.8267 443.86 54.7067 444.18 54.52C444.527 54.3333 444.793 53.92 444.98 53.28C445.14 52.7733 445.3 52.1333 445.46 51.36C445.62 50.5867 445.753 49.7867 445.86 48.96C445.967 48.2667 445.94 47.76 445.78 47.44C445.62 47.12 445.3 46.9067 444.82 46.8C444.207 48.2933 443.393 49.7867 442.38 51.28C441.393 52.7733 440.287 54.1733 439.06 55.48C437.86 56.76 436.62 57.8533 435.34 58.76C434.887 59.08 434.367 59.24 433.78 59.24C433.193 59.24 432.713 59.0267 432.34 58.6C431.993 58.2267 431.82 57.7867 431.82 57.28C431.847 56.7733 432.06 56.3733 432.46 56.08C434.273 54.6933 435.9 53.2 437.34 51.6C438.78 50 439.94 48.3733 440.82 46.72H439.02C438.273 48.08 437.313 49.4267 436.14 50.76C434.967 52.0667 433.7 53.28 432.34 54.4C430.98 55.52 429.633 56.4267 428.3 57.12C427.793 57.3867 427.26 57.4533 426.7 57.32C426.167 57.2133 425.753 56.9067 425.46 56.4C425.22 55.9733 425.167 55.52 425.3 55.04C425.433 54.5333 425.713 54.16 426.14 53.92C427.793 53.0667 429.407 51.9867 430.98 50.68C432.553 49.3733 433.847 48.0533 434.86 46.72H432.7C431.927 47.6 431.1 48.44 430.22 49.24C429.367 50.0133 428.5 50.7333 427.62 51.4C427.167 51.72 426.647 51.8667 426.06 51.84C425.473 51.8133 425.007 51.5867 424.66 51.16C424.367 50.76 424.233 50.3067 424.26 49.8C424.313 49.2667 424.553 48.8667 424.98 48.6C425.46 48.2533 425.94 47.88 426.42 47.48C426.927 47.0533 427.42 46.6267 427.9 46.2C427.82 46.2533 427.74 46.3067 427.66 46.36C427.58 46.4133 427.487 46.4667 427.38 46.52C426.553 46.8933 425.54 47.3333 424.34 47.84C423.14 48.32 421.927 48.7867 420.7 49.24C419.473 49.6933 418.42 50.0667 417.54 50.36C416.873 50.6 416.26 50.56 415.7 50.24C415.167 49.92 414.807 49.4667 414.62 48.88C414.433 48.2667 414.473 47.7067 414.74 47.2C415.007 46.6667 415.473 46.3067 416.14 46.12C417.073 45.88 418.153 45.5733 419.38 45.2V35.08H416.46C415.82 35.08 415.313 34.88 414.94 34.48C414.567 34.08 414.38 33.6 414.38 33.04C414.38 32.4533 414.567 31.96 414.94 31.56C415.313 31.16 415.82 30.96 416.46 30.96H419.38V24.8C419.38 24.1067 419.593 23.5733 420.02 23.2C420.447 22.8 420.98 22.6 421.62 22.6C422.26 22.6 422.793 22.8 423.22 23.2C423.647 23.5733 423.86 24.1067 423.86 24.8V30.96H426.5C427.113 30.96 427.607 31.16 427.98 31.56C428.353 31.96 428.54 32.4533 428.54 33.04C428.54 33.6 428.353 34.08 427.98 34.48C427.607 34.88 427.113 35.08 426.5 35.08H423.86V43.68C424.26 43.52 424.647 43.3733 425.02 43.24C425.393 43.08 425.753 42.9333 426.1 42.8C426.607 42.5867 427.1 42.5867 427.58 42.8C428.087 43.0133 428.42 43.3733 428.58 43.88C428.82 44.68 428.727 45.3333 428.3 45.84C429.74 44.4533 430.98 43.0667 432.02 41.68H428.46C427.953 41.68 427.54 41.5067 427.22 41.16C426.927 40.7867 426.78 40.36 426.78 39.88C426.78 39.4 426.927 38.9867 427.22 38.64C427.54 38.2667 427.953 38.08 428.46 38.08H450.14C450.673 38.08 451.087 38.2667 451.38 38.64C451.7 38.9867 451.86 39.4 451.86 39.88C451.86 40.36 451.7 40.7867 451.38 41.16C451.087 41.5067 450.673 41.68 450.14 41.68H436.3C436.14 41.9467 435.98 42.2267 435.82 42.52C435.66 42.7867 435.487 43.0667 435.3 43.36H444.94C446.833 43.36 448.22 43.7733 449.1 44.6C449.98 45.4267 450.313 46.8133 450.1 48.76C449.913 51 449.58 53.0267 449.1 54.84C448.727 56.3333 448.033 57.4133 447.02 58.08C446.033 58.7733 444.647 59.12 442.86 59.12ZM437.38 36.68C435.593 36.68 434.193 36.4933 433.18 36.12C432.167 35.72 431.447 35.04 431.02 34.08C430.62 33.0933 430.42 31.72 430.42 29.96C430.42 28.1733 430.62 26.8 431.02 25.84C431.447 24.88 432.167 24.2133 433.18 23.84C434.193 23.44 435.593 23.24 437.38 23.24H440.78C442.567 23.24 443.967 23.44 444.98 23.84C445.993 24.2133 446.713 24.88 447.14 25.84C447.567 26.8 447.78 28.1733 447.78 29.96C447.78 31.72 447.567 33.0933 447.14 34.08C446.713 35.04 445.993 35.72 444.98 36.12C443.967 36.4933 442.567 36.68 440.78 36.68H437.38ZM437.86 33.24H440.38C441.447 33.24 442.193 33.1333 442.62 32.92C443.047 32.7067 443.3 32.2 443.38 31.4H434.82C434.9 32.2 435.153 32.7067 435.58 32.92C436.033 33.1333 436.793 33.24 437.86 33.24ZM434.82 28.4H443.38C443.273 27.6267 443.007 27.1467 442.58 26.96C442.153 26.7467 441.42 26.64 440.38 26.64H437.86C436.793 26.64 436.047 26.7467 435.62 26.96C435.193 27.1467 434.927 27.6267 434.82 28.4ZM489.54 59.6C488.9 59.6 488.353 59.3867 487.9 58.96C487.447 58.5333 487.22 57.9733 487.22 57.28V39.2H483.7C483.513 43.2267 482.74 46.8 481.38 49.92C480.047 53.0133 478.14 55.6267 475.66 57.76C475.1 58.24 474.46 58.52 473.74 58.6C473.047 58.7067 472.42 58.5067 471.86 58C471.353 57.4933 471.1 56.9067 471.1 56.24C471.127 55.6 471.433 55.0267 472.02 54.52C473.647 53.1067 474.967 51.5867 475.98 49.96C477.02 48.3067 477.78 46.4533 478.26 44.4C478.74 42.32 478.98 39.9333 478.98 37.24V32.08C478.98 30.4267 479.153 29.1067 479.5 28.12C479.873 27.1067 480.487 26.32 481.34 25.76C482.22 25.2 483.407 24.7733 484.9 24.48C486.073 24.2667 487.367 23.9867 488.78 23.64C490.193 23.2667 491.553 22.8933 492.86 22.52C493.553 22.3067 494.18 22.3333 494.74 22.6C495.327 22.8667 495.713 23.2667 495.9 23.8C496.14 24.44 496.14 25.0533 495.9 25.64C495.66 26.2 495.193 26.5867 494.5 26.8C493.22 27.1467 491.887 27.4933 490.5 27.84C489.113 28.16 487.833 28.4267 486.66 28.64C485.86 28.8 485.247 29 484.82 29.24C484.393 29.4533 484.1 29.7867 483.94 30.24C483.807 30.6667 483.74 31.3067 483.74 32.16V34.76H494.54C495.233 34.76 495.767 34.9867 496.14 35.44C496.54 35.8667 496.74 36.3867 496.74 37C496.74 37.5867 496.54 38.1067 496.14 38.56C495.767 38.9867 495.233 39.2 494.54 39.2H491.86V57.28C491.86 57.9733 491.633 58.5333 491.18 58.96C490.727 59.3867 490.18 59.6 489.54 59.6ZM459.74 59.16C459.18 58.8933 458.807 58.4667 458.62 57.88C458.433 57.2933 458.487 56.7333 458.78 56.2C459.847 54.2267 460.66 52.1467 461.22 49.96C461.78 47.7733 462.06 45.3333 462.06 42.64V38.04C462.06 36.2533 462.26 34.8667 462.66 33.88C463.087 32.8933 463.82 32.2 464.86 31.8C465.927 31.4 467.407 31.2 469.3 31.2C471.22 31.2 472.7 31.4 473.74 31.8C474.78 32.2 475.5 32.8933 475.9 33.88C476.3 34.8667 476.5 36.2533 476.5 38.04C476.5 39.8267 476.287 41.2133 475.86 42.2C475.46 43.16 474.74 43.84 473.7 44.24C472.66 44.6133 471.18 44.8 469.26 44.8H466.58C466.447 47.5467 466.073 49.9867 465.46 52.12C464.847 54.2267 464.047 56.2 463.06 58.04C462.74 58.6267 462.26 59.0267 461.62 59.24C460.98 59.4533 460.353 59.4267 459.74 59.16ZM461.9 28.44C461.287 28.44 460.793 28.24 460.42 27.84C460.047 27.44 459.86 26.96 459.86 26.4C459.86 25.8133 460.047 25.3333 460.42 24.96C460.793 24.56 461.287 24.36 461.9 24.36H475.74C476.353 24.36 476.847 24.56 477.22 24.96C477.593 25.3333 477.78 25.8133 477.78 26.4C477.78 26.96 477.593 27.44 477.22 27.84C476.847 28.24 476.353 28.44 475.74 28.44H461.9ZM466.62 40.68H469.3C470.42 40.68 471.14 40.5333 471.46 40.24C471.807 39.92 471.98 39.1867 471.98 38.04C471.98 36.8933 471.807 36.1733 471.46 35.88C471.14 35.56 470.42 35.4 469.3 35.4C468.18 35.4 467.447 35.5467 467.1 35.84C466.78 36.1333 466.62 36.8533 466.62 38V40.68Z" fill="#007440"/>
</svg>
