<svg width="433" height="220" viewBox="0 0 433 220" fill="none" xmlns="http://www.w3.org/2000/svg">
<path d="M287.32 58.65C287.32 26.26 255.46 0 216.16 0C176.86 0 145 26.26 145 58.65" fill="#FAD764"/>
<rect x="3.5" y="54.5" width="426" height="90" rx="29.5" fill="white"/>
<rect x="3.5" y="54.5" width="426" height="90" rx="29.5" stroke="#FAD764" stroke-width="7"/>
<path d="M57.6464 117.598C53.629 117.598 50.5624 116.54 48.4464 114.424C46.3304 112.277 45.2724 109.073 45.2724 104.81V87.514C45.2724 86.6247 45.5024 85.95 45.9624 85.49C46.453 85.03 47.1277 84.8 47.9864 84.8C49.765 84.8 50.6544 85.7047 50.6544 87.514V104.534C50.6544 107.294 51.2677 109.303 52.4944 110.56C53.7517 111.787 55.469 112.4 57.6464 112.4C59.8237 112.4 61.5257 111.787 62.7524 110.56C63.979 109.303 64.5924 107.294 64.5924 104.534V87.514C64.5924 85.7047 65.4817 84.8 67.2604 84.8C69.039 84.8 69.9284 85.7047 69.9284 87.514V104.81C69.9284 109.073 68.8857 112.277 66.8004 114.424C64.715 116.54 61.6637 117.598 57.6464 117.598ZM79.6876 117C77.9089 117 77.0196 116.095 77.0196 114.286V87.514C77.0196 86.4713 77.2802 85.766 77.8016 85.398C78.3536 84.9993 79.1509 84.8 80.1936 84.8C81.6042 84.8 82.6776 85.4133 83.4136 86.64L91.5556 100.256L99.6056 86.686C100.035 85.9193 100.526 85.4133 101.078 85.168C101.66 84.9227 102.412 84.8 103.332 84.8C105.141 84.8 106.046 85.7047 106.046 87.514V114.286C106.046 116.095 105.141 117 103.332 117C101.522 117 100.618 116.095 100.618 114.286V94.046L94.1316 105.27C93.4876 106.527 92.6136 107.156 91.5096 107.156C90.4056 107.156 89.5316 106.527 88.8876 105.27L82.3556 94.046V114.286C82.3556 116.095 81.4662 117 79.6876 117ZM116.187 117C114.377 117 113.473 116.095 113.473 114.286V87.514C113.473 85.7047 114.377 84.8 116.187 84.8H132.287C134.096 84.8 135.001 85.628 135.001 87.284C135.001 88.9093 134.096 89.722 132.287 89.722H118.763V98.094H130.861C132.67 98.094 133.575 98.922 133.575 100.578C133.575 102.234 132.67 103.062 130.861 103.062H118.763V112.078H132.793C134.602 112.078 135.507 112.891 135.507 114.516C135.507 116.172 134.602 117 132.793 117H116.187ZM154.686 117.736C151.773 117.736 149.181 117.046 146.912 115.666C144.673 114.286 142.91 112.339 141.622 109.824C140.365 107.279 139.736 104.304 139.736 100.9C139.736 97.4653 140.365 94.4907 141.622 91.976C142.91 89.4307 144.673 87.468 146.912 86.088C149.181 84.6773 151.773 83.972 154.686 83.972C156.495 83.972 158.213 84.2327 159.838 84.754C161.463 85.2447 162.905 85.9347 164.162 86.824C164.898 87.3147 165.281 87.8973 165.312 88.572C165.373 89.216 165.143 89.8753 164.622 90.55C164.07 91.2247 163.487 91.5773 162.874 91.608C162.261 91.6387 161.586 91.424 160.85 90.964C159.991 90.412 159.041 89.9827 157.998 89.676C156.955 89.3387 155.851 89.17 154.686 89.17C152.754 89.17 151.083 89.6607 149.672 90.642C148.292 91.6233 147.219 93.0033 146.452 94.782C145.685 96.53 145.302 98.5693 145.302 100.9C145.302 103.2 145.685 105.239 146.452 107.018C147.219 108.766 148.292 110.131 149.672 111.112C151.083 112.093 152.754 112.584 154.686 112.584C156.127 112.584 157.323 112.446 158.274 112.17C159.255 111.863 160.114 111.495 160.85 111.066V104.166H158.274C156.465 104.166 155.56 103.338 155.56 101.682C155.56 100.026 156.465 99.198 158.274 99.198H163.518C165.327 99.198 166.232 100.118 166.232 101.958V112.4C166.232 113.167 166.109 113.811 165.864 114.332C165.649 114.823 165.235 115.206 164.622 115.482C163.303 116.157 161.785 116.693 160.068 117.092C158.381 117.521 156.587 117.736 154.686 117.736ZM173.132 117C172.242 117 171.629 116.739 171.292 116.218C170.954 115.697 170.954 114.991 171.292 114.102L181.688 86.824C182.148 85.4747 183.114 84.8 184.586 84.8H184.954C186.426 84.8 187.392 85.4747 187.852 86.824L198.294 114.102C198.631 114.991 198.616 115.697 198.248 116.218C197.91 116.739 197.297 117 196.408 117H195.534C194.092 117 193.142 116.31 192.682 114.93L190.888 109.916H178.514L176.72 114.93C176.26 116.31 175.309 117 173.868 117H173.132ZM180.262 104.994H189.186L184.77 92.436L180.262 104.994ZM206.585 117C204.898 117 204.055 116.157 204.055 114.47V87.33C204.055 85.6433 204.898 84.8 206.585 84.8H206.815C208.502 84.8 209.345 85.6433 209.345 87.33V97.588H223.973V87.33C223.973 85.6433 224.832 84.8 226.549 84.8H226.825C228.512 84.8 229.355 85.6433 229.355 87.33V114.47C229.355 116.157 228.512 117 226.825 117H226.549C224.832 117 223.973 116.157 223.973 114.47V102.51H209.345V114.47C209.345 116.157 208.502 117 206.815 117H206.585ZM236.964 117C236.074 117 235.461 116.739 235.124 116.218C234.786 115.697 234.786 114.991 235.124 114.102L245.52 86.824C245.98 85.4747 246.946 84.8 248.418 84.8H248.786C250.258 84.8 251.224 85.4747 251.684 86.824L262.126 114.102C262.463 114.991 262.448 115.697 262.08 116.218C261.742 116.739 261.129 117 260.24 117H259.366C257.924 117 256.974 116.31 256.514 114.93L254.72 109.916H242.346L240.552 114.93C240.092 116.31 239.141 117 237.7 117H236.964ZM244.094 104.994H253.018L248.602 92.436L244.094 104.994ZM270.509 117C268.761 117 267.887 116.095 267.887 114.286V87.514C267.887 85.7047 268.792 84.8 270.601 84.8H282.607C285.613 84.8 287.989 85.5053 289.737 86.916C291.516 88.3267 292.405 90.7033 292.405 94.046C292.405 96.8673 291.761 99.014 290.473 100.486C289.185 101.927 287.407 102.817 285.137 103.154L290.427 113.78C290.887 114.731 290.979 115.513 290.703 116.126C290.427 116.709 289.845 117 288.955 117H288.081C286.548 117 285.49 116.31 284.907 114.93L279.617 103.384H273.177V114.286C273.177 116.095 272.288 117 270.509 117ZM273.177 98.416H281.871C283.435 98.416 284.647 98.0787 285.505 97.404C286.364 96.7293 286.793 95.61 286.793 94.046C286.793 92.5127 286.364 91.4087 285.505 90.734C284.647 90.0593 283.435 89.722 281.871 89.722H273.177V98.416ZM298.46 117C297.571 117 296.957 116.739 296.62 116.218C296.283 115.697 296.283 114.991 296.62 114.102L307.016 86.824C307.476 85.4747 308.442 84.8 309.914 84.8H310.282C311.754 84.8 312.72 85.4747 313.18 86.824L323.622 114.102C323.959 114.991 323.944 115.697 323.576 116.218C323.239 116.739 322.625 117 321.736 117H320.862C319.421 117 318.47 116.31 318.01 114.93L316.216 109.916H303.842L302.048 114.93C301.588 116.31 300.637 117 299.196 117H298.46ZM305.59 104.994H314.514L310.098 92.436L305.59 104.994ZM337.709 117.46C335.256 117.46 333.339 116.847 331.959 115.62C330.579 114.393 329.598 112.553 329.015 110.1C328.463 107.647 328.187 104.58 328.187 100.9C328.187 97.22 328.463 94.1533 329.015 91.7C329.598 89.216 330.579 87.3607 331.959 86.134C333.339 84.9073 335.256 84.294 337.709 84.294C340.163 84.294 342.064 84.9073 343.413 86.134C344.793 87.3607 345.759 89.216 346.311 91.7C346.894 94.1533 347.185 97.22 347.185 100.9C347.185 104.58 346.894 107.647 346.311 110.1C345.759 112.553 344.793 114.393 343.413 115.62C342.064 116.847 340.163 117.46 337.709 117.46ZM337.709 112.768C338.844 112.768 339.733 112.415 340.377 111.71C341.052 110.974 341.543 109.747 341.849 108.03C342.156 106.313 342.309 103.936 342.309 100.9C342.309 97.8333 342.156 95.4413 341.849 93.724C341.543 92.0067 341.052 90.7953 340.377 90.09C339.733 89.354 338.844 88.986 337.709 88.986C336.575 88.986 335.67 89.354 334.995 90.09C334.321 90.7953 333.83 92.0067 333.523 93.724C333.247 95.4413 333.109 97.8333 333.109 100.9C333.109 103.936 333.247 106.313 333.523 108.03C333.83 109.747 334.321 110.974 334.995 111.71C335.67 112.415 336.575 112.768 337.709 112.768ZM360.937 117C359.281 117 358.453 116.095 358.453 114.286V91.056L355.141 93.218C353.608 94.2607 352.412 94.0767 351.553 92.666C350.664 91.2553 350.986 90.0747 352.519 89.124L358.039 85.674C358.591 85.3367 359.128 85.1067 359.649 84.984C360.171 84.8307 360.769 84.754 361.443 84.754C362.731 84.754 363.375 85.6587 363.375 87.468V114.286C363.375 116.095 362.563 117 360.937 117ZM373.872 117C372.062 117 371.158 116.494 371.158 115.482C371.158 113.274 371.725 111.127 372.86 109.042C374.025 106.957 375.957 104.626 378.656 102.05C379.606 101.13 380.511 100.21 381.37 99.29C382.228 98.3393 382.934 97.4193 383.486 96.53C384.038 95.61 384.329 94.736 384.36 93.908C384.39 92.3133 384.022 91.1327 383.256 90.366C382.52 89.5993 381.462 89.216 380.082 89.216C378.211 89.216 377.015 90.1667 376.494 92.068C376.248 92.896 375.926 93.54 375.528 94C375.16 94.4293 374.577 94.644 373.78 94.644C373.013 94.644 372.4 94.3833 371.94 93.862C371.48 93.3407 371.357 92.6353 371.572 91.746C372.062 89.4767 373.059 87.7133 374.562 86.456C376.064 85.168 377.904 84.524 380.082 84.524C381.86 84.524 383.44 84.892 384.82 85.628C386.23 86.364 387.334 87.4373 388.132 88.848C388.929 90.2587 389.297 91.9913 389.236 94.046C389.205 95.4873 388.868 96.8213 388.224 98.048C387.58 99.2747 386.721 100.471 385.648 101.636C384.605 102.771 383.409 103.982 382.06 105.27C380.649 106.65 379.392 107.969 378.288 109.226C377.214 110.483 376.586 111.572 376.402 112.492H385.97C387.779 112.492 388.684 113.243 388.684 114.746C388.684 116.249 387.779 117 385.97 117H373.872Z" fill="#007440"/>
<rect x="9" y="60" width="416" height="79" rx="24" fill="white"/>
<rect x="9" y="60" width="416" height="79" rx="24" stroke="#E68600" stroke-width="4"/>
<path d="M173.844 49.356C173.265 49.48 172.759 49.4387 172.325 49.232C171.912 49.046 171.633 48.705 171.488 48.209C171.343 47.713 171.416 47.2583 171.705 46.845C171.994 46.4317 172.397 46.1837 172.914 46.101C175.001 45.729 176.572 45.1193 177.626 44.272C178.701 43.404 179.393 42.2157 179.703 40.707H174.123C173.668 40.707 173.276 40.552 172.945 40.242C172.635 39.9113 172.48 39.5187 172.48 39.064C172.48 38.5887 172.635 38.196 172.945 37.886C173.276 37.5553 173.668 37.39 174.123 37.39H179.92V34.476H178.866C178.473 34.476 178.122 34.3623 177.812 34.135C177.523 33.887 177.326 33.5873 177.223 33.236C176.541 33.7733 175.828 34.29 175.084 34.786C174.361 35.2613 173.627 35.685 172.883 36.057C172.428 36.2843 171.963 36.3463 171.488 36.243C171.013 36.119 170.661 35.8297 170.434 35.375C170.227 34.9617 170.207 34.538 170.372 34.104C170.558 33.67 170.878 33.3497 171.333 33.143C172.697 32.4817 174.051 31.6447 175.394 30.632C175.022 30.2807 174.567 29.888 174.03 29.454C173.513 28.9993 173.11 28.6583 172.821 28.431C172.49 28.183 172.315 27.842 172.294 27.408C172.294 26.974 172.439 26.602 172.728 26.292C173.017 25.982 173.369 25.8063 173.782 25.765C174.216 25.7237 174.598 25.8477 174.929 26.137C175.136 26.3023 175.415 26.5297 175.766 26.819C176.117 27.1083 176.479 27.4183 176.851 27.749C177.244 28.059 177.564 28.3277 177.812 28.555C178.556 27.811 179.155 27.1187 179.61 26.478C180.168 25.6927 179.961 25.3 178.99 25.3H173.999C173.606 25.3 173.265 25.1553 172.976 24.866C172.687 24.556 172.542 24.2047 172.542 23.812C172.542 23.3987 172.687 23.0473 172.976 22.758C173.265 22.4687 173.606 22.324 173.999 22.324H179.951C181.17 22.324 182.1 22.5617 182.741 23.037C183.382 23.4917 183.723 24.091 183.764 24.835C183.805 25.579 183.526 26.385 182.927 27.253C182.059 28.5343 180.974 29.8053 179.672 31.066H190.615C188.321 28.9167 186.451 26.416 185.004 23.564C184.818 23.1713 184.797 22.7787 184.942 22.386C185.087 21.9933 185.345 21.6937 185.717 21.487C186.11 21.301 186.533 21.2597 186.988 21.363C187.443 21.4457 187.773 21.6833 187.98 22.076C188.228 22.51 188.486 22.944 188.755 23.378C189.024 23.7913 189.292 24.2047 189.561 24.618C189.871 24.37 190.202 24.091 190.553 23.781C190.904 23.471 191.235 23.1817 191.545 22.913C191.855 22.6237 192.082 22.4067 192.227 22.262C192.558 21.9727 192.93 21.828 193.343 21.828C193.777 21.8073 194.159 21.952 194.49 22.262C194.8 22.5513 194.955 22.913 194.955 23.347C194.976 23.781 194.821 24.1427 194.49 24.432C194.304 24.5973 194.025 24.8453 193.653 25.176C193.302 25.486 192.919 25.8167 192.506 26.168C192.113 26.4987 191.762 26.788 191.452 27.036C191.679 27.2633 191.896 27.4907 192.103 27.718C192.33 27.9453 192.547 28.1727 192.754 28.4C193.043 28.152 193.384 27.8627 193.777 27.532C194.19 27.1807 194.583 26.8397 194.955 26.509C195.327 26.1783 195.596 25.9303 195.761 25.765C196.071 25.4757 196.443 25.331 196.877 25.331C197.311 25.3103 197.683 25.455 197.993 25.765C198.303 26.0543 198.458 26.416 198.458 26.85C198.479 27.284 198.334 27.6457 198.024 27.935C197.859 28.1003 197.6 28.3277 197.249 28.617C196.918 28.9063 196.567 29.206 196.195 29.516C195.823 29.826 195.482 30.1153 195.172 30.384C196.164 31.1073 197.29 31.7997 198.551 32.461C199.006 32.6677 199.285 33.0087 199.388 33.484C199.512 33.9593 199.46 34.4037 199.233 34.817C198.964 35.2717 198.572 35.5507 198.055 35.654C197.538 35.7573 197.042 35.6747 196.567 35.406C195.203 34.662 193.942 33.8353 192.785 32.926C192.744 33.36 192.558 33.732 192.227 34.042C191.917 34.3313 191.535 34.476 191.08 34.476H189.685V37.39H195.451C195.926 37.39 196.319 37.5553 196.629 37.886C196.96 38.196 197.125 38.5887 197.125 39.064C197.125 39.5187 196.96 39.9113 196.629 40.242C196.319 40.552 195.926 40.707 195.451 40.707H189.685V43.993C189.685 44.7163 189.861 45.202 190.212 45.45C190.584 45.698 191.318 45.822 192.413 45.822C193.343 45.822 193.984 45.6877 194.335 45.419C194.707 45.1297 194.996 44.6233 195.203 43.9C195.368 43.3627 195.668 42.9907 196.102 42.784C196.536 42.5567 197.011 42.5257 197.528 42.691C198.086 42.8563 198.458 43.1353 198.644 43.528C198.851 43.9207 198.902 44.365 198.799 44.861C198.468 46.473 197.755 47.6097 196.66 48.271C195.565 48.9323 194.139 49.263 192.382 49.263C190.894 49.263 189.695 49.1287 188.786 48.86C187.877 48.5913 187.205 48.0953 186.771 47.372C186.358 46.6487 186.151 45.6153 186.151 44.272V40.707H183.206C182.875 43.063 181.966 44.9437 180.478 46.349C178.99 47.7543 176.779 48.7567 173.844 49.356ZM183.361 37.39H186.151V34.476H183.361V37.39ZM220.964 49.542C219.352 49.542 218.091 49.4077 217.182 49.139C216.273 48.891 215.632 48.4363 215.26 47.775C214.888 47.1137 214.692 46.163 214.671 44.923H211.912C210.217 44.923 208.926 44.7783 208.037 44.489C207.148 44.179 206.539 43.6623 206.208 42.939C205.877 42.2157 205.712 41.2237 205.712 39.963C205.712 38.6817 205.877 37.6793 206.208 36.956C206.539 36.2327 207.148 35.7263 208.037 35.437C208.926 35.1477 210.217 35.003 211.912 35.003H220.747C222.442 35.003 223.733 35.1477 224.622 35.437C225.511 35.7263 226.12 36.2327 226.451 36.956C226.782 37.6793 226.947 38.6817 226.947 39.963C226.947 41.2237 226.782 42.2157 226.451 42.939C226.12 43.6623 225.511 44.179 224.622 44.489C223.733 44.7783 222.442 44.923 220.747 44.923H218.236C218.277 45.5637 218.474 45.977 218.825 46.163C219.176 46.349 219.889 46.442 220.964 46.442H224.374C225.304 46.442 226.017 46.38 226.513 46.256C227.009 46.132 227.371 45.915 227.598 45.605C227.846 45.295 228.022 44.8713 228.125 44.334C228.208 43.9207 228.456 43.6003 228.869 43.373C229.282 43.1457 229.747 43.1043 230.264 43.249C230.739 43.373 231.08 43.621 231.287 43.993C231.514 44.3443 231.576 44.7577 231.473 45.233C231.287 46.3077 230.936 47.155 230.419 47.775C229.902 48.4157 229.158 48.8703 228.187 49.139C227.216 49.4077 225.945 49.542 224.374 49.542H220.964ZM216.438 34.445C215.942 34.445 215.518 34.2797 215.167 33.949C214.836 33.6183 214.671 33.1843 214.671 32.647V28.245H208.192C207.365 28.245 206.787 28.3587 206.456 28.586C206.125 28.8133 205.96 29.2887 205.96 30.012V31.407C205.96 31.9237 205.784 32.3473 205.433 32.678C205.102 32.988 204.699 33.143 204.224 33.143C203.728 33.143 203.304 32.988 202.953 32.678C202.622 32.3473 202.457 31.9237 202.457 31.407V29.981C202.457 28.9477 202.622 28.121 202.953 27.501C203.304 26.881 203.893 26.4367 204.72 26.168C205.547 25.8787 206.673 25.734 208.099 25.734H214.671V24.401H205.371C204.978 24.401 204.648 24.2667 204.379 23.998C204.131 23.7087 204.007 23.3677 204.007 22.975C204.007 22.603 204.131 22.2827 204.379 22.014C204.648 21.7247 204.978 21.58 205.371 21.58H227.66C228.053 21.58 228.373 21.7247 228.621 22.014C228.89 22.2827 229.024 22.603 229.024 22.975C229.024 23.3677 228.89 23.7087 228.621 23.998C228.373 24.2667 228.053 24.401 227.66 24.401H218.205V25.734H224.777C226.224 25.734 227.35 25.8787 228.156 26.168C228.983 26.4367 229.561 26.881 229.892 27.501C230.243 28.121 230.419 28.9477 230.419 29.981V31.407C230.419 31.9237 230.243 32.3473 229.892 32.678C229.541 32.988 229.127 33.143 228.652 33.143C228.177 33.143 227.763 32.988 227.412 32.678C227.061 32.3473 226.885 31.9237 226.885 31.407V30.012C226.885 29.2887 226.72 28.8133 226.389 28.586C226.079 28.3587 225.511 28.245 224.684 28.245H218.205V32.647C218.205 33.1843 218.029 33.6183 217.678 33.949C217.347 34.2797 216.934 34.445 216.438 34.445ZM220.096 33.949C219.827 33.949 219.59 33.856 219.383 33.67C219.197 33.4633 219.104 33.2257 219.104 32.957C219.104 32.6883 219.197 32.461 219.383 32.275C219.59 32.0683 219.827 31.965 220.096 31.965H225.056C225.345 31.965 225.583 32.0683 225.769 32.275C225.955 32.461 226.048 32.6883 226.048 32.957C226.048 33.2257 225.955 33.4633 225.769 33.67C225.583 33.856 225.345 33.949 225.056 33.949H220.096ZM220.096 31.159C219.827 31.159 219.59 31.066 219.383 30.88C219.197 30.6733 219.104 30.4357 219.104 30.167C219.104 29.8983 219.197 29.671 219.383 29.485C219.59 29.2783 219.827 29.175 220.096 29.175H225.056C225.345 29.175 225.583 29.2783 225.769 29.485C225.955 29.671 226.048 29.8983 226.048 30.167C226.048 30.4357 225.955 30.6733 225.769 30.88C225.583 31.066 225.345 31.159 225.056 31.159H220.096ZM207.758 33.949C207.489 33.949 207.262 33.856 207.076 33.67C206.89 33.4633 206.797 33.2257 206.797 32.957C206.797 32.6883 206.89 32.461 207.076 32.275C207.262 32.0683 207.489 31.965 207.758 31.965H212.749C213.018 31.965 213.245 32.0683 213.431 32.275C213.617 32.461 213.71 32.6883 213.71 32.957C213.71 33.2257 213.617 33.4633 213.431 33.67C213.245 33.856 213.018 33.949 212.749 33.949H207.758ZM207.758 31.159C207.489 31.159 207.262 31.066 207.076 30.88C206.89 30.6733 206.797 30.4357 206.797 30.167C206.797 29.8983 206.89 29.671 207.076 29.485C207.262 29.2783 207.489 29.175 207.758 29.175H212.749C213.018 29.175 213.245 29.2783 213.431 29.485C213.617 29.671 213.71 29.8983 213.71 30.167C213.71 30.4357 213.617 30.6733 213.431 30.88C213.245 31.066 213.018 31.159 212.749 31.159H207.758ZM209.246 38.816H214.671V37.514H211.943C210.992 37.514 210.331 37.5863 209.959 37.731C209.587 37.855 209.349 38.2167 209.246 38.816ZM211.943 42.412H214.671V41.11H209.246C209.349 41.6887 209.587 42.0503 209.959 42.195C210.331 42.3397 210.992 42.412 211.943 42.412ZM218.236 38.816H223.413C223.33 38.2167 223.103 37.855 222.731 37.731C222.359 37.5863 221.687 37.514 220.716 37.514H218.236V38.816ZM218.236 42.412H220.716C221.687 42.412 222.359 42.3397 222.731 42.195C223.103 42.0503 223.33 41.6887 223.413 41.11H218.236V42.412ZM257.141 49.79C256.645 49.79 256.221 49.6247 255.87 49.294C255.519 48.9633 255.343 48.5293 255.343 47.992V33.98H252.615C252.47 37.1007 251.871 39.87 250.817 42.288C249.784 44.6853 248.306 46.7107 246.384 48.364C245.95 48.736 245.454 48.953 244.896 49.015C244.359 49.0977 243.873 48.9427 243.439 48.55C243.046 48.1573 242.85 47.7027 242.85 47.186C242.871 46.69 243.108 46.2457 243.563 45.853C244.824 44.7577 245.847 43.5797 246.632 42.319C247.438 41.0377 248.027 39.6013 248.399 38.01C248.771 36.398 248.957 34.5483 248.957 32.461V28.462C248.957 27.1807 249.091 26.1577 249.36 25.393C249.649 24.6077 250.125 23.998 250.786 23.564C251.468 23.13 252.388 22.7993 253.545 22.572C254.454 22.4067 255.457 22.1897 256.552 21.921C257.647 21.6317 258.701 21.3423 259.714 21.053C260.251 20.8877 260.737 20.9083 261.171 21.115C261.626 21.3217 261.925 21.6317 262.07 22.045C262.256 22.541 262.256 23.0163 262.07 23.471C261.884 23.905 261.522 24.2047 260.985 24.37C259.993 24.6387 258.96 24.9073 257.885 25.176C256.81 25.424 255.818 25.6307 254.909 25.796C254.289 25.92 253.814 26.075 253.483 26.261C253.152 26.4263 252.925 26.6847 252.801 27.036C252.698 27.3667 252.646 27.8627 252.646 28.524V30.539H261.016C261.553 30.539 261.967 30.7147 262.256 31.066C262.566 31.3967 262.721 31.7997 262.721 32.275C262.721 32.7297 262.566 33.1327 262.256 33.484C261.967 33.8147 261.553 33.98 261.016 33.98H258.939V47.992C258.939 48.5293 258.763 48.9633 258.412 49.294C258.061 49.6247 257.637 49.79 257.141 49.79ZM234.046 49.449C233.612 49.2423 233.323 48.9117 233.178 48.457C233.033 48.0023 233.075 47.5683 233.302 47.155C234.129 45.6257 234.759 44.0137 235.193 42.319C235.627 40.6243 235.844 38.7333 235.844 36.646V33.081C235.844 31.6963 235.999 30.6217 236.309 29.857C236.64 29.0923 237.208 28.555 238.014 28.245C238.841 27.935 239.988 27.78 241.455 27.78C242.943 27.78 244.09 27.935 244.896 28.245C245.702 28.555 246.26 29.0923 246.57 29.857C246.88 30.6217 247.035 31.6963 247.035 33.081C247.035 34.4657 246.87 35.5403 246.539 36.305C246.229 37.049 245.671 37.576 244.865 37.886C244.059 38.1753 242.912 38.32 241.424 38.32H239.347C239.244 40.4487 238.954 42.3397 238.479 43.993C238.004 45.6257 237.384 47.155 236.619 48.581C236.371 49.0357 235.999 49.3457 235.503 49.511C235.007 49.6763 234.521 49.6557 234.046 49.449ZM235.72 25.641C235.245 25.641 234.862 25.486 234.573 25.176C234.284 24.866 234.139 24.494 234.139 24.06C234.139 23.6053 234.284 23.2333 234.573 22.944C234.862 22.634 235.245 22.479 235.72 22.479H246.446C246.921 22.479 247.304 22.634 247.593 22.944C247.882 23.2333 248.027 23.6053 248.027 24.06C248.027 24.494 247.882 24.866 247.593 25.176C247.304 25.486 246.921 25.641 246.446 25.641H235.72ZM239.378 35.127H241.455C242.323 35.127 242.881 35.0133 243.129 34.786C243.398 34.538 243.532 33.9697 243.532 33.081C243.532 32.1923 243.398 31.6343 243.129 31.407C242.881 31.159 242.323 31.035 241.455 31.035C240.587 31.035 240.019 31.1487 239.75 31.376C239.502 31.6033 239.378 32.1613 239.378 33.05V35.127Z" fill="#007440"/>
<path d="M98 142L98 220" stroke="#FAD764" stroke-width="4"/>
<rect x="120" y="122" width="192" height="49" rx="24.5" fill="#C6C6C6"/>
<rect x="120" y="122" width="192" height="49" rx="24.5" stroke="#007440"/>
<path d="M149.517 155.4C147.933 155.4 146.517 155.025 145.267 154.275C144.033 153.525 143.067 152.467 142.367 151.1C141.667 149.717 141.317 148.1 141.317 146.25C141.317 144.383 141.667 142.767 142.367 141.4C143.067 140.017 144.033 138.95 145.267 138.2C146.517 137.433 147.933 137.05 149.517 137.05C150.7 137.05 151.783 137.267 152.767 137.7C153.767 138.133 154.633 138.742 155.367 139.525C155.7 139.892 155.808 140.267 155.692 140.65C155.575 141.017 155.35 141.3 155.017 141.5L154.892 141.575C154.675 141.708 154.367 141.758 153.967 141.725C153.567 141.692 153.2 141.517 152.867 141.2C152.433 140.767 151.933 140.442 151.367 140.225C150.817 139.992 150.2 139.875 149.517 139.875C148.483 139.875 147.575 140.142 146.792 140.675C146.008 141.192 145.4 141.933 144.967 142.9C144.55 143.85 144.342 144.967 144.342 146.25C144.342 147.517 144.55 148.633 144.967 149.6C145.4 150.55 146.008 151.292 146.792 151.825C147.575 152.342 148.483 152.6 149.517 152.6C150.833 152.6 151.95 152.158 152.867 151.275C153.2 150.958 153.542 150.775 153.892 150.725C154.242 150.675 154.575 150.725 154.892 150.875L154.942 150.925C155.292 151.092 155.533 151.375 155.667 151.775C155.817 152.158 155.733 152.533 155.417 152.9C154.683 153.7 153.817 154.317 152.817 154.75C151.817 155.183 150.717 155.4 149.517 155.4ZM164.413 155.275C163.313 155.275 162.322 155.017 161.438 154.5C160.572 153.967 159.88 153.233 159.363 152.3C158.863 151.35 158.613 150.242 158.613 148.975C158.613 147.708 158.863 146.608 159.363 145.675C159.88 144.725 160.572 143.992 161.438 143.475C162.322 142.942 163.313 142.675 164.413 142.675C165.547 142.675 166.547 142.942 167.413 143.475C168.297 143.992 168.988 144.725 169.488 145.675C169.988 146.608 170.238 147.708 170.238 148.975C170.238 150.242 169.988 151.35 169.488 152.3C168.988 153.233 168.297 153.967 167.413 154.5C166.547 155.017 165.547 155.275 164.413 155.275ZM164.413 152.725C165.297 152.725 166.013 152.4 166.563 151.75C167.13 151.1 167.413 150.175 167.413 148.975C167.413 147.775 167.13 146.85 166.563 146.2C166.013 145.55 165.297 145.225 164.413 145.225C163.547 145.225 162.838 145.55 162.288 146.2C161.738 146.85 161.463 147.775 161.463 148.975C161.463 150.175 161.738 151.1 162.288 151.75C162.838 152.4 163.547 152.725 164.413 152.725ZM174.591 155C173.641 155 173.166 154.508 173.166 153.525V144.45C173.166 143.467 173.591 142.975 174.441 142.975C175.274 142.975 175.716 143.192 175.766 143.625L175.866 144.425C176.099 143.925 176.491 143.508 177.041 143.175C177.591 142.842 178.224 142.675 178.941 142.675C179.724 142.675 180.408 142.858 180.991 143.225C181.574 143.592 182.024 144.117 182.341 144.8C182.658 144.183 183.116 143.675 183.716 143.275C184.333 142.875 185.033 142.675 185.816 142.675C186.999 142.675 187.949 143.092 188.666 143.925C189.399 144.742 189.766 145.9 189.766 147.4V153.525C189.766 154.508 189.299 155 188.366 155C187.399 155 186.916 154.508 186.916 153.525V148.05C186.916 147.167 186.758 146.475 186.441 145.975C186.124 145.475 185.683 145.225 185.116 145.225C184.399 145.225 183.841 145.483 183.441 146C183.058 146.517 182.866 147.25 182.866 148.2V153.525C182.866 154.508 182.399 155 181.466 155C180.516 155 180.041 154.508 180.041 153.525V148.05C180.041 147.167 179.874 146.475 179.541 145.975C179.208 145.475 178.758 145.225 178.191 145.225C177.491 145.225 176.949 145.492 176.566 146.025C176.183 146.542 175.991 147.267 175.991 148.2V153.525C175.991 154.508 175.524 155 174.591 155ZM195.119 155C194.186 155 193.719 154.508 193.719 153.525V144.45C193.719 143.467 194.186 142.975 195.119 142.975C196.053 142.975 196.519 143.467 196.519 144.45V153.525C196.519 154.508 196.053 155 195.119 155ZM195.094 141C194.611 141 194.194 140.825 193.844 140.475C193.494 140.125 193.319 139.708 193.319 139.225C193.319 138.742 193.494 138.325 193.844 137.975C194.194 137.625 194.611 137.45 195.094 137.45C195.578 137.45 195.994 137.625 196.344 137.975C196.694 138.325 196.869 138.742 196.869 139.225C196.869 139.708 196.694 140.125 196.344 140.475C195.994 140.825 195.578 141 195.094 141ZM201.836 155C200.886 155 200.411 154.508 200.411 153.525V144.45C200.411 143.467 200.836 142.975 201.686 142.975C202.536 142.975 202.978 143.192 203.011 143.625L203.086 144.4C203.42 143.933 203.861 143.533 204.411 143.2C204.961 142.85 205.611 142.675 206.361 142.675C207.611 142.675 208.628 143.075 209.411 143.875C210.211 144.675 210.611 145.85 210.611 147.4V153.525C210.611 154.508 210.145 155 209.211 155C208.261 155 207.786 154.508 207.786 153.525V148.075C207.786 147.125 207.595 146.417 207.211 145.95C206.828 145.467 206.311 145.225 205.661 145.225C204.945 145.225 204.361 145.475 203.911 145.975C203.461 146.458 203.236 147.183 203.236 148.15V153.525C203.236 154.508 202.77 155 201.836 155ZM219.117 159.975C217.234 159.975 215.742 159.425 214.642 158.325C214.292 157.958 214.151 157.6 214.217 157.25C214.284 156.9 214.501 156.608 214.867 156.375C215.234 156.125 215.567 156.042 215.867 156.125C216.167 156.208 216.501 156.392 216.867 156.675C217.451 157.175 218.201 157.425 219.117 157.425C220.101 157.425 220.826 157.125 221.292 156.525C221.759 155.925 221.992 154.967 221.992 153.65V152.975C221.209 153.792 220.217 154.2 219.017 154.2C217.967 154.2 217.026 153.983 216.192 153.55C215.376 153.1 214.734 152.45 214.267 151.6C213.801 150.733 213.567 149.675 213.567 148.425C213.567 147.158 213.801 146.1 214.267 145.25C214.734 144.4 215.376 143.758 216.192 143.325C217.026 142.892 217.967 142.675 219.017 142.675C219.667 142.675 220.292 142.817 220.892 143.1C221.492 143.367 221.984 143.825 222.367 144.475V144.05C222.367 143.633 222.476 143.35 222.692 143.2C222.909 143.05 223.209 142.975 223.592 142.975C224.392 142.975 224.792 143.467 224.792 144.45V153.65C224.792 155.633 224.326 157.183 223.392 158.3C222.476 159.417 221.051 159.975 219.117 159.975ZM219.242 151.725C220.109 151.725 220.817 151.433 221.367 150.85C221.917 150.25 222.192 149.442 222.192 148.425C222.192 147.392 221.917 146.592 221.367 146.025C220.817 145.442 220.109 145.15 219.242 145.15C218.376 145.15 217.684 145.442 217.167 146.025C216.667 146.592 216.417 147.392 216.417 148.425C216.417 149.442 216.667 150.25 217.167 150.85C217.684 151.433 218.376 151.725 219.242 151.725ZM242.446 155.35C241.213 155.35 240.063 155.142 238.996 154.725C237.93 154.292 237.013 153.575 236.246 152.575C235.963 152.175 235.863 151.808 235.946 151.475C236.046 151.125 236.296 150.842 236.696 150.625C237.08 150.392 237.43 150.325 237.746 150.425C238.063 150.508 238.38 150.725 238.696 151.075C239.146 151.558 239.68 151.933 240.296 152.2C240.93 152.467 241.68 152.6 242.546 152.6C243.713 152.6 244.53 152.392 244.996 151.975C245.48 151.542 245.721 150.958 245.721 150.225C245.721 149.758 245.613 149.358 245.396 149.025C245.196 148.692 244.763 148.383 244.096 148.1C243.446 147.8 242.438 147.5 241.071 147.2C239.455 146.817 238.255 146.208 237.471 145.375C236.705 144.542 236.321 143.483 236.321 142.2C236.321 141.183 236.563 140.292 237.046 139.525C237.546 138.742 238.238 138.133 239.121 137.7C240.021 137.267 241.071 137.05 242.271 137.05C243.521 137.05 244.613 137.267 245.546 137.7C246.48 138.133 247.263 138.692 247.896 139.375C248.213 139.725 248.338 140.075 248.271 140.425C248.205 140.775 247.988 141.092 247.621 141.375C247.255 141.675 246.905 141.792 246.571 141.725C246.238 141.658 245.905 141.467 245.571 141.15C245.155 140.767 244.68 140.45 244.146 140.2C243.613 139.95 242.98 139.825 242.246 139.825C241.38 139.825 240.671 140.017 240.121 140.4C239.588 140.767 239.321 141.325 239.321 142.075C239.321 142.408 239.396 142.733 239.546 143.05C239.713 143.35 240.063 143.642 240.596 143.925C241.146 144.208 241.988 144.483 243.121 144.75C245.121 145.2 246.563 145.875 247.446 146.775C248.33 147.675 248.771 148.808 248.771 150.175C248.771 151.842 248.188 153.125 247.021 154.025C245.871 154.908 244.346 155.35 242.446 155.35ZM257.147 155.275C256.047 155.275 255.055 155.017 254.172 154.5C253.305 153.967 252.613 153.233 252.097 152.3C251.597 151.35 251.347 150.242 251.347 148.975C251.347 147.708 251.597 146.608 252.097 145.675C252.613 144.725 253.305 143.992 254.172 143.475C255.055 142.942 256.047 142.675 257.147 142.675C258.28 142.675 259.28 142.942 260.147 143.475C261.03 143.992 261.722 144.725 262.222 145.675C262.722 146.608 262.972 147.708 262.972 148.975C262.972 150.242 262.722 151.35 262.222 152.3C261.722 153.233 261.03 153.967 260.147 154.5C259.28 155.017 258.28 155.275 257.147 155.275ZM257.147 152.725C258.03 152.725 258.747 152.4 259.297 151.75C259.863 151.1 260.147 150.175 260.147 148.975C260.147 147.775 259.863 146.85 259.297 146.2C258.747 145.55 258.03 145.225 257.147 145.225C256.28 145.225 255.572 145.55 255.022 146.2C254.472 146.85 254.197 147.775 254.197 148.975C254.197 150.175 254.472 151.1 255.022 151.75C255.572 152.4 256.28 152.725 257.147 152.725ZM271.075 155.275C269.975 155.275 268.983 155.017 268.1 154.5C267.233 153.967 266.541 153.233 266.025 152.3C265.525 151.35 265.275 150.242 265.275 148.975C265.275 147.708 265.525 146.608 266.025 145.675C266.541 144.725 267.233 143.992 268.1 143.475C268.983 142.942 269.975 142.675 271.075 142.675C272.208 142.675 273.208 142.942 274.075 143.475C274.958 143.992 275.65 144.725 276.15 145.675C276.65 146.608 276.9 147.708 276.9 148.975C276.9 150.242 276.65 151.35 276.15 152.3C275.65 153.233 274.958 153.967 274.075 154.5C273.208 155.017 272.208 155.275 271.075 155.275ZM271.075 152.725C271.958 152.725 272.675 152.4 273.225 151.75C273.791 151.1 274.075 150.175 274.075 148.975C274.075 147.775 273.791 146.85 273.225 146.2C272.675 145.55 271.958 145.225 271.075 145.225C270.208 145.225 269.5 145.55 268.95 146.2C268.4 146.85 268.125 147.775 268.125 148.975C268.125 150.175 268.4 151.1 268.95 151.75C269.5 152.4 270.208 152.725 271.075 152.725ZM281.252 155C280.302 155 279.827 154.508 279.827 153.525V144.45C279.827 143.467 280.252 142.975 281.102 142.975C281.952 142.975 282.394 143.192 282.427 143.625L282.502 144.4C282.836 143.933 283.277 143.533 283.827 143.2C284.377 142.85 285.027 142.675 285.777 142.675C287.027 142.675 288.044 143.075 288.827 143.875C289.627 144.675 290.027 145.85 290.027 147.4V153.525C290.027 154.508 289.561 155 288.627 155C287.677 155 287.202 154.508 287.202 153.525V148.075C287.202 147.125 287.011 146.417 286.627 145.95C286.244 145.467 285.727 145.225 285.077 145.225C284.361 145.225 283.777 145.475 283.327 145.975C282.877 146.458 282.652 147.183 282.652 148.15V153.525C282.652 154.508 282.186 155 281.252 155Z" fill="white"/>
</svg>
