<svg width="718" height="284" viewBox="0 0 718 284" fill="none" xmlns="http://www.w3.org/2000/svg">
<g clip-path="url(#clip0_1_2110)">
<path d="M243.571 280.349C228.355 285.855 203.67 283.993 188.454 276.205C173.239 268.397 173.239 257.605 188.454 252.1L530.527 62.6446C555.893 53.4551 673.594 65.2072 698.98 78.2206C724.347 91.234 724.347 109.213 698.98 118.402L243.591 280.369L243.571 280.349Z" fill="#FAD764"/>
<g clip-path="url(#clip1_1_2110)">
<path opacity="0.2" d="M643.125 128.359L527.627 86.3259L562.863 74.2427L678.361 116.276L643.125 128.359Z" fill="black"/>
<path d="M670.309 115.953L674.682 117.539L674.906 93.9643L670.533 92.3788L670.309 115.953Z" fill="#B1B1B1"/>
<path d="M678.361 116.276L674.682 117.539L674.905 93.9643L678.584 92.7017L678.361 116.276Z" fill="#C6C6C6"/>
<path d="M526.128 85.7797L530.5 87.3782L530.555 81.6176L526.182 80.0321L526.128 85.7797Z" fill="#B1B1B1"/>
<path d="M534.179 86.1156L530.5 87.3782L530.555 81.6176L534.233 80.355L534.179 86.1156Z" fill="#C6C6C6"/>
<path d="M527.218 82.5851L644.194 125.164L643.18 122.599L526.182 80.0321L527.218 82.5851Z" fill="#B1B1B1"/>
<path d="M638.753 126.774L643.125 128.359L643.18 122.599L638.807 121.013L638.753 126.774Z" fill="#B1B1B1"/>
<path d="M673.768 113.313L645.656 122.947L645.672 121.299L673.784 111.665L673.768 113.313Z" fill="#C6C6C6"/>
<path d="M673.784 111.665L645.672 121.299L643.349 120.42L671.461 110.8L673.784 111.665Z" fill="white"/>
<path d="M646.804 127.097L643.125 128.359L643.18 122.599L646.863 120.856L646.804 127.097Z" fill="#C6C6C6"/>
<path d="M684.335 87.5531L644.194 125.164L643.18 122.599L683.299 84.9871L684.335 87.5531Z" fill="#C6C6C6"/>
<path d="M643.18 122.599L683.299 84.9871L566.323 42.4207L526.182 80.0321L643.18 122.599Z" fill="#F0F0F0"/>
<path d="M631.376 84.4167L630.757 82.5943L639.736 74.492L642.877 74.0546L646.447 75.3731L634.967 85.7354L631.397 84.4169L631.376 84.4167ZM623.059 96.4699L634.539 86.1076L630.97 84.7892L627.829 85.2265L618.85 93.3288L619.468 95.1512L623.038 96.4697L623.059 96.4699ZM646.869 75.5198L635.389 85.8821L640.838 87.8931L652.319 77.5308L646.869 75.5198ZM599.069 102.782L610.55 92.4196L605.1 90.4086L593.62 100.771L599.069 102.782ZM616.987 79.6609L605.507 90.0232L610.956 92.0342L622.436 81.6719L616.987 79.6609ZM628.895 68.9135L617.415 79.2757L622.864 81.2867L634.344 70.9244L628.895 68.9135ZM617.044 109.388L628.524 99.026L623.075 97.015L611.595 107.377L617.044 109.388ZM635.019 115.995L646.499 105.632L641.05 103.621L629.569 113.984L635.019 115.995ZM664.823 82.126L653.343 92.4883L658.792 94.4993L670.272 84.137L664.823 82.126ZM652.936 92.8737L641.456 103.236L646.905 105.247L658.386 94.8847L652.936 92.8737ZM652.92 92.3415L664.4 81.9792L660.831 80.6608L657.69 81.0981L648.711 89.2004L649.329 91.0229L652.899 92.3413L652.92 92.3415ZM641.033 103.089L652.514 92.7269L648.944 91.4085L645.803 91.8458L636.824 99.9481L637.443 101.771L641.012 103.089L641.033 103.089ZM634.962 86.2673L623.481 96.6296L628.931 98.6406L640.411 88.2783L634.962 86.2673ZM658.808 95.0444L647.328 105.407L650.897 106.725L654.038 106.288L663.017 98.1854L662.399 96.363L658.829 95.0446L658.808 95.0444ZM640.606 103.474L637.036 102.156L633.895 102.593L624.916 110.696L625.535 112.518L629.104 113.837L640.585 103.474L640.606 103.474ZM616.992 79.116L628.472 68.7537L624.903 67.4353L621.762 67.8726L612.783 75.975L613.401 77.7974L616.971 79.1158L616.992 79.116ZM628.947 99.1857L617.466 109.548L621.036 110.866L624.177 110.429L633.156 102.327L632.537 100.504L628.968 99.1859L628.947 99.1857ZM640.833 88.425L629.353 98.7873L632.923 100.106L636.064 99.6684L645.043 91.5661L644.424 89.7437L640.855 88.4252L640.833 88.425ZM674.285 85.6023L670.716 84.2839L659.236 94.6462L662.805 95.9646L665.946 95.5273L674.925 87.425L674.307 85.6025L674.285 85.6023ZM646.921 105.792L635.441 116.154L639.011 117.473L642.152 117.035L651.131 108.933L650.512 107.111L646.943 105.792L646.921 105.792ZM652.741 77.6775L641.261 88.0398L644.831 89.3583L647.972 88.921L656.951 80.8186L656.332 78.9962L652.762 77.6778L652.741 77.6775ZM622.631 96.8551L619.062 95.5366L615.921 95.974L606.942 104.076L607.56 105.899L611.13 107.217L622.61 96.8549L622.631 96.8551ZM604.657 90.2487L601.087 88.9303L597.946 89.3676L588.967 97.4699L589.586 99.2924L593.155 100.611L604.636 90.2485L604.657 90.2487ZM605.084 89.8635L616.565 79.5012L612.995 78.1828L609.854 78.6201L600.875 86.7224L601.494 88.5449L605.063 89.8633L605.084 89.8635ZM610.972 92.5664L599.492 102.929L603.061 104.247L606.203 103.81L615.181 95.7074L614.563 93.885L610.993 92.5666L610.972 92.5664ZM634.767 71.0712L623.286 81.4335L626.856 82.7519L629.997 82.3146L638.976 74.2123L638.357 72.3898L634.788 71.0714L634.767 71.0712ZM622.88 81.8189L611.4 92.1812L614.969 93.4996L618.11 93.0623L627.089 84.96L626.471 83.1375L622.901 81.8191L622.88 81.8189Z" fill="#036E9D" stroke="white" stroke-width="0.117363" stroke-miterlimit="10"/>
<path d="M577.199 64.4914L576.58 62.669L585.559 54.5666L588.7 54.1293L592.27 55.4478L580.789 65.81L577.22 64.4916L577.199 64.4914ZM568.882 76.5575L580.362 66.1952L576.792 64.8768L573.651 65.3141L564.672 73.4165L565.291 75.2389L568.86 76.5573L568.882 76.5575ZM592.692 55.5945L581.212 65.9568L586.661 67.9678L598.141 57.6055L592.692 55.5945ZM544.892 82.8566L556.372 72.4943L550.923 70.4833L539.443 80.8456L544.892 82.8566ZM562.81 59.7356L551.329 70.0979L556.779 72.1089L568.259 61.7466L562.81 59.7356ZM574.717 48.9881L563.237 59.3504L568.687 61.3614L580.167 50.9991L574.717 48.9881ZM562.867 89.463L574.347 79.1007L568.898 77.0897L557.417 87.452L562.867 89.463ZM580.841 96.0693L592.322 85.707L586.872 83.696L575.392 94.0583L580.841 96.0693ZM610.646 62.2007L599.165 72.5629L604.615 74.5739L616.095 64.2116L610.646 62.2007ZM598.759 72.9483L587.279 83.3106L592.728 85.3216L604.208 74.9593L598.759 72.9483ZM598.764 72.4164L610.244 62.0541L606.675 60.7357L603.534 61.173L594.555 69.2753L595.173 71.0978L598.743 72.4162L598.764 72.4164ZM586.856 83.1639L598.336 72.8016L594.767 71.4832L591.626 71.9205L582.647 80.0228L583.265 81.8453L586.835 83.1637L586.856 83.1639ZM580.784 66.342L569.304 76.7043L574.753 78.7153L586.234 68.353L580.784 66.342ZM604.631 75.1191L593.15 85.4813L596.72 86.7998L599.861 86.3625L608.84 78.2601L608.221 76.4377L604.652 75.1193L604.631 75.1191ZM586.429 83.5491L582.859 82.2307L579.718 82.668L570.739 90.7703L571.358 92.5927L574.927 93.9112L586.407 83.5489L586.429 83.5491ZM562.815 59.1907L574.295 48.8284L570.726 47.51L567.584 47.9473L558.606 56.0496L559.224 57.8721L562.794 59.1905L562.815 59.1907ZM574.769 79.2604L563.289 89.6227L566.859 90.9411L570 90.5038L578.979 82.4015L578.36 80.579L574.791 79.2606L574.769 79.2604ZM586.656 68.5127L575.176 78.875L578.745 80.1934L581.886 79.7561L590.865 71.6538L590.247 69.8313L586.677 68.5129L586.656 68.5127ZM620.108 65.677L616.539 64.3586L605.058 74.7209L608.628 76.0393L611.769 75.602L620.748 67.4997L620.129 65.6772L620.108 65.677ZM592.744 85.8667L581.264 96.229L584.833 97.5475L587.974 97.1102L596.953 89.0078L596.335 87.1854L592.765 85.8669L592.744 85.8667ZM598.564 57.7522L587.084 68.1145L590.653 69.4329L593.794 68.9956L602.773 60.8933L602.155 59.0709L598.585 57.7524L598.564 57.7522ZM568.454 76.9298L564.885 75.6113L561.743 76.0486L552.765 84.151L553.383 85.9734L556.953 87.2918L568.433 76.9296L568.454 76.9298ZM550.479 70.3234L546.91 69.005L543.769 69.4423L534.79 77.5446L535.408 79.3671L538.978 80.6855L550.458 70.3232L550.479 70.3234ZM550.907 69.9382L562.387 59.5759L558.818 58.2575L555.677 58.6948L546.698 66.7971L547.316 68.6196L550.886 69.938L550.907 69.9382ZM556.795 72.641L545.315 83.0033L548.884 84.3218L552.025 83.8845L561.004 75.7821L560.386 73.9597L556.816 72.6413L556.795 72.641ZM580.589 51.1459L569.109 61.5081L572.679 62.8266L575.82 62.3893L584.799 54.2869L584.18 52.4645L580.611 51.1461L580.589 51.1459ZM568.703 61.8936L557.222 72.2558L560.792 73.5743L563.933 73.137L572.912 65.0346L572.293 63.2122L568.724 61.8938L568.703 61.8936Z" fill="#036E9D" stroke="white" stroke-width="0.117363" stroke-miterlimit="10"/>
</g>
<g clip-path="url(#clip2_1_2110)">
<path opacity="0.2" d="M545.024 166.399L429.526 124.365L464.762 112.282L580.26 154.315L545.024 166.399Z" fill="black"/>
<path d="M572.208 153.992L576.581 155.578L576.804 132.004L572.432 130.418L572.208 153.992Z" fill="#B1B1B1"/>
<path d="M580.259 154.315L576.581 155.578L576.804 132.004L580.483 130.741L580.259 154.315Z" fill="#C6C6C6"/>
<path d="M428.027 123.819L432.399 125.417L432.454 119.657L428.081 118.071L428.027 123.819Z" fill="#B1B1B1"/>
<path d="M436.078 124.155L432.399 125.417L432.454 119.657L436.132 118.394L436.078 124.155Z" fill="#C6C6C6"/>
<path d="M429.117 120.624L546.093 163.204L545.079 160.638L428.081 118.071L429.117 120.624Z" fill="#B1B1B1"/>
<path d="M540.652 164.813L545.024 166.398L545.079 160.638L540.706 159.052L540.652 164.813Z" fill="#B1B1B1"/>
<path d="M575.667 151.352L547.555 160.986L547.571 159.338L575.683 149.704L575.667 151.352Z" fill="#C6C6C6"/>
<path d="M575.683 149.704L547.571 159.338L545.248 158.46L573.359 148.839L575.683 149.704Z" fill="white"/>
<path d="M548.703 165.136L545.024 166.398L545.079 160.638L548.762 158.895L548.703 165.136Z" fill="#C6C6C6"/>
<path d="M586.234 125.592L546.093 163.204L545.079 160.638L585.198 123.026L586.234 125.592Z" fill="#C6C6C6"/>
<path d="M545.079 160.638L585.198 123.026L468.222 80.4599L428.081 118.071L545.079 160.638Z" fill="#F0F0F0"/>
<path d="M533.275 122.456L532.656 120.633L541.635 112.531L544.776 112.094L548.346 113.412L536.866 123.775L533.296 122.456L533.275 122.456ZM524.958 134.509L536.438 124.147L532.869 122.828L529.727 123.266L520.749 131.368L521.367 133.19L524.937 134.509L524.958 134.509ZM548.768 113.559L537.288 123.921L542.737 125.932L554.218 115.57L548.768 113.559ZM500.968 140.821L512.449 130.459L506.999 128.448L495.519 138.81L500.968 140.821ZM518.886 117.7L507.406 128.062L512.855 130.073L524.335 119.711L518.886 117.7ZM530.794 106.953L519.313 117.315L524.763 119.326L536.243 108.964L530.794 106.953ZM518.943 147.427L530.423 137.065L524.974 135.054L513.494 145.416L518.943 147.427ZM536.918 154.034L548.398 143.672L542.948 141.661L531.468 152.023L536.918 154.034ZM566.722 120.165L555.241 130.527L560.691 132.538L572.171 122.176L566.722 120.165ZM554.835 130.913L543.355 141.275L548.804 143.286L560.284 132.924L554.835 130.913ZM554.819 130.381L566.299 120.018L562.73 118.7L559.589 119.137L550.61 127.24L551.228 129.062L554.798 130.381L554.819 130.381ZM542.932 141.128L554.413 130.766L550.843 129.448L547.702 129.885L538.723 137.987L539.342 139.81L542.911 141.128L542.932 141.128ZM536.86 124.307L525.38 134.669L530.83 136.68L542.31 126.318L536.86 124.307ZM560.707 133.084L549.227 143.446L552.796 144.764L555.937 144.327L564.916 136.225L564.298 134.402L560.728 133.084L560.707 133.084ZM542.505 141.514L538.935 140.195L535.794 140.633L526.815 148.735L527.434 150.557L531.003 151.876L542.484 141.513L542.505 141.514ZM518.891 117.155L530.371 106.793L526.802 105.475L523.661 105.912L514.682 114.014L515.3 115.837L518.87 117.155L518.891 117.155ZM530.846 137.225L519.365 147.587L522.935 148.906L526.076 148.468L535.055 140.366L534.436 138.544L530.867 137.225L530.846 137.225ZM542.732 126.464L531.252 136.827L534.822 138.145L537.963 137.708L546.942 129.605L546.323 127.783L542.754 126.464L542.732 126.464ZM576.184 123.642L572.615 122.323L561.135 132.685L564.704 134.004L567.845 133.567L576.824 125.464L576.205 123.642L576.184 123.642ZM548.82 143.831L537.34 154.194L540.909 155.512L544.051 155.075L553.029 146.972L552.411 145.15L548.841 143.831L548.82 143.831ZM554.64 115.717L543.16 126.079L546.729 127.397L549.87 126.96L558.849 118.858L558.231 117.035L554.661 115.717L554.64 115.717ZM524.53 134.894L520.961 133.576L517.82 134.013L508.841 142.116L509.459 143.938L513.029 145.256L524.509 134.894L524.53 134.894ZM506.556 128.288L502.986 126.969L499.845 127.407L490.866 135.509L491.485 137.332L495.054 138.65L506.534 128.288L506.556 128.288ZM506.983 127.903L518.463 117.54L514.894 116.222L511.753 116.659L502.774 124.762L503.392 126.584L506.962 127.903L506.983 127.903ZM512.871 130.606L501.391 140.968L504.96 142.286L508.101 141.849L517.08 133.747L516.462 131.924L512.892 130.606L512.871 130.606ZM536.666 109.11L525.185 119.473L528.755 120.791L531.896 120.354L540.875 112.251L540.256 110.429L536.687 109.111L536.666 109.11ZM524.779 119.858L513.299 130.22L516.868 131.539L520.009 131.101L528.988 122.999L528.37 121.177L524.8 119.858L524.779 119.858Z" fill="#036E9D" stroke="white" stroke-width="0.117363" stroke-miterlimit="10"/>
<path d="M479.098 102.531L478.479 100.708L487.458 92.6058L490.599 92.1685L494.169 93.487L482.688 103.849L479.119 102.531L479.098 102.531ZM470.78 114.597L482.261 104.234L478.691 102.916L475.55 103.353L466.571 111.456L467.19 113.278L470.759 114.597L470.78 114.597ZM494.591 93.6337L483.111 103.996L488.56 106.007L500.04 95.6447L494.591 93.6337ZM446.791 120.896L458.271 110.534L452.822 108.523L441.342 118.885L446.791 120.896ZM464.709 97.7748L453.228 108.137L458.678 110.148L470.158 99.7858L464.709 97.7748ZM476.616 87.0273L465.136 97.3896L470.586 99.4006L482.066 89.0383L476.616 87.0273ZM464.766 127.502L476.246 117.14L470.797 115.129L459.316 125.491L464.766 127.502ZM482.74 134.109L494.221 123.746L488.771 121.735L477.291 132.098L482.74 134.109ZM512.544 100.24L501.064 110.602L506.514 112.613L517.994 102.251L512.544 100.24ZM500.658 110.988L489.178 121.35L494.627 123.361L506.107 112.999L500.658 110.988ZM500.663 110.456L512.143 100.093L508.574 98.7749L505.433 99.2122L496.454 107.315L497.072 109.137L500.642 110.455L500.663 110.456ZM488.755 121.203L500.235 110.841L496.666 109.522L493.525 109.96L484.546 118.062L485.164 119.884L488.734 121.203L488.755 121.203ZM482.683 104.381L471.203 114.743L476.652 116.754L488.133 106.392L482.683 104.381ZM506.53 113.158L495.049 123.521L498.619 124.839L501.76 124.402L510.739 116.299L510.12 114.477L506.551 113.158L506.53 113.158ZM488.328 121.588L484.758 120.27L481.617 120.707L472.638 128.81L473.257 130.632L476.826 131.95L488.306 121.588L488.328 121.588ZM464.714 97.2299L476.194 86.8676L472.625 85.5492L469.483 85.9865L460.505 94.0888L461.123 95.9113L464.693 97.2297L464.714 97.2299ZM476.668 117.3L465.188 127.662L468.758 128.98L471.899 128.543L480.878 120.441L480.259 118.618L476.69 117.3L476.668 117.3ZM488.555 106.552L477.075 116.914L480.644 118.233L483.785 117.795L492.764 109.693L492.146 107.871L488.576 106.552L488.555 106.552ZM522.007 103.716L518.438 102.398L506.957 112.76L510.527 114.079L513.668 113.641L522.647 105.539L522.028 103.716L522.007 103.716ZM494.643 123.906L483.163 134.268L486.732 135.587L489.873 135.149L498.852 127.047L498.234 125.225L494.664 123.906L494.643 123.906ZM500.463 95.7914L488.983 106.154L492.552 107.472L495.693 107.035L504.672 98.9325L504.054 97.1101L500.484 95.7916L500.463 95.7914ZM470.353 114.969L466.784 113.651L463.642 114.088L454.664 122.19L455.282 124.013L458.852 125.331L470.332 114.969L470.353 114.969ZM452.378 108.363L448.809 107.044L445.668 107.481L436.689 115.584L437.307 117.406L440.877 118.725L452.357 108.362L452.378 108.363ZM452.806 107.977L464.286 97.6151L460.717 96.2967L457.576 96.734L448.597 104.836L449.215 106.659L452.785 107.977L452.806 107.977ZM458.694 110.68L447.214 121.043L450.783 122.361L453.924 121.924L462.903 113.821L462.285 111.999L458.715 110.68L458.694 110.68ZM482.488 89.1851L471.008 99.5474L474.578 100.866L477.719 100.428L486.698 92.3261L486.079 90.5037L482.509 89.1853L482.488 89.1851ZM470.602 99.9328L459.121 110.295L462.691 111.613L465.832 111.176L474.811 103.074L474.192 101.251L470.623 99.933L470.602 99.9328Z" fill="#036E9D" stroke="white" stroke-width="0.117363" stroke-miterlimit="10"/>
</g>
<g clip-path="url(#clip3_1_2110)">
<path opacity="0.2" d="M447.73 204.438L332.233 162.404L367.468 150.321L482.966 192.354L447.73 204.438Z" fill="black"/>
<path d="M474.915 192.031L479.287 193.617L479.511 170.043L475.138 168.457L474.915 192.031Z" fill="#B1B1B1"/>
<path d="M482.966 192.354L479.287 193.617L479.511 170.043L483.19 168.78L482.966 192.354Z" fill="#C6C6C6"/>
<path d="M330.733 161.858L335.105 163.457L335.16 157.696L330.788 156.11L330.733 161.858Z" fill="#B1B1B1"/>
<path d="M338.784 162.194L335.105 163.457L335.16 157.696L338.839 156.433L338.784 162.194Z" fill="#C6C6C6"/>
<path d="M331.823 158.663L448.799 201.243L447.785 198.677L330.788 156.11L331.823 158.663Z" fill="#B1B1B1"/>
<path d="M443.358 202.852L447.73 204.438L447.785 198.677L443.413 197.092L443.358 202.852Z" fill="#B1B1B1"/>
<path d="M478.373 189.391L450.262 199.025L450.277 197.377L478.389 187.744L478.373 189.391Z" fill="#C6C6C6"/>
<path d="M478.389 187.744L450.277 197.377L447.954 196.499L476.066 186.878L478.389 187.744Z" fill="white"/>
<path d="M451.409 203.175L447.73 204.438L447.785 198.677L451.468 196.934L451.409 203.175Z" fill="#C6C6C6"/>
<path d="M488.94 163.632L448.799 201.243L447.785 198.677L487.905 161.066L488.94 163.632Z" fill="#C6C6C6"/>
<path d="M447.785 198.677L487.905 161.066L370.928 118.499L330.788 156.11L447.785 198.677Z" fill="#F0F0F0"/>
<path d="M435.981 160.495L435.363 158.673L444.342 150.57L447.483 150.133L451.052 151.451L439.572 161.814L436.002 160.495L435.981 160.495ZM427.664 172.548L439.144 162.186L435.575 160.868L432.434 161.305L423.455 169.407L424.073 171.23L427.643 172.548L427.664 172.548ZM451.475 151.598L439.994 161.961L445.444 163.972L456.924 153.609L451.475 151.598ZM403.675 178.86L415.155 168.498L409.706 166.487L398.225 176.849L403.675 178.86ZM421.592 155.739L410.112 166.102L415.561 168.113L427.042 157.75L421.592 155.739ZM433.5 144.992L422.02 155.354L427.469 157.365L438.949 147.003L433.5 144.992ZM421.649 185.467L433.13 175.104L427.68 173.093L416.2 183.456L421.649 185.467ZM439.624 192.073L451.104 181.711L445.655 179.7L434.175 190.062L439.624 192.073ZM469.428 158.204L457.948 168.567L463.397 170.578L474.877 160.215L469.428 158.204ZM457.541 168.952L446.061 179.314L451.511 181.325L462.991 170.963L457.541 168.952ZM457.525 168.42L469.006 158.058L465.436 156.739L462.295 157.177L453.316 165.279L453.935 167.101L457.504 168.42L457.525 168.42ZM445.639 179.168L457.119 168.805L453.549 167.487L450.408 167.924L441.429 176.027L442.048 177.849L445.617 179.167L445.639 179.168ZM439.567 162.346L428.087 172.708L433.536 174.719L445.016 164.357L439.567 162.346ZM463.413 171.123L451.933 181.485L455.502 182.803L458.644 182.366L467.622 174.264L467.004 172.441L463.434 171.123L463.413 171.123ZM445.211 179.553L441.642 178.234L438.501 178.672L429.522 186.774L430.14 188.596L433.71 189.915L445.19 179.553L445.211 179.553ZM421.597 155.194L433.078 144.832L429.508 143.514L426.367 143.951L417.388 152.053L418.007 153.876L421.576 155.194L421.597 155.194ZM433.552 175.264L422.072 185.626L425.641 186.945L428.782 186.508L437.761 178.405L437.143 176.583L433.573 175.264L433.552 175.264ZM445.439 164.503L433.958 174.866L437.528 176.184L440.669 175.747L449.648 167.645L449.029 165.822L445.46 164.504L445.439 164.503ZM478.891 161.681L475.321 160.362L463.841 170.725L467.41 172.043L470.551 171.606L479.53 163.503L478.912 161.681L478.891 161.681ZM451.527 181.87L440.046 192.233L443.616 193.551L446.757 193.114L455.736 185.012L455.117 183.189L451.548 181.871L451.527 181.87ZM457.347 153.756L445.866 164.118L449.436 165.437L452.577 164.999L461.556 156.897L460.937 155.075L457.368 153.756L457.347 153.756ZM427.237 172.933L423.667 171.615L420.526 172.052L411.547 180.155L412.166 181.977L415.735 183.296L427.215 172.933L427.237 172.933ZM409.262 166.327L405.692 165.009L402.551 165.446L393.572 173.548L394.191 175.371L397.761 176.689L409.241 166.327L409.262 166.327ZM409.69 165.942L421.17 155.58L417.6 154.261L414.459 154.699L405.48 162.801L406.099 164.623L409.668 165.942L409.69 165.942ZM415.577 168.645L404.097 179.007L407.667 180.325L410.808 179.888L419.787 171.786L419.168 169.963L415.599 168.645L415.577 168.645ZM439.372 147.15L427.892 157.512L431.461 158.83L434.602 158.393L443.581 150.291L442.963 148.468L439.393 147.15L439.372 147.15ZM427.485 157.897L416.005 168.26L419.575 169.578L422.716 169.141L431.695 161.038L431.076 159.216L427.506 157.897L427.485 157.897Z" fill="#036E9D" stroke="white" stroke-width="0.117363" stroke-miterlimit="10"/>
<path d="M381.804 140.57L381.185 138.747L390.164 130.645L393.305 130.208L396.875 131.526L385.395 141.888L381.825 140.57L381.804 140.57ZM373.487 152.636L384.967 142.274L381.398 140.955L378.256 141.393L369.278 149.495L369.896 151.317L373.466 152.636L373.487 152.636ZM397.297 131.673L385.817 142.035L391.267 144.046L402.747 133.684L397.297 131.673ZM349.497 158.935L360.978 148.573L355.528 146.562L344.048 156.924L349.497 158.935ZM367.415 135.814L355.935 146.176L361.384 148.187L372.864 137.825L367.415 135.814ZM379.323 125.067L367.843 135.429L373.292 137.44L384.772 127.078L379.323 125.067ZM367.472 165.541L378.952 155.179L373.503 153.168L362.023 163.53L367.472 165.541ZM385.447 172.148L396.927 161.785L391.478 159.774L379.997 170.137L385.447 172.148ZM415.251 138.279L403.771 148.641L409.22 150.652L420.7 140.29L415.251 138.279ZM403.364 149.027L391.884 159.389L397.333 161.4L408.814 151.038L403.364 149.027ZM403.369 148.495L414.85 138.133L411.28 136.814L408.139 137.251L399.16 145.354L399.779 147.176L403.348 148.495L403.369 148.495ZM391.461 159.242L402.942 148.88L399.372 147.562L396.231 147.999L387.252 156.101L387.871 157.924L391.44 159.242L391.461 159.242ZM385.39 142.42L373.909 152.783L379.359 154.794L390.839 144.431L385.39 142.42ZM409.236 151.197L397.756 161.56L401.325 162.878L404.466 162.441L413.445 154.339L412.827 152.516L409.257 151.198L409.236 151.197ZM391.034 159.628L387.464 158.309L384.323 158.746L375.344 166.849L375.963 168.671L379.532 169.99L391.013 159.627L391.034 159.628ZM367.42 135.269L378.9 124.907L375.331 123.588L372.19 124.026L363.211 132.128L363.829 133.95L367.399 135.269L367.42 135.269ZM379.375 155.339L367.894 165.701L371.464 167.02L374.605 166.582L383.584 158.48L382.965 156.657L379.396 155.339L379.375 155.339ZM391.261 144.591L379.781 154.953L383.351 156.272L386.492 155.835L395.471 147.732L394.852 145.91L391.283 144.591L391.261 144.591ZM424.713 141.755L421.144 140.437L409.664 150.799L413.233 152.118L416.374 151.68L425.353 143.578L424.735 141.756L424.713 141.755ZM397.349 161.945L385.869 172.307L389.439 173.626L392.58 173.189L401.559 165.086L400.94 163.264L397.371 161.945L397.349 161.945ZM403.169 133.831L391.689 144.193L395.259 145.511L398.4 145.074L407.379 136.972L406.76 135.149L403.19 133.831L403.169 133.831ZM373.059 153.008L369.49 151.69L366.349 152.127L357.37 160.229L357.988 162.052L361.558 163.37L373.038 153.008L373.059 153.008ZM355.085 146.402L351.515 145.083L348.374 145.521L339.395 153.623L340.014 155.445L343.583 156.764L355.064 146.402L355.085 146.402ZM355.512 146.017L366.993 135.654L363.423 134.336L360.282 134.773L351.303 142.876L351.922 144.698L355.491 146.016L355.512 146.017ZM361.4 148.719L349.92 159.082L353.489 160.4L356.631 159.963L365.61 151.861L364.991 150.038L361.421 148.72L361.4 148.719ZM385.195 127.224L373.714 137.587L377.284 138.905L380.425 138.468L389.404 130.365L388.785 128.543L385.216 127.224L385.195 127.224ZM373.308 137.972L361.828 148.334L365.397 149.653L368.538 149.215L377.517 141.113L376.899 139.291L373.329 137.972L373.308 137.972Z" fill="#036E9D" stroke="white" stroke-width="0.117363" stroke-miterlimit="10"/>
</g>
<g clip-path="url(#clip4_1_2110)">
<g clip-path="url(#clip5_1_2110)">
<path d="M331.257 196.482L280.289 176.224L305.59 166.171L356.558 186.43L331.257 196.482Z" fill="#F0F0F0"/>
<path d="M280.289 226.329L331.257 246.587V196.483L280.289 176.224V226.329Z" fill="#C6C6C6"/>
<g style="mix-blend-mode:multiply">
<path d="M282.556 194.728L295.211 199.758V191.513L282.556 186.483V194.728Z" fill="#C6C6C6"/>
</g>
<g style="mix-blend-mode:multiply">
<path d="M282.556 194.728L295.211 199.758V198.947L282.556 193.918V194.728Z" fill="#C6C6C6"/>
</g>
<g style="mix-blend-mode:multiply">
<path d="M280.289 182.868L331.257 203.127V196.483L280.289 176.224V182.868Z" fill="#C6C6C6"/>
</g>
<path d="M356.558 236.534L331.257 246.587V196.482L356.558 186.43V236.534Z" fill="#B1B1B1"/>
<path d="M297.902 232.548V182.928" stroke="white" stroke-opacity="0.5"/>
<path d="M325.315 219.385C325.315 225.412 320.155 227.857 313.789 224.84C307.422 221.824 302.252 214.495 302.252 208.462C302.252 202.436 307.413 199.991 313.779 203.007C320.145 206.024 325.315 213.352 325.315 219.385Z" fill="#4B4A48"/>
<path d="M320.724 209.153L313.856 205.851L309.284 212.701L312.091 214.09L307.962 219.824L308.088 219.884L319.489 215.286L314.821 213.073L320.724 209.153Z" fill="#FFE68C"/>
<g style="mix-blend-mode:multiply">
<path d="M356.558 193.074L331.257 203.127V196.482L356.558 186.43V193.074Z" fill="#C6C6C6"/>
</g>
<g style="mix-blend-mode:multiply">
<path d="M280.289 226.329L331.257 246.587V245.484L280.289 225.226V226.329Z" fill="#C6C6C6"/>
</g>
<g style="mix-blend-mode:multiply">
<path d="M356.558 236.534L331.257 246.587V245.484L356.558 235.425V236.534Z" fill="#C6C6C6"/>
</g>
<path d="M297.902 182.928L322.209 173.254" stroke="white" stroke-opacity="0.5"/>
</g>
</g>
</g>
<defs>
<clipPath id="clip0_1_2110">
<rect width="358.63" height="141.62" fill="white" transform="scale(2.00206)"/>
</clipPath>
<clipPath id="clip1_1_2110">
<rect width="79.0268" height="42.5591" fill="white" transform="translate(526.543 42.0433) scale(2.00206) rotate(0.543567)"/>
</clipPath>
<clipPath id="clip2_1_2110">
<rect width="79.0268" height="42.5591" fill="white" transform="translate(428.442 80.0825) scale(2.00206) rotate(0.543567)"/>
</clipPath>
<clipPath id="clip3_1_2110">
<rect width="79.0268" height="42.5591" fill="white" transform="translate(331.148 118.122) scale(2.00206) rotate(0.543567)"/>
</clipPath>
<clipPath id="clip4_1_2110">
<rect width="38" height="40" fill="white" transform="translate(280.289 166.171) scale(2.00206)"/>
</clipPath>
<clipPath id="clip5_1_2110">
<rect width="38.0951" height="40.1664" fill="white" transform="translate(280.289 166.171) scale(2.00206)"/>
</clipPath>
</defs>
</svg>
