<svg width="266" height="58" viewBox="0 0 266 58" fill="none" xmlns="http://www.w3.org/2000/svg">
<path d="M32.1987 13.1253C24.4534 12.2456 12.3289 16.0913 5.124 21.7188C-2.08091 27.3463 -1.63061 32.6242 6.11468 33.4926L233.801 57.8747C241.558 58.7543 253.671 54.9087 260.876 49.2812C268.081 43.6537 267.631 38.3758 259.885 37.5074L32.1987 13.1253Z" fill="#FAD764"/>
<g clip-path="url(#clip0_127_5938)">
<path opacity="0.2" d="M104.634 43.1134L46.9451 22.1184L64.5446 16.083L122.234 37.0781L104.634 43.1134Z" fill="black"/>
<path d="M118.213 36.9168L120.396 37.7088L120.508 25.9338L118.324 25.1418L118.213 36.9168Z" fill="#B1B1B1"/>
<path d="M122.234 37.0781L120.397 37.7088L120.509 25.9338L122.346 25.3031L122.234 37.0781Z" fill="#C6C6C6"/>
<path d="M46.1964 21.8456L48.3803 22.644L48.4076 19.7667L46.2236 18.9747L46.1964 21.8456Z" fill="#B1B1B1"/>
<path d="M50.2171 22.0134L48.3796 22.644L48.4069 19.7667L50.2444 19.136L50.2171 22.0134Z" fill="#C6C6C6"/>
<path d="M46.7409 20.2499L105.169 41.5177L104.662 40.2361L46.2236 18.9747L46.7409 20.2499Z" fill="#B1B1B1"/>
<path d="M102.45 42.3215L104.634 43.1135L104.661 40.2362L102.478 39.4442L102.45 42.3215Z" fill="#B1B1B1"/>
<path d="M119.94 35.5981L105.898 40.4099L105.906 39.5869L119.948 34.7751L119.94 35.5981Z" fill="#C6C6C6"/>
<path d="M119.948 34.7751L105.907 39.587L104.746 39.1482L118.787 34.3429L119.948 34.7751Z" fill="white"/>
<path d="M106.472 42.4829L104.634 43.1135L104.661 40.2362L106.501 39.3658L106.472 42.4829Z" fill="#C6C6C6"/>
<path d="M125.218 22.7314L105.168 41.5177L104.662 40.2361L124.701 21.4498L125.218 22.7314Z" fill="#C6C6C6"/>
<path d="M104.662 40.2362L124.701 21.4498L66.2729 0.188509L46.2233 18.9748L104.662 40.2362Z" fill="#F0F0F0"/>
<path d="M98.7661 21.1648L98.4571 20.2545L102.942 16.2075L104.511 15.9891L106.294 16.6476L100.56 21.8234L98.7767 21.1649L98.7661 21.1648ZM94.6119 27.1852L100.346 22.0094L98.5632 21.3508L96.9943 21.5693L92.5094 25.6162L92.8184 26.5265L94.6013 27.1851L94.6119 27.1852ZM106.505 16.7209L100.771 21.8967L103.493 22.9012L109.227 17.7254L106.505 16.7209ZM82.6295 30.3379L88.3637 25.1621L85.6419 24.1577L79.9076 29.3335L82.6295 30.3379ZM91.579 18.7894L85.8448 23.9652L88.5667 24.9696L94.3009 19.7938L91.579 18.7894ZM97.5268 13.4212L91.7926 18.597L94.5145 19.6014L100.249 14.4256L97.5268 13.4212ZM91.6076 33.6377L97.3418 28.4619L94.6199 27.4574L88.8857 32.6332L91.6076 33.6377ZM100.586 36.9375L106.32 31.7617L103.598 30.7572L97.8637 35.933L100.586 36.9375ZM115.472 20.0206L109.738 25.1964L112.46 26.2009L118.194 21.0251L115.472 20.0206ZM109.535 25.3889L103.801 30.5647L106.523 31.5692L112.257 26.3934L109.535 25.3889ZM109.527 25.1231L115.261 19.9473L113.478 19.2888L111.909 19.5072L107.425 23.5542L107.734 24.4645L109.516 25.123L109.527 25.1231ZM103.59 30.4914L109.324 25.3156L107.541 24.6571L105.972 24.8755L101.487 28.9225L101.796 29.8328L103.579 30.4913L103.59 30.4914ZM100.557 22.0891L94.8229 27.2649L97.5447 28.2694L103.279 23.0936L100.557 22.0891ZM112.468 26.4731L106.734 31.6489L108.517 32.3075L110.086 32.0891L114.57 28.0421L114.261 27.1318L112.479 26.4732L112.468 26.4731ZM103.376 30.6838L101.593 30.0253L100.024 30.2437L95.5396 34.2907L95.8486 35.201L97.6315 35.8595L103.366 30.6837L103.376 30.6838ZM91.5816 18.5172L97.3158 13.3414L95.5329 12.6828L93.964 12.9013L89.4791 16.9483L89.7881 17.8585L91.571 18.5171L91.5816 18.5172ZM97.5527 28.5417L91.8185 33.7175L93.6015 34.376L95.1704 34.1576L99.6552 30.1106L99.3462 29.2003L97.5633 28.5418L97.5527 28.5417ZM103.49 23.1669L97.7558 28.3427L99.5387 29.0012L101.108 28.7828L105.592 24.7358L105.283 23.8255L103.501 23.167L103.49 23.1669ZM120.199 21.757L118.416 21.0985L112.682 26.2743L114.465 26.9328L116.033 26.7144L120.518 22.6674L120.209 21.7571L120.199 21.757ZM106.531 31.8415L100.797 37.0173L102.58 37.6758L104.148 37.4574L108.633 33.4104L108.324 32.5001L106.541 31.8416L106.531 31.8415ZM109.438 17.7987L103.704 22.9745L105.486 23.633L107.055 23.4146L111.54 19.3676L111.231 18.4573L109.448 17.7988L109.438 17.7987ZM94.3983 27.3776L92.6154 26.719L91.0465 26.9375L86.5617 30.9845L86.8706 31.8947L88.6535 32.5533L94.3878 27.3775L94.3983 27.3776ZM85.4203 24.0778L83.6374 23.4193L82.0685 23.6377L77.5836 27.6847L77.8926 28.595L79.6755 29.2535L85.4097 24.0777L85.4203 24.0778ZM85.6339 23.8854L91.3681 18.7096L89.5851 18.051L88.0162 18.2695L83.5314 22.3165L83.8403 23.2267L85.6233 23.8853L85.6339 23.8854ZM88.5748 25.2354L82.8405 30.4112L84.6235 31.0698L86.1924 30.8513L90.6772 26.8043L90.3683 25.8941L88.5853 25.2355L88.5748 25.2354ZM100.46 14.4989L94.7255 19.6747L96.5084 20.3332L98.0773 20.1148L102.562 16.0678L102.253 15.1575L100.47 14.499L100.46 14.4989ZM94.5225 19.8672L88.7883 25.043L90.5712 25.7016L92.1402 25.4831L96.625 21.4361L96.316 20.5259L94.5331 19.8673L94.5225 19.8672Z" fill="#036E9D" stroke="white" stroke-width="0.117363" stroke-miterlimit="10"/>
<path d="M71.7056 11.2124L71.3966 10.3021L75.8814 6.25514L77.4504 6.0367L79.2333 6.69524L73.4991 11.871L71.7161 11.2125L71.7056 11.2124ZM67.5513 17.2393L73.2855 12.0634L71.5026 11.4049L69.9337 11.6233L65.4488 15.6703L65.7578 16.5806L67.5407 17.2392L67.5513 17.2393ZM79.4443 6.76854L73.7101 11.9443L76.432 12.9488L82.1662 7.773L79.4443 6.76854ZM55.569 20.3855L61.3032 15.2097L58.5813 14.2053L52.8471 19.3811L55.569 20.3855ZM64.5185 8.83697L58.7843 14.0128L61.5061 15.0172L67.2404 9.84143L64.5185 8.83697ZM70.4663 3.46876L64.7321 8.64456L67.4539 9.64902L73.1881 4.47322L70.4663 3.46876ZM64.547 23.6853L70.2812 18.5095L67.5594 17.5051L61.8251 22.6809L64.547 23.6853ZM73.5251 26.9851L79.2593 21.8093L76.5374 20.8048L70.8032 25.9806L73.5251 26.9851ZM88.4118 10.0682L82.6776 15.244L85.3994 16.2485L91.1336 11.0727L88.4118 10.0682ZM82.4746 15.4365L76.7404 20.6123L79.4622 21.6168L85.1965 16.441L82.4746 15.4365ZM82.4771 15.1708L88.2113 9.99502L86.4284 9.33648L84.8595 9.55491L80.3746 13.6019L80.6836 14.5122L82.4665 15.1707L82.4771 15.1708ZM76.5293 20.539L82.2636 15.3632L80.4806 14.7047L78.9117 14.9231L74.4269 18.9701L74.7358 19.8804L76.5188 20.5389L76.5293 20.539ZM73.4965 12.1367L67.7623 17.3125L70.4842 18.317L76.2184 13.1412L73.4965 12.1367ZM85.4074 16.5208L79.6732 21.6966L81.4561 22.3551L83.0251 22.1367L87.5099 18.0897L87.2009 17.1794L85.418 16.5209L85.4074 16.5208ZM76.3158 20.7314L74.5329 20.0729L72.9639 20.2913L68.4791 24.3383L68.7881 25.2486L70.571 25.9071L76.3052 20.7313L76.3158 20.7314ZM64.5211 8.56479L70.2553 3.38899L68.4724 2.73045L66.9034 2.94888L62.4186 6.99587L62.7276 7.90615L64.5105 8.56469L64.5211 8.56479ZM70.4922 18.5893L64.758 23.7651L66.5409 24.4236L68.1098 24.2052L72.5947 20.1582L72.2857 19.2479L70.5028 18.5894L70.4922 18.5893ZM76.4294 13.221L70.6952 18.3968L72.4781 19.0553L74.047 18.8369L78.5319 14.7899L78.2229 13.8796L76.44 13.2211L76.4294 13.221ZM93.1382 11.8046L91.3553 11.1461L85.6211 16.3219L87.404 16.9804L88.9729 16.762L93.4577 12.715L93.1488 11.8047L93.1382 11.8046ZM79.4702 21.8891L73.736 27.0649L75.519 27.7234L77.0879 27.505L81.5727 23.458L81.2638 22.5477L79.4808 21.8892L79.4702 21.8891ZM82.3772 7.84629L76.643 13.0221L78.4259 13.6806L79.9948 13.4622L84.4797 9.41521L84.1707 8.50493L82.3878 7.84639L82.3772 7.84629ZM67.3378 17.4252L65.5549 16.7666L63.986 16.9851L59.5011 21.0321L59.8101 21.9423L61.593 22.6009L67.3272 17.4251L67.3378 17.4252ZM58.3597 14.1254L56.5768 13.4669L55.0079 13.6853L50.5231 17.7323L50.832 18.6426L52.6149 19.3011L58.3492 14.1253L58.3597 14.1254ZM58.5733 13.933L64.3075 8.75719L62.5246 8.09866L60.9557 8.31709L56.4708 12.3641L56.7798 13.2744L58.5627 13.9329L58.5733 13.933ZM61.5142 15.283L55.78 20.4588L57.5629 21.1174L59.1318 20.8989L63.6167 16.8519L63.3077 15.9417L61.5248 15.2831L61.5142 15.283ZM73.3992 4.54652L67.665 9.72232L69.4479 10.3809L71.0168 10.1624L75.5016 6.11543L75.1927 5.20516L73.4098 4.54662L73.3992 4.54652ZM67.462 9.91482L61.7278 15.0906L63.5107 15.7492L65.0796 15.5307L69.5645 11.4837L69.2555 10.5735L67.4726 9.91492L67.462 9.91482Z" fill="#036E9D" stroke="white" stroke-width="0.117363" stroke-miterlimit="10"/>
</g>
<g clip-path="url(#clip1_127_5938)">
<path opacity="0.2" d="M202.634 53.1134L144.945 32.1184L162.545 26.083L220.234 47.0781L202.634 53.1134Z" fill="black"/>
<path d="M216.213 46.9168L218.396 47.7088L218.508 35.9338L216.324 35.1418L216.213 46.9168Z" fill="#B1B1B1"/>
<path d="M220.234 47.0781L218.397 47.7088L218.509 35.9338L220.346 35.3031L220.234 47.0781Z" fill="#C6C6C6"/>
<path d="M144.196 31.8456L146.38 32.644L146.408 29.7667L144.224 28.9747L144.196 31.8456Z" fill="#B1B1B1"/>
<path d="M148.217 32.0134L146.38 32.644L146.407 29.7667L148.244 29.136L148.217 32.0134Z" fill="#C6C6C6"/>
<path d="M144.741 30.2499L203.169 51.5177L202.662 50.2361L144.224 28.9747L144.741 30.2499Z" fill="#B1B1B1"/>
<path d="M200.45 52.3215L202.634 53.1135L202.661 50.2362L200.478 49.4442L200.45 52.3215Z" fill="#B1B1B1"/>
<path d="M217.94 45.5981L203.898 50.4099L203.906 49.5869L217.948 44.7751L217.94 45.5981Z" fill="#C6C6C6"/>
<path d="M217.948 44.7751L203.907 49.587L202.746 49.1482L216.787 44.3429L217.948 44.7751Z" fill="white"/>
<path d="M204.472 52.4829L202.634 53.1135L202.661 50.2362L204.501 49.3658L204.472 52.4829Z" fill="#C6C6C6"/>
<path d="M223.218 32.7314L203.168 51.5177L202.662 50.2361L222.701 31.4498L223.218 32.7314Z" fill="#C6C6C6"/>
<path d="M202.662 50.2362L222.701 31.4498L164.273 10.1885L144.223 28.9748L202.662 50.2362Z" fill="#F0F0F0"/>
<path d="M196.766 31.1648L196.457 30.2545L200.942 26.2075L202.511 25.9891L204.294 26.6476L198.56 31.8234L196.777 31.1649L196.766 31.1648ZM192.612 37.1852L198.346 32.0094L196.563 31.3508L194.994 31.5693L190.509 35.6162L190.818 36.5265L192.601 37.1851L192.612 37.1852ZM204.505 26.7209L198.771 31.8967L201.493 32.9012L207.227 27.7254L204.505 26.7209ZM180.63 40.3379L186.364 35.1621L183.642 34.1577L177.908 39.3335L180.63 40.3379ZM189.579 28.7894L183.845 33.9652L186.567 34.9696L192.301 29.7938L189.579 28.7894ZM195.527 23.4212L189.793 28.597L192.514 29.6014L198.249 24.4256L195.527 23.4212ZM189.608 43.6377L195.342 38.4619L192.62 37.4574L186.886 42.6332L189.608 43.6377ZM198.586 46.9375L204.32 41.7617L201.598 40.7572L195.864 45.933L198.586 46.9375ZM213.472 30.0206L207.738 35.1964L210.46 36.2009L216.194 31.0251L213.472 30.0206ZM207.535 35.3889L201.801 40.5647L204.523 41.5692L210.257 36.3934L207.535 35.3889ZM207.527 35.1231L213.261 29.9473L211.478 29.2888L209.909 29.5072L205.425 33.5542L205.734 34.4645L207.516 35.123L207.527 35.1231ZM201.59 40.4914L207.324 35.3156L205.541 34.6571L203.972 34.8755L199.487 38.9225L199.796 39.8328L201.579 40.4913L201.59 40.4914ZM198.557 32.0891L192.823 37.2649L195.545 38.2694L201.279 33.0936L198.557 32.0891ZM210.468 36.4731L204.734 41.6489L206.517 42.3075L208.086 42.0891L212.57 38.0421L212.261 37.1318L210.479 36.4732L210.468 36.4731ZM201.376 40.6838L199.593 40.0253L198.024 40.2437L193.54 44.2907L193.849 45.201L195.632 45.8595L201.366 40.6837L201.376 40.6838ZM189.582 28.5172L195.316 23.3414L193.533 22.6828L191.964 22.9013L187.479 26.9483L187.788 27.8585L189.571 28.5171L189.582 28.5172ZM195.553 38.5417L189.819 43.7175L191.601 44.376L193.17 44.1576L197.655 40.1106L197.346 39.2003L195.563 38.5418L195.553 38.5417ZM201.49 33.1669L195.756 38.3427L197.539 39.0012L199.108 38.7828L203.592 34.7358L203.283 33.8255L201.501 33.167L201.49 33.1669ZM218.199 31.757L216.416 31.0985L210.682 36.2743L212.465 36.9328L214.033 36.7144L218.518 32.6674L218.209 31.7571L218.199 31.757ZM204.531 41.8415L198.797 47.0173L200.58 47.6758L202.148 47.4574L206.633 43.4104L206.324 42.5001L204.541 41.8416L204.531 41.8415ZM207.438 27.7987L201.704 32.9745L203.486 33.633L205.055 33.4146L209.54 29.3676L209.231 28.4573L207.448 27.7988L207.438 27.7987ZM192.398 37.3776L190.615 36.719L189.047 36.9375L184.562 40.9845L184.871 41.8947L186.654 42.5533L192.388 37.3775L192.398 37.3776ZM183.42 34.0778L181.637 33.4193L180.068 33.6377L175.584 37.6847L175.893 38.595L177.675 39.2535L183.41 34.0777L183.42 34.0778ZM183.634 33.8854L189.368 28.7096L187.585 28.051L186.016 28.2695L181.531 32.3165L181.84 33.2267L183.623 33.8853L183.634 33.8854ZM186.575 35.2354L180.841 40.4112L182.623 41.0698L184.192 40.8513L188.677 36.8043L188.368 35.8941L186.585 35.2355L186.575 35.2354ZM198.46 24.4989L192.726 29.6747L194.508 30.3332L196.077 30.1148L200.562 26.0678L200.253 25.1575L198.47 24.499L198.46 24.4989ZM192.523 29.8672L186.788 35.043L188.571 35.7016L190.14 35.4831L194.625 31.4361L194.316 30.5259L192.533 29.8673L192.523 29.8672Z" fill="#036E9D" stroke="white" stroke-width="0.117363" stroke-miterlimit="10"/>
<path d="M169.706 21.2124L169.397 20.3021L173.881 16.2551L175.45 16.0367L177.233 16.6952L171.499 21.871L169.716 21.2125L169.706 21.2124ZM165.551 27.2393L171.286 22.0634L169.503 21.4049L167.934 21.6233L163.449 25.6703L163.758 26.5806L165.541 27.2392L165.551 27.2393ZM177.444 16.7685L171.71 21.9443L174.432 22.9488L180.166 17.773L177.444 16.7685ZM153.569 30.3855L159.303 25.2097L156.581 24.2053L150.847 29.3811L153.569 30.3855ZM162.518 18.837L156.784 24.0128L159.506 25.0172L165.24 19.8414L162.518 18.837ZM168.466 13.4688L162.732 18.6446L165.454 19.649L171.188 14.4732L168.466 13.4688ZM162.547 33.6853L168.281 28.5095L165.559 27.5051L159.825 32.6809L162.547 33.6853ZM171.525 36.9851L177.259 31.8093L174.537 30.8048L168.803 35.9806L171.525 36.9851ZM186.412 20.0682L180.678 25.244L183.399 26.2485L189.134 21.0727L186.412 20.0682ZM180.475 25.4365L174.74 30.6123L177.462 31.6168L183.196 26.441L180.475 25.4365ZM180.477 25.1708L186.211 19.995L184.428 19.3365L182.859 19.5549L178.375 23.6019L178.684 24.5122L180.467 25.1707L180.477 25.1708ZM174.529 30.539L180.264 25.3632L178.481 24.7047L176.912 24.9231L172.427 28.9701L172.736 29.8804L174.519 30.5389L174.529 30.539ZM171.497 22.1367L165.762 27.3125L168.484 28.317L174.218 23.1412L171.497 22.1367ZM183.407 26.5208L177.673 31.6966L179.456 32.3551L181.025 32.1367L185.51 28.0897L185.201 27.1794L183.418 26.5209L183.407 26.5208ZM174.316 30.7314L172.533 30.0729L170.964 30.2913L166.479 34.3383L166.788 35.2486L168.571 35.9071L174.305 30.7313L174.316 30.7314ZM162.521 18.5648L168.255 13.389L166.472 12.7304L164.903 12.9489L160.419 16.9959L160.728 17.9061L162.51 18.5647L162.521 18.5648ZM168.492 28.5893L162.758 33.7651L164.541 34.4236L166.11 34.2052L170.595 30.1582L170.286 29.2479L168.503 28.5894L168.492 28.5893ZM174.429 23.221L168.695 28.3968L170.478 29.0553L172.047 28.8369L176.532 24.7899L176.223 23.8796L174.44 23.2211L174.429 23.221ZM191.138 21.8046L189.355 21.1461L183.621 26.3219L185.404 26.9804L186.973 26.762L191.458 22.715L191.149 21.8047L191.138 21.8046ZM177.47 31.8891L171.736 37.0649L173.519 37.7234L175.088 37.505L179.573 33.458L179.264 32.5477L177.481 31.8892L177.47 31.8891ZM180.377 17.8463L174.643 23.0221L176.426 23.6806L177.995 23.4622L182.48 19.4152L182.171 18.5049L180.388 17.8464L180.377 17.8463ZM165.338 27.4252L163.555 26.7666L161.986 26.9851L157.501 31.0321L157.81 31.9423L159.593 32.6009L165.327 27.4251L165.338 27.4252ZM156.36 24.1254L154.577 23.4669L153.008 23.6853L148.523 27.7323L148.832 28.6426L150.615 29.3011L156.349 24.1253L156.36 24.1254ZM156.573 23.933L162.308 18.7572L160.525 18.0987L158.956 18.3171L154.471 22.3641L154.78 23.2744L156.563 23.9329L156.573 23.933ZM159.514 25.283L153.78 30.4588L155.563 31.1174L157.132 30.8989L161.617 26.8519L161.308 25.9417L159.525 25.2831L159.514 25.283ZM171.399 14.5465L165.665 19.7223L167.448 20.3809L169.017 20.1624L173.502 16.1154L173.193 15.2052L171.41 14.5466L171.399 14.5465ZM165.462 19.9148L159.728 25.0906L161.511 25.7492L163.08 25.5307L167.564 21.4837L167.255 20.5735L165.473 19.9149L165.462 19.9148Z" fill="#036E9D" stroke="white" stroke-width="0.117363" stroke-miterlimit="10"/>
</g>
<defs>
<clipPath id="clip0_127_5938">
<rect width="79.0268" height="42.5591" fill="white" transform="translate(46.4033) rotate(0.543567)"/>
</clipPath>
<clipPath id="clip1_127_5938">
<rect width="79.0268" height="42.5591" fill="white" transform="translate(144.403 10) rotate(0.543567)"/>
</clipPath>
</defs>
</svg>
