<svg width="861" height="800" viewBox="0 0 861 800" fill="none" xmlns="http://www.w3.org/2000/svg">
<g opacity="0.85">
<rect x="244" y="3" width="379" height="77" rx="38.5" fill="white"/>
<rect x="244" y="3" width="379" height="77" rx="38.5" stroke="#4B9E81" stroke-width="6"/>
<path d="M304.86 59.28C302.78 59.28 301.153 59.1067 299.98 58.76C298.807 58.44 297.98 57.8533 297.5 57C297.02 56.1467 296.767 54.92 296.74 53.32H293.18C290.993 53.32 289.327 53.1333 288.18 52.76C287.033 52.36 286.247 51.6933 285.82 50.76C285.393 49.8267 285.18 48.5467 285.18 46.92C285.18 45.2667 285.393 43.9733 285.82 43.04C286.247 42.1067 287.033 41.4533 288.18 41.08C289.327 40.7067 290.993 40.52 293.18 40.52H304.58C306.767 40.52 308.433 40.7067 309.58 41.08C310.727 41.4533 311.513 42.1067 311.94 43.04C312.367 43.9733 312.58 45.2667 312.58 46.92C312.58 48.5467 312.367 49.8267 311.94 50.76C311.513 51.6933 310.727 52.36 309.58 52.76C308.433 53.1333 306.767 53.32 304.58 53.32H301.34C301.393 54.1467 301.647 54.68 302.1 54.92C302.553 55.16 303.473 55.28 304.86 55.28H309.26C310.46 55.28 311.38 55.2 312.02 55.04C312.66 54.88 313.127 54.6 313.42 54.2C313.74 53.8 313.967 53.2533 314.1 52.56C314.207 52.0267 314.527 51.6133 315.06 51.32C315.593 51.0267 316.193 50.9733 316.86 51.16C317.473 51.32 317.913 51.64 318.18 52.12C318.473 52.5733 318.553 53.1067 318.42 53.72C318.18 55.1067 317.727 56.2 317.06 57C316.393 57.8267 315.433 58.4133 314.18 58.76C312.927 59.1067 311.287 59.28 309.26 59.28H304.86ZM299.02 39.8C298.38 39.8 297.833 39.5867 297.38 39.16C296.953 38.7333 296.74 38.1733 296.74 37.48V31.8H288.38C287.313 31.8 286.567 31.9467 286.14 32.24C285.713 32.5333 285.5 33.1467 285.5 34.08V35.88C285.5 36.5467 285.273 37.0933 284.82 37.52C284.393 37.92 283.873 38.12 283.26 38.12C282.62 38.12 282.073 37.92 281.62 37.52C281.193 37.0933 280.98 36.5467 280.98 35.88V34.04C280.98 32.7067 281.193 31.64 281.62 30.84C282.073 30.04 282.833 29.4667 283.9 29.12C284.967 28.7467 286.42 28.56 288.26 28.56H296.74V26.84H284.74C284.233 26.84 283.807 26.6667 283.46 26.32C283.14 25.9467 282.98 25.5067 282.98 25C282.98 24.52 283.14 24.1067 283.46 23.76C283.807 23.3867 284.233 23.2 284.74 23.2H313.5C314.007 23.2 314.42 23.3867 314.74 23.76C315.087 24.1067 315.26 24.52 315.26 25C315.26 25.5067 315.087 25.9467 314.74 26.32C314.42 26.6667 314.007 26.84 313.5 26.84H301.3V28.56H309.78C311.647 28.56 313.1 28.7467 314.14 29.12C315.207 29.4667 315.953 30.04 316.38 30.84C316.833 31.64 317.06 32.7067 317.06 34.04V35.88C317.06 36.5467 316.833 37.0933 316.38 37.52C315.927 37.92 315.393 38.12 314.78 38.12C314.167 38.12 313.633 37.92 313.18 37.52C312.727 37.0933 312.5 36.5467 312.5 35.88V34.08C312.5 33.1467 312.287 32.5333 311.86 32.24C311.46 31.9467 310.727 31.8 309.66 31.8H301.3V37.48C301.3 38.1733 301.073 38.7333 300.62 39.16C300.193 39.5867 299.66 39.8 299.02 39.8ZM303.74 39.16C303.393 39.16 303.087 39.04 302.82 38.8C302.58 38.5333 302.46 38.2267 302.46 37.88C302.46 37.5333 302.58 37.24 302.82 37C303.087 36.7333 303.393 36.6 303.74 36.6H310.14C310.513 36.6 310.82 36.7333 311.06 37C311.3 37.24 311.42 37.5333 311.42 37.88C311.42 38.2267 311.3 38.5333 311.06 38.8C310.82 39.04 310.513 39.16 310.14 39.16H303.74ZM303.74 35.56C303.393 35.56 303.087 35.44 302.82 35.2C302.58 34.9333 302.46 34.6267 302.46 34.28C302.46 33.9333 302.58 33.64 302.82 33.4C303.087 33.1333 303.393 33 303.74 33H310.14C310.513 33 310.82 33.1333 311.06 33.4C311.3 33.64 311.42 33.9333 311.42 34.28C311.42 34.6267 311.3 34.9333 311.06 35.2C310.82 35.44 310.513 35.56 310.14 35.56H303.74ZM287.82 39.16C287.473 39.16 287.18 39.04 286.94 38.8C286.7 38.5333 286.58 38.2267 286.58 37.88C286.58 37.5333 286.7 37.24 286.94 37C287.18 36.7333 287.473 36.6 287.82 36.6H294.26C294.607 36.6 294.9 36.7333 295.14 37C295.38 37.24 295.5 37.5333 295.5 37.88C295.5 38.2267 295.38 38.5333 295.14 38.8C294.9 39.04 294.607 39.16 294.26 39.16H287.82ZM287.82 35.56C287.473 35.56 287.18 35.44 286.94 35.2C286.7 34.9333 286.58 34.6267 286.58 34.28C286.58 33.9333 286.7 33.64 286.94 33.4C287.18 33.1333 287.473 33 287.82 33H294.26C294.607 33 294.9 33.1333 295.14 33.4C295.38 33.64 295.5 33.9333 295.5 34.28C295.5 34.6267 295.38 34.9333 295.14 35.2C294.9 35.44 294.607 35.56 294.26 35.56H287.82ZM289.74 45.44H296.74V43.76H293.22C291.993 43.76 291.14 43.8533 290.66 44.04C290.18 44.2 289.873 44.6667 289.74 45.44ZM293.22 50.08H296.74V48.4H289.74C289.873 49.1467 290.18 49.6133 290.66 49.8C291.14 49.9867 291.993 50.08 293.22 50.08ZM301.34 45.44H308.02C307.913 44.6667 307.62 44.2 307.14 44.04C306.66 43.8533 305.793 43.76 304.54 43.76H301.34V45.44ZM301.34 50.08H304.54C305.793 50.08 306.66 49.9867 307.14 49.8C307.62 49.6133 307.913 49.1467 308.02 48.4H301.34V50.08ZM361.34 57.16C360.647 58.2267 359.847 58.92 358.94 59.24C358.06 59.56 357.18 59.52 356.3 59.12C355.42 58.7467 354.647 58.04 353.98 57C353.367 56.04 352.86 54.8667 352.46 53.48C352.06 52.0933 351.767 50.5867 351.58 48.96C351.393 47.3333 351.287 45.68 351.26 44C351.26 43.12 351.073 42.52 350.7 42.2C350.327 41.88 349.66 41.72 348.7 41.72H330.06C329.5 41.72 329.02 41.52 328.62 41.12C328.247 40.72 328.06 40.2533 328.06 39.72C328.06 39.16 328.247 38.6933 328.62 38.32C329.02 37.92 329.5 37.72 330.06 37.72H348.82C350.66 37.72 352.087 37.92 353.1 38.32C354.14 38.72 354.847 39.3867 355.22 40.32C355.62 41.2533 355.793 42.5067 355.74 44.08C355.687 45.9467 355.793 47.68 356.06 49.28C356.327 50.8533 356.713 52.1467 357.22 53.16C357.433 53.56 357.673 53.7733 357.94 53.8C358.207 53.8 358.433 53.56 358.62 53.08C358.753 52.76 358.873 52.4667 358.98 52.2C359.087 51.9333 359.193 51.6667 359.3 51.4C359.54 50.8133 359.953 50.4267 360.54 50.24C361.127 50.0533 361.713 50.0933 362.3 50.36C362.913 50.6267 363.3 51.0267 363.46 51.56C363.62 52.0933 363.58 52.6667 363.34 53.28C363.073 53.8667 362.767 54.52 362.42 55.24C362.073 55.96 361.713 56.6 361.34 57.16ZM330.58 58.72C329.753 59.04 329.02 59.12 328.38 58.96C327.767 58.8267 327.3 58.4267 326.98 57.76C326.66 57.0933 326.633 56.4667 326.9 55.88C327.193 55.2667 327.713 54.8267 328.46 54.56C329.9 54.0267 331.287 53.3867 332.62 52.64C333.98 51.8933 335.273 51.0667 336.5 50.16C335.727 49.52 334.967 48.92 334.22 48.36C333.473 47.8 332.767 47.3067 332.1 46.88C331.567 46.56 331.233 46.1067 331.1 45.52C330.967 44.9067 331.047 44.3867 331.34 43.96C331.713 43.4267 332.207 43.0933 332.82 42.96C333.433 42.8 333.993 42.88 334.5 43.2C335.3 43.68 336.18 44.2667 337.14 44.96C338.1 45.6267 339.073 46.3467 340.06 47.12C341.42 45.76 342.62 44.3333 343.66 42.84C344.033 42.28 344.54 41.9333 345.18 41.8C345.82 41.64 346.42 41.7467 346.98 42.12C347.513 42.4933 347.82 43 347.9 43.64C347.98 44.2533 347.82 44.8533 347.42 45.44C346.913 46.1867 346.327 46.9467 345.66 47.72C345.02 48.4667 344.313 49.2133 343.54 49.96C344.393 50.68 345.18 51.3867 345.9 52.08C346.647 52.7733 347.313 53.4267 347.9 54.04C348.353 54.5467 348.567 55.1333 348.54 55.8C348.513 56.4667 348.233 57.04 347.7 57.52C347.193 57.9467 346.593 58.1333 345.9 58.08C345.233 58.0533 344.673 57.7867 344.22 57.28C343.66 56.6667 343.02 56.0133 342.3 55.32C341.58 54.6 340.807 53.8667 339.98 53.12C338.513 54.2933 336.98 55.36 335.38 56.32C333.78 57.3067 332.18 58.1067 330.58 58.72ZM326.34 36.36C325.833 35.96 325.553 35.4533 325.5 34.84C325.473 34.2 325.673 33.64 326.1 33.16C326.9 32.3067 327.7 31.2933 328.5 30.12C329.327 28.9467 330.1 27.7467 330.82 26.52C331.54 25.2933 332.127 24.1733 332.58 23.16C332.873 22.4933 333.327 22.0533 333.94 21.84C334.553 21.6267 335.153 21.6533 335.74 21.92C336.327 22.1867 336.727 22.5867 336.94 23.12C337.153 23.6267 337.113 24.2 336.82 24.84C336.767 24.9733 336.7 25.12 336.62 25.28C336.54 25.44 336.46 25.6133 336.38 25.8H358.18C358.713 25.8 359.167 25.9867 359.54 26.36C359.913 26.7067 360.1 27.1467 360.1 27.68C360.1 28.1867 359.913 28.6267 359.54 29C359.167 29.3733 358.713 29.56 358.18 29.56H334.26C333.567 30.7067 332.833 31.8267 332.06 32.92C331.313 34.0133 330.593 34.96 329.9 35.76C329.42 36.2933 328.847 36.6533 328.18 36.84C327.54 37 326.927 36.84 326.34 36.36ZM336.74 35.4C336.233 35.4 335.78 35.2133 335.38 34.84C335.007 34.4667 334.82 34.0133 334.82 33.48C334.82 32.9467 335.007 32.4933 335.38 32.12C335.78 31.7467 336.233 31.56 336.74 31.56H354.22C354.753 31.56 355.207 31.7467 355.58 32.12C355.953 32.4933 356.14 32.9467 356.14 33.48C356.14 34.0133 355.953 34.4667 355.58 34.84C355.207 35.2133 354.753 35.4 354.22 35.4H336.74ZM397.5 57.8C393.927 58.3067 390.913 58.4933 388.46 58.36C386.007 58.2533 384.033 57.8933 382.54 57.28C381.073 56.6667 380.007 55.8533 379.34 54.84C378.673 53.8 378.34 52.6267 378.34 51.32C378.34 49.32 379.14 47.4533 380.74 45.72C382.367 43.9867 384.713 42.4667 387.78 41.16C387.353 40.6267 386.833 40.2667 386.22 40.08C384.887 39.68 383.567 39.8267 382.26 40.52C380.98 41.2133 379.727 42.2267 378.5 43.56C378.047 44.04 377.447 44.3067 376.7 44.36C375.98 44.3867 375.393 44.16 374.94 43.68C374.513 43.1733 374.313 42.5867 374.34 41.92C374.393 41.2533 374.673 40.7067 375.18 40.28C376.487 39.16 377.633 37.9467 378.62 36.64C379.633 35.3333 380.487 33.9867 381.18 32.6C380.033 32.6267 378.953 32.6533 377.94 32.68C376.953 32.68 376.1 32.6667 375.38 32.64C374.713 32.64 374.153 32.4133 373.7 31.96C373.247 31.48 373.02 30.9067 373.02 30.24C373.047 29.5733 373.3 29.0267 373.78 28.6C374.26 28.1733 374.833 27.9733 375.5 28C376.433 28.0267 377.553 28.04 378.86 28.04C380.193 28.0133 381.58 27.9867 383.02 27.96C383.153 27.4533 383.273 26.96 383.38 26.48C383.487 26 383.58 25.52 383.66 25.04C383.767 24.3733 384.06 23.84 384.54 23.44C385.02 23.0133 385.593 22.84 386.26 22.92C386.927 23 387.46 23.2933 387.86 23.8C388.26 24.3067 388.42 24.8933 388.34 25.56C388.313 25.9067 388.26 26.2667 388.18 26.64C388.1 27.0133 388.007 27.3867 387.9 27.76C388.913 27.7067 389.86 27.6533 390.74 27.6C391.62 27.52 392.407 27.4267 393.1 27.32C393.767 27.24 394.353 27.4 394.86 27.8C395.393 28.1733 395.7 28.6933 395.78 29.36C395.86 30.0267 395.687 30.6133 395.26 31.12C394.86 31.6267 394.34 31.9067 393.7 31.96C392.713 32.0667 391.58 32.16 390.3 32.24C389.02 32.32 387.687 32.3867 386.3 32.44C385.713 33.7467 385.073 34.9733 384.38 36.12C385.02 35.9867 385.633 35.9467 386.22 36C386.807 36.0267 387.367 36.12 387.9 36.28C388.7 36.4933 389.473 36.8667 390.22 37.4C390.993 37.9067 391.673 38.6267 392.26 39.56C393.567 39.1867 394.953 38.84 396.42 38.52C397.913 38.2 399.487 37.92 401.14 37.68C401.78 37.5733 402.367 37.72 402.9 38.12C403.433 38.4933 403.74 39.0133 403.82 39.68C403.927 40.3467 403.78 40.9333 403.38 41.44C402.98 41.9467 402.447 42.2533 401.78 42.36C400.233 42.5467 398.807 42.7733 397.5 43.04C396.193 43.28 394.98 43.5467 393.86 43.84C393.993 44.56 394.1 45.3467 394.18 46.2C394.26 47.0533 394.3 47.9733 394.3 48.96C394.3 49.6267 394.06 50.2 393.58 50.68C393.127 51.1333 392.567 51.36 391.9 51.36C391.233 51.36 390.673 51.1333 390.22 50.68C389.767 50.2 389.54 49.6267 389.54 48.96C389.54 47.6 389.46 46.3867 389.3 45.32C387.113 46.2267 385.527 47.2 384.54 48.24C383.58 49.2533 383.1 50.24 383.1 51.2C383.1 51.92 383.527 52.5067 384.38 52.96C385.233 53.4133 386.66 53.6667 388.66 53.72C390.66 53.7733 393.393 53.5733 396.86 53.12C397.5 53.04 398.087 53.2 398.62 53.6C399.153 53.9733 399.46 54.4933 399.54 55.16C399.62 55.8 399.46 56.3733 399.06 56.88C398.66 57.3867 398.14 57.6933 397.5 57.8ZM423.34 59.48C422.7 59.48 422.153 59.2667 421.7 58.84C421.247 58.4133 421.02 57.8533 421.02 57.16V38.24C420.593 38.8267 420.167 39.3867 419.74 39.92C419.34 40.4533 418.94 40.9467 418.54 41.4C418.113 41.9067 417.567 42.1867 416.9 42.24C416.233 42.2933 415.647 42.1067 415.14 41.68C414.713 41.3067 414.473 40.8267 414.42 40.24C414.393 39.6267 414.567 39.0933 414.94 38.64C415.66 37.76 416.447 36.7067 417.3 35.48C418.18 34.2533 419.033 32.96 419.86 31.6C420.713 30.2133 421.487 28.88 422.18 27.6C422.873 26.2933 423.42 25.1467 423.82 24.16C424.087 23.5467 424.527 23.1333 425.14 22.92C425.753 22.7067 426.353 22.7333 426.94 23C427.553 23.2667 427.953 23.68 428.14 24.24C428.327 24.8 428.3 25.3733 428.06 25.96C427.713 26.7067 427.34 27.4933 426.94 28.32C426.54 29.12 426.113 29.9467 425.66 30.8V38.6C425.713 38.52 425.753 38.44 425.78 38.36C425.833 38.2533 425.887 38.16 425.94 38.08C426.607 37.2267 427.313 36.2133 428.06 35.04C428.807 33.8667 429.54 32.6267 430.26 31.32C430.98 29.9867 431.633 28.6933 432.22 27.44C432.833 26.1867 433.313 25.0533 433.66 24.04C433.9 23.3733 434.287 22.9067 434.82 22.64C435.38 22.3733 435.967 22.3467 436.58 22.56C437.193 22.7467 437.647 23.1067 437.94 23.64C438.233 24.1733 438.26 24.7733 438.02 25.44C437.807 26.08 437.553 26.7467 437.26 27.44C436.967 28.1067 436.647 28.8 436.3 29.52H449.62C450.233 29.52 450.753 29.7333 451.18 30.16C451.633 30.5867 451.86 31.1067 451.86 31.72C451.86 32.3333 451.633 32.8667 451.18 33.32C450.753 33.7467 450.233 33.96 449.62 33.96H440.66V38.28H448.34C448.953 38.28 449.46 38.4933 449.86 38.92C450.26 39.32 450.46 39.8133 450.46 40.4C450.46 40.9867 450.26 41.4933 449.86 41.92C449.46 42.32 448.953 42.52 448.34 42.52H440.66V46.8H448.34C448.953 46.8 449.473 47.0133 449.9 47.44C450.353 47.8667 450.58 48.3867 450.58 49C450.58 49.6133 450.353 50.1467 449.9 50.6C449.473 51.0267 448.953 51.24 448.34 51.24H440.66V57C440.66 57.72 440.42 58.2933 439.94 58.72C439.487 59.1467 438.927 59.36 438.26 59.36C437.593 59.36 437.033 59.1467 436.58 58.72C436.127 58.2933 435.9 57.72 435.9 57V33.96H434.02C433.3 35.2133 432.567 36.4267 431.82 37.6C431.073 38.7467 430.353 39.7733 429.66 40.68C429.26 41.1867 428.727 41.4933 428.06 41.6C427.42 41.68 426.833 41.5333 426.3 41.16C426.007 40.9467 425.793 40.6667 425.66 40.32V57.16C425.66 57.8533 425.433 58.4133 424.98 58.84C424.527 59.2667 423.98 59.48 423.34 59.48ZM478.18 57.72C475.753 57.6667 473.833 57.08 472.42 55.96C471.033 54.84 470.367 53.3067 470.42 51.36C470.473 50.2133 470.793 49.2133 471.38 48.36C471.993 47.5067 472.82 46.8667 473.86 46.44C474.9 45.9867 476.087 45.8267 477.42 45.96C479.553 46.1467 481.047 46.88 481.9 48.16C482.753 49.4133 483.007 50.8533 482.66 52.48C483.593 52.0267 484.353 51.3733 484.94 50.52C485.553 49.64 485.86 48.5067 485.86 47.12C485.86 46.08 485.553 45.1467 484.94 44.32C484.353 43.4667 483.513 42.8133 482.42 42.36C481.353 41.88 480.113 41.68 478.7 41.76C477.287 41.84 475.767 42.2667 474.14 43.04C472.513 43.7867 470.847 44.9867 469.14 46.64C468.66 47.0933 468.06 47.32 467.34 47.32C466.62 47.2933 466.033 47.0133 465.58 46.48C465.153 45.9733 464.953 45.4 464.98 44.76C465.033 44.0933 465.313 43.5733 465.82 43.2C467.473 41.9467 469.127 40.6267 470.78 39.24C472.433 37.8267 474.007 36.44 475.5 35.08C477.02 33.72 478.353 32.48 479.5 31.36C480.22 30.6667 480.46 30.0933 480.22 29.64C480.007 29.1867 479.433 29.0267 478.5 29.16C477.593 29.2667 476.553 29.4 475.38 29.56C474.233 29.72 473.153 29.8667 472.14 30C471.5 30.1067 470.913 29.96 470.38 29.56C469.847 29.16 469.54 28.6267 469.46 27.96C469.353 27.32 469.5 26.7467 469.9 26.24C470.3 25.7067 470.833 25.3867 471.5 25.28C472.087 25.2 472.82 25.12 473.7 25.04C474.607 24.96 475.527 24.88 476.46 24.8C477.42 24.72 478.233 24.6533 478.9 24.6C480.633 24.4667 482.047 24.6933 483.14 25.28C484.233 25.8667 484.98 26.6667 485.38 27.68C485.78 28.6667 485.793 29.7467 485.42 30.92C485.073 32.0933 484.313 33.2 483.14 34.24C482.607 34.6933 481.927 35.28 481.1 36C480.3 36.72 479.473 37.4533 478.62 38.2C480.14 37.9067 481.62 37.8933 483.06 38.16C484.5 38.4 485.78 38.9067 486.9 39.68C488.047 40.4533 488.953 41.48 489.62 42.76C490.287 44.0133 490.62 45.4933 490.62 47.2C490.62 49.6267 490.087 51.64 489.02 53.24C487.953 54.8133 486.487 55.96 484.62 56.68C482.753 57.4267 480.607 57.7733 478.18 57.72ZM477.46 53.28C477.513 53.28 477.593 53.28 477.7 53.28C477.78 53.28 477.873 53.2933 477.98 53.32C478.113 53.32 478.26 53.3067 478.42 53.28C478.793 52.4 478.86 51.6667 478.62 51.08C478.38 50.4933 477.9 50.1467 477.18 50.04C476.54 49.96 476.007 50.0533 475.58 50.32C475.18 50.56 474.953 50.96 474.9 51.52C474.873 52.5867 475.727 53.1733 477.46 53.28ZM532.86 59.12C532.193 59.12 531.633 58.96 531.18 58.64C530.753 58.3467 530.5 57.8667 530.42 57.2C530.367 56.5867 530.527 56.0533 530.9 55.6C531.3 55.1467 531.793 54.9067 532.38 54.88C533.26 54.8267 533.86 54.7067 534.18 54.52C534.527 54.3333 534.793 53.92 534.98 53.28C535.14 52.7733 535.3 52.1333 535.46 51.36C535.62 50.5867 535.753 49.7867 535.86 48.96C535.967 48.2667 535.94 47.76 535.78 47.44C535.62 47.12 535.3 46.9067 534.82 46.8C534.207 48.2933 533.393 49.7867 532.38 51.28C531.393 52.7733 530.287 54.1733 529.06 55.48C527.86 56.76 526.62 57.8533 525.34 58.76C524.887 59.08 524.367 59.24 523.78 59.24C523.193 59.24 522.713 59.0267 522.34 58.6C521.993 58.2267 521.82 57.7867 521.82 57.28C521.847 56.7733 522.06 56.3733 522.46 56.08C524.273 54.6933 525.9 53.2 527.34 51.6C528.78 50 529.94 48.3733 530.82 46.72H529.02C528.273 48.08 527.313 49.4267 526.14 50.76C524.967 52.0667 523.7 53.28 522.34 54.4C520.98 55.52 519.633 56.4267 518.3 57.12C517.793 57.3867 517.26 57.4533 516.7 57.32C516.167 57.2133 515.753 56.9067 515.46 56.4C515.22 55.9733 515.167 55.52 515.3 55.04C515.433 54.5333 515.713 54.16 516.14 53.92C517.793 53.0667 519.407 51.9867 520.98 50.68C522.553 49.3733 523.847 48.0533 524.86 46.72H522.7C521.927 47.6 521.1 48.44 520.22 49.24C519.367 50.0133 518.5 50.7333 517.62 51.4C517.167 51.72 516.647 51.8667 516.06 51.84C515.473 51.8133 515.007 51.5867 514.66 51.16C514.367 50.76 514.233 50.3067 514.26 49.8C514.313 49.2667 514.553 48.8667 514.98 48.6C515.46 48.2533 515.94 47.88 516.42 47.48C516.927 47.0533 517.42 46.6267 517.9 46.2C517.82 46.2533 517.74 46.3067 517.66 46.36C517.58 46.4133 517.487 46.4667 517.38 46.52C516.553 46.8933 515.54 47.3333 514.34 47.84C513.14 48.32 511.927 48.7867 510.7 49.24C509.473 49.6933 508.42 50.0667 507.54 50.36C506.873 50.6 506.26 50.56 505.7 50.24C505.167 49.92 504.807 49.4667 504.62 48.88C504.433 48.2667 504.473 47.7067 504.74 47.2C505.007 46.6667 505.473 46.3067 506.14 46.12C507.073 45.88 508.153 45.5733 509.38 45.2V35.08H506.46C505.82 35.08 505.313 34.88 504.94 34.48C504.567 34.08 504.38 33.6 504.38 33.04C504.38 32.4533 504.567 31.96 504.94 31.56C505.313 31.16 505.82 30.96 506.46 30.96H509.38V24.8C509.38 24.1067 509.593 23.5733 510.02 23.2C510.447 22.8 510.98 22.6 511.62 22.6C512.26 22.6 512.793 22.8 513.22 23.2C513.647 23.5733 513.86 24.1067 513.86 24.8V30.96H516.5C517.113 30.96 517.607 31.16 517.98 31.56C518.353 31.96 518.54 32.4533 518.54 33.04C518.54 33.6 518.353 34.08 517.98 34.48C517.607 34.88 517.113 35.08 516.5 35.08H513.86V43.68C514.26 43.52 514.647 43.3733 515.02 43.24C515.393 43.08 515.753 42.9333 516.1 42.8C516.607 42.5867 517.1 42.5867 517.58 42.8C518.087 43.0133 518.42 43.3733 518.58 43.88C518.82 44.68 518.727 45.3333 518.3 45.84C519.74 44.4533 520.98 43.0667 522.02 41.68H518.46C517.953 41.68 517.54 41.5067 517.22 41.16C516.927 40.7867 516.78 40.36 516.78 39.88C516.78 39.4 516.927 38.9867 517.22 38.64C517.54 38.2667 517.953 38.08 518.46 38.08H540.14C540.673 38.08 541.087 38.2667 541.38 38.64C541.7 38.9867 541.86 39.4 541.86 39.88C541.86 40.36 541.7 40.7867 541.38 41.16C541.087 41.5067 540.673 41.68 540.14 41.68H526.3C526.14 41.9467 525.98 42.2267 525.82 42.52C525.66 42.7867 525.487 43.0667 525.3 43.36H534.94C536.833 43.36 538.22 43.7733 539.1 44.6C539.98 45.4267 540.313 46.8133 540.1 48.76C539.913 51 539.58 53.0267 539.1 54.84C538.727 56.3333 538.033 57.4133 537.02 58.08C536.033 58.7733 534.647 59.12 532.86 59.12ZM527.38 36.68C525.593 36.68 524.193 36.4933 523.18 36.12C522.167 35.72 521.447 35.04 521.02 34.08C520.62 33.0933 520.42 31.72 520.42 29.96C520.42 28.1733 520.62 26.8 521.02 25.84C521.447 24.88 522.167 24.2133 523.18 23.84C524.193 23.44 525.593 23.24 527.38 23.24H530.78C532.567 23.24 533.967 23.44 534.98 23.84C535.993 24.2133 536.713 24.88 537.14 25.84C537.567 26.8 537.78 28.1733 537.78 29.96C537.78 31.72 537.567 33.0933 537.14 34.08C536.713 35.04 535.993 35.72 534.98 36.12C533.967 36.4933 532.567 36.68 530.78 36.68H527.38ZM527.86 33.24H530.38C531.447 33.24 532.193 33.1333 532.62 32.92C533.047 32.7067 533.3 32.2 533.38 31.4H524.82C524.9 32.2 525.153 32.7067 525.58 32.92C526.033 33.1333 526.793 33.24 527.86 33.24ZM524.82 28.4H533.38C533.273 27.6267 533.007 27.1467 532.58 26.96C532.153 26.7467 531.42 26.64 530.38 26.64H527.86C526.793 26.64 526.047 26.7467 525.62 26.96C525.193 27.1467 524.927 27.6267 524.82 28.4ZM579.54 59.6C578.9 59.6 578.353 59.3867 577.9 58.96C577.447 58.5333 577.22 57.9733 577.22 57.28V39.2H573.7C573.513 43.2267 572.74 46.8 571.38 49.92C570.047 53.0133 568.14 55.6267 565.66 57.76C565.1 58.24 564.46 58.52 563.74 58.6C563.047 58.7067 562.42 58.5067 561.86 58C561.353 57.4933 561.1 56.9067 561.1 56.24C561.127 55.6 561.433 55.0267 562.02 54.52C563.647 53.1067 564.967 51.5867 565.98 49.96C567.02 48.3067 567.78 46.4533 568.26 44.4C568.74 42.32 568.98 39.9333 568.98 37.24V32.08C568.98 30.4267 569.153 29.1067 569.5 28.12C569.873 27.1067 570.487 26.32 571.34 25.76C572.22 25.2 573.407 24.7733 574.9 24.48C576.073 24.2667 577.367 23.9867 578.78 23.64C580.193 23.2667 581.553 22.8933 582.86 22.52C583.553 22.3067 584.18 22.3333 584.74 22.6C585.327 22.8667 585.713 23.2667 585.9 23.8C586.14 24.44 586.14 25.0533 585.9 25.64C585.66 26.2 585.193 26.5867 584.5 26.8C583.22 27.1467 581.887 27.4933 580.5 27.84C579.113 28.16 577.833 28.4267 576.66 28.64C575.86 28.8 575.247 29 574.82 29.24C574.393 29.4533 574.1 29.7867 573.94 30.24C573.807 30.6667 573.74 31.3067 573.74 32.16V34.76H584.54C585.233 34.76 585.767 34.9867 586.14 35.44C586.54 35.8667 586.74 36.3867 586.74 37C586.74 37.5867 586.54 38.1067 586.14 38.56C585.767 38.9867 585.233 39.2 584.54 39.2H581.86V57.28C581.86 57.9733 581.633 58.5333 581.18 58.96C580.727 59.3867 580.18 59.6 579.54 59.6ZM549.74 59.16C549.18 58.8933 548.807 58.4667 548.62 57.88C548.433 57.2933 548.487 56.7333 548.78 56.2C549.847 54.2267 550.66 52.1467 551.22 49.96C551.78 47.7733 552.06 45.3333 552.06 42.64V38.04C552.06 36.2533 552.26 34.8667 552.66 33.88C553.087 32.8933 553.82 32.2 554.86 31.8C555.927 31.4 557.407 31.2 559.3 31.2C561.22 31.2 562.7 31.4 563.74 31.8C564.78 32.2 565.5 32.8933 565.9 33.88C566.3 34.8667 566.5 36.2533 566.5 38.04C566.5 39.8267 566.287 41.2133 565.86 42.2C565.46 43.16 564.74 43.84 563.7 44.24C562.66 44.6133 561.18 44.8 559.26 44.8H556.58C556.447 47.5467 556.073 49.9867 555.46 52.12C554.847 54.2267 554.047 56.2 553.06 58.04C552.74 58.6267 552.26 59.0267 551.62 59.24C550.98 59.4533 550.353 59.4267 549.74 59.16ZM551.9 28.44C551.287 28.44 550.793 28.24 550.42 27.84C550.047 27.44 549.86 26.96 549.86 26.4C549.86 25.8133 550.047 25.3333 550.42 24.96C550.793 24.56 551.287 24.36 551.9 24.36H565.74C566.353 24.36 566.847 24.56 567.22 24.96C567.593 25.3333 567.78 25.8133 567.78 26.4C567.78 26.96 567.593 27.44 567.22 27.84C566.847 28.24 566.353 28.44 565.74 28.44H551.9ZM556.62 40.68H559.3C560.42 40.68 561.14 40.5333 561.46 40.24C561.807 39.92 561.98 39.1867 561.98 38.04C561.98 36.8933 561.807 36.1733 561.46 35.88C561.14 35.56 560.42 35.4 559.3 35.4C558.18 35.4 557.447 35.5467 557.1 35.84C556.78 36.1333 556.62 36.8533 556.62 38V40.68Z" fill="#007440"/>
<rect x="3" y="37" width="855" height="760" rx="33" fill="#F6F4E5" stroke="#4B9E81" stroke-width="6"/>
</g>
<rect x="8" y="42" width="845" height="750" rx="28" stroke="#007440" stroke-width="4"/>
<path d="M9 556H855" stroke="#007440" stroke-width="4"/>
<path d="M9 317H855" stroke="#007440" stroke-width="4"/>
<rect x="249" y="8" width="369" height="67" rx="33.5" fill="white"/>
<rect x="249" y="8" width="369" height="67" rx="33.5" stroke="#007440" stroke-width="4"/>
<path d="M304.86 59.28C302.78 59.28 301.153 59.1067 299.98 58.76C298.807 58.44 297.98 57.8533 297.5 57C297.02 56.1467 296.767 54.92 296.74 53.32H293.18C290.993 53.32 289.327 53.1333 288.18 52.76C287.033 52.36 286.247 51.6933 285.82 50.76C285.393 49.8267 285.18 48.5467 285.18 46.92C285.18 45.2667 285.393 43.9733 285.82 43.04C286.247 42.1067 287.033 41.4533 288.18 41.08C289.327 40.7067 290.993 40.52 293.18 40.52H304.58C306.767 40.52 308.433 40.7067 309.58 41.08C310.727 41.4533 311.513 42.1067 311.94 43.04C312.367 43.9733 312.58 45.2667 312.58 46.92C312.58 48.5467 312.367 49.8267 311.94 50.76C311.513 51.6933 310.727 52.36 309.58 52.76C308.433 53.1333 306.767 53.32 304.58 53.32H301.34C301.393 54.1467 301.647 54.68 302.1 54.92C302.553 55.16 303.473 55.28 304.86 55.28H309.26C310.46 55.28 311.38 55.2 312.02 55.04C312.66 54.88 313.127 54.6 313.42 54.2C313.74 53.8 313.967 53.2533 314.1 52.56C314.207 52.0267 314.527 51.6133 315.06 51.32C315.593 51.0267 316.193 50.9733 316.86 51.16C317.473 51.32 317.913 51.64 318.18 52.12C318.473 52.5733 318.553 53.1067 318.42 53.72C318.18 55.1067 317.727 56.2 317.06 57C316.393 57.8267 315.433 58.4133 314.18 58.76C312.927 59.1067 311.287 59.28 309.26 59.28H304.86ZM299.02 39.8C298.38 39.8 297.833 39.5867 297.38 39.16C296.953 38.7333 296.74 38.1733 296.74 37.48V31.8H288.38C287.313 31.8 286.567 31.9467 286.14 32.24C285.713 32.5333 285.5 33.1467 285.5 34.08V35.88C285.5 36.5467 285.273 37.0933 284.82 37.52C284.393 37.92 283.873 38.12 283.26 38.12C282.62 38.12 282.073 37.92 281.62 37.52C281.193 37.0933 280.98 36.5467 280.98 35.88V34.04C280.98 32.7067 281.193 31.64 281.62 30.84C282.073 30.04 282.833 29.4667 283.9 29.12C284.967 28.7467 286.42 28.56 288.26 28.56H296.74V26.84H284.74C284.233 26.84 283.807 26.6667 283.46 26.32C283.14 25.9467 282.98 25.5067 282.98 25C282.98 24.52 283.14 24.1067 283.46 23.76C283.807 23.3867 284.233 23.2 284.74 23.2H313.5C314.007 23.2 314.42 23.3867 314.74 23.76C315.087 24.1067 315.26 24.52 315.26 25C315.26 25.5067 315.087 25.9467 314.74 26.32C314.42 26.6667 314.007 26.84 313.5 26.84H301.3V28.56H309.78C311.647 28.56 313.1 28.7467 314.14 29.12C315.207 29.4667 315.953 30.04 316.38 30.84C316.833 31.64 317.06 32.7067 317.06 34.04V35.88C317.06 36.5467 316.833 37.0933 316.38 37.52C315.927 37.92 315.393 38.12 314.78 38.12C314.167 38.12 313.633 37.92 313.18 37.52C312.727 37.0933 312.5 36.5467 312.5 35.88V34.08C312.5 33.1467 312.287 32.5333 311.86 32.24C311.46 31.9467 310.727 31.8 309.66 31.8H301.3V37.48C301.3 38.1733 301.073 38.7333 300.62 39.16C300.193 39.5867 299.66 39.8 299.02 39.8ZM303.74 39.16C303.393 39.16 303.087 39.04 302.82 38.8C302.58 38.5333 302.46 38.2267 302.46 37.88C302.46 37.5333 302.58 37.24 302.82 37C303.087 36.7333 303.393 36.6 303.74 36.6H310.14C310.513 36.6 310.82 36.7333 311.06 37C311.3 37.24 311.42 37.5333 311.42 37.88C311.42 38.2267 311.3 38.5333 311.06 38.8C310.82 39.04 310.513 39.16 310.14 39.16H303.74ZM303.74 35.56C303.393 35.56 303.087 35.44 302.82 35.2C302.58 34.9333 302.46 34.6267 302.46 34.28C302.46 33.9333 302.58 33.64 302.82 33.4C303.087 33.1333 303.393 33 303.74 33H310.14C310.513 33 310.82 33.1333 311.06 33.4C311.3 33.64 311.42 33.9333 311.42 34.28C311.42 34.6267 311.3 34.9333 311.06 35.2C310.82 35.44 310.513 35.56 310.14 35.56H303.74ZM287.82 39.16C287.473 39.16 287.18 39.04 286.94 38.8C286.7 38.5333 286.58 38.2267 286.58 37.88C286.58 37.5333 286.7 37.24 286.94 37C287.18 36.7333 287.473 36.6 287.82 36.6H294.26C294.607 36.6 294.9 36.7333 295.14 37C295.38 37.24 295.5 37.5333 295.5 37.88C295.5 38.2267 295.38 38.5333 295.14 38.8C294.9 39.04 294.607 39.16 294.26 39.16H287.82ZM287.82 35.56C287.473 35.56 287.18 35.44 286.94 35.2C286.7 34.9333 286.58 34.6267 286.58 34.28C286.58 33.9333 286.7 33.64 286.94 33.4C287.18 33.1333 287.473 33 287.82 33H294.26C294.607 33 294.9 33.1333 295.14 33.4C295.38 33.64 295.5 33.9333 295.5 34.28C295.5 34.6267 295.38 34.9333 295.14 35.2C294.9 35.44 294.607 35.56 294.26 35.56H287.82ZM289.74 45.44H296.74V43.76H293.22C291.993 43.76 291.14 43.8533 290.66 44.04C290.18 44.2 289.873 44.6667 289.74 45.44ZM293.22 50.08H296.74V48.4H289.74C289.873 49.1467 290.18 49.6133 290.66 49.8C291.14 49.9867 291.993 50.08 293.22 50.08ZM301.34 45.44H308.02C307.913 44.6667 307.62 44.2 307.14 44.04C306.66 43.8533 305.793 43.76 304.54 43.76H301.34V45.44ZM301.34 50.08H304.54C305.793 50.08 306.66 49.9867 307.14 49.8C307.62 49.6133 307.913 49.1467 308.02 48.4H301.34V50.08ZM361.34 57.16C360.647 58.2267 359.847 58.92 358.94 59.24C358.06 59.56 357.18 59.52 356.3 59.12C355.42 58.7467 354.647 58.04 353.98 57C353.367 56.04 352.86 54.8667 352.46 53.48C352.06 52.0933 351.767 50.5867 351.58 48.96C351.393 47.3333 351.287 45.68 351.26 44C351.26 43.12 351.073 42.52 350.7 42.2C350.327 41.88 349.66 41.72 348.7 41.72H330.06C329.5 41.72 329.02 41.52 328.62 41.12C328.247 40.72 328.06 40.2533 328.06 39.72C328.06 39.16 328.247 38.6933 328.62 38.32C329.02 37.92 329.5 37.72 330.06 37.72H348.82C350.66 37.72 352.087 37.92 353.1 38.32C354.14 38.72 354.847 39.3867 355.22 40.32C355.62 41.2533 355.793 42.5067 355.74 44.08C355.687 45.9467 355.793 47.68 356.06 49.28C356.327 50.8533 356.713 52.1467 357.22 53.16C357.433 53.56 357.673 53.7733 357.94 53.8C358.207 53.8 358.433 53.56 358.62 53.08C358.753 52.76 358.873 52.4667 358.98 52.2C359.087 51.9333 359.193 51.6667 359.3 51.4C359.54 50.8133 359.953 50.4267 360.54 50.24C361.127 50.0533 361.713 50.0933 362.3 50.36C362.913 50.6267 363.3 51.0267 363.46 51.56C363.62 52.0933 363.58 52.6667 363.34 53.28C363.073 53.8667 362.767 54.52 362.42 55.24C362.073 55.96 361.713 56.6 361.34 57.16ZM330.58 58.72C329.753 59.04 329.02 59.12 328.38 58.96C327.767 58.8267 327.3 58.4267 326.98 57.76C326.66 57.0933 326.633 56.4667 326.9 55.88C327.193 55.2667 327.713 54.8267 328.46 54.56C329.9 54.0267 331.287 53.3867 332.62 52.64C333.98 51.8933 335.273 51.0667 336.5 50.16C335.727 49.52 334.967 48.92 334.22 48.36C333.473 47.8 332.767 47.3067 332.1 46.88C331.567 46.56 331.233 46.1067 331.1 45.52C330.967 44.9067 331.047 44.3867 331.34 43.96C331.713 43.4267 332.207 43.0933 332.82 42.96C333.433 42.8 333.993 42.88 334.5 43.2C335.3 43.68 336.18 44.2667 337.14 44.96C338.1 45.6267 339.073 46.3467 340.06 47.12C341.42 45.76 342.62 44.3333 343.66 42.84C344.033 42.28 344.54 41.9333 345.18 41.8C345.82 41.64 346.42 41.7467 346.98 42.12C347.513 42.4933 347.82 43 347.9 43.64C347.98 44.2533 347.82 44.8533 347.42 45.44C346.913 46.1867 346.327 46.9467 345.66 47.72C345.02 48.4667 344.313 49.2133 343.54 49.96C344.393 50.68 345.18 51.3867 345.9 52.08C346.647 52.7733 347.313 53.4267 347.9 54.04C348.353 54.5467 348.567 55.1333 348.54 55.8C348.513 56.4667 348.233 57.04 347.7 57.52C347.193 57.9467 346.593 58.1333 345.9 58.08C345.233 58.0533 344.673 57.7867 344.22 57.28C343.66 56.6667 343.02 56.0133 342.3 55.32C341.58 54.6 340.807 53.8667 339.98 53.12C338.513 54.2933 336.98 55.36 335.38 56.32C333.78 57.3067 332.18 58.1067 330.58 58.72ZM326.34 36.36C325.833 35.96 325.553 35.4533 325.5 34.84C325.473 34.2 325.673 33.64 326.1 33.16C326.9 32.3067 327.7 31.2933 328.5 30.12C329.327 28.9467 330.1 27.7467 330.82 26.52C331.54 25.2933 332.127 24.1733 332.58 23.16C332.873 22.4933 333.327 22.0533 333.94 21.84C334.553 21.6267 335.153 21.6533 335.74 21.92C336.327 22.1867 336.727 22.5867 336.94 23.12C337.153 23.6267 337.113 24.2 336.82 24.84C336.767 24.9733 336.7 25.12 336.62 25.28C336.54 25.44 336.46 25.6133 336.38 25.8H358.18C358.713 25.8 359.167 25.9867 359.54 26.36C359.913 26.7067 360.1 27.1467 360.1 27.68C360.1 28.1867 359.913 28.6267 359.54 29C359.167 29.3733 358.713 29.56 358.18 29.56H334.26C333.567 30.7067 332.833 31.8267 332.06 32.92C331.313 34.0133 330.593 34.96 329.9 35.76C329.42 36.2933 328.847 36.6533 328.18 36.84C327.54 37 326.927 36.84 326.34 36.36ZM336.74 35.4C336.233 35.4 335.78 35.2133 335.38 34.84C335.007 34.4667 334.82 34.0133 334.82 33.48C334.82 32.9467 335.007 32.4933 335.38 32.12C335.78 31.7467 336.233 31.56 336.74 31.56H354.22C354.753 31.56 355.207 31.7467 355.58 32.12C355.953 32.4933 356.14 32.9467 356.14 33.48C356.14 34.0133 355.953 34.4667 355.58 34.84C355.207 35.2133 354.753 35.4 354.22 35.4H336.74ZM397.5 57.8C393.927 58.3067 390.913 58.4933 388.46 58.36C386.007 58.2533 384.033 57.8933 382.54 57.28C381.073 56.6667 380.007 55.8533 379.34 54.84C378.673 53.8 378.34 52.6267 378.34 51.32C378.34 49.32 379.14 47.4533 380.74 45.72C382.367 43.9867 384.713 42.4667 387.78 41.16C387.353 40.6267 386.833 40.2667 386.22 40.08C384.887 39.68 383.567 39.8267 382.26 40.52C380.98 41.2133 379.727 42.2267 378.5 43.56C378.047 44.04 377.447 44.3067 376.7 44.36C375.98 44.3867 375.393 44.16 374.94 43.68C374.513 43.1733 374.313 42.5867 374.34 41.92C374.393 41.2533 374.673 40.7067 375.18 40.28C376.487 39.16 377.633 37.9467 378.62 36.64C379.633 35.3333 380.487 33.9867 381.18 32.6C380.033 32.6267 378.953 32.6533 377.94 32.68C376.953 32.68 376.1 32.6667 375.38 32.64C374.713 32.64 374.153 32.4133 373.7 31.96C373.247 31.48 373.02 30.9067 373.02 30.24C373.047 29.5733 373.3 29.0267 373.78 28.6C374.26 28.1733 374.833 27.9733 375.5 28C376.433 28.0267 377.553 28.04 378.86 28.04C380.193 28.0133 381.58 27.9867 383.02 27.96C383.153 27.4533 383.273 26.96 383.38 26.48C383.487 26 383.58 25.52 383.66 25.04C383.767 24.3733 384.06 23.84 384.54 23.44C385.02 23.0133 385.593 22.84 386.26 22.92C386.927 23 387.46 23.2933 387.86 23.8C388.26 24.3067 388.42 24.8933 388.34 25.56C388.313 25.9067 388.26 26.2667 388.18 26.64C388.1 27.0133 388.007 27.3867 387.9 27.76C388.913 27.7067 389.86 27.6533 390.74 27.6C391.62 27.52 392.407 27.4267 393.1 27.32C393.767 27.24 394.353 27.4 394.86 27.8C395.393 28.1733 395.7 28.6933 395.78 29.36C395.86 30.0267 395.687 30.6133 395.26 31.12C394.86 31.6267 394.34 31.9067 393.7 31.96C392.713 32.0667 391.58 32.16 390.3 32.24C389.02 32.32 387.687 32.3867 386.3 32.44C385.713 33.7467 385.073 34.9733 384.38 36.12C385.02 35.9867 385.633 35.9467 386.22 36C386.807 36.0267 387.367 36.12 387.9 36.28C388.7 36.4933 389.473 36.8667 390.22 37.4C390.993 37.9067 391.673 38.6267 392.26 39.56C393.567 39.1867 394.953 38.84 396.42 38.52C397.913 38.2 399.487 37.92 401.14 37.68C401.78 37.5733 402.367 37.72 402.9 38.12C403.433 38.4933 403.74 39.0133 403.82 39.68C403.927 40.3467 403.78 40.9333 403.38 41.44C402.98 41.9467 402.447 42.2533 401.78 42.36C400.233 42.5467 398.807 42.7733 397.5 43.04C396.193 43.28 394.98 43.5467 393.86 43.84C393.993 44.56 394.1 45.3467 394.18 46.2C394.26 47.0533 394.3 47.9733 394.3 48.96C394.3 49.6267 394.06 50.2 393.58 50.68C393.127 51.1333 392.567 51.36 391.9 51.36C391.233 51.36 390.673 51.1333 390.22 50.68C389.767 50.2 389.54 49.6267 389.54 48.96C389.54 47.6 389.46 46.3867 389.3 45.32C387.113 46.2267 385.527 47.2 384.54 48.24C383.58 49.2533 383.1 50.24 383.1 51.2C383.1 51.92 383.527 52.5067 384.38 52.96C385.233 53.4133 386.66 53.6667 388.66 53.72C390.66 53.7733 393.393 53.5733 396.86 53.12C397.5 53.04 398.087 53.2 398.62 53.6C399.153 53.9733 399.46 54.4933 399.54 55.16C399.62 55.8 399.46 56.3733 399.06 56.88C398.66 57.3867 398.14 57.6933 397.5 57.8ZM428.74 59.24C428.073 59.4267 427.433 59.3867 426.82 59.12C426.207 58.8533 425.82 58.3867 425.66 57.72C425.473 57.08 425.527 56.5067 425.82 56C426.14 55.52 426.647 55.1867 427.34 55C428.46 54.7067 429.487 54.3333 430.42 53.88C431.353 53.4 432.193 52.8267 432.94 52.16C432.353 51.6267 431.78 51.08 431.22 50.52C430.66 49.9333 430.127 49.3067 429.62 48.64C429.3 48.1867 429.18 47.6667 429.26 47.08C429.34 46.4667 429.633 46 430.14 45.68C430.593 45.36 431.113 45.24 431.7 45.32C432.287 45.4 432.753 45.6667 433.1 46.12C433.447 46.5467 433.807 46.96 434.18 47.36C434.58 47.76 434.993 48.1467 435.42 48.52C435.82 47.5333 436.1 46.3867 436.26 45.08H433.98C432.273 45.08 430.927 44.9067 429.94 44.56C428.953 44.1867 428.247 43.5733 427.82 42.72C427.42 41.84 427.22 40.6533 427.22 39.16C427.22 37.64 427.42 36.4533 427.82 35.6C428.247 34.72 428.953 34.1067 429.94 33.76C430.927 33.3867 432.273 33.2 433.98 33.2H436.38V30.68H428.02C427.46 30.68 426.967 30.48 426.54 30.08C426.14 29.6533 425.94 29.16 425.94 28.6C425.94 28.0133 426.14 27.52 426.54 27.12C426.967 26.72 427.46 26.52 428.02 26.52H436.38V24.36C436.38 23.6667 436.607 23.12 437.06 22.72C437.513 22.2933 438.06 22.08 438.7 22.08C439.34 22.08 439.887 22.2933 440.34 22.72C440.793 23.12 441.02 23.6667 441.02 24.36V26.52H449.94C450.527 26.52 451.02 26.72 451.42 27.12C451.82 27.52 452.02 28.0133 452.02 28.6C452.02 29.16 451.82 29.6533 451.42 30.08C451.02 30.48 450.527 30.68 449.94 30.68H441.02V33.2H443.58C445.287 33.2 446.62 33.3867 447.58 33.76C448.567 34.1067 449.26 34.72 449.66 35.6C450.06 36.4533 450.26 37.64 450.26 39.16C450.26 40.6533 450.06 41.84 449.66 42.72C449.26 43.5733 448.567 44.1867 447.58 44.56C446.62 44.9067 445.287 45.08 443.58 45.08H440.86C440.62 47.3733 440.06 49.4 439.18 51.16C440.753 52.0667 442.46 52.8 444.3 53.36C446.14 53.92 448.087 54.3333 450.14 54.6C450.887 54.7067 451.42 55.0267 451.74 55.56C452.087 56.0933 452.18 56.72 452.02 57.44C451.833 58.16 451.407 58.6267 450.74 58.84C450.1 59.08 449.393 59.1467 448.62 59.04C446.433 58.6667 444.313 58.1333 442.26 57.44C440.233 56.7467 438.327 55.8667 436.54 54.8C434.593 56.8 431.993 58.28 428.74 59.24ZM422.18 59.64C421.54 59.64 420.993 59.4267 420.54 59C420.113 58.6 419.9 58.0667 419.9 57.4V39.8C419.687 40.1733 419.46 40.5467 419.22 40.92C418.98 41.2667 418.753 41.6 418.54 41.92C418.193 42.48 417.7 42.8267 417.06 42.96C416.42 43.0933 415.82 42.9867 415.26 42.64C414.673 42.32 414.327 41.84 414.22 41.2C414.113 40.56 414.233 39.9867 414.58 39.48C415.273 38.4933 415.98 37.3333 416.7 36C417.42 34.6667 418.1 33.28 418.74 31.84C419.407 30.4 419.993 29 420.5 27.64C421.033 26.2533 421.447 25.0267 421.74 23.96C421.953 23.2667 422.34 22.7867 422.9 22.52C423.46 22.2267 424.073 22.1733 424.74 22.36C425.353 22.52 425.807 22.88 426.1 23.44C426.393 23.9733 426.447 24.5467 426.26 25.16C426.02 25.96 425.753 26.8 425.46 27.68C425.167 28.5333 424.833 29.4133 424.46 30.32V57.4C424.46 58.0667 424.233 58.6 423.78 59C423.327 59.4267 422.793 59.64 422.18 59.64ZM441.02 41H443.74C444.54 41 445.073 40.88 445.34 40.64C445.607 40.3733 445.74 39.88 445.74 39.16C445.74 38.4133 445.607 37.92 445.34 37.68C445.073 37.4133 444.54 37.28 443.74 37.28H441.02V41ZM433.74 41H436.38V37.28H433.74C432.967 37.28 432.433 37.4133 432.14 37.68C431.873 37.92 431.74 38.4133 431.74 39.16C431.74 39.88 431.873 40.3733 432.14 40.64C432.433 40.88 432.967 41 433.74 41ZM479.82 58.8C479.313 59.2267 478.713 59.4267 478.02 59.4C477.353 59.4 476.793 59.1467 476.34 58.64C475.913 58.1333 475.7 57.5467 475.7 56.88C475.727 56.2133 475.993 55.6667 476.5 55.24C478.633 53.3733 480.247 51.3467 481.34 49.16C482.46 46.9733 483.02 44.5333 483.02 41.84C483.02 40.0533 482.54 38.7467 481.58 37.92C480.647 37.0933 479.407 36.68 477.86 36.68C476.713 36.68 475.54 36.96 474.34 37.52C473.167 38.0533 472.033 38.8267 470.94 39.84C470.433 40.2667 469.847 40.4667 469.18 40.44C468.54 40.3867 467.993 40.1067 467.54 39.6C467.113 39.0933 466.927 38.52 466.98 37.88C467.033 37.2133 467.3 36.6667 467.78 36.24C469.327 34.8267 470.967 33.8 472.7 33.16C474.433 32.4933 476.153 32.16 477.86 32.16C479.753 32.16 481.447 32.52 482.94 33.24C484.433 33.9333 485.607 35 486.46 36.44C487.34 37.8533 487.78 39.6533 487.78 41.84C487.78 45.2267 487.073 48.3733 485.66 51.28C484.247 54.1867 482.3 56.6933 479.82 58.8ZM482.78 30.68C481.607 30.36 480.38 30 479.1 29.6C477.82 29.1733 476.58 28.72 475.38 28.24C474.18 27.76 473.127 27.3067 472.22 26.88C471.633 26.5867 471.233 26.1333 471.02 25.52C470.807 24.88 470.847 24.2667 471.14 23.68C471.433 23.0667 471.9 22.6667 472.54 22.48C473.207 22.2933 473.833 22.3467 474.42 22.64C475.753 23.2267 477.273 23.84 478.98 24.48C480.687 25.0933 482.353 25.6133 483.98 26.04C484.62 26.2 485.1 26.5733 485.42 27.16C485.767 27.72 485.86 28.32 485.7 28.96C485.54 29.6 485.167 30.0933 484.58 30.44C484.02 30.76 483.42 30.84 482.78 30.68ZM532.86 59.12C532.193 59.12 531.633 58.96 531.18 58.64C530.753 58.3467 530.5 57.8667 530.42 57.2C530.367 56.5867 530.527 56.0533 530.9 55.6C531.3 55.1467 531.793 54.9067 532.38 54.88C533.26 54.8267 533.86 54.7067 534.18 54.52C534.527 54.3333 534.793 53.92 534.98 53.28C535.14 52.7733 535.3 52.1333 535.46 51.36C535.62 50.5867 535.753 49.7867 535.86 48.96C535.967 48.2667 535.94 47.76 535.78 47.44C535.62 47.12 535.3 46.9067 534.82 46.8C534.207 48.2933 533.393 49.7867 532.38 51.28C531.393 52.7733 530.287 54.1733 529.06 55.48C527.86 56.76 526.62 57.8533 525.34 58.76C524.887 59.08 524.367 59.24 523.78 59.24C523.193 59.24 522.713 59.0267 522.34 58.6C521.993 58.2267 521.82 57.7867 521.82 57.28C521.847 56.7733 522.06 56.3733 522.46 56.08C524.273 54.6933 525.9 53.2 527.34 51.6C528.78 50 529.94 48.3733 530.82 46.72H529.02C528.273 48.08 527.313 49.4267 526.14 50.76C524.967 52.0667 523.7 53.28 522.34 54.4C520.98 55.52 519.633 56.4267 518.3 57.12C517.793 57.3867 517.26 57.4533 516.7 57.32C516.167 57.2133 515.753 56.9067 515.46 56.4C515.22 55.9733 515.167 55.52 515.3 55.04C515.433 54.5333 515.713 54.16 516.14 53.92C517.793 53.0667 519.407 51.9867 520.98 50.68C522.553 49.3733 523.847 48.0533 524.86 46.72H522.7C521.927 47.6 521.1 48.44 520.22 49.24C519.367 50.0133 518.5 50.7333 517.62 51.4C517.167 51.72 516.647 51.8667 516.06 51.84C515.473 51.8133 515.007 51.5867 514.66 51.16C514.367 50.76 514.233 50.3067 514.26 49.8C514.313 49.2667 514.553 48.8667 514.98 48.6C515.46 48.2533 515.94 47.88 516.42 47.48C516.927 47.0533 517.42 46.6267 517.9 46.2C517.82 46.2533 517.74 46.3067 517.66 46.36C517.58 46.4133 517.487 46.4667 517.38 46.52C516.553 46.8933 515.54 47.3333 514.34 47.84C513.14 48.32 511.927 48.7867 510.7 49.24C509.473 49.6933 508.42 50.0667 507.54 50.36C506.873 50.6 506.26 50.56 505.7 50.24C505.167 49.92 504.807 49.4667 504.62 48.88C504.433 48.2667 504.473 47.7067 504.74 47.2C505.007 46.6667 505.473 46.3067 506.14 46.12C507.073 45.88 508.153 45.5733 509.38 45.2V35.08H506.46C505.82 35.08 505.313 34.88 504.94 34.48C504.567 34.08 504.38 33.6 504.38 33.04C504.38 32.4533 504.567 31.96 504.94 31.56C505.313 31.16 505.82 30.96 506.46 30.96H509.38V24.8C509.38 24.1067 509.593 23.5733 510.02 23.2C510.447 22.8 510.98 22.6 511.62 22.6C512.26 22.6 512.793 22.8 513.22 23.2C513.647 23.5733 513.86 24.1067 513.86 24.8V30.96H516.5C517.113 30.96 517.607 31.16 517.98 31.56C518.353 31.96 518.54 32.4533 518.54 33.04C518.54 33.6 518.353 34.08 517.98 34.48C517.607 34.88 517.113 35.08 516.5 35.08H513.86V43.68C514.26 43.52 514.647 43.3733 515.02 43.24C515.393 43.08 515.753 42.9333 516.1 42.8C516.607 42.5867 517.1 42.5867 517.58 42.8C518.087 43.0133 518.42 43.3733 518.58 43.88C518.82 44.68 518.727 45.3333 518.3 45.84C519.74 44.4533 520.98 43.0667 522.02 41.68H518.46C517.953 41.68 517.54 41.5067 517.22 41.16C516.927 40.7867 516.78 40.36 516.78 39.88C516.78 39.4 516.927 38.9867 517.22 38.64C517.54 38.2667 517.953 38.08 518.46 38.08H540.14C540.673 38.08 541.087 38.2667 541.38 38.64C541.7 38.9867 541.86 39.4 541.86 39.88C541.86 40.36 541.7 40.7867 541.38 41.16C541.087 41.5067 540.673 41.68 540.14 41.68H526.3C526.14 41.9467 525.98 42.2267 525.82 42.52C525.66 42.7867 525.487 43.0667 525.3 43.36H534.94C536.833 43.36 538.22 43.7733 539.1 44.6C539.98 45.4267 540.313 46.8133 540.1 48.76C539.913 51 539.58 53.0267 539.1 54.84C538.727 56.3333 538.033 57.4133 537.02 58.08C536.033 58.7733 534.647 59.12 532.86 59.12ZM527.38 36.68C525.593 36.68 524.193 36.4933 523.18 36.12C522.167 35.72 521.447 35.04 521.02 34.08C520.62 33.0933 520.42 31.72 520.42 29.96C520.42 28.1733 520.62 26.8 521.02 25.84C521.447 24.88 522.167 24.2133 523.18 23.84C524.193 23.44 525.593 23.24 527.38 23.24H530.78C532.567 23.24 533.967 23.44 534.98 23.84C535.993 24.2133 536.713 24.88 537.14 25.84C537.567 26.8 537.78 28.1733 537.78 29.96C537.78 31.72 537.567 33.0933 537.14 34.08C536.713 35.04 535.993 35.72 534.98 36.12C533.967 36.4933 532.567 36.68 530.78 36.68H527.38ZM527.86 33.24H530.38C531.447 33.24 532.193 33.1333 532.62 32.92C533.047 32.7067 533.3 32.2 533.38 31.4H524.82C524.9 32.2 525.153 32.7067 525.58 32.92C526.033 33.1333 526.793 33.24 527.86 33.24ZM524.82 28.4H533.38C533.273 27.6267 533.007 27.1467 532.58 26.96C532.153 26.7467 531.42 26.64 530.38 26.64H527.86C526.793 26.64 526.047 26.7467 525.62 26.96C525.193 27.1467 524.927 27.6267 524.82 28.4ZM579.54 59.6C578.9 59.6 578.353 59.3867 577.9 58.96C577.447 58.5333 577.22 57.9733 577.22 57.28V39.2H573.7C573.513 43.2267 572.74 46.8 571.38 49.92C570.047 53.0133 568.14 55.6267 565.66 57.76C565.1 58.24 564.46 58.52 563.74 58.6C563.047 58.7067 562.42 58.5067 561.86 58C561.353 57.4933 561.1 56.9067 561.1 56.24C561.127 55.6 561.433 55.0267 562.02 54.52C563.647 53.1067 564.967 51.5867 565.98 49.96C567.02 48.3067 567.78 46.4533 568.26 44.4C568.74 42.32 568.98 39.9333 568.98 37.24V32.08C568.98 30.4267 569.153 29.1067 569.5 28.12C569.873 27.1067 570.487 26.32 571.34 25.76C572.22 25.2 573.407 24.7733 574.9 24.48C576.073 24.2667 577.367 23.9867 578.78 23.64C580.193 23.2667 581.553 22.8933 582.86 22.52C583.553 22.3067 584.18 22.3333 584.74 22.6C585.327 22.8667 585.713 23.2667 585.9 23.8C586.14 24.44 586.14 25.0533 585.9 25.64C585.66 26.2 585.193 26.5867 584.5 26.8C583.22 27.1467 581.887 27.4933 580.5 27.84C579.113 28.16 577.833 28.4267 576.66 28.64C575.86 28.8 575.247 29 574.82 29.24C574.393 29.4533 574.1 29.7867 573.94 30.24C573.807 30.6667 573.74 31.3067 573.74 32.16V34.76H584.54C585.233 34.76 585.767 34.9867 586.14 35.44C586.54 35.8667 586.74 36.3867 586.74 37C586.74 37.5867 586.54 38.1067 586.14 38.56C585.767 38.9867 585.233 39.2 584.54 39.2H581.86V57.28C581.86 57.9733 581.633 58.5333 581.18 58.96C580.727 59.3867 580.18 59.6 579.54 59.6ZM549.74 59.16C549.18 58.8933 548.807 58.4667 548.62 57.88C548.433 57.2933 548.487 56.7333 548.78 56.2C549.847 54.2267 550.66 52.1467 551.22 49.96C551.78 47.7733 552.06 45.3333 552.06 42.64V38.04C552.06 36.2533 552.26 34.8667 552.66 33.88C553.087 32.8933 553.82 32.2 554.86 31.8C555.927 31.4 557.407 31.2 559.3 31.2C561.22 31.2 562.7 31.4 563.74 31.8C564.78 32.2 565.5 32.8933 565.9 33.88C566.3 34.8667 566.5 36.2533 566.5 38.04C566.5 39.8267 566.287 41.2133 565.86 42.2C565.46 43.16 564.74 43.84 563.7 44.24C562.66 44.6133 561.18 44.8 559.26 44.8H556.58C556.447 47.5467 556.073 49.9867 555.46 52.12C554.847 54.2267 554.047 56.2 553.06 58.04C552.74 58.6267 552.26 59.0267 551.62 59.24C550.98 59.4533 550.353 59.4267 549.74 59.16ZM551.9 28.44C551.287 28.44 550.793 28.24 550.42 27.84C550.047 27.44 549.86 26.96 549.86 26.4C549.86 25.8133 550.047 25.3333 550.42 24.96C550.793 24.56 551.287 24.36 551.9 24.36H565.74C566.353 24.36 566.847 24.56 567.22 24.96C567.593 25.3333 567.78 25.8133 567.78 26.4C567.78 26.96 567.593 27.44 567.22 27.84C566.847 28.24 566.353 28.44 565.74 28.44H551.9ZM556.62 40.68H559.3C560.42 40.68 561.14 40.5333 561.46 40.24C561.807 39.92 561.98 39.1867 561.98 38.04C561.98 36.8933 561.807 36.1733 561.46 35.88C561.14 35.56 560.42 35.4 559.3 35.4C558.18 35.4 557.447 35.5467 557.1 35.84C556.78 36.1333 556.62 36.8533 556.62 38V40.68Z" fill="#007440"/>
</svg>
