<svg width="460" height="116" viewBox="0 0 460 116" fill="none" xmlns="http://www.w3.org/2000/svg">
<g clip-path="url(#clip0_127_5720)">
<g clip-path="url(#clip1_127_5720)">
<g clip-path="url(#clip2_127_5720)">
<path d="M384.768 39.0538C388.541 39.1131 391.623 37.9353 391.651 36.4232C391.679 34.9111 388.643 33.6372 384.87 33.5778C381.096 33.5185 378.014 34.6963 377.986 36.2084C377.958 37.7206 380.994 38.9945 384.768 39.0538Z" fill="black"/>
<path d="M385.222 14.6749C385.222 14.6749 382.82 36.4201 382.817 36.5642C382.805 37.2169 383.69 37.7565 384.791 37.7738C385.893 37.7911 386.797 37.2796 386.809 36.6269C386.812 36.4828 385.222 14.6749 385.222 14.6749Z" fill="#5E853A"/>
<g style="mix-blend-mode:multiply" opacity="0.2">
<path d="M384.792 37.7738C385.893 37.7911 386.797 37.2796 386.81 36.6269C386.812 36.4828 385.222 14.6749 385.222 14.6749" fill="black"/>
</g>
<path d="M384.889 32.5437C389.71 32.6195 393.692 28.6808 393.784 23.7465C393.876 18.8122 390.042 14.7507 385.221 14.6749C380.4 14.5991 376.418 18.5378 376.326 23.4721C376.234 28.4064 380.068 32.4679 384.889 32.5437Z" fill="#6EBA44"/>
<path d="M385.222 14.6749C390.042 14.7507 393.876 18.8131 393.784 23.7465C393.693 28.6799 389.709 32.6195 384.889 32.5437" fill="black"/>
</g>
<g clip-path="url(#clip3_127_5720)">
<path d="M400.157 42.0737C403.931 42.133 407.013 40.9552 407.041 39.4431C407.069 37.931 404.033 36.6571 400.259 36.5977C396.486 36.5384 393.404 37.7162 393.376 39.2283C393.348 40.7405 396.384 42.0144 400.157 42.0737Z" fill="black"/>
<path d="M400.611 17.6948C400.611 17.6948 398.21 39.44 398.207 39.5841C398.195 40.2368 399.08 40.7764 400.181 40.7937C401.283 40.811 402.187 40.2995 402.199 39.6468C402.202 39.5027 400.611 17.6948 400.611 17.6948Z" fill="#5E853A"/>
<g style="mix-blend-mode:multiply" opacity="0.2">
<path d="M400.181 40.7937C401.283 40.811 402.187 40.2995 402.199 39.6468C402.202 39.5027 400.611 17.6948 400.611 17.6948" fill="black"/>
</g>
<path d="M400.278 35.5636C405.099 35.6394 409.082 31.7007 409.174 26.7664C409.266 21.8321 405.432 17.7706 400.611 17.6948C395.79 17.619 391.807 21.5577 391.716 26.492C391.624 31.4263 395.457 35.4878 400.278 35.5636Z" fill="#6EBA44"/>
<path d="M400.611 17.6948C405.431 17.7706 409.266 21.833 409.174 26.7664C409.082 31.6998 405.099 35.6394 400.279 35.5636" fill="black"/>
</g>
<g clip-path="url(#clip4_127_5720)">
<path d="M416.642 44.8542C420.415 44.9135 423.497 43.7357 423.525 42.2236C423.553 40.7115 420.517 39.4376 416.744 39.3783C412.97 39.319 409.888 40.4967 409.86 42.0088C409.832 43.521 412.868 44.7949 416.642 44.8542Z" fill="black"/>
<path d="M417.096 20.4753C417.096 20.4753 414.694 42.2205 414.692 42.3646C414.679 43.0173 415.564 43.5569 416.665 43.5742C417.767 43.5915 418.671 43.08 418.683 42.4273C418.686 42.2832 417.096 20.4753 417.096 20.4753Z" fill="#5E853A"/>
<g style="mix-blend-mode:multiply" opacity="0.2">
<path d="M416.666 43.5742C417.767 43.5915 418.671 43.08 418.684 42.4273C418.686 42.2832 417.096 20.4753 417.096 20.4753" fill="black"/>
</g>
<path d="M416.763 38.3441C421.584 38.4199 425.566 34.4813 425.658 29.5469C425.75 24.6126 421.916 20.5511 417.095 20.4753C412.274 20.3996 408.292 24.3382 408.2 29.2725C408.108 34.2069 411.942 38.2684 416.763 38.3441Z" fill="#6EBA44"/>
<path d="M417.096 20.4753C421.916 20.5511 425.75 24.6135 425.658 29.5469C425.567 34.4803 421.583 38.4199 416.763 38.3441" fill="black"/>
</g>
<g clip-path="url(#clip5_127_5720)">
<path d="M319.289 28.7924C323.035 28.8513 326.089 28.0002 326.11 26.8914C326.13 25.7826 323.11 24.836 319.364 24.7771C315.617 24.7183 312.563 25.5694 312.543 26.6782C312.522 27.7869 315.542 28.7335 319.289 28.7924Z" fill="black"/>
<path d="M312.939 25.5882C313.007 21.9661 315.93 19.075 319.469 19.1306C323.008 19.1862 325.822 22.1675 325.754 25.7896C325.729 27.1447 322.84 28.1955 319.301 28.1399C315.762 28.0842 312.914 26.9349 312.939 25.5882Z" fill="#6EBA44"/>
<path d="M319.469 19.1306C323.008 19.1862 325.822 22.1675 325.754 25.7896C325.729 27.1447 322.84 28.1955 319.301 28.1399" fill="black"/>
</g>
<g clip-path="url(#clip6_127_5720)">
<path d="M335.15 31.0499C338.897 31.1087 341.95 30.2576 341.971 29.1488C341.992 28.0401 338.971 27.0935 335.225 27.0346C331.478 26.9757 328.425 27.8268 328.404 28.9356C328.383 30.0444 331.404 30.991 335.15 31.0499Z" fill="black"/>
<path d="M328.801 27.8456C328.868 24.2235 331.792 21.3324 335.33 21.3881C338.869 21.4437 341.683 24.4249 341.616 28.047C341.591 29.4022 338.702 30.4529 335.163 30.3973C331.624 30.3417 328.776 29.1924 328.801 27.8456Z" fill="#6EBA44"/>
<path d="M335.33 21.3881C338.869 21.4437 341.683 24.4249 341.616 28.047C341.59 29.4022 338.701 30.4529 335.162 30.3973" fill="black"/>
</g>
<g clip-path="url(#clip7_127_5720)">
<path d="M352.297 33.3722C356.043 33.4311 359.097 32.58 359.118 31.4712C359.138 30.3624 356.118 29.4159 352.371 29.357C348.625 29.2981 345.571 30.1492 345.551 31.258C345.53 32.3668 348.55 33.3134 352.297 33.3722Z" fill="black"/>
<path d="M345.947 30.168C346.015 26.5459 348.938 23.6548 352.477 23.7104C356.016 23.7661 358.83 26.7473 358.762 30.3694C358.737 31.7246 355.848 32.7753 352.309 32.7197C348.77 32.6641 345.922 31.5148 345.947 30.168Z" fill="#6EBA44"/>
<path d="M352.477 23.7104C356.015 23.7661 358.829 26.7473 358.762 30.3694C358.737 31.7246 355.848 32.7753 352.309 32.7197" fill="black"/>
</g>
<g clip-path="url(#clip8_127_5720)">
<path d="M409.622 51.5326C413.368 51.5915 416.422 50.7404 416.443 49.6316C416.463 48.5228 413.443 47.5763 409.697 47.5174C405.95 47.4585 402.896 48.3096 402.876 49.4184C402.855 50.5272 405.875 51.4738 409.622 51.5326Z" fill="black"/>
<path d="M403.272 48.3284C403.34 44.7063 406.263 41.8152 409.802 41.8709C413.341 41.9265 416.155 44.9077 416.088 48.5298C416.062 49.885 413.173 50.9357 409.634 50.8801C406.095 50.8245 403.247 49.6752 403.272 48.3284Z" fill="#6EBA44"/>
<path d="M409.802 41.8708C413.341 41.9265 416.155 44.9077 416.087 48.5298C416.062 49.885 413.173 50.9357 409.634 50.8801" fill="black"/>
</g>
<g clip-path="url(#clip9_127_5720)">
<path d="M400.94 57.0862C404.687 57.1451 407.74 56.294 407.761 55.1852C407.782 54.0764 404.761 53.1299 401.015 53.071C397.269 53.0121 394.215 53.8632 394.194 54.972C394.173 56.0808 397.194 57.0273 400.94 57.0862Z" fill="black"/>
<path d="M394.591 53.882C394.658 50.2599 397.582 47.3688 401.12 47.4244C404.659 47.4801 407.473 50.4613 407.406 54.0834C407.381 55.4386 404.492 56.4893 400.953 56.4337C397.414 56.3781 394.566 55.2288 394.591 53.882Z" fill="#6EBA44"/>
<path d="M401.12 47.4244C404.659 47.4801 407.473 50.4613 407.406 54.0834C407.38 55.4386 404.491 56.4893 400.952 56.4337" fill="black"/>
</g>
<g clip-path="url(#clip10_127_5720)">
<path d="M392.258 62.6397C396.004 62.6986 399.058 61.8475 399.078 60.7387C399.099 59.6299 396.079 58.6833 392.332 58.6244C388.586 58.5656 385.532 59.4167 385.511 60.5255C385.491 61.6342 388.511 62.5808 392.258 62.6397Z" fill="black"/>
<path d="M385.908 59.4355C385.976 55.8134 388.899 52.9223 392.438 52.9779C395.977 53.0335 398.791 56.0148 398.723 59.6369C398.698 60.992 395.809 62.0428 392.27 61.9871C388.731 61.9315 385.883 60.7822 385.908 59.4355Z" fill="#6EBA44"/>
<path d="M392.438 52.9779C395.976 53.0335 398.79 56.0148 398.723 59.6369C398.698 60.992 395.809 62.0428 392.27 61.9871" fill="black"/>
</g>
<g clip-path="url(#clip11_127_5720)">
<path d="M383.576 68.1932C387.322 68.252 390.376 67.4009 390.397 66.2922C390.417 65.1834 387.397 64.2368 383.651 64.1779C379.904 64.119 376.85 64.9701 376.83 66.0789C376.809 67.1877 379.83 68.1343 383.576 68.1932Z" fill="black"/>
<path d="M377.227 64.9889C377.294 61.3668 380.217 58.4758 383.756 58.5314C387.295 58.587 390.109 61.5682 390.042 65.1903C390.016 66.5455 387.127 67.5962 383.588 67.5406C380.05 67.485 377.201 66.3357 377.227 64.9889Z" fill="#6EBA44"/>
<path d="M383.756 58.5314C387.295 58.587 390.109 61.5682 390.041 65.1903C390.016 66.5455 387.127 67.5962 383.588 67.5406" fill="black"/>
</g>
<g clip-path="url(#clip12_127_5720)">
<path d="M374.894 73.7466C378.641 73.8055 381.695 72.9544 381.715 71.8456C381.736 70.7368 378.715 69.7903 374.969 69.7314C371.223 69.6725 368.169 70.5236 368.148 71.6324C368.128 72.7412 371.148 73.6877 374.894 73.7466Z" fill="black"/>
<path d="M368.545 70.5424C368.612 66.9203 371.536 64.0292 375.075 64.0848C378.613 64.1405 381.427 67.1217 381.36 70.7438C381.335 72.099 378.446 73.1497 374.907 73.0941C371.368 73.0385 368.52 71.8892 368.545 70.5424Z" fill="#6EBA44"/>
<path d="M375.074 64.0848C378.613 64.1405 381.427 67.1217 381.36 70.7438C381.334 72.099 378.445 73.1497 374.906 73.0941" fill="black"/>
</g>
<g clip-path="url(#clip13_127_5720)">
<path d="M366.212 79.3001C369.958 79.359 373.012 78.5079 373.033 77.3991C373.053 76.2903 370.033 75.3437 366.286 75.2848C362.54 75.226 359.486 76.0771 359.466 77.1859C359.445 78.2946 362.465 79.2412 366.212 79.3001Z" fill="black"/>
<path d="M359.862 76.0959C359.93 72.4738 362.853 69.5827 366.392 69.6383C369.931 69.6939 372.745 72.6752 372.677 76.2973C372.652 77.6524 369.763 78.7032 366.224 78.6475C362.685 78.5919 359.837 77.4426 359.862 76.0959Z" fill="#6EBA44"/>
<path d="M366.392 69.6383C369.93 69.6939 372.744 72.6752 372.677 76.2973C372.652 77.6524 369.763 78.7032 366.224 78.6475" fill="black"/>
</g>
<g clip-path="url(#clip14_127_5720)">
<path d="M357.53 84.8537C361.276 84.9126 364.33 84.0615 364.351 82.9527C364.372 81.8439 361.351 80.8973 357.605 80.8384C353.858 80.7795 350.805 81.6307 350.784 82.7394C350.763 83.8482 353.784 84.7948 357.53 84.8537Z" fill="black"/>
<path d="M351.181 81.6494C351.248 78.0273 354.171 75.1363 357.71 75.1919C361.249 75.2475 364.063 78.2288 363.996 81.8509C363.97 83.206 361.081 84.2568 357.543 84.2011C354.004 84.1455 351.156 82.9962 351.181 81.6494Z" fill="#6EBA44"/>
<path d="M357.71 75.1919C361.249 75.2475 364.063 78.2288 363.995 81.8509C363.97 83.206 361.081 84.2568 357.542 84.2011" fill="black"/>
</g>
<g clip-path="url(#clip15_127_5720)">
<path d="M347.565 90.2531C351.312 90.312 354.365 89.4609 354.386 88.3521C354.407 87.2433 351.386 86.2967 347.64 86.2378C343.894 86.179 340.84 87.0301 340.819 88.1389C340.798 89.2476 343.819 90.1942 347.565 90.2531Z" fill="black"/>
<path d="M341.216 87.0489C341.283 83.4268 344.207 80.5357 347.745 80.5913C351.284 80.6469 354.098 83.6282 354.031 87.2503C354.006 88.6054 351.117 89.6562 347.578 89.6005C344.039 89.5449 341.191 88.3956 341.216 87.0489Z" fill="#6EBA44"/>
<path d="M347.745 80.5913C351.284 80.6469 354.098 83.6282 354.031 87.2503C354.005 88.6054 351.116 89.6562 347.577 89.6005" fill="black"/>
</g>
<g clip-path="url(#clip16_127_5720)">
<path d="M337.599 95.6525C341.346 95.7114 344.4 94.8603 344.42 93.7515C344.441 92.6427 341.421 91.6961 337.674 91.6373C333.928 91.5784 330.874 92.4295 330.853 93.5383C330.833 94.6471 333.853 95.5936 337.599 95.6525Z" fill="black"/>
<path d="M331.25 92.4483C331.317 88.8262 334.241 85.9351 337.78 85.9907C341.318 86.0463 344.132 89.0276 344.065 92.6497C344.04 94.0048 341.151 95.0556 337.612 95C334.073 94.9443 331.225 93.7951 331.25 92.4483Z" fill="#6EBA44"/>
<path d="M337.779 85.9907C341.318 86.0463 344.132 89.0276 344.065 92.6497C344.04 94.0048 341.15 95.0556 337.612 95" fill="black"/>
</g>
<path d="M244.431 93.1701C241.217 94.8266 235.687 95.6211 232.157 94.9408L193.23 87.423C189.7 86.7427 189.442 84.8308 192.666 83.1745L218.595 69.8481C221.809 68.1916 227.327 67.4639 230.845 68.2221L268.193 76.2618C271.71 77.02 271.957 78.9986 268.743 80.6551L244.442 93.1815L244.431 93.1701Z" fill="#89CDB9"/>
<path d="M284.572 73.5626L228.545 61.2129L315.369 20.0926L371.985 28.926L284.572 73.5626Z" fill="#89CDB9"/>
<path d="M309.637 105.463C286.574 107.7 268.548 103.445 268.548 103.445L250.796 99.6407L378.608 30.2686L424.174 37.7458C424.174 37.7458 427.683 38.4034 428.96 40.0747C430.896 42.6265 426.415 45.6353 426.415 45.6353L350.374 92.4477C350.374 92.4477 332.701 103.215 309.637 105.452L309.637 105.463Z" fill="#89CDB9"/>
<g clip-path="url(#clip17_127_5720)">
<path opacity="0.3" d="M384.777 38.5296C388.551 38.5889 391.633 37.4112 391.661 35.899C391.689 34.3869 388.653 33.113 384.879 33.0537C381.106 32.9944 378.024 34.1721 377.996 35.6843C377.968 37.1964 381.004 38.4703 384.777 38.5296Z" fill="black"/>
<path d="M385.231 14.1508C385.231 14.1508 382.83 35.8959 382.827 36.04C382.815 36.6927 383.7 37.2323 384.801 37.2496C385.903 37.267 386.807 36.7555 386.819 36.1028C386.822 35.9587 385.231 14.1508 385.231 14.1508Z" fill="#9B7225"/>
<g style="mix-blend-mode:multiply" opacity="0.2">
<path d="M384.801 37.2496C385.903 37.267 386.807 36.7555 386.819 36.1028C386.822 35.9587 385.231 14.1508 385.231 14.1508" fill="black"/>
</g>
<path d="M384.898 32.0195C389.719 32.0953 393.702 28.1567 393.794 23.2223C393.886 18.288 390.052 14.2265 385.231 14.1507C380.41 14.075 376.427 18.0136 376.336 22.9479C376.244 27.8823 380.077 31.9438 384.898 32.0195Z" fill="#4B9E81"/>
<path opacity="0.3" d="M385.231 14.1508C390.051 14.2265 393.886 18.2889 393.794 23.2223C393.702 28.1558 389.719 32.0953 384.899 32.0195" fill="black"/>
</g>
<g clip-path="url(#clip18_127_5720)">
<path opacity="0.3" d="M400.168 41.5384C403.942 41.5977 407.023 40.4199 407.052 38.9078C407.08 37.3957 404.044 36.1218 400.27 36.0625C396.497 36.0032 393.415 37.1809 393.387 38.693C393.358 40.2052 396.395 41.4791 400.168 41.5384Z" fill="black"/>
<path d="M400.622 17.1595C400.622 17.1595 398.221 38.9047 398.218 39.0488C398.206 39.7015 399.09 40.2411 400.192 40.2584C401.293 40.2757 402.198 39.7642 402.21 39.1115C402.212 38.9674 400.622 17.1595 400.622 17.1595Z" fill="#9B7225"/>
<g style="mix-blend-mode:multiply" opacity="0.2">
<path d="M400.192 40.2584C401.294 40.2757 402.198 39.7643 402.21 39.1115C402.213 38.9674 400.622 17.1595 400.622 17.1595" fill="black"/>
</g>
<path d="M400.289 35.0283C405.11 35.1041 409.093 31.1655 409.184 26.2311C409.276 21.2968 405.443 17.2353 400.622 17.1595C395.801 17.0838 391.818 21.0224 391.726 25.9567C391.634 30.8911 395.468 34.9526 400.289 35.0283Z" fill="#4B9E81"/>
<path opacity="0.3" d="M400.622 17.1595C405.442 17.2353 409.277 21.2977 409.185 26.2311C409.093 31.1646 405.109 35.1041 400.289 35.0283" fill="black"/>
</g>
<g clip-path="url(#clip19_127_5720)">
<path opacity="0.3" d="M416.651 44.3188C420.425 44.3781 423.507 43.2003 423.535 41.6882C423.563 40.1761 420.527 38.9022 416.753 38.8429C412.98 38.7836 409.898 39.9613 409.87 41.4734C409.842 42.9856 412.878 44.2595 416.651 44.3188Z" fill="black"/>
<path d="M417.105 19.9399C417.105 19.9399 414.704 41.6851 414.701 41.8292C414.689 42.4819 415.574 43.0215 416.675 43.0388C417.777 43.0561 418.681 42.5446 418.693 41.8919C418.696 41.7478 417.105 19.9399 417.105 19.9399Z" fill="#9B7225"/>
<g style="mix-blend-mode:multiply" opacity="0.2">
<path d="M416.675 43.0388C417.777 43.0561 418.681 42.5446 418.693 41.8919C418.696 41.7478 417.105 19.9399 417.105 19.9399" fill="black"/>
</g>
<path d="M416.772 37.8087C421.593 37.8845 425.576 33.9459 425.668 29.0115C425.76 24.0772 421.926 20.0157 417.105 19.9399C412.284 19.8642 408.302 23.8028 408.21 28.7371C408.118 33.6715 411.951 37.7329 416.772 37.8087Z" fill="#4B9E81"/>
<path opacity="0.3" d="M417.105 19.9399C421.926 20.0157 425.76 24.0781 425.668 29.0115C425.576 33.9449 421.593 37.8845 416.773 37.8087" fill="black"/>
</g>
<g clip-path="url(#clip20_127_5720)">
<path opacity="0.3" d="M319.299 28.257C323.045 28.3159 326.099 27.4648 326.119 26.356C326.14 25.2472 323.12 24.3006 319.373 24.2417C315.627 24.1829 312.573 25.034 312.552 26.1428C312.532 27.2515 315.552 28.1981 319.299 28.257Z" fill="black"/>
<path d="M312.949 25.0528C313.017 21.4307 315.94 18.5396 319.479 18.5952C323.018 18.6508 325.832 21.6321 325.764 25.2542C325.739 26.6093 322.85 27.6601 319.311 27.6045C315.772 27.5488 312.924 26.3995 312.949 25.0528Z" fill="#4B9E81"/>
<path opacity="0.3" d="M319.479 18.5952C323.017 18.6508 325.831 21.6321 325.764 25.2542C325.739 26.6093 322.85 27.6601 319.311 27.6045" fill="black"/>
</g>
<g clip-path="url(#clip21_127_5720)">
<path opacity="0.3" d="M335.16 30.5145C338.906 30.5733 341.96 29.7222 341.981 28.6134C342.001 27.5047 338.981 26.5581 335.235 26.4992C331.488 26.4403 328.434 27.2914 328.414 28.4002C328.393 29.509 331.413 30.4556 335.16 30.5145Z" fill="black"/>
<path d="M328.811 27.3102C328.878 23.6881 331.801 20.797 335.34 20.8527C338.879 20.9083 341.693 23.8895 341.626 27.5116C341.6 28.8668 338.711 29.9175 335.172 29.8619C331.634 29.8063 328.785 28.657 328.811 27.3102Z" fill="#4B9E81"/>
<path opacity="0.3" d="M335.34 20.8527C338.879 20.9083 341.693 23.8895 341.625 27.5116C341.6 28.8668 338.711 29.9175 335.172 29.8619" fill="black"/>
</g>
<g clip-path="url(#clip22_127_5720)">
<path opacity="0.3" d="M352.307 32.8368C356.054 32.8957 359.108 32.0446 359.128 30.9358C359.149 29.827 356.129 28.8805 352.382 28.8216C348.636 28.7627 345.582 29.6138 345.561 30.7226C345.541 31.8314 348.561 32.778 352.307 32.8368Z" fill="black"/>
<path d="M345.958 29.6326C346.025 26.0105 348.949 23.1194 352.488 23.175C356.026 23.2307 358.84 26.2119 358.773 29.834C358.748 31.1892 355.859 32.2399 352.32 32.1843C348.781 32.1287 345.933 30.9794 345.958 29.6326Z" fill="#4B9E81"/>
<path opacity="0.3" d="M352.487 23.175C356.026 23.2307 358.84 26.2119 358.773 29.834C358.748 31.1892 355.858 32.2399 352.32 32.1843" fill="black"/>
</g>
<path d="M140.799 30.6588L112.324 24.4098L135.886 12.3738L164.35 18.6227L140.799 30.6588Z" fill="#F0F0F0"/>
<path d="M112.195 31.3361L140.671 37.5852L140.8 30.6589L112.324 24.4098L112.195 31.3361Z" fill="#C6C6C6"/>
<path d="M164.221 25.5602L140.67 37.5852L140.799 30.6589L164.35 18.6227L164.221 25.5602Z" fill="#B1B1B1"/>
<path d="M164.221 25.5601L140.67 37.5851L140.725 34.6406L164.276 22.6044L164.221 25.5601Z" fill="#B1B1B1"/>
<path d="M164.279 22.4372L140.728 34.4734L140.744 33.648L164.295 21.6119L164.279 22.4372Z" fill="black"/>
<path d="M112.253 28.2243L140.728 34.4734L140.744 33.648L112.269 27.3989L112.253 28.2243Z" fill="black"/>
<g style="mix-blend-mode:multiply">
<path d="M164.22 25.5601L140.67 37.5851L140.683 36.8713L164.234 24.8352L164.22 25.5601Z" fill="#B1B1B1"/>
</g>
<g style="mix-blend-mode:multiply">
<path d="M112.195 31.3361L140.67 37.5852L140.683 36.8714L112.208 30.6223L112.195 31.3361Z" fill="#B1B1B1"/>
</g>
<path d="M380.277 52.4744L341.826 43.9822L361.173 34.1002L399.624 42.5812L380.277 52.4744Z" fill="#F0F0F0"/>
<g style="mix-blend-mode:multiply" opacity="0.6">
<path d="M380.14 51.6244L343.849 43.6236L361.301 34.794L397.592 42.8059L380.14 51.6244Z" fill="#C4C4C4"/>
</g>
<g style="mix-blend-mode:multiply" opacity="0.5">
<path d="M380.14 51.6244L343.849 43.6236L361.301 34.794L397.592 42.8059L380.14 51.6244Z" fill="#C7D9F4"/>
</g>
<path d="M341.675 52.1244L380.126 60.6054L380.277 52.4745L341.826 43.9823L341.675 52.1244Z" fill="#C6C6C6"/>
<path d="M399.472 50.7233L380.126 60.6053L380.277 52.4744L399.624 42.5812L399.472 50.7233Z" fill="#B1B1B1"/>
<g style="mix-blend-mode:multiply">
<path d="M341.675 52.1243L380.126 60.6053L380.171 58.185L341.72 49.704L341.675 52.1243Z" fill="#C6C6C6"/>
</g>
<g style="mix-blend-mode:multiply">
<path d="M399.473 50.7232L380.126 60.6053L380.171 58.185L399.518 48.3029L399.473 50.7232Z" fill="#B1B1B1"/>
</g>
<g style="mix-blend-mode:multiply">
<path d="M399.565 45.7711L380.218 55.6531L380.225 55.2516L399.572 45.3696L399.565 45.7711Z" fill="#B1B1B1"/>
</g>
<g clip-path="url(#clip23_127_5720)">
<path opacity="0.3" d="M409.632 50.9974C413.378 51.0562 416.432 50.2051 416.452 49.0964C416.473 47.9876 413.453 47.041 409.706 46.9821C405.96 46.9232 402.906 47.7743 402.885 48.8831C402.865 49.9919 405.885 50.9385 409.632 50.9974Z" fill="black"/>
<path d="M403.282 47.7931C403.35 44.171 406.273 41.28 409.812 41.3356C413.351 41.3912 416.165 44.3724 416.097 47.9945C416.072 49.3497 413.183 50.4004 409.644 50.3448C406.105 50.2892 403.257 49.1399 403.282 47.7931Z" fill="#4B9E81"/>
<path opacity="0.3" d="M409.812 41.3356C413.35 41.3912 416.164 44.3724 416.097 47.9945C416.072 49.3497 413.183 50.4004 409.644 50.3448" fill="black"/>
</g>
<g clip-path="url(#clip24_127_5720)">
<path opacity="0.3" d="M400.95 56.5508C404.696 56.6097 407.75 55.7586 407.771 54.6498C407.791 53.541 404.771 52.5945 401.025 52.5356C397.278 52.4767 394.224 53.3278 394.204 54.4366C394.183 55.5454 397.204 56.4919 400.95 56.5508Z" fill="black"/>
<path d="M394.601 53.3466C394.668 49.7245 397.591 46.8334 401.13 46.889C404.669 46.9447 407.483 49.9259 407.416 53.548C407.39 54.9032 404.501 55.9539 400.962 55.8983C397.424 55.8427 394.575 54.6934 394.601 53.3466Z" fill="#4B9E81"/>
<path opacity="0.3" d="M401.13 46.889C404.669 46.9447 407.483 49.9259 407.415 53.548C407.39 54.9032 404.501 55.9539 400.962 55.8983" fill="black"/>
</g>
<g clip-path="url(#clip25_127_5720)">
<path opacity="0.3" d="M392.268 62.1043C396.015 62.1632 399.069 61.3121 399.089 60.2033C399.11 59.0945 396.089 58.1479 392.343 58.089C388.597 58.0302 385.543 58.8813 385.522 59.9901C385.502 61.0988 388.522 62.0454 392.268 62.1043Z" fill="black"/>
<path d="M385.919 58.9001C385.986 55.278 388.91 52.3869 392.449 52.4425C395.987 52.4981 398.801 55.4794 398.734 59.1015C398.709 60.4566 395.82 61.5074 392.281 61.4517C388.742 61.3961 385.894 60.2468 385.919 58.9001Z" fill="#4B9E81"/>
<path opacity="0.3" d="M392.448 52.4425C395.987 52.4981 398.801 55.4794 398.734 59.1015C398.708 60.4566 395.819 61.5074 392.281 61.4517" fill="black"/>
</g>
<g clip-path="url(#clip26_127_5720)">
<path opacity="0.3" d="M383.586 67.6578C387.332 67.7166 390.386 66.8655 390.407 65.7568C390.427 64.648 387.407 63.7014 383.66 63.6425C379.914 63.5836 376.86 64.4347 376.84 65.5435C376.819 66.6523 379.839 67.5989 383.586 67.6578Z" fill="black"/>
<path d="M377.236 64.4535C377.304 60.8314 380.227 57.9404 383.766 57.996C387.305 58.0516 390.119 61.0328 390.051 64.6549C390.026 66.0101 387.137 67.0608 383.598 67.0052C380.059 66.9496 377.211 65.8003 377.236 64.4535Z" fill="#4B9E81"/>
<path opacity="0.3" d="M383.766 57.996C387.304 58.0516 390.118 61.0328 390.051 64.6549C390.026 66.0101 387.137 67.0608 383.598 67.0052" fill="black"/>
</g>
<g clip-path="url(#clip27_127_5720)">
<path opacity="0.3" d="M374.904 73.2112C378.65 73.2701 381.704 72.419 381.725 71.3102C381.746 70.2014 378.725 69.2549 374.979 69.196C371.232 69.1371 368.179 69.9882 368.158 71.097C368.137 72.2058 371.158 73.1523 374.904 73.2112Z" fill="black"/>
<path d="M368.555 70.007C368.622 66.3849 371.545 63.4938 375.084 63.5494C378.623 63.6051 381.437 66.5863 381.37 70.2084C381.345 71.5636 378.455 72.6143 374.917 72.5587C371.378 72.5031 368.53 71.3538 368.555 70.007Z" fill="#4B9E81"/>
<path opacity="0.3" d="M375.084 63.5494C378.623 63.6051 381.437 66.5863 381.369 70.2084C381.344 71.5635 378.455 72.6143 374.916 72.5587" fill="black"/>
</g>
<g clip-path="url(#clip28_127_5720)">
<path opacity="0.3" d="M366.222 78.7648C369.969 78.8237 373.023 77.9726 373.043 76.8638C373.064 75.755 370.044 74.8084 366.297 74.7496C362.551 74.6907 359.497 75.5418 359.476 76.6506C359.456 77.7594 362.476 78.7059 366.222 78.7648Z" fill="black"/>
<path d="M359.873 75.5606C359.94 71.9385 362.864 69.0474 366.403 69.103C369.942 69.1586 372.756 72.1399 372.688 75.762C372.663 77.1171 369.774 78.1679 366.235 78.1123C362.696 78.0566 359.848 76.9074 359.873 75.5606Z" fill="#4B9E81"/>
<path opacity="0.3" d="M366.402 69.103C369.941 69.1586 372.755 72.1399 372.688 75.762C372.663 77.1171 369.773 78.1679 366.235 78.1123" fill="black"/>
</g>
<g clip-path="url(#clip29_127_5720)">
<path opacity="0.3" d="M357.54 84.3183C361.286 84.3772 364.34 83.5261 364.361 82.4173C364.381 81.3085 361.361 80.3619 357.615 80.303C353.868 80.2441 350.814 81.0953 350.794 82.204C350.773 83.3128 353.793 84.2594 357.54 84.3183Z" fill="black"/>
<path d="M351.19 81.114C351.258 77.4919 354.181 74.6009 357.72 74.6565C361.259 74.7121 364.073 77.6934 364.005 81.3155C363.98 82.6706 361.091 83.7214 357.552 83.6657C354.013 83.6101 351.165 82.4608 351.19 81.114Z" fill="#4B9E81"/>
<path opacity="0.3" d="M357.72 74.6565C361.259 74.7121 364.073 77.6934 364.005 81.3155C363.98 82.6706 361.091 83.7214 357.552 83.6657" fill="black"/>
</g>
<g clip-path="url(#clip30_127_5720)">
<path opacity="0.3" d="M347.575 89.7177C351.321 89.7766 354.375 88.9255 354.396 87.8167C354.416 86.7079 351.396 85.7613 347.65 85.7024C343.903 85.6436 340.849 86.4947 340.829 87.6035C340.808 88.7122 343.829 89.6588 347.575 89.7177Z" fill="black"/>
<path d="M341.226 86.5135C341.293 82.8914 344.216 80.0003 347.755 80.0559C351.294 80.1115 354.108 83.0928 354.041 86.7149C354.015 88.07 351.126 89.1208 347.587 89.0651C344.049 89.0095 341.2 87.8602 341.226 86.5135Z" fill="#4B9E81"/>
<path opacity="0.3" d="M347.755 80.0559C351.294 80.1115 354.108 83.0928 354.04 86.7149C354.015 88.07 351.126 89.1208 347.587 89.0651" fill="black"/>
</g>
<g clip-path="url(#clip31_127_5720)">
<path opacity="0.3" d="M337.609 95.1283C341.356 95.1872 344.409 94.3361 344.43 93.2273C344.451 92.1186 341.43 91.172 337.684 91.1131C333.937 91.0542 330.884 91.9053 330.863 93.0141C330.842 94.1229 333.863 95.0695 337.609 95.1283Z" fill="black"/>
<path d="M331.26 91.9241C331.327 88.302 334.251 85.4109 337.789 85.4666C341.328 85.5222 344.142 88.5034 344.075 92.1255C344.05 93.4807 341.161 94.5314 337.622 94.4758C334.083 94.4202 331.235 93.2709 331.26 91.9241Z" fill="#4B9E81"/>
<path opacity="0.3" d="M337.789 85.4666C341.328 85.5222 344.142 88.5034 344.075 92.1255C344.049 93.4807 341.16 94.5314 337.621 94.4758" fill="black"/>
</g>
<path d="M282.653 71.859L147.021 41.9358L210.112 9.71372L345.744 39.6258L282.653 71.859Z" fill="#C6C6C6"/>
<path d="M282.834 62.1108L230.595 50.5905L293.687 18.3573L345.925 29.8888L282.834 62.1108Z" fill="#F0F0F0"/>
<path d="M345.744 39.6258L282.652 71.859L282.834 62.1108L345.926 29.8888L345.744 39.6258Z" fill="#B1B1B1"/>
<g style="mix-blend-mode:multiply">
<path d="M345.869 32.9225L282.777 65.1557L282.801 63.8842L345.892 31.651L345.869 32.9225Z" fill="#B1B1B1"/>
</g>
<path d="M230.414 60.3386L282.652 71.859L282.834 62.1108L230.596 50.5905L230.414 60.3386Z" fill="#C6C6C6"/>
<path d="M199.44 43.7191L147.202 32.1987L210.294 -0.0344487L262.532 11.4859L199.44 43.7191Z" fill="#F0F0F0"/>
<path d="M262.351 21.234L199.259 53.4672L199.44 43.719L262.532 11.4858L262.351 21.234Z" fill="#B1B1B1"/>
<path d="M147.021 41.9357L199.259 53.4672L199.44 43.7191L147.202 32.1987L147.021 41.9357Z" fill="#C6C6C6"/>
<path d="M230.683 45.8837L293.775 13.6505L262.619 6.77915L199.527 39.0124L230.683 45.8837Z" fill="#F0F0F0"/>
<path d="M293.688 18.3573L230.596 50.5905L230.683 45.8837L293.775 13.6505L293.688 18.3573Z" fill="#B1B1B1"/>
<path d="M199.44 43.7191L230.596 50.5905L230.683 45.8837L199.527 39.0123L199.44 43.7191Z" fill="#C6C6C6"/>
<g style="mix-blend-mode:multiply">
<path d="M199.258 53.4673L230.414 60.3386L230.596 50.5905L199.439 43.7191L199.258 53.4673Z" fill="#8B8B8B"/>
</g>
<path d="M251.529 64.9881L261.696 59.3352L251.676 57.1249L251.529 64.9881Z" fill="#B1B1B1"/>
<path d="M168.124 46.5962L178.291 40.9322L168.271 38.733L168.124 46.5962Z" fill="#B1B1B1"/>
<g style="mix-blend-mode:multiply">
<path d="M168.124 46.5962L178.144 48.8066L178.291 40.9322L168.271 38.733L168.124 46.5962Z" fill="#6D6E71"/>
</g>
<g style="mix-blend-mode:multiply">
<path d="M251.529 64.9881L261.549 67.1984L261.696 59.3352L251.676 57.1249L251.529 64.9881Z" fill="#6D6E71"/>
</g>
<g style="mix-blend-mode:multiply">
<path d="M236.352 47.6351L232.379 49.6702L232.415 47.7072L236.388 45.6721L236.352 47.6351ZM271.229 61.3148L282.801 63.8842L282.777 65.1557L271.205 62.5863L271.229 61.3148ZM261.562 66.4847L282.677 71.1453L282.663 71.8592L261.549 67.1985L261.562 66.4847ZM230.428 59.6137L251.542 64.2743L251.529 64.9882L230.415 60.3275L230.428 59.6137ZM147.181 34.4856L158.753 37.055L158.729 38.3265L147.157 35.7571L147.181 34.4856ZM241.968 42.8256L237.995 44.8606L237.958 46.8236L241.931 44.7886L241.968 42.8256ZM247.536 39.99L243.563 42.0251L243.527 43.9881L247.5 41.9531L247.536 39.99ZM253.116 37.1435L249.143 39.1785L249.106 41.1416L253.079 39.1065L253.116 37.1435ZM258.684 34.308L254.711 36.343L254.675 38.306L258.648 36.271L258.684 34.308ZM264.253 31.4613L260.28 33.4963L260.243 35.4593L264.216 33.4243L264.253 31.4613ZM269.832 28.6259L265.859 30.6609L265.822 32.6239L269.795 30.5889L269.832 28.6259ZM275.4 25.7792L271.428 27.8142L271.391 29.7772L275.364 27.7422L275.4 25.7792ZM280.98 22.9438L277.007 24.9788L276.97 26.9418L280.943 24.9068L280.98 22.9438ZM286.548 20.0971L282.575 22.1321L282.539 24.0951L286.512 22.0601L286.548 20.0971ZM292.117 17.2615L288.144 19.2966L288.107 21.2596L292.08 19.2246L292.117 17.2615Z" fill="#B1B1B1"/>
</g>
<g style="mix-blend-mode:multiply">
<path d="M345.744 39.6258L282.653 71.859L282.666 71.134L345.758 38.912L345.744 39.6258Z" fill="#B1B1B1"/>
</g>
<g opacity="0.7">
<path d="M285.76 33.1715L278.041 31.4994L285.742 27.6932L293.461 29.3654L285.76 33.1715ZM302.211 31.2545L294.492 29.5824L286.791 33.3885L294.51 35.0606L302.211 31.2545ZM310.973 33.155L303.253 31.4829L295.552 35.289L303.271 36.9611L310.973 33.155ZM284.715 33.6794L276.996 32.0073L261.858 39.4787L269.577 41.1508L284.715 33.6794ZM293.476 35.5799L285.757 33.9078L270.619 41.3792L278.338 43.0513L293.476 35.5799ZM302.226 37.4691L294.507 35.7969L279.369 43.2683L287.088 44.9404L302.226 37.4691ZM268.542 41.6701L260.823 39.998L253.122 43.8041L260.841 45.4762L268.542 41.6701ZM277.293 43.5592L269.574 41.8871L261.873 45.6933L269.592 47.3654L277.293 43.5592ZM286.054 45.4597L278.335 43.7876L270.634 47.5937L278.353 49.2659L286.054 45.4597Z" fill="#064055"/>
<g opacity="0.2">
<path d="M285.76 33.1715L278.041 31.4994L285.742 27.6932L293.461 29.3654L285.76 33.1715ZM302.211 31.2545L294.492 29.5824L286.791 33.3885L294.51 35.0606L302.211 31.2545ZM310.973 33.155L303.253 31.4829L295.552 35.289L303.271 36.9611L310.973 33.155ZM284.715 33.6794L276.996 32.0073L261.858 39.4787L269.577 41.1508L284.715 33.6794ZM293.476 35.5799L285.757 33.9078L270.619 41.3792L278.338 43.0513L293.476 35.5799ZM302.226 37.4691L294.507 35.7969L279.369 43.2683L287.088 44.9404L302.226 37.4691ZM268.542 41.6701L260.823 39.998L253.122 43.8041L260.841 45.4762L268.542 41.6701ZM277.293 43.5592L269.574 41.8871L261.873 45.6933L269.592 47.3654L277.293 43.5592ZM286.054 45.4597L278.335 43.7876L270.634 47.5937L278.353 49.2659L286.054 45.4597Z" fill="url(#paint0_linear_127_5720)"/>
</g>
</g>
<g opacity="0.7">
<path d="M216.232 17.6196L208.513 15.9475L216.214 12.1413L223.933 13.8134L216.232 17.6196ZM232.694 15.7139L224.975 14.0418L217.274 17.8479L224.993 19.52L232.694 15.7139ZM241.445 17.6142L233.726 15.9421L226.025 19.7482L233.744 21.4203L241.445 17.6142ZM215.198 18.1388L207.479 16.4667L192.341 23.9381L200.06 25.6102L215.198 18.1388ZM223.948 20.028L216.229 18.3559L201.091 25.8273L208.81 27.4994L223.948 20.028ZM232.71 21.9285L224.991 20.2563L209.853 27.7277L217.572 29.3998L232.71 21.9285ZM199.026 26.1183L191.307 24.4462L183.606 28.2524L191.325 29.9245L199.026 26.1183ZM207.776 28.0186L200.057 26.3465L192.356 30.1527L200.075 31.8248L207.776 28.0186ZM216.526 29.9189L208.807 28.2468L201.106 32.053L208.825 33.7251L216.526 29.9189Z" fill="#064055"/>
<g opacity="0.2">
<path d="M216.232 17.6196L208.513 15.9475L216.214 12.1413L223.933 13.8134L216.232 17.6196ZM232.694 15.7139L224.975 14.0418L217.274 17.8479L224.993 19.52L232.694 15.7139ZM241.445 17.6142L233.726 15.9421L226.025 19.7482L233.744 21.4203L241.445 17.6142ZM215.198 18.1388L207.479 16.4667L192.341 23.9381L200.06 25.6102L215.198 18.1388ZM223.948 20.028L216.229 18.3559L201.091 25.8273L208.81 27.4994L223.948 20.028ZM232.71 21.9285L224.991 20.2563L209.853 27.7277L217.572 29.3998L232.71 21.9285ZM199.026 26.1183L191.307 24.4462L183.606 28.2524L191.325 29.9245L199.026 26.1183ZM207.776 28.0186L200.057 26.3465L192.356 30.1527L200.075 31.8248L207.776 28.0186ZM216.526 29.9189L208.807 28.2468L201.106 32.053L208.825 33.7251L216.526 29.9189Z" fill="url(#paint1_linear_127_5720)"/>
</g>
</g>
<g opacity="0.7">
<path d="M253.746 22.036L246.027 20.3639L253.728 16.5578L261.447 18.2299L253.746 22.036ZM270.208 20.1303L262.489 18.4582L254.788 22.2644L262.507 23.9365L270.208 20.1303ZM252.712 22.5553L244.993 20.8832L229.855 28.3546L237.574 30.0267L252.712 22.5553ZM261.462 24.4556L253.743 22.7835L238.605 30.2548L246.324 31.927L261.462 24.4556ZM236.529 30.5458L228.809 28.8736L221.108 32.6798L228.827 34.3519L236.529 30.5458ZM245.29 32.4351L237.571 30.763L229.87 34.5691L237.589 36.2412L245.29 32.4351Z" fill="#064055"/>
<g opacity="0.2">
<path d="M253.746 22.036L246.027 20.3639L253.728 16.5578L261.447 18.2299L253.746 22.036ZM270.208 20.1303L262.489 18.4582L254.788 22.2644L262.507 23.9365L270.208 20.1303ZM252.712 22.5553L244.993 20.8832L229.855 28.3546L237.574 30.0267L252.712 22.5553ZM261.462 24.4556L253.743 22.7835L238.605 30.2548L246.324 31.927L261.462 24.4556ZM236.529 30.5458L228.809 28.8736L221.108 32.6798L228.827 34.3519L236.529 30.5458ZM245.29 32.4351L237.571 30.763L229.87 34.5691L237.589 36.2412L245.29 32.4351Z" fill="url(#paint2_linear_127_5720)"/>
</g>
</g>
<path d="M102.139 60.9109L40.4228 47.356L71.3139 31.575L133.03 45.1187L102.139 60.9109Z" fill="#F0F0F0"/>
<path d="M40.2661 55.7768L101.982 69.3317L102.139 60.9108L40.4229 47.356L40.2661 55.7768Z" fill="#C6C6C6"/>
<path d="M40.4223 47.4117L94.4423 59.239L94.5991 50.8181L40.5791 38.9908L40.4223 47.4117Z" fill="#C6C6C6"/>
<path d="M132.874 53.5395L101.983 69.3317L102.139 60.9108L133.031 45.1186L132.874 53.5395Z" fill="#B1B1B1"/>
<path d="M94.5991 50.8182L40.5791 38.9909L71.4702 23.2099L125.49 35.026L94.5991 50.8182Z" fill="#F0F0F0"/>
<path d="M125.333 43.4468L94.4416 59.239L94.5984 50.8181L125.49 35.0259L125.333 43.4468Z" fill="#B1B1B1"/>
<g style="mix-blend-mode:multiply">
<path d="M124.155 39.992L96.4773 54.1501L96.4893 53.5032L124.167 39.3563L124.155 39.992Z" fill="#B1B1B1"/>
</g>
<g style="mix-blend-mode:multiply">
<path d="M132.874 53.5396L101.983 69.3317L101.996 68.6068L132.887 52.8257L132.874 53.5396Z" fill="#B1B1B1"/>
</g>
<g style="mix-blend-mode:multiply">
<path d="M40.266 55.7769L101.982 69.3318L101.996 68.6068L40.2793 55.0631L40.266 55.7769Z" fill="#B1B1B1"/>
</g>
<g style="mix-blend-mode:multiply">
<path d="M42.0744 43.5552L91.8064 54.4337L91.8199 53.7087L42.0879 42.8302L42.0744 43.5552Z" fill="#B1B1B1"/>
</g>
<g style="mix-blend-mode:multiply" opacity="0.3">
<path d="M94.5792 49.5237L44.0988 38.4437L72.149 24.2023L122.629 35.2823L94.5792 49.5237Z" fill="#C4C4C4"/>
</g>
<path d="M180.703 74.6858L118.987 61.1309L149.889 45.3501L211.606 58.8938L180.703 74.6858Z" fill="#F0F0F0"/>
<path d="M118.785 72.028L180.501 85.5828L180.854 66.6107L119.138 53.067L118.785 72.028Z" fill="#C6C6C6"/>
<path d="M211.402 69.7907L180.5 85.5828L180.703 74.6858L211.605 58.8938L211.402 69.7907Z" fill="#B1B1B1"/>
<path d="M180.853 66.6107L119.137 53.067L141.72 41.473L203.426 55.0165L180.853 66.6107Z" fill="#F0F0F0"/>
<g style="mix-blend-mode:multiply" opacity="0.3">
<path d="M180.732 65.5154L122.023 52.6326L141.558 42.575L200.268 55.4578L180.732 65.5154Z" fill="#C4C4C4"/>
</g>
<path d="M203.184 68.0104L180.612 79.6045L180.854 66.6107L203.426 55.0166L203.184 68.0104Z" fill="#B1B1B1"/>
<path d="M118.784 72.0279L180.5 85.5827L180.632 78.5003L118.916 64.9454L118.784 72.0279Z" fill="#6D6E71"/>
<path d="M211.402 69.7907L180.5 85.5827L180.572 81.7125L211.474 65.9316L211.402 69.7907Z" fill="#B1B1B1"/>
<path d="M211.55 61.883L180.648 77.6638L180.66 77.0281L211.562 61.2361L211.55 61.883Z" fill="#B1B1B1"/>
<path d="M110.468 66.1069L172.185 79.6506L172.218 77.8437L110.502 64.3L110.468 66.1069Z" fill="#C6C6C6"/>
<path d="M172.185 79.6505L180.703 75.2436L180.737 73.4368L172.218 77.8437L172.185 79.6505Z" fill="#B1B1B1"/>
<path d="M172.219 77.8437L110.502 64.3L119.021 59.882L180.738 73.4368L172.219 77.8437Z" fill="#F0F0F0"/>
<g style="mix-blend-mode:multiply">
<path d="M211.402 69.7908L180.5 85.5828L180.514 84.8579L211.416 69.077L211.402 69.7908Z" fill="#B1B1B1"/>
</g>
<g style="mix-blend-mode:multiply">
<path d="M200.983 69.7609L183.154 78.8747L183.176 77.7147L201.004 68.6121L200.983 69.7609Z" fill="#B1B1B1"/>
</g>
<g style="mix-blend-mode:multiply">
<path d="M201.088 64.0949L183.26 73.2086L183.281 72.0487L201.109 62.946L201.088 64.0949Z" fill="#B1B1B1"/>
</g>
<g style="mix-blend-mode:multiply">
<path d="M118.784 72.028L124.027 69.1092L118.859 67.9681L118.784 72.028Z" fill="#B1B1B1"/>
</g>
</g>
</g>
<defs>
<linearGradient id="paint0_linear_127_5720" x1="251.426" y1="37.7953" x2="309.179" y2="39.2646" gradientUnits="userSpaceOnUse">
<stop stop-color="white" stop-opacity="0.02"/>
<stop offset="0.06" stop-color="white" stop-opacity="0.0121"/>
<stop offset="0.2" stop-color="white" stop-opacity="0.1225"/>
<stop offset="0.39" stop-color="white" stop-opacity="0.5329"/>
<stop offset="0.52" stop-color="white"/>
<stop offset="0.56" stop-color="white" stop-opacity="0.02"/>
<stop offset="1" stop-color="white"/>
</linearGradient>
<linearGradient id="paint1_linear_127_5720" x1="182.159" y1="22.2633" x2="239.901" y2="23.7323" gradientUnits="userSpaceOnUse">
<stop stop-color="white" stop-opacity="0.02"/>
<stop offset="0.06" stop-color="white" stop-opacity="0.0121"/>
<stop offset="0.2" stop-color="white" stop-opacity="0.1225"/>
<stop offset="0.39" stop-color="white" stop-opacity="0.5329"/>
<stop offset="0.52" stop-color="white"/>
<stop offset="0.56" stop-color="white" stop-opacity="0.02"/>
<stop offset="1" stop-color="white"/>
</linearGradient>
<linearGradient id="paint2_linear_127_5720" x1="219.625" y1="25.8316" x2="268.608" y2="27.0778" gradientUnits="userSpaceOnUse">
<stop stop-color="white" stop-opacity="0.02"/>
<stop offset="0.06" stop-color="white" stop-opacity="0.0121"/>
<stop offset="0.2" stop-color="white" stop-opacity="0.1225"/>
<stop offset="0.39" stop-color="white" stop-opacity="0.5329"/>
<stop offset="0.52" stop-color="white"/>
<stop offset="0.56" stop-color="white" stop-opacity="0.02"/>
<stop offset="1" stop-color="white"/>
</linearGradient>
<clipPath id="clip0_127_5720">
<rect width="460" height="116" fill="white"/>
</clipPath>
<clipPath id="clip1_127_5720">
<rect width="459.634" height="114.912" fill="white" transform="matrix(0.999876 0.0157153 -0.0186141 0.999827 0 -3.33972)"/>
</clipPath>
<clipPath id="clip2_127_5720">
<rect width="17.4686" height="24.3831" fill="white" transform="matrix(0.999876 0.0157153 -0.0186141 0.999827 376.492 14.5377)"/>
</clipPath>
<clipPath id="clip3_127_5720">
<rect width="17.4686" height="24.3831" fill="white" transform="matrix(0.999876 0.0157153 -0.0186141 0.999827 391.882 17.5576)"/>
</clipPath>
<clipPath id="clip4_127_5720">
<rect width="17.4686" height="24.3831" fill="white" transform="matrix(0.999876 0.0157153 -0.0186141 0.999827 408.366 20.3381)"/>
</clipPath>
<clipPath id="clip5_127_5720">
<rect width="13.5686" height="9.66339" fill="white" transform="matrix(0.999876 0.0157153 -0.0186141 0.999827 312.686 19.024)"/>
</clipPath>
<clipPath id="clip6_127_5720">
<rect width="13.5687" height="9.66339" fill="white" transform="matrix(0.999876 0.0157153 -0.0186141 0.999827 328.547 21.2815)"/>
</clipPath>
<clipPath id="clip7_127_5720">
<rect width="13.5687" height="9.66339" fill="white" transform="matrix(0.999876 0.0157153 -0.0186141 0.999827 345.693 23.6039)"/>
</clipPath>
<clipPath id="clip8_127_5720">
<rect width="13.5687" height="9.66339" fill="white" transform="matrix(0.999876 0.0157153 -0.0186141 0.999827 403.019 41.7643)"/>
</clipPath>
<clipPath id="clip9_127_5720">
<rect width="13.5686" height="9.66339" fill="white" transform="matrix(0.999876 0.0157153 -0.0186141 0.999827 394.337 47.3179)"/>
</clipPath>
<clipPath id="clip10_127_5720">
<rect width="13.5687" height="9.66339" fill="white" transform="matrix(0.999876 0.0157153 -0.0186141 0.999827 385.654 52.8713)"/>
</clipPath>
<clipPath id="clip11_127_5720">
<rect width="13.5686" height="9.66339" fill="white" transform="matrix(0.999876 0.0157153 -0.0186141 0.999827 376.973 58.4248)"/>
</clipPath>
<clipPath id="clip12_127_5720">
<rect width="13.5687" height="9.66339" fill="white" transform="matrix(0.999876 0.0157153 -0.0186141 0.999827 368.291 63.9783)"/>
</clipPath>
<clipPath id="clip13_127_5720">
<rect width="13.5687" height="9.66339" fill="white" transform="matrix(0.999876 0.0157153 -0.0186141 0.999827 359.608 69.5317)"/>
</clipPath>
<clipPath id="clip14_127_5720">
<rect width="13.5686" height="9.66339" fill="white" transform="matrix(0.999876 0.0157153 -0.0186141 0.999827 350.927 75.0853)"/>
</clipPath>
<clipPath id="clip15_127_5720">
<rect width="13.5686" height="9.66339" fill="white" transform="matrix(0.999876 0.0157153 -0.0186141 0.999827 340.962 80.4847)"/>
</clipPath>
<clipPath id="clip16_127_5720">
<rect width="13.5687" height="9.66339" fill="white" transform="matrix(0.999876 0.0157153 -0.0186141 0.999827 330.996 85.8842)"/>
</clipPath>
<clipPath id="clip17_127_5720">
<rect width="17.4686" height="24.3831" fill="white" transform="matrix(0.999876 0.0157153 -0.0186141 0.999827 376.502 14.0135)"/>
</clipPath>
<clipPath id="clip18_127_5720">
<rect width="17.4686" height="24.3831" fill="white" transform="matrix(0.999876 0.0157153 -0.0186141 0.999827 391.893 17.0223)"/>
</clipPath>
<clipPath id="clip19_127_5720">
<rect width="17.4686" height="24.3831" fill="white" transform="matrix(0.999876 0.0157153 -0.0186141 0.999827 408.376 19.8027)"/>
</clipPath>
<clipPath id="clip20_127_5720">
<rect width="13.5686" height="9.66339" fill="white" transform="matrix(0.999876 0.0157153 -0.0186141 0.999827 312.695 18.4886)"/>
</clipPath>
<clipPath id="clip21_127_5720">
<rect width="13.5687" height="9.66339" fill="white" transform="matrix(0.999876 0.0157153 -0.0186141 0.999827 328.557 20.7461)"/>
</clipPath>
<clipPath id="clip22_127_5720">
<rect width="13.5687" height="9.66339" fill="white" transform="matrix(0.999876 0.0157153 -0.0186141 0.999827 345.704 23.0685)"/>
</clipPath>
<clipPath id="clip23_127_5720">
<rect width="13.5687" height="9.66339" fill="white" transform="matrix(0.999876 0.0157153 -0.0186141 0.999827 403.028 41.229)"/>
</clipPath>
<clipPath id="clip24_127_5720">
<rect width="13.5686" height="9.66339" fill="white" transform="matrix(0.999876 0.0157153 -0.0186141 0.999827 394.347 46.7825)"/>
</clipPath>
<clipPath id="clip25_127_5720">
<rect width="13.5687" height="9.66339" fill="white" transform="matrix(0.999876 0.0157153 -0.0186141 0.999827 385.665 52.3359)"/>
</clipPath>
<clipPath id="clip26_127_5720">
<rect width="13.5686" height="9.66339" fill="white" transform="matrix(0.999876 0.0157153 -0.0186141 0.999827 376.982 57.8894)"/>
</clipPath>
<clipPath id="clip27_127_5720">
<rect width="13.5687" height="9.66339" fill="white" transform="matrix(0.999876 0.0157153 -0.0186141 0.999827 368.301 63.4429)"/>
</clipPath>
<clipPath id="clip28_127_5720">
<rect width="13.5687" height="9.66339" fill="white" transform="matrix(0.999876 0.0157153 -0.0186141 0.999827 359.619 68.9965)"/>
</clipPath>
<clipPath id="clip29_127_5720">
<rect width="13.5686" height="9.66339" fill="white" transform="matrix(0.999876 0.0157153 -0.0186141 0.999827 350.937 74.5499)"/>
</clipPath>
<clipPath id="clip30_127_5720">
<rect width="13.5686" height="9.66339" fill="white" transform="matrix(0.999876 0.0157153 -0.0186141 0.999827 340.972 79.9493)"/>
</clipPath>
<clipPath id="clip31_127_5720">
<rect width="13.5687" height="9.66339" fill="white" transform="matrix(0.999876 0.0157153 -0.0186141 0.999827 331.006 85.36)"/>
</clipPath>
</defs>
</svg>
