<svg width="920" height="232" viewBox="0 0 920 232" fill="none" xmlns="http://www.w3.org/2000/svg">
<g clip-path="url(#clip0_1_2000)">
<g clip-path="url(#clip1_1_2000)">
<g clip-path="url(#clip2_1_2000)">
<path d="M769.536 78.1075C777.083 78.2262 783.246 75.8707 783.303 72.8464C783.359 69.8221 777.286 67.2743 769.74 67.1557C762.193 67.0371 756.029 69.3926 755.973 72.4168C755.916 75.4411 761.989 77.9889 769.536 78.1075Z" fill="black"/>
<path d="M770.443 29.3499C770.443 29.3499 765.641 72.8402 765.635 73.1284C765.611 74.4338 767.38 75.513 769.583 75.5476C771.786 75.5822 773.595 74.5593 773.619 73.2539C773.624 72.9656 770.443 29.3499 770.443 29.3499Z" fill="#5E853A"/>
<g style="mix-blend-mode:multiply" opacity="0.2">
<path d="M769.583 75.5476C771.786 75.5822 773.595 74.5593 773.619 73.2539C773.624 72.9657 770.443 29.3499 770.443 29.3499" fill="black"/>
</g>
<path d="M769.778 65.0874C779.42 65.239 787.385 57.3617 787.569 47.493C787.753 37.6244 780.085 29.5014 770.443 29.3498C760.802 29.1983 752.836 37.0756 752.653 46.9442C752.469 56.8129 760.136 64.9359 769.778 65.0874Z" fill="#6EBA44"/>
<path d="M770.443 29.3499C780.083 29.5014 787.753 37.6262 787.569 47.493C787.385 57.3599 779.418 65.2389 769.778 65.0874" fill="black"/>
</g>
<g clip-path="url(#clip3_1_2000)">
<path d="M800.315 84.1475C807.862 84.2661 814.025 81.9106 814.082 78.8863C814.138 75.862 808.066 73.3142 800.519 73.1956C792.972 73.077 786.808 75.4325 786.752 78.4568C786.695 81.481 792.768 84.0288 800.315 84.1475Z" fill="black"/>
<path d="M801.222 35.3898C801.222 35.3898 796.42 78.8801 796.414 79.1683C796.39 80.4737 798.159 81.5529 800.362 81.5875C802.565 81.6222 804.374 80.5992 804.398 79.2938C804.403 79.0056 801.222 35.3898 801.222 35.3898Z" fill="#5E853A"/>
<g style="mix-blend-mode:multiply" opacity="0.2">
<path d="M800.362 81.5875C802.565 81.6222 804.374 80.5992 804.398 79.2938C804.403 79.0056 801.222 35.3898 801.222 35.3898" fill="black"/>
</g>
<path d="M800.557 71.1273C810.199 71.2789 818.164 63.4016 818.348 53.5329C818.532 43.6643 810.864 35.5413 801.222 35.3897C791.581 35.2382 783.615 43.1155 783.432 52.9841C783.248 62.8528 790.915 70.9758 800.557 71.1273Z" fill="#6EBA44"/>
<path d="M801.222 35.3898C810.863 35.5413 818.532 43.6661 818.348 53.533C818.164 63.3998 810.197 71.2789 800.557 71.1273" fill="black"/>
</g>
<g clip-path="url(#clip4_1_2000)">
<path d="M833.283 89.7084C840.83 89.827 846.994 87.4715 847.05 84.4472C847.106 81.423 841.034 78.8751 833.487 78.7565C825.94 78.6379 819.776 80.9934 819.72 84.0177C819.664 87.0419 825.736 89.5897 833.283 89.7084Z" fill="black"/>
<path d="M834.191 40.9507C834.191 40.9507 829.388 84.441 829.383 84.7292C829.358 86.0346 831.128 87.1138 833.331 87.1485C835.534 87.1831 837.342 86.1601 837.366 84.8547C837.372 84.5665 834.191 40.9507 834.191 40.9507Z" fill="#5E853A"/>
<g style="mix-blend-mode:multiply" opacity="0.2">
<path d="M833.331 87.1485C835.534 87.1831 837.342 86.1601 837.366 84.8547C837.372 84.5665 834.191 40.9507 834.191 40.9507" fill="black"/>
</g>
<path d="M833.525 76.6882C843.167 76.8398 851.132 68.9625 851.316 59.0938C851.5 49.2252 843.833 41.1022 834.191 40.9507C824.549 40.7991 816.584 48.6764 816.4 58.5451C816.216 68.4137 823.884 76.5367 833.525 76.6882Z" fill="#6EBA44"/>
<path d="M834.191 40.9507C843.831 41.1022 851.5 49.227 851.316 59.0939C851.133 68.9607 843.165 76.8398 833.525 76.6883" fill="black"/>
</g>
<g clip-path="url(#clip5_1_2000)">
<path d="M638.578 57.5847C646.071 57.7025 652.179 56.0002 652.22 53.7827C652.261 51.5651 646.221 49.6719 638.728 49.5542C631.235 49.4364 625.127 51.1386 625.086 53.3562C625.045 55.5738 631.086 57.4669 638.578 57.5847Z" fill="black"/>
<path d="M625.879 51.1763C626.014 43.9321 631.86 38.15 638.938 38.2612C646.016 38.3725 651.644 44.335 651.509 51.5792C651.458 54.2895 645.68 56.3909 638.603 56.2797C631.525 56.1685 625.829 53.8699 625.879 51.1763Z" fill="#6EBA44"/>
<path d="M638.938 38.2612C646.016 38.3725 651.644 44.335 651.509 51.5792C651.458 54.2895 645.68 56.3909 638.603 56.2797" fill="black"/>
</g>
<g clip-path="url(#clip6_1_2000)">
<path d="M670.302 62.0997C677.794 62.2175 683.902 60.5153 683.943 58.2977C683.985 56.0801 677.944 54.187 670.451 54.0692C662.958 53.9514 656.851 55.6536 656.809 57.8712C656.768 60.0888 662.809 61.9819 670.302 62.0997Z" fill="black"/>
<path d="M657.602 55.6913C657.737 48.4471 663.584 42.665 670.661 42.7762C677.739 42.8875 683.367 48.85 683.232 56.0942C683.182 58.8045 677.404 60.906 670.326 60.7947C663.248 60.6835 657.552 58.3849 657.602 55.6913Z" fill="#6EBA44"/>
<path d="M670.661 42.7762C677.739 42.8875 683.367 48.85 683.232 56.0942C683.182 58.8045 677.404 60.906 670.326 60.7947" fill="black"/>
</g>
<g clip-path="url(#clip7_1_2000)">
<path d="M704.595 66.7444C712.088 66.8621 718.195 65.1599 718.237 62.9423C718.278 60.7248 712.237 58.8316 704.744 58.7138C697.252 58.5961 691.144 60.2983 691.103 62.5159C691.061 64.7334 697.102 66.6266 704.595 66.7444Z" fill="black"/>
<path d="M691.895 60.336C692.03 53.0918 697.877 47.3097 704.955 47.4209C712.032 47.5321 717.66 53.4946 717.526 60.7388C717.475 63.4491 711.697 65.5506 704.619 65.4394C697.541 65.3281 691.845 63.0296 691.895 60.336Z" fill="#6EBA44"/>
<path d="M704.955 47.4209C712.032 47.5321 717.66 53.4946 717.526 60.7388C717.475 63.4491 711.697 65.5506 704.619 65.4394" fill="black"/>
</g>
<g clip-path="url(#clip8_1_2000)">
<path d="M819.244 103.065C826.737 103.183 832.845 101.481 832.886 99.2634C832.927 97.0458 826.887 95.1527 819.394 95.0349C811.901 94.9171 805.793 96.6193 805.752 98.8369C805.711 101.054 811.752 102.948 819.244 103.065Z" fill="black"/>
<path d="M806.545 96.657C806.68 89.4128 812.526 83.6307 819.604 83.7419C826.682 83.8532 832.31 89.8157 832.175 97.0599C832.125 99.7702 826.346 101.872 819.269 101.76C812.191 101.649 806.495 99.3506 806.545 96.657Z" fill="#6EBA44"/>
<path d="M819.604 83.7419C826.682 83.8532 832.31 89.8157 832.175 97.0599C832.125 99.7702 826.347 101.872 819.269 101.76" fill="black"/>
</g>
<g clip-path="url(#clip9_1_2000)">
<path d="M801.881 114.172C809.373 114.29 815.481 112.588 815.522 110.37C815.564 108.153 809.523 106.26 802.03 106.142C794.537 106.024 788.43 107.726 788.388 109.944C788.347 112.161 794.388 114.055 801.881 114.172Z" fill="black"/>
<path d="M789.181 107.764C789.316 100.52 795.163 94.7376 802.24 94.8489C809.318 94.9601 814.946 100.923 814.811 108.167C814.761 110.877 808.983 112.979 801.905 112.867C794.827 112.756 789.131 110.458 789.181 107.764Z" fill="#6EBA44"/>
<path d="M802.24 94.8489C809.318 94.9601 814.946 100.923 814.811 108.167C814.761 110.877 808.983 112.979 801.905 112.867" fill="black"/>
</g>
<g clip-path="url(#clip10_1_2000)">
<path d="M784.517 125.279C792.009 125.397 798.117 123.695 798.158 121.477C798.2 119.26 792.159 117.367 784.666 117.249C777.173 117.131 771.066 118.833 771.024 121.051C770.983 123.268 777.024 125.162 784.517 125.279Z" fill="black"/>
<path d="M771.817 118.871C771.952 111.627 777.799 105.845 784.876 105.956C791.954 106.067 797.582 112.03 797.447 119.274C797.397 121.984 791.619 124.086 784.541 123.974C777.463 123.863 771.767 121.565 771.817 118.871Z" fill="#6EBA44"/>
<path d="M784.876 105.956C791.954 106.067 797.582 112.03 797.447 119.274C797.397 121.984 791.618 124.086 784.541 123.974" fill="black"/>
</g>
<g clip-path="url(#clip11_1_2000)">
<path d="M767.153 136.386C774.646 136.504 780.753 134.802 780.794 132.584C780.836 130.367 774.795 128.474 767.302 128.356C759.809 128.238 753.702 129.94 753.66 132.158C753.619 134.375 759.66 136.269 767.153 136.386Z" fill="black"/>
<path d="M754.453 129.978C754.588 122.734 760.435 116.952 767.512 117.063C774.59 117.174 780.218 123.137 780.083 130.381C780.033 133.091 774.255 135.193 767.177 135.081C760.099 134.97 754.403 132.672 754.453 129.978Z" fill="#6EBA44"/>
<path d="M767.512 117.063C774.59 117.174 780.218 123.137 780.083 130.381C780.033 133.091 774.255 135.193 767.177 135.081" fill="black"/>
</g>
<g clip-path="url(#clip12_1_2000)">
<path d="M749.789 147.493C757.281 147.611 763.389 145.909 763.43 143.691C763.472 141.474 757.431 139.581 749.938 139.463C742.445 139.345 736.338 141.047 736.296 143.265C736.255 145.482 742.296 147.375 749.789 147.493Z" fill="black"/>
<path d="M737.089 141.085C737.224 133.841 743.071 128.059 750.148 128.17C757.226 128.281 762.854 134.244 762.719 141.488C762.669 144.198 756.891 146.3 749.813 146.188C742.735 146.077 737.039 143.778 737.089 141.085Z" fill="#6EBA44"/>
<path d="M750.148 128.17C757.226 128.281 762.854 134.244 762.719 141.488C762.669 144.198 756.891 146.3 749.813 146.188" fill="black"/>
</g>
<g clip-path="url(#clip13_1_2000)">
<path d="M732.425 158.6C739.918 158.718 746.025 157.016 746.066 154.798C746.108 152.581 740.067 150.688 732.574 150.57C725.081 150.452 718.974 152.154 718.932 154.372C718.891 156.589 724.932 158.483 732.425 158.6Z" fill="black"/>
<path d="M719.725 152.192C719.86 144.948 725.707 139.166 732.784 139.277C739.862 139.388 745.49 145.351 745.355 152.595C745.305 155.305 739.527 157.407 732.449 157.295C725.371 157.184 719.675 154.886 719.725 152.192Z" fill="#6EBA44"/>
<path d="M732.784 139.277C739.862 139.388 745.49 145.351 745.355 152.595C745.305 155.305 739.527 157.407 732.449 157.295" fill="black"/>
</g>
<g clip-path="url(#clip14_1_2000)">
<path d="M715.061 169.707C722.554 169.825 728.661 168.123 728.702 165.905C728.744 163.688 722.703 161.795 715.21 161.677C707.717 161.559 701.61 163.261 701.569 165.479C701.527 167.696 707.568 169.589 715.061 169.707Z" fill="black"/>
<path d="M702.361 163.299C702.496 156.055 708.343 150.273 715.421 150.384C722.498 150.495 728.126 156.458 727.991 163.702C727.941 166.412 722.163 168.514 715.085 168.402C708.007 168.291 702.311 165.992 702.361 163.299Z" fill="#6EBA44"/>
<path d="M715.421 150.384C722.498 150.495 728.126 156.458 727.991 163.702C727.941 166.412 722.163 168.514 715.085 168.402" fill="black"/>
</g>
<g clip-path="url(#clip15_1_2000)">
<path d="M695.13 180.506C702.623 180.624 708.73 178.922 708.772 176.704C708.813 174.487 702.772 172.593 695.28 172.476C687.787 172.358 681.679 174.06 681.638 176.278C681.597 178.495 687.637 180.388 695.13 180.506Z" fill="black"/>
<path d="M682.431 174.098C682.565 166.854 688.412 161.071 695.49 161.183C702.567 161.294 708.196 167.256 708.061 174.501C708.01 177.211 702.232 179.312 695.154 179.201C688.077 179.09 682.38 176.791 682.431 174.098Z" fill="#6EBA44"/>
<path d="M695.49 161.183C702.567 161.294 708.195 167.256 708.061 174.501C708.01 177.211 702.232 179.312 695.154 179.201" fill="black"/>
</g>
<g clip-path="url(#clip16_1_2000)">
<path d="M675.199 191.305C682.692 191.423 688.8 189.721 688.841 187.503C688.882 185.285 682.842 183.392 675.349 183.275C667.856 183.157 661.748 184.859 661.707 187.077C661.666 189.294 667.707 191.187 675.199 191.305Z" fill="black"/>
<path d="M662.5 184.897C662.635 177.652 668.481 171.87 675.559 171.982C682.637 172.093 688.265 178.055 688.13 185.299C688.08 188.01 682.301 190.111 675.224 190C668.146 189.889 662.45 187.59 662.5 184.897Z" fill="#6EBA44"/>
<path d="M675.559 171.982C682.637 172.093 688.265 178.055 688.13 185.299C688.08 188.01 682.301 190.111 675.224 190" fill="black"/>
</g>
<path d="M488.863 186.34C482.435 189.653 471.375 191.242 464.315 189.882L386.461 174.846C379.401 173.485 378.884 169.662 385.333 166.349L437.192 139.696C443.619 136.383 454.656 134.928 461.691 136.444L536.386 152.523C543.421 154.04 543.914 157.997 537.487 161.31L488.884 186.363L488.863 186.34Z" fill="#89CDB9"/>
<path d="M569.144 147.125L457.09 122.426L630.738 40.1852L743.969 57.8521L569.144 147.125Z" fill="#89CDB9"/>
<path d="M619.275 210.927C573.149 215.401 537.096 206.89 537.096 206.89L501.593 199.281L757.217 60.5371L848.349 75.4914C848.349 75.4914 855.367 76.8066 857.92 80.1492C861.793 85.2529 852.83 91.2706 852.83 91.2706L700.749 184.895C700.749 184.895 665.402 206.43 619.275 210.904L619.275 210.927Z" fill="#89CDB9"/>
<g clip-path="url(#clip17_1_2000)">
<path opacity="0.3" d="M769.555 77.0592C777.102 77.1778 783.266 74.8223 783.322 71.7981C783.378 68.7738 777.306 66.226 769.759 66.1074C762.212 65.9887 756.048 68.3442 755.992 71.3685C755.936 74.3928 762.008 76.9406 769.555 77.0592Z" fill="black"/>
<path d="M770.463 28.3015C770.463 28.3015 765.66 71.7918 765.655 72.08C765.631 73.3854 767.4 74.4647 769.603 74.4993C771.806 74.5339 773.614 73.5109 773.639 72.2055C773.644 71.9173 770.463 28.3015 770.463 28.3015Z" fill="#9B7225"/>
<g style="mix-blend-mode:multiply" opacity="0.2">
<path d="M769.603 74.4993C771.806 74.5339 773.614 73.5109 773.639 72.2055C773.644 71.9173 770.463 28.3015 770.463 28.3015" fill="black"/>
</g>
<path d="M769.798 64.0391C779.439 64.1906 787.405 56.3133 787.588 46.4447C787.772 36.576 780.105 28.453 770.463 28.3015C760.821 28.1499 752.856 36.0272 752.672 45.8959C752.488 55.7645 760.156 63.8875 769.798 64.0391Z" fill="#4B9E81"/>
<path opacity="0.3" d="M770.463 28.3015C780.103 28.453 787.772 36.5779 787.588 46.4447C787.405 56.3115 779.438 64.1906 769.798 64.0391" fill="black"/>
</g>
<g clip-path="url(#clip18_1_2000)">
<path opacity="0.3" d="M800.335 83.0767C807.882 83.1953 814.045 80.8398 814.102 77.8155C814.158 74.7912 808.086 72.2434 800.539 72.1248C792.992 72.0062 786.828 74.3617 786.772 77.386C786.715 80.4102 792.788 82.958 800.335 83.0767Z" fill="black"/>
<path d="M801.242 34.319C801.242 34.319 796.44 77.8093 796.434 78.0975C796.41 79.4029 798.179 80.4821 800.382 80.5167C802.585 80.5514 804.394 79.5284 804.418 78.223C804.423 77.9348 801.242 34.319 801.242 34.319Z" fill="#9B7225"/>
<g style="mix-blend-mode:multiply" opacity="0.2">
<path d="M800.382 80.5167C802.585 80.5514 804.394 79.5284 804.418 78.223C804.423 77.9348 801.242 34.319 801.242 34.319" fill="black"/>
</g>
<path d="M800.577 70.0565C810.219 70.2081 818.184 62.3308 818.368 52.4621C818.552 42.5935 810.884 34.4705 801.242 34.3189C791.601 34.1674 783.635 42.0447 783.452 51.9133C783.268 61.782 790.935 69.905 800.577 70.0565Z" fill="#4B9E81"/>
<path opacity="0.3" d="M801.242 34.319C810.883 34.4705 818.552 42.5953 818.368 52.4622C818.184 62.329 810.217 70.2081 800.577 70.0566" fill="black"/>
</g>
<g clip-path="url(#clip19_1_2000)">
<path opacity="0.3" d="M833.303 88.6377C840.85 88.7563 847.014 86.4008 847.07 83.3765C847.126 80.3523 841.054 77.8045 833.507 77.6858C825.96 77.5672 819.796 79.9227 819.74 82.947C819.683 85.9713 825.756 88.5191 833.303 88.6377Z" fill="black"/>
<path d="M834.211 39.88C834.211 39.88 829.408 83.3703 829.403 83.6585C829.378 84.9639 831.148 86.0431 833.351 86.0778C835.554 86.1124 837.362 85.0894 837.386 83.784C837.392 83.4958 834.211 39.88 834.211 39.88Z" fill="#9B7225"/>
<g style="mix-blend-mode:multiply" opacity="0.2">
<path d="M833.351 86.0778C835.554 86.1124 837.362 85.0894 837.386 83.784C837.392 83.4958 834.211 39.88 834.211 39.88" fill="black"/>
</g>
<path d="M833.545 75.6176C843.187 75.7691 851.152 67.8918 851.336 58.0232C851.52 48.1545 843.852 40.0315 834.211 39.88C824.569 39.7284 816.604 47.6057 816.42 57.4744C816.236 67.343 823.903 75.466 833.545 75.6176Z" fill="#4B9E81"/>
<path opacity="0.3" d="M834.211 39.88C843.851 40.0315 851.52 48.1564 851.336 58.0232C851.152 67.89 843.185 75.7691 833.545 75.6176" fill="black"/>
</g>
<g clip-path="url(#clip20_1_2000)">
<path opacity="0.3" d="M638.598 56.514C646.091 56.6318 652.199 54.9296 652.24 52.712C652.281 50.4944 646.241 48.6013 638.748 48.4835C631.255 48.3657 625.147 50.068 625.106 52.2855C625.065 54.5031 631.105 56.3963 638.598 56.514Z" fill="black"/>
<path d="M625.899 50.1056C626.034 42.8615 631.88 37.0793 638.958 37.1906C646.036 37.3018 651.664 43.2643 651.529 50.5085C651.478 53.2188 645.7 55.3203 638.623 55.209C631.545 55.0978 625.849 52.7992 625.899 50.1056Z" fill="#4B9E81"/>
<path opacity="0.3" d="M638.958 37.1906C646.036 37.3018 651.664 43.2643 651.529 50.5085C651.478 53.2188 645.7 55.3203 638.623 55.209" fill="black"/>
</g>
<g clip-path="url(#clip21_1_2000)">
<path opacity="0.3" d="M670.321 61.029C677.814 61.1468 683.922 59.4446 683.963 57.227C684.005 55.0094 677.964 53.1163 670.471 52.9985C662.978 52.8807 656.871 54.583 656.829 56.8005C656.788 59.0181 662.829 60.9113 670.321 61.029Z" fill="black"/>
<path d="M657.622 54.6207C657.757 47.3765 663.604 41.5943 670.681 41.7056C677.759 41.8168 683.387 47.7793 683.252 55.0235C683.202 57.7338 677.423 59.8353 670.346 59.724C663.268 59.6128 657.572 57.3142 657.622 54.6207Z" fill="#4B9E81"/>
<path opacity="0.3" d="M670.681 41.7056C677.759 41.8168 683.387 47.7793 683.252 55.0235C683.202 57.7338 677.424 59.8353 670.346 59.724" fill="black"/>
</g>
<g clip-path="url(#clip22_1_2000)">
<path opacity="0.3" d="M704.615 65.6737C712.108 65.7914 718.215 64.0892 718.256 61.8717C718.298 59.6541 712.257 57.7609 704.764 57.6432C697.271 57.5254 691.164 59.2276 691.123 61.4452C691.081 63.6628 697.122 65.5559 704.615 65.6737Z" fill="black"/>
<path d="M691.915 59.2653C692.05 52.0211 697.897 46.239 704.975 46.3502C712.052 46.4615 717.68 52.424 717.545 59.6681C717.495 62.3784 711.717 64.4799 704.639 64.3687C697.561 64.2574 691.865 61.9589 691.915 59.2653Z" fill="#4B9E81"/>
<path opacity="0.3" d="M704.975 46.3502C712.052 46.4615 717.68 52.424 717.545 59.6681C717.495 62.3784 711.717 64.4799 704.639 64.3687" fill="black"/>
</g>
<path d="M281.598 61.3177L224.648 48.8195L271.771 24.7476L328.7 37.2453L281.598 61.3177Z" fill="#F0F0F0"/>
<path d="M224.39 62.6722L281.341 75.1703L281.598 61.3177L224.648 48.8196L224.39 62.6722Z" fill="#C6C6C6"/>
<path d="M328.442 51.1203L281.341 75.1703L281.598 61.3177L328.7 37.2454L328.442 51.1203Z" fill="#B1B1B1"/>
<path d="M328.442 51.1204L281.34 75.1704L281.45 69.2813L328.552 45.209L328.442 51.1204Z" fill="#B1B1B1"/>
<path d="M328.558 44.8744L281.456 68.9467L281.487 67.296L328.589 43.2236L328.558 44.8744Z" fill="black"/>
<path d="M224.506 56.4486L281.456 68.9467L281.487 67.296L224.536 54.7979L224.506 56.4486Z" fill="black"/>
<g style="mix-blend-mode:multiply">
<path d="M328.442 51.1204L281.341 75.1704L281.367 73.7427L328.469 49.6704L328.442 51.1204Z" fill="#B1B1B1"/>
</g>
<g style="mix-blend-mode:multiply">
<path d="M224.39 62.6722L281.34 75.1703L281.367 73.7426L224.416 61.2445L224.39 62.6722Z" fill="#B1B1B1"/>
</g>
<path d="M760.555 104.949L683.653 87.9644L722.346 68.2003L799.249 85.1624L760.555 104.949Z" fill="#F0F0F0"/>
<g style="mix-blend-mode:multiply" opacity="0.6">
<path d="M760.281 103.249L687.699 87.2471L722.604 69.5878L795.185 85.6117L760.281 103.249Z" fill="#C4C4C4"/>
</g>
<g style="mix-blend-mode:multiply" opacity="0.5">
<path d="M760.281 103.249L687.699 87.2471L722.604 69.5878L795.185 85.6117L760.281 103.249Z" fill="#C7D9F4"/>
</g>
<path d="M683.349 104.249L760.252 121.211L760.555 104.949L683.653 87.9645L683.349 104.249Z" fill="#C6C6C6"/>
<path d="M798.945 101.446L760.252 121.211L760.555 104.949L799.249 85.1624L798.945 101.446Z" fill="#B1B1B1"/>
<g style="mix-blend-mode:multiply">
<path d="M683.349 104.249L760.252 121.211L760.342 116.37L683.44 99.408L683.349 104.249Z" fill="#C6C6C6"/>
</g>
<g style="mix-blend-mode:multiply">
<path d="M798.945 101.447L760.252 121.211L760.342 116.37L799.035 96.606L798.945 101.447Z" fill="#B1B1B1"/>
</g>
<g style="mix-blend-mode:multiply">
<path d="M799.13 91.5422L760.436 111.306L760.451 110.503L799.145 90.7392L799.13 91.5422Z" fill="#B1B1B1"/>
</g>
<g clip-path="url(#clip23_1_2000)">
<path opacity="0.3" d="M819.264 101.995C826.757 102.112 832.865 100.41 832.906 98.1926C832.947 95.975 826.907 94.0819 819.414 93.9641C811.921 93.8463 805.813 95.5485 805.772 97.7661C805.731 99.9837 811.772 101.877 819.264 101.995Z" fill="black"/>
<path d="M806.565 95.5862C806.7 88.342 812.546 82.5599 819.624 82.6711C826.702 82.7824 832.33 88.7449 832.195 95.9891C832.145 98.6994 826.366 100.801 819.289 100.69C812.211 100.578 806.515 98.2798 806.565 95.5862Z" fill="#4B9E81"/>
<path opacity="0.3" d="M819.624 82.6711C826.702 82.7824 832.33 88.7449 832.195 95.9891C832.145 98.6994 826.366 100.801 819.289 100.69" fill="black"/>
</g>
<g clip-path="url(#clip24_1_2000)">
<path opacity="0.3" d="M801.9 113.102C809.393 113.219 815.501 111.517 815.542 109.3C815.583 107.082 809.543 105.189 802.05 105.071C794.557 104.953 788.45 106.656 788.408 108.873C788.367 111.091 794.408 112.984 801.9 113.102Z" fill="black"/>
<path d="M789.201 106.693C789.336 99.4491 795.182 93.667 802.26 93.7782C809.338 93.8894 814.966 99.8519 814.831 107.096C814.781 109.806 809.002 111.908 801.925 111.797C794.847 111.685 789.151 109.387 789.201 106.693Z" fill="#4B9E81"/>
<path opacity="0.3" d="M802.26 93.7782C809.338 93.8894 814.966 99.8519 814.831 107.096C814.781 109.806 809.002 111.908 801.925 111.797" fill="black"/>
</g>
<g clip-path="url(#clip25_1_2000)">
<path opacity="0.3" d="M784.536 124.209C792.029 124.326 798.137 122.624 798.178 120.407C798.219 118.189 792.179 116.296 784.686 116.178C777.193 116.06 771.085 117.763 771.044 119.98C771.003 122.198 777.044 124.091 784.536 124.209Z" fill="black"/>
<path d="M771.837 117.8C771.972 110.556 777.818 104.774 784.896 104.885C791.974 104.996 797.602 110.959 797.467 118.203C797.417 120.913 791.638 123.015 784.561 122.904C777.483 122.792 771.787 120.494 771.837 117.8Z" fill="#4B9E81"/>
<path opacity="0.3" d="M784.896 104.885C791.974 104.996 797.602 110.959 797.467 118.203C797.417 120.913 791.638 123.015 784.561 122.904" fill="black"/>
</g>
<g clip-path="url(#clip26_1_2000)">
<path opacity="0.3" d="M767.173 135.316C774.665 135.433 780.773 133.731 780.814 131.514C780.856 129.296 774.815 127.403 767.322 127.285C759.829 127.167 753.722 128.87 753.68 131.087C753.639 133.305 759.68 135.198 767.173 135.316Z" fill="black"/>
<path d="M754.473 128.907C754.608 121.663 760.455 115.881 767.532 115.992C774.61 116.103 780.238 122.066 780.103 129.31C780.053 132.02 774.275 134.122 767.197 134.011C760.119 133.899 754.423 131.601 754.473 128.907Z" fill="#4B9E81"/>
<path opacity="0.3" d="M767.532 115.992C774.61 116.103 780.238 122.066 780.103 129.31C780.053 132.02 774.275 134.122 767.197 134.011" fill="black"/>
</g>
<g clip-path="url(#clip27_1_2000)">
<path opacity="0.3" d="M749.808 146.423C757.301 146.54 763.409 144.838 763.45 142.621C763.492 140.403 757.451 138.51 749.958 138.392C742.465 138.274 736.358 139.977 736.316 142.194C736.275 144.412 742.316 146.305 749.808 146.423Z" fill="black"/>
<path d="M737.109 140.014C737.244 132.77 743.091 126.988 750.168 127.099C757.246 127.21 762.874 133.173 762.739 140.417C762.689 143.127 756.91 145.229 749.833 145.118C742.755 145.006 737.059 142.708 737.109 140.014Z" fill="#4B9E81"/>
<path opacity="0.3" d="M750.168 127.099C757.246 127.21 762.874 133.173 762.739 140.417C762.689 143.127 756.911 145.229 749.833 145.118" fill="black"/>
</g>
<g clip-path="url(#clip28_1_2000)">
<path opacity="0.3" d="M732.445 157.53C739.937 157.647 746.045 155.945 746.086 153.727C746.128 151.51 740.087 149.617 732.594 149.499C725.101 149.381 718.994 151.083 718.952 153.301C718.911 155.519 724.952 157.412 732.445 157.53Z" fill="black"/>
<path d="M719.745 151.121C719.88 143.877 725.727 138.095 732.804 138.206C739.882 138.317 745.51 144.28 745.375 151.524C745.325 154.234 739.547 156.336 732.469 156.225C725.391 156.113 719.695 153.815 719.745 151.121Z" fill="#4B9E81"/>
<path opacity="0.3" d="M732.804 138.206C739.882 138.317 745.51 144.28 745.375 151.524C745.325 154.234 739.547 156.336 732.469 156.225" fill="black"/>
</g>
<g clip-path="url(#clip29_1_2000)">
<path opacity="0.3" d="M715.081 168.637C722.573 168.754 728.681 167.052 728.722 164.835C728.764 162.617 722.723 160.724 715.23 160.606C707.737 160.488 701.63 162.191 701.588 164.408C701.547 166.626 707.588 168.519 715.081 168.637Z" fill="black"/>
<path d="M702.381 162.228C702.516 154.984 708.363 149.202 715.44 149.313C722.518 149.424 728.146 155.387 728.011 162.631C727.961 165.341 722.183 167.443 715.105 167.332C708.027 167.22 702.331 164.922 702.381 162.228Z" fill="#4B9E81"/>
<path opacity="0.3" d="M715.44 149.313C722.518 149.424 728.146 155.387 728.011 162.631C727.961 165.341 722.183 167.443 715.105 167.332" fill="black"/>
</g>
<g clip-path="url(#clip30_1_2000)">
<path opacity="0.3" d="M695.15 179.435C702.643 179.553 708.75 177.851 708.792 175.633C708.833 173.416 702.792 171.523 695.3 171.405C687.807 171.287 681.699 172.989 681.658 175.207C681.617 177.424 687.657 179.318 695.15 179.435Z" fill="black"/>
<path d="M682.451 173.027C682.585 165.783 688.432 160.001 695.51 160.112C702.587 160.223 708.215 166.186 708.081 173.43C708.03 176.14 702.252 178.242 695.174 178.13C688.097 178.019 682.4 175.721 682.451 173.027Z" fill="#4B9E81"/>
<path opacity="0.3" d="M695.51 160.112C702.587 160.223 708.215 166.186 708.081 173.43C708.03 176.14 702.252 178.242 695.174 178.13" fill="black"/>
</g>
<g clip-path="url(#clip31_1_2000)">
<path opacity="0.3" d="M675.219 190.257C682.712 190.374 688.819 188.672 688.861 186.455C688.902 184.237 682.861 182.344 675.368 182.226C667.876 182.108 661.768 183.811 661.727 186.028C661.685 188.246 667.726 190.139 675.219 190.257Z" fill="black"/>
<path d="M662.519 183.848C662.654 176.604 668.501 170.822 675.579 170.933C682.656 171.044 688.284 177.007 688.15 184.251C688.099 186.961 682.321 189.063 675.243 188.952C668.165 188.84 662.469 186.542 662.519 183.848Z" fill="#4B9E81"/>
<path opacity="0.3" d="M675.579 170.933C682.656 171.044 688.284 177.007 688.15 184.251C688.099 186.961 682.321 189.063 675.243 188.952" fill="black"/>
</g>
<path d="M565.305 143.718L294.041 83.8714L420.224 19.4273L691.489 79.2515L565.305 143.718Z" fill="#C6C6C6"/>
<path d="M565.668 124.222L461.192 101.181L587.375 36.7144L691.851 59.7775L565.668 124.222Z" fill="#F0F0F0"/>
<path d="M691.489 79.2515L565.305 143.718L565.668 124.222L691.851 59.7775L691.489 79.2515Z" fill="#B1B1B1"/>
<g style="mix-blend-mode:multiply">
<path d="M691.738 65.8449L565.555 130.311L565.602 127.768L691.786 63.302L691.738 65.8449Z" fill="#B1B1B1"/>
</g>
<path d="M460.829 120.677L565.305 143.718L565.668 124.222L461.192 101.181L460.829 120.677Z" fill="#C6C6C6"/>
<path d="M398.88 87.4381L294.403 64.3974L420.587 -0.0690196L525.063 22.9717L398.88 87.4381Z" fill="#F0F0F0"/>
<path d="M524.7 42.4681L398.517 106.934L398.88 87.4381L525.063 22.9718L524.7 42.4681Z" fill="#B1B1B1"/>
<path d="M294.041 83.8715L398.517 106.934L398.88 87.4382L294.403 64.3975L294.041 83.8715Z" fill="#C6C6C6"/>
<path d="M461.367 91.7673L587.551 27.3009L525.239 13.5582L399.055 78.0246L461.367 91.7673Z" fill="#F0F0F0"/>
<path d="M587.375 36.7144L461.192 101.181L461.367 91.7672L587.551 27.3009L587.375 36.7144Z" fill="#B1B1B1"/>
<path d="M398.88 87.4381L461.192 101.181L461.367 91.7672L399.055 78.0245L398.88 87.4381Z" fill="#C6C6C6"/>
<g style="mix-blend-mode:multiply">
<path d="M398.517 106.934L460.829 120.677L461.192 101.181L398.88 87.4381L398.517 106.934Z" fill="#8B8B8B"/>
</g>
<path d="M503.058 129.976L523.391 118.67L503.351 114.25L503.058 129.976Z" fill="#B1B1B1"/>
<path d="M336.248 93.1924L356.581 81.8643L336.541 77.4659L336.248 93.1924Z" fill="#B1B1B1"/>
<g style="mix-blend-mode:multiply">
<path d="M336.248 93.1924L356.288 97.613L356.581 81.8643L336.541 77.4659L336.248 93.1924Z" fill="#6D6E71"/>
</g>
<g style="mix-blend-mode:multiply">
<path d="M503.058 129.976L523.098 134.397L523.391 118.67L503.351 114.25L503.058 129.976Z" fill="#6D6E71"/>
</g>
<g style="mix-blend-mode:multiply">
<path d="M472.704 95.2702L464.758 99.3402L464.831 95.4142L472.777 91.3441L472.704 95.2702ZM542.458 122.63L565.602 127.768L565.555 130.311L542.411 125.173L542.458 122.63ZM523.124 132.969L565.353 142.291L565.327 143.718L523.098 134.397L523.124 132.969ZM460.856 119.227L503.085 128.549L503.058 129.976L460.829 120.655L460.856 119.227ZM294.362 68.971L317.506 74.1099L317.459 76.6529L294.315 71.514L294.362 68.971ZM483.936 85.6511L475.99 89.7211L475.917 93.6472L483.863 89.5771L483.936 85.6511ZM495.072 79.98L487.127 84.05L487.054 87.9761L494.999 83.906L495.072 79.98ZM506.231 74.2869L498.286 78.357L498.212 82.283L506.158 78.2129L506.231 74.2869ZM517.368 68.6158L509.422 72.6859L509.349 76.6119L517.295 72.5418L517.368 68.6158ZM528.505 62.9224L520.559 66.9924L520.486 70.9185L528.432 66.8484L528.505 62.9224ZM539.664 57.2516L531.718 61.3217L531.645 65.2477L539.591 61.1777L539.664 57.2516ZM550.801 51.5582L542.855 55.6283L542.782 59.5543L550.728 55.4843L550.801 51.5582ZM561.96 45.8875L554.014 49.9575L553.941 53.8835L561.886 49.8135L561.96 45.8875ZM573.097 40.1941L565.151 44.2641L565.078 48.1901L573.024 44.1201L573.097 40.1941ZM584.233 34.523L576.288 38.593L576.215 42.519L584.16 38.449L584.233 34.523Z" fill="#B1B1B1"/>
</g>
<g style="mix-blend-mode:multiply">
<path d="M691.489 79.2514L565.305 143.718L565.332 142.268L691.515 77.8238L691.489 79.2514Z" fill="#B1B1B1"/>
</g>
<g opacity="0.7">
<path d="M571.52 66.343L556.082 62.9988L571.484 55.3865L586.922 58.7307L571.52 66.343ZM604.423 62.509L588.985 59.1648L573.583 66.7771L589.021 70.1213L604.423 62.509ZM621.946 66.3099L606.507 62.9657L591.105 70.578L606.543 73.9222L621.946 66.3099ZM569.43 67.3589L553.992 64.0147L523.716 78.9574L539.154 82.3017L569.43 67.3589ZM586.952 71.1598L571.514 67.8156L541.238 82.7584L556.676 86.1026L586.952 71.1598ZM604.453 74.9381L589.015 71.5939L558.739 86.5367L574.177 89.8809L604.453 74.9381ZM537.085 83.3402L521.647 79.996L506.245 87.6083L521.683 90.9525L537.085 83.3402ZM554.586 87.1185L539.148 83.7743L523.746 91.3865L539.184 94.7308L554.586 87.1185ZM572.109 90.9194L556.671 87.5752L541.268 95.1875L556.707 98.5317L572.109 90.9194Z" fill="#064055"/>
<g opacity="0.2">
<path d="M571.52 66.343L556.082 62.9988L571.484 55.3865L586.922 58.7307L571.52 66.343ZM604.423 62.509L588.985 59.1648L573.583 66.7771L589.021 70.1213L604.423 62.509ZM621.946 66.3099L606.507 62.9657L591.105 70.578L606.543 73.9222L621.946 66.3099ZM569.43 67.3589L553.992 64.0147L523.716 78.9574L539.154 82.3017L569.43 67.3589ZM586.952 71.1598L571.514 67.8156L541.238 82.7584L556.676 86.1026L586.952 71.1598ZM604.453 74.9381L589.015 71.5939L558.739 86.5367L574.177 89.8809L604.453 74.9381ZM537.085 83.3402L521.647 79.996L506.245 87.6083L521.683 90.9525L537.085 83.3402ZM554.586 87.1185L539.148 83.7743L523.746 91.3865L539.184 94.7308L554.586 87.1185ZM572.109 90.9194L556.671 87.5752L541.268 95.1875L556.707 98.5317L572.109 90.9194Z" fill="url(#paint0_linear_1_2000)"/>
</g>
</g>
<g opacity="0.7">
<path d="M432.465 35.2391L417.027 31.8949L432.429 24.2826L447.868 27.6269L432.465 35.2391ZM465.39 31.4278L449.952 28.0836L434.55 35.6959L449.988 39.0401L465.39 31.4278ZM482.891 35.2284L467.453 31.8842L452.05 39.4965L467.488 42.8407L482.891 35.2284ZM430.397 36.2777L414.959 32.9335L384.683 47.8762L400.121 51.2205L430.397 36.2777ZM447.898 40.056L432.46 36.7117L402.184 51.6545L417.622 54.9987L447.898 40.056ZM465.42 43.8569L449.982 40.5127L419.706 55.4555L435.144 58.7997L465.42 43.8569ZM398.053 52.2367L382.614 48.8925L367.212 56.5047L382.65 59.849L398.053 52.2367ZM415.553 56.0373L400.115 52.6931L384.713 60.3053L400.151 63.6496L415.553 56.0373ZM433.054 59.8379L417.616 56.4937L402.214 64.1059L417.652 67.4502L433.054 59.8379Z" fill="#064055"/>
<g opacity="0.2">
<path d="M432.465 35.2391L417.027 31.8949L432.429 24.2826L447.868 27.6269L432.465 35.2391ZM465.39 31.4278L449.952 28.0836L434.55 35.6959L449.988 39.0401L465.39 31.4278ZM482.891 35.2284L467.453 31.8842L452.05 39.4965L467.488 42.8407L482.891 35.2284ZM430.397 36.2777L414.959 32.9335L384.683 47.8762L400.121 51.2205L430.397 36.2777ZM447.898 40.056L432.46 36.7117L402.184 51.6545L417.622 54.9987L447.898 40.056ZM465.42 43.8569L449.982 40.5127L419.706 55.4555L435.144 58.7997L465.42 43.8569ZM398.053 52.2367L382.614 48.8925L367.212 56.5047L382.65 59.849L398.053 52.2367ZM415.553 56.0373L400.115 52.6931L384.713 60.3053L400.151 63.6496L415.553 56.0373ZM433.054 59.8379L417.616 56.4937L402.214 64.1059L417.652 67.4502L433.054 59.8379Z" fill="url(#paint1_linear_1_2000)"/>
</g>
</g>
<g opacity="0.7">
<path d="M507.492 44.0719L492.053 40.7277L507.456 33.1154L522.894 36.4596L507.492 44.0719ZM540.416 40.2605L524.978 36.9163L509.576 44.5286L525.014 47.8728L540.416 40.2605ZM505.423 45.1104L489.985 41.7662L459.709 56.709L475.147 60.0532L505.423 45.1104ZM522.924 48.911L507.486 45.5668L477.21 60.5096L492.648 63.8538L522.924 48.911ZM473.057 61.0914L457.619 57.7472L442.216 65.3595L457.654 68.7037L473.057 61.0914ZM490.579 64.87L475.141 61.5258L459.739 69.1381L475.177 72.4823L490.579 64.87Z" fill="#064055"/>
<g opacity="0.2">
<path d="M507.492 44.0719L492.053 40.7277L507.456 33.1154L522.894 36.4596L507.492 44.0719ZM540.416 40.2605L524.978 36.9163L509.576 44.5286L525.014 47.8728L540.416 40.2605ZM505.423 45.1104L489.985 41.7662L459.709 56.709L475.147 60.0532L505.423 45.1104ZM522.924 48.911L507.486 45.5668L477.21 60.5096L492.648 63.8538L522.924 48.911ZM473.057 61.0914L457.619 57.7472L442.216 65.3595L457.654 68.7037L473.057 61.0914ZM490.579 64.87L475.141 61.5258L459.739 69.1381L475.177 72.4823L490.579 64.87Z" fill="url(#paint2_linear_1_2000)"/>
</g>
</g>
<path d="M204.278 121.822L80.8461 94.7119L142.628 63.1499L266.061 90.2372L204.278 121.822Z" fill="#F0F0F0"/>
<path d="M80.5325 111.554L203.965 138.663L204.278 121.822L80.8461 94.712L80.5325 111.554Z" fill="#C6C6C6"/>
<path d="M80.844 94.8235L188.884 118.478L189.198 101.636L81.1576 77.9817L80.844 94.8235Z" fill="#C6C6C6"/>
<path d="M265.748 107.079L203.965 138.663L204.278 121.822L266.061 90.2373L265.748 107.079Z" fill="#B1B1B1"/>
<path d="M189.198 101.636L81.1576 77.9817L142.94 46.4197L250.98 70.0519L189.198 101.636Z" fill="#F0F0F0"/>
<path d="M250.667 86.8938L188.884 118.478L189.198 101.636L250.98 70.052L250.667 86.8938Z" fill="#B1B1B1"/>
<g style="mix-blend-mode:multiply">
<path d="M248.31 79.9841L192.954 108.3L192.978 107.006L248.334 78.7126L248.31 79.9841Z" fill="#B1B1B1"/>
</g>
<g style="mix-blend-mode:multiply">
<path d="M265.748 107.079L203.965 138.663L203.992 137.213L265.774 105.651L265.748 107.079Z" fill="#B1B1B1"/>
</g>
<g style="mix-blend-mode:multiply">
<path d="M80.5325 111.554L203.965 138.663L203.992 137.213L80.5591 110.126L80.5325 111.554Z" fill="#B1B1B1"/>
</g>
<g style="mix-blend-mode:multiply">
<path d="M84.1487 87.1103L183.613 108.867L183.64 107.417L84.1757 85.6604L84.1487 87.1103Z" fill="#B1B1B1"/>
</g>
<g style="mix-blend-mode:multiply" opacity="0.3">
<path d="M189.159 99.0474L88.1978 76.8875L144.298 48.4046L245.259 70.5645L189.159 99.0474Z" fill="#C4C4C4"/>
</g>
<path d="M361.407 149.372L237.974 122.262L299.778 90.7003L423.211 117.788L361.407 149.372Z" fill="#F0F0F0"/>
<path d="M237.568 144.056L361.001 171.166L361.707 133.221L238.274 106.134L237.568 144.056Z" fill="#C6C6C6"/>
<path d="M422.805 139.581L361.001 171.166L361.407 149.372L423.211 117.788L422.805 139.581Z" fill="#B1B1B1"/>
<path d="M361.707 133.221L238.274 106.134L283.441 82.9462L406.852 110.033L361.707 133.221Z" fill="#F0F0F0"/>
<g style="mix-blend-mode:multiply" opacity="0.3">
<path d="M361.465 131.031L244.046 105.265L283.117 85.1501L400.535 110.916L361.465 131.031Z" fill="#C4C4C4"/>
</g>
<path d="M406.368 136.021L361.223 159.209L361.707 133.221L406.852 110.033L406.368 136.021Z" fill="#B1B1B1"/>
<path d="M237.568 144.056L361.001 171.166L361.265 157.001L237.832 129.891L237.568 144.056Z" fill="#6D6E71"/>
<path d="M422.805 139.582L361.001 171.166L361.145 163.425L422.949 131.863L422.805 139.582Z" fill="#B1B1B1"/>
<path d="M423.1 123.766L361.296 155.328L361.319 154.056L423.124 122.472L423.1 123.766Z" fill="#B1B1B1"/>
<path d="M220.937 132.214L344.37 159.301L344.437 155.687L221.004 128.6L220.937 132.214Z" fill="#C6C6C6"/>
<path d="M344.37 159.301L361.408 150.487L361.475 146.874L344.437 155.687L344.37 159.301Z" fill="#B1B1B1"/>
<path d="M344.437 155.687L221.004 128.6L238.042 119.764L361.475 146.874L344.437 155.687Z" fill="#F0F0F0"/>
<g style="mix-blend-mode:multiply">
<path d="M422.805 139.582L361.001 171.166L361.028 169.716L422.832 138.154L422.805 139.582Z" fill="#B1B1B1"/>
</g>
<g style="mix-blend-mode:multiply">
<path d="M401.965 139.522L366.308 157.749L366.352 155.429L402.008 137.224L401.965 139.522Z" fill="#B1B1B1"/>
</g>
<g style="mix-blend-mode:multiply">
<path d="M402.176 128.19L366.519 146.417L366.562 144.097L402.219 125.892L402.176 128.19Z" fill="#B1B1B1"/>
</g>
<g style="mix-blend-mode:multiply">
<path d="M237.568 144.056L248.054 138.218L237.72 135.936L237.568 144.056Z" fill="#B1B1B1"/>
</g>
</g>
</g>
<defs>
<linearGradient id="paint0_linear_1_2000" x1="502.853" y1="75.5907" x2="618.359" y2="78.5292" gradientUnits="userSpaceOnUse">
<stop stop-color="white" stop-opacity="0.02"/>
<stop offset="0.06" stop-color="white" stop-opacity="0.0121"/>
<stop offset="0.2" stop-color="white" stop-opacity="0.1225"/>
<stop offset="0.39" stop-color="white" stop-opacity="0.5329"/>
<stop offset="0.52" stop-color="white"/>
<stop offset="0.56" stop-color="white" stop-opacity="0.02"/>
<stop offset="1" stop-color="white"/>
</linearGradient>
<linearGradient id="paint1_linear_1_2000" x1="364.318" y1="44.5267" x2="479.803" y2="47.4647" gradientUnits="userSpaceOnUse">
<stop stop-color="white" stop-opacity="0.02"/>
<stop offset="0.06" stop-color="white" stop-opacity="0.0121"/>
<stop offset="0.2" stop-color="white" stop-opacity="0.1225"/>
<stop offset="0.39" stop-color="white" stop-opacity="0.5329"/>
<stop offset="0.52" stop-color="white"/>
<stop offset="0.56" stop-color="white" stop-opacity="0.02"/>
<stop offset="1" stop-color="white"/>
</linearGradient>
<linearGradient id="paint2_linear_1_2000" x1="439.25" y1="51.6631" x2="537.216" y2="54.1554" gradientUnits="userSpaceOnUse">
<stop stop-color="white" stop-opacity="0.02"/>
<stop offset="0.06" stop-color="white" stop-opacity="0.0121"/>
<stop offset="0.2" stop-color="white" stop-opacity="0.1225"/>
<stop offset="0.39" stop-color="white" stop-opacity="0.5329"/>
<stop offset="0.52" stop-color="white"/>
<stop offset="0.56" stop-color="white" stop-opacity="0.02"/>
<stop offset="1" stop-color="white"/>
</linearGradient>
<clipPath id="clip0_1_2000">
<rect width="460" height="116" fill="white" transform="scale(2)"/>
</clipPath>
<clipPath id="clip1_1_2000">
<rect width="459.634" height="114.912" fill="white" transform="matrix(1.99975 0.0314305 -0.0372281 1.99965 0 -6.67944)"/>
</clipPath>
<clipPath id="clip2_1_2000">
<rect width="17.4686" height="24.3831" fill="white" transform="matrix(1.99975 0.0314305 -0.0372281 1.99965 752.985 29.0754)"/>
</clipPath>
<clipPath id="clip3_1_2000">
<rect width="17.4686" height="24.3831" fill="white" transform="matrix(1.99975 0.0314305 -0.0372281 1.99965 783.764 35.1154)"/>
</clipPath>
<clipPath id="clip4_1_2000">
<rect width="17.4686" height="24.3831" fill="white" transform="matrix(1.99975 0.0314305 -0.0372281 1.99965 816.733 40.6763)"/>
</clipPath>
<clipPath id="clip5_1_2000">
<rect width="13.5686" height="9.66339" fill="white" transform="matrix(1.99975 0.0314305 -0.0372281 1.99965 625.371 38.048)"/>
</clipPath>
<clipPath id="clip6_1_2000">
<rect width="13.5687" height="9.66339" fill="white" transform="matrix(1.99975 0.0314305 -0.0372281 1.99965 657.094 42.563)"/>
</clipPath>
<clipPath id="clip7_1_2000">
<rect width="13.5687" height="9.66339" fill="white" transform="matrix(1.99975 0.0314305 -0.0372281 1.99965 691.388 47.2076)"/>
</clipPath>
<clipPath id="clip8_1_2000">
<rect width="13.5687" height="9.66339" fill="white" transform="matrix(1.99975 0.0314305 -0.0372281 1.99965 806.037 83.5287)"/>
</clipPath>
<clipPath id="clip9_1_2000">
<rect width="13.5686" height="9.66339" fill="white" transform="matrix(1.99975 0.0314305 -0.0372281 1.99965 788.673 94.6356)"/>
</clipPath>
<clipPath id="clip10_1_2000">
<rect width="13.5687" height="9.66339" fill="white" transform="matrix(1.99975 0.0314305 -0.0372281 1.99965 771.309 105.743)"/>
</clipPath>
<clipPath id="clip11_1_2000">
<rect width="13.5686" height="9.66339" fill="white" transform="matrix(1.99975 0.0314305 -0.0372281 1.99965 753.945 116.85)"/>
</clipPath>
<clipPath id="clip12_1_2000">
<rect width="13.5687" height="9.66339" fill="white" transform="matrix(1.99975 0.0314305 -0.0372281 1.99965 736.581 127.957)"/>
</clipPath>
<clipPath id="clip13_1_2000">
<rect width="13.5687" height="9.66339" fill="white" transform="matrix(1.99975 0.0314305 -0.0372281 1.99965 719.217 139.064)"/>
</clipPath>
<clipPath id="clip14_1_2000">
<rect width="13.5686" height="9.66339" fill="white" transform="matrix(1.99975 0.0314305 -0.0372281 1.99965 701.854 150.171)"/>
</clipPath>
<clipPath id="clip15_1_2000">
<rect width="13.5686" height="9.66339" fill="white" transform="matrix(1.99975 0.0314305 -0.0372281 1.99965 681.923 160.969)"/>
</clipPath>
<clipPath id="clip16_1_2000">
<rect width="13.5687" height="9.66339" fill="white" transform="matrix(1.99975 0.0314305 -0.0372281 1.99965 661.992 171.768)"/>
</clipPath>
<clipPath id="clip17_1_2000">
<rect width="17.4686" height="24.3831" fill="white" transform="matrix(1.99975 0.0314305 -0.0372281 1.99965 753.005 28.0271)"/>
</clipPath>
<clipPath id="clip18_1_2000">
<rect width="17.4686" height="24.3831" fill="white" transform="matrix(1.99975 0.0314305 -0.0372281 1.99965 783.784 34.0446)"/>
</clipPath>
<clipPath id="clip19_1_2000">
<rect width="17.4686" height="24.3831" fill="white" transform="matrix(1.99975 0.0314305 -0.0372281 1.99965 816.753 39.6056)"/>
</clipPath>
<clipPath id="clip20_1_2000">
<rect width="13.5686" height="9.66339" fill="white" transform="matrix(1.99975 0.0314305 -0.0372281 1.99965 625.391 36.9773)"/>
</clipPath>
<clipPath id="clip21_1_2000">
<rect width="13.5687" height="9.66339" fill="white" transform="matrix(1.99975 0.0314305 -0.0372281 1.99965 657.114 41.4923)"/>
</clipPath>
<clipPath id="clip22_1_2000">
<rect width="13.5687" height="9.66339" fill="white" transform="matrix(1.99975 0.0314305 -0.0372281 1.99965 691.408 46.137)"/>
</clipPath>
<clipPath id="clip23_1_2000">
<rect width="13.5687" height="9.66339" fill="white" transform="matrix(1.99975 0.0314305 -0.0372281 1.99965 806.057 82.4579)"/>
</clipPath>
<clipPath id="clip24_1_2000">
<rect width="13.5686" height="9.66339" fill="white" transform="matrix(1.99975 0.0314305 -0.0372281 1.99965 788.693 93.5649)"/>
</clipPath>
<clipPath id="clip25_1_2000">
<rect width="13.5687" height="9.66339" fill="white" transform="matrix(1.99975 0.0314305 -0.0372281 1.99965 771.329 104.672)"/>
</clipPath>
<clipPath id="clip26_1_2000">
<rect width="13.5686" height="9.66339" fill="white" transform="matrix(1.99975 0.0314305 -0.0372281 1.99965 753.965 115.779)"/>
</clipPath>
<clipPath id="clip27_1_2000">
<rect width="13.5687" height="9.66339" fill="white" transform="matrix(1.99975 0.0314305 -0.0372281 1.99965 736.601 126.886)"/>
</clipPath>
<clipPath id="clip28_1_2000">
<rect width="13.5687" height="9.66339" fill="white" transform="matrix(1.99975 0.0314305 -0.0372281 1.99965 719.237 137.993)"/>
</clipPath>
<clipPath id="clip29_1_2000">
<rect width="13.5686" height="9.66339" fill="white" transform="matrix(1.99975 0.0314305 -0.0372281 1.99965 701.873 149.1)"/>
</clipPath>
<clipPath id="clip30_1_2000">
<rect width="13.5686" height="9.66339" fill="white" transform="matrix(1.99975 0.0314305 -0.0372281 1.99965 681.943 159.899)"/>
</clipPath>
<clipPath id="clip31_1_2000">
<rect width="13.5687" height="9.66339" fill="white" transform="matrix(1.99975 0.0314305 -0.0372281 1.99965 662.012 170.72)"/>
</clipPath>
</defs>
</svg>
