<svg width="445" height="121" viewBox="0 0 445 121" fill="none" xmlns="http://www.w3.org/2000/svg">
<g clip-path="url(#clip0_12_1551)">
<g clip-path="url(#clip1_12_1551)">
<g clip-path="url(#clip2_12_1551)">
<path d="M372.221 40.7372C375.872 40.799 378.853 39.5705 378.88 37.9932C378.907 36.4159 375.97 35.0871 372.32 35.0252C368.669 34.9634 365.688 36.1919 365.661 37.7692C365.633 39.3465 368.571 40.6753 372.221 40.7372Z" fill="black"/>
<path d="M372.66 15.3075C372.66 15.3075 370.337 37.9899 370.334 38.1403C370.323 38.8211 371.179 39.384 372.244 39.402C373.31 39.4201 374.184 38.8865 374.196 38.2057C374.199 38.0554 372.66 15.3075 372.66 15.3075Z" fill="#5E853A"/>
<g style="mix-blend-mode:multiply" opacity="0.2">
<path d="M372.244 39.402C373.31 39.4201 374.184 38.8865 374.196 38.2057C374.199 38.0554 372.66 15.3075 372.66 15.3075" fill="black"/>
</g>
<path d="M372.338 33.9465C377.002 34.0255 380.855 29.9171 380.944 24.7701C381.033 19.6231 377.324 15.3865 372.66 15.3075C367.996 15.2284 364.144 19.3368 364.055 24.4839C363.966 29.6309 367.675 33.8674 372.338 33.9465Z" fill="#6EBA44"/>
<path d="M372.66 15.3075C377.323 15.3865 381.032 19.624 380.944 24.7701C380.855 29.9162 377.001 34.0255 372.338 33.9465" fill="black"/>
</g>
<g clip-path="url(#clip3_12_1551)">
<path d="M387.109 43.8873C390.759 43.9491 393.741 42.7206 393.768 41.1433C393.795 39.566 390.858 38.2372 387.207 38.1753C383.557 38.1134 380.576 39.342 380.548 40.9193C380.521 42.4966 383.458 43.8254 387.109 43.8873Z" fill="black"/>
<path d="M387.548 18.4576C387.548 18.4576 385.225 41.14 385.222 41.2903C385.21 41.9712 386.066 42.5341 387.132 42.5521C388.197 42.5702 389.072 42.0366 389.084 41.3558C389.086 41.2055 387.548 18.4576 387.548 18.4576Z" fill="#5E853A"/>
<g style="mix-blend-mode:multiply" opacity="0.2">
<path d="M387.132 42.5521C388.197 42.5702 389.072 42.0366 389.084 41.3558C389.086 41.2055 387.548 18.4576 387.548 18.4576" fill="black"/>
</g>
<path d="M387.226 37.0966C391.89 37.1756 395.742 33.0672 395.831 27.9202C395.92 22.7732 392.212 18.5366 387.548 18.4576C382.884 18.3785 379.031 22.4869 378.942 27.634C378.854 32.781 382.562 37.0175 387.226 37.0966Z" fill="#6EBA44"/>
<path d="M387.548 18.4576C392.211 18.5366 395.92 22.7741 395.831 27.9202C395.743 33.0662 391.889 37.1756 387.226 37.0966" fill="black"/>
</g>
<g clip-path="url(#clip4_12_1551)">
<path d="M403.055 46.7877C406.706 46.8495 409.687 45.621 409.714 44.0437C409.742 42.4664 406.804 41.1376 403.154 41.0757C399.504 41.0138 396.522 42.2423 396.495 43.8197C396.468 45.397 399.405 46.7258 403.055 46.7877Z" fill="black"/>
<path d="M403.494 21.358C403.494 21.358 401.171 44.0404 401.169 44.1907C401.157 44.8716 402.013 45.4344 403.078 45.4525C404.144 45.4706 405.019 44.937 405.03 44.2562C405.033 44.1059 403.494 21.358 403.494 21.358Z" fill="#5E853A"/>
<g style="mix-blend-mode:multiply" opacity="0.2">
<path d="M403.078 45.4525C404.144 45.4706 405.019 44.937 405.031 44.2562C405.033 44.1059 403.495 21.358 403.495 21.358" fill="black"/>
</g>
<path d="M403.173 39.9969C407.836 40.076 411.689 35.9676 411.778 30.8206C411.867 25.6735 408.158 21.437 403.494 21.358C398.831 21.2789 394.978 25.3873 394.889 30.5343C394.8 35.6814 398.509 39.9179 403.173 39.9969Z" fill="#6EBA44"/>
<path d="M403.495 21.358C408.157 21.437 411.867 25.6745 411.778 30.8206C411.689 35.9666 407.836 40.076 403.173 39.997" fill="black"/>
</g>
<g clip-path="url(#clip5_12_1551)">
<path d="M308.878 30.0334C312.502 30.0948 315.456 29.207 315.476 28.0504C315.496 26.8938 312.574 25.9065 308.95 25.845C305.326 25.7836 302.371 26.6714 302.351 27.828C302.331 28.9846 305.253 29.9719 308.878 30.0334Z" fill="black"/>
<path d="M302.735 26.6911C302.8 22.9129 305.628 19.8972 309.051 19.9552C312.475 20.0132 315.197 23.123 315.132 26.9012C315.108 28.3148 312.313 29.4108 308.889 29.3528C305.466 29.2948 302.711 28.0959 302.735 26.6911Z" fill="#6EBA44"/>
<path d="M309.052 19.9552C312.475 20.0132 315.197 23.123 315.132 26.9012C315.108 28.3147 312.313 29.4108 308.889 29.3528" fill="black"/>
</g>
<g clip-path="url(#clip6_12_1551)">
<path d="M324.222 32.3882C327.846 32.4496 330.8 31.5618 330.82 30.4053C330.84 29.2487 327.918 28.2613 324.294 28.1999C320.67 28.1385 317.716 29.0263 317.696 30.1828C317.676 31.3394 320.598 32.3268 324.222 32.3882Z" fill="black"/>
<path d="M318.079 29.046C318.144 25.2677 320.972 22.252 324.396 22.3101C327.819 22.3681 330.542 25.4778 330.476 29.2561C330.452 30.6696 327.657 31.7657 324.234 31.7076C320.81 31.6496 318.055 30.4508 318.079 29.046Z" fill="#6EBA44"/>
<path d="M324.396 22.3101C327.819 22.3681 330.542 25.4778 330.476 29.256C330.452 30.6696 327.657 31.7656 324.234 31.7076" fill="black"/>
</g>
<g clip-path="url(#clip7_12_1551)">
<path d="M340.809 34.8107C344.434 34.8721 347.388 33.9843 347.408 32.8277C347.428 31.6711 344.506 30.6837 340.882 30.6223C337.257 30.5609 334.303 31.4487 334.283 32.6053C334.263 33.7618 337.185 34.7492 340.809 34.8107Z" fill="black"/>
<path d="M334.667 31.4684C334.732 27.6902 337.56 24.6745 340.983 24.7325C344.407 24.7905 347.129 27.9003 347.064 31.6785C347.039 33.092 344.245 34.1881 340.821 34.1301C337.398 34.072 334.642 32.8732 334.667 31.4684Z" fill="#6EBA44"/>
<path d="M340.983 24.7325C344.407 24.7905 347.129 27.9002 347.064 31.6785C347.039 33.092 344.245 34.1881 340.821 34.13" fill="black"/>
</g>
<g clip-path="url(#clip8_12_1551)">
<path d="M396.265 53.7539C399.889 53.8154 402.843 52.9276 402.863 51.771C402.883 50.6144 399.962 49.627 396.337 49.5656C392.713 49.5042 389.759 50.392 389.739 51.5486C389.719 52.7051 392.641 53.6925 396.265 53.7539Z" fill="black"/>
<path d="M390.122 50.4117C390.187 46.6335 393.015 43.6178 396.439 43.6758C399.862 43.7338 402.585 46.8436 402.519 50.6218C402.495 52.0353 399.7 53.1314 396.277 53.0734C392.853 53.0153 390.098 51.8165 390.122 50.4117Z" fill="#6EBA44"/>
<path d="M396.439 43.6758C399.862 43.7338 402.585 46.8435 402.519 50.6218C402.495 52.0353 399.7 53.1314 396.277 53.0733" fill="black"/>
</g>
<g clip-path="url(#clip9_12_1551)">
<path d="M387.866 59.5468C391.49 59.6082 394.445 58.7204 394.465 57.5638C394.484 56.4073 391.563 55.4199 387.938 55.3585C384.314 55.297 381.36 56.1848 381.34 57.3414C381.32 58.498 384.242 59.4854 387.866 59.5468Z" fill="black"/>
<path d="M381.723 56.2045C381.789 52.4263 384.617 49.4106 388.04 49.4686C391.463 49.5267 394.186 52.6364 394.121 56.4146C394.096 57.8282 391.301 58.9242 387.878 58.8662C384.454 58.8082 381.699 57.6094 381.723 56.2045Z" fill="#6EBA44"/>
<path d="M388.04 49.4686C391.463 49.5266 394.186 52.6364 394.121 56.4146C394.096 57.8282 391.301 58.9242 387.878 58.8662" fill="black"/>
</g>
<g clip-path="url(#clip10_12_1551)">
<path d="M379.467 65.3396C383.092 65.4011 386.046 64.5133 386.066 63.3567C386.086 62.2001 383.164 61.2127 379.54 61.1513C375.915 61.0899 372.961 61.9777 372.941 63.1343C372.921 64.2908 375.843 65.2782 379.467 65.3396Z" fill="black"/>
<path d="M373.325 61.9974C373.39 58.2191 376.218 55.2035 379.641 55.2615C383.065 55.3195 385.787 58.4292 385.722 62.2075C385.697 63.621 382.903 64.7171 379.479 64.659C376.056 64.601 373.3 63.4022 373.325 61.9974Z" fill="#6EBA44"/>
<path d="M379.641 55.2615C383.065 55.3195 385.787 58.4292 385.722 62.2075C385.697 63.621 382.902 64.7171 379.479 64.659" fill="black"/>
</g>
<g clip-path="url(#clip11_12_1551)">
<path d="M371.068 71.1326C374.693 71.194 377.647 70.3062 377.667 69.1496C377.687 67.993 374.765 67.0056 371.141 66.9442C367.517 66.8828 364.562 67.7706 364.542 68.9272C364.522 70.0837 367.444 71.0711 371.068 71.1326Z" fill="black"/>
<path d="M364.926 67.7903C364.991 64.0121 367.819 60.9964 371.242 61.0544C374.666 61.1124 377.388 64.2222 377.323 68.0004C377.298 69.4139 374.504 70.51 371.08 70.452C367.657 70.3939 364.901 69.1951 364.926 67.7903Z" fill="#6EBA44"/>
<path d="M371.242 61.0544C374.666 61.1124 377.388 64.2221 377.323 68.0004C377.299 69.4139 374.504 70.51 371.08 70.4519" fill="black"/>
</g>
<g clip-path="url(#clip12_12_1551)">
<path d="M362.67 76.9254C366.294 76.9868 369.248 76.099 369.268 74.9424C369.288 73.7859 366.366 72.7985 362.742 72.7371C359.118 72.6756 356.163 73.5634 356.143 74.72C356.123 75.8766 359.045 76.864 362.67 76.9254Z" fill="black"/>
<path d="M356.527 73.5831C356.592 69.8049 359.42 66.7892 362.843 66.8472C366.267 66.9053 368.989 70.015 368.924 73.7932C368.9 75.2068 366.105 76.3028 362.681 76.2448C359.258 76.1868 356.503 74.988 356.527 73.5831Z" fill="#6EBA44"/>
<path d="M362.844 66.8472C366.267 66.9052 368.989 70.015 368.924 73.7932C368.9 75.2068 366.105 76.3028 362.681 76.2448" fill="black"/>
</g>
<g clip-path="url(#clip13_12_1551)">
<path d="M354.271 82.7182C357.895 82.7797 360.849 81.8919 360.869 80.7353C360.889 79.5787 357.967 78.5913 354.343 78.5299C350.719 78.4685 347.764 79.3563 347.744 80.5129C347.725 81.6694 350.646 82.6568 354.271 82.7182Z" fill="black"/>
<path d="M348.128 79.376C348.193 75.5978 351.021 72.5821 354.445 72.6401C357.868 72.6981 360.59 75.8078 360.525 79.5861C360.501 80.9996 357.706 82.0957 354.282 82.0376C350.859 81.9796 348.104 80.7808 348.128 79.376Z" fill="#6EBA44"/>
<path d="M354.445 72.6401C357.868 72.6981 360.59 75.8078 360.525 79.5861C360.501 80.9996 357.706 82.0957 354.282 82.0376" fill="black"/>
</g>
<g clip-path="url(#clip14_12_1551)">
<path d="M345.872 88.5112C349.496 88.5726 352.45 87.6848 352.47 86.5282C352.49 85.3716 349.568 84.3842 345.944 84.3228C342.32 84.2614 339.366 85.1492 339.346 86.3058C339.326 87.4623 342.248 88.4497 345.872 88.5112Z" fill="black"/>
<path d="M339.729 85.1689C339.794 81.3907 342.622 78.375 346.046 78.433C349.469 78.491 352.191 81.6008 352.126 85.379C352.102 86.7925 349.307 87.8886 345.884 87.8306C342.46 87.7725 339.705 86.5737 339.729 85.1689Z" fill="#6EBA44"/>
<path d="M346.046 78.433C349.469 78.491 352.191 81.6007 352.126 85.379C352.102 86.7925 349.307 87.8886 345.884 87.8305" fill="black"/>
</g>
<g clip-path="url(#clip15_12_1551)">
<path d="M336.231 94.1433C339.856 94.2047 342.81 93.3169 342.83 92.1603C342.85 91.0038 339.928 90.0164 336.304 89.955C332.679 89.8935 329.725 90.7813 329.705 91.9379C329.685 93.0945 332.607 94.0819 336.231 94.1433Z" fill="black"/>
<path d="M330.089 90.801C330.154 87.0228 332.982 84.0071 336.405 84.0651C339.829 84.1232 342.551 87.2329 342.486 91.0111C342.461 92.4247 339.667 93.5207 336.243 93.4627C332.82 93.4047 330.064 92.2059 330.089 90.801Z" fill="#6EBA44"/>
<path d="M336.405 84.0651C339.829 84.1231 342.551 87.2329 342.486 91.0111C342.461 92.4247 339.667 93.5207 336.243 93.4627" fill="black"/>
</g>
<g clip-path="url(#clip16_12_1551)">
<path d="M326.591 99.7754C330.215 99.8369 333.17 98.9491 333.189 97.7925C333.209 96.6359 330.288 95.6485 326.663 95.5871C323.039 95.5257 320.085 96.4135 320.065 97.5701C320.045 98.7266 322.967 99.714 326.591 99.7754Z" fill="black"/>
<path d="M320.448 96.4332C320.514 92.6549 323.342 89.6393 326.765 89.6973C330.188 89.7553 332.911 92.865 332.845 96.6433C332.821 98.0568 330.026 99.1529 326.603 99.0948C323.179 99.0368 320.424 97.838 320.448 96.4332Z" fill="#6EBA44"/>
<path d="M326.765 89.6973C330.188 89.7553 332.911 92.865 332.845 96.6433C332.821 98.0568 330.026 99.1528 326.603 99.0948" fill="black"/>
</g>
<path d="M295.709 119.976C267.993 123.917 239.707 116.234 239.707 116.234L-1.08837 59.5507C-1.08837 59.5507 137.813 1.93588 196.931 1.75073C236.413 1.62848 361.554 20.298 444.085 33.346L336.774 104.577C336.774 104.577 323.416 116.023 295.71 119.964L295.709 119.976Z" fill="#DCDCDB"/>
<path d="M236.461 97.1861C233.352 98.9139 228.002 99.7427 224.587 99.0331L186.93 91.1912C183.515 90.4816 183.264 88.4873 186.384 86.7596L211.468 72.8588C214.577 71.1309 219.915 70.3718 223.318 71.1627L259.448 79.5489C262.85 80.3398 263.089 82.4037 259.98 84.1315L236.471 97.1979L236.461 97.1861Z" fill="#89CDB9"/>
<path d="M275.292 76.7335L221.092 63.8514L305.085 20.9587L359.855 30.1729L275.292 76.7335Z" fill="#89CDB9"/>
<path d="M299.541 110.009C277.229 112.343 259.791 107.904 259.791 107.904L242.619 103.936L366.263 31.5733L410.343 39.3727C410.343 39.3727 413.737 40.0587 414.972 41.802C416.846 44.4639 412.51 47.6024 412.51 47.6024L338.949 96.4325C338.949 96.4325 321.852 107.664 299.541 109.998L299.541 110.009Z" fill="#89CDB9"/>
<g clip-path="url(#clip17_12_1551)">
<path opacity="0.3" d="M372.23 40.1904C375.881 40.2523 378.862 39.0238 378.89 37.4465C378.917 35.8692 375.98 34.5403 372.329 34.4785C368.679 34.4166 365.697 35.6451 365.67 37.2224C365.643 38.7997 368.58 40.1286 372.23 40.1904Z" fill="black"/>
<path d="M372.669 14.7607C372.669 14.7607 370.346 37.4432 370.344 37.5935C370.332 38.2743 371.188 38.8372 372.253 38.8553C373.319 38.8733 374.194 38.3398 374.206 37.659C374.208 37.5086 372.669 14.7607 372.669 14.7607Z" fill="#9B7225"/>
<g style="mix-blend-mode:multiply" opacity="0.2">
<path d="M372.254 38.8553C373.319 38.8733 374.194 38.3398 374.206 37.6589C374.208 37.5086 372.67 14.7607 372.67 14.7607" fill="black"/>
</g>
<path d="M372.348 33.3997C377.011 33.4788 380.864 29.3704 380.953 24.2233C381.042 19.0763 377.333 14.8398 372.67 14.7607C368.006 14.6817 364.153 18.7901 364.064 23.9371C363.975 29.0841 367.684 33.3207 372.348 33.3997Z" fill="#4B9E81"/>
<path opacity="0.3" d="M372.67 14.7607C377.332 14.8398 381.042 19.0773 380.953 24.2234C380.864 29.3694 377.011 33.4788 372.348 33.3997" fill="black"/>
</g>
<g clip-path="url(#clip18_12_1551)">
<path opacity="0.3" d="M387.118 43.3289C390.769 43.3907 393.75 42.1622 393.777 40.5849C393.805 39.0076 390.867 37.6788 387.217 37.6169C383.567 37.555 380.585 38.7835 380.558 40.3609C380.531 41.9382 383.468 43.267 387.118 43.3289Z" fill="black"/>
<path d="M387.557 17.8992C387.557 17.8992 385.234 40.5816 385.232 40.7319C385.22 41.4128 386.076 41.9756 387.141 41.9937C388.207 42.0118 389.082 41.4782 389.093 40.7974C389.096 40.6471 387.557 17.8992 387.557 17.8992Z" fill="#9B7225"/>
<g style="mix-blend-mode:multiply" opacity="0.2">
<path d="M387.141 41.9937C388.207 42.0118 389.082 41.4782 389.094 40.7974C389.096 40.6471 387.557 17.8992 387.557 17.8992" fill="black"/>
</g>
<path d="M387.236 36.5381C391.899 36.6172 395.752 32.5088 395.841 27.3618C395.93 22.2147 392.221 17.9782 387.557 17.8992C382.894 17.8201 379.041 21.9285 378.952 27.0755C378.863 32.2226 382.572 36.4591 387.236 36.5381Z" fill="#4B9E81"/>
<path opacity="0.3" d="M387.557 17.8992C392.22 17.9782 395.93 22.2157 395.841 27.3618C395.752 32.5078 391.899 36.6172 387.236 36.5382" fill="black"/>
</g>
<g clip-path="url(#clip19_12_1551)">
<path opacity="0.3" d="M403.065 46.2292C406.716 46.291 409.697 45.0625 409.724 43.4852C409.751 41.9079 406.814 40.5791 403.164 40.5172C399.513 40.4554 396.532 41.6839 396.505 43.2612C396.477 44.8385 399.415 46.1673 403.065 46.2292Z" fill="black"/>
<path d="M403.504 20.7995C403.504 20.7995 401.181 43.482 401.178 43.6323C401.167 44.3131 402.022 44.876 403.088 44.894C404.154 44.9121 405.028 44.3785 405.04 43.6977C405.043 43.5474 403.504 20.7995 403.504 20.7995Z" fill="#9B7225"/>
<g style="mix-blend-mode:multiply" opacity="0.2">
<path d="M403.088 44.894C404.154 44.9121 405.028 44.3785 405.04 43.6977C405.043 43.5474 403.504 20.7995 403.504 20.7995" fill="black"/>
</g>
<path d="M403.182 39.4385C407.846 39.5175 411.699 35.4091 411.788 30.2621C411.877 25.1151 408.168 20.8785 403.504 20.7995C398.84 20.7204 394.988 24.8289 394.899 29.9759C394.81 35.1229 398.519 39.3594 403.182 39.4385Z" fill="#4B9E81"/>
<path opacity="0.3" d="M403.504 20.7995C408.167 20.8785 411.877 25.116 411.788 30.2621C411.699 35.4082 407.845 39.5175 403.182 39.4385" fill="black"/>
</g>
<g clip-path="url(#clip20_12_1551)">
<path opacity="0.3" d="M308.887 29.475C312.511 29.5364 315.466 28.6486 315.486 27.492C315.506 26.3354 312.584 25.348 308.96 25.2866C305.335 25.2252 302.381 26.113 302.361 27.2696C302.341 28.4262 305.263 29.4135 308.887 29.475Z" fill="black"/>
<path d="M302.745 26.1327C302.81 22.3545 305.638 19.3388 309.061 19.3968C312.485 19.4548 315.207 22.5646 315.142 26.3428C315.117 27.7563 312.322 28.8524 308.899 28.7944C305.476 28.7363 302.72 27.5375 302.745 26.1327Z" fill="#4B9E81"/>
<path opacity="0.3" d="M309.061 19.3968C312.485 19.4548 315.207 22.5646 315.142 26.3428C315.117 27.7563 312.322 28.8524 308.899 28.7944" fill="black"/>
</g>
<g clip-path="url(#clip21_12_1551)">
<path opacity="0.3" d="M324.232 31.8298C327.856 31.8912 330.81 31.0034 330.83 29.8468C330.85 28.6902 327.928 27.7028 324.304 27.6414C320.68 27.58 317.725 28.4678 317.705 29.6244C317.685 30.781 320.607 31.7683 324.232 31.8298Z" fill="black"/>
<path d="M318.089 28.4875C318.154 24.7093 320.982 21.6936 324.406 21.7516C327.829 21.8096 330.551 24.9194 330.486 28.6976C330.462 30.1111 327.667 31.2072 324.243 31.1492C320.82 31.0911 318.065 29.8923 318.089 28.4875Z" fill="#4B9E81"/>
<path opacity="0.3" d="M324.406 21.7516C327.829 21.8096 330.551 24.9194 330.486 28.6976C330.462 30.1111 327.667 31.2072 324.243 31.1492" fill="black"/>
</g>
<g clip-path="url(#clip22_12_1551)">
<path opacity="0.3" d="M340.819 34.2522C344.443 34.3137 347.398 33.4259 347.418 32.2693C347.437 31.1127 344.516 30.1253 340.891 30.0639C337.267 30.0025 334.313 30.8903 334.293 32.0469C334.273 33.2034 337.195 34.1908 340.819 34.2522Z" fill="black"/>
<path d="M334.676 30.91C334.742 27.1317 337.57 24.1161 340.993 24.1741C344.416 24.2321 347.139 27.3418 347.074 31.1201C347.049 32.5336 344.254 33.6297 340.831 33.5716C337.407 33.5136 334.652 32.3148 334.676 30.91Z" fill="#4B9E81"/>
<path opacity="0.3" d="M340.993 24.1741C344.417 24.2321 347.139 27.3418 347.074 31.1201C347.049 32.5336 344.254 33.6297 340.831 33.5716" fill="black"/>
</g>
<path d="M136.208 31.9804L108.661 25.4619L131.455 12.9072L158.991 19.4254L136.208 31.9804Z" fill="#F0F0F0"/>
<path d="M108.536 32.6868L136.083 39.2053L136.208 31.9804L108.661 25.462L108.536 32.6868Z" fill="#C6C6C6"/>
<path d="M158.866 26.6619L136.083 39.2052L136.208 31.9804L158.991 19.4254L158.866 26.6619Z" fill="#B1B1B1"/>
<path d="M158.866 26.6619L136.083 39.2053L136.136 36.1338L158.919 23.5789L158.866 26.6619Z" fill="#B1B1B1"/>
<path d="M158.922 23.4043L136.139 35.9593L136.154 35.0984L158.937 22.5434L158.922 23.4043Z" fill="black"/>
<path d="M108.592 29.4409L136.139 35.9593L136.154 35.0984L108.607 28.58L108.592 29.4409Z" fill="black"/>
<g style="mix-blend-mode:multiply">
<path d="M158.866 26.6619L136.083 39.2053L136.096 38.4607L158.879 25.9057L158.866 26.6619Z" fill="#B1B1B1"/>
</g>
<g style="mix-blend-mode:multiply">
<path d="M108.536 32.6869L136.083 39.2053L136.096 38.4607L108.549 31.9423L108.536 32.6869Z" fill="#B1B1B1"/>
</g>
<path d="M367.877 54.7363L330.68 45.878L349.396 35.5701L386.593 44.4166L367.877 54.7363Z" fill="#F0F0F0"/>
<g style="mix-blend-mode:multiply" opacity="0.6">
<path d="M367.745 53.8496L332.637 45.5039L349.52 36.2937L384.628 44.651L367.745 53.8496Z" fill="#C4C4C4"/>
</g>
<g style="mix-blend-mode:multiply" opacity="0.5">
<path d="M367.745 53.8496L332.637 45.5039L349.52 36.2937L384.628 44.651L367.745 53.8496Z" fill="#C7D9F4"/>
</g>
<path d="M330.533 54.3711L367.731 63.2176L367.877 54.7363L330.68 45.8781L330.533 54.3711Z" fill="#C6C6C6"/>
<path d="M386.446 52.9096L367.731 63.2176L367.877 54.7362L386.593 44.4166L386.446 52.9096Z" fill="#B1B1B1"/>
<g style="mix-blend-mode:multiply">
<path d="M330.533 54.3711L367.731 63.2176L367.774 60.693L330.577 51.8464L330.533 54.3711Z" fill="#C6C6C6"/>
</g>
<g style="mix-blend-mode:multiply">
<path d="M386.446 52.9096L367.731 63.2176L367.774 60.693L386.49 50.385L386.446 52.9096Z" fill="#B1B1B1"/>
</g>
<g style="mix-blend-mode:multiply">
<path d="M386.536 47.744L367.82 58.052L367.827 57.6332L386.543 47.3252L386.536 47.744Z" fill="#B1B1B1"/>
</g>
<g clip-path="url(#clip23_12_1551)">
<path opacity="0.3" d="M396.275 53.1955C399.899 53.2569 402.853 52.3691 402.873 51.2125C402.893 50.056 399.971 49.0686 396.347 49.0071C392.723 48.9457 389.768 49.8335 389.749 50.9901C389.729 52.1467 392.65 53.1341 396.275 53.1955Z" fill="black"/>
<path d="M390.132 49.8532C390.197 46.075 393.025 43.0593 396.449 43.1173C399.872 43.1753 402.594 46.2851 402.529 50.0633C402.505 51.4769 399.71 52.5729 396.286 52.5149C392.863 52.4569 390.108 51.258 390.132 49.8532Z" fill="#4B9E81"/>
<path opacity="0.3" d="M396.449 43.1173C399.872 43.1753 402.594 46.2851 402.529 50.0633C402.505 51.4769 399.71 52.5729 396.286 52.5149" fill="black"/>
</g>
<g clip-path="url(#clip24_12_1551)">
<path opacity="0.3" d="M387.876 58.9883C391.5 59.0497 394.454 58.1619 394.474 57.0054C394.494 55.8488 391.572 54.8614 387.948 54.8C384.324 54.7386 381.37 55.6264 381.35 56.7829C381.33 57.9395 384.251 58.9269 387.876 58.9883Z" fill="black"/>
<path d="M381.733 55.6461C381.798 51.8678 384.626 48.8521 388.05 48.9102C391.473 48.9682 394.196 52.0779 394.13 55.8562C394.106 57.2697 391.311 58.3657 387.888 58.3077C384.464 58.2497 381.709 57.0509 381.733 55.6461Z" fill="#4B9E81"/>
<path opacity="0.3" d="M388.05 48.9102C391.473 48.9682 394.195 52.0779 394.13 55.8561C394.106 57.2697 391.311 58.3657 387.887 58.3077" fill="black"/>
</g>
<g clip-path="url(#clip25_12_1551)">
<path opacity="0.3" d="M379.477 64.7812C383.101 64.8427 386.055 63.9549 386.075 62.7983C386.095 61.6417 383.173 60.6543 379.549 60.5929C375.925 60.5315 372.971 61.4193 372.951 62.5759C372.931 63.7324 375.853 64.7198 379.477 64.7812Z" fill="black"/>
<path d="M373.334 61.439C373.399 57.6607 376.227 54.6451 379.651 54.7031C383.074 54.7611 385.797 57.8708 385.731 61.6491C385.707 63.0626 382.912 64.1587 379.489 64.1006C376.065 64.0426 373.31 62.8438 373.334 61.439Z" fill="#4B9E81"/>
<path opacity="0.3" d="M379.651 54.7031C383.074 54.7611 385.797 57.8708 385.731 61.6491C385.707 63.0626 382.912 64.1586 379.489 64.1006" fill="black"/>
</g>
<g clip-path="url(#clip26_12_1551)">
<path opacity="0.3" d="M371.078 70.5741C374.702 70.6355 377.657 69.7477 377.677 68.5911C377.697 67.4346 374.775 66.4472 371.15 66.3857C367.526 66.3243 364.572 67.2121 364.552 68.3687C364.532 69.5253 367.454 70.5127 371.078 70.5741Z" fill="black"/>
<path d="M364.935 67.2318C365.001 63.4536 367.829 60.4379 371.252 60.4959C374.676 60.5539 377.398 63.6637 377.333 67.4419C377.308 68.8555 374.513 69.9515 371.09 69.8935C367.666 69.8355 364.911 68.6366 364.935 67.2318Z" fill="#4B9E81"/>
<path opacity="0.3" d="M371.252 60.4959C374.676 60.5539 377.398 63.6637 377.333 67.4419C377.308 68.8555 374.513 69.9515 371.09 69.8935" fill="black"/>
</g>
<g clip-path="url(#clip27_12_1551)">
<path opacity="0.3" d="M362.679 76.3669C366.303 76.4283 369.258 75.5405 369.278 74.384C369.298 73.2274 366.376 72.24 362.751 72.1786C359.127 72.1172 356.173 73.005 356.153 74.1615C356.133 75.3181 359.055 76.3055 362.679 76.3669Z" fill="black"/>
<path d="M356.536 73.0247C356.602 69.2464 359.43 66.2307 362.853 66.2888C366.277 66.3468 368.999 69.4565 368.934 73.2348C368.909 74.6483 366.114 75.7443 362.691 75.6863C359.267 75.6283 356.512 74.4295 356.536 73.0247Z" fill="#4B9E81"/>
<path opacity="0.3" d="M362.853 66.2888C366.277 66.3468 368.999 69.4565 368.934 73.2347C368.909 74.6483 366.114 75.7443 362.691 75.6863" fill="black"/>
</g>
<g clip-path="url(#clip28_12_1551)">
<path opacity="0.3" d="M354.28 82.1598C357.905 82.2213 360.859 81.3335 360.879 80.1769C360.899 79.0203 357.977 78.0329 354.353 77.9715C350.728 77.9101 347.774 78.7979 347.754 79.9545C347.734 81.111 350.656 82.0984 354.28 82.1598Z" fill="black"/>
<path d="M348.137 78.8176C348.203 75.0393 351.031 72.0237 354.454 72.0817C357.878 72.1397 360.6 75.2494 360.535 79.0277C360.51 80.4412 357.715 81.5373 354.292 81.4792C350.868 81.4212 348.113 80.2224 348.137 78.8176Z" fill="#4B9E81"/>
<path opacity="0.3" d="M354.454 72.0817C357.878 72.1397 360.6 75.2494 360.535 79.0277C360.51 80.4412 357.715 81.5372 354.292 81.4792" fill="black"/>
</g>
<g clip-path="url(#clip29_12_1551)">
<path opacity="0.3" d="M345.881 87.9527C349.506 88.0141 352.46 87.1263 352.48 85.9697C352.5 84.8132 349.578 83.8258 345.954 83.7644C342.33 83.7029 339.375 84.5907 339.355 85.7473C339.335 86.9039 342.257 87.8913 345.881 87.9527Z" fill="black"/>
<path d="M339.739 84.6104C339.804 80.8322 342.632 77.8165 346.055 77.8745C349.479 77.9325 352.201 81.0423 352.136 84.8205C352.111 86.2341 349.317 87.3301 345.893 87.2721C342.47 87.2141 339.714 86.0152 339.739 84.6104Z" fill="#4B9E81"/>
<path opacity="0.3" d="M346.055 77.8745C349.479 77.9325 352.201 81.0423 352.136 84.8205C352.111 86.2341 349.317 87.3301 345.893 87.2721" fill="black"/>
</g>
<g clip-path="url(#clip30_12_1551)">
<path opacity="0.3" d="M336.241 93.5848C339.865 93.6462 342.82 92.7584 342.84 91.6019C342.859 90.4453 339.938 89.4579 336.313 89.3965C332.689 89.3351 329.735 90.2229 329.715 91.3794C329.695 92.536 332.617 93.5234 336.241 93.5848Z" fill="black"/>
<path d="M330.098 90.2425C330.164 86.4643 332.992 83.4486 336.415 83.5067C339.838 83.5647 342.561 86.6744 342.496 90.4526C342.471 91.8662 339.676 92.9622 336.253 92.9042C332.829 92.8462 330.074 91.6474 330.098 90.2425Z" fill="#4B9E81"/>
<path opacity="0.3" d="M336.415 83.5067C339.838 83.5647 342.561 86.6744 342.496 90.4526C342.471 91.8662 339.676 92.9622 336.253 92.9042" fill="black"/>
</g>
<g clip-path="url(#clip31_12_1551)">
<path opacity="0.3" d="M326.6 99.2287C330.225 99.2901 333.179 98.4023 333.199 97.2457C333.219 96.0892 330.297 95.1018 326.673 95.0404C323.049 94.9789 320.094 95.8667 320.074 97.0233C320.054 98.1799 322.976 99.1673 326.6 99.2287Z" fill="black"/>
<path d="M320.458 95.8864C320.523 92.1082 323.351 89.0925 326.774 89.1505C330.198 89.2085 332.92 92.3183 332.855 96.0965C332.83 97.5101 330.036 98.6061 326.612 98.5481C323.189 98.4901 320.433 97.2912 320.458 95.8864Z" fill="#4B9E81"/>
<path opacity="0.3" d="M326.774 89.1505C330.198 89.2085 332.92 92.3183 332.855 96.0965C332.83 97.5101 330.036 98.6061 326.612 98.5481" fill="black"/>
</g>
<path d="M273.436 74.9563L142.226 43.7433L203.261 10.1324L334.47 41.3338L273.436 74.9563Z" fill="#C6C6C6"/>
<path d="M273.611 64.788L223.076 52.7711L284.111 19.1485L334.645 31.1771L273.611 64.788Z" fill="#F0F0F0"/>
<path d="M334.47 41.3338L273.436 74.9563L273.611 64.788L334.645 31.1771L334.47 41.3338Z" fill="#B1B1B1"/>
<g style="mix-blend-mode:multiply">
<path d="M334.591 34.3416L273.556 67.9642L273.579 66.6379L334.614 33.0153L334.591 34.3416Z" fill="#B1B1B1"/>
</g>
<path d="M222.901 62.9394L273.435 74.9563L273.611 64.788L223.076 52.7711L222.901 62.9394Z" fill="#C6C6C6"/>
<path d="M192.936 45.6035L142.402 33.5866L203.436 -0.0359483L253.971 11.981L192.936 45.6035Z" fill="#F0F0F0"/>
<path d="M253.795 22.1493L192.761 55.7719L192.936 45.6035L253.971 11.981L253.795 22.1493Z" fill="#B1B1B1"/>
<path d="M142.226 43.7433L192.761 55.7719L192.936 45.6035L142.402 33.5866L142.226 43.7433Z" fill="#C6C6C6"/>
<path d="M223.161 47.8614L284.196 14.2389L254.056 7.07135L193.021 40.6939L223.161 47.8614Z" fill="#F0F0F0"/>
<path d="M284.111 19.1485L223.076 52.7711L223.161 47.8614L284.196 14.2389L284.111 19.1485Z" fill="#B1B1B1"/>
<path d="M192.936 45.6036L223.076 52.7711L223.161 47.8614L193.021 40.6939L192.936 45.6036Z" fill="#C6C6C6"/>
<g style="mix-blend-mode:multiply">
<path d="M192.761 55.7719L222.901 62.9394L223.077 52.771L192.936 45.6035L192.761 55.7719Z" fill="#8B8B8B"/>
</g>
<path d="M243.327 67.7894L253.162 61.8928L243.469 59.5872L243.327 67.7894Z" fill="#B1B1B1"/>
<path d="M162.642 48.6047L172.477 42.6965L162.783 40.4025L162.642 48.6047Z" fill="#B1B1B1"/>
<g style="mix-blend-mode:multiply">
<path d="M162.642 48.6047L172.335 50.9103L172.477 42.6965L162.783 40.4025L162.642 48.6047Z" fill="#6D6E71"/>
</g>
<g style="mix-blend-mode:multiply">
<path d="M243.327 67.7894L253.02 70.095L253.162 61.8928L243.469 59.5872L243.327 67.7894Z" fill="#6D6E71"/>
</g>
<g style="mix-blend-mode:multiply">
<path d="M228.645 49.6884L224.801 51.8111L224.837 49.7635L228.68 47.6407L228.645 49.6884ZM262.385 63.9577L273.579 66.6378L273.556 67.9641L262.362 65.284L262.385 63.9577ZM253.033 69.3504L273.459 74.2119L273.446 74.9565L253.02 70.0949L253.033 69.3504ZM222.914 62.1832L243.34 67.0447L243.327 67.7893L222.901 62.9278L222.914 62.1832ZM142.382 35.972L153.576 38.6522L153.553 39.9785L142.359 37.2983L142.382 35.972ZM234.078 44.6715L230.234 46.7942L230.199 48.8419L234.042 46.7191L234.078 44.6715ZM239.464 41.7137L235.621 43.8365L235.586 45.8841L239.429 43.7614L239.464 41.7137ZM244.862 38.7445L241.019 40.8672L240.983 42.9149L244.827 40.7921L244.862 38.7445ZM250.249 35.7867L246.405 37.9095L246.37 39.9571L250.213 37.8344L250.249 35.7867ZM255.636 32.8173L251.792 34.9401L251.757 36.9877L255.6 34.8649L255.636 32.8173ZM261.033 29.8597L257.19 31.9825L257.154 34.0301L260.998 31.9073L261.033 29.8597ZM266.42 26.8903L262.577 29.0131L262.541 31.0607L266.385 28.9379L266.42 26.8903ZM271.817 23.9327L267.974 26.0555L267.939 28.1031L271.782 25.9803L271.817 23.9327ZM277.204 20.9633L273.361 23.0861L273.326 25.1337L277.169 23.0109L277.204 20.9633ZM282.591 18.0055L278.748 20.1283L278.713 22.1759L282.556 20.0532L282.591 18.0055Z" fill="#B1B1B1"/>
</g>
<g style="mix-blend-mode:multiply">
<path d="M334.47 41.3338L273.436 74.9563L273.449 74.2001L334.483 40.5892L334.47 41.3338Z" fill="#B1B1B1"/>
</g>
<g opacity="0.7">
<path d="M276.442 34.6013L268.974 32.8571L276.424 28.887L283.892 30.6311L276.442 34.6013ZM292.357 32.6017L284.89 30.8575L277.44 34.8277L284.907 36.5719L292.357 32.6017ZM300.832 34.5841L293.365 32.8399L285.915 36.8101L293.382 38.5543L300.832 34.5841ZM275.431 35.1312L267.963 33.387L253.319 41.1804L260.786 42.9246L275.431 35.1312ZM283.906 37.1136L276.439 35.3694L261.795 43.1628L269.262 44.907L283.906 37.1136ZM292.371 39.0841L284.904 37.3399L270.26 45.1334L277.727 46.8776L292.371 39.0841ZM259.786 43.4663L252.319 41.7221L244.869 45.6923L252.336 47.4365L259.786 43.4663ZM268.251 45.4368L260.784 43.6926L253.334 47.6628L260.801 49.407L268.251 45.4368ZM276.727 47.4192L269.259 45.675L261.809 49.6452L269.277 51.3894L276.727 47.4192Z" fill="#064055"/>
<g opacity="0.2">
<path d="M276.442 34.6013L268.974 32.8571L276.424 28.887L283.892 30.6311L276.442 34.6013ZM292.357 32.6017L284.89 30.8575L277.44 34.8277L284.907 36.5719L292.357 32.6017ZM300.832 34.5841L293.365 32.8399L285.915 36.8101L293.382 38.5543L300.832 34.5841ZM275.431 35.1312L267.963 33.387L253.319 41.1804L260.786 42.9246L275.431 35.1312ZM283.906 37.1136L276.439 35.3694L261.795 43.1628L269.262 44.907L283.906 37.1136ZM292.371 39.0841L284.904 37.3399L270.26 45.1334L277.727 46.8776L292.371 39.0841ZM259.786 43.4663L252.319 41.7221L244.869 45.6923L252.336 47.4365L259.786 43.4663ZM268.251 45.4368L260.784 43.6926L253.334 47.6628L260.801 49.407L268.251 45.4368ZM276.727 47.4192L269.259 45.675L261.809 49.6452L269.277 51.3894L276.727 47.4192Z" fill="url(#paint0_linear_12_1551)"/>
</g>
</g>
<g opacity="0.7">
<path d="M209.182 18.3791L201.714 16.6349L209.164 12.6647L216.632 14.4089L209.182 18.3791ZM225.107 16.3913L217.64 14.6471L210.19 18.6173L217.657 20.3615L225.107 16.3913ZM233.572 18.3735L226.105 16.6293L218.655 20.5995L226.122 22.3437L233.572 18.3735ZM208.181 18.9208L200.714 17.1766L186.069 24.97L193.537 26.7142L208.181 18.9208ZM216.646 20.8913L209.179 19.1471L194.534 26.9406L202.002 28.6848L216.646 20.8913ZM225.122 22.8737L217.654 21.1295L203.01 28.923L210.477 30.6672L225.122 22.8737ZM192.536 27.2442L185.069 25.5L177.619 29.4702L185.086 31.2144L192.536 27.2442ZM201.001 29.2264L193.534 27.4822L186.084 31.4524L193.551 33.1966L201.001 29.2264ZM209.466 31.2086L201.999 29.4644L194.549 33.4346L202.016 35.1788L209.466 31.2086Z" fill="#064055"/>
<g opacity="0.2">
<path d="M209.182 18.3791L201.714 16.6349L209.164 12.6647L216.632 14.4089L209.182 18.3791ZM225.107 16.3913L217.64 14.6471L210.19 18.6173L217.657 20.3615L225.107 16.3913ZM233.572 18.3735L226.105 16.6293L218.655 20.5995L226.122 22.3437L233.572 18.3735ZM208.181 18.9208L200.714 17.1766L186.069 24.97L193.537 26.7142L208.181 18.9208ZM216.646 20.8913L209.179 19.1471L194.534 26.9406L202.002 28.6848L216.646 20.8913ZM225.122 22.8737L217.654 21.1295L203.01 28.923L210.477 30.6672L225.122 22.8737ZM192.536 27.2442L185.069 25.5L177.619 29.4702L185.086 31.2144L192.536 27.2442ZM201.001 29.2264L193.534 27.4822L186.084 31.4524L193.551 33.1966L201.001 29.2264ZM209.466 31.2086L201.999 29.4644L194.549 33.4346L202.016 35.1788L209.466 31.2086Z" fill="url(#paint1_linear_12_1551)"/>
</g>
</g>
<g opacity="0.7">
<path d="M245.471 22.9858L238.004 21.2416L245.454 17.2714L252.921 19.0156L245.471 22.9858ZM261.397 20.998L253.93 19.2538L246.48 23.224L253.947 24.9682L261.397 20.998ZM244.471 23.5274L237.004 21.7833L222.359 29.5767L229.827 31.3209L244.471 23.5274ZM252.936 25.5097L245.469 23.7655L230.824 31.5589L238.292 33.3031L252.936 25.5097ZM228.815 31.8624L221.348 30.1182L213.898 34.0884L221.365 35.8325L228.815 31.8624ZM237.291 33.8331L229.824 32.0889L222.374 36.0591L229.841 37.8033L237.291 33.8331Z" fill="#064055"/>
<g opacity="0.2">
<path d="M245.471 22.9858L238.004 21.2416L245.454 17.2714L252.921 19.0156L245.471 22.9858ZM261.397 20.998L253.93 19.2538L246.48 23.224L253.947 24.9682L261.397 20.998ZM244.471 23.5274L237.004 21.7833L222.359 29.5767L229.827 31.3209L244.471 23.5274ZM252.936 25.5097L245.469 23.7655L230.824 31.5589L238.292 33.3031L252.936 25.5097ZM228.815 31.8624L221.348 30.1182L213.898 34.0884L221.365 35.8325L228.815 31.8624ZM237.291 33.8331L229.824 32.0889L222.374 36.0591L229.841 37.8033L237.291 33.8331Z" fill="url(#paint2_linear_12_1551)"/>
</g>
</g>
<path d="M98.8086 63.5363L39.1049 49.3972L68.9887 32.936L128.693 47.0635L98.8086 63.5363Z" fill="#F0F0F0"/>
<path d="M38.9532 58.1811L98.6569 72.3202L98.8086 63.5363L39.1049 49.3972L38.9532 58.1811Z" fill="#C6C6C6"/>
<path d="M39.104 49.4554L91.3624 61.7925L91.5141 53.0087L39.2556 40.6716L39.104 49.4554Z" fill="#C6C6C6"/>
<path d="M128.541 55.8473L98.6569 72.3202L98.8086 63.5363L128.693 47.0634L128.541 55.8473Z" fill="#B1B1B1"/>
<path d="M91.5141 53.0086L39.2556 40.6715L69.1394 24.2103L121.398 36.5357L91.5141 53.0086Z" fill="#F0F0F0"/>
<path d="M121.246 45.3196L91.3624 61.7925L91.514 53.0086L121.398 36.5357L121.246 45.3196Z" fill="#B1B1B1"/>
<g style="mix-blend-mode:multiply">
<path d="M120.106 41.7159L93.331 56.4841L93.3427 55.8094L120.118 41.0527L120.106 41.7159Z" fill="#B1B1B1"/>
</g>
<g style="mix-blend-mode:multiply">
<path d="M128.541 55.8473L98.657 72.3202L98.67 71.5639L128.554 55.1027L128.541 55.8473Z" fill="#B1B1B1"/>
</g>
<g style="mix-blend-mode:multiply">
<path d="M38.9532 58.1811L98.6569 72.3201L98.67 71.5639L38.9661 57.4365L38.9532 58.1811Z" fill="#B1B1B1"/>
</g>
<g style="mix-blend-mode:multiply">
<path d="M40.7024 45.4326L88.8127 56.78L88.8258 56.0237L40.7155 44.6763L40.7024 45.4326Z" fill="#B1B1B1"/>
</g>
<g style="mix-blend-mode:multiply" opacity="0.3">
<path d="M91.4951 51.6584L42.6608 40.1008L69.7963 25.2456L118.631 36.8031L91.4951 51.6584Z" fill="#C4C4C4"/>
</g>
<path d="M174.811 77.905L115.107 63.766L145.001 47.3049L204.705 61.4323L174.811 77.905Z" fill="#F0F0F0"/>
<path d="M114.911 75.1326L174.615 89.2717L174.956 69.4819L115.252 55.3544L114.911 75.1326Z" fill="#C6C6C6"/>
<path d="M204.509 72.7991L174.615 89.2718L174.811 77.9051L204.705 61.4324L204.509 72.7991Z" fill="#B1B1B1"/>
<path d="M174.956 69.4819L115.252 55.3544L137.099 43.2608L196.793 57.388L174.956 69.4819Z" fill="#F0F0F0"/>
<g style="mix-blend-mode:multiply" opacity="0.3">
<path d="M174.839 68.3394L118.044 54.9013L136.942 44.4102L193.737 57.8483L174.839 68.3394Z" fill="#C4C4C4"/>
</g>
<path d="M196.559 70.9419L174.722 83.0358L174.956 69.4819L196.793 57.388L196.559 70.9419Z" fill="#B1B1B1"/>
<path d="M114.911 75.1326L174.614 89.2717L174.742 81.884L115.038 67.7449L114.911 75.1326Z" fill="#6D6E71"/>
<path d="M204.509 72.799L174.615 89.2717L174.684 85.2346L204.579 68.7736L204.509 72.799Z" fill="#B1B1B1"/>
<path d="M204.651 64.5504L174.757 81.0114L174.769 80.3483L204.663 63.8756L204.651 64.5504Z" fill="#B1B1B1"/>
<path d="M106.866 68.9563L166.57 83.0838L166.603 81.199L106.899 67.0716L106.866 68.9563Z" fill="#C6C6C6"/>
<path d="M166.57 83.0838L174.811 78.487L174.844 76.6022L166.603 81.1991L166.57 83.0838Z" fill="#B1B1B1"/>
<path d="M166.603 81.199L106.899 67.0716L115.14 62.4631L174.844 76.6022L166.603 81.199Z" fill="#F0F0F0"/>
<g style="mix-blend-mode:multiply">
<path d="M204.509 72.7991L174.615 89.2718L174.628 88.5155L204.522 72.0545L204.509 72.7991Z" fill="#B1B1B1"/>
</g>
<g style="mix-blend-mode:multiply">
<path d="M194.429 72.7678L177.182 82.2745L177.203 81.0645L194.449 71.5695L194.429 72.7678Z" fill="#B1B1B1"/>
</g>
<g style="mix-blend-mode:multiply">
<path d="M194.531 66.8576L177.284 76.3642L177.305 75.1543L194.551 65.6593L194.531 66.8576Z" fill="#B1B1B1"/>
</g>
<g style="mix-blend-mode:multiply">
<path d="M114.911 75.1326L119.983 72.0881L114.984 70.8978L114.911 75.1326Z" fill="#B1B1B1"/>
</g>
</g>
</g>
<defs>
<linearGradient id="paint0_linear_12_1551" x1="243.228" y1="39.4245" x2="299.103" y2="40.7428" gradientUnits="userSpaceOnUse">
<stop stop-color="white" stop-opacity="0.02"/>
<stop offset="0.06" stop-color="white" stop-opacity="0.0121"/>
<stop offset="0.2" stop-color="white" stop-opacity="0.1225"/>
<stop offset="0.39" stop-color="white" stop-opacity="0.5329"/>
<stop offset="0.52" stop-color="white"/>
<stop offset="0.56" stop-color="white" stop-opacity="0.02"/>
<stop offset="1" stop-color="white"/>
</linearGradient>
<linearGradient id="paint1_linear_12_1551" x1="176.219" y1="23.223" x2="232.083" y2="24.5411" gradientUnits="userSpaceOnUse">
<stop stop-color="white" stop-opacity="0.02"/>
<stop offset="0.06" stop-color="white" stop-opacity="0.0121"/>
<stop offset="0.2" stop-color="white" stop-opacity="0.1225"/>
<stop offset="0.39" stop-color="white" stop-opacity="0.5329"/>
<stop offset="0.52" stop-color="white"/>
<stop offset="0.56" stop-color="white" stop-opacity="0.02"/>
<stop offset="1" stop-color="white"/>
</linearGradient>
<linearGradient id="paint2_linear_12_1551" x1="212.463" y1="26.945" x2="259.853" y2="28.0631" gradientUnits="userSpaceOnUse">
<stop stop-color="white" stop-opacity="0.02"/>
<stop offset="0.06" stop-color="white" stop-opacity="0.0121"/>
<stop offset="0.2" stop-color="white" stop-opacity="0.1225"/>
<stop offset="0.39" stop-color="white" stop-opacity="0.5329"/>
<stop offset="0.52" stop-color="white"/>
<stop offset="0.56" stop-color="white" stop-opacity="0.02"/>
<stop offset="1" stop-color="white"/>
</linearGradient>
<clipPath id="clip0_12_1551">
<rect width="445" height="121" fill="white"/>
</clipPath>
<clipPath id="clip1_12_1551">
<rect width="444.655" height="119.862" fill="white" transform="matrix(0.999856 0.0169449 -0.0172634 0.999851 0 -3.48364)"/>
</clipPath>
<clipPath id="clip2_12_1551">
<rect width="16.8993" height="25.4335" fill="white" transform="matrix(0.999856 0.0169449 -0.0172634 0.999851 364.216 15.1644)"/>
</clipPath>
<clipPath id="clip3_12_1551">
<rect width="16.8993" height="25.4335" fill="white" transform="matrix(0.999856 0.0169449 -0.0172634 0.999851 379.103 18.3145)"/>
</clipPath>
<clipPath id="clip4_12_1551">
<rect width="16.8993" height="25.4335" fill="white" transform="matrix(0.999856 0.0169449 -0.0172634 0.999851 395.05 21.2148)"/>
</clipPath>
<clipPath id="clip5_12_1551">
<rect width="13.1265" height="10.0797" fill="white" transform="matrix(0.999856 0.0169449 -0.0172634 0.999851 302.489 19.844)"/>
</clipPath>
<clipPath id="clip6_12_1551">
<rect width="13.1265" height="10.0797" fill="white" transform="matrix(0.999856 0.0169449 -0.0172634 0.999851 317.834 22.1989)"/>
</clipPath>
<clipPath id="clip7_12_1551">
<rect width="13.1265" height="10.0797" fill="white" transform="matrix(0.999856 0.0169449 -0.0172634 0.999851 334.421 24.6213)"/>
</clipPath>
<clipPath id="clip8_12_1551">
<rect width="13.1265" height="10.0797" fill="white" transform="matrix(0.999856 0.0169449 -0.0172634 0.999851 389.877 43.5646)"/>
</clipPath>
<clipPath id="clip9_12_1551">
<rect width="13.1265" height="10.0797" fill="white" transform="matrix(0.999856 0.0169449 -0.0172634 0.999851 381.478 49.3574)"/>
</clipPath>
<clipPath id="clip10_12_1551">
<rect width="13.1265" height="10.0797" fill="white" transform="matrix(0.999856 0.0169449 -0.0172634 0.999851 373.079 55.1503)"/>
</clipPath>
<clipPath id="clip11_12_1551">
<rect width="13.1265" height="10.0797" fill="white" transform="matrix(0.999856 0.0169449 -0.0172634 0.999851 364.68 60.9432)"/>
</clipPath>
<clipPath id="clip12_12_1551">
<rect width="13.1265" height="10.0797" fill="white" transform="matrix(0.999856 0.0169449 -0.0172634 0.999851 356.281 66.736)"/>
</clipPath>
<clipPath id="clip13_12_1551">
<rect width="13.1265" height="10.0797" fill="white" transform="matrix(0.999856 0.0169449 -0.0172634 0.999851 347.882 72.5289)"/>
</clipPath>
<clipPath id="clip14_12_1551">
<rect width="13.1265" height="10.0797" fill="white" transform="matrix(0.999856 0.0169449 -0.0172634 0.999851 339.484 78.3218)"/>
</clipPath>
<clipPath id="clip15_12_1551">
<rect width="13.1265" height="10.0797" fill="white" transform="matrix(0.999856 0.0169449 -0.0172634 0.999851 329.843 83.9539)"/>
</clipPath>
<clipPath id="clip16_12_1551">
<rect width="13.1265" height="10.0797" fill="white" transform="matrix(0.999856 0.0169449 -0.0172634 0.999851 320.203 89.5861)"/>
</clipPath>
<clipPath id="clip17_12_1551">
<rect width="16.8993" height="25.4335" fill="white" transform="matrix(0.999856 0.0169449 -0.0172634 0.999851 364.225 14.6176)"/>
</clipPath>
<clipPath id="clip18_12_1551">
<rect width="16.8993" height="25.4335" fill="white" transform="matrix(0.999856 0.0169449 -0.0172634 0.999851 379.113 17.756)"/>
</clipPath>
<clipPath id="clip19_12_1551">
<rect width="16.8993" height="25.4335" fill="white" transform="matrix(0.999856 0.0169449 -0.0172634 0.999851 395.06 20.6564)"/>
</clipPath>
<clipPath id="clip20_12_1551">
<rect width="13.1265" height="10.0797" fill="white" transform="matrix(0.999856 0.0169449 -0.0172634 0.999851 302.499 19.2856)"/>
</clipPath>
<clipPath id="clip21_12_1551">
<rect width="13.1265" height="10.0797" fill="white" transform="matrix(0.999856 0.0169449 -0.0172634 0.999851 317.843 21.6404)"/>
</clipPath>
<clipPath id="clip22_12_1551">
<rect width="13.1265" height="10.0797" fill="white" transform="matrix(0.999856 0.0169449 -0.0172634 0.999851 334.431 24.0629)"/>
</clipPath>
<clipPath id="clip23_12_1551">
<rect width="13.1265" height="10.0797" fill="white" transform="matrix(0.999856 0.0169449 -0.0172634 0.999851 389.886 43.0061)"/>
</clipPath>
<clipPath id="clip24_12_1551">
<rect width="13.1265" height="10.0797" fill="white" transform="matrix(0.999856 0.0169449 -0.0172634 0.999851 381.487 48.799)"/>
</clipPath>
<clipPath id="clip25_12_1551">
<rect width="13.1265" height="10.0797" fill="white" transform="matrix(0.999856 0.0169449 -0.0172634 0.999851 373.089 54.5919)"/>
</clipPath>
<clipPath id="clip26_12_1551">
<rect width="13.1265" height="10.0797" fill="white" transform="matrix(0.999856 0.0169449 -0.0172634 0.999851 364.69 60.3847)"/>
</clipPath>
<clipPath id="clip27_12_1551">
<rect width="13.1265" height="10.0797" fill="white" transform="matrix(0.999856 0.0169449 -0.0172634 0.999851 356.291 66.1776)"/>
</clipPath>
<clipPath id="clip28_12_1551">
<rect width="13.1265" height="10.0797" fill="white" transform="matrix(0.999856 0.0169449 -0.0172634 0.999851 347.892 71.9705)"/>
</clipPath>
<clipPath id="clip29_12_1551">
<rect width="13.1265" height="10.0797" fill="white" transform="matrix(0.999856 0.0169449 -0.0172634 0.999851 339.493 77.7633)"/>
</clipPath>
<clipPath id="clip30_12_1551">
<rect width="13.1265" height="10.0797" fill="white" transform="matrix(0.999856 0.0169449 -0.0172634 0.999851 329.853 83.3954)"/>
</clipPath>
<clipPath id="clip31_12_1551">
<rect width="13.1265" height="10.0797" fill="white" transform="matrix(0.999856 0.0169449 -0.0172634 0.999851 320.212 89.0393)"/>
</clipPath>
</defs>
</svg>
