<svg width="35" height="49" viewBox="0 0 35 49" fill="none" xmlns="http://www.w3.org/2000/svg">
<g style="mix-blend-mode:multiply">
<g style="mix-blend-mode:multiply" opacity="0.5">
<path d="M34.3483 34.8103L3.45091 48.2728C3.10983 48.4132 2.56812 48.333 2.24711 48.0922H2.22705C1.88597 47.8314 1.88597 47.5104 2.22705 47.3699L33.1245 33.9075C33.4655 33.767 34.0072 33.8473 34.3283 34.0881H34.3483C34.6894 34.3489 34.6894 34.6699 34.3483 34.8103Z" fill="#7B7972"/>
</g>
</g>
<path d="M20.5448 30.8378L22.7116 32.3626C22.832 32.4428 23.6546 31.9011 23.5543 31.3995L23.474 31.1387C23.0326 30.8378 20.605 30.4766 20.5247 30.5569C20.5247 30.5569 20.5247 30.8177 20.5247 30.8378H20.5448Z" fill="#282E3D"/>
<path d="M20.5448 30.5569L22.6514 32.0617C22.7718 32.1419 23.6144 31.2591 23.474 31.1187C23.474 31.1187 22.6113 30.4967 22.3304 30.2961C21.889 29.9951 21.6081 29.7343 21.4877 29.7945C20.926 29.9751 20.5046 30.5569 20.5247 30.577L20.5448 30.5569Z" fill="#3D4663"/>
<path d="M21.0865 30.597C21.0865 30.597 21.1467 30.597 21.1868 30.597L22.7718 31.7005H22.7919C22.7919 31.7005 22.832 31.5801 22.7919 31.54L21.1667 30.4164C21.1667 30.4164 21.1065 30.3964 21.0664 30.4164L20.9862 30.4766C20.9862 30.4766 20.946 30.5769 20.9862 30.6171H21.0263H21.0865V30.597Z" fill="#282E3D"/>
<path d="M21.4677 30.2158C21.4677 30.2158 21.5279 30.2158 21.568 30.2158L23.153 31.3193H23.1731C23.1731 31.3193 23.2132 31.1989 23.1731 31.1588L21.5479 30.0352C21.5479 30.0352 21.4878 30.0152 21.4476 30.0352L21.3674 30.0954C21.3674 30.0954 21.3272 30.1957 21.3674 30.2359H21.4075H21.4677V30.2158Z" fill="#282E3D"/>
<path d="M23.7147 32.4428C23.7147 32.4428 23.6144 32.4228 23.5743 32.3826L23.2533 32.1218C23.1329 32.0215 23.0928 31.861 23.173 31.7406C23.2533 31.6202 23.4138 31.6002 23.5342 31.7005L23.8552 31.9613C23.9756 32.0616 24.0157 32.2422 23.9354 32.3425C23.8752 32.4228 23.795 32.4629 23.6947 32.4428H23.7147Z" fill="#7E80A1"/>
<path d="M24.0559 32.3024C23.9957 32.4428 23.9154 32.503 23.6747 32.483L19.341 32.182C19.1604 32.182 18.9999 32.0416 18.9799 31.861C18.9598 31.6804 19.0802 31.54 19.2607 31.54L23.8151 31.9413C23.9154 31.9413 24.0157 31.9814 24.0559 32.0817C24.0559 32.1018 24.0759 32.2221 24.0559 32.3024Z" fill="#616B85"/>
<path d="M24.0157 32.1619C24.0157 32.2623 23.9355 32.3826 23.8552 32.4228C23.7549 32.4629 23.6947 32.4228 23.6947 32.3024C23.6947 32.2021 23.775 32.0817 23.8552 32.0416C23.9555 32.0014 24.0157 32.0416 24.0157 32.1619Z" fill="#7E80A1"/>
<path d="M22.1499 31.1588C21.7887 31.4598 21.7687 31.6403 21.2671 31.861C21.0263 31.9613 20.304 32.2222 19.8225 31.9613C19.6821 31.8811 19.5416 31.7005 19.5216 31.6203C19.4814 31.3594 19.8627 31.1989 20.0031 31.0786C20.5649 30.577 20.605 30.7575 21.247 30.3763C21.3674 30.3161 21.9894 29.9149 22.2903 29.7945C22.4909 29.7143 23.3135 29.6541 23.3537 29.7143C23.7148 30.1757 23.3135 30.4365 23.0728 30.577C22.8521 30.7174 22.5511 30.8177 22.1499 31.1588Z" fill="#616B85"/>
<path d="M22.9925 28.8315C22.9925 28.8315 22.9122 28.7111 22.8721 28.7111C22.6514 28.6108 22.4709 29.1525 22.0495 29.4935C21.7285 29.7544 21.3674 29.2127 21.1667 29.5537C21.1467 29.5939 20.9059 30.0954 20.4445 30.4967C20.4043 30.5368 20.0633 30.7375 19.8225 30.8177C19.4212 30.9381 19.341 31.54 19.6419 31.7607C20.0432 32.0817 20.926 31.7607 21.1667 31.6604C21.4677 31.5199 21.568 31.3594 22.0897 30.918C22.4909 30.577 22.7919 30.4967 23.0126 30.3362C23.1931 30.2158 23.4941 30.0352 23.4339 29.8146C23.4339 29.8146 23.4138 29.5738 23.3336 29.3932C23.1731 29.0722 23.0728 28.9318 23.0126 28.8315H22.9925Z" fill="#747167"/>
<path d="M13.2016 24.7586C13.3621 25.2803 20.946 29.0321 21.5078 29.6942C21.6282 29.8346 22.3906 29.7544 22.7718 29.2327C22.9523 28.9719 22.8119 28.8515 22.7116 28.7512C20.8858 27.6477 17.3547 24.0163 15.4888 23.5749C15.4888 23.5749 12.7 23.1134 13.2016 24.7586Z" fill="#E6BA9F"/>
<path d="M15.4487 23.8758C15.9703 23.1335 16.5522 22.652 17.0538 22.1103C17.7359 21.3479 18.8394 20.1039 19.3209 19.3014C19.6018 18.8399 19.8024 18.7597 19.6419 17.4355C19.6018 17.0944 18.0369 16.2518 17.7961 15.991C17.3948 15.5496 15.0274 16.1314 14.7665 16.653C13.9239 18.3785 13.5828 18.86 13.021 20.4851C12.2988 22.4915 11.5966 23.9159 13.964 25.2401L15.4888 23.8558L15.4487 23.8758Z" fill="#3D4663"/>
<path d="M9.18899 28.2095C9.18899 28.2095 9.18899 28.3098 9.04855 28.671C8.88804 29.1124 8.46671 29.8346 8.30621 30.4767C8.12564 31.1588 7.96513 32.3626 7.74443 33.5463C7.52374 34.71 7.22279 37.238 7.22279 37.238L6.60083 37.1176C6.60083 37.1176 6.74127 34.389 6.7814 33.6667C6.86165 32.3626 7.08235 30.3964 7.30304 29.2127C7.42342 28.5506 7.60399 28.2296 7.82469 28.0691C8.38646 27.6879 9.18899 28.2296 9.18899 28.2296V28.2095Z" fill="#C7C6C4"/>
<path d="M27.3061 29.032L27.1857 28.4903C26.965 28.5505 22.7116 29.0722 20.9661 29.654C19.4012 30.1957 18.9598 30.6973 18.9397 30.7374L19.6821 31.1186C19.6821 31.1186 20.2438 30.7776 21.3674 30.296C22.9524 29.6139 27.266 29.032 27.3262 29.012L27.3061 29.032Z" fill="#C7C6C4"/>
<path d="M27.1255 29.012L27.4465 28.691C27.1857 28.4502 22.9724 26.0828 21.3072 24.5178C20.4645 23.7354 20.3441 22.6118 20.3441 22.2507L19.9228 23.1535C19.9228 23.1535 19.8827 24.2169 20.7053 25.0596C22.852 27.2464 27.0453 28.9518 27.1255 29.012Z" fill="#A2A09C"/>
<path d="M18.0369 33.5865C17.455 33.5062 17.0136 33.3056 16.8732 32.9645C16.2512 31.4598 16.9334 29.6942 18.5786 29.1124C20.2037 28.5305 27.0854 27.407 27.1656 27.3869C27.5067 27.3468 27.908 27.5875 28.2691 28.0691C28.8309 28.7913 29.2322 29.9149 28.9513 30.577C28.4698 31.7005 25.7813 32.4228 23.3135 33.0247C22.5912 33.2053 19.7222 33.8272 18.0369 33.6065V33.5865ZM27.2058 27.5474C27.0051 27.5875 20.2438 28.7312 18.6588 29.2929C17.114 29.8346 16.4519 31.4798 17.0337 32.9043C17.455 33.9275 21.1467 33.3457 23.2533 32.8441C25.0189 32.4228 28.3093 31.6403 28.7908 30.4767C29.0516 29.8748 28.6503 28.8114 28.1287 28.1493C27.8077 27.728 27.4666 27.5073 27.2058 27.5474Z" fill="#3D4663"/>
<path d="M28.5902 29.8747C28.5902 29.8747 28.4698 29.9349 28.4297 29.9951L27.9682 29.8145L27.6472 29.353L27.4867 29.5938V29.6741V29.8747C27.4867 30.1556 27.7074 30.1957 27.8679 30.2559L28.2692 30.4164C28.2692 30.4164 28.2692 30.4565 28.2692 30.4766C28.2692 30.6973 28.4297 30.8177 28.6303 30.7173C28.8109 30.617 28.9914 30.3763 28.9914 30.1355C28.9914 29.9148 28.7707 29.7944 28.6102 29.8747H28.5902Z" fill="#616B85"/>
<path d="M28.6303 29.9148C28.6303 29.9148 28.5099 29.975 28.4698 30.0352L27.9883 29.8546L27.9481 28.6107L27.4867 28.8515L27.5268 29.6741V29.8747C27.5268 30.1556 27.7274 30.2158 27.888 30.296L28.2892 30.4565C28.2892 30.4565 28.2892 30.4565 28.2892 30.4766C28.2892 30.6973 28.4497 30.8177 28.6504 30.7374C28.851 30.6572 29.0115 30.3963 29.0115 30.1556C29.0115 29.9349 28.851 29.8145 28.6504 29.8948L28.6303 29.9148Z" fill="#3D4663"/>
<path d="M24.5373 38.2411C24.0759 38.1809 23.6345 38.0405 23.1931 37.8398C22.6915 37.6191 21.9291 37.0774 21.568 36.5758C21.3874 36.315 21.4275 35.9739 21.6683 35.8335C21.889 35.6931 22.2301 35.7733 22.4106 36.0141C22.5912 36.2749 23.1329 36.6962 23.5141 36.8567C24.2364 37.1777 25.2998 37.4586 27.0453 36.7564C30.7168 35.2517 33.1244 32.1017 33.8066 27.8483C34.268 24.899 33.7063 22.8325 32.1413 21.709C31.9808 21.6087 31.7401 21.4281 31.7401 21.1071C31.7401 20.8061 31.9808 20.6055 32.2617 20.6456C32.3821 20.6456 32.4423 20.7058 32.5025 20.7459C32.5025 20.7459 32.6429 20.8262 32.663 20.8463C32.9639 21.0669 33.7464 21.6488 34.3282 22.8124C35.0104 24.1968 35.1508 26.0025 34.8499 28.1493C34.248 32.4227 31.6598 36.1545 27.5669 37.7395C26.4634 38.1608 25.5004 38.3414 24.5574 38.201L24.5373 38.2411Z" fill="#282E3D"/>
<path d="M32.1414 22.4313L31.399 21.8896C32.5025 22.6921 33.2047 24.1567 33.2047 26.1029C33.2047 30.0152 30.456 34.409 27.0453 35.8937C25.3198 36.6361 23.775 36.5157 22.6514 35.6931L23.3938 36.2348C24.5173 37.0574 26.0622 37.2982 27.7876 36.5357C31.1984 35.0511 34.0674 30.5569 34.0474 26.6245C34.0474 24.6784 33.2448 23.1937 32.1414 22.3912V22.4313Z" fill="url(#paint0_linear_1_1773)"/>
<path d="M26.8647 27.5675C26.3029 27.8082 25.8415 28.5305 25.8415 29.1725C25.8415 29.8146 26.3029 30.1356 26.8647 29.8948C27.4265 29.6541 27.8879 28.9318 27.8879 28.2898C27.8879 27.6477 27.4265 27.3267 26.8647 27.5675Z" fill="#616B85"/>
<path d="M26.965 27.6276C26.4032 27.8684 25.9418 28.5906 25.9418 29.2327C25.9418 29.8747 26.4032 30.1957 26.965 29.9549C27.5268 29.7142 27.9882 28.9919 27.9882 28.3499C27.9882 27.7079 27.5268 27.3868 26.965 27.6276Z" fill="#3D4663"/>
<path d="M27.8077 28.4503C27.8077 28.4503 27.7876 28.4503 27.7675 28.4302C27.7675 28.4302 27.7675 28.3901 27.7876 28.3901L33.4454 27.407C33.4454 27.407 33.4856 27.407 33.4856 27.427C33.4856 27.427 33.4856 27.4672 33.4655 27.4672L27.8077 28.4503Z" fill="#6A6C6E"/>
<path d="M27.7876 29.0321H27.7675V28.992L33.4053 25.3004H33.4454V25.3405L27.8077 29.0321C27.8077 29.0321 27.8077 29.0321 27.7876 29.0321Z" fill="#AFB7BB"/>
<path d="M32.0812 31.4598L27.8679 28.7713C27.8679 28.7713 27.8478 28.7312 27.8679 28.7312C27.8679 28.7312 27.908 28.7111 27.908 28.7312L32.1213 31.4197C32.1213 31.4197 32.1413 31.4598 32.1213 31.4598C32.1213 31.4598 32.1213 31.4598 32.0812 31.4598Z" fill="#6A6C6E"/>
<path d="M27.607 29.3731C27.607 29.3731 27.5669 29.3731 27.5669 29.333C27.5669 29.333 27.5669 29.2929 27.587 29.2929L33.0843 29.1324C33.0843 29.1324 33.1244 29.1324 33.1244 29.1725C33.1244 29.1725 33.1244 29.2126 33.1044 29.2126L27.607 29.3731Z" fill="#AFB7BB"/>
<path d="M29.4529 34.8304C29.4529 34.8304 29.4328 34.8304 29.4128 34.8104L27.7274 29.1325C27.7274 29.1325 27.7274 29.0923 27.7475 29.0923C27.7475 29.0923 27.7876 29.0923 27.7876 29.1124L29.4729 34.7903C29.4729 34.7903 29.4729 34.8304 29.4529 34.8304Z" fill="#6A6C6E"/>
<path d="M31.078 33.0648C31.078 33.0648 31.078 33.0648 31.0579 33.0648L27.3061 29.6139C27.3061 29.6139 27.3061 29.5738 27.3061 29.5538H27.3462L31.098 33.0046C31.098 33.0046 31.098 33.0448 31.098 33.0648C31.098 33.0648 31.098 33.0648 31.078 33.0648Z" fill="#AFB7BB"/>
<path d="M26.2227 36.5759C26.2227 36.5759 26.1825 36.5558 26.1825 36.5357L27.4866 29.4334C27.4866 29.4334 27.5067 29.4133 27.5268 29.4133C27.5268 29.4133 27.5669 29.4334 27.5468 29.4534L26.2427 36.5558C26.2427 36.5558 26.2427 36.5759 26.2026 36.5759H26.2227Z" fill="#6A6C6E"/>
<path d="M28.0685 35.8537C28.0685 35.8537 28.0284 35.8537 28.0284 35.8135L26.9851 29.634C26.9851 29.634 26.9851 29.5939 27.0052 29.5939C27.0052 29.5939 27.0453 29.5939 27.0453 29.634L28.0886 35.8135C28.0886 35.8135 28.0886 35.8537 28.0685 35.8537Z" fill="#AFB7BB"/>
<path d="M23.2935 36.1946C23.2935 36.1946 23.2734 36.1545 23.2935 36.1545L27.2459 29.634H27.286C27.286 29.634 27.3061 29.6741 27.286 29.6741L23.3336 36.1946C23.3336 36.1946 23.3336 36.1946 23.2935 36.1946Z" fill="#6A6C6E"/>
<path d="M24.8584 36.616L24.8182 36.5758L26.7644 29.5136C26.7644 29.5136 26.7844 29.4935 26.8045 29.5136C26.8045 29.5136 26.8246 29.5336 26.8246 29.5537L24.8784 36.616C24.8784 36.616 24.8784 36.636 24.8383 36.636L24.8584 36.616Z" fill="#AFB7BB"/>
<path d="M27.607 28.2898C27.607 28.2898 27.607 28.2898 27.587 28.2898V28.2496L33.0442 23.8959H33.0843V23.936L27.6271 28.2898C27.6271 28.2898 27.6271 28.2898 27.607 28.2898Z" fill="#6A6C6E"/>
<path d="M27.8478 28.671C27.8478 28.671 27.8277 28.6309 27.8478 28.6108L32.1413 22.4313H32.1815C32.1815 22.4313 32.2015 22.4714 32.1815 22.4915L27.8879 28.671C27.8879 28.671 27.8879 28.671 27.8679 28.671H27.8478Z" fill="#AFB7BB"/>
<path d="M27.5469 27.9687C27.4064 27.8684 27.2259 27.8483 27.0252 27.9487C26.6039 28.1292 26.2829 28.6509 26.2829 29.1324C26.2829 29.3732 26.3631 29.5537 26.5036 29.634L27.2459 30.1757C27.1055 30.0754 27.0252 29.8948 27.0252 29.6741C27.0252 29.1926 27.3663 28.6709 27.7676 28.4904C27.9682 28.3901 28.1688 28.4101 28.2892 28.5104L27.5469 27.9687Z" fill="url(#paint1_linear_1_1773)"/>
<path d="M20.9862 34.2887C20.9862 34.2887 20.9862 34.2887 20.9661 34.2887V34.2485L26.7443 29.7744H26.7845V29.8145L21.0063 34.2887C21.0063 34.2887 21.0063 34.2887 20.9862 34.2887Z" fill="#6A6C6E"/>
<path d="M21.9492 35.9339C21.9492 35.9339 21.9291 35.8938 21.9492 35.8737L26.7242 29.2127H26.7644C26.7644 29.2127 26.7844 29.2528 26.7644 29.2729L21.9893 35.9339C21.9893 35.9339 21.9893 35.9339 21.9692 35.9339H21.9492Z" fill="#AFB7BB"/>
<path d="M27.0252 28.4903C27.0252 28.4903 26.9851 28.4703 26.9851 28.4502L28.2892 20.8663C28.2892 20.8663 28.2892 20.8462 28.3293 20.8462C28.3293 20.8462 28.3695 20.8663 28.3494 20.8864L27.0453 28.4703C27.0453 28.4703 27.0453 28.4903 27.0052 28.4903H27.0252Z" fill="#6A6C6E"/>
<path d="M27.5067 28.2897C27.5067 28.2897 27.4666 28.2897 27.4666 28.2496L26.2427 21.7692C26.2427 21.7692 26.2427 21.729 26.2628 21.729C26.2628 21.729 26.3029 21.729 26.3029 21.7692L27.5268 28.2496C27.5268 28.2496 27.5268 28.2897 27.5067 28.2897Z" fill="#AFB7BB"/>
<path d="M27.3061 28.2897C27.3061 28.2897 27.286 28.2496 27.3061 28.2496L31.4793 21.1071H31.5194C31.5194 21.1071 31.5395 21.1472 31.5194 21.1472L27.3462 28.2897C27.3462 28.2897 27.3462 28.2897 27.3061 28.2897Z" fill="#6A6C6E"/>
<path d="M27.8679 28.2697L27.8277 28.2296L29.7137 20.7059C29.7137 20.7059 29.7337 20.6858 29.7538 20.7059C29.7538 20.7059 29.7939 20.726 29.7739 20.746L27.8879 28.2697C27.8879 28.2697 27.8879 28.2898 27.8478 28.2898L27.8679 28.2697Z" fill="#AFB7BB"/>
<path d="M20.7053 30.3964C20.7053 30.3964 20.6852 30.3964 20.6651 30.3563C20.6651 30.3563 20.6651 30.3161 20.6852 30.3161L26.7242 29.4133C26.7242 29.4133 26.7644 29.4133 26.7644 29.4534C26.7644 29.4534 26.7644 29.4935 26.7443 29.4935L20.7053 30.3964Z" fill="#6A6C6E"/>
<path d="M20.6451 32.7839H20.625V32.7438L26.7443 28.8916H26.7844V28.9318L20.6652 32.7839C20.6652 32.7839 20.6652 32.7839 20.6451 32.7839Z" fill="#AFB7BB"/>
<path d="M26.7042 29.1726L22.2301 26.123C22.2301 26.123 22.21 26.0828 22.2301 26.0828H22.2702L26.7443 29.1325C26.7443 29.1325 26.7644 29.1726 26.7443 29.1726C26.7443 29.1726 26.7443 29.1726 26.7042 29.1726Z" fill="#6A6C6E"/>
<path d="M21.1467 28.5706C21.1467 28.5706 21.1065 28.5706 21.1065 28.5305C21.1065 28.5305 21.1065 28.4903 21.1266 28.4903H26.9249C26.9249 28.4903 26.965 28.4903 26.965 28.5305C26.965 28.5305 26.965 28.5706 26.9449 28.5706H21.1467Z" fill="#AFB7BB"/>
<path d="M26.8045 28.7913C26.8045 28.7913 26.7844 28.7913 26.7644 28.7512L25.0791 22.5717C25.0791 22.5717 25.0791 22.5316 25.0991 22.5316C25.0991 22.5316 25.1393 22.5316 25.1393 22.5717L26.8246 28.7512C26.8246 28.7512 26.8246 28.7913 26.8045 28.7913Z" fill="#6A6C6E"/>
<path d="M27.2459 28.35C27.2459 28.35 27.2459 28.35 27.2258 28.35L23.3135 24.4978C23.3135 24.4978 23.3135 24.4577 23.3135 24.4376H23.3536L27.266 28.2898C27.266 28.2898 27.266 28.3299 27.266 28.35C27.266 28.35 27.266 28.35 27.2459 28.35Z" fill="#AFB7BB"/>
<path d="M27.7676 28.4703C27.3462 28.6509 27.0252 29.1725 27.0252 29.6541C27.0252 30.1356 27.3663 30.3763 27.7676 30.1958C28.1889 30.0152 28.5099 29.4936 28.5099 29.012C28.5099 28.5305 28.1688 28.2898 27.7676 28.4703Z" fill="#616B85"/>
<path d="M31.7601 21.3278C30.5563 20.445 28.871 20.3046 27.0051 21.1272C23.3135 22.7322 20.3441 27.4672 20.3441 31.7005C20.3441 33.8072 21.0865 35.3922 22.2902 36.2549L23.0326 36.7966C21.8288 35.9339 21.0865 34.3489 21.0865 32.2422C21.0865 28.0089 24.0558 23.274 27.7475 21.6689C29.5933 20.8664 31.2786 21.0068 32.5024 21.8695L31.7601 21.3278Z" fill="#CACCCD"/>
<path d="M27.7475 21.6688C24.0559 23.2739 21.0865 28.0088 21.0865 32.2422C21.0865 36.4755 24.096 38.6022 27.7876 36.9972C31.4793 35.3921 34.4486 30.6572 34.4286 26.4238C34.4286 22.1905 31.4191 20.0638 27.7274 21.6688H27.7475ZM27.7876 36.4354C24.3769 37.9201 21.5881 35.9338 21.5881 32.0215C21.5881 28.1091 24.3368 23.7153 27.7475 22.2105C31.1583 20.7259 33.9471 22.7121 33.9471 26.6245C33.9471 30.5368 31.1984 34.9306 27.7876 36.4153V36.4354Z" fill="#C2C7CD"/>
<path d="M22.21 37.1376C22.0897 37.0975 21.9292 36.9972 21.8288 36.8969C20.605 35.6329 20.0232 34.0078 20.0232 31.7607C20.0232 27.3267 23.153 22.351 26.9851 20.6858C28.9312 19.8431 30.9576 19.8832 32.4624 20.766C32.7232 20.9265 33.0843 21.4281 32.964 21.6889C32.8436 21.9297 32.6831 22.01 32.4222 21.8494C31.2385 21.1472 29.1519 20.9667 27.5268 21.6889C24.0358 23.2137 21.0865 27.9085 21.0865 31.9212C21.0865 33.8473 21.6082 35.7132 22.9123 36.7364C23.153 36.937 23.1129 37.1176 22.9123 37.2982C22.8119 37.3985 22.3706 37.2179 22.21 37.1577V37.1376Z" fill="#282E3D"/>
<path d="M4.51426 46.9486C4.0528 46.8884 3.61141 46.748 3.17002 46.5473C2.66844 46.3266 1.90603 45.7849 1.5449 45.2834C1.36433 45.0225 1.40445 44.6815 1.64521 44.541C1.86591 44.4006 2.20698 44.4808 2.38755 44.7216C2.56812 44.9824 3.10983 45.4037 3.49103 45.5642C4.21331 45.8852 5.27666 46.1661 7.02217 45.4639C10.6937 43.9592 13.1013 40.8092 13.7835 36.5558C14.2449 33.6065 13.6832 31.54 12.1182 30.4165C11.9577 30.3162 11.717 30.1356 11.717 29.8146C11.717 29.5136 11.9577 29.313 12.2386 29.3531C12.359 29.3531 12.4192 29.4133 12.4794 29.4534C12.4794 29.4534 12.6198 29.5337 12.6399 29.5538C12.9408 29.7745 13.7233 30.3563 14.3051 31.52C14.9873 32.9043 15.208 34.8103 14.8669 36.9772C14.1446 41.5516 11.5163 44.842 7.54381 46.4671C6.46039 46.9085 5.47729 47.069 4.53432 46.9285L4.51426 46.9486Z" fill="#282E3D"/>
<path d="M12.1182 31.1388L11.3759 30.5971C12.4793 31.3996 13.1816 32.8642 13.1816 34.8104C13.1816 38.7227 10.4329 43.1166 7.02214 44.6012C5.2967 45.3436 3.75182 45.2232 2.62828 44.4006L3.37062 44.9423C4.49416 45.7649 6.07916 45.9254 7.8046 45.1831C11.2154 43.6984 13.9841 39.2644 13.9841 35.3521C13.9841 33.4059 13.2417 31.9213 12.1383 31.1187L12.1182 31.1388Z" fill="url(#paint2_linear_1_1773)"/>
<path d="M7.76449 37.1778C7.76449 37.1778 7.74443 37.1778 7.72437 37.1578C7.72437 37.1578 7.72437 37.1177 7.74443 37.1177L13.4023 36.1346C13.4023 36.1346 13.4424 36.1346 13.4424 36.1546C13.4424 36.1546 13.4424 36.1947 13.4223 36.1947L7.76449 37.1778Z" fill="#6A6C6E"/>
<path d="M7.76445 37.7396H7.74439V37.6995L13.3822 34.0079H13.4223V34.048L7.78451 37.7396C7.78451 37.7396 7.78451 37.7396 7.76445 37.7396Z" fill="#AFB7BB"/>
<path d="M12.058 40.1673L7.84472 37.4788C7.84472 37.4788 7.82466 37.4387 7.84472 37.4387C7.84472 37.4387 7.88485 37.4186 7.88485 37.4387L12.0981 40.1272C12.0981 40.1272 12.1182 40.1673 12.0981 40.1673C12.0981 40.1673 12.0981 40.1673 12.058 40.1673Z" fill="#6A6C6E"/>
<path d="M7.58393 38.1007C7.58393 38.1007 7.5438 38.1007 7.5438 38.0606C7.5438 38.0606 7.5438 38.0205 7.56387 38.0205L13.0612 37.86C13.0612 37.86 13.1013 37.86 13.1013 37.9001C13.1013 37.9001 13.1013 37.9402 13.0813 37.9402L7.58393 38.1007Z" fill="#AFB7BB"/>
<path d="M9.42972 43.5379C9.42972 43.5379 9.40966 43.5379 9.3896 43.5179L7.70428 37.84C7.70428 37.84 7.70428 37.7998 7.72435 37.7998C7.72435 37.7998 7.76447 37.7998 7.76447 37.8199L9.44979 43.4978C9.44979 43.4978 9.44979 43.5379 9.42972 43.5379Z" fill="#6A6C6E"/>
<path d="M11.0549 41.7723C11.0549 41.7723 11.0549 41.7723 11.0348 41.7723L7.28297 38.3215C7.28297 38.3215 7.28297 38.2813 7.28297 38.2613H7.3231L11.0749 41.7121C11.0749 41.7121 11.0749 41.7523 11.0749 41.7723C11.0749 41.7723 11.0749 41.7723 11.0549 41.7723Z" fill="#AFB7BB"/>
<path d="M6.19956 45.2834C6.19956 45.2834 6.15943 45.2633 6.15943 45.2433L7.46355 38.1409C7.46355 38.1409 7.46355 38.1208 7.50367 38.1208C7.50367 38.1208 7.5438 38.1409 7.52374 38.1609L6.21962 45.2633C6.21962 45.2633 6.21962 45.2834 6.1795 45.2834H6.19956Z" fill="#6A6C6E"/>
<path d="M8.04537 44.5811C8.04537 44.5811 8.00524 44.5811 8.00524 44.541L6.96195 38.3615C6.96195 38.3615 6.96195 38.3214 6.98202 38.3214C6.98202 38.3214 7.02214 38.3214 7.02214 38.3615L8.06543 44.541C8.06543 44.541 8.06543 44.5811 8.04537 44.5811Z" fill="#AFB7BB"/>
<path d="M3.25028 44.9022C3.25028 44.9022 3.23021 44.862 3.25028 44.862L7.20274 38.3415H7.24286C7.24286 38.3415 7.26293 38.3816 7.24286 38.3816L3.2904 44.9022C3.2904 44.9022 3.2904 44.9022 3.25028 44.9022Z" fill="#6A6C6E"/>
<path d="M4.83527 45.3235L4.79515 45.2833L6.74128 38.2211C6.74128 38.2211 6.76135 38.201 6.78141 38.2211C6.78141 38.2211 6.80147 38.2411 6.80147 38.2612L4.85534 45.3235C4.85534 45.3235 4.85534 45.3435 4.81521 45.3435L4.83527 45.3235Z" fill="#AFB7BB"/>
<path d="M7.56387 36.9973C7.56387 36.9973 7.56387 36.9973 7.5438 36.9973V36.9571L13.001 32.6034H13.0411V32.6435L7.58393 36.9973C7.58393 36.9973 7.58393 36.9973 7.56387 36.9973Z" fill="#6A6C6E"/>
<path d="M7.80461 37.3986C7.80461 37.3986 7.78455 37.3585 7.80461 37.3384L12.0982 31.1589H12.1383C12.1383 31.1589 12.1583 31.199 12.1383 31.2191L7.84474 37.3986C7.84474 37.3986 7.84474 37.3986 7.82468 37.3986H7.80461Z" fill="#AFB7BB"/>
<path d="M7.42343 36.7967C7.30305 36.7164 7.14255 36.6964 6.96198 36.7766C6.60084 36.9371 6.29989 37.3986 6.29989 37.8199C6.29989 38.0205 6.38015 38.1811 6.50052 38.2814L7.16261 38.7629C7.04223 38.6826 6.96198 38.5221 6.96198 38.3014C6.96198 37.8801 7.26293 37.4186 7.62407 37.2581C7.80464 37.1779 7.96514 37.198 8.08552 37.2782L7.42343 36.7967Z" fill="url(#paint3_linear_1_1773)"/>
<path d="M0.942956 43.0162C0.942956 43.0162 0.942956 43.0162 0.922893 43.0162V42.9761L6.74124 38.4418H6.78136V38.4819L0.963019 43.0162C0.963019 43.0162 0.963019 43.0162 0.942956 43.0162Z" fill="#6A6C6E"/>
<path d="M1.90601 44.6614C1.90601 44.6614 1.88595 44.6212 1.90601 44.6012L6.68107 37.9402H6.72119C6.72119 37.9402 6.74126 37.9803 6.72119 38.0004L1.94614 44.6614C1.94614 44.6614 1.94614 44.6614 1.92607 44.6614H1.90601Z" fill="#AFB7BB"/>
<path d="M6.982 37.2179C6.982 37.2179 6.94187 37.1979 6.94187 37.1778L8.24598 29.5939C8.24598 29.5939 8.24598 29.5738 8.28611 29.5738C8.28611 29.5738 8.32623 29.5939 8.30617 29.614L7.00206 37.1979C7.00206 37.1979 7.00206 37.2179 6.96193 37.2179H6.982Z" fill="#6A6C6E"/>
<path d="M7.48361 36.9972C7.48361 36.9972 7.44348 36.9972 7.44348 36.9571L6.21962 30.4767C6.21962 30.4767 6.21962 30.4365 6.23969 30.4365C6.23969 30.4365 6.27981 30.4365 6.27981 30.4767L7.50367 36.9571C7.50367 36.9571 7.50367 36.9972 7.48361 36.9972Z" fill="#AFB7BB"/>
<path d="M7.28295 37.0173C7.28295 37.0173 7.26289 36.9772 7.28295 36.9772L11.4561 29.8347H11.4962C11.4962 29.8347 11.5163 29.8748 11.4962 29.8748L7.32308 37.0173C7.32308 37.0173 7.32308 37.0173 7.28295 37.0173Z" fill="#6A6C6E"/>
<path d="M7.82468 36.9772L7.78455 36.9371L9.6705 29.4134C9.6705 29.4134 9.69056 29.3933 9.71063 29.4134C9.71063 29.4134 9.75075 29.4335 9.73069 29.4535L7.84474 36.9772C7.84474 36.9772 7.84474 36.9973 7.80462 36.9973L7.82468 36.9772Z" fill="#AFB7BB"/>
<path d="M0.682165 39.124C0.682165 39.124 0.662102 39.124 0.642039 39.0839C0.642039 39.0839 0.642039 39.0437 0.662102 39.0437L6.70114 38.1409C6.70114 38.1409 6.74127 38.1409 6.74127 38.181C6.74127 38.181 6.74127 38.2211 6.72121 38.2211L0.682165 39.124Z" fill="#6A6C6E"/>
<path d="M0.621936 41.4914H0.601873V41.4513L6.72117 37.5991H6.76129V37.6393L0.642 41.4914C0.642 41.4914 0.642 41.4914 0.621936 41.4914Z" fill="#AFB7BB"/>
<path d="M6.66097 37.8801L2.18687 34.8305C2.18687 34.8305 2.1668 34.7904 2.18687 34.7904H2.22699L6.7011 37.84C6.7011 37.84 6.72116 37.8801 6.7011 37.8801C6.7011 37.8801 6.7011 37.8801 6.66097 37.8801Z" fill="#6A6C6E"/>
<path d="M1.12356 37.2982C1.12356 37.2982 1.08343 37.2982 1.08343 37.2581C1.08343 37.2581 1.08343 37.2179 1.1035 37.2179H6.90178C6.90178 37.2179 6.9419 37.2179 6.9419 37.2581C6.9419 37.2581 6.9419 37.2982 6.92184 37.2982H1.12356Z" fill="#AFB7BB"/>
<path d="M6.78136 37.5189C6.78136 37.5189 6.7613 37.5189 6.74123 37.4788L5.05592 31.2993C5.05592 31.2993 5.05592 31.2592 5.07598 31.2592C5.07598 31.2592 5.11611 31.2592 5.11611 31.2993L6.80142 37.4788C6.80142 37.4788 6.80142 37.5189 6.78136 37.5189Z" fill="#6A6C6E"/>
<path d="M7.2228 37.0575C7.2228 37.0575 7.2228 37.0575 7.20274 37.0575L3.2904 33.2053C3.2904 33.2053 3.2904 33.1652 3.2904 33.1452H3.33053L7.24287 36.9973C7.24287 36.9973 7.24287 37.0374 7.24287 37.0575C7.24287 37.0575 7.24287 37.0575 7.2228 37.0575Z" fill="#AFB7BB"/>
<path d="M7.60396 37.2581C7.24282 37.4186 6.94187 37.88 6.94187 38.3014C6.94187 38.7227 7.24282 38.9233 7.60396 38.7829C7.9651 38.6224 8.26604 38.1609 8.26604 37.7396C8.26604 37.3183 7.9651 37.0976 7.60396 37.2581Z" fill="#616B85"/>
<path d="M11.7169 30.0554C10.5131 29.1726 8.82782 29.0322 6.96194 29.8548C3.2703 31.4598 0.300937 36.1948 0.300937 40.4281C0.300937 42.5348 1.04328 44.1198 2.24707 44.9825L2.98941 45.5242C1.78562 44.6615 1.04328 43.0765 1.04328 40.9698C1.04328 36.7365 4.01264 32.0015 7.70428 30.3965C9.5501 29.594 11.2354 29.7344 12.4593 30.5971L11.7169 30.0554Z" fill="#CACCCD"/>
<path d="M7.72435 30.3763C4.03271 31.9814 1.06335 36.7163 1.06335 40.9497C1.06335 45.183 4.07284 47.3097 7.76448 45.7047C11.4561 44.0996 14.4255 39.3647 14.4054 35.1313C14.4054 30.898 11.3959 28.7713 7.70429 30.3763H7.72435ZM7.76448 45.163C4.35372 46.6476 1.56493 44.6614 1.56493 40.749C1.56493 36.8367 4.3136 32.4429 7.72435 30.9381C11.1351 29.4534 13.9239 31.4397 13.9239 35.352C13.9239 39.2644 11.1752 43.6582 7.76448 45.1429V45.163Z" fill="#C2C7CD"/>
<path d="M2.1869 45.8452C2.06652 45.805 1.90601 45.7047 1.80569 45.6044C0.581834 44.3404 0 42.7153 0 40.4682C0 36.0342 3.12987 31.0585 6.96195 29.3933C8.90809 28.5506 10.9345 28.5908 12.4392 29.4735C12.7 29.634 13.0612 30.1356 12.9408 30.3964C12.8204 30.6372 12.6599 30.7175 12.3991 30.557C11.2154 29.8547 9.12878 29.6742 7.50366 30.3964C4.01265 31.9213 1.06335 36.6161 1.06335 40.6287C1.06335 42.5548 1.585 44.4207 2.88911 45.4439C3.12987 45.6445 3.08974 45.8251 2.88911 46.0057C2.78879 46.106 2.3474 45.9254 2.1869 45.8652V45.8452Z" fill="#282E3D"/>
<path d="M8.24601 37.5188C8.36639 37.3182 8.60715 36.5759 8.72753 36.2749C9.14885 35.3119 9.61031 33.4861 9.71063 33.1852C9.85107 32.7037 9.95138 32.0416 9.95138 31.5199C9.95138 31.0384 9.91126 30.7976 9.85107 30.3563C9.65044 29.1324 9.22911 28.3901 9.18898 28.2296L7.84474 28.1493C7.84474 28.1493 8.58708 29.1525 8.6874 30.4365C8.74759 31.1387 8.86797 31.8811 8.64727 32.7839C8.58708 33.0447 8.42658 34.3488 7.94506 35.9338C7.80462 36.3552 7.50367 37.3182 7.50367 37.3182C7.16259 37.4587 7.02215 37.9 7.08234 38.1007C7.12247 38.2411 7.18265 38.3816 7.26291 38.4016V38.1207L7.52373 37.8599L7.925 37.9402L7.96512 38.2812L7.74443 38.522C7.98519 38.5621 8.04538 38.522 8.16575 38.4016C8.34632 38.2411 8.38645 37.8198 8.26607 37.5188H8.24601Z" fill="#C7C6C4"/>
<path d="M18.398 29.2527C17.455 29.6741 16.6726 30.8979 16.6726 31.9813C16.6726 33.0848 17.435 33.6265 18.398 33.2253C19.341 32.8039 20.1234 31.5801 20.1234 30.4967C20.1234 29.3932 19.361 28.8515 18.398 29.2527ZM17.0939 31.2591C17.1541 31.0384 17.3346 30.8578 17.5152 30.8578C17.6155 30.8578 17.8764 30.918 18.0369 31.0183C17.9566 31.1587 17.8964 31.2992 17.8964 31.4597C17.8964 31.4597 17.8964 31.4597 17.8964 31.4798C17.6757 31.5801 17.3748 31.6603 17.2745 31.6603C17.114 31.6603 17.0136 31.4798 17.0738 31.2591H17.0939ZM18.0168 32.6033C17.9165 32.824 17.6958 32.9243 17.5553 32.8641C17.4149 32.8039 17.3948 32.5832 17.4952 32.3625C17.5553 32.2422 17.776 31.9011 17.9767 31.6804C18.0369 31.7807 18.1572 31.8409 18.2776 31.8208C18.2174 32.1017 18.077 32.4629 18.0168 32.5832V32.6033ZM18.1974 30.7976C18.1171 30.597 18.0569 30.276 18.0569 30.1556C18.0569 29.955 18.1974 29.7142 18.3779 29.6339C18.5585 29.5537 18.6989 29.654 18.6989 29.8747C18.6989 29.9951 18.6388 30.3562 18.5585 30.6371C18.4983 30.6371 18.4381 30.6371 18.3779 30.6772C18.3177 30.6973 18.2375 30.7575 18.1974 30.7976ZM19.1805 32.202C19.04 32.3826 18.8394 32.4227 18.7391 32.3024C18.6789 32.2221 18.5585 31.9613 18.4983 31.7406C18.6187 31.6603 18.7391 31.5199 18.7993 31.3594C18.9798 31.4196 19.2005 31.5801 19.2607 31.6403C19.361 31.7606 19.3209 32.0215 19.1805 32.202ZM19.5015 30.7374C19.4012 30.8177 19.1002 30.9982 18.8795 31.0785C18.8795 31.0785 18.8795 31.0384 18.8795 31.0183C18.8795 30.8779 18.8394 30.7775 18.7591 30.6973C18.9397 30.4565 19.2005 30.1757 19.3008 30.0954C19.4614 29.955 19.662 29.9951 19.7021 30.1556C19.7623 30.3362 19.662 30.5769 19.4814 30.7174L19.5015 30.7374Z" fill="#616B85"/>
<path d="M18.4983 29.313C17.5553 29.7343 16.7729 30.9582 16.7729 32.0416C16.7729 33.1451 17.5353 33.6868 18.4983 33.2855C19.4413 32.8642 20.2237 31.6403 20.2237 30.5569C20.2237 29.4534 19.4613 28.9117 18.4983 29.313ZM17.2142 31.2993C17.2744 31.0786 17.455 30.898 17.6356 30.898C17.7359 30.898 17.9967 30.9582 18.1572 31.0585C18.077 31.1989 18.0168 31.3394 18.0168 31.4999C18.0168 31.4999 18.0168 31.4999 18.0168 31.5199C17.7961 31.6203 17.4951 31.7005 17.3948 31.7005C17.2343 31.7005 17.134 31.5199 17.1942 31.2993H17.2142ZM18.1171 32.6435C18.0168 32.8642 17.7961 32.9645 17.6556 32.9043C17.5152 32.8441 17.4951 32.6234 17.5954 32.4027C17.6556 32.2824 17.8763 31.9413 18.077 31.7206C18.1372 31.8209 18.2575 31.8811 18.3779 31.861C18.3177 32.1419 18.1773 32.503 18.1171 32.6234V32.6435ZM18.3177 30.8579C18.2375 30.6572 18.1773 30.3362 18.1773 30.2158C18.1773 30.0152 18.3177 29.7744 18.4983 29.6942C18.6789 29.6139 18.8193 29.7143 18.8193 29.935C18.8193 30.0553 18.7591 30.4165 18.6789 30.6974C18.6187 30.6974 18.5585 30.6974 18.4983 30.7375C18.4381 30.7575 18.3579 30.8177 18.3177 30.8579ZM19.3008 32.2422C19.1604 32.4228 18.9597 32.4629 18.8594 32.3425C18.7992 32.2623 18.6789 32.0015 18.6187 31.7808C18.7391 31.7005 18.8594 31.5601 18.9196 31.3996C19.1002 31.4598 19.3209 31.6203 19.3811 31.6805C19.4814 31.8008 19.4413 32.0617 19.3008 32.2422ZM19.6018 30.7977C19.5015 30.8779 19.2005 31.0585 18.9798 31.1387C18.9798 31.1387 18.9798 31.0986 18.9798 31.0786C18.9798 30.9381 18.9397 30.8378 18.8594 30.7575C19.04 30.5168 19.3008 30.2359 19.4011 30.1556C19.5616 30.0152 19.7623 30.0553 19.8024 30.2158C19.8626 30.3964 19.7623 30.6372 19.5817 30.7776L19.6018 30.7977Z" fill="#3D4663"/>
<path d="M27.1857 28.6509C26.4033 28.2296 24.0559 26.5242 22.4909 25.0997C21.4075 24.1166 20.4043 22.3912 20.3843 22.1906L20.4244 21.7893C20.4043 21.3279 19.7222 21.2677 19.5015 21.5486C19.4212 21.6689 19.3209 21.8294 19.2206 21.8696L8.70746 24.6383C8.70746 24.6383 8.52689 25.6214 8.40651 26.1631L19.341 23.0332L18.7391 30.898L9.00841 26.2032C8.96828 26.444 9.00841 27.1863 9.00841 27.9086C9.20904 27.9889 18.2576 31.7407 18.3178 31.7607C19.04 32.0216 19.2206 31.9814 19.4413 32.142C19.662 32.3025 20.1435 32.3827 20.3241 32.4028C20.926 32.5031 21.9091 32.4429 22.4909 32.162C25.6408 30.6171 26.965 29.8547 26.965 29.8347C27.1055 30.1758 27.6672 30.3764 27.9682 29.9952C28.0083 29.9551 28.0484 29.8949 28.0886 29.8146L27.7074 29.9751L27.5067 29.7143L27.7074 29.2729L28.1287 29.0923L28.3293 29.3331C28.3293 29.3331 28.3293 29.0321 28.2691 28.9519C28.1287 28.7513 27.7475 28.4102 27.1657 28.6309L27.1857 28.6509ZM20.8658 31.4598C20.0432 31.4598 19.7824 30.9983 19.7623 30.7375C19.7623 30.5369 20.2438 23.6953 20.2438 23.6953C20.2438 23.6552 20.8056 24.5179 21.4677 25.2603C22.1298 26.0026 24.0559 27.407 26.7644 29.2127C26.4233 29.4936 22.9524 31.4397 20.8457 31.4397L20.8658 31.4598Z" fill="#C7C6C4"/>
<path d="M27.2058 29.5739L27.0854 29.1325C27.0854 29.1325 26.965 28.992 26.8647 28.9519C26.5838 28.7914 25.9217 28.4102 25.6408 28.2096C24.9787 27.728 22.1298 25.501 21.5078 24.7185C20.8858 23.9361 20.4444 23.1536 20.3241 22.973C20.0632 22.6119 19.6018 22.4313 19.2005 22.5317C16.833 23.1737 9.1087 25.5211 8.44661 25.6214C8.40648 25.8822 8.38642 26.0427 8.42655 26.1631L19.361 23.0332L18.7591 30.8579C18.7591 31.0987 18.4983 31.2391 18.2776 31.1388L9.02844 27.2666C8.98832 27.5073 9.02844 27.6478 9.02844 27.8885C9.22908 27.9688 18.2776 31.7206 18.3378 31.7407C19.0601 32.0015 19.2406 31.9614 19.4613 32.1219C19.682 32.2824 20.1636 32.3626 20.3441 32.3827C20.946 32.483 21.9291 32.4228 22.511 32.142C25.6609 30.5971 26.9851 29.8347 26.9851 29.8146C27.1255 30.1557 27.6873 30.3563 27.9882 29.9751C28.0283 29.935 28.0685 29.8748 28.1086 29.7946L27.7274 29.9551L27.5468 29.8949C27.3863 29.8347 27.2459 29.6942 27.1857 29.5337L27.2058 29.5739ZM20.9861 31.9614C20.1636 31.9614 19.2206 31.8009 19.3811 30.7375C19.4011 30.577 19.7422 24.7787 19.8225 23.4345C19.8225 23.3342 19.9629 23.3141 20.0231 23.3944C20.3441 23.8358 20.946 24.6584 21.4877 25.2603C22.1498 26.0026 24.0759 27.407 26.7844 29.2127C26.7844 29.2127 27.0653 29.4936 26.8847 29.614C25.9618 30.1758 22.852 31.9413 21.0062 31.9614H20.9861Z" fill="#C7C6C4"/>
<path d="M19.3811 31.5601C19.5416 31.7608 19.4814 31.9614 19.341 32.0416L16.2713 34.2285C16.1308 34.3289 15.9503 34.4091 15.8299 34.2285C15.7296 34.1082 15.7697 33.8875 15.9101 33.8072L18.9397 31.52C19.0801 31.4397 19.2406 31.4197 19.3811 31.5802V31.5601Z" fill="#616B85"/>
<path d="M19.3209 31.7607C19.3209 31.861 19.2407 31.9813 19.1604 32.0215C19.0601 32.0616 18.9999 32.0215 18.9999 31.9011C18.9999 31.8008 19.0802 31.6804 19.1604 31.6403C19.2607 31.6001 19.3209 31.6403 19.3209 31.7607Z" fill="#7E80A1"/>
<path d="M18.8795 36.1144C18.8795 36.1144 18.8394 36.1144 18.8194 36.0943L15.9904 34.3689C15.85 34.2887 15.7898 34.088 15.85 33.9476C15.9102 33.8272 16.0908 33.8071 16.2312 33.8874L19.0601 35.6128C19.2006 35.6931 19.2607 35.8737 19.2006 35.994C19.1404 36.1144 19.02 36.1545 18.8996 36.1144H18.8795Z" fill="#7E80A1"/>
<path d="M18.398 36.6762L16.2111 35.332L16.1309 34.9508C16.3516 34.7502 17.114 34.369 17.2143 34.4492L19.6018 35.6129C19.6018 35.6129 19.5617 36.0342 19.5416 36.0543C19.5015 36.1747 19.4614 36.3753 19.1805 36.5157C18.7993 36.7164 18.378 36.6963 18.3579 36.6762H18.398Z" fill="#282E3D"/>
<path d="M18.4582 36.3752L16.1309 34.9306C16.1309 34.9306 16.4519 34.5494 16.5321 34.4692C16.7528 34.2686 17.1742 34.0479 17.2745 34.1281L19.5818 35.5325C19.7021 35.5927 19.4012 36.0341 19.2407 36.1344C18.8595 36.3551 18.4582 36.3752 18.4382 36.3752H18.4582Z" fill="#3D4663"/>
<path d="M16.813 35.0511C16.813 35.0511 16.8732 35.0311 16.9134 35.0511L18.5585 36.0342H18.5786C18.5786 36.0342 18.6187 35.9139 18.5786 35.8737L16.8933 34.8706C16.8933 34.8706 16.8331 34.8706 16.793 34.8706L16.7127 34.9508C16.7127 34.9508 16.6927 35.0511 16.7328 35.0913H16.7729L16.813 35.0712V35.0511Z" fill="#282E3D"/>
<path d="M17.3146 34.5896C17.3146 34.5896 17.3748 34.5695 17.4149 34.5896L19.0601 35.5727H19.0802C19.0802 35.5727 19.1203 35.4523 19.0802 35.4122L17.3949 34.409C17.3949 34.409 17.3347 34.409 17.2946 34.409L17.2143 34.4893C17.2143 34.4893 17.1942 34.5896 17.2344 34.6297H17.2745L17.3146 34.6097V34.5896Z" fill="#282E3D"/>
<path d="M19.3811 36.2749C19.3811 36.2749 19.3009 36.3953 19.2407 36.4154C19.1805 36.4154 19.1404 36.3752 19.1404 36.315C19.1404 36.2549 19.2206 36.1947 19.2808 36.1746C19.341 36.1746 19.3811 36.2147 19.3811 36.2749Z" fill="#7E80A1"/>
<path d="M19.7824 21.4482C19.662 21.5084 19.662 21.6087 19.7824 21.689C19.9028 21.7692 20.0833 21.8093 20.2037 21.7491C20.3241 21.689 20.3241 21.5886 20.2037 21.5084C20.0833 21.4281 19.9028 21.388 19.7824 21.4482Z" fill="#F6B219"/>
<path d="M20.1435 21.7291C20.1435 21.7291 20.2238 21.6087 20.2438 21.4883L20.3843 19.7428C20.3843 19.6023 20.304 19.4619 20.1636 19.4418C20.0231 19.4017 19.9027 19.502 19.8827 19.6224L19.7422 21.4482C19.7422 21.5685 19.7623 21.6287 19.8827 21.6889C19.9429 21.7291 20.1234 21.729 20.1636 21.709L20.1435 21.7291Z" fill="#7E80A1"/>
<path d="M20.2639 21.1472C20.2037 21.3278 19.8426 21.2676 19.7623 21.1071L19.8626 19.7227C19.8626 19.5823 20.0231 19.5221 20.1636 19.5422C20.304 19.5823 20.4043 19.7027 20.3843 19.8431L20.2639 21.1472Z" fill="#616B85"/>
<path d="M17.2143 20.8062C17.2143 20.8062 17.114 20.726 17.0939 20.6658C17.0738 20.5855 17.0538 20.3046 17.0538 20.3046C17.8162 19.7429 18.5786 18.9604 19.2407 18.6795C20.1234 18.2983 21.7686 18.6996 22.5511 19.2614C22.5511 19.2614 22.5511 19.8031 22.5511 20.104C22.5511 20.4451 22.4107 20.7059 21.8288 20.8865C21.0865 21.1272 20.2639 20.5855 19.4413 20.8865C19.2808 20.9467 17.9366 21.3279 17.1942 20.8263L17.2143 20.8062Z" fill="#282E3D"/>
<path d="M17.1741 20.5052C16.6726 20.1441 17.8563 19.5422 17.9967 19.4419C18.7591 18.8801 18.2977 18.3785 18.9798 18.0976C19.8626 17.7164 21.2269 17.8569 22.0094 18.4186C22.7919 18.9804 22.7116 19.7428 21.8088 20.1441C21.0865 20.4651 20.2639 20.0237 19.4413 20.3046C19.2808 20.3648 17.8964 21.0469 17.1741 20.5453V20.5052Z" fill="#7E80A1"/>
<path d="M20.3642 19.5823C20.3642 19.5823 20.5849 19.2814 20.3642 19.1008C20.1435 18.9202 19.7824 18.8601 19.6219 18.9604C19.4614 19.0607 19.04 19.4218 18.4181 19.803C18.1573 19.9635 17.9366 20.0438 17.756 20.1441C17.7159 20.1642 17.756 20.2244 17.8363 20.1842C18.0369 20.104 18.3378 19.9836 18.5385 19.9234C19.2006 19.7027 19.7222 19.6225 20.3642 19.6024V19.5823Z" fill="#616B85"/>
<path d="M9.18897 27.9086V24.7787C9.14884 24.3574 8.7877 24.0163 8.34631 23.9361H8.20587C8.20587 23.9361 8.16574 23.9361 8.14568 23.9361C7.82467 23.9361 7.58391 24.1969 7.58391 24.5179V25.9825C7.58391 25.9825 7.62404 27.4873 7.66416 27.8685C7.66416 28.029 7.70429 28.1895 7.84473 28.3299C7.94505 28.4503 8.10555 28.5506 8.34631 28.5707C8.34631 28.5707 8.54695 28.5907 8.72751 28.5305C9.08865 28.3901 9.2291 28.1694 9.18897 27.9086Z" fill="#C7C6C4"/>
<path d="M8.54695 24.0765C8.68739 24.1768 8.68739 24.3172 8.54695 24.3774C8.40651 24.4376 8.16575 24.4176 8.00524 24.2972C7.8648 24.1969 7.8648 24.0564 8.00524 23.9962C8.14568 23.936 8.38644 23.9561 8.54695 24.0765Z" fill="#F6B219"/>
<path d="M8.18579 24.3373C8.04535 24.2771 7.94503 24.1969 7.94503 24.0364V22.652C7.94503 22.4714 8.10554 22.351 8.28611 22.3912C8.46668 22.4112 8.60712 22.5717 8.60712 22.6721C8.60712 22.6721 8.64725 23.2138 8.60712 24.1567C8.60712 24.2169 8.60712 24.3373 8.54693 24.3774C8.46668 24.4176 8.36636 24.3975 8.20586 24.3373H8.18579Z" fill="#7E80A1"/>
<path d="M10.8542 26.2634C10.8542 26.2634 10.7539 26.2434 10.6937 26.2032L3.39066 20.9467C3.23016 20.8463 3.19003 20.6457 3.27028 20.5053C3.35053 20.3648 3.55117 20.3448 3.71167 20.4451L11.0147 25.7017C11.1752 25.802 11.2153 26.0026 11.1351 26.143C11.0749 26.2434 10.9746 26.2835 10.8542 26.2634Z" fill="#7E80A1"/>
<g style="mix-blend-mode:multiply">
<path d="M8.62722 23.1937C8.62722 22.8526 8.62722 22.672 8.62722 22.672C8.62722 22.6319 8.60716 22.5717 8.54697 22.5316C8.3664 22.4313 8.18583 22.4513 8.02532 22.5316C8.00526 22.5717 7.9852 22.6118 7.9852 22.672V23.5347C8.1457 23.4545 8.50684 23.314 8.62722 23.2137V23.1937Z" fill="#DFE6F0"/>
</g>
<path d="M12.379 27.1663C12.2586 27.2866 12.0781 27.2866 11.9176 27.1663L9.69053 25.5211C9.53002 25.4007 9.46984 25.1599 9.57015 25.0195C9.67047 24.859 9.89116 24.8389 10.0517 24.9593L12.2787 26.6045C12.4392 26.7249 12.4994 26.9656 12.3991 27.1061C12.3991 27.1061 12.379 27.1462 12.3589 27.1462L12.379 27.1663Z" fill="#3D4663"/>
<path d="M4.37381 21.2676C4.45406 21.1472 4.61457 21.1071 4.75501 21.1873C4.73495 21.1271 4.71489 21.1071 4.69482 21.087L2.44774 19.4619C2.26717 19.3415 2.06654 19.3616 1.96622 19.5221C1.8659 19.6826 1.92609 19.9033 2.0866 20.0236L4.33369 21.6488C4.33369 21.6488 4.41394 21.6688 4.434 21.6889C4.33369 21.5685 4.29356 21.3879 4.37381 21.2676Z" fill="#3D4663"/>
<path d="M8.70746 22.6721C8.70746 22.5316 8.64727 22.4514 8.56702 22.3912C8.32626 22.1905 8.04538 22.3109 7.88487 22.4112L7.00209 22.7924C6.74126 22.9329 6.64095 23.3542 6.90177 23.5548C7.04221 23.6552 7.38329 23.936 7.4836 23.8759C7.40335 23.8157 7.38329 23.7956 7.38329 23.7956C7.38329 23.5147 7.72436 23.3141 7.84474 23.4144C7.84474 23.4144 8.44664 23.1536 8.60715 23.0131C8.70746 22.9329 8.6874 22.7724 8.70746 22.6721Z" fill="#616B85"/>
<path d="M8.50681 22.4714C8.62719 22.5516 8.62719 22.672 8.50681 22.7322C8.38643 22.7924 8.1858 22.7523 8.04536 22.672C7.92498 22.5918 7.92498 22.4714 8.04536 22.4112C8.16574 22.351 8.36637 22.3911 8.50681 22.4714Z" fill="#7E80A1"/>
<path d="M4.49416 19.6626C5.25656 19.0206 6.54061 17.8168 7.10238 17.1747C7.60396 16.613 8.08548 16.0111 8.3463 15.048C8.86795 13.0618 9.00839 10.1927 9.00839 10.1927L7.04219 9.63095C7.04219 9.63095 6.88168 12.9414 6.68105 14.0649C6.6008 14.5464 6.50048 15.1283 5.8384 15.991C5.29669 16.7133 4.53428 17.8769 3.73175 18.6394C3.59131 18.7597 3.35055 19.0607 3.25024 19.1209C2.96935 19.2613 2.32733 19.482 2.26714 19.6225C2.18688 19.8231 2.04644 19.9234 2.10663 20.1642C2.14676 20.3247 2.34739 20.746 2.56808 20.8864C3.02954 21.1874 3.35055 21.3479 3.63144 21.1272C3.63144 21.1272 3.53112 21.067 3.51106 20.9868C3.45087 20.8062 3.55118 20.6256 3.81201 20.5052L4.31359 20.8062C4.4139 20.6056 4.2534 20.2043 4.27346 20.0839C4.31359 19.9033 4.37378 19.803 4.47409 19.6225L4.49416 19.6626Z" fill="#F4CEB8"/>
<path d="M8.9081 11.9583C8.98836 11.5972 9.63038 9.45041 9.18899 8.3068C8.92817 7.64471 8.62722 7.5444 8.18583 7.52433C7.80462 7.52433 7.44349 7.86541 7.30304 8.28674C7.12247 8.80838 6.66102 10.5539 6.60083 11.1357C6.60083 11.1357 6.68108 11.3564 7.08235 11.537C8.20589 12.0386 8.9081 11.9784 8.9081 11.9784V11.9583Z" fill="#332E20"/>
<path d="M16.8732 35.1112C16.7127 35.4724 16.5321 35.3319 16.1108 35.8536C15.7496 36.2749 15.7697 36.8166 16.5923 36.9771C17.1139 37.0774 17.6155 36.8969 17.9365 36.636C18.1372 36.4755 18.4783 36.0943 18.5986 35.5125C18.6187 35.3921 18.9196 35.0912 19.04 34.8504C19.2607 34.409 19.4613 33.9074 18.5184 33.4259C17.5754 32.9444 17.4751 33.6667 17.3346 33.9074C17.2143 34.1281 17.1139 34.5896 16.8732 35.1112Z" fill="#616B85"/>
<path d="M19.0601 33.7069C18.8996 33.3056 18.9598 33.0448 18.5986 32.9846C17.5955 32.8041 17.1541 33.3658 17.0738 33.6066C16.9936 33.8473 16.7729 34.2085 16.6726 34.6499C16.5923 34.9508 16.3716 35.0913 16.2512 35.2718C16.1509 35.3922 15.9904 35.653 15.9703 35.7734C15.87 36.0543 15.7496 36.3954 16.3114 36.6361C16.8933 36.8769 17.4149 36.5759 17.7158 36.4154C17.9767 36.275 18.2977 35.8737 18.5184 35.312C18.5585 35.1916 19.0601 34.6699 19.1203 34.3289C19.1203 34.2486 19.2005 33.9878 19.0801 33.727L19.0601 33.7069Z" fill="#747167"/>
<path d="M13.5828 24.9994C13.4022 25.3605 13.6229 26.3235 13.9841 26.9455C14.4455 27.6076 15.7697 30.1957 17.2343 33.4259C17.2745 33.5062 17.3948 33.6667 17.7158 33.7269C17.9165 33.767 18.4582 33.8272 18.719 33.2855C18.719 32.804 18.4181 32.5632 18.3177 32.2021C17.7158 30.3763 17.5955 28.6107 16.5321 26.2433C16.5321 26.2433 16.7327 25.9624 16.5321 25.5611C16.2111 24.899 15.0876 23.5749 14.8267 23.4746C14.5458 23.3542 14.0844 23.8357 13.8035 24.3774C13.643 24.6783 13.6029 25.0194 13.6029 25.0194L13.5828 24.9994Z" fill="#F4CEB8"/>
<path d="M17.3948 25.5612C19.1002 24.237 20.5849 22.5918 21.4877 21.0269C22.0495 20.0638 21.6884 18.0776 21.0062 17.4958C20.1034 16.7534 18.8996 16.633 18.6388 16.5528C18.1974 16.4324 15.9503 17.255 16.0305 18.6995C16.0707 19.5422 16.6124 19.9836 16.2914 20.5253C15.1076 22.6119 13.9038 23.6552 13.6631 24.5179C13.7032 24.3774 14.7465 24.0564 15.4487 24.538C16.3315 25.1599 16.4519 25.8822 16.492 26.2032C16.6926 26.0026 16.9936 25.8421 17.3948 25.5211V25.5612Z" fill="#616B85"/>
<g style="mix-blend-mode:multiply">
<path d="M21.1667 17.6763C21.1667 17.6763 21.1467 17.6562 21.1266 17.6361C21.1266 17.6361 21.1266 17.6361 21.1065 17.6161C21.1065 17.6161 21.1065 17.6161 21.0865 17.596C21.0865 17.596 21.0463 17.5559 21.0263 17.5358C20.9861 17.5157 20.946 17.4756 20.926 17.4556C20.8858 17.4355 20.8457 17.3954 20.8256 17.3753C19.9629 16.7734 18.9397 16.6731 18.6989 16.6129C18.2575 16.4925 16.0105 17.3151 16.0907 18.7597C16.1108 19.181 16.2512 19.502 16.3515 19.7829C17.3547 20.0437 18.5786 20.0437 19.8626 19.4819C19.9429 19.4418 20.0432 19.4017 20.1234 19.3616C20.4846 19.1609 20.9661 19.502 20.946 19.9434C20.926 20.3647 20.8256 20.8463 20.5448 21.2676C19.9228 22.1905 17.3948 25.2401 16.0305 25.0997C16.4519 25.5812 16.512 26.0627 16.5522 26.3035C16.7528 26.1028 17.0537 25.9423 17.455 25.6213C19.1604 24.2971 20.6451 22.6519 21.5479 21.087C22.0696 20.2042 21.7887 18.4387 21.2068 17.7164L21.1667 17.6763Z" fill="#B8C5D2"/>
</g>
<path d="M8.78771 12.3596C7.82467 11.0555 7.6441 10.0322 7.68423 8.58768C7.68423 8.16635 7.92499 7.60458 8.30619 7.50426C8.60714 7.42401 10.3928 6.90236 12.1985 7.54439C13.964 8.18641 15.1478 8.90869 15.87 9.49052C16.2914 9.8316 17.134 10.5539 18.1974 12.0386C20.3843 15.0681 21.0263 17.0744 21.0464 17.3152C21.1467 18.0375 20.4445 18.6394 19.6419 19.0005C16.9936 20.2043 14.5659 18.84 13.9038 18.1177C13.8236 18.0375 13.322 16.7735 11.7972 15.2687C11.4762 14.9477 9.2291 12.9414 8.80777 12.3395L8.78771 12.3596Z" fill="#747167"/>
<path d="M14.285 13.6838L14.1045 18.6193C14.1045 18.7397 14.0242 19.161 13.964 19.3617C13.7835 20.1441 13.5026 20.8865 12.9007 22.1906C12.4994 23.0332 12.1182 23.4947 11.8975 23.916C11.8975 23.916 11.8173 24.0565 11.7571 24.1167C11.5966 24.3574 11.3759 24.4778 11.0549 24.6182C10.9144 24.6584 10.6135 24.7587 10.5332 24.7988C10.4329 24.859 10.2724 24.9994 10.2122 25.1198L10.3125 25.18C10.3125 25.2803 10.2724 25.3606 10.0918 25.6013C10.0517 25.6615 10.0918 25.9825 10.1921 26.2233C10.3125 26.5243 11.1552 27.0459 11.416 27.086C11.5364 27.1061 11.5966 27.1061 11.737 27.066C11.6568 26.9456 11.3759 26.6848 12.038 26.4239C12.5596 26.2032 12.4192 25.6415 12.4794 25.4408C12.5195 25.3004 12.7201 25.0596 12.8606 24.859C13.1214 24.538 13.7835 23.6953 14.4656 22.6721C15.3083 21.4081 15.5892 20.8263 15.7497 20.2645C15.85 20.0438 15.8901 19.783 15.9503 19.482C16.2512 18.2381 16.3716 14.2656 16.3716 14.2656L14.265 13.7239L14.285 13.6838Z" fill="#F4CEB8"/>
<path d="M16.5723 15.048C16.6124 14.8875 16.7528 13.0417 16.6525 12.1589C16.5723 11.3764 16.3315 10.8347 15.8901 10.5338C15.6293 10.3532 15.1879 10.293 14.8869 10.5338C14.5057 10.8147 14.1847 11.6373 14.1245 12.6003C14.0844 13.3828 14.0443 14.2254 14.0443 14.7671C14.0443 14.7671 14.2248 15.1684 15.3083 15.3289C16.0907 15.4493 16.5923 15.0681 16.5923 15.0681L16.5723 15.048Z" fill="#332E20"/>
<path d="M12.4191 8.20647C12.3991 8.32684 12.2988 8.48735 12.2586 8.52748C12.0981 8.70805 11.5965 9.12937 10.794 8.92874C10.3326 8.80836 10.2322 8.46729 10.2322 8.46729L9.89117 7.64469L12.058 5.49793C12.058 5.49793 12.1583 6.72178 12.1984 7.0428C12.2185 7.22337 12.4793 8.0259 12.4392 8.1864L12.4191 8.20647Z" fill="#E6BA9F"/>
<path d="M7.78457 3.55177C7.68425 3.85272 7.74444 4.17373 7.86482 4.71544C7.86482 4.79569 7.9852 5.77879 8.06545 5.99949C8.42659 7.16316 9.00842 7.9055 9.24918 7.98575C9.59026 8.10613 9.97146 8.16632 10.4129 7.94562C10.6335 7.82524 11.2354 7.40391 11.4762 7.18322C11.6367 7.06284 11.6568 6.36062 11.6768 6.15999C11.6768 6.03961 11.7571 6.30044 11.9176 6.30044C12.038 6.30044 12.0781 6.22018 12.0982 6.18006C12.9408 4.55493 12.4593 2.34797 11.1753 1.90658C9.89121 1.46519 8.10558 2.56867 7.7645 3.55177H7.78457Z" fill="#F4CEB8"/>
<path d="M7.76447 2.54858C7.26288 2.82947 7.24282 3.51162 7.38326 3.8527C7.56383 4.35428 8.22592 4.63516 8.08548 4.49472C7.70428 4.07339 7.7444 2.94985 8.58706 3.29093C8.78769 3.37118 8.80775 3.81257 9.42972 3.81257C9.53003 3.81257 9.9313 3.75238 10.1319 3.73232C10.1721 3.73232 10.2122 3.73232 10.2523 3.73232C10.2924 3.73232 10.3125 3.77244 10.3526 3.81257C10.473 3.97308 10.5131 4.29409 10.5332 4.33422C10.6937 4.51478 10.9746 4.53485 11.0147 4.79567C11.0147 4.8358 11.115 5.61826 11.737 5.47782C11.5965 5.39757 11.4762 5.23706 11.5564 4.95618C11.6166 4.73548 11.6969 4.59504 11.8373 4.55491C12.1182 4.49472 12.2185 4.97624 12.1784 5.41763C12.1383 5.93928 12.1383 6.03959 12.1182 6.24022C12.6198 6.07972 12.5395 5.8189 12.5395 5.45776C12.5395 5.05649 13.1013 4.09346 12.2386 2.66896C11.1953 0.943524 9.3294 1.6658 7.78453 2.52852L7.76447 2.54858Z" fill="#3D4663"/>
<path d="M10.7138 4.57497C11.2354 6.76187 11.757 6.82206 11.757 6.82206L11.8774 6.52111C11.8774 6.52111 11.3959 6.13991 11.0348 4.37434C11.0147 4.27402 10.6937 4.49472 10.7138 4.59504V4.57497Z" fill="#616B85"/>
<path d="M11.9978 3.95298C11.9978 3.95298 12.1583 4.51475 12.1583 5.0364C12.1583 5.55804 12.0781 6.38064 11.9978 6.44082C11.9176 6.52108 11.8774 6.50101 11.8774 6.50101L11.7169 6.74177L11.7571 6.80196C11.7571 6.80196 11.9978 6.94241 12.1784 6.80196C12.359 6.68158 12.4593 5.63829 12.4593 5.47779C12.4593 5.31728 12.4994 4.29406 12.359 3.97304C12.2185 3.65203 12.0179 3.93292 12.0179 3.93292L11.9978 3.95298Z" fill="#616B85"/>
<g style="mix-blend-mode:multiply">
<path d="M12.2185 2.68905C11.1752 0.963607 9.30934 1.68588 7.76447 2.5486C7.26288 2.82949 7.24282 3.51164 7.38326 3.85272C7.46352 4.07341 7.62402 4.25398 7.78453 4.37436C7.78453 4.47468 7.82466 4.59506 7.86478 4.71544C7.86478 4.75556 7.88485 4.91607 7.92497 5.1167C8.40649 5.23708 9.1087 5.27721 9.59022 5.21702C9.81092 5.17689 10.152 5.13676 10.2724 5.1167C10.4931 5.09664 10.6335 5.05651 10.8743 5.01639C10.9746 4.99632 11.0749 4.93613 11.1351 4.83582C11.2354 4.67531 11.416 4.43455 11.4762 4.41449C11.5364 4.39442 11.7571 4.29411 11.8774 4.27404C12.0179 4.25398 12.379 4.37436 12.4994 4.3543C12.5997 4.3543 12.68 4.27404 12.7402 4.19379C12.7402 3.77246 12.5997 3.27088 12.2586 2.70911L12.2185 2.68905Z" fill="#B8C5D2"/>
</g>
<path d="M12.7 2.24766C12.7 2.24766 12.6198 2.02696 12.5997 1.98683C12.2386 1.0238 11.2755 0.0406967 9.6504 0.000570192C8.64724 -0.0194931 7.18262 0.482088 6.90173 2.74924C6.86161 3.03012 6.94186 3.49158 6.94186 3.51164C6.94186 3.65208 6.94186 3.67215 6.90173 3.77246C6.84155 3.9731 7.24281 4.49474 7.5237 4.7355C7.58389 4.79569 7.66414 4.83582 7.74439 4.85588C8.22591 4.99632 9.00838 5.05651 9.50996 4.97626C9.73065 4.93613 10.0717 4.89601 10.1921 4.87594C10.4128 4.85588 10.5532 4.81575 10.794 4.77563C10.8943 4.75556 10.9946 4.69537 11.0548 4.59506C11.1551 4.43455 11.3357 4.19379 11.3959 4.17373C11.4561 4.15366 11.6768 4.05335 11.7972 4.03328C11.9376 4.01322 12.2988 4.1336 12.4191 4.11354C12.6198 4.07341 12.7201 3.85272 12.8003 3.59189C12.9006 3.23075 12.9006 3.07025 12.7 2.22759V2.24766Z" fill="#BDBCB8"/>
<path d="M12.8204 3.27088C12.7401 3.5317 12.6198 3.85271 12.4191 3.89284C12.2787 3.9129 11.9176 3.79252 11.7972 3.81259C11.6768 3.83265 11.4561 3.93297 11.3959 3.95303C11.3357 3.97309 11.0749 4.19379 10.9746 4.3543C10.9144 4.43455 10.4329 4.63518 10.2122 4.67531C10.0918 4.67531 9.75072 4.7355 9.53003 4.77562C9.02845 4.85588 8.24598 4.77562 7.76446 4.65524C7.68421 4.63518 7.60396 4.59505 7.54377 4.53486C7.34313 4.3543 7.04219 3.97309 6.94187 3.73233C6.94187 3.73233 6.94187 3.77246 6.94187 3.79252C6.88168 3.99316 7.28294 4.5148 7.56383 4.75556C7.62402 4.81575 7.70427 4.85588 7.78453 4.87594C8.26604 5.01638 9.04851 5.07657 9.55009 4.99632C9.77079 4.95619 10.1119 4.91607 10.2322 4.896C10.4529 4.87594 10.5934 4.83581 10.8341 4.79569C10.9345 4.77562 11.0348 4.71543 11.095 4.61512C11.1953 4.45461 11.3758 4.21385 11.436 4.19379C11.4962 4.17373 11.7169 4.07341 11.8373 4.05335C11.9777 4.03328 12.3389 4.15366 12.4593 4.1336C12.6599 4.09347 12.7602 3.87278 12.8405 3.61195C12.9007 3.43139 12.9207 3.29094 12.9007 3.09031C12.9007 3.1505 12.8806 3.21069 12.8605 3.29094L12.8204 3.27088Z" fill="#332E20"/>
<path d="M11.8172 2.76924L11.7771 3.2307C11.7771 3.2307 11.8574 3.33101 11.9176 3.35108C12.0981 3.37114 12.3991 3.3912 12.5195 3.45139C12.6398 3.49152 12.6398 3.3912 12.6398 3.27082C12.6398 3.21063 12.6398 3.15044 12.5797 3.09025C12.4593 2.96988 12.2386 2.76924 11.9778 2.68899C11.8975 2.66893 11.8172 2.70905 11.8172 2.78931V2.76924Z" fill="#3D4663"/>
<path d="M11.8975 1.72595C11.8975 1.72595 11.9777 1.6457 12.0179 1.68583C12.1583 1.82627 12.379 2.0269 12.4793 2.12722C12.6198 2.28772 12.6599 2.52848 12.68 2.66893C12.68 2.70905 12.68 2.70905 12.6398 2.68899C12.4994 2.58867 12.2386 2.38804 11.9978 2.32785C11.9376 2.32785 11.8574 2.28772 11.8774 2.20747L11.9176 1.70589L11.8975 1.72595Z" fill="#3D4663"/>
<path d="M11.2956 2.90971C11.3357 3.15047 11.2755 3.41129 11.115 3.53167C10.7138 3.83262 10.4329 4.01319 10.1319 4.03325C9.95136 4.03325 9.95136 3.953 9.95136 3.87274C9.95136 3.79249 9.95136 3.7323 10.0316 3.71224C10.7338 3.39123 10.6937 2.42819 10.8542 2.32787C11.1351 2.12724 11.2153 2.52851 11.2956 2.90971Z" fill="#3D4663"/>
<path d="M9.08863 3.79249C9.08863 3.79249 9.2692 3.79249 9.38958 3.79249C9.44977 3.79249 9.4899 3.7323 9.50996 3.67211C9.63034 3.17053 9.77078 2.78933 9.97141 2.50844C10.0316 2.42819 9.63034 2.30781 9.38958 2.24762C9.28926 2.22756 9.22907 2.24762 9.18895 2.30781C9.06857 2.50844 8.86793 2.90971 8.888 3.53167C8.888 3.65205 8.98831 3.77243 9.10869 3.79249H9.08863Z" fill="#3D4663"/>
<path d="M10.6335 1.40495C10.4529 1.54539 10.3526 1.72596 10.2724 1.84634C10.2322 1.92659 10.1319 1.96672 10.0316 1.94666L9.5501 1.78615C9.5501 1.78615 9.42972 1.66577 9.46984 1.58552C9.5501 1.44508 9.69054 1.30463 9.97143 1.104C10.0316 1.06387 10.0717 1.04381 10.152 1.08394L10.473 1.26451C10.473 1.26451 10.6736 1.36482 10.6335 1.40495Z" fill="#3D4663"/>
<path d="M10.473 0.863276C10.473 0.863276 10.4329 0.783023 10.473 0.76296C10.5934 0.682707 10.7339 0.64258 10.8542 0.622517C11.1953 0.562327 11.4561 0.70277 11.6367 0.82315C11.6768 0.863276 11.717 0.923466 11.6568 0.923466C11.4963 0.923466 11.2354 0.923466 11.0549 1.06391C11.0147 1.10404 10.9546 1.10404 10.8944 1.06391L10.473 0.863276Z" fill="#3D4663"/>
<path d="M7.98515 3.53175C7.98515 3.53175 8.16572 3.59194 8.24598 3.59194C8.32623 3.59194 8.40648 3.53175 8.42655 3.4515C8.46667 3.17061 8.60712 2.50852 8.76762 2.18751C8.80775 2.12732 8.62718 2.02701 8.54693 1.98688C8.38642 1.92669 8.32623 1.88656 8.26604 1.88656C8.20585 1.88656 7.82465 2.22764 7.86478 3.37124C7.86478 3.4515 7.92497 3.53175 7.98515 3.55181V3.53175Z" fill="#3D4663"/>
<path d="M8.92812 1.54546L8.60711 1.40502C8.60711 1.40502 8.54692 1.34483 8.56698 1.3047C8.6673 1.14419 8.84787 0.863308 9.0485 0.742928C9.08863 0.722865 9.12875 0.722865 9.18894 0.742928C9.24913 0.762992 9.32939 0.783055 9.40964 0.823181C9.48989 0.863308 9.55008 0.903434 9.48989 0.963624C9.36951 1.084 9.18894 1.28464 9.08863 1.48527C9.06856 1.54546 8.98831 1.56552 8.92812 1.54546Z" fill="#3D4663"/>
<path d="M9.71062 0.562349L9.48992 0.462033C9.48992 0.462033 9.46986 0.401843 9.48992 0.38178C9.6103 0.281463 9.85106 0.120957 10.2323 0.181147L10.5131 0.221273C10.5131 0.221273 10.6335 0.2614 10.5934 0.2614C10.4128 0.301527 10.0316 0.38178 9.81093 0.562349C9.77081 0.582412 9.73068 0.602475 9.69055 0.562349H9.71062Z" fill="#3D4663"/>
<path d="M7.34317 1.50536C7.34317 1.50536 7.36323 1.54548 7.50368 1.60567C7.56387 1.62574 7.68425 1.70599 7.66418 1.76618C7.60399 1.8665 7.52374 2.04706 7.46355 2.42827C7.44349 2.58877 7.40336 3.17061 7.36323 3.21073C7.32311 3.25086 7.04222 3.11042 7.04222 3.05023C7.04222 2.99004 6.86165 2.36808 7.24285 1.58561C7.24285 1.54548 7.28298 1.52542 7.34317 1.52542V1.50536Z" fill="#3D4663"/>
<path d="M7.74441 1.20439C7.74441 1.20439 7.60396 1.16426 7.54378 1.1442C7.50365 1.1442 7.50365 1.06395 7.54378 1.04388C7.62403 0.923502 7.76447 0.762996 8.14567 0.502174C8.14567 0.502174 8.20586 0.482111 8.22593 0.482111C8.28612 0.482111 8.3463 0.522237 8.50681 0.622554C8.50681 0.622554 8.32624 0.66268 7.94504 1.16426C7.90491 1.20439 7.84472 1.22445 7.76447 1.22445L7.74441 1.20439Z" fill="#3D4663"/>
<path d="M8.80778 0.241371H8.72753C8.72753 0.241371 8.96829 0.0808653 9.44981 0.000612282C9.44981 0.000612282 9.14886 0.100929 8.94823 0.221308C8.9081 0.241371 8.86797 0.241371 8.82785 0.221308L8.80778 0.241371Z" fill="#3D4663"/>
<path d="M11.6768 6.78199C11.6768 6.78199 11.6768 7.04282 11.1752 7.42402C11.0548 7.52433 10.6335 7.80522 10.6335 7.80522C10.6335 7.80522 10.8542 7.82528 11.0348 7.74503C11.1953 7.66478 11.9175 7.30364 12.1182 6.80206C12.1984 6.58136 11.6768 6.76193 11.6768 6.76193V6.78199Z" fill="#616B85"/>
<defs>
<linearGradient id="paint0_linear_1_1773" x1="-78.0515" y1="19.875" x2="-82.2967" y2="9.34572" gradientUnits="userSpaceOnUse">
<stop offset="0.25" stop-color="#F0F2F5"/>
<stop offset="0.48" stop-color="#D9E0E7"/>
<stop offset="0.8" stop-color="#C1CCD7"/>
<stop offset="1" stop-color="#B8C5D2"/>
</linearGradient>
<linearGradient id="paint1_linear_1_1773" x1="-81.62" y1="14.4464" x2="-80.3313" y2="12.7847" gradientUnits="userSpaceOnUse">
<stop stop-color="#8B9FB6"/>
<stop offset="0.08" stop-color="#9AACC0"/>
<stop offset="0.31" stop-color="#BFCBDA"/>
<stop offset="0.49" stop-color="#D6DEEA"/>
<stop offset="0.6" stop-color="#DFE6F0"/>
</linearGradient>
<linearGradient id="paint2_linear_1_1773" x1="-99.5298" y1="28.4682" x2="-103.741" y2="17.9843" gradientUnits="userSpaceOnUse">
<stop offset="0.25" stop-color="#F0F2F5"/>
<stop offset="0.48" stop-color="#D9E0E7"/>
<stop offset="0.8" stop-color="#C1CCD7"/>
<stop offset="1" stop-color="#B8C5D2"/>
</linearGradient>
<linearGradient id="paint3_linear_1_1773" x1="-102.925" y1="22.821" x2="-101.886" y2="21.4888" gradientUnits="userSpaceOnUse">
<stop stop-color="#8B9FB6"/>
<stop offset="0.08" stop-color="#9AACC0"/>
<stop offset="0.31" stop-color="#BFCBDA"/>
<stop offset="0.49" stop-color="#D6DEEA"/>
<stop offset="0.6" stop-color="#DFE6F0"/>
</linearGradient>
</defs>
</svg>
