<svg width="90" height="66" viewBox="0 0 90 66" fill="none" xmlns="http://www.w3.org/2000/svg">
<g style="mix-blend-mode:multiply" opacity="0.5">
<path d="M36.817 65.6187L90 42.5412L54.4171 25.807L1.23413 48.8845L36.817 65.6187Z" fill="#7B7972"/>
</g>
<path d="M25.1574 49.6498L50.6716 38.1312L50.1681 25.505L24.654 37.0236L25.1574 49.6498Z" fill="#373635"/>
<path d="M29.6279 22.7462C30.514 22.2629 31.8833 21.7192 32.4673 21.3164C32.3868 20.4908 32.5881 16.6244 32.4673 16.3827C32.3465 16.1209 30.0105 15.8592 29.5675 15.7987C29.5809 18.1078 29.5944 20.4169 29.6078 22.726L29.6279 22.7462Z" fill="#20324B"/>
<path d="M23.2041 48.9248C23.4458 48.8845 23.627 49.0255 23.8284 49.106C24.8957 49.4886 25.9025 49.9719 26.99 50.3546C27.1108 50.0928 27.2719 49.8108 27.4129 49.5491C26.9094 49.4685 24.7748 48.1394 24.6137 48.1193C24.211 48.079 23.2645 48.8845 23.184 48.9248H23.2041Z" fill="#373635"/>
<path d="M41.8514 11.9122C39.5557 12.8788 40.6029 14.6308 39.737 15.4564C39.3946 15.7786 37.7232 16.4633 37.1996 16.7855C36.8573 17.007 35.8504 17.9736 35.0852 18.2958C35.1456 18.5777 34.4005 20.4102 34.3804 20.6921C34.7429 20.7324 35.206 20.6519 35.4477 20.3901C35.8303 20.6921 36.817 18.8596 36.233 19.2825C36.6358 19.1416 36.6559 19.1013 37.0788 19.202C37.6427 19.3228 45.6171 23.0482 47.6107 23.6524C47.8121 23.7128 48.0336 23.7128 48.1343 23.7329C48.0336 21.7796 48.4967 16.8862 48.235 15.4766C48.1141 14.7315 47.9329 14.7516 47.2885 14.3287C46.6038 13.8857 43.704 12.6372 42.5965 12.1136C41.8917 11.7713 41.8514 11.9525 41.8111 11.9324L41.8514 11.9122Z" fill="#383F49"/>
<path d="M33.2124 20.7928C33.5749 20.9741 34.5012 20.2692 35.0046 19.9873V19.7255C35.0046 19.5242 35.0046 19.3026 35.0046 19.1013C35.0248 18.8395 35.1657 18.5777 35.1053 18.2958C35.4879 16.6445 35.8907 9.73737 36.3941 8.79091C36.092 8.62981 35.5081 8.06596 35.2261 7.98541C34.4206 11.6907 33.7762 17.0271 33.2124 20.7727V20.7928Z" fill="#373635"/>
<path d="M8.36282 28.6867C8.36282 28.6867 7.93993 29.1499 7.83925 29.2103L11.5244 30.4991C11.2626 30.6803 10.0141 31.8483 9.89326 31.8684C9.65162 31.9087 5.5033 31.6872 4.89918 31.5059C4.53671 31.8684 4.59712 31.9288 4.57698 31.949C5.1811 32.2712 9.22873 32.3114 9.30928 32.5329C8.9468 32.835 7.23512 34.9293 7.05389 34.9696C6.83237 35.0099 3.32846 34.3252 2.78475 34.1641C2.56324 34.5266 2.58337 34.587 2.58337 34.6071C3.0264 35.1508 6.61086 35.2515 6.69141 35.6341C6.20811 35.9563 5.02 38.2923 4.83877 38.3325C4.65753 38.3728 1.51609 37.4868 1.21403 37.084C1.11334 37.2854 1.07307 37.4263 1.01265 37.6076C2.30145 38.4735 4.27492 38.554 4.6978 39.0776L3.48956 41.6955L0.549493 40.7087C-0.0143558 40.8094 3.30832 43.8099 3.75135 44.1321C4.11382 44.8571 1.81815 44.1925 0.388393 44.1724C0.710592 45.441 1.05293 46.1861 2.382 46.9715L1.63691 47.1527C2.8653 48.5019 6.85251 50.0928 8.80584 50.7573C9.30928 50.556 8.10103 49.6296 7.96007 48.4013C7.87952 47.6159 8.46351 43.9106 8.70516 42.944L3.81176 43.3065C3.81176 42.7829 5.32207 39.2991 5.60399 39.2186C5.80536 39.1783 9.04749 39.9637 9.65162 39.9234C9.67175 39.8831 9.77244 39.863 9.97381 39.4804L6.02688 38.7756C5.60399 38.5339 7.61773 35.6341 7.81911 35.5737C8.02048 35.5334 10.9203 36.7618 11.4438 36.9028C11.5244 36.7819 11.5848 36.6611 11.6452 36.5403C11.2626 36.2181 8.20172 35.1911 8.16145 34.9897C8.48364 34.305 12.0278 30.7407 12.4306 30.6803C12.5514 30.6803 14.5853 31.1636 14.8068 31.3851C14.9276 31.2844 17.1226 29.6533 17.4448 29.4318C16.6192 29.7137 15.8539 28.8277 15.5519 29.2505C15.9345 29.3915 16.3372 29.4721 16.7199 29.6533C16.5386 29.754 15.6928 30.3984 15.6123 30.3984C14.7867 30.5595 9.63148 28.9485 8.40309 28.6263L8.36282 28.6867Z" fill="#4B4B4B"/>
<path d="M0.972386 37.6478C0.509224 38.8359 0.710599 39.138 0.549499 40.0039C0.509225 40.2455 -0.417098 40.9504 0.2273 44.0515C0.287713 44.2932 0.327988 44.2126 0.327988 44.2328C1.75775 44.2328 4.05341 44.9174 3.69094 44.1925C3.22778 43.8703 -0.0948986 40.8698 0.489087 40.7691L3.42915 41.7559L4.6374 39.138C4.21451 38.6144 2.24104 38.5339 0.952248 37.668L0.972386 37.6478Z" fill="#595757"/>
<path d="M4.55683 31.969C3.87216 32.694 3.26803 33.3585 2.7646 34.1842C3.30831 34.3453 6.81222 35.0299 7.03373 34.9897C7.21497 34.9494 8.94679 32.8551 9.28913 32.553C9.20858 32.3315 5.16095 32.2912 4.55683 31.969Z" fill="#595757"/>
<path d="M1.19394 37.1243C1.496 37.5069 4.63744 38.4131 4.81868 38.3728C4.99992 38.3325 6.16789 35.9966 6.67132 35.6744C6.59077 35.2918 3.00631 35.1911 2.56329 34.6474C2.28136 35.1307 2.16054 35.6341 1.93903 36.1174C1.75779 36.4799 1.29463 36.9229 1.19394 37.1444V37.1243Z" fill="#595757"/>
<path d="M4.879 31.5261C5.50326 31.7073 9.63144 31.9288 9.87309 31.8885C9.99391 31.8684 11.2424 30.6803 11.5042 30.5192L7.81907 29.2304C6.75178 29.9553 5.74491 30.6601 4.879 31.5462V31.5261Z" fill="#595757"/>
<path d="M8.36286 28.6867C9.61138 29.0089 14.7464 30.6199 15.5721 30.4588C15.6325 30.4588 16.4984 29.8144 16.6796 29.7137C16.3172 29.5324 15.9144 29.4519 15.5117 29.3109C14.0416 28.7672 12.1688 28.4853 10.7794 27.7201C10.3565 27.9416 9.994 28.2436 9.57111 28.4249C9.26905 28.5658 8.92671 28.4047 8.36286 28.6867Z" fill="#595757"/>
<path d="M13.0951 27.6195C14.7263 27.9819 16.3373 28.6666 17.9483 29.1298C18.5725 28.727 19.2975 28.3645 19.9419 27.9819C19.8613 27.7202 19.5995 27.841 19.519 27.8007C19.0759 28.9083 18.2503 27.9819 17.3643 27.7202C16.1762 27.3778 14.102 27.1362 15.8942 27.1966L15.9546 27.0153C14.8874 26.9952 12.5716 27.0153 13.1153 27.6396L13.0951 27.6195Z" fill="#4B4B4B"/>
<path d="M10.7794 27.7C12.1688 28.4652 14.0416 28.7672 15.5117 29.2908C15.8137 28.8679 16.5789 29.7338 17.4046 29.4721C17.5657 29.3512 17.7671 29.2304 17.9282 29.1096C16.3373 28.6464 14.7062 27.9617 13.075 27.5993C10.7995 27.0958 11.5446 27.2972 10.7592 27.6798L10.7794 27.7Z" fill="#4D3130"/>
<path d="M15.9345 26.9951L15.8741 27.1764C14.0818 27.116 16.156 27.3576 17.3441 27.6999C18.2301 27.9617 19.0558 28.9082 19.4988 27.7805C17.9885 27.2166 17.7066 27.0354 15.9143 26.975L15.9345 26.9951Z" fill="#595757"/>
<path d="M11.6251 36.5806C11.5646 36.6813 11.4841 36.8223 11.4237 36.9431C10.9202 37.7486 10.3564 38.6749 9.95364 39.5207C9.75227 39.9033 9.65158 39.9234 9.63144 39.9637C9.2287 40.8498 8.9065 42.0379 8.68498 42.9843C8.46347 43.9711 7.85935 47.6562 7.9399 48.4416C8.08086 49.6498 9.28911 50.5761 8.78567 50.7977C8.88636 50.8379 9.00718 50.8581 9.10787 50.8782C9.55089 49.3075 9.43007 50.2137 9.63144 51.14C12.8534 52.026 12.7326 50.9386 13.0548 50.8782C13.2159 50.8379 14.5047 51.6636 15.9949 50.1734C17.3441 50.3144 16.7601 49.6498 16.7198 49.5491C17.0823 49.3075 15.572 49.529 15.9345 49.2873C13.8804 48.4617 11.907 47.475 9.77241 46.7903C9.97378 46.1459 9.73213 45.5821 9.93351 44.9175C10.0745 44.4544 10.3161 44.5349 10.7793 44.2933C11.6049 43.8502 12.5514 43.528 13.4173 43.1454C13.0951 41.172 12.7729 36.8021 12.793 34.9696C12.4507 35.4932 11.9674 36.0369 11.6251 36.5605V36.5806Z" fill="#373635"/>
<path d="M9.08778 50.8781C9.08778 50.8781 9.28916 51.0593 9.61135 51.1399C9.40998 50.2136 9.53081 49.3074 9.08778 50.8781Z" fill="#4D3130"/>
<path d="M11.625 36.5805C11.9674 36.0368 12.4305 35.5132 12.793 34.9897C12.9742 34.7077 12.793 34.5064 13.1152 34.5466C12.7326 34.2244 13.0548 33.9224 13.2159 33.58C13.4575 33.0162 14.3235 31.8885 14.7866 31.4455C14.5651 31.224 12.5312 30.7205 12.4104 30.7407C12.0076 30.8011 8.46346 34.3654 8.14126 35.0501C8.18153 35.2514 11.2424 36.2785 11.625 36.6007V36.5805Z" fill="#595757"/>
<path d="M8.66487 42.9843C8.88638 42.0379 9.20858 40.8498 9.61133 39.9637C9.0072 39.9839 5.76507 39.1985 5.5637 39.2589C5.28178 39.3193 3.77147 42.8232 3.77147 43.3468L8.66487 42.9843Z" fill="#595757"/>
<path d="M9.93353 39.5206C10.3564 38.6748 10.9203 37.7687 11.4036 36.943C10.88 36.8021 7.9802 35.5535 7.77883 35.614C7.57745 35.6542 5.56371 38.5742 5.9866 38.8158L9.93353 39.5206Z" fill="#595757"/>
<path d="M54.0547 23.7329C53.1888 23.451 52.4236 22.9878 51.5174 22.7462C51.5174 26.5119 51.5174 30.2574 51.5174 34.0231C51.9805 34.144 54.3366 34.7481 54.4575 34.8286C55.2831 35.2717 54.4574 36.4598 54.8803 37.1444C54.981 36.2785 55.1018 35.4328 55.2025 34.5669C55.1018 33.7412 54.7394 33.9829 54.679 33.8218C54.5984 33.6204 54.8401 29.9151 54.9005 29.4721C55.2227 27.0153 57.3371 23.5517 60.0154 22.2427L60.1765 22.6052C61.0827 21.5178 62.8548 19.786 64.0831 18.9603C59.3508 19.7054 55.3032 23.9343 54.7595 24.0148C54.4776 24.0551 54.1151 23.753 54.0748 23.753L54.0547 23.7329Z" fill="#222A33"/>
<path d="M55.2226 34.5467C55.4441 32.7746 55.5649 31.6066 56.0684 29.8345C56.2093 29.3512 56.31 28.888 56.4913 28.4047C57.1155 26.834 59.0286 23.9141 60.1764 22.5448L60.0153 22.1823C57.337 23.4912 55.2226 26.9549 54.9004 29.4116C54.84 29.8546 54.5983 33.5599 54.6789 33.7613C54.7393 33.9224 55.1018 33.6808 55.2025 34.5064L55.2226 34.5467Z" fill="#222A33"/>
<path d="M53.6519 13.3419C53.6117 13.4426 54.1352 13.8655 54.1755 13.8655C55.2428 14.4293 62.8749 17.1278 65.1303 18.3159C65.4928 18.1145 66.5198 17.6715 67.0232 17.4298C66.7413 17.2083 66.6205 16.7854 66.4996 16.4431C63.13 14.9932 59.7603 13.5433 56.3906 12.0934C55.4844 12.5163 54.5581 12.8989 53.6519 13.3419Z" fill="#383F49"/>
<path d="M56.3906 12.0935C57.5384 11.5498 62.3312 8.42846 64.0831 8.4486C64.0831 8.4486 64.1234 8.38819 64.2845 8.26736C64.5463 9.01245 67.0635 15.9397 67.5468 17.0674C67.3252 17.1681 67.1239 17.3292 66.9225 17.4299C66.6406 17.2084 66.5197 16.7855 66.3989 16.4633C66.3989 16.4633 66.3989 16.423 66.3788 16.4029C61.4652 14.2885 61.4048 14.2683 56.4107 12.1136L56.3906 12.0935Z" fill="#2F7B99"/>
<path d="M51.1146 14.4898C50.9736 14.5905 50.8528 14.7113 50.6917 14.7918L51.3159 15.4564H51.4166C51.618 17.8729 51.5173 20.3095 51.5173 22.7461C52.4034 22.9878 53.1686 23.4509 54.0546 23.7329C54.0949 20.4437 54.1285 17.1613 54.1553 13.8856C54.1553 13.8856 53.5915 13.4628 53.6317 13.3621C52.8262 13.7447 51.7992 13.9662 51.0944 14.5099L51.1146 14.4898Z" fill="#222A33"/>
<path d="M63.4387 29.6734C63.922 29.4922 64.9893 27.0556 65.2913 27.0153C65.9961 27.559 65.7142 28.586 66.0767 28.5256C66.3183 28.2235 67.6273 26.4514 67.8085 26.391C68.03 26.3306 71.7554 27.0757 72.2387 27.1965C72.3596 27.2368 72.6616 27.2972 72.6012 27.4583C72.6213 27.4382 73.0845 27.1361 73.2255 26.9347C72.9838 26.9347 68.6341 26.0285 68.5939 25.8272C71.9165 22.8468 71.0909 23.8134 75.8635 24.8002C76.0044 24.6592 76.3468 24.6391 76.2864 24.4377C75.3198 24.2363 73.0845 23.4711 72.0172 23.1086C72.5408 23.0079 74.6955 21.8601 74.8566 21.8601C75.058 21.8601 78.1591 23.0885 78.4813 23.3704C78.6827 23.2093 79.0049 23.1086 79.2264 22.9274C78.2196 22.5045 77.2127 22.0816 76.1655 21.7191C76.1655 21.6184 77.6154 21.1351 77.696 21.1351C77.9175 21.1351 81.1596 22.6857 81.7436 22.9072C82.6297 23.2697 83.6969 23.4308 84.4219 24.0551L84.7844 23.6926C85.0059 21.7795 81.1999 21.0949 80.3139 20.672C80.0923 20.5713 80.1729 19.5846 75.7427 18.7992C75.7024 18.7992 75.1989 18.8395 74.7358 18.9804C73.6886 19.3228 71.1715 20.4303 70.3055 21.0143C68.0099 22.5649 64.6066 27.2972 63.3984 29.6331L63.4387 29.6734Z" fill="#4B4B4B"/>
<path d="M67.9495 48.2402C67.9495 48.2402 68.1509 48.1999 68.0502 48.0992C67.6474 47.6763 67.4259 47.5152 67.1037 46.9917C67.0635 46.9312 67.003 46.4882 67.003 46.4681C66.4996 45.5418 65.3719 43.7092 65.3115 42.7427C65.3115 42.5614 65.1303 42.4809 65.7344 42.1184C65.5531 41.8365 65.5129 41.5545 65.533 41.2323H61.0625C60.7806 41.0914 60.9819 40.9303 61.0021 40.5275C60.7202 40.5879 60.3778 40.004 60.3778 39.9033C59.23 39.3797 58.1023 38.8158 57.0149 38.2117C56.6323 40.1449 57.76 41.4941 57.8606 41.7156C57.9009 41.8163 57.5183 42.4607 58.7064 43.8502C60.1563 45.5418 65.5531 47.3743 67.9696 48.2402H67.9495Z" fill="#4B4B4B"/>
<path d="M63.4387 29.6734C62.4117 31.6469 60.0758 38.0305 60.3778 39.8831C60.3778 39.9838 60.7202 40.5678 61.0021 40.5074C61.0021 40.2456 61.284 38.6145 61.4854 38.554C61.6868 38.4735 65.3921 38.3124 66.0767 38.1916C66.1372 38.0103 66.2177 37.7687 66.2781 37.5673L61.5861 38.0909C61.4049 37.9902 62.5527 34.8689 62.6936 34.5467C62.7943 34.305 62.9152 34.0835 63.0159 33.8419C63.5797 32.533 64.2442 31.2643 65.0095 30.0158C65.1706 29.7741 65.3719 29.5526 65.533 29.311C65.7143 29.0492 65.8754 28.7673 66.0566 28.5055C65.6941 28.5659 65.9559 27.5389 65.2712 26.9952C64.9893 27.0354 63.9019 29.4922 63.4186 29.6533L63.4387 29.6734Z" fill="#4B4B4B"/>
<path d="M65.0094 30.0359C64.224 31.2643 63.5796 32.533 63.0158 33.862L67.9696 33.6003C68.1307 33.2781 69.6611 30.6803 69.8625 30.3984L65.0094 30.0359Z" fill="#595757"/>
<path d="M62.6937 34.5668C62.5728 34.9091 61.4049 38.0304 61.5861 38.111L66.2781 37.5874C66.2781 37.5874 66.5399 37.5874 66.6003 37.4465C66.9427 36.3993 67.2045 35.3924 67.6475 34.3856C66.0163 34.2043 64.3248 34.4661 62.6937 34.5668Z" fill="#595757"/>
<path d="M66.0767 28.5255C65.8753 28.7873 65.7344 29.0693 65.5531 29.331C67.0232 29.6935 68.8154 29.5928 70.4062 29.7741C70.6076 29.5324 72.2992 27.7805 72.6214 27.4583C72.6818 27.2972 72.3797 27.2166 72.2589 27.1965C71.7756 27.0756 68.0502 26.3306 67.8287 26.391C67.6474 26.4514 66.3183 28.2235 66.0968 28.5255H66.0767Z" fill="#595757"/>
<path d="M73.2255 26.9347C73.8296 26.9347 75.3198 25.3036 75.8635 24.8002C71.0909 23.7933 71.9166 22.8468 68.5939 25.8272C68.6342 26.0286 72.9839 26.9347 73.2255 26.9347Z" fill="#595757"/>
<path d="M61.0021 40.5074C60.982 40.9101 60.7806 41.0712 61.0625 41.2122H65.533C65.533 41.0511 66.0163 38.3527 66.0566 38.1916C65.3921 38.3124 61.6868 38.4735 61.4653 38.554C61.284 38.6145 61.0021 40.2456 60.982 40.5074H61.0021Z" fill="#595757"/>
<path d="M76.2864 24.4377C77.5954 24.7197 77.1322 24.4377 78.5016 23.3704C78.1794 23.0885 75.0782 21.8601 74.8768 21.8601C74.7157 21.8601 72.561 23.008 72.0374 23.1087C73.1047 23.4711 75.3198 24.2364 76.3066 24.4377H76.2864Z" fill="#595757"/>
<path d="M79.2265 22.9274C79.9514 23.2294 80.616 23.3503 81.1798 23.9141L81.7638 22.9475C81.1798 22.7059 77.9377 21.1754 77.7162 21.1754C77.6356 21.1754 76.1857 21.6587 76.1857 21.7594C77.2329 22.1017 78.2196 22.5448 79.2466 22.9676L79.2265 22.9274Z" fill="#595757"/>
<path d="M63.0158 33.8419C62.9152 34.0836 62.7943 34.3051 62.6936 34.5467C64.3248 34.446 66.0163 34.1842 67.6474 34.3655C67.7079 34.2245 67.7481 34.003 67.9696 33.56L63.0158 33.8218V33.8419Z" fill="#4B4B4B"/>
<path d="M65.0095 30.0359L69.8626 30.3983C69.9633 30.2574 70.2251 29.9956 70.3862 29.7741C68.7953 29.5928 67.0031 29.6935 65.5331 29.331C65.372 29.5727 65.1706 29.7942 65.0095 30.0359Z" fill="#4B4B4B"/>
<path d="M81.7638 22.9273L81.1798 23.8939C80.6159 23.3301 79.9514 23.2093 79.2264 22.9072C79.0049 23.0884 78.7029 23.1891 78.4814 23.3502C77.112 24.3974 77.5953 24.6994 76.2662 24.4175C76.3267 24.6189 75.9843 24.639 75.8434 24.78C75.2996 25.2834 73.8095 26.9145 73.2054 26.9145C73.0644 27.1361 72.6012 27.418 72.5811 27.4381C72.2589 27.7402 70.5673 29.4921 70.366 29.7539C70.2049 29.9553 69.9431 30.2372 69.8424 30.3782C69.641 30.6601 68.1106 33.2578 67.9495 33.58C67.7481 34.0029 67.6877 34.2446 67.6273 34.3855C67.1641 35.3924 66.9023 36.4194 66.5801 37.4464C66.5399 37.5874 66.2781 37.5673 66.2579 37.5874C66.1975 37.7888 66.0968 38.0304 66.0566 38.2117C66.0163 38.3526 65.533 41.0712 65.533 41.2323C65.533 41.5545 65.5531 41.8364 65.7344 42.1183C66.9426 41.4135 66.419 42.4204 65.3115 42.7426C65.3719 43.7092 66.4795 45.5417 67.003 46.468C68.7147 45.5618 68.171 46.2264 67.1037 46.9916C67.4259 47.5353 67.6474 47.6964 68.0502 48.0991C68.1509 48.1998 67.9293 48.22 67.9495 48.2401C69.5001 49.6699 70.9902 48.3206 71.1715 48.3206C71.3124 48.3206 72.279 49.4282 73.7491 48.8442C74.3129 48.6227 74.4539 47.4749 74.5344 47.4145C74.6552 47.3541 75.9642 47.7769 77.3335 47.5957C77.3738 47.5957 77.4141 47.5957 77.4342 47.5957C77.5953 47.3339 78.3605 45.7833 78.5418 45.7229C78.6626 45.7028 79.2869 46.0048 80.918 45.9042C81.0388 45.8437 81.1194 45.7833 81.2402 45.7229C81.4013 45.4209 82.1061 43.4474 82.2471 43.4071C82.5693 43.3064 83.4553 44.4543 84.6233 42.078C84.7844 41.7357 85.167 40.1247 85.5093 40.0442C85.5899 40.024 86.5565 40.3865 86.9391 39.5609C87.2411 38.8762 86.2141 37.3659 88.832 35.1306C86.919 32.9558 89.4563 31.8281 89.4563 31.0427C89.4563 30.8615 88.2279 29.5727 88.1876 29.3512C88.0869 28.6061 89.2348 28.445 88.6105 27.2166C87.5633 25.2029 86.5565 26.5521 86.194 26.1493L87.5633 25.1827C86.4961 24.1356 86.5968 23.0884 84.8247 23.7127L84.4622 24.0752C83.7372 23.4308 82.67 23.2697 81.7839 22.9273H81.7638Z" fill="#373635"/>
<path d="M67.0031 46.448C67.0031 46.448 67.0836 46.9313 67.1038 46.9715C68.171 46.2063 68.7148 45.5418 67.0031 46.448Z" fill="#827671"/>
<path d="M65.7546 42.0983C65.1504 42.4607 65.3317 42.5413 65.3317 42.7225C66.4392 42.4003 66.9628 41.3935 65.7546 42.0983Z" fill="#5F4849"/>
<path d="M77.0315 28.7068C85.1267 29.9352 77.5953 43.0446 70.2854 40.3261C70.2451 40.3261 70.1445 40.3261 70.084 40.3261C70.2049 40.6684 70.3861 40.9101 70.6076 41.2121C74.0914 42.8835 77.9779 40.9705 80.0924 38.5137C82.0255 36.2785 82.7505 33.4391 83.6768 30.8413C82.7304 28.0624 79.9312 27.5388 77.0516 28.7068H77.0315Z" fill="#D70835"/>
<g style="mix-blend-mode:multiply" opacity="0.3">
<path d="M77.0315 28.7068C85.1267 29.9352 77.5953 43.0446 70.2854 40.3261C70.2451 40.3261 70.1445 40.3261 70.084 40.3261C70.2049 40.6684 70.3861 40.9101 70.6076 41.2121C74.0914 42.8835 77.9779 40.9705 80.0924 38.5137C82.0255 36.2785 82.7505 33.4391 83.6768 30.8413C82.7304 28.0624 79.9312 27.5388 77.0516 28.7068H77.0315Z" fill="#231815"/>
</g>
<path d="M70.5876 41.2122C72.8228 44.3738 76.8705 43.5885 79.6897 41.474C82.9318 39.0374 84.8449 34.3454 83.6366 30.8213C82.7103 33.4392 81.9854 36.2584 80.0522 38.4937C77.9377 40.9505 74.0512 42.8635 70.5674 41.1921L70.5876 41.2122Z" fill="#F7DBB2"/>
<path d="M70.809 34.9091C70.8896 35.6341 70.7687 36.3389 71.1312 37.0437C71.2319 37.2451 71.4736 37.5069 71.6548 37.668C74.8768 40.1852 80.2535 34.0231 77.1322 31.7274C75.9843 30.8817 74.3935 31.0629 73.1248 31.6469C74.1921 30.5595 75.4809 29.3512 77.0315 28.7269C85.1267 29.9553 77.5953 43.0648 70.2854 40.3463C70.2452 40.3463 70.1445 40.3463 70.0841 40.3463C69.339 38.2117 69.923 36.8826 70.8291 34.9293L70.809 34.9091Z" fill="#E68600"/>
<path d="M73.1249 31.6267C74.3936 31.0629 75.9844 30.8615 77.1322 31.7073C80.2535 34.003 74.8769 40.165 71.6549 37.6478C71.4535 37.5069 71.232 37.2249 71.1313 37.0236C70.7688 36.3188 70.8896 35.6341 70.8091 34.889C71.6549 33.0766 71.675 33.0766 73.1249 31.6066V31.6267Z" fill="#D70835"/>
<g style="mix-blend-mode:multiply" opacity="0.3">
<path d="M73.1249 31.6267C74.3936 31.0629 75.9844 30.8615 77.1322 31.7073C80.2535 34.003 74.8769 40.165 71.6549 37.6478C71.4535 37.5069 71.232 37.2249 71.1313 37.0236C70.7688 36.3188 70.8896 35.6341 70.8091 34.889C71.6549 33.0766 71.675 33.0766 73.1249 31.6066V31.6267Z" fill="#231815"/>
</g>
<path d="M47.6308 31.7072C47.5502 32.3919 47.7315 33.7613 47.6308 34.1842C48.3557 34.4258 49.0203 34.7279 49.7452 34.9897V31.7072C49.7452 31.7072 49.6848 31.7072 49.6445 31.7072C48.98 31.7878 48.3155 31.7072 47.6509 31.7072H47.6308Z" fill="#251A20"/>
<path d="M13.0951 34.5467C13.3569 34.7683 19.0759 37.4667 19.4183 37.5674C20.1231 37.7889 19.9419 37.7083 20.5863 37.4868C20.7876 37.4063 20.9487 37.3459 21.1098 37.225C21.2508 37.2452 21.3112 37.1848 21.432 37.1445C22.6805 36.6209 23.8888 36.0772 25.1172 35.5536C25.1172 35.3925 38.6697 28.1028 45.8789 24.9009C45.899 24.7801 45.8386 24.6995 45.7178 24.6391C45.8185 24.6995 45.899 24.7801 45.8789 24.9009C46.5434 24.5988 47.1878 24.2565 47.8725 24.0149C47.8523 23.7934 47.7517 23.8135 47.6711 23.6524C45.6775 23.0483 37.7232 19.3228 37.1392 19.202C36.7163 19.1215 36.7163 19.1416 36.2935 19.2826C36.233 19.2826 35.4477 19.7055 35.2463 19.8061C35.2463 19.8061 35.2262 19.8867 35.0449 19.9874C34.5415 20.2693 33.6152 20.9741 33.2527 20.7929C33.0715 21.2158 32.8701 21.0949 32.5076 21.3164C31.9236 21.6991 30.5543 22.2428 29.6682 22.7462C26.6476 24.3773 22.8014 26.3105 19.9821 27.9819C19.3377 28.3646 18.6128 28.727 17.9885 29.1298C17.8274 29.2305 17.626 29.3714 17.4649 29.4922C17.1427 29.7138 14.9478 31.3248 14.8269 31.4456C14.3638 31.8886 13.4979 33.0163 13.2562 33.5801C13.0951 33.9426 12.7729 34.2245 13.1555 34.5467H13.0951Z" fill="#D70835"/>
<path d="M28.8225 44.9376C27.3525 45.5216 25.8422 46.0049 24.3923 46.6291C22.9826 47.2332 21.6938 48.0387 20.2238 48.5825C20.1433 48.6227 19.8009 48.9248 19.5996 48.9449C19.4183 50.133 20.2238 50.6566 18.4316 50.1532L19.1767 50.6365C19.2774 50.6365 20.7877 50.0324 21.0696 49.9317C21.8147 49.6497 22.4792 49.3074 23.184 48.9651C23.2646 48.9248 24.211 48.1394 24.6138 48.1596C24.7749 48.1596 26.9094 49.5088 27.4129 49.5893C27.5136 49.388 28.1781 48.8845 27.8358 48.6227C28.46 48.804 30.3127 46.5284 29.7287 46.2264C29.7488 46.2264 29.9703 46.2465 29.9905 46.2264C30.4335 45.7431 30.6147 45.582 31.098 45.1591C31.3598 44.9376 31.5612 44.7362 31.8431 44.5348C31.8431 44.5348 31.9438 44.3737 31.9438 44.3536C33.0514 43.246 34.4811 42.4607 29.4065 44.8369C29.3259 44.8772 29.0239 44.8973 28.8225 44.9779V44.9376Z" fill="#373635"/>
<path d="M9.93349 44.9376C9.73211 45.6021 9.97376 46.1659 9.77239 46.8103C11.907 47.4749 13.8804 48.4818 15.9344 49.3074C16.4177 49.4886 19.0155 50.6365 19.1967 50.6365L18.4516 50.1532C20.2237 50.6767 19.4182 50.1532 19.6196 48.9449C19.0759 48.9852 11.182 45.3604 9.93349 44.9376Z" fill="#595757"/>
<path d="M9.9335 44.9376C11.182 45.3605 19.0759 48.9651 19.6196 48.9449C19.821 48.9449 20.1633 48.6227 20.2439 48.5824C19.1162 47.6763 11.182 44.998 10.8195 44.6758C10.7189 44.5751 10.7793 44.4341 10.7591 44.3133C10.296 44.555 10.0543 44.4744 9.91336 44.9376H9.9335Z" fill="#595757"/>
<path d="M32.7291 44.0515C33.1923 43.8501 34.0179 43.4474 34.3603 43.3467C35.0852 43.1051 35.5484 42.7627 36.4747 42.7224C36.7566 41.776 35.3873 41.7558 34.7832 41.2121C34.7227 41.2524 34.4811 41.1719 34.4207 41.2121C34.1388 41.333 26.9497 44.0112 25.0769 44.8369C24.8957 44.8772 24.7547 44.9174 24.6742 44.9376C23.768 45.2799 22.8618 45.7229 21.9355 46.0854C21.8751 46.1055 21.1702 46.5687 20.6668 46.7097C19.6398 46.9714 19.7606 46.6895 19.4988 46.6291C18.8544 46.468 13.6993 44.555 13.5583 44.3133C13.4979 44.2126 13.4375 43.387 13.3972 43.1655C12.5313 43.5682 11.5848 43.8703 10.7592 44.3133C10.7592 44.4341 10.7189 44.5751 10.8196 44.6758C11.1821 44.998 19.1162 47.6763 20.2439 48.5824C21.714 48.0387 22.9826 47.2332 24.4124 46.6291C25.8623 46.0048 27.3726 45.5215 28.8426 44.9376" fill="#4B4B4B"/>
<path d="M13.0952 34.5467C12.7931 34.5064 12.9743 34.7078 12.773 34.9897C12.773 36.8021 13.075 41.1719 13.3972 43.1655C13.4375 43.4071 13.4979 44.2328 13.5583 44.3133C13.7194 44.555 18.8545 46.4479 19.4989 46.6291C20.0224 46.5889 19.3176 46.4882 19.2975 46.4076C19.1364 45.9847 19.378 38.9568 19.3982 37.5673C19.0558 37.4666 13.3368 34.7682 13.075 34.5467H13.0952Z" fill="#595757"/>
<path d="M19.2975 46.4077C19.1364 45.9848 19.378 38.9568 19.3982 37.5674C20.103 37.7889 19.9217 37.7083 20.5661 37.4868C20.7675 37.4063 20.9286 37.3458 21.0897 37.225C21.2307 37.2452 21.2911 37.1847 21.4119 37.1445C22.6604 36.6209 23.8687 36.0772 25.0971 35.5536C25.0971 35.3925 38.6496 28.1028 45.8588 24.9009C46.5233 24.5988 47.1677 24.2565 47.8524 24.0149C47.9329 24.6593 47.9732 27.0959 47.5302 27.4785C46.8656 28.0423 34.7832 33.1774 32.9909 34.587C31.4001 35.8355 25.0165 44.837 24.6742 44.9779C23.768 45.3203 22.8618 45.7633 21.9355 46.1258C21.8751 46.1459 21.1703 46.6091 20.6668 46.75C19.6398 47.0118 19.7606 46.7299 19.4989 46.6695C20.0224 46.6292 19.3176 46.5285 19.2975 46.448V46.4077Z" fill="#D70835"/>
<g style="mix-blend-mode:multiply" opacity="0.5">
<path d="M19.2975 46.4077C19.1364 45.9848 19.378 38.9568 19.3982 37.5674C20.103 37.7889 19.9217 37.7083 20.5661 37.4868C20.7675 37.4063 20.9286 37.3458 21.0897 37.225C21.2307 37.2452 21.2911 37.1847 21.4119 37.1445C22.6604 36.6209 23.8687 36.0772 25.0971 35.5536C25.0971 35.3925 38.6496 28.1028 45.8588 24.9009C46.5233 24.5988 47.1677 24.2565 47.8524 24.0149C47.9329 24.6593 47.9732 27.0959 47.5302 27.4785C46.8656 28.0423 34.7832 33.1774 32.9909 34.587C31.4001 35.8355 25.0165 44.837 24.6742 44.9779C23.768 45.3203 22.8618 45.7633 21.9355 46.1258C21.8751 46.1459 21.1703 46.6091 20.6668 46.75C19.6398 47.0118 19.7606 46.7299 19.4989 46.6695C20.0224 46.6292 19.3176 46.5285 19.2975 46.448V46.4077Z" fill="#231815"/>
</g>
<path d="M49.2217 14.1273C49.9265 14.4092 50.3897 14.9328 51.1146 14.4898C51.7993 13.946 52.8464 13.7044 53.6519 13.3419C54.5581 12.919 55.4844 12.5163 56.3906 12.0934C57.5384 11.5497 58.7266 11.0463 59.8744 10.5025C60.9014 9.99911 62.0291 9.53595 63.036 8.99224C63.3179 8.83114 64.0428 8.4888 64.0831 8.46866C64.0831 8.46866 64.1234 8.40825 64.2845 8.28743C64.4859 8.14646 64.9088 7.78399 65.0296 7.58262C64.9893 7.58262 64.506 7.09932 64.506 7.05904C59.4179 9.42184 54.3299 11.7913 49.2418 14.1676L49.2217 14.1273Z" fill="#D70835"/>
<g style="mix-blend-mode:multiply" opacity="0.5">
<path d="M49.2217 14.1273C49.9265 14.4092 50.3897 14.9328 51.1146 14.4898C51.7993 13.946 52.8464 13.7044 53.6519 13.3419C54.5581 12.919 55.4844 12.5163 56.3906 12.0934C57.5384 11.5497 58.7266 11.0463 59.8744 10.5025C60.9014 9.99911 62.0291 9.53595 63.036 8.99224C63.3179 8.83114 64.0428 8.4888 64.0831 8.46866C64.0831 8.46866 64.1234 8.40825 64.2845 8.28743C64.4859 8.14646 64.9088 7.78399 65.0296 7.58262C64.9893 7.58262 64.506 7.09932 64.506 7.05904C59.4179 9.42184 54.3299 11.7913 49.2418 14.1676L49.2217 14.1273Z" fill="#231815"/>
</g>
<path d="M34.1589 7.48199C33.9373 7.80419 34.5616 8.24721 35.0449 8.36804C35.4477 8.46872 36.7969 9.39504 36.8975 9.43532C37.5017 9.71724 38.0857 10.0394 38.6898 10.3214C39.314 10.6234 39.9584 10.9054 40.5827 11.2074C41.3076 11.5498 41.7708 11.8921 41.8514 11.9122C41.8916 11.9122 41.9319 11.7511 42.6367 12.0935C43.7443 12.617 46.6441 13.8656 47.3287 14.3086C47.9329 14.5905 48.396 14.3891 48.8995 14.0468C45.2143 12.5163 38.7502 8.97216 34.6824 7.11951C34.5213 7.2202 34.2394 7.36116 34.1589 7.48199Z" fill="#373635"/>
<path d="M34.6825 7.11949C38.7301 8.97214 45.2144 12.5163 48.8995 14.0468C49.1211 14.1475 49.2016 14.1273 49.2217 14.1273C54.3098 11.7645 59.3979 9.39502 64.4859 7.01881C64.4859 7.01881 64.4859 6.89798 64.4859 6.83757C62.6736 6.03207 51.1348 0.111664 50.3293 0.0109766C50.0474 -0.0292983 49.7453 0.0512515 49.4835 0.0915264C48.8391 0.232488 34.8033 7.03894 34.6825 7.09936V7.11949Z" fill="#D70835"/>
<path d="M31.098 45.1188L35.3067 46.2264C34.9443 46.4076 33.5951 47.9985 33.4541 48.0387C33.0312 48.1596 29.6683 47.8172 28.8628 47.6763C28.8024 47.7568 28.7218 47.8575 28.6614 47.938C28.8829 48.6429 32.8298 48.2804 32.8701 48.7033C32.4875 48.9449 31.0779 51.0191 30.9168 51.0593C30.796 51.0795 28.9433 50.576 28.601 50.5358C25.6005 50.1532 28.1982 51.2809 30.655 51.5628L29.3461 54.4424C28.1378 54.2813 27.1108 53.6772 26.0234 53.1939C25.9831 53.3953 25.963 53.6772 25.9227 53.8987L26.1845 53.6369C28.6815 55.9326 29.4669 53.6571 28.8225 57.5436C27.0907 57.7651 26.1442 56.3958 25.7213 57.1811C25.8623 58.4296 26.4865 59.9198 28.0371 60.3427C27.9969 60.4837 26.7282 60.2622 26.6678 60.5239C29.1246 62.0342 31.9237 63.1619 34.7832 64.0279L34.6825 62.7793C34.3804 62.6988 34.5013 62.4974 34.4811 62.4169C34.4408 62.3162 33.8569 61.9738 33.434 60.4635C33.3333 60.1413 33.434 60.1615 33.434 60.1011C33.434 60.0205 33.1118 59.658 33.2326 58.5907C32.7694 58.3088 29.6481 57.4832 29.5474 57.302C29.4266 57.0804 29.9099 55.0667 30.2925 54.5028C30.4133 54.3417 30.4738 54.3015 30.6147 54.1404C30.0911 53.939 31.6619 51.5225 31.823 51.4822C32.1049 51.4017 34.9644 52.2273 35.5685 52.3683C35.6491 52.2475 35.6894 52.1266 35.7699 52.0058L32.0848 50.8982C32.2459 50.576 33.8569 48.5623 34.0381 48.5422C34.2395 48.5019 37.3608 49.5692 37.8843 49.69C37.985 49.5893 38.1864 49.4483 38.3072 49.3275L34.5214 48.0387C34.4408 47.8978 35.931 46.4076 36.0518 46.3875C36.2532 46.3673 39.3544 47.6964 39.8981 47.8172C40.039 47.6964 40.3008 47.5957 40.4217 47.4547C38.71 46.9513 37.1191 46.1257 35.4276 45.582C34.0784 45.1591 31.8431 44.8369 31.9035 44.4341C31.6216 44.6355 31.4202 44.8369 31.1584 45.0584L31.098 45.1188Z" fill="#4B4B4B"/>
<path d="M27.8357 48.5825C28.2586 48.8443 27.5135 49.3679 27.4128 49.5491C27.2719 49.8109 27.1108 50.0929 26.9899 50.3546C26.9698 50.4151 27.151 50.4553 27.0906 50.5762C26.7281 51.4219 26.2448 52.2677 26.0435 53.194C27.1108 53.6572 28.1378 54.2814 29.3661 54.4425L30.6751 51.5629C28.2183 51.281 25.6206 50.1734 28.6211 50.5359C28.9634 50.5762 30.816 51.0997 30.9369 51.0594C31.098 51.0192 32.5076 48.945 32.8902 48.7034C32.8298 48.2805 28.903 48.6631 28.6815 47.9381C28.2183 48.4617 28.2183 48.7235 27.8357 48.5624V48.5825Z" fill="#595757"/>
<path d="M25.9428 53.8987C25.7817 54.8452 25.6408 56.2548 25.7213 57.1811C26.1442 56.3958 27.0907 57.7651 28.8225 57.5436C29.4669 53.6571 28.6815 55.9326 26.1845 53.637L25.9227 53.8987H25.9428Z" fill="#595757"/>
<path d="M31.9437 44.3133C31.9437 44.3133 31.843 44.4744 31.843 44.4946C31.7826 44.8973 34.0179 45.2195 35.3671 45.6424C37.0586 46.1861 38.6696 46.9916 40.3612 47.5152C41.8916 47.9784 41.1264 47.4346 42.5763 46.3674C42.4353 46.0854 40.623 45.3605 39.9987 45.1188C38.1662 44.4342 36.233 43.9509 34.3602 43.3467C34.0179 43.4676 33.1922 43.8502 32.7291 44.0516C32.5478 44.1321 32.7291 43.7898 31.9437 44.3133Z" fill="#595757"/>
<path d="M30.5745 54.1807L34.1589 55.248C34.3804 54.664 35.2262 52.8717 35.5283 52.4086C34.9443 52.2676 32.0848 51.442 31.7827 51.5225C31.6216 51.5829 30.0509 53.9793 30.5745 54.1807Z" fill="#595757"/>
<path d="M30.2522 54.523C29.8696 55.0869 29.3863 57.1006 29.5071 57.3221C29.6078 57.5033 32.7291 58.3088 33.1923 58.6109C33.2326 58.1679 33.7561 56.1944 33.9374 55.691L30.2522 54.5431V54.523Z" fill="#595757"/>
<path d="M35.7297 52.0461C35.8102 51.9253 37.6024 49.9719 37.8441 49.7303C37.3205 49.6094 34.1992 48.5422 33.9978 48.5824C33.8367 48.6026 32.2257 50.5962 32.0445 50.9385L35.7297 52.0461Z" fill="#595757"/>
<path d="M38.569 42.9843C40.8446 43.3468 43.4826 44.4543 45.5164 45.3806C46.4226 44.9779 47.1073 45.7431 47.6711 45.9042C47.6711 45.9042 47.7718 45.7633 47.9329 45.8237C48.5169 45.1189 44.7109 43.528 44.1471 43.3468C44.0665 43.3266 44.0061 43.4676 43.8853 43.4273C43.0798 43.1857 40.2203 42.3802 39.6162 42.36C38.9114 42.3399 38.9718 42.4809 38.569 42.9843Z" fill="#4B4B4B"/>
<path d="M34.3602 43.3468C36.233 43.9509 38.1662 44.4342 39.9987 45.1188C40.623 45.3605 42.4354 46.0854 42.5763 46.3674C43.0395 46.025 43.0999 45.9445 43.7443 45.8438C41.5896 44.555 40.18 44.0918 37.8037 43.2662C37.7433 43.2461 37.6628 43.0044 37.6426 43.0044C37.6426 43.0044 37.6829 42.9641 37.542 42.9239C37.4614 42.9037 37.3003 42.8433 37.2198 42.8433C37.1593 42.8433 36.515 42.7426 36.4747 42.7628C35.5484 42.803 35.0852 43.1454 34.3602 43.387V43.3468Z" fill="#4B4B4B"/>
<path d="M38.267 49.388C38.7704 48.8846 39.3141 48.361 39.8377 47.8777C39.294 47.777 36.1928 46.4278 35.9914 46.448C35.8706 46.448 34.3804 47.9381 34.461 48.0992L38.2468 49.388H38.267Z" fill="#595757"/>
<path d="M37.844 42.9037C37.844 42.9037 37.8843 43.0245 37.6427 42.9843C37.6427 42.9843 37.7433 43.2259 37.8038 43.246C40.18 44.0717 41.6097 44.5147 43.7443 45.8236C43.9457 45.9445 44.5297 46.4882 44.6303 46.4479C44.7512 46.4076 44.872 45.6827 45.5164 45.3806C43.4624 44.4342 40.8445 43.3467 38.569 42.9843C38.0857 42.9037 38.2669 42.7225 37.8239 42.9037H37.844Z" fill="#595757"/>
<path d="M30.5744 54.1807C30.4335 54.3217 30.3731 54.3619 30.2523 54.5432L33.9374 55.691C33.9978 55.5098 34.0985 55.3889 34.1388 55.248L30.5543 54.1807H30.5744Z" fill="#4B4B4B"/>
<path d="M29.7287 46.1862C29.7287 46.1862 29.8495 46.307 29.8294 46.3271C29.4669 46.7701 29.2253 47.2736 28.8829 47.6965C29.6683 47.8173 33.0312 48.1798 33.4743 48.0589C33.6152 48.0187 34.9443 46.4077 35.3269 46.2466L31.1182 45.139C30.6349 45.5619 30.4536 45.723 30.0106 46.2063C29.9905 46.2264 29.769 46.2063 29.7488 46.2063L29.7287 46.1862Z" fill="#595757"/>
<path d="M45.5164 45.3806C44.8519 45.6826 44.731 46.4076 44.6303 46.4479C44.5095 46.4881 43.9255 45.9444 43.7443 45.8236C43.0999 45.9243 43.0395 46.025 42.5763 46.3472C41.1264 47.4145 41.8917 47.9582 40.3612 47.495C40.2202 47.636 39.9786 47.7165 39.8376 47.8575C39.3141 48.3408 38.7704 48.8644 38.2669 49.3678C38.1461 49.4886 37.9447 49.6094 37.844 49.7303C37.6024 49.9719 35.8303 51.9051 35.7296 52.0461C35.649 52.1669 35.5886 52.2877 35.5282 52.4085C35.2262 52.8717 34.3804 54.6639 34.1589 55.2479C34.0985 55.3889 34.0179 55.5097 33.9575 55.6909C33.7763 56.1944 33.2728 58.1678 33.2124 58.6109C33.1117 59.6782 33.4138 60.0406 33.4138 60.1212C35.2463 59.0338 35.0047 59.799 33.4138 60.4837C33.8367 61.994 34.4207 62.3363 34.4609 62.437C35.3671 62.6384 35.3671 63.021 34.6623 62.7995L34.763 64.048C34.763 64.048 34.8838 63.9272 35.0248 63.9674C35.1859 64.0077 35.488 64.6722 36.817 64.6722C37.6225 64.6722 37.6427 64.6118 38.0857 63.9674C38.4683 65.0347 39.6564 64.048 40.2404 64.491C40.4216 64.4105 40.7035 64.2494 40.9855 64.1285C41.791 61.7322 42.3347 63.0411 43.7846 62.6988C44.3887 62.5578 45.1338 60.8059 45.2546 60.7454C45.3352 60.7052 46.9663 60.5843 47.1475 60.4837C47.3086 60.383 47.6912 59.2351 47.8322 58.9733C48.0134 58.6511 48.1544 58.0672 48.2551 57.9463C48.4766 57.6644 49.564 57.2214 49.6244 57.0603C49.7855 56.6575 48.8592 55.5097 51.0945 53.0731C49.4432 50.9788 50.7119 51.5628 50.8931 50.5358C51.1952 48.7033 49.262 48.663 49.2015 48.5422C49.1411 48.4213 50.7723 47.5151 49.3022 46.2868C48.678 45.7632 48.0336 45.8639 47.9329 45.8437C47.7718 45.7833 47.6912 45.9444 47.6711 45.9243C47.1073 45.7632 46.4024 44.9778 45.5164 45.4007V45.3806Z" fill="#373635"/>
<path d="M33.4139 60.1212C33.4139 60.1212 33.3132 60.1414 33.4139 60.4837C35.0047 59.799 35.2464 59.0338 33.4139 60.1212Z" fill="#5F4849"/>
<path d="M34.6623 62.7793C35.347 63.0008 35.3671 62.6182 34.4609 62.4168C34.5012 62.4974 34.3804 62.6988 34.6623 62.7793Z" fill="#80554A"/>
<path d="M39.4148 51.6836C39.9988 51.6836 40.623 51.4017 41.207 51.4219C41.348 51.4219 41.7105 51.4823 41.8313 51.5024C43.7041 52.0058 43.3416 55.2077 41.348 56.3757C39.5155 57.4631 37.4212 56.8388 37.3004 54.8654C36.9178 55.9528 36.515 57.1208 36.8775 58.2887C36.8976 58.3693 37.0789 58.329 37.0789 58.329C37.542 58.5908 37.8441 58.5706 37.9246 58.5908C40.0592 58.7519 42.8986 56.9194 43.7242 55.3487C44.57 53.7175 44.7109 50.2942 42.2542 49.6296C41.0258 50.0928 40.2404 50.8379 39.4148 51.6635V51.6836Z" fill="#E68600"/>
<path d="M42.2542 49.6497C44.7311 50.3344 44.57 53.7578 43.7242 55.3687C42.8986 56.9395 40.0592 58.772 37.9246 58.6109C43.1402 60.0205 46.5233 54.7848 46.6643 51.0593C46.04 49.0456 44.288 48.8845 42.234 49.6296L42.2542 49.6497Z" fill="#D70835"/>
<g style="mix-blend-mode:multiply" opacity="0.3">
<path d="M42.2542 49.6497C44.7311 50.3344 44.57 53.7578 43.7242 55.3687C42.8986 56.9395 40.0592 58.772 37.9246 58.6109C43.1402 60.0205 46.5233 54.7848 46.6643 51.0593C46.04 49.0456 44.288 48.8845 42.234 49.6296L42.2542 49.6497Z" fill="#231815"/>
</g>
<path d="M41.207 51.4219C40.623 51.4219 39.9988 51.7038 39.4148 51.6837C38.2267 52.8718 37.8441 53.3551 37.3004 54.8855C37.4212 56.859 39.5155 57.4832 41.348 56.3958C43.3416 55.2279 43.6839 52.026 41.8313 51.5226" fill="#D70835"/>
<g style="mix-blend-mode:multiply" opacity="0.3">
<path d="M41.207 51.4219C40.623 51.4219 39.9988 51.7038 39.4148 51.6837C38.2267 52.8718 37.8441 53.3551 37.3004 54.8855C37.4212 56.859 39.5155 57.4832 41.348 56.3958C43.3416 55.2279 43.6839 52.026 41.8313 51.5226" fill="#231815"/>
</g>
<path d="M37.9447 58.611C37.9447 58.611 37.5621 58.611 37.0989 58.3492C38.1259 60.9268 41.65 60.3428 43.6839 58.8929C46.1003 57.1611 47.4697 53.6169 46.6843 51.0796C46.5434 54.7849 43.1401 60.0206 37.9447 58.6311V58.611Z" fill="#F7DBB2"/>
<path d="M54.1754 13.8655C54.1352 17.1546 54.1016 20.437 54.0748 23.7127C54.0748 23.7127 54.4775 24.0349 54.7594 23.9745C55.3031 23.8738 59.3508 19.6449 64.0831 18.92C64.2844 18.779 64.8886 18.4367 65.1302 18.2957C62.8748 17.1076 55.2427 14.4092 54.1754 13.8454V13.8655Z" fill="#383F49"/>
<path d="M71.5541 15.8189C71.8159 16.0203 74.5546 17.8931 75.5615 17.8528C72.1583 18.8194 70.2251 20.7928 70.4063 20.6116C66.9829 23.1288 63.922 27.9215 62.0895 31.4456C61.9687 31.6671 61.5056 33.0163 61.3042 33.0364C60.2369 32.2511 57.4378 30.8616 56.6726 30.2776C56.0282 29.7943 56.4511 29.4922 56.0886 29.8346C55.5851 31.5865 55.4643 32.7746 55.2428 34.5467C55.1421 35.4126 55.0213 36.2584 54.9206 37.1243C54.9206 37.1243 55.0817 37.2653 55.122 37.3056C55.122 37.3056 55.2025 37.3257 55.4442 37.4868C55.5247 37.5271 56.4712 37.9097 57.0149 38.1916C58.1225 38.7756 59.2502 39.3394 60.3779 39.8831C60.0758 38.0305 62.4117 31.6469 63.4388 29.6735C64.647 27.3577 68.0502 22.6052 70.3459 21.0546C71.2118 20.4707 73.729 19.3631 74.7761 19.0208C75.2393 18.8798 75.7226 18.8395 75.783 18.8395C75.8233 18.8395 75.8434 18.3965 75.8031 18.2757C75.6622 17.7118 72.2589 16.3626 71.5541 15.8189Z" fill="#D70835"/>
<g style="mix-blend-mode:multiply" opacity="0.5">
<path d="M71.5541 15.8189C71.8159 16.0203 74.5546 17.8931 75.5615 17.8528C72.1583 18.8194 70.2251 20.7928 70.4063 20.6116C66.9829 23.1288 63.922 27.9215 62.0895 31.4456C61.9687 31.6671 61.5056 33.0163 61.3042 33.0364C60.2369 32.2511 57.4378 30.8616 56.6726 30.2776C56.0282 29.7943 56.4511 29.4922 56.0886 29.8346C55.5851 31.5865 55.4643 32.7746 55.2428 34.5467C55.1421 35.4126 55.0213 36.2584 54.9206 37.1243C54.9206 37.1243 55.0817 37.2653 55.122 37.3056C55.122 37.3056 55.2025 37.3257 55.4442 37.4868C55.5247 37.5271 56.4712 37.9097 57.0149 38.1916C58.1225 38.7756 59.2502 39.3394 60.3779 39.8831C60.0758 38.0305 62.4117 31.6469 63.4388 29.6735C64.647 27.3577 68.0502 22.6052 70.3459 21.0546C71.2118 20.4707 73.729 19.3631 74.7761 19.0208C75.2393 18.8798 75.7226 18.8395 75.783 18.8395C75.8233 18.8395 75.8434 18.3965 75.8031 18.2757C75.6622 17.7118 72.2589 16.3626 71.5541 15.8189Z" fill="#231815"/>
</g>
<path d="M70.809 15.8189C70.3861 15.8994 68.2113 16.8056 67.6474 17.0674C67.4259 17.1681 67.2245 17.3292 67.0232 17.4299C66.5197 17.6715 65.4726 18.1145 65.1302 18.3159C64.8684 18.4569 64.2845 18.7992 64.0831 18.9402C62.8748 19.7457 61.0826 21.4976 60.1764 22.585C59.0286 23.9544 57.1155 26.8743 56.4913 28.445C56.592 28.445 56.7329 28.4249 56.8135 28.445C57.2364 27.116 58.1425 25.948 58.8675 24.7196C59.5119 25.0418 63.4186 26.5118 63.5998 26.6729C63.8213 26.8743 63.7206 26.9347 63.6602 27.1562C63.5797 27.4583 62.0492 30.1165 61.7673 31.0226C61.868 31.1032 61.9082 31.4052 62.0895 31.4657C63.922 27.9617 67.0433 23.2093 70.4062 20.6317C71.4131 19.8665 74.4337 18.2756 75.5614 17.8729C75.0379 17.4701 71.8763 15.9196 71.5541 15.839C71.3527 15.7786 71.2117 15.6578 71.1916 15.6578C71.1715 15.6578 70.9701 15.7987 70.8291 15.839L70.809 15.8189Z" fill="#D70835"/>
<path d="M56.4913 28.425C56.3101 28.8881 56.2094 29.3714 56.0685 29.8547C56.4108 29.5124 56.008 29.8144 56.6524 30.2977C57.4177 30.8817 60.2168 32.2712 61.2841 33.0566C61.4854 33.0364 61.9687 31.6671 62.0694 31.4657C61.9083 31.4053 61.868 31.1032 61.7472 31.0227C61.5257 30.8616 57.0753 28.5256 56.7934 28.4451C56.7129 28.425 56.5719 28.4451 56.4712 28.4451L56.4913 28.425Z" fill="#D9292C"/>
<path d="M56.7934 28.4249C57.0753 28.5054 61.5257 30.8414 61.7472 31.0025C62.0291 30.0963 63.5596 27.4382 63.6401 27.1361C63.7005 26.9146 63.8012 26.834 63.5797 26.6528C63.3985 26.4917 59.4918 25.0217 58.8474 24.6995C58.1224 25.9278 57.2163 27.0958 56.7934 28.4249Z" fill="#D70835"/>
<path d="M49.4231 18.6582C49.4634 20.4505 49.5842 22.2427 49.5238 24.0349C48.6176 24.0551 48.2149 23.7329 48.1544 23.7329C48.0538 23.7127 47.8322 23.7127 47.6309 23.6523C47.7316 23.8134 47.8121 23.7933 47.8322 24.0148C47.9128 24.6592 47.9531 27.0958 47.5101 27.4784C47.5906 27.4784 47.7114 27.4583 47.7114 27.5187C47.8524 28.0423 47.5705 31.083 47.7114 31.2441C47.9329 31.5059 49.9467 30.8817 49.6043 31.7274H49.705C49.7453 27.3777 49.5439 23.0281 49.6043 18.6784H49.403L49.4231 18.6582Z" fill="#0C2434"/>
<path d="M48.2752 15.4766C48.5169 16.8862 48.0738 21.7796 48.1745 23.7329C48.2349 23.7329 48.6377 24.0753 49.5439 24.035C49.6043 22.2428 49.4835 20.4505 49.4432 18.6583C49.4231 17.6112 49.3828 16.5439 49.5439 15.4967L48.2752 15.4564V15.4766Z" fill="#222A33"/>
<path d="M49.6446 18.6583C49.5842 23.008 49.8057 27.3577 49.7453 31.7074V34.9898C50.4098 35.2314 51.0744 35.6744 51.2153 35.5133C51.1147 35.0099 51.2959 34.4863 51.316 34.003C51.5979 28.0222 51.1751 21.4977 51.4369 15.4564H51.3362C49.0606 15.2953 49.6849 15.396 49.6446 18.6583Z" fill="#373635"/>
<path d="M47.3288 14.3086C47.9732 14.7315 48.1544 14.7315 48.2752 15.4564L49.5439 15.4967C49.3626 16.5237 49.4029 17.6111 49.4432 18.6583H49.6446C49.6848 15.396 49.0606 15.2953 51.3361 15.4564L50.7119 14.7919C50.873 14.7113 50.9938 14.5905 51.1347 14.4898C50.4098 14.953 49.9466 14.4093 49.2418 14.1273C49.2418 14.1273 49.1411 14.1273 48.9196 14.0468C48.396 14.4093 47.9329 14.5905 47.3489 14.3086H47.3288Z" fill="#373635"/>
<path d="M49.0606 14.8522L48.4766 14.9932C48.6981 16.1209 49.6446 15.0939 49.0606 14.8522Z" fill="#373635"/>
<path d="M51.316 34.0232H51.4167C51.4167 34.0232 51.4973 34.0232 51.5174 34.0232C51.5174 30.2575 51.5376 26.5119 51.5174 22.7462C51.5174 20.3297 51.6181 17.8931 51.4167 15.4564C51.1751 21.4977 51.598 28.0222 51.2959 34.003L51.316 34.0232Z" fill="#260D0C"/>
<path d="M46.6844 34.9897C46.4628 35.1307 47.067 35.3925 47.2079 36.5806C47.2683 36.5806 47.3489 36.5806 47.4093 36.5806C47.6308 36.6209 50.0876 37.9298 50.148 38.0506C50.1681 38.111 50.148 39.1179 49.9466 39.0776C50.3091 39.3394 50.4098 39.6213 50.8931 39.5207C51.3764 39.42 54.1956 37.5673 55.1018 37.3055C55.0615 37.2653 54.9004 37.1444 54.9004 37.1243C54.4977 36.4598 55.3032 35.2515 54.4775 34.8085C54.1755 35.1106 51.0743 37.0035 50.8528 37.0236C50.6112 37.0437 47.1677 35.2918 46.6844 34.9897Z" fill="#222A33"/>
<path d="M47.4294 36.6007C47.0871 37.5271 48.5974 38.0909 49.9466 39.0776C50.148 39.1179 50.1883 38.111 50.148 38.0506C50.0876 37.9298 47.6308 36.6209 47.4093 36.5806L47.4294 36.6007Z" fill="#222A33"/>
<path d="M51.2153 35.5334C51.0743 35.6945 50.4098 35.2515 49.7452 35.0098C49.0404 34.7481 48.3558 34.446 47.6308 34.2043C47.5503 34.5265 47.0468 34.7682 46.6843 35.0098C47.1676 35.332 50.6111 37.0639 50.8528 37.0437C51.0743 37.0437 54.1755 35.1307 54.4775 34.8286C54.3366 34.7682 51.9805 34.1641 51.5375 34.0231C51.4972 34.0231 51.4569 34.0231 51.4368 34.0231C51.3764 34.8286 51.5979 35.614 51.2354 35.5334H51.2153Z" fill="#222A33"/>
<path d="M51.2153 35.5334C51.5979 35.614 51.3764 34.8286 51.4167 34.0231H51.316C51.2958 34.5064 51.1146 35.03 51.2153 35.5334Z" fill="#1E6F6E"/>
<path d="M32.4069 21.0748C31.6014 20.8734 30.4939 20.813 29.6884 20.4706C29.8092 18.8596 29.5474 16.3626 29.6884 14.9328C31.7625 14.8322 32.5479 15.3759 32.1854 14.0468C32.2257 14.0871 32.4069 14.1475 32.4271 14.2079C32.5479 14.5704 32.3264 19.9269 32.4271 21.0748H32.4069Z" fill="#3D4B54"/>
<path d="M32.1652 14.0467C32.5277 15.3557 31.7625 14.8321 29.6682 14.9328C29.8293 13.3822 30.373 14.0669 30.5542 13.8252C30.8966 13.3621 29.5071 8.73044 32.6083 8.30755C34.0582 9.53594 31.7423 10.5025 31.6819 10.6435C31.6215 10.7845 31.6215 13.6641 31.6819 13.8252C31.7222 13.946 32.0645 13.9863 32.1652 14.0669V14.0467Z" fill="#261F27"/>
<path d="M18.8745 39.4401C19.5592 40.2255 20.6869 40.4872 22.9221 39.0373C25.1574 37.5875 26.4261 35.7751 25.7414 34.9897C25.0567 34.2044 22.7006 34.7279 20.4654 36.1778C18.2301 37.6277 18.1898 38.6547 18.8745 39.4401Z" fill="#C7C6C4"/>
<path d="M12.7125 36.6209C12.7931 35.3321 12.7931 34.3856 12.7931 34.3856C14.2429 32.3518 15.572 31.6671 15.7935 30.6803C14.7665 30.8817 12.2292 32.8955 11.8869 33.7211C11.5043 34.6474 12.048 35.8355 12.7125 36.641V36.6209Z" fill="#C7C6C4"/>
</svg>
