<svg width="128" height="85" viewBox="0 0 128 85" fill="none" xmlns="http://www.w3.org/2000/svg">
<g style="mix-blend-mode:multiply" opacity="0.5">
<path d="M93.4038 84.0995L128 68.7723L34.5762 29.674L0 45.0011L93.4038 84.0995Z" fill="#7B7972"/>
</g>
<path d="M54.4056 45.7815L1.56079 27.553V12.786L54.4056 30.9946V45.7815Z" fill="#BDC2C8"/>
<path d="M82.3586 43.1203L54.4055 55.9263V30.9946L82.3386 18.1886L82.3586 43.1203Z" fill="url(#paint0_linear_1_1531)"/>
<path d="M54.5457 30.9545L1.56079 12.786L29.3738 0L82.3387 18.1885L54.5457 30.9545Z" fill="#F0F0F2"/>
<path d="M13.2263 30.7144C13.0062 30.7944 11.6055 31.6148 11.6055 31.7549C14.0066 33.4357 17.0881 33.7358 19.7893 34.8363C19.5692 34.9564 19.029 35.4766 18.8689 35.5167C18.4287 35.6167 15.1872 34.4161 14.4068 34.216C10.7651 33.3156 7.48357 33.7358 11.4254 31.8149V31.5748L1.56079 27.9331V27.5529C2.06103 27.4729 2.34116 27.0327 2.42119 26.6325C6.02288 27.9931 9.6179 29.3538 13.2063 30.7144H13.2263Z" fill="#BDC2C8"/>
<path d="M22.2704 33.5557C21.9503 33.7958 20.3295 34.5762 19.7893 34.8363C17.088 33.7358 14.0065 33.4356 11.6054 31.7548C11.6054 31.6148 12.9861 30.7944 13.2262 30.7144C13.5263 30.5943 13.8065 30.3742 14.1466 30.3942C14.5868 30.4342 21.1499 33.1355 22.2704 33.5357V33.5557Z" fill="#F0F0F2"/>
<path d="M28.2333 44.781C26.7125 44.2607 25.1118 43.8806 23.6511 43.2403C24.2114 43.2403 23.7311 41.3394 23.8912 40.7991C23.9513 40.619 25.8321 39.4385 25.9322 39.4785C26.8326 41.1593 27.773 42.8801 28.2333 44.781Z" fill="#9A9CA0"/>
<path d="M19.7893 34.8364C20.3295 34.5563 21.9503 33.7759 22.2704 33.5558C22.9107 33.0756 22.5706 32.7154 22.9508 32.6354C23.1508 32.5953 25.8121 34.036 26.4124 34.2561C28.4733 35.0165 52.2845 45.0812 54.3855 45.7815C54.2855 49.1631 54.3855 52.5647 54.3855 55.9463C53.6051 56.0463 29.2337 45.1612 28.2132 44.8011C27.753 42.9002 26.8126 41.1994 25.9121 39.4986C25.7921 39.4586 23.9312 40.6391 23.8712 40.8192C23.6911 41.3594 24.1713 43.2603 23.6311 43.2603C21.0098 42.1198 22.4905 42.2199 20.9098 39.5386C18.9889 36.3171 12.3858 33.2556 10.3648 36.4371C9.58448 37.6577 9.80458 39.8788 9.86461 41.2394C8.96419 40.5791 9.52445 38.8783 9.12427 38.4381C8.70407 37.9779 8.02375 37.9378 7.50351 37.6777C7.4835 37.6777 7.54352 37.5977 7.00327 37.3376C6.56306 37.1375 6.06283 37.0174 5.64263 36.8173C5.12239 36.5772 1.62075 35.0165 1.56072 34.8164C1.42065 34.4162 1.66076 29.1937 1.56072 27.9332L11.4253 31.5749V31.815C7.4835 33.7159 10.765 33.2957 14.4067 34.2161C15.1871 34.4162 18.4286 35.6168 18.8688 35.5167C19.0489 35.4767 19.5892 34.9364 19.7893 34.8364Z" fill="#BDC2C8"/>
<path d="M23.5711 35.6768C25.512 38.4981 26.1923 38.5981 23.331 39.9188C22.6507 38.9583 21.9703 37.9912 21.29 37.0174L23.5911 35.6768H23.5711Z" fill="#9A9CA0"/>
<path d="M23.6311 43.2403C25.1118 43.8806 26.6925 44.2608 28.2132 44.781C29.2537 45.1412 53.6051 56.0263 54.3855 55.9262C55.386 55.8062 58.5074 53.8253 59.8481 53.4451V56.1664C59.3678 56.1664 58.6675 56.7266 58.6075 56.7466C58.1072 56.9467 54.8857 58.3874 54.7056 58.5075C54.4655 58.6675 54.7857 58.7476 54.7657 58.7476C54.2254 59.2478 52.9248 58.4274 52.1044 58.5675C51.124 58.8276 25.672 49.5032 25.4319 49.5633C25.0517 49.6633 22.9307 51.3241 19.5491 51.4641C18.0685 51.5242 15.3872 50.7838 14.0866 49.9835C12.3858 48.943 10.9051 46.7219 10.3648 44.781C9.96465 43.3603 9.94464 42.68 9.8646 41.2193C9.80457 39.8587 9.58447 37.6377 10.3648 36.4171C12.3658 33.2356 18.9889 36.297 20.9098 39.5185C22.5105 42.1998 21.0098 42.0998 23.6311 43.2403Z" fill="#19181C"/>
<path d="M17.6883 45.6414C18.5287 45.2412 18.0484 45.4013 18.4286 44.8411C18.4286 44.8411 18.7488 44.761 18.8088 44.5609C18.0084 49.1231 12.3858 46.3818 12.4858 41.5395C12.7459 42.8801 13.6264 43.8206 14.6468 44.621C15.4872 45.2613 16.6678 46.1217 17.6883 45.6414Z" fill="#BDC2C8"/>
<path d="M18.4286 40.9993C18.5287 41.2594 18.7488 41.5595 18.8088 41.8397L18.0084 43.0202C16.4077 43.6205 17.068 39.4185 18.4486 40.9993H18.4286Z" fill="#505558"/>
<path d="M18.4286 40.9992C17.068 39.4185 16.4077 43.6004 17.9884 43.0201L18.7888 41.8396C18.9689 42.74 18.9489 43.6404 18.7888 44.5609C18.7287 44.761 18.4286 44.821 18.4086 44.841L18.2285 44.3608L17.6683 45.6414C16.6678 46.1216 15.4672 45.2412 14.6268 44.6209C13.6063 43.8405 12.7059 42.8801 12.4658 41.5395C12.5659 37.1374 16.9479 37.3575 18.4086 40.9992H18.4286Z" fill="#9A9CA0"/>
<path d="M15.9474 43.4203C16.4677 42.9201 15.027 40.599 14.4667 39.7986C14.927 39.0983 16.2276 39.1783 16.4477 39.9787C16.5477 40.3389 16.6078 46.1416 15.9474 43.4203Z" fill="#505558"/>
<path d="M15.9475 43.4204C15.2672 42.6 13.3263 40.6391 14.4668 39.7987C15.0271 40.5791 16.4678 42.9002 15.9475 43.4204Z" fill="#505558"/>
<path d="M18.4287 44.841C18.0485 45.4013 18.5287 45.2412 17.6884 45.6414L18.2486 44.3608L18.4287 44.841Z" fill="#505558"/>
<path d="M126.199 50.9039C126.179 51.3241 126.139 51.9043 126.319 52.2645C125.979 52.3245 121.217 55.2659 120.297 55.6661C120.096 55.7461 119.816 55.8462 119.616 55.7061C119.636 55.1659 119.616 54.6256 119.616 54.0854C121.057 53.6051 121.377 53.0249 121.477 52.9648C121.557 52.9248 122.197 52.6847 123.098 52.2245C124.098 51.7243 125.179 51.3041 126.199 50.8839V50.9039Z" fill="#F0F0F2"/>
<path d="M103.008 25.2519C103.609 25.6321 105.089 25.412 105.489 24.7116C105.75 25.0518 105.91 29.694 105.73 30.2142C105.65 30.4943 103.789 31.5949 103.749 31.7149C103.689 31.895 104.049 34.6563 103.869 35.2366C103.829 35.2366 103.789 35.2366 103.749 35.2366C103.789 34.3962 103.889 33.916 102.888 34.056C102.948 33.7759 102.808 33.6959 102.768 33.5758C101.868 30.6144 101.508 25.2919 100.787 24.6716C100.787 24.6716 100.807 24.5316 100.667 24.5516C101.708 24.1314 101.488 22.7107 102.208 26.4324C102.408 26.3524 102.508 25.8522 103.008 25.2519Z" fill="#BDC2C8"/>
<path d="M105.489 24.7116C105.089 25.412 103.609 25.6521 103.008 25.2519C103.629 24.5315 104.729 23.7112 105.489 24.7116Z" fill="#F0F0F2"/>
<path d="M101.768 56.2064C107.61 53.3251 113.493 50.5638 119.316 47.6624C119.936 48.843 119.576 50.3437 121.357 49.6233V50.4837C121.397 51.3108 121.437 52.1312 121.477 52.9449C121.477 52.9449 121.057 53.5852 119.616 54.0654C119.636 52.8849 119.596 51.7043 119.616 50.5238C119.236 50.4237 118.796 50.8839 118.756 50.9039C113.393 53.105 106.65 56.7267 101.087 59.0878C101.087 60.0082 100.887 64.3502 101.027 64.7304C101.067 64.8305 101.187 64.7905 101.267 64.7704H100.647C100.967 63.7099 100.527 64.0101 100.527 63.9501C100.507 63.85 101.027 63.79 100.467 63.3298C99.4466 62.5094 98.5262 63.0096 97.4257 63.4098V59.7481C97.4257 59.7481 96.7453 60.0883 96.6853 60.1083C96.2851 60.2883 95.945 60.5084 95.5648 60.6885C95.4047 60.3884 93.804 59.8081 93.2637 59.608C92.0832 59.1478 83.3391 56.0664 82.7788 56.0063C82.5787 55.326 84.3395 54.8058 85.1399 53.7253C90.1423 55.6662 95.1446 57.5871 100.207 59.3679L100.507 58.9077C96.6653 56.9868 79.1171 51.004 77.1962 49.8234C77.2362 49.0831 77.1362 48.3227 77.1962 47.5824C84.8598 51.064 92.8635 53.7253 100.687 56.8467C100.987 56.8467 101.468 56.2865 101.748 56.1464L101.768 56.2064Z" fill="#BDC2C8"/>
<path d="M78.7169 46.782C78.7169 47.0621 79.4772 47.4023 79.8974 47.5623C87.1408 50.5237 94.4843 53.325 101.788 56.2064C101.508 56.3465 101.027 56.8867 100.727 56.9067C92.9035 53.7852 84.8998 51.124 77.2362 47.6424C77.2362 47.6023 77.2362 47.5623 77.2362 47.5223C77.6964 47.1621 78.2767 47.0221 78.7169 46.802V46.782Z" fill="#F0F0F2"/>
<path d="M103.749 35.2365C103.188 35.2365 99.9069 36.9573 99.0465 37.2975C98.4262 37.2374 98.3061 37.1974 98.046 37.7377C97.5458 37.7777 97.4657 37.6576 97.4257 37.6576C98.066 36.5971 96.0651 37.2975 96.6254 36.7172C97.8859 36.4171 102.468 34.096 102.888 34.0559C103.889 33.9159 103.809 34.3961 103.749 35.2365Z" fill="#BDC2C8"/>
<path d="M96.1852 38.1379C95.0847 38.5781 91.9432 41.1793 93.3238 38.2179C93.3639 38.2179 93.4039 38.2179 93.4439 38.2179C94.3443 38.1579 95.2848 38.0778 96.1652 38.1579L96.1852 38.1379Z" fill="#9A9CA0"/>
<path d="M118.756 50.9239C118.796 52.8181 118.836 54.719 118.876 56.6266C117.935 56.8467 103.709 63.7099 101.268 64.8104C101.188 64.8104 101.047 64.8504 101.027 64.7704C100.887 64.3902 101.087 60.0482 101.087 59.1278C106.65 56.7667 113.393 53.145 118.756 50.9439V50.9239Z" fill="#2E2928"/>
<path d="M119.256 57.8471C119.196 58.5474 119.196 59.2477 119.136 59.9681C113.2 62.7427 107.27 65.5107 101.348 68.272C100.807 68.4921 101.107 67.3515 101.047 66.131C106.93 63.383 112.82 60.6351 118.716 57.8871L119.276 57.8471H119.256Z" fill="#2E2928"/>
<path d="M110.332 67.2716C108.451 68.172 107.651 67.5918 107.971 69.9128C107.931 69.9128 107.43 70.3931 107.35 70.273C107.25 69.3526 107.671 68.4922 106.91 68.3721C105.45 69.0725 95.6449 73.4345 95.0046 73.5546C94.1242 73.6946 91.443 73.4145 91.1028 72.4741C91.6431 72.7942 93.0437 73.4745 93.644 73.4145C93.8641 73.3945 96.8655 71.3135 97.6059 71.1534C99.1666 70.6532 109.011 66.8514 109.632 66.8314C109.912 66.8314 109.852 67.1115 110.312 67.2716H110.332Z" fill="#D4D4D6"/>
<path d="M116.895 65.6908C116.735 65.8509 115.954 66.2511 115.654 66.3911C113.974 67.2315 110.272 68.8323 107.971 69.9128C107.631 67.5717 108.451 68.152 110.332 67.2716C112.493 66.2511 114.754 65.0505 116.895 64.2701V65.6908Z" fill="#9A9CA0"/>
<path d="M119.616 54.0853C119.616 54.6256 119.636 55.1658 119.616 55.7061C119.576 56.5065 119.256 56.5465 119.236 56.6065C119.116 56.6265 118.976 56.6065 118.856 56.6265C118.816 54.7323 118.776 52.8314 118.736 50.9239C118.736 50.9239 119.216 50.4636 119.596 50.5437C119.576 51.7242 119.616 52.9048 119.596 54.0853H119.616Z" fill="#7E7D7B"/>
<path d="M118.876 56.6265C118.996 56.6065 119.136 56.6265 119.256 56.6065C119.236 57.0067 119.296 57.4269 119.256 57.8471L118.696 57.8871C112.813 60.6351 106.923 63.383 101.027 66.131C101.107 67.3516 100.807 68.4921 101.328 68.272C107.264 65.4974 113.193 62.7294 119.116 59.9681C119.116 60.0681 118.456 61.5688 119.556 61.4288C119.916 61.3888 125.359 58.6475 126.119 58.2473C126.94 57.8071 126.139 57.3869 127.18 57.9271C127.88 59.3078 126.719 59.3678 123.338 61.0486C122.137 61.6489 120.937 62.1891 119.736 62.7894C119.096 63.1096 118.496 63.2496 117.875 63.6698C117.835 63.6898 117.235 63.7299 117.135 64.03C117.055 64.2301 117.215 64.9905 117.135 65.3306C117.015 65.9109 117.035 65.5507 116.895 65.7108V64.2901C114.734 65.0705 112.493 66.2711 110.332 67.2915C109.872 67.1315 109.932 66.8313 109.651 66.8513C109.031 66.8513 99.1865 70.6531 97.6258 71.1733C96.8654 71.3334 93.884 73.4144 93.6639 73.4344C93.0636 73.4944 91.663 72.8141 91.1227 72.494C91.0627 72.3339 91.1227 71.3534 90.3824 69.1924C90.5825 68.7122 90.7626 68.6322 91.1828 68.392C93.4638 67.0314 98.006 65.4707 100.547 64.01C100.547 64.05 100.987 63.7499 100.667 64.8104H101.287C103.709 63.7299 117.955 56.8866 118.896 56.6465L118.876 56.6265Z" fill="#BDC2C8"/>
<path d="M95.5649 68.4322C95.1447 70.233 97.5258 69.5527 97.7259 69.2726C97.8459 69.1125 97.8059 67.6718 97.7859 67.2916C98.2661 67.0715 98.6663 66.7714 98.7864 67.0315C99.1265 69.7928 98.1461 69.1125 95.3848 70.8133C95.1046 70.7733 94.6244 69.1525 95.5649 68.4522V68.4322Z" fill="#6B2204"/>
<path d="M95.5648 68.4321C95.6648 68.3521 97.5457 67.3916 97.8058 67.2916C97.8058 67.6718 97.8659 69.1324 97.7458 69.2725C97.5457 69.5526 95.1646 70.233 95.5848 68.4321H95.5648Z" fill="#D76306"/>
<path d="M127.18 57.9071C126.159 57.3669 126.96 57.7871 126.119 58.2273C125.359 58.6275 119.896 61.3688 119.556 61.4088C118.456 61.5488 119.116 60.0481 119.116 59.9481C119.176 59.2478 119.176 58.5274 119.236 57.8271C119.276 57.4069 119.216 56.9867 119.236 56.5865C119.236 56.5465 119.576 56.4865 119.616 55.6861C119.816 55.8262 120.096 55.7261 120.296 55.6461C121.197 55.2659 125.979 52.3245 126.319 52.2445C126.499 52.2045 127.12 52.4246 127.18 52.6247C127.46 57.0267 126.599 55.9062 126.439 56.2664C126.059 57.0667 127.02 57.567 127.18 57.8871V57.9071Z" fill="#BDC2C8"/>
<path d="M124.578 55.606C124.919 55.6661 124.899 57.2068 124.819 57.3869C124.759 57.5269 121.937 59.1477 122.217 58.5074C122.257 57.9271 122.177 57.3469 122.217 56.7666C122.658 56.5065 124.118 55.7661 124.578 55.606Z" fill="#D76306"/>
<path d="M122.217 56.7666C122.177 57.3469 122.257 57.9272 122.217 58.5074C122.217 58.5274 121.917 58.5475 122.217 59.0077C121.917 59.1077 121.277 59.4879 121.097 59.2678C121.157 58.7676 121.017 57.647 121.097 57.4069C121.177 57.1668 121.997 56.9067 122.217 56.7666Z" fill="#2E140E"/>
<path d="M122.217 58.9877C121.917 58.5274 122.217 58.5074 122.217 58.4874C121.937 59.1477 124.758 57.527 124.819 57.3669C124.879 57.2068 124.899 55.6461 124.578 55.5861C124.859 55.486 124.999 55.1859 125.199 55.486C125.139 55.9863 125.279 57.2669 125.199 57.4669C125.139 57.627 122.557 58.8676 122.217 58.9676V58.9877Z" fill="#6B2204"/>
<path d="M122.838 48.7829C123.238 49.083 122.958 49.2631 122.958 49.5232L121.337 50.5037V49.6433C121.337 49.6433 121.437 49.4432 122.818 48.8029L122.838 48.7829Z" fill="#2E2928"/>
<path d="M123.098 52.2445C122.197 52.6847 121.557 52.9449 121.477 52.9849L121.357 50.5237L122.978 49.5433C122.978 50.4437 122.898 51.3841 123.098 52.2645V52.2445Z" fill="#7E7D7B"/>
<path d="M126.199 50.9039C125.179 51.3241 124.098 51.7443 123.098 52.2445C122.898 51.3641 122.958 50.4237 122.978 49.5232C122.978 49.2631 123.258 49.083 122.858 48.7829C123.898 48.3027 124.919 47.7024 125.959 47.2021C125.999 47.2422 126.279 47.1221 126.339 47.2422C126.499 47.6424 126.259 50.2436 126.219 50.9039H126.199Z" fill="#B74C06"/>
<path d="M125.639 48.1026C126.299 47.7824 126.079 49.123 126.019 50.5637L123.718 49.5432C123.538 49.063 125.359 48.4627 125.639 48.1026Z" fill="#FEA90B"/>
<path d="M85.16 53.7852C84.3596 54.8457 82.5988 55.386 82.7989 56.0663C80.7179 55.7861 80.0776 56.3864 78.4568 57.607C78.1567 57.8271 77.8766 58.0472 77.5964 58.2873C77.4964 58.3874 77.3163 58.4674 77.2163 58.5675C77.3163 56.8867 77.0562 51.7042 77.2163 50.9439C77.2363 50.8438 77.4764 50.9239 77.4564 50.7438C80.0176 51.7643 82.5788 52.8047 85.14 53.8052L85.16 53.7852Z" fill="#BDC2C8"/>
<path d="M76.9761 49.7633C76.9761 49.7633 77.1762 49.8434 77.2163 49.8634C79.1171 51.0439 96.6854 57.0267 100.527 58.9476L100.227 59.4079C95.1647 57.627 90.1623 55.7061 85.16 53.7652C82.5988 52.7647 80.0376 51.7443 77.4764 50.7038C77.1962 50.5837 76.8761 50.5037 76.616 50.3836C74.475 49.5232 69.0924 47.4623 67.9319 46.902L68.172 46.2617C71.0734 47.4823 74.0348 48.5828 76.9761 49.7433V49.7633Z" fill="#54778D"/>
<path d="M58.6274 56.7466C64.3101 59.5079 70.2329 61.869 75.9756 64.3902L75.4754 65.8508C73.7746 65.1305 73.5144 64.6703 71.7536 65.8508C66.4111 63.2896 60.2082 61.2487 54.7656 58.7275C54.7656 58.7275 54.4455 58.6475 54.7056 58.4874C54.8857 58.3673 58.1272 56.9267 58.6074 56.7266L58.6274 56.7466Z" fill="#414047"/>
<path d="M58.6274 58.4675C64.3101 61.2288 70.2329 63.5899 75.9756 66.1111L75.4754 67.5718C73.7746 66.8514 73.5144 66.3912 71.7536 67.5718C66.4111 65.0106 60.2082 62.9696 54.7656 60.4484C54.7656 60.4484 54.4455 60.3684 54.7056 60.2083C54.8857 60.0882 58.1272 58.6476 58.6074 58.4475L58.6274 58.4675Z" fill="#414047"/>
<path d="M59.8681 56.1664C60.7685 56.1664 74.0147 62.4493 76.1757 63.0896C76.4759 63.3698 75.9957 64.7504 75.8756 65.971C75.7155 66.011 75.6355 65.9309 75.4954 65.8709L75.9957 64.4102C70.2329 61.8891 64.3102 59.5079 58.6475 56.7667C58.7075 56.7466 59.4079 56.1864 59.8881 56.1864L59.8681 56.1664Z" fill="#2E2928"/>
<path d="M90.7426 62.9295C90.7426 63.0696 90.3825 65.0505 90.5025 65.6108C90.8227 67.0915 92.4234 65.7308 93.604 65.2106C93.8241 65.1105 94.0242 65.0105 94.2243 64.9104C94.5244 64.7704 94.4644 64.7704 94.4644 64.7704C94.8846 64.5903 95.3048 64.3702 95.705 64.1901C96.2652 63.95 96.8655 63.6498 97.4458 63.4497C98.5463 63.0496 99.4667 62.5293 100.487 63.3697C101.047 63.8099 100.527 63.89 100.547 63.99C98.0261 65.4507 93.4639 67.0114 91.1828 68.3721C90.7626 68.6122 90.5626 68.6922 90.3825 69.1724C90.2624 68.8123 90.1624 68.4321 90.0023 68.0919C90.5425 68.252 90.2424 63.8099 90.0623 63.6298C89.8022 63.3697 83.9795 60.9886 83.1191 60.6484C81.4383 59.9681 78.9571 59.5679 77.5965 58.3073C77.8766 58.0672 78.1767 57.8471 78.4569 57.627C80.858 59.3478 89.9423 61.9891 90.6626 62.5893C90.9627 62.8495 90.7226 62.7894 90.7226 62.9495L90.7426 62.9295Z" fill="#F0F0F2"/>
<path d="M82.7988 56.0462C83.3591 56.1263 92.0831 59.1877 93.2837 59.6479C93.824 59.848 95.4247 60.4283 95.5848 60.7284C95.1046 60.9485 94.6644 61.2287 94.2241 61.4488C94.1641 61.4888 94.004 61.4688 93.7239 61.6089C92.7435 62.0691 91.723 62.4493 90.7425 62.9295C90.7425 62.7494 90.9826 62.8294 90.6825 62.5693C89.9621 61.949 80.8779 59.3078 78.4768 57.607C80.0975 56.3864 80.7378 55.7861 82.8188 56.0663L82.7988 56.0462Z" fill="#F0F0F2"/>
<path d="M89.9822 68.0719C88.9617 65.8509 87.1208 64.05 84.9598 62.9695C84.5796 62.7894 80.2376 61.1487 79.9375 61.0887C79.7374 60.5084 77.2162 60.2282 76.896 59.808C76.6959 59.5679 76.836 58.9877 76.836 58.9476C77.0561 58.8876 77.1962 58.5675 77.2162 58.5475C77.3162 58.4474 77.4763 58.3674 77.5964 58.2673C78.957 59.5279 81.4382 59.9281 83.119 60.6084C83.9794 60.9686 89.8021 63.3297 90.0622 63.5898C90.2423 63.7699 90.5424 68.212 90.0022 68.0519L89.9822 68.0719Z" fill="#BDC2C8"/>
<path d="M78.2168 44.9611C77.7165 45.2412 77.6165 45.2412 77.5965 45.2613C77.3563 44.641 77.3363 43.9606 77.2163 43.3003C77.9566 43.0202 81.9585 42.1798 82.1786 41.6596C82.3387 41.2994 81.3182 35.1765 81.0581 34.2361C83.019 33.3957 86.2605 31.7149 87.7612 31.1546C88.8417 33.8226 89.9156 36.4971 90.9827 39.1784C86.4806 41.1793 82.5788 42.4799 78.2168 44.9611Z" fill="#015267"/>
<path d="M81.058 34.236C81.3181 35.1765 82.3386 41.2993 82.1785 41.6595C81.9584 42.1798 77.9565 43.0202 77.2162 43.3003C76.836 40.9592 76.4558 38.5781 76.3558 36.1769C77.8965 35.4366 79.5173 34.8963 81.058 34.236Z" fill="#014153"/>
<path d="M91.9832 38.9182C90.7827 39.6786 90.6426 39.0783 90.2424 40.7791C88.2214 41.2193 87.7012 41.0592 87.5811 41.0992C87.301 41.1593 82.7589 43.1602 82.1786 43.4603C80.858 43.9672 79.5374 44.4741 78.2168 44.981C82.5988 42.4999 86.4806 41.1793 90.9827 39.1983C89.9022 36.5304 88.8284 33.8558 87.7612 31.1746C88.2415 30.9945 88.7617 30.5743 89.0018 30.8944C89.2619 31.2346 91.563 37.8177 91.9832 38.9382V38.9182Z" fill="#014153"/>
<path d="M90.2423 40.7791C90.3824 40.7391 90.6225 40.7191 90.6225 40.8792C89.9222 41.2193 89.2219 41.5595 88.5215 41.8997C87.7212 41.8396 87.5611 42.2198 87.281 42.3599C84.4796 43.9406 81.5983 45.3613 78.7169 46.802C78.2567 47.0421 77.6764 47.1821 77.2362 47.5223C77.2562 47.2822 77.1962 46.942 77.2362 46.842C77.5164 46.1416 81.3582 43.8806 82.1986 43.4604C82.7788 43.1602 87.301 41.1593 87.6011 41.0993C87.7412 41.0593 88.2414 41.2193 90.2624 40.7791H90.2423Z" fill="#BDC2C8"/>
<path d="M102.768 33.5757C100.867 34.3961 98.9865 35.2966 97.1256 36.197C96.3452 36.5772 96.3052 36.8573 96.2652 36.8773C96.1251 36.9373 94.0241 37.4776 93.4839 38.1979C93.4439 38.1979 93.4038 38.1979 93.3638 38.1979C92.9636 38.1979 92.6835 38.8382 92.2433 38.1979C92.0032 37.8578 89.382 30.8545 89.522 30.4543C89.6821 29.9741 95.825 27.5329 98.5663 26.0322C99.6068 31.0145 101.047 30.0341 100.667 24.7716C100.667 24.7716 100.807 24.7716 100.787 24.6316C101.508 25.2518 101.868 30.5943 102.768 33.5357V33.5757Z" fill="#015267"/>
<path d="M98.5462 26.0523C99.2666 25.6721 100.007 25.2719 100.647 24.7917C101.027 30.0541 99.5667 31.0346 98.5462 26.0523Z" fill="#014153"/>
<path d="M102.768 33.5758C102.808 33.7159 102.948 33.7759 102.888 34.056C102.468 34.116 97.886 36.4371 96.6254 36.7173C96.0651 37.2975 98.0861 36.5772 97.4258 37.6577C97.1856 37.6977 96.5053 37.9979 96.1852 38.1179C95.3048 38.0379 94.3443 38.1179 93.4639 38.178C94.0042 37.4776 96.1051 36.9374 96.2452 36.8573C96.2852 36.8373 96.3252 36.5572 97.1056 36.177C98.9665 35.2766 100.847 34.3562 102.748 33.5558L102.768 33.5758Z" fill="#182836"/>
<path d="M90.6026 40.8792C90.6026 40.7191 90.3825 40.7391 90.2224 40.7792C90.6026 39.0784 90.7626 39.6786 91.9632 38.9183C92.0232 39.0784 92.6035 39.9988 92.5835 40.0588C92.5235 40.1989 90.9427 40.7191 90.6026 40.8792Z" fill="#5F6972"/>
<path d="M100.647 24.5515C100.807 24.5315 100.767 24.6516 100.767 24.6716C100.767 24.8317 100.667 24.7916 100.647 24.8117C99.9869 25.2919 99.2465 25.6921 98.5462 26.0722C95.7849 27.5529 89.642 30.0141 89.5019 30.4943C89.3619 30.8945 92.0031 37.8978 92.2232 38.238C92.6634 38.8582 92.9236 38.238 93.3437 38.238C91.9631 41.1993 95.0846 38.6181 96.2051 38.1579C96.5252 38.0379 97.2056 37.7377 97.4457 37.6977C97.4857 37.6977 97.5657 37.8178 98.066 37.7777C99.2665 37.6977 100.247 38.0779 99.7467 37.5376C99.5467 37.5376 99.2065 37.3575 99.0664 37.3375C99.9268 36.9974 103.208 35.2566 103.769 35.2766C103.809 35.2766 103.849 35.2766 103.889 35.2766C105.429 35.5167 109.491 40.5991 110.032 40.9192C111.172 41.6396 124.698 45.9616 125.959 47.2422C124.919 47.7424 123.898 48.3427 122.858 48.8229C121.457 49.4832 121.457 49.6433 121.377 49.6633C119.596 50.3837 119.956 48.883 119.336 47.7024C113.513 50.6038 107.63 53.3651 101.788 56.2464C94.4843 53.3851 87.1608 50.5637 79.8974 47.6024C79.4772 47.4223 78.6969 47.0821 78.7169 46.822C81.5782 45.3813 84.4796 43.9606 87.2809 42.3799C87.7411 42.9402 89.702 41.9997 88.5215 41.9197C89.2218 41.5795 89.9221 41.2394 90.6225 40.8992C90.9626 40.7391 92.5634 40.2189 92.6034 40.0788C92.6234 40.0188 92.0431 39.0984 91.9831 38.9383C91.5629 37.8378 89.2618 31.2347 89.0017 30.8945C88.7616 30.5744 88.2414 30.9946 87.7611 31.1746C86.2604 31.7349 83.0389 33.3957 81.058 34.2561C79.4972 34.9164 77.8765 35.4567 76.3558 36.197L76.0556 34.6163C71.4935 32.7487 66.9247 30.8812 62.3492 29.0136C62.6694 28.4534 63.0095 27.8331 63.2096 27.2128C67.0514 25.2719 70.8732 23.431 74.795 21.6902C75.1152 21.5501 75.1352 21.31 75.1752 21.29C75.1952 21.29 75.2152 21.4901 75.7955 21.25C77.3362 20.5897 78.8569 19.6292 80.4377 19.069C81.7383 18.6087 84.4796 17.7884 85.7002 17.8284C86.3605 17.8484 97.4056 21.4901 97.9659 21.8102C100.087 22.9708 99.5266 25.0318 100.627 24.5916L100.647 24.5515Z" fill="#F0F0F2"/>
<path d="M88.5015 41.8997C89.682 41.9797 87.7211 42.9202 87.2609 42.3599C87.541 42.2198 87.7011 41.8397 88.5015 41.8997Z" fill="#505558"/>
<path d="M99.0465 37.3175C99.1865 37.3175 99.5267 37.4976 99.7268 37.5176C100.247 38.0578 99.2466 37.6777 98.046 37.7577C98.2861 37.2174 98.4262 37.2575 99.0465 37.3175Z" fill="#9A9CA0"/>
<path d="M87.5811 29.3138L88.2614 30.1942C87.5811 31.2547 87.2209 29.3538 87.5811 29.3138Z" fill="#19181C"/>
<path d="M82.1786 43.4404C81.3382 43.8806 77.5164 46.1217 77.2163 46.822C77.1762 46.9221 77.2363 47.2622 77.2163 47.5023C77.2163 47.5424 77.2163 47.5824 77.2163 47.6224C77.1562 48.3627 77.2563 49.1231 77.2163 49.8634C77.1762 49.8434 76.9962 49.7834 76.9762 49.7634C76.1358 49.1231 76.596 48.6629 76.4759 47.7424C76.4759 47.6424 76.2358 47.5824 76.2358 47.5824C76.2358 47.2822 76.1958 46.1217 76.2358 46.0416C76.2958 45.9016 77.0162 45.5414 77.2363 45.4214C77.2363 45.4214 77.3363 45.4214 77.6165 45.2813C77.6365 45.2813 77.7365 45.2813 78.2367 44.9812C79.5574 44.4742 80.878 43.9673 82.1986 43.4604L82.1786 43.4404Z" fill="#9A9CA0"/>
<path d="M76.3558 36.177C76.4558 38.5781 76.836 40.9593 77.2162 43.3004C77.3162 43.9607 77.3563 44.641 77.5964 45.2613C77.3362 45.4214 77.2362 45.4013 77.2162 45.4013C76.9961 45.1212 76.6959 45.8816 76.3558 44.8411C76.0156 43.8606 75.3153 36.9374 74.8751 36.197C74.615 35.7568 70.7532 34.4162 69.9728 33.996C69.6526 36.5372 69.4525 41.2994 70.7732 43.3604C70.473 43.7606 68.9123 44.8611 68.6122 44.8811C68.1319 44.8811 61.2687 41.3194 59.9881 41.1393C59.9881 40.9793 59.9881 40.7992 59.9881 40.6391C60.0281 40.0788 60.1882 39.4586 60.2282 38.8783C60.2682 38.5181 60.3083 38.1179 60.3483 37.7578C60.6084 35.2966 60.8885 32.8154 61.3487 30.3743C61.789 29.814 61.969 29.5739 62.3492 28.9336C66.9114 30.8012 71.4802 32.6687 76.0556 34.5362L76.3558 36.117V36.177Z" fill="#BDC2C8"/>
<path d="M64.1501 31.5749C64.7503 31.815 68.9323 33.4157 69.0524 33.6559C69.3125 34.2361 69.1524 41.3795 69.1124 42.8802C68.4521 42.48 64.2301 41.1194 64.09 40.6992C63.93 40.2389 64.1701 32.9355 64.1501 31.5749Z" fill="#042D39"/>
<path d="M76.3559 44.841C75.8956 44.741 74.9352 44.1007 74.7351 44.0807C74.6751 42.3398 75.9757 38.5981 72.9343 39.4985C71.1734 40.0188 72.2139 42.9001 71.7537 44.1607C71.2735 43.6405 70.7932 43.4204 70.7532 43.3603C69.4326 41.2994 69.6327 36.5371 69.9528 33.9959C70.7132 34.4161 74.575 35.7568 74.8552 36.197C75.2954 36.9173 76.0157 43.8406 76.3358 44.841H76.3559Z" fill="#042D39"/>
<path d="M74.7351 44.1007C74.9152 44.1007 75.8956 44.761 76.3558 44.861C76.716 45.9015 76.9961 45.1412 77.2163 45.4213C76.9961 45.5413 76.2758 45.9015 76.2158 46.0416C76.1758 46.1416 76.2158 47.2822 76.2158 47.5823C75.0953 47.3822 73.9947 46.2017 73.1143 45.4413C73.0143 44.781 74.1548 44.0607 74.7351 44.0807V44.1007Z" fill="#BDC2C8"/>
<path d="M77.4764 50.7238C77.4764 50.9039 77.2563 50.8239 77.2363 50.9239C77.0762 51.6843 77.3363 56.8667 77.2363 58.5475C77.2363 58.5475 77.0962 58.8876 76.8561 58.9477C76.8561 58.9076 76.5559 58.7676 76.4759 58.0472C76.3759 56.8867 76.696 52.3246 76.596 50.4037C76.8761 50.5237 77.1762 50.6037 77.4564 50.7238H77.4764Z" fill="#BDC2C8"/>
<path d="M74.735 44.1007C74.1748 44.0607 73.0142 44.7811 73.1143 45.4614C72.3739 44.8211 72.514 45.0412 71.7536 44.2008C72.2139 42.9202 71.1734 40.0588 72.9342 39.5386C75.9556 38.6382 74.675 42.3799 74.735 44.1207V44.1007Z" fill="#9A9CA0"/>
<path d="M70.7732 43.3804C70.7732 43.3804 71.2934 43.6405 71.7737 44.1808C72.534 45.0212 72.394 44.8211 73.1343 45.4414C74.0147 46.2017 75.1152 47.3823 76.2358 47.5824C76.2358 47.5824 76.4759 47.6424 76.4759 47.7424C76.5959 48.6629 76.1357 49.1031 76.9761 49.7634C74.0347 48.6229 71.0733 47.5023 68.172 46.2817C67.9119 46.1817 66.8114 45.3213 66.6913 45.8215C66.8314 46.722 67.2115 46.5619 67.9319 46.9221C69.0724 47.5023 74.4749 49.5433 76.6159 50.4037C76.716 52.3046 76.3758 56.8867 76.4959 58.0473C76.5559 58.7876 76.8561 58.9077 76.8761 58.9477C76.8761 58.9877 76.736 59.568 76.9361 59.8081C77.2562 60.2283 79.7774 60.5084 79.9775 61.0887C76.2758 60.2883 77.4363 63.7499 76.1958 67.5517C75.3954 67.2716 75.7555 67.1716 75.8956 65.971C76.0157 64.7704 76.5159 63.3898 76.1958 63.0896C74.0547 62.4493 60.8085 56.1664 59.8881 56.1664V53.4451C60.0282 49.7634 59.708 46.0817 59.8881 42.4199C59.8881 42.0398 59.9881 41.5795 60.0082 41.1794C61.2888 41.3594 68.152 44.9411 68.6322 44.9211C68.9523 44.9211 70.4931 43.8006 70.7932 43.4004L70.7732 43.3804Z" fill="#BDC2C8"/>
<path d="M68.172 46.2817L67.9319 46.9221C67.2116 46.5619 66.8314 46.722 66.6913 45.8215C66.8114 45.3213 67.9319 46.1617 68.172 46.2817Z" fill="#2E2928"/>
<path d="M60.4283 43.3603C62.2492 44.4608 64.8104 44.5209 63.8299 45.9015C62.1691 45.2812 59.2878 44.6609 60.4283 43.3603Z" fill="#2E2928"/>
<path d="M66.4912 47.6423L67.6117 48.0625C68.192 48.6228 66.1711 49.3431 66.4912 47.6423Z" fill="#5F6972"/>
<path d="M97.4257 63.4498C96.8654 63.6699 96.2451 63.95 95.6849 64.1901C95.3247 63.7099 95.6849 62.1892 95.6849 62.0892C97.0255 61.829 97.3056 61.0487 96.6853 60.1683C96.7454 60.1482 97.3657 59.708 97.4257 59.8081V63.4698V63.4498Z" fill="#80848A"/>
<path d="M96.6854 60.1682C97.3257 61.0686 97.0456 61.849 95.6849 62.0891C95.6849 62.0691 95.5649 62.1892 95.4448 61.729C95.845 61.849 95.6649 60.9286 95.5649 60.7285C95.945 60.5484 96.2852 60.3283 96.6854 60.1482V60.1682Z" fill="#414047"/>
<path d="M95.4448 61.7289C95.5849 62.1691 95.6849 62.0691 95.6849 62.0891C95.6849 62.1891 95.3247 63.7299 95.6849 64.1901C95.2847 64.3702 94.8645 64.5903 94.4443 64.7704C94.2842 62.8895 93.844 61.1487 95.3648 60.9886C95.5048 61.0886 95.3647 61.5488 95.4248 61.7289H95.4448Z" fill="#D76306"/>
<path d="M94.2042 61.4489V64.9105C94.0041 65.0105 93.8041 65.1106 93.5839 65.2106C94.0442 64.1301 93.5439 62.8495 93.704 61.609C93.9841 61.4689 94.1242 61.4889 94.2042 61.4489Z" fill="#5F6972"/>
<path d="M95.5649 60.7284C95.6649 60.9285 95.845 61.849 95.4448 61.7289C95.3848 61.5488 95.5249 61.0886 95.3848 60.9886C93.8441 61.1486 94.3043 62.8895 94.4644 64.7703C94.4644 64.7703 94.5044 64.7703 94.2243 64.9104V61.4488C94.6845 61.2287 95.1047 60.9485 95.5849 60.7284H95.5649Z" fill="#68452A"/>
<path d="M93.704 61.6089C93.5439 62.8494 94.0441 64.13 93.5839 65.2106C92.4034 65.7308 90.8026 67.0914 90.4825 65.6107C90.3624 65.0505 90.7226 63.0695 90.7226 62.9295C91.703 62.4493 92.7235 62.0691 93.704 61.6089Z" fill="#933B0C"/>
<path d="M93.3438 63.7499C92.3433 64.2101 91.3829 65.3306 91.3629 64.5103C91.3228 64.2701 91.0627 63.2297 91.1227 63.1096C91.1828 62.9695 93.1037 62.1291 93.4238 61.889C93.704 61.889 93.3838 63.4297 93.3638 63.7499H93.3438Z" fill="#F88806"/>
<path d="M93.3437 63.7499C93.2637 64.6303 94.1441 65.4707 91.5429 65.6108C91.0026 64.7303 91.3628 64.5703 91.3628 64.5102C91.3628 65.3306 92.3433 64.2101 93.3437 63.7499Z" fill="#D76306"/>
<path d="M79.9576 61.0886C80.2577 61.1487 84.5998 62.7894 84.9799 62.9695C87.141 64.05 88.9818 65.8709 90.0023 68.0719C90.1624 68.4121 90.2424 68.8123 90.3825 69.1524C91.1428 71.3134 91.0628 72.2939 91.1228 72.454C91.463 73.3944 94.1442 73.6946 95.0247 73.5345C95.665 73.4344 105.47 69.0524 106.93 68.3521C107.671 68.4521 107.27 69.3325 107.37 70.2529C107.45 70.393 107.951 69.9128 107.991 69.8928C110.292 68.8123 113.994 67.2315 115.674 66.3711C116.015 68.212 108.291 72.1338 106.69 72.8342C104.249 73.8746 98.7864 75.4154 95.665 76.4559C94.6445 76.796 93.9041 76.676 93.8041 76.716C92.9437 77.0161 90.7626 78.837 88.2815 79.2171C87.8413 79.2772 87.4211 79.1771 87.4211 79.3972C86.4606 79.0971 83.7794 79.2171 81.4783 77.4563C80.5979 76.776 79.3373 75.0752 78.8771 74.0347C78.0167 72.1538 77.6765 69.9528 77.7565 67.8518C77.4364 68.0519 76.7961 68.5121 76.4559 68.4921C76.1958 68.4921 72.5141 66.5312 71.8738 66.211C71.7537 66.151 71.8338 65.8509 71.8138 65.8509C73.5546 64.6503 73.8347 65.1105 75.5355 65.8509C75.6556 65.9109 75.7556 65.9909 75.9157 65.9509C75.7956 67.1515 75.4154 67.2715 76.2158 67.5317C77.4564 63.7299 76.2959 60.2683 79.9976 61.0686L79.9576 61.0886Z" fill="#19181C"/>
<path d="M84.7797 66.6913C85.3 67.5917 84.7797 67.4316 84.6597 67.6917C80.9179 66.8313 83.159 70.8132 84.7797 71.6536C84.7797 71.6936 85.1799 71.6736 84.5396 72.1738C83.6792 71.3134 81.5182 69.3725 80.3176 69.7327C80.2976 66.9514 82.2785 65.1906 84.7797 66.6913Z" fill="#7E7D7B"/>
<path d="M86.4005 68.6923C86.3005 68.6923 86.2605 68.8523 86.1604 68.8323C83.8393 68.2921 84.1395 70.4931 85.0399 70.7732C85.5201 70.9333 85.9003 70.9333 86.2805 70.5531C86.1404 71.7337 86.1004 72.5341 85.6602 73.6946C85.5401 73.6546 85.5601 73.6946 85.4201 73.5946C85.1199 73.3745 84.8998 72.5141 84.5597 72.1739C85.2 71.6937 84.8198 71.6937 84.7998 71.6537C84.6997 71.2535 81.3982 67.5117 84.7397 68.192C84.9398 67.9319 84.6597 67.7718 84.6797 67.6918C84.7998 67.4317 85.34 67.5917 84.7998 66.6913C85.5201 67.1315 86.0604 67.9319 86.4205 68.6923H86.4005Z" fill="#9A9CA0"/>
<path d="M84.5397 72.1738C84.8799 72.514 85.1 73.3744 85.4001 73.5945C85.12 73.8346 82.8389 72.8741 82.4787 72.674C80.7579 71.7136 80.7979 70.9332 80.6179 70.6931C80.6179 70.6931 80.5178 70.8532 80.4378 70.8332C80.3978 70.6131 80.3177 69.9728 80.3177 69.7327C81.5183 69.3725 83.6793 71.2934 84.5397 72.1738Z" fill="#9A9CA0"/>
<path d="M85.4001 73.5946C85.5602 73.6946 85.5201 73.6546 85.6402 73.6946C85.8603 73.7747 86.1404 73.7947 86.3805 73.7747C84.4797 76.4559 80.978 73.4945 80.4378 70.8533C80.5378 70.8533 80.6179 70.7132 80.6179 70.7132C80.7979 70.9533 80.7579 71.7337 82.4787 72.6942C82.8389 72.8943 85.12 73.8547 85.4001 73.6146V73.5946Z" fill="#BDC2C8"/>
<path d="M86.4005 73.7746C86.1604 73.8146 85.8803 73.7746 85.6602 73.6946C86.1004 72.534 86.1404 71.7337 86.2805 70.5531C86.3405 70.0729 87.0008 69.1324 86.1604 69.0724C86.1604 68.9924 86.1604 68.9123 86.1604 68.8323C86.2605 68.8523 86.3005 68.6722 86.4005 68.6922C87.0809 70.1729 87.481 72.2539 86.4005 73.7746Z" fill="#7E7D7B"/>
<path d="M84.6597 67.6918C84.6597 67.6918 84.9198 67.9319 84.7197 68.192C81.3782 67.5117 84.6797 71.2734 84.7798 71.6536C83.159 70.8132 80.918 66.8313 84.6597 67.6918Z" fill="#3F3937"/>
<path d="M86.1404 68.8323C86.1404 68.8323 86.1404 69.0124 86.1404 69.0724C86.1004 69.3326 86.0804 69.4726 85.7602 69.4726C84.8398 68.7523 85.28 70.0529 85.26 70.1329C85.18 70.5732 84.7598 70.4931 85.0199 70.7732C84.1195 70.4931 83.8193 68.3121 86.1404 68.8323Z" fill="#5A5955"/>
<path d="M86.2805 70.5531C85.9003 70.9333 85.5202 70.9133 85.0399 70.7732C84.7798 70.4931 85.2 70.5932 85.28 70.1329C85.8403 70.4531 86.0804 69.9329 85.7803 69.4726C86.1004 69.4726 86.1004 69.3326 86.1605 69.0724C87.0009 69.1325 86.3405 70.0729 86.2805 70.5531Z" fill="#6F6E6C"/>
<path d="M85.7802 69.4726C86.0803 69.9328 85.8402 70.433 85.28 70.1329C85.28 70.0528 84.8598 68.7723 85.7802 69.4726Z" fill="#7E7D7B"/>
<path d="M29.2937 1.22054L4.50211 12.4858L16.0075 16.4077L29.2937 19.4691V1.22054Z" fill="#81A09C"/>
<path d="M52.0844 13.5664C49.9834 13.0262 47.9225 12.3859 45.9415 11.5455C44.881 11.0853 43.8406 10.585 42.72 10.2649C41.5595 9.92471 40.2989 9.82466 39.0783 9.94472C38.6381 9.98473 38.2379 10.1848 37.8177 10.2248C37.2775 10.2849 36.7572 10.0448 36.197 10.1048C35.5567 10.1648 34.8363 10.645 34.8363 11.2853C32.8954 10.9252 30.8945 10.8051 28.8735 10.9652C28.6134 10.9652 28.3533 11.0052 28.1132 11.1053C27.773 11.2253 27.4929 11.4854 27.2528 11.7456C26.8126 12.1858 26.4324 12.8261 25.8921 13.0862C25.3319 13.3663 24.6716 13.3863 24.0713 13.7065C23.411 14.0667 22.8307 14.5469 22.1304 14.807C21.41 15.0671 20.6297 15.0671 19.8693 15.2272C19.4691 15.3072 19.0489 15.4673 18.7088 15.7474C18.3686 16.0276 18.2686 16.3277 17.8684 16.4478C17.3281 16.6078 16.5477 16.4478 15.9875 16.4478L54.5856 29.5939L73.2744 21.19C73.0943 21.27 72.454 21.0099 72.2739 20.9699C71.3134 20.7698 70.353 20.5697 69.4125 20.3496C68.312 20.0895 67.4516 19.169 66.3311 19.149C64.7904 19.129 63.2497 19.2691 61.7289 19.5692C61.1287 19.6893 60.5084 19.8294 59.9081 19.7493C59.4879 19.6893 59.0877 19.5492 58.6875 19.3891C57.9672 19.109 57.2669 18.8289 56.5465 18.5287C56.3064 18.4287 56.0463 18.3086 55.8862 18.0885C55.7862 17.9285 55.7261 17.7484 55.6861 17.5683C55.1859 15.7074 53.8853 14.1067 52.0444 13.6264L52.0844 13.5664Z" fill="#CEE297"/>
<g style="mix-blend-mode:multiply">
<path d="M25.3319 16.5478C24.3915 16.4877 24.0913 17.4682 23.2109 17.7283C22.9108 17.8084 22.2305 17.4682 22.0504 17.7283C21.7702 18.1085 22.4506 18.5287 22.7107 18.6888C23.2109 18.9889 23.9513 19.109 24.4915 19.2891L28.2733 20.5697L36.5772 23.411C41.4195 25.0518 46.2617 26.7125 51.104 28.3533L54.6056 29.5339C54.8658 29.6139 55.9263 28.9336 56.1464 28.8335L60.1282 27.0327C61.2488 26.5325 62.3893 26.0722 63.5298 25.612C64.0701 25.3919 65.0305 24.6916 65.4507 24.5915C65.1506 24.6716 64.8304 24.5115 64.6103 24.3114C63.6899 23.511 61.689 23.511 60.5484 23.6911C59.628 23.8512 57.7271 25.0718 57.0068 23.9512C56.4865 23.1509 57.407 21.6902 56.3064 21.27C54.3655 20.5296 54.0054 22.3105 52.3646 22.4105C50.6238 22.5306 49.1431 21.27 47.3422 21.5901C46.3418 21.7702 45.4814 22.4305 44.5009 22.7307C43.5204 23.0308 42.1998 22.7907 41.8997 21.8102C41.8397 21.6302 41.8397 21.4301 41.7596 21.25C41.3994 20.4296 40.2589 20.5697 39.5586 20.3095C38.6382 19.9894 38.378 19.4291 37.7577 18.7288C37.5176 18.4687 37.1975 18.2286 37.1575 17.8884C37.1174 17.6083 37.2575 17.3281 37.1575 17.068C36.9774 16.6078 36.3171 16.6878 35.8568 16.8479C34.1561 17.4482 34.2561 16.4877 33.6158 15.4272C32.8554 14.1466 32.3752 15.0471 31.6749 15.9075C30.8545 16.9079 29.9941 15.6674 28.9336 16.4077C28.4134 16.7679 28.0932 17.3281 27.753 17.8484C27.7931 17.7683 25.8722 16.6478 25.6521 16.5878C25.532 16.5478 25.432 16.5278 25.3319 16.5278V16.5478Z" fill="#CEE297"/>
</g>
<defs>
<linearGradient id="paint0_linear_1_1531" x1="59.0355" y1="38.0206" x2="86.9205" y2="36.0707" gradientUnits="userSpaceOnUse">
<stop stop-color="#5E5A5B"/>
<stop offset="1" stop-color="#3F3C3D"/>
</linearGradient>
</defs>
</svg>
