<svg width="39" height="49" viewBox="0 0 39 49" fill="none" xmlns="http://www.w3.org/2000/svg">
<g style="mix-blend-mode:multiply">
<path d="M1.82387 44.315L1.35891 44.5374C0.772661 44.8204 0.772661 45.7099 1.35891 46.2152L2.83464 47.4888C4.08801 48.5602 5.72546 48.8837 6.99904 48.3379C11.406 46.4376 20.0178 42.1721 22.3224 41.3837C25.2941 40.3932 26.1229 40.2517 27.8008 40.0899C28.8924 39.9687 32.2482 39.1398 33.9665 38.2301C35.7253 37.3002 38.1714 36.7948 38.7374 34.1466C39.2832 31.5994 34.3911 28.3447 32.2886 27.9404C30.1862 27.5361 19.9774 30.9121 19.4114 33.4997C18.8453 36.0671 15.7119 36.6937 13.468 37.7854C11.2241 38.877 1.84408 44.315 1.84408 44.315H1.82387Z" fill="#7B7972"/>
</g>
<path d="M9.52602 39.7462L6.99908 37.8055C7.46404 38.1694 7.74705 38.7758 7.74705 39.5845C7.74705 41.2219 6.59477 42.9807 5.17968 43.5467C4.47214 43.8297 3.82524 43.7489 3.36029 43.385L5.88723 45.3257C6.35218 45.6896 6.99908 45.7704 7.70662 45.4874C9.12171 44.9416 10.274 43.1626 10.274 41.5252C10.274 40.7165 9.99097 40.0899 9.52602 39.7462Z" fill="#B8C5D2"/>
<path d="M6.33191 40.474C6.23083 40.3932 6.06911 40.3729 5.90738 40.4336C5.58393 40.5549 5.32113 40.9592 5.32113 41.3433C5.32113 41.5252 5.38178 41.6667 5.48286 41.7476L7.07988 42.9605C6.9788 42.8797 6.9788 42.6775 6.9788 42.4956C6.9788 42.1317 7.20117 41.8285 7.52462 41.7072C7.68635 41.6465 7.80764 41.6061 7.90872 41.687L6.31169 40.474H6.33191Z" fill="#3D4663"/>
<path d="M7.50424 41.6667C7.82769 41.5454 8.09049 41.7476 8.09049 42.1114C8.09049 42.4753 7.82769 42.8999 7.50424 43.0211C7.18079 43.1424 6.91799 42.9403 6.91799 42.5764C6.91799 42.2125 7.18079 41.788 7.50424 41.6667Z" fill="#616B85"/>
<path d="M8.43433 35.8447C7.6257 35.218 6.51385 35.0765 5.28071 35.5617C2.83463 36.5118 0.853509 39.5643 0.873724 42.3743C0.873724 43.7692 1.37911 44.8406 2.16752 45.4673L4.51252 47.2665C3.72411 46.66 3.5826 45.4673 3.5826 44.0724C3.5826 41.2624 5.42221 38.5536 7.86829 37.5832C9.10144 37.0981 9.99092 37.0172 10.7793 37.6237L8.43433 35.8245V35.8447Z" fill="#3D4663"/>
<path d="M7.62562 37.3811C10.0717 36.4309 12.0528 37.9269 12.073 40.7571C12.073 43.567 10.1121 46.6196 7.66605 47.5697C5.21997 48.5198 3.23885 47.0239 3.21864 44.1937C3.21864 41.3837 5.17954 38.3312 7.62562 37.3811ZM7.66605 46.3365C9.5461 45.6088 10.9814 43.3042 10.9612 41.1412C10.9612 38.9781 9.50566 37.9067 7.62562 38.6547C5.74558 39.3824 4.29006 41.6465 4.31028 43.8096C4.31028 45.9727 5.70515 47.125 7.58519 46.377L7.66605 46.3365Z" fill="#616B85"/>
<path d="M7.6256 38.5333C9.50564 37.8056 11.042 38.9579 11.0622 41.1411C11.0622 43.3042 9.54608 45.6694 7.64582 46.3972C5.76577 47.1249 4.2294 45.9726 4.20918 43.7894C4.20918 41.6263 5.72534 39.2611 7.6256 38.5333ZM7.64582 45.4066C9.0609 44.8608 10.2132 43.0818 10.2132 41.4444C10.2132 39.8069 9.0609 38.9377 7.64582 39.4835C6.23073 40.0293 5.07845 41.8083 5.07845 43.4457C5.07845 45.0832 6.23073 45.9524 7.64582 45.4066Z" fill="#DFE6F0"/>
<path d="M34.7954 29.9012L32.2685 27.9606C32.7334 28.3244 33.0164 28.9309 33.0164 29.7395C33.0164 31.377 31.8642 33.1357 30.4491 33.7018C29.7415 33.9848 29.0946 33.9039 28.6297 33.54L31.1566 35.4807C31.6216 35.8446 32.2685 35.9255 32.976 35.6425C34.3911 35.0966 35.5434 33.3177 35.5434 31.6802C35.5434 30.8716 35.2604 30.2449 34.7954 29.9012Z" fill="#B8C5D2"/>
<path d="M31.6013 30.6493C31.5002 30.5685 31.3385 30.5482 31.1768 30.6089C30.8533 30.7302 30.5905 31.1345 30.5905 31.5186C30.5905 31.7005 30.6512 31.842 30.7522 31.9229L32.3493 33.1358C32.2482 33.055 32.2482 32.8528 32.2482 32.6709C32.2482 32.307 32.4706 32.0038 32.794 31.8825C32.9557 31.8218 33.077 31.7814 33.1781 31.8622L31.5811 30.6493H31.6013Z" fill="#3D4663"/>
<path d="M32.7736 31.8218C33.0971 31.7005 33.3599 31.9026 33.3599 32.2665C33.3599 32.6304 33.0971 33.0549 32.7736 33.1762C32.4502 33.2975 32.1874 33.0953 32.1874 32.7315C32.1874 32.3676 32.4502 31.9431 32.7736 31.8218Z" fill="#616B85"/>
<path d="M33.7036 26.02C32.8949 25.3933 30.2063 25.8582 28.9731 26.3232C26.5271 27.2733 26.143 29.7396 26.143 32.5496C26.143 33.9444 26.6484 35.0159 27.4368 35.6425L29.7818 37.4417C28.9934 36.8353 28.8518 35.6425 28.8518 34.2477C28.8518 31.4377 30.6915 28.7288 33.1375 27.7585C34.3707 27.2733 35.2602 27.1925 36.0486 27.7989L33.7036 25.9997V26.02Z" fill="#3D4663"/>
<path d="M32.895 27.5361C35.3411 26.586 37.3222 28.0819 37.3424 30.9121C37.3424 33.7221 35.3815 36.7746 32.9354 37.7247C30.4894 38.6749 28.5082 37.1789 28.488 34.3488C28.488 31.5388 30.4489 28.4863 32.895 27.5361ZM32.9354 36.4916C34.8155 35.7638 36.2508 33.4593 36.2306 31.2962C36.2306 29.1332 34.7751 28.0617 32.895 28.8097C31.015 29.5375 29.5595 31.8016 29.5797 33.9647C29.5797 36.1277 30.9745 37.28 32.8546 36.532L32.9354 36.4916Z" fill="#616B85"/>
<path d="M32.9152 28.6884C34.7953 27.9606 36.3316 29.1129 36.3519 31.2962C36.3519 33.4593 34.8357 35.8245 32.9354 36.5522C31.0554 37.28 29.519 36.1277 29.4988 33.9444C29.4988 31.7814 31.015 29.4162 32.9152 28.6884ZM32.9152 35.5819C34.3303 35.0361 35.4826 33.2571 35.4826 31.6196C35.4826 29.9822 34.3303 29.1129 32.9152 29.6587C31.5001 30.2046 30.3479 31.9835 30.3479 33.621C30.3479 35.2584 31.5001 36.1277 32.9152 35.5819Z" fill="#DFE6F0"/>
<g style="mix-blend-mode:multiply">
<path d="M36.0486 27.8191L33.7036 26.02C32.8949 25.3933 30.2063 25.8582 28.9731 26.3232C26.7292 27.1925 26.2036 29.3555 26.143 31.8825C26.5271 33.4593 27.1335 34.8743 27.5176 35.7032L29.3977 37.1385C29.5796 37.1991 29.8424 37.2193 30.2669 37.1991C31.0755 37.1587 33.5216 36.0873 36.655 33.9646C37.0998 32.9943 37.3626 31.9431 37.3626 30.9121C37.3626 29.5172 36.8572 28.4256 36.0688 27.8191H36.0486Z" fill="#92979C"/>
</g>
<path d="M8.55554 40.3527C8.2321 40.1101 7.78736 40.0495 7.28197 40.2314C6.29141 40.6155 5.503 41.8487 5.503 42.9605C5.503 43.5266 5.70516 43.9511 6.02861 44.1937L6.51378 44.5576C6.19033 44.315 6.04882 43.8904 6.04882 43.3244C6.04882 42.1923 6.81701 41.0198 7.80757 40.6357C8.29274 40.4336 8.71727 40.4538 9.04072 40.6964L8.55554 40.3325V40.3527Z" fill="url(#paint0_linear_1_2009)"/>
<path d="M7.76712 40.6155C8.75768 40.2314 9.54609 40.8378 9.54609 41.9699C9.54609 43.102 8.75768 44.3149 7.76712 44.699C6.77656 45.0831 5.98815 44.4766 5.98815 43.3446C5.98815 42.2125 6.77656 40.9996 7.76712 40.6155Z" fill="#DFE6F0"/>
<path d="M8.5959 41.4039L8.27245 42.7987C8.27245 42.7987 8.13094 43.0615 7.88836 43.1424C7.62556 43.2031 7.54469 43.1424 7.46383 43.0211C7.32232 42.819 7.46383 42.4146 7.48405 42.3742L7.78728 41.1006C7.78728 41.1006 7.80749 41.2017 7.90857 41.2624C8.0703 41.3837 8.31288 41.4847 8.47461 41.4847C8.53525 41.4847 8.57568 41.4847 8.5959 41.4443V41.4039Z" fill="url(#paint1_linear_1_2009)"/>
<path d="M8.49493 41.2422C8.65665 41.3635 8.65665 41.4646 8.49493 41.4646C8.3332 41.4646 8.09062 41.3635 7.92889 41.2422C7.76717 41.1209 7.76717 41.0198 7.92889 41.0198C8.09062 41.0198 8.3332 41.1209 8.49493 41.2422Z" fill="#DFE6F0"/>
<path d="M7.82792 41.2421C7.82792 41.2421 7.68642 41.1209 7.6662 41.1006L7.70663 41.505C7.80771 41.7071 8.35353 41.9093 8.49504 41.8486L8.69719 41.606C8.47482 41.5858 8.03008 41.3837 7.82792 41.2421Z" fill="#B8C5D2"/>
<path d="M8.81831 41.323L8.73745 41.6262C8.73745 41.6262 8.6768 41.7071 8.57572 41.6869C8.35335 41.6869 7.98947 41.5454 7.7671 41.3836C7.64581 41.2826 7.58516 41.2017 7.60538 41.1411L7.68624 40.8378C7.68624 40.8378 7.72667 40.9793 7.84796 41.0804C8.07033 41.2421 8.43421 41.3836 8.65658 41.3836C8.75766 41.3836 8.81831 41.3634 8.81831 41.323Z" fill="url(#paint2_linear_1_2009)"/>
<path d="M8.65665 41.1007C8.87902 41.2624 8.87902 41.4039 8.65665 41.4039C8.43428 41.4039 8.0704 41.2624 7.84803 41.1007C7.62566 40.939 7.62566 40.7975 7.84803 40.7975C8.0704 40.7975 8.43428 40.939 8.65665 41.1007Z" fill="#F0F2F5"/>
<path d="M9.10135 39.2409C8.91941 39.2409 8.61618 39.1196 8.41403 38.9781C8.31295 38.8972 8.27252 38.8366 8.27252 38.7759L7.76713 40.8581C7.76713 40.8581 7.80756 40.9794 7.90864 41.0603C8.09058 41.2018 8.39381 41.3231 8.59597 41.3231C8.67683 41.3231 8.71726 41.3029 8.73747 41.2624L9.24286 39.1802C9.24286 39.1802 9.18222 39.2409 9.10135 39.2409Z" fill="url(#paint3_linear_1_2009)"/>
<g style="mix-blend-mode:multiply">
<path d="M10.7792 37.6439L8.43417 35.8447C7.62555 35.218 6.5137 35.0765 5.28055 35.5617C2.87491 36.4916 0.934217 39.443 0.873571 42.2126C1.39917 42.718 2.22801 43.3244 3.19836 43.3446C3.86547 43.3446 4.51236 43.2234 5.11883 43.0414C5.17947 42.4552 5.46249 41.788 5.48271 41.7274L5.72529 41.9296C5.72529 41.9296 5.54335 42.3137 5.52314 42.8999C6.00831 42.718 7.14038 42.2934 7.44361 42.2328C8.31288 42.0711 10.3749 41.8083 11.1431 42.2328C11.3856 42.3541 11.608 42.4754 11.8304 42.5765C11.9921 41.97 12.0932 41.3635 12.073 40.7571C12.073 39.3622 11.5676 38.2705 10.7792 37.6641V37.6439Z" fill="#92979C"/>
</g>
<path d="M7.30221 32.0239L13.7914 36.6532C13.9329 36.7745 14.3574 37.2193 14.4787 37.381C15.6714 38.7354 15.5704 39.5441 15.5704 39.7058L10.4154 35.7436C9.68764 35.1775 8.43428 33.2368 7.74695 32.4484C7.60545 32.2867 7.46394 32.1452 7.30221 32.0441V32.0239Z" fill="#7B7972"/>
<path d="M13.7307 41.4241C13.7307 41.1006 13.7307 40.7368 13.7307 40.3729C13.7307 37.2597 11.4666 35.5616 8.75773 36.6128C6.59467 37.4618 4.69441 39.7664 4.2901 41.1006C4.24967 41.2624 4.14859 41.4241 4.0273 41.5454C3.92622 41.6465 3.86558 41.7475 3.7645 41.8082C3.80493 41.8082 3.84536 41.788 3.86558 41.7678C4.0273 41.7071 4.18902 41.6465 4.37096 41.5656C4.63377 41.4645 4.91678 41.3634 5.17958 41.2421C6.17014 40.8581 7.18092 40.6357 8.29277 40.5346C9.02053 40.474 9.44506 40.4133 10.4558 40.6559C11.3049 40.8581 11.4868 40.9591 12.1337 41.2421C12.9828 41.606 13.5084 41.8486 13.7105 41.6667C13.7105 41.6667 13.751 41.6262 13.7307 41.4039V41.4241Z" fill="#7B7972"/>
<path d="M13.852 39.726C13.7914 38.8163 13.5892 38.1896 13.4477 37.7853C13.3466 37.5023 13.1849 37.199 13.1041 37.0171C13.0434 36.916 12.9625 36.7543 12.9019 36.6532C12.72 36.3904 12.6795 36.3096 12.5178 36.0872C12.3965 35.9457 12.255 35.7638 12.1337 35.6222C12.0731 35.5414 11.972 35.4403 11.8911 35.3797C11.79 35.2786 11.6688 35.1573 11.5677 35.0764C11.4262 34.9551 11.2442 34.7934 11.1027 34.6923L10.658 34.3487C10.476 34.2072 10.2941 34.0656 10.0919 33.9444C9.2631 33.439 8.39384 33.0751 7.48414 32.974C6.57444 32.8729 5.64453 33.0549 4.71461 33.4188C4.63375 33.4592 4.29009 33.6209 4.18901 33.6816C3.88578 33.8433 3.60276 34.0252 3.33996 34.2274C2.81436 34.6317 2.32918 35.0764 1.88444 35.5616C1.05561 36.4915 0.327847 37.6034 0.0448302 38.8972C-0.137109 39.6856 0.246985 40.575 0.974744 41.1209L1.41949 41.4645C2.22811 42.0912 3.2591 42.1721 3.94642 41.7273C4.14858 41.5858 4.3103 41.3837 4.37095 41.1411C4.81569 39.8069 6.61487 37.5225 8.75772 36.6734C11.4666 35.6222 13.6701 37.2799 13.6701 40.3931C13.6701 40.9996 13.7105 41.3028 13.6903 41.6869C13.7307 41.6667 13.7307 41.6262 13.7509 41.606C13.7509 41.5656 13.7509 41.5454 13.7712 41.4645C13.7712 41.3837 13.8116 41.2017 13.8116 41.04C13.8318 40.7165 13.852 40.4942 13.852 40.3931C13.852 40.2718 13.852 40.009 13.852 39.726Z" fill="#A2A09C"/>
<g style="mix-blend-mode:multiply">
<path d="M13.4477 37.7853C13.3466 37.5023 13.1849 37.199 13.104 37.0171C13.0434 36.916 12.9625 36.7543 12.9019 36.6532C12.7199 36.3904 12.6795 36.3096 12.5178 36.0872C12.3965 35.9457 12.255 35.7638 12.1337 35.6222C12.073 35.5414 11.9719 35.4403 11.8911 35.3797C11.79 35.2786 11.6687 35.1573 11.5676 35.0764C11.4261 34.9551 11.2442 34.7934 11.1027 34.6923L10.6579 34.3487C10.476 34.2072 10.294 34.0656 10.0919 33.9444C9.26306 33.439 8.39379 33.0751 7.48409 32.974C6.57439 32.8729 5.64448 33.0549 4.71457 33.4188C4.63371 33.4592 4.29004 33.6209 4.18896 33.6816C3.88573 33.8433 3.60271 34.0252 3.33991 34.2274C3.11754 34.3891 2.89517 34.571 2.69302 34.753C2.73345 34.9551 2.81431 35.1775 2.97603 35.4201C3.60271 36.3904 5.17953 37.5225 6.87763 37.9066C7.82776 38.1087 9.76845 37.5629 11.9719 38.4726C12.7806 38.7961 13.4881 39.7462 13.8924 40.3931C13.8924 40.2718 13.8924 40.0292 13.8924 39.7664C13.8318 38.8567 13.6296 38.23 13.4881 37.8257L13.4477 37.7853Z" fill="#7B7972"/>
</g>
<path d="M29.2158 19.8542C28.5891 19.369 27.8209 19.1062 26.8708 19.1466L25.6578 19.4903L19.9773 22.1789C19.7953 22.2396 17.3695 23.6142 17.3897 25.09C17.3897 25.09 17.2886 26.687 18.4207 27.8797C20.8667 30.4875 20.2401 31.6398 17.9557 32.8123C17.6727 32.9538 13.9935 34.5913 13.67 34.7126C12.5986 35.0764 11.507 32.1856 10.759 31.5994L16.3385 38.1694C17.1067 38.7557 18.8048 39.2004 19.8762 38.8365C20.1996 38.7354 23.333 37.1384 23.6363 37.0171C26.1228 35.7031 26.2036 34.6721 24.4651 31.9228C24.3236 31.7005 24.2225 30.912 24.2225 30.912C25.4759 26.8285 26.2036 26.3636 26.3856 26.2827L33.461 24.7261C34.0877 24.5239 35.1591 24.4835 35.7858 24.9687L29.2158 19.8744V19.8542Z" fill="#C7C6C4"/>
<path d="M23.1511 28.5469C21.736 28.9916 20.5635 28.8501 19.3102 28.2841C18.7846 28.0415 18.2792 27.5361 17.8547 27.0307C17.9962 27.3137 18.1781 27.5765 18.4207 27.8393C20.0581 29.5779 20.3209 30.6695 19.6336 31.559C20.0177 32.9943 21.0285 33.7221 22.0999 34.1466C23.3735 34.6722 25.0312 34.8339 25.6578 34.2477C25.9409 33.439 25.4557 33.3986 24.4853 31.8622C24.3438 31.6399 24.2428 30.8515 24.2428 30.8515C24.2832 30.7504 24.3034 30.6493 24.3438 30.5482C23.798 29.6992 23.3937 28.4458 23.1713 28.5267L23.1511 28.5469Z" fill="#7B7972"/>
<path d="M13.4476 34.9754C12.9826 35.0563 12.8816 35.1978 12.3358 35.1573C11.8304 35.1371 11.2037 34.6115 11.042 34.3689C10.9409 34.2274 10.8196 33.9242 10.9611 33.8029C11.1228 33.6412 11.5069 33.8433 11.7091 33.8433C12.2751 33.8433 12.1538 33.9444 12.922 33.904C13.0635 33.904 13.8317 33.8635 14.1551 33.904C14.3775 33.9242 15.2064 34.2476 15.2064 34.3083C15.3681 34.8541 14.8829 34.8945 14.5999 34.9148C14.3169 34.9148 14.0136 34.8743 13.4678 34.9754H13.4476Z" fill="#616B85"/>
<path d="M15.1863 33.3985C15.1863 33.3985 15.1458 33.2773 15.1256 33.2368C14.9639 33.0549 14.5596 33.4188 14.0138 33.5198C13.6095 33.5805 13.4679 32.974 13.1445 33.1762C13.1041 33.1964 12.6795 33.5198 12.0731 33.6411C12.0326 33.6411 11.8507 33.3783 11.5273 33.3985C11.1027 33.4188 10.8804 33.6816 11.0825 34.0252C11.3453 34.47 12.0326 34.9147 12.2954 34.9349C12.6391 34.9349 12.8008 34.8743 13.4679 34.7328C13.9935 34.6317 14.317 34.6923 14.6 34.6721C14.8224 34.6721 15.1863 34.6317 15.2065 34.4093C15.2065 34.4093 15.2873 34.2072 15.2671 34.005C15.2469 33.6613 15.1863 33.4996 15.1863 33.3985Z" fill="#2F384F"/>
<path d="M10.8602 22.6641C11.1634 26.1816 12.3965 28.4053 12.9424 33.257C12.9424 33.4188 13.4882 33.7422 14.1755 33.7624C15.0852 33.7826 15.2874 33.5805 15.2671 33.4592C14.8628 29.2341 15.1256 26.9094 13.7914 23.7557L10.8804 22.6843L10.8602 22.6641Z" fill="#3D4663"/>
<path d="M17.2279 37.0576C16.9651 37.28 16.6417 37.28 16.1161 37.2396C15.5905 37.1991 15.4287 37.8258 16.0352 38.3514C16.3991 38.6749 16.8843 38.7355 17.3896 38.6749C17.6322 38.6344 18.1174 38.5536 18.6026 38.2301C18.6834 38.1695 18.9462 38.1897 19.5325 37.9673C19.8964 37.8258 20.3815 37.3811 19.8964 36.8757C19.209 36.1277 18.4611 36.0468 18.2791 36.1681C18.0972 36.2894 17.6322 36.6937 17.2481 37.0374L17.2279 37.0576Z" fill="#616B85"/>
<path d="M19.8155 36.5926C19.6133 35.9053 19.391 36.0063 19.0675 35.8648C18.7643 35.7233 17.8748 35.7435 17.7535 35.9457C17.6524 36.0872 17.612 36.2085 17.4503 36.4309C17.3492 36.5926 17.2481 36.7341 16.763 36.8756C16.6214 36.916 16.4193 36.8554 16.0352 36.9767C15.7926 37.0575 15.6107 37.5831 15.8937 37.947C16.1363 38.2503 16.4395 38.4726 16.9651 38.4524C17.2481 38.4524 17.7737 38.3716 18.5217 37.9875C18.6228 37.947 19.3303 37.7651 19.5729 37.5831C19.9368 37.3203 19.9368 37.0575 19.7953 36.6128L19.8155 36.5926Z" fill="#393F57"/>
<path d="M16.4598 26.7679C16.197 28.0819 17.3291 33.3177 17.2684 36.3501C17.2684 36.6937 17.794 36.7544 18.0771 36.7948C18.3196 36.815 18.8452 36.8352 19.3102 36.6533C19.8358 36.4511 19.7954 36.0873 19.7752 35.966C19.4517 33.6816 19.9975 30.8919 19.0676 27.9404L16.4598 26.7881V26.7679Z" fill="#332E20"/>
<path d="M34.5123 24.1803C36.6552 25.1102 38.3735 27.6574 38.5554 29.6587C38.5352 29.6587 33.3196 31.7409 30.8129 32.7315C29.984 33.0549 29.3978 33.7827 29.2158 34.6924L29.1148 35.218C28.953 36.0064 28.5285 36.5522 27.8614 36.9767C27.4167 37.2597 26.4261 37.7247 25.9207 37.9066C24.9302 38.2503 23.6162 38.4524 23.6162 38.4524C23.6162 38.4524 19.6539 40.1101 18.7038 40.3729C17.5313 40.6964 15.4289 40.2718 14.9033 38.8365C14.6809 38.2705 14.4585 37.7449 14.1149 37.381C12.8009 36.0468 12.0327 36.0468 10.5367 36.5522C10.1728 36.7139 8.93969 36.8959 7.98956 36.8554C6.67555 36.7948 5.62434 36.35 5.3009 36.2085C5.3009 36.2085 6.37232 36.4713 7.40331 35.9862C8.27258 35.5818 8.71732 34.5711 8.71732 34.5711L12.3965 26.97C12.72 26.1008 13.3669 25.4539 14.2159 25.1304L14.4181 25.0496C15.0448 24.807 15.8332 25.4741 15.7523 26.1816C15.6108 27.3339 15.3278 28.9714 15.2469 30.9323C15.0246 36.1277 16.4599 39.4228 20.0178 38.3716C20.5434 38.2099 21.8574 37.6438 22.1606 37.4821C23.131 36.9969 27.2347 35.8851 24.1822 32.5495C23.4746 31.7813 22.6256 30.7503 22.7469 29.1735C22.9086 26.869 25.6377 26.1008 26.3048 25.7975C27.538 25.2517 31.3183 23.9377 31.3183 23.9377C31.9045 23.7153 33.259 23.6345 34.5325 24.1803H34.5123Z" fill="#7B7972"/>
<path d="M22.4841 37.2799C22.4841 37.2799 23.3736 37.2799 24.3843 37.1182C26.0218 36.8756 27.6795 35.7638 27.6795 35.7638C27.6795 35.7638 26.8911 35.1169 26.2644 34.187L25.2738 34.4902L22.4841 37.2799Z" fill="#A2A09C"/>
<g style="mix-blend-mode:multiply">
<path d="M25.375 19.5307L20.3413 20.8043L19.755 21.1479C19.755 21.1479 19.654 21.1884 19.5125 21.249C19.2497 21.6533 17.8144 21.6533 17.4303 24.8069C17.4303 24.8069 17.2079 25.4943 18.0772 26.4646C18.4815 26.97 19.189 27.3743 19.7955 27.5158C20.6041 27.6978 21.9788 27.7584 22.9087 27.3541C23.9397 26.9094 25.2132 26.1007 26.5272 25.5751C29.0946 24.5644 30.7119 23.776 30.7119 23.776L27.72 20.218C27.0933 19.7329 26.3251 19.4701 25.375 19.5105V19.5307Z" fill="#C7C6C4"/>
</g>
<path d="M31.6012 21.4916C31.4193 20.7032 31.4597 19.1668 30.7926 18.6615C29.9637 18.0146 28.6295 16.9229 27.7805 16.3165C27.0123 15.7706 26.0824 15.7302 24.5055 16.9027C22.9894 18.0348 19.5527 20.4606 18.1579 21.3501C17.2482 21.9364 17.0865 22.9674 17.0865 23.4323C17.0865 23.8973 17.2684 24.6655 17.5514 25.0293C17.9153 25.4943 18.9058 26.5455 20.3614 26.7881C21.9382 27.0509 23.8991 26.8285 25.1524 26.2827C25.7993 25.9997 26.4058 25.7369 27.4166 25.3528C28.1443 25.0698 29.4179 24.6048 30.1659 24.3622C30.6106 24.2207 31.0149 23.9781 31.3384 23.6345C31.864 23.0684 31.8033 22.6035 31.6214 21.5118L31.6012 21.4916Z" fill="#3D4663"/>
<path d="M30.651 19.9553C30.651 19.4701 30.5095 18.9041 30.1052 18.5806C29.337 17.9742 28.4475 17.3071 27.8006 16.8017C26.9313 16.1346 26.2238 16.2154 24.7481 17.3071C21.6955 19.5308 19.492 20.9256 18.4408 21.5725C17.7535 21.9971 17.3694 23.0483 18.1376 23.7154C18.4408 23.9782 18.5419 24.059 18.7441 24.2006C19.5527 24.8272 20.9071 24.9485 21.7966 24.807C23.0904 24.6049 25.3545 23.7356 29.903 21.5321C30.1658 21.3906 30.4084 21.1884 30.5095 20.9054C30.6308 20.5618 30.6712 20.2383 30.6712 19.9553H30.651Z" fill="#616B85"/>
<g style="mix-blend-mode:multiply">
<path d="M23.3128 17.772C21.6147 19.0051 19.2697 20.6426 18.1578 21.3299C18.0163 21.4108 17.895 21.532 17.7939 21.6331C19.2899 22.8663 20.7252 24.2611 21.4934 24.7059C22.585 25.373 24.8289 24.625 26.0621 24.0792C27.3357 23.5132 27.5985 22.563 27.0931 21.3905C26.5473 20.0765 23.5554 17.9337 23.2926 17.7517L23.3128 17.772Z" fill="#B8C5D2"/>
</g>
<path d="M13.7914 23.8164C14.6202 23.2301 15.8938 22.9673 16.9855 22.7854C18.0771 22.6034 18.9464 22.7247 19.5528 22.4619C20.038 22.2598 20.5232 21.7544 20.8871 20.5819C20.9881 20.2786 20.8466 19.4296 20.7253 19.1061C20.5232 18.5603 18.7442 17.3676 18.3197 17.7315C17.5717 18.3986 16.3386 18.8433 14.6607 19.4498C12.4976 20.2584 10.8602 21.1479 10.8602 22.6641L13.7914 23.8366V23.8164Z" fill="#332E20"/>
<path d="M19.0272 28.1426C22.3223 24.2006 24.5662 24.807 25.3546 22.6844C25.9207 21.1682 25.4355 19.0052 25.2333 18.8232C24.8695 18.4998 21.4328 17.5699 20.3614 18.3178C19.7954 18.7222 19.6336 20.8448 19.8964 21.2693C20.8466 22.7653 16.2374 25.2316 16.4598 26.7679L19.0272 28.1426Z" fill="#332E20"/>
<path d="M7.52445 14.8206C8.55544 14.6386 11.143 13.1225 12.3762 12.0106C13.2859 11.1818 14.1551 10.0295 14.4179 9.32195C14.8425 8.12923 14.9233 7.28018 15.3479 6.71415C15.6713 6.28962 16.1969 6.47156 16.5406 6.71415C17.1268 7.13867 17.1268 7.66428 17.046 8.3516C16.9044 9.70604 16.5406 10.3732 16.3182 10.7977C15.7117 11.8489 15.0244 12.6373 13.9125 13.6481C12.4975 14.9216 8.53522 16.3367 8.31285 16.3367C8.15113 16.3367 7.88833 16.3165 7.74682 16.1346C7.56488 15.892 7.34251 15.5079 7.30208 15.2653C7.24143 15.0227 7.34251 14.8408 7.52445 14.8206Z" fill="#7B7972"/>
<path d="M15.5702 10.1306C14.9233 8.69526 15.0244 7.38126 15.4085 6.71414C15.55 6.47156 15.8128 6.33005 16.0756 6.28962C16.2778 6.2694 18.0163 6.08746 20.0581 6.93651C22.6659 8.00794 23.3734 9.38259 23.7575 10.0093C24.0001 10.4136 24.6874 12.1319 24.8896 13.9917C25.112 16.1346 25.395 18.7424 25.2535 18.9243C24.9907 19.268 23.4138 19.551 23.4138 19.551C20.3815 19.551 18.9058 18.4391 18.1982 17.7316C17.8748 17.4082 17.5311 16.1144 17.4301 14.2545C17.3492 12.4554 16.2576 11.6872 15.55 10.1306H15.5702Z" fill="#C3C2C0"/>
<path d="M25.2737 18.1359C25.2737 18.1359 25.2737 19.1264 23.6363 19.2882C22.6255 19.3892 19.7144 19.086 18.0568 17.5294C17.9557 17.5294 18.0163 17.9337 18.077 18.1359C18.077 18.1965 18.1983 18.3785 18.2387 18.4189C18.6632 18.8232 21.453 20.6224 24.6268 19.834C24.8088 19.7935 25.1726 19.6318 25.3344 19.4499C25.5365 19.2275 25.2737 18.1561 25.2737 18.1561V18.1359Z" fill="#7B7972"/>
<path d="M20.5029 7.25996C20.5635 7.5834 20.3816 7.72491 20.3412 7.76534C20.1592 7.92707 19.4517 8.2303 18.6229 7.94728C18.2185 7.80577 18.1983 7.54297 18.1983 7.54297L17.6121 6.12789L20.0379 4.67237C20.0379 4.67237 20.3007 6.28961 20.3614 6.63327C20.4018 6.87586 20.4625 7.09823 20.4827 7.25996H20.5029Z" fill="#E6BA9F"/>
<path d="M15.8736 2.32738C15.7726 2.6104 15.813 2.93384 15.9141 3.45945C15.9141 3.54031 16.0151 4.49044 16.0758 4.71281C16.3992 5.88531 16.9451 6.63328 17.1876 6.73436C17.5111 6.87587 17.8952 6.97695 18.3197 6.77479C18.5421 6.67371 19.0879 6.22897 19.3305 6.04703C19.4922 5.92574 19.5933 5.31927 19.6135 5.13734C19.6337 5.01604 19.6944 5.27884 19.8561 5.27884C19.9774 5.27884 20.0178 5.19798 20.038 5.17777C20.9073 3.6616 20.4828 1.47833 19.2496 0.952724C17.9963 0.427121 16.2173 1.37725 15.8736 2.32738Z" fill="#F4CEB8"/>
<path d="M15.914 1.49844C15.7523 1.66017 15.3076 2.30707 15.9949 2.489C16.1971 2.54965 16.5003 2.63051 17.127 2.67094C17.2078 2.67094 18.0569 2.67094 18.259 2.65073C18.2995 2.65073 18.3399 2.65073 18.3803 2.67094C18.4208 2.67094 18.441 2.71138 18.4612 2.75181C18.5825 2.91353 18.5623 3.17633 18.6027 3.21676C18.7442 3.41892 19.0272 3.45935 19.0677 3.70194C19.0677 3.74237 19.1485 4.51056 19.755 4.40948C19.6135 4.32862 19.5124 4.14668 19.5933 3.90409C19.6539 3.70194 19.7348 3.56043 19.8965 3.54021C20.1795 3.49978 20.2604 3.96474 20.2199 4.40948C20.1593 4.91487 20.2199 5.07659 20.1795 5.2181C20.6849 5.52133 21.1296 4.9553 20.8668 4.91487C20.4625 4.834 21.1296 3.19655 20.321 1.74103C19.3507 0.00249663 16.9046 0.507884 15.9545 1.49844H15.914Z" fill="#2F384F"/>
<path d="M17.7334 22.179C18.6027 21.4513 20.2604 18.8434 20.9477 17.2869C21.4531 16.1144 21.5744 14.4567 21.5946 13.082C21.6148 11.5254 21.2914 10.5753 21.6552 9.98905C21.9383 9.54431 22.5043 9.54431 22.8682 9.74647C23.4949 10.0901 23.6364 11.0605 23.697 11.8691C23.7981 13.1225 23.7374 13.9513 23.697 14.4567C23.5757 16.1548 23.414 17.2262 22.7267 18.6817C21.8776 20.4405 19.1485 23.6143 18.9261 23.6547C18.7644 23.6952 18.5016 23.5941 18.3399 23.4728C17.9558 23.2504 17.7941 23.0483 17.6728 22.7248C17.5919 22.5025 17.6324 22.2801 17.7739 22.1588L17.7334 22.179Z" fill="#7B7972"/>
<path d="M19.5529 5.01604C19.5529 5.01604 19.6944 5.82466 19.4316 6.18854C19.1486 6.55242 18.4006 6.97695 17.9761 6.99716L18.158 7.34083C18.9464 7.28018 19.6135 6.61307 19.8157 6.28962C20.1391 5.7438 20.038 4.93518 20.038 4.93518L19.5933 4.99583L19.5529 5.01604Z" fill="#2F384F"/>
<path d="M15.5096 2.85292C15.5096 2.85292 15.3883 2.97422 15.3681 3.09551C15.3276 3.25723 15.3479 3.52004 15.5904 3.74241C15.8128 3.94456 16.3788 4.10629 17.1268 4.06586C17.4301 4.06586 18.1174 3.92435 18.4004 3.84348C16.8034 2.75185 15.5298 2.85292 15.5298 2.85292H15.5096Z" fill="#801937"/>
<path d="M15.449 2.7114C15.449 2.7114 15.3681 2.85291 15.3479 2.95399C15.3075 3.11571 15.267 3.37851 15.5096 3.60088C15.732 3.80304 16.298 3.96476 17.0662 3.96476C17.2482 3.96476 17.9557 3.82325 18.3398 3.82325C16.7428 2.73162 15.449 2.7114 15.449 2.7114Z" fill="#C7C6C4"/>
<path d="M15.4694 3.01465C15.7928 3.47961 16.7227 3.62112 17.3494 3.66155C18.2793 3.68176 18.9869 3.90414 19.4518 5.07663C19.9976 5.82461 20.9882 4.57125 21.0084 3.3381C21.0691 0.871808 18.7847 -0.341123 17.2281 0.083403C16.7429 0.204696 16.1163 0.507929 15.6109 1.23569C15.1863 1.96345 15.3481 2.8125 15.4694 3.01465Z" fill="#A2A09C"/>
<g style="mix-blend-mode:multiply">
<path d="M21.0083 3.33812C21.0083 3.07531 21.0083 2.59014 20.8465 2.18583C20.9476 2.65079 20.6646 2.75187 20.3614 2.83273C19.4112 3.07531 18.8654 3.11575 18.1174 3.03488C17.4705 2.97424 16.3587 2.89337 15.6916 2.38799C15.4288 2.20605 15.4288 2.00389 15.3681 1.86238C15.2671 2.38799 15.3681 2.85294 15.449 2.99445C15.7724 3.45941 16.7024 3.60092 17.329 3.64135C18.2387 3.66156 18.9463 3.86372 19.391 4.95536C19.4314 5.05643 19.4921 5.1373 19.573 5.19794C20.139 5.58204 20.9678 4.44997 20.988 3.3179L21.0083 3.33812Z" fill="#7B7972"/>
</g>
<path d="M17.9761 7.01737C17.9761 7.01737 17.8346 7.03759 17.4303 6.81522C17.2888 6.77479 17.127 6.73436 16.9855 6.57263C16.9855 6.57263 17.1675 7.36104 18.1378 7.34082C18.3602 7.34082 17.9559 6.99716 17.9559 6.99716L17.9761 7.01737Z" fill="#2F384F"/>
<path d="M8.03002 20.5011L7.86829 20.5617C6.87773 20.9458 6.10954 21.714 5.74566 22.7248L2.77398 31.9835C2.45053 32.8528 2.6729 33.9444 3.38045 34.7733C3.68368 35.1371 4.41144 35.7032 4.95726 36.0064C6.45321 36.8352 8.13109 36.3501 8.6567 34.935L12.3561 27.1722C12.7402 26.1614 13.4882 25.3933 14.4788 25.0092L15.3076 25.1507L10.1931 21.2693C9.34402 20.6224 8.89928 20.1776 8.05023 20.5011H8.03002Z" fill="#A2A09C"/>
<path d="M10.3143 31.2153C10.3143 31.2153 9.6472 31.0737 9.06095 32.1856C8.31297 33.5603 8.59599 34.7732 8.59599 34.7732C8.59599 34.7732 9.42483 34.5306 9.84935 34.288C10.1324 34.1263 10.6782 32.8931 11.0016 32.0845C11.1431 31.7611 10.8803 31.3365 10.4962 31.2557L10.3143 31.2153Z" fill="#DFE6F0"/>
<path d="M10.092 31.4174C10.092 31.4174 9.60687 31.3163 9.14192 32.1452C8.57588 33.1761 8.79825 34.0858 8.79825 34.0858C8.79825 34.0858 9.40472 33.9039 9.72817 33.722C9.95054 33.6007 10.3346 32.6708 10.5772 32.0845C10.6783 31.8419 10.4964 31.5185 10.2133 31.4578H10.0718L10.092 31.4174Z" fill="#F0F2F5"/>
<path d="M4.45177 26.7072C4.45177 26.7072 4.51241 26.7476 4.53263 26.8285C4.57306 27.0509 4.81564 28.001 4.26983 29.1937C3.76444 30.3056 3.1984 30.6088 3.1984 30.6088C3.1984 30.6088 3.21862 29.5576 3.78465 27.9201C4.12832 26.9094 4.45177 26.7072 4.45177 26.7072Z" fill="#DFE6F0"/>
<path d="M4.39115 26.9902C4.39115 26.9902 4.43158 27.0104 4.4518 27.0711C4.49223 27.2328 4.65395 27.9404 4.26986 28.8096C3.90598 29.6182 3.48145 29.8406 3.48145 29.8406C3.48145 29.8406 3.48145 29.0724 3.90598 27.8595C4.16878 27.1115 4.39115 26.97 4.39115 26.97V26.9902Z" fill="#F0F2F5"/>
<path d="M37.3828 27.2733C36.837 26.869 36.0081 26.3838 36.0081 26.3838C34.6739 25.5954 31.8033 25.0294 30.085 25.6358C27.1133 26.687 26.0015 28.4053 25.9004 32.125C25.9004 32.4484 26.0015 33.2166 26.0419 33.4997C26.1632 34.2476 26.6281 34.9552 27.2548 35.4606L28.5284 36.4309C28.8114 36.6533 29.519 36.7746 30.2669 36.4713C33.0162 35.3797 38.9596 31.9431 39 29.9417C39 29.0725 38.4744 28.1021 37.3828 27.2733Z" fill="#A2A09C"/>
<path d="M32.3289 27.6979C34.7548 26.9903 38.7372 27.7383 38.7372 30.2248C38.7372 32.0644 33.2386 35.2585 30.7319 36.249C29.9637 36.5522 29.2359 36.249 29.054 36.0266C28.6699 35.501 28.488 34.3892 28.4678 33.5604C28.3869 31.1345 29.1955 28.466 32.3289 27.6979Z" fill="#7B7972"/>
<path d="M6.08924 15.6695C6.08924 15.6695 5.86687 15.5887 5.74558 15.6291C5.46256 15.7302 5.24019 16.0739 5.24019 16.3973C5.24019 16.559 5.30084 16.6803 5.3817 16.741L7.60541 18.4593C7.60541 18.4593 7.60541 18.2976 7.60541 18.1358C7.60541 17.8124 7.86821 17.5698 8.00972 17.4889C8.13101 17.4283 8.23209 17.307 8.31295 17.3879L6.08924 15.6695Z" fill="url(#paint4_linear_1_2009)"/>
<path d="M7.949 17.3475C8.23202 17.2464 8.45439 17.4081 8.45439 17.7316C8.45439 18.055 8.23202 18.3987 7.949 18.4998C7.66598 18.6008 7.44361 18.4391 7.44361 18.1157C7.44361 17.7922 7.66598 17.4486 7.949 17.3475Z" fill="#3D4663"/>
<g style="mix-blend-mode:multiply">
<path d="M7.4639 16.741C7.30217 16.7814 7.12023 16.9229 6.99894 17.1453C6.73614 17.59 5.3817 16.4175 5.26041 16.2153C5.26041 16.276 5.24019 16.3569 5.24019 16.4175C5.24019 16.5792 5.30084 16.7005 5.3817 16.7612L7.60541 18.4795C7.60541 18.4795 7.60541 18.3178 7.60541 18.156C7.60541 17.8326 7.86821 17.59 8.00972 17.5091C8.13101 17.4485 8.23209 17.3272 8.31295 17.4081L7.4639 16.7612V16.741Z" fill="#B8C5D2"/>
</g>
<path d="M8.31294 16.842C8.17143 16.741 7.96928 16.7005 7.76712 16.8016C7.34259 16.9633 6.99893 17.5092 6.99893 17.9943C6.99893 18.2369 7.07979 18.4189 7.2213 18.5402L7.68626 18.904C7.54475 18.803 7.68626 18.6412 7.68626 18.3986C7.68626 17.9135 8.09057 17.5092 8.31294 17.3879C8.51509 17.2868 8.6566 17.1049 8.79811 17.2261L8.33315 16.8623L8.31294 16.842Z" fill="url(#paint5_linear_1_2009)"/>
<path d="M8.23204 17.1655C8.65656 17.0038 9.00023 17.2666 9.02044 17.7518C9.02044 18.2369 8.67678 18.7827 8.25225 18.9445C7.82773 19.1062 7.48406 18.8434 7.46385 18.3582C7.46385 17.873 7.80751 17.3272 8.23204 17.1655Z" fill="#3D4663"/>
<path d="M8.79814 17.5496C8.69706 17.4687 8.53534 17.4485 8.37362 17.5091C8.05017 17.6304 7.78737 18.0347 7.78737 18.4188C7.78737 18.6008 7.84801 18.7423 7.94909 18.8232L9.56633 20.0765C9.46525 19.9957 9.56633 19.8744 9.56633 19.6924C9.56633 19.3285 9.86956 19.0253 10.0515 18.9242C10.2132 18.8434 10.3143 18.7221 10.4154 18.8029L8.79814 17.5496Z" fill="#C7C6C4"/>
<path d="M9.99095 18.7423C10.3144 18.621 10.5772 18.8231 10.5772 19.187C10.5772 19.5509 10.3144 19.9754 9.99095 20.0967C9.66751 20.218 9.40471 20.0158 9.40471 19.652C9.40471 19.2881 9.66751 18.8636 9.99095 18.7423Z" fill="#F4C421"/>
<g style="mix-blend-mode:multiply">
<path d="M8.89929 20.5819C8.75778 20.218 8.11088 21.3299 8.57584 22.1183C9.06101 22.9067 10.0718 23.7557 11.2645 24.0792C12.154 24.3218 13.2052 24.3622 13.5084 23.9174C13.8319 23.4121 9.00037 20.8447 8.89929 20.5617V20.5819Z" fill="#A2A09C"/>
</g>
<path d="M13.3263 17.7113C12.7401 17.2464 12.0123 17.1251 11.5474 17.1453C10.2738 17.1857 9.46516 17.6103 9.46516 17.6103C9.90991 17.5092 10.6983 17.8731 11.2037 18.2369C12.2549 19.0254 12.9422 20.3191 12.6794 21.9566C12.4368 23.5738 11.4665 23.1493 11.0622 23.21C11.0622 23.21 11.8708 23.6951 12.7805 23.8366C13.104 23.8973 13.5083 23.8366 13.9126 23.6951C14.3169 23.5334 15.0042 23.0482 15.1255 21.7342C15.267 20.1776 14.3573 18.4997 13.3263 17.7113Z" fill="url(#paint6_linear_1_2009)"/>
<path d="M11.1835 18.0145C12.2347 18.803 13.1444 20.4 12.9018 22.0172L12.8411 22.3205C12.4975 23.4525 11.2845 23.5334 10.294 22.9067C10.112 22.7854 9.78859 22.5428 9.78859 22.5428C8.81825 21.8151 8.41394 20.6426 8.57566 19.5914L8.69695 18.904C8.93954 17.2666 10.112 17.2261 11.1632 18.0145H11.1835Z" fill="#C7C6C4"/>
<path d="M10.9611 19.268C10.6983 19.0658 10.4153 18.9647 10.1727 18.9849L9.74821 19.0254C9.9908 19.0052 10.1525 19.1467 10.4355 19.3488C11.1027 19.8744 11.507 20.9054 11.325 21.714C11.2239 22.1992 11.0218 22.4822 10.6579 22.5024L11.0824 22.462C11.4463 22.4216 11.7293 22.1588 11.8506 21.6736C12.0326 20.865 11.6283 19.7936 10.9611 19.268Z" fill="url(#paint7_linear_1_2009)"/>
<path d="M10.5166 19.2882C11.1837 19.8138 11.588 20.8852 11.4061 21.6938C11.2241 22.5025 10.5368 22.7248 9.84947 22.1992C9.18236 21.6736 8.77805 20.6022 8.95999 19.7936C9.14193 18.985 9.82925 18.7626 10.5166 19.2882Z" fill="#DFE6F0"/>
<path d="M10.3953 19.4701C10.9209 19.8946 11.2443 20.7437 11.1028 21.3906C10.9613 22.0375 10.4155 22.2194 9.86965 21.7949C9.34405 21.3704 9.0206 20.5213 9.16211 19.8744C9.30362 19.2275 9.84943 19.0456 10.3953 19.4701Z" fill="#F0F2F5"/>
<path d="M14.2765 21.7342C14.1754 21.6533 14.0137 21.6331 13.8519 21.6938C13.5285 21.8151 13.2657 22.2194 13.2657 22.6035C13.2657 22.7854 13.3263 22.9269 13.4274 23.0078L15.0447 24.2611C14.9436 24.1803 15.0447 24.059 15.0447 23.877C15.0447 23.5132 15.3479 23.2099 15.5298 23.1089C15.6916 23.028 15.7926 22.9067 15.8937 22.9876L14.2765 21.7342Z" fill="#C7C6C4"/>
<path d="M15.4693 22.9269C15.7927 22.8056 16.0555 23.0078 16.0555 23.3716C16.0555 23.7355 15.7927 24.16 15.4693 24.2813C15.1458 24.4026 14.883 24.2005 14.883 23.8366C14.883 23.4727 15.1458 23.0482 15.4693 22.9269Z" fill="#F4C421"/>
<path d="M15.9949 22.7854C15.8534 22.6843 15.6513 22.6439 15.4491 22.745C15.0246 22.9067 14.6809 23.4525 14.6809 23.9377C14.6809 24.1803 14.7618 24.3622 14.9033 24.4835L15.3683 24.8474C15.2267 24.7463 15.3683 24.5846 15.3683 24.342C15.3683 23.8568 15.7726 23.4525 15.9949 23.3312C16.1971 23.2302 16.3386 23.0482 16.4801 23.1695L16.0151 22.8056L15.9949 22.7854Z" fill="url(#paint8_linear_1_2009)"/>
<path d="M15.914 23.1089C16.3386 22.9471 16.6822 23.2099 16.7024 23.6951C16.7024 24.1803 16.3588 24.7261 15.9342 24.8878C15.5097 25.0496 15.1661 24.7868 15.1458 24.3016C15.1458 23.8164 15.4895 23.2706 15.914 23.1089Z" fill="#616B85"/>
<path d="M16.3386 23.5334C16.3386 23.5334 16.1163 23.4525 15.995 23.493C15.712 23.5941 15.4896 23.9377 15.4896 24.2612C15.4896 24.4229 15.5502 24.5442 15.6311 24.6048L17.8548 26.3232C17.8548 26.3232 17.8548 26.1614 17.8548 25.9997C17.8548 25.6763 18.1176 25.4337 18.2591 25.3528C18.3804 25.2922 18.4815 25.1709 18.5624 25.2517L16.3386 23.5334Z" fill="url(#paint9_linear_1_2009)"/>
<g style="mix-blend-mode:multiply">
<path d="M17.8546 26.0199C17.8546 26.0199 17.8546 25.8784 17.895 25.8178H17.8546C17.8546 25.8178 16.0958 24.6655 15.9341 24.342C15.7724 24.0186 16.0554 23.6951 16.3384 23.6951C16.4395 23.6951 16.5406 23.7153 16.6214 23.7356L16.3586 23.5334C16.3586 23.5334 16.1363 23.4525 16.015 23.493C15.732 23.5941 15.5096 23.9377 15.5096 24.2612C15.5096 24.4229 15.5702 24.5442 15.6511 24.6048L17.8748 26.3232C17.8748 26.3232 17.8748 26.1614 17.8748 25.9997L17.8546 26.0199Z" fill="#B8C5D2"/>
</g>
<path d="M18.1984 25.2314C18.4814 25.1304 18.7038 25.2921 18.7038 25.6155C18.7038 25.939 18.4814 26.2827 18.1984 26.3837C17.9154 26.4848 17.693 26.3231 17.693 25.9996C17.693 25.6762 17.9154 25.3325 18.1984 25.2314Z" fill="#616B85"/>
<path d="M8.05011 16.2558L7.86817 16.2963C7.86817 16.2963 7.74688 16.3569 7.74688 16.4176C7.74688 16.5186 7.72666 16.6804 7.62559 16.8421L7.34257 16.6197C7.34257 16.6197 7.18084 16.5591 7.1202 16.5793C7.03934 16.6197 6.95847 16.6602 6.8574 16.741C6.5946 16.9634 6.55416 17.4283 6.79675 17.8124C6.79675 17.8124 6.4733 17.7922 6.31158 17.6709C5.9477 17.4081 5.72533 17.1858 5.54339 16.9432C5.40188 16.741 5.28059 16.175 5.54339 15.8515C5.82641 15.5281 6.27115 15.4068 6.7361 15.3461C6.87761 15.3461 7.18085 15.2046 7.36278 15.0631C7.44365 15.0025 7.60537 15.0429 7.70645 15.1238C7.9086 15.2855 8.21184 15.609 8.21184 16.0335C8.21184 16.1143 8.19162 16.2356 8.0299 16.2558H8.05011Z" fill="#E6BA9F"/>
<path d="M18.7038 23.7153L18.3602 24.1196C18.3602 24.1196 18.3197 24.807 18.2389 25.0091C18.1985 24.9889 18.1378 24.9485 18.0367 24.9485C17.9357 24.9485 17.8144 24.9485 17.6729 25.0091C17.3696 25.1708 17.2888 25.3528 17.3292 25.7167C17.3494 25.9592 17.4707 26.0401 17.4707 26.0401C17.4707 26.0401 17.2685 26.121 16.9855 25.9188C16.6419 25.6762 16.2375 25.373 16.0152 25.1708C15.9141 25.09 15.8332 25.0091 15.813 24.8878C15.7524 24.5846 15.7119 24.0186 16.0354 23.6345C16.096 23.5738 16.3993 23.3717 16.844 23.2099C17.1877 23.0684 17.5111 22.7652 17.6729 22.6035C17.7335 22.5428 17.8346 22.5226 17.9357 22.5833C18.158 22.6843 18.5623 22.9674 18.7038 23.3312C18.7645 23.4727 18.7645 23.5738 18.6836 23.6951L18.7038 23.7153Z" fill="#F4CEB8"/>
<path d="M16.7832 26.5051C16.7832 26.5051 16.6619 26.4647 16.6012 26.404C16.6012 26.404 16.0756 25.7773 15.5904 25.555C15.4287 25.4741 15.2872 25.4337 15.1457 25.373C14.8425 25.2719 14.5594 25.1709 14.3573 24.8878C14.1956 24.6655 14.1956 24.4835 14.236 24.3825C14.2966 24.059 14.6605 23.9377 14.7212 23.9175C14.8425 23.8771 15.0042 23.9579 15.0648 24.0994C15.1255 24.2409 15.0648 24.3825 14.9435 24.4229C14.8425 24.4431 14.7414 24.524 14.7212 24.5846C14.7212 24.5846 14.7212 24.625 14.7414 24.6453C14.8223 24.7463 14.984 24.807 15.2063 24.8878C15.3479 24.9485 15.5298 25.0091 15.6915 25.09C16.298 25.373 16.9044 26.0806 16.9247 26.121C17.0257 26.2423 17.0257 26.404 16.9247 26.4849C16.8842 26.5253 16.8034 26.5455 16.7427 26.5253L16.7832 26.5051Z" fill="#DFE6F0"/>
<path d="M14.7416 24.5846C14.7416 24.5846 14.9033 24.4431 14.964 24.4229C15.0852 24.3825 15.1459 24.241 15.0852 24.1197C15.065 24.1803 15.0246 24.2208 14.964 24.241C14.8629 24.2612 14.7618 24.3421 14.7416 24.4027C14.7012 24.524 14.7416 24.6049 14.7416 24.6049V24.5846Z" fill="#B8C5D2"/>
<path d="M17.0057 26.4242C17.0057 26.4242 17.0057 26.4242 17.0057 26.404C17.0057 26.404 17.0057 26.404 17.0057 26.3838C17.0057 26.3838 17.0057 26.3838 17.0057 26.3636V26.3231C17.0057 26.3231 17.0057 26.3029 17.0057 26.2827C17.0057 26.2827 17.0057 26.2625 17.0057 26.2423C17.0057 26.222 16.9855 26.1816 16.9451 26.1614C16.9451 26.1614 16.844 26.0401 16.6823 25.8784C16.6014 25.8784 16.5206 25.8784 16.4599 25.8784C16.3589 25.9188 16.2376 25.8784 16.1365 25.7975C15.9545 25.6358 15.7726 25.4943 15.5704 25.3932C15.4087 25.3123 15.2672 25.2719 15.1257 25.2113C14.8225 25.1102 14.5395 25.0091 14.3373 24.7261C14.2564 24.625 14.216 24.5239 14.216 24.4431C14.216 24.5644 14.216 24.7261 14.3575 24.908C14.5597 25.1708 14.8427 25.2719 15.1459 25.3932C15.2874 25.4336 15.4289 25.4943 15.5907 25.5751C15.8332 25.6964 16.0758 25.8986 16.2578 26.0805C16.4599 26.2625 16.5812 26.4242 16.6014 26.4242C16.6419 26.4848 16.7227 26.5253 16.7834 26.5253C16.844 26.5253 16.9047 26.5253 16.9653 26.4848C16.9653 26.4848 16.9855 26.4848 16.9855 26.4444L17.0057 26.4242Z" fill="#B8C5D2"/>
<path d="M17.3089 26.4849C17.3089 26.7275 17.1068 26.8892 16.8642 26.8487C16.6216 26.8083 16.4194 26.5657 16.4194 26.3231C16.4194 26.0806 16.6216 25.9188 16.8642 25.9593C17.1068 25.9997 17.3089 26.2423 17.3089 26.4849Z" fill="#DFE6F0"/>
<path d="M4.91679 16.8623C4.91679 17.1048 4.71464 17.2666 4.47205 17.2261C4.22946 17.1857 4.02731 16.9431 4.02731 16.7005C4.02731 16.458 4.22946 16.2962 4.47205 16.3367C4.71464 16.3771 4.91679 16.6197 4.91679 16.8623Z" fill="#DFE6F0"/>
<path d="M6.49367 18.7423C6.31173 18.7019 6.12979 18.621 5.96807 18.4795C5.7457 18.2571 5.68505 18.1156 5.64462 17.9539C5.6244 17.8528 5.58397 17.7518 5.22009 17.4485C4.95729 17.2261 4.71471 17.1655 4.71471 17.1453C4.5732 17.1049 4.47212 16.9633 4.49233 16.8218C4.49233 16.6803 4.63384 16.6197 4.77535 16.6601C4.81578 16.6601 5.11902 16.7814 5.48289 17.0644C5.98828 17.4687 6.06914 17.6911 6.12979 17.9135C6.15001 17.9943 6.17022 18.0348 6.2713 18.1358C6.5341 18.3784 6.95863 18.1561 6.95863 18.1561C7.07992 18.0954 7.24165 18.1561 7.32251 18.2774C7.40337 18.3986 7.38315 18.5604 7.26186 18.621C7.10014 18.7221 6.7969 18.803 6.49367 18.7423Z" fill="#DFE6F0"/>
<path d="M7.32242 18.2773C7.32242 18.338 7.28199 18.3986 7.22134 18.4391C7.05962 18.5401 6.75638 18.621 6.45315 18.5603C6.27121 18.5199 6.08927 18.4391 5.92755 18.2975C5.70518 18.0752 5.64453 17.9337 5.6041 17.7719C5.58388 17.6709 5.54345 17.5698 5.17957 17.2666C4.91677 17.0442 4.67419 16.9835 4.67419 16.9633C4.61354 16.9431 4.55289 16.9027 4.51246 16.842C4.51246 16.9835 4.59332 17.125 4.73483 17.1655C4.73483 17.1655 4.97742 17.2463 5.24022 17.4687C5.6041 17.7719 5.64453 17.873 5.66475 17.9741C5.70518 18.1358 5.76582 18.2975 5.98819 18.4997C6.14992 18.6614 6.33186 18.7423 6.5138 18.7625C6.81703 18.8231 7.12026 18.7423 7.28199 18.6412C7.40328 18.5806 7.4235 18.4188 7.34263 18.2975L7.32242 18.2773Z" fill="#B8C5D2"/>
<path d="M8.77794 17.8124C8.67687 17.7922 8.57579 17.6911 8.59601 17.5901V16.7006C8.59601 16.3569 8.47471 16.0335 8.25234 15.7302L5.62432 12.5564C5.62432 12.5564 5.54346 12.3542 5.62432 12.2936C5.70519 12.2329 5.82648 12.2532 5.88713 12.3542L8.51514 15.5281C8.81837 15.892 8.9801 16.3367 8.9801 16.7814V17.6709C8.9801 17.772 8.87902 17.8529 8.77794 17.8326V17.8124Z" fill="#DFE6F0"/>
<path d="M6.08915 10.9593C6.75626 11.4849 7.16057 12.5563 6.97863 13.3649C6.79669 14.1736 6.10937 14.3959 5.42204 13.8703C4.73471 13.3447 4.35062 12.2733 4.53256 11.4647C4.7145 10.6561 5.40182 10.4337 6.08915 10.9593Z" fill="#DFE6F0"/>
<path d="M20.2806 21.8352C20.9477 22.3609 21.352 23.4323 21.1701 24.2409C20.9881 25.0495 20.3008 25.2719 19.6135 24.7463C18.9464 24.2207 18.5421 23.1493 18.724 22.3406C18.9059 21.532 19.5933 21.3096 20.2806 21.8352Z" fill="#DFE6F0"/>
<path d="M14.8224 22.5024C14.7213 22.5024 14.6405 22.3811 14.6405 22.2801V21.5927C14.6405 21.3299 14.7617 21.1076 14.9639 20.9661C15.1661 20.8448 15.4491 20.8245 15.7119 20.9661L20.2402 23.0887C20.3412 23.1291 20.4019 23.2504 20.3817 23.3515C20.3614 23.4526 20.2402 23.493 20.1391 23.4323L15.6108 21.3097C15.4693 21.2491 15.3076 21.2491 15.2065 21.3097C15.0852 21.3704 15.0245 21.5119 15.0245 21.6534V22.3407C15.0245 22.4418 14.9437 22.5227 14.8426 22.5024H14.8224Z" fill="#DFE6F0"/>
<path d="M6.69574 13.8704C6.69574 13.8704 6.43294 13.5065 6.14992 13.4863C5.84669 13.4459 5.62431 13.8704 5.19979 13.365C5.09871 13.2639 4.77526 12.8798 4.51246 12.0914C4.57311 12.7585 4.91677 13.4863 5.44238 13.8906C5.92755 14.2747 6.41272 14.2545 6.71595 13.9108V13.8704H6.69574Z" fill="#B8C5D2"/>
<path d="M19.6135 24.7464C20.22 25.2113 20.8264 25.0698 21.0892 24.4633C20.9275 24.5846 20.8264 24.7059 20.5232 24.7261C20.0987 24.7868 19.6741 24.4431 19.6337 24.1197C19.6135 23.776 19.3305 23.1291 19.1485 22.9876C19.007 22.8865 18.8049 22.7652 18.7038 22.7248C18.7038 23.4526 19.0677 24.2814 19.6337 24.7261L19.6135 24.7464Z" fill="#B8C5D2"/>
<defs>
<linearGradient id="paint0_linear_1_2009" x1="-14.7079" y1="39.7144" x2="-11.5417" y2="35.89" gradientUnits="userSpaceOnUse">
<stop stop-color="#9AACBD"/>
<stop offset="0.1" stop-color="#AFBDCA"/>
<stop offset="0.25" stop-color="#CBD4DD"/>
<stop offset="0.41" stop-color="#DFE4EA"/>
<stop offset="0.56" stop-color="#EBEEF2"/>
<stop offset="0.72" stop-color="#F0F2F5"/>
</linearGradient>
<linearGradient id="paint1_linear_1_2009" x1="-12.3771" y1="37.9144" x2="-11.6052" y2="38.255" gradientUnits="userSpaceOnUse">
<stop offset="0.19" stop-color="#B8C5D2"/>
<stop offset="0.2" stop-color="#BAC7D3"/>
<stop offset="0.32" stop-color="#CED8E3"/>
<stop offset="0.45" stop-color="#DAE2EC"/>
<stop offset="0.57" stop-color="#DFE6F0"/>
</linearGradient>
<linearGradient id="paint2_linear_1_2009" x1="-12.1445" y1="37.0106" x2="-11.0656" y2="37.4958" gradientUnits="userSpaceOnUse">
<stop offset="0.19" stop-color="#B8C5D2"/>
<stop offset="0.21" stop-color="#BAC7D3"/>
<stop offset="0.46" stop-color="#CED8E3"/>
<stop offset="0.71" stop-color="#DAE2EC"/>
<stop offset="0.96" stop-color="#DFE6F0"/>
</linearGradient>
<linearGradient id="paint3_linear_1_2009" x1="-11.5494" y1="35.8525" x2="-10.5991" y2="36.2485" gradientUnits="userSpaceOnUse">
<stop offset="0.19" stop-color="#3D4663"/>
<stop offset="0.4" stop-color="#515A76"/>
<stop offset="0.61" stop-color="#5D6681"/>
<stop offset="0.82" stop-color="#616B85"/>
</linearGradient>
<linearGradient id="paint4_linear_1_2009" x1="-9.23348" y1="14.2352" x2="-8.34204" y2="13.169" gradientUnits="userSpaceOnUse">
<stop offset="0.42" stop-color="#3D4663"/>
<stop offset="0.44" stop-color="#3E4764"/>
<stop offset="0.89" stop-color="#616B85"/>
</linearGradient>
<linearGradient id="paint5_linear_1_2009" x1="-8.53946" y1="15.2322" x2="-7.1594" y2="13.5596" gradientUnits="userSpaceOnUse">
<stop offset="0.42" stop-color="#3D4663"/>
<stop offset="0.44" stop-color="#3E4764"/>
<stop offset="0.89" stop-color="#616B85"/>
</linearGradient>
<linearGradient id="paint6_linear_1_2009" x1="-2.32318" y1="20.2288" x2="-4.42786" y2="13.8741" gradientUnits="userSpaceOnUse">
<stop offset="0.34" stop-color="#A2A09C"/>
<stop offset="0.49" stop-color="#BBBAB7"/>
<stop offset="0.7" stop-color="#DCDCDB"/>
</linearGradient>
<linearGradient id="paint7_linear_1_2009" x1="-4.59427" y1="18.9157" x2="-5.67946" y2="15.6497" gradientUnits="userSpaceOnUse">
<stop offset="0.34" stop-color="#B8C5D2"/>
<stop offset="0.45" stop-color="#CCD5DE"/>
<stop offset="0.64" stop-color="#F0F2F5"/>
</linearGradient>
<linearGradient id="paint8_linear_1_2009" x1="-1.65325" y1="21.0197" x2="-0.253353" y2="19.3498" gradientUnits="userSpaceOnUse">
<stop stop-color="#3D4663"/>
<stop offset="0.03" stop-color="#3E4764"/>
<stop offset="0.89" stop-color="#616B85"/>
</linearGradient>
<linearGradient id="paint9_linear_1_2009" x1="-0.036569" y1="21.9077" x2="0.858163" y2="20.8222" gradientUnits="userSpaceOnUse">
<stop offset="0.42" stop-color="#3D4663"/>
<stop offset="0.44" stop-color="#3E4764"/>
<stop offset="0.89" stop-color="#616B85"/>
</linearGradient>
</defs>
</svg>
