<svg width="90" height="59" viewBox="0 0 90 59" fill="none" xmlns="http://www.w3.org/2000/svg">
<g style="mix-blend-mode:multiply" opacity="0.5">
<path d="M54.8264 58.5185L0.881886 37.3339L2.30623 31.3356L27.7639 25.0966L86.5632 49.6514L73.6438 59L54.8264 58.5185Z" fill="#637889"/>
</g>
<path d="M19.9601 23.5117L37.0121 23.6321V15.8283L19.9601 15.7079V23.5117Z" fill="white"/>
<path d="M55.348 52.2795L73.383 52.6004L85.9613 42.3692L56.2708 42.5699L0.721393 19.7202L2.56702 31.3155L55.348 52.2795Z" fill="#D3D3D3"/>
<path d="M44.9162 15.8283L56.8727 35.8493L77.1344 28.7878L63.6333 8.14483L44.9162 15.8283Z" fill="#F2F2F2"/>
<path d="M24.855 7.84392L44.9162 15.8283L63.6935 8.14484L44.0736 0L24.855 7.84392Z" fill="white"/>
<path d="M63.3323 11.495L68.2273 18.5164L53.1814 24.3743L48.8883 17.1121L63.3323 11.495Z" fill="#8D8E90"/>
<path d="M62.3895 11.8561L63.3323 11.495L68.2273 18.5164L53.1814 24.3743L52.72 23.5518L66.7427 18.0751L62.3895 11.8561Z" fill="#EFF0F0"/>
<path d="M44.9162 15.8282L56.8727 35.8493L21.2841 22.8697L21.585 17.6337L35.347 23.2509L36.009 14.5242L24.5742 9.24815L24.855 7.84387L44.9162 15.8282Z" fill="#B3B3B3"/>
<path d="M43.211 17.2927L48.808 28.1257L37.4133 23.9731L37.9148 15.2464L43.211 17.2927Z" fill="#28141B"/>
<path d="M37.4133 23.9731L37.9148 15.2464L39.1586 15.7279L38.7373 23.0904L47.9454 26.4406L48.808 28.1257L37.4133 23.9731Z" fill="#EFF0F0"/>
<path d="M55.027 38.8184L56.2708 42.5699L0.721397 19.7202L0.0995008 16.7311L55.027 38.8184Z" fill="white"/>
<path d="M56.1705 42.5899L85.9614 42.3692L89.9335 39.4202L54.8665 38.8585L56.1705 42.5899Z" fill="white"/>
<path d="M0.0995034 16.731L55.027 38.8384L89.9335 39.4202L80.9661 21.967L69.2905 16.8313L71.9787 20.9639L78.6791 23.4515L84.6574 37.1332L56.8726 35.8493L4.79382 15.9486L37.2327 2.76841L31.7159 1.2237C31.7159 1.2237 3.16886 12.3777 1.3433 13.5011C-0.522393 14.6045 0.0995034 16.731 0.0995034 16.731Z" fill="#E6E6E6"/>
<path d="M56.8726 35.8494L76.3721 27.9252L71.9988 20.964L78.6792 23.4515L84.9382 37.1935L56.8726 35.8494Z" fill="white"/>
<path d="M9.84924 18.055L27.9043 10.8129L24.5942 9.20803L24.855 7.84387L4.79382 15.9486L9.84924 18.055Z" fill="#A2A09C"/>
<path d="M9.84924 18.0551L27.9043 10.813L36.009 14.5243L35.6279 20.4825L24.9954 16.39L21.585 17.6338L21.3242 22.2479L9.84924 18.0551Z" fill="#D3D3D3"/>
</svg>
