<svg width="79" height="91" viewBox="0 0 79 91" fill="none" xmlns="http://www.w3.org/2000/svg">
<g style="mix-blend-mode:multiply" opacity="0.5">
<path d="M48.8436 89.5466L79 78.5387L28.3718 58.3476L0 71.1601L48.8436 89.5466Z" fill="#7B7972"/>
</g>
<path d="M67.4306 3.78964L7.71951 30.9985L6.11545 27.6099L65.8266 0.42111L67.4306 3.78964Z" fill="#EFEFF1"/>
<path d="M67.0497 2.98752L7.33854 30.1763L6.85732 29.1738L66.5484 1.96493L67.0497 2.98752Z" fill="#BCC1C7"/>
<path d="M11.048 24.462C12.0668 24.462 12.8927 24.1298 12.8927 23.7201C12.8927 23.3104 12.0668 22.9782 11.048 22.9782C10.0292 22.9782 9.20335 23.3104 9.20335 23.7201C9.20335 24.1298 10.0292 24.462 11.048 24.462Z" fill="#DCDCDB"/>
<path d="M67.9119 2.16548C69.3958 2.16548 70.5987 1.68072 70.5987 1.08274C70.5987 0.484759 69.3958 0 67.9119 0C66.4281 0 65.2251 0.484759 65.2251 1.08274C65.2251 1.68072 66.4281 2.16548 67.9119 2.16548Z" fill="#EFEFF1"/>
<path d="M70.5987 0.962397L70.4182 12.6921L66.6687 12.672L66.8492 1.96493L70.5987 0.962397Z" fill="#EFEFF1"/>
<path d="M12.8725 23.1586L12.6921 34.0261L8.96263 34.006L9.14308 23.1385L12.8725 23.1586Z" fill="#EFEFF1"/>
<path d="M11.9703 23.1586L11.7899 34.006H10.667L10.8475 23.1385L11.9703 23.1586Z" fill="#BCC1C7"/>
<path d="M68.0723 1.64418L67.8918 12.6921L64.1423 12.6721L64.3228 2.66676L68.0723 1.64418Z" fill="#D70835"/>
<path d="M40.8233 73.9271C40.9837 73.0249 41.0038 72.1426 40.8233 71.2604C40.6429 70.8193 40.4624 70.4183 40.4624 70.4183C39.9411 69.0548 38.9987 68.1325 38.0363 67.7315L22.5571 61.3954C22.517 61.3954 22.4769 61.3553 22.4368 61.3353H22.3766C21.5947 61.0546 21.2939 60.433 20.6924 60.8741C20.0909 61.3152 12.4716 63.982 11.8901 64.3028C11.1683 64.7038 10.1457 66.2878 10.1256 67.7515C10.0655 70.4584 11.8299 72.6038 13.4942 73.1452L28.3718 79.2406C29.3944 79.8221 31.2391 79.6015 32.2416 79.2606C32.7629 79.0802 38.8584 76.2129 39.5 75.9523C40.1416 75.6916 40.6228 75.05 40.8233 73.9472V73.9271Z" fill="#222A33"/>
<path d="M38.3971 85.6567L62.2776 76.2529L52.7735 48.9438L28.9131 57.2047L38.3971 85.6567Z" fill="#222A33"/>
<path d="M38.9987 75.0499L6.29596 61.7964V59.7512L38.9987 72.9847V75.0499Z" fill="#222A33"/>
<path d="M41.485 53.2949L15.9604 42.9086L36.1315 34.6076L61.6561 44.9939L41.485 53.2949Z" fill="#595757"/>
<path d="M19.2487 65.0647L6.29596 59.7513V33.4848L10.9477 31.3795L19.2487 34.7279V65.0647Z" fill="#C7C6C4"/>
<path d="M31.8205 70.1175L19.2487 65.0647V34.7279L31.8205 39.7807V70.1175Z" fill="#222A33"/>
<path d="M31.8205 71.6213L44.7733 66.3078V34.4672L31.8205 39.7807V71.6213Z" fill="#383F49"/>
<path d="M31.8206 39.7807L10.9478 31.3794L23.9005 26.066L44.7734 34.4672L31.8206 39.7807Z" fill="#D70835"/>
<path d="M39.0388 84.4537L30.818 58.8289L34.2066 57.5055L42.4073 83.1103L39.0388 84.4537Z" fill="#D70835"/>
<path d="M45.5152 82.0476L37.3144 56.4428L40.6829 55.0994L48.9037 80.7243L45.5152 82.0476Z" fill="#D70835"/>
<path d="M42.4073 83.1104L34.2066 57.5056L37.5751 56.1622L45.7959 81.787L42.4073 83.1104Z" fill="#414047"/>
<path d="M49.8061 80.2632L41.6053 54.6584L44.9738 53.315L53.1946 78.9399L49.8061 80.2632Z" fill="#D70835"/>
<path d="M56.3025 77.8772L48.0817 52.2523L51.4702 50.929L59.691 76.5338L56.3025 77.8772Z" fill="#D70835"/>
<path d="M53.1946 78.9398L44.9738 53.3149L48.3624 51.9916L56.5832 77.6164L53.1946 78.9398Z" fill="#414047"/>
<path d="M60.5934 76.0926L52.3725 50.4878L55.7611 49.1444L63.9819 74.7693L60.5934 76.0926Z" fill="#D70835"/>
<path d="M67.0898 73.6865L58.869 48.0817L62.2575 46.7383L70.4583 72.3631L67.0898 73.6865Z" fill="#D70835"/>
<path d="M30.2366 57.0845L61.6561 44.9939L62.3378 46.9188L30.8982 59.0094L30.2366 57.0845Z" fill="#D70835"/>
<path d="M63.9819 74.7692L55.7611 49.1443L59.1497 47.821L67.3505 73.4258L63.9819 74.7692Z" fill="#414047"/>
<path d="M32.021 76.9949C32.1814 76.1528 32.1814 75.3307 32.021 74.4885C31.8606 74.0875 31.6802 73.6865 31.6802 73.6865C31.1789 72.4033 30.3167 71.5411 29.4144 71.1601L14.8776 65.2051C14.8375 65.2051 14.7974 65.1649 14.7573 65.1649H14.6972C13.2134 64.6236 11.6896 65.3855 11.6495 67.8517C11.5893 70.3982 13.2535 72.4033 14.8175 72.9246L28.7929 78.6391C30.1764 79.401 31.6601 79.1002 32.021 77.0149V76.9949Z" fill="#414047"/>
<path d="M28.5924 68.7941L6.31603 59.7312L6.43634 44.5127L25.5247 52.4327L28.5924 68.7941Z" fill="#C7C6C4"/>
<g style="mix-blend-mode:multiply">
<path d="M10.9477 61.7363L6.29596 59.7513V33.4848L10.9477 31.3795V61.7363Z" fill="#D70835"/>
</g>
<g style="mix-blend-mode:multiply">
<path d="M28.5924 68.7942L10.9478 61.7363V58.4279L27.8906 65.3053L28.5924 68.7942Z" fill="#D70835"/>
</g>
<g style="mix-blend-mode:multiply">
<path d="M31.8206 43.0891L10.9478 34.6878V31.3795L31.8206 39.7807V43.0891Z" fill="#D70835"/>
</g>
<path d="M32.7429 40.302L43.8711 35.9911L43.831 48.7434L41.5853 49.5655" fill="#D1E0E3"/>
<path d="M38.3972 85.6568L70.4584 73.5662V72.1626L38.3972 84.2532V85.6568Z" fill="#222A33"/>
<path d="M43.871 90.4489C44.1718 91.2911 39.901 88.7446 38.337 85.3761C36.7731 82.0076 40.302 79.9423 41.1241 83.6517C41.9462 87.3611 43.3096 88.885 43.871 90.4489Z" fill="#C7C6C4"/>
<path d="M54.1169 86.7997C54.4177 87.6418 50.1469 85.0954 48.5829 81.7268C47.019 78.3583 50.5479 76.2931 51.37 80.0025C52.1921 83.7119 53.5555 85.2357 54.1169 86.7997Z" fill="#C7C6C4"/>
<path d="M64.3628 83.1504C64.6636 83.9926 60.3928 81.4461 58.8288 78.0776C57.2649 74.7091 60.7938 72.6438 61.6159 76.3532C62.438 80.0626 63.8014 81.5865 64.3628 83.1504Z" fill="#C7C6C4"/>
<path d="M74.6089 79.5012C74.9096 80.3433 70.6388 77.7969 69.0749 74.4283C67.5109 71.0598 71.0398 68.9946 71.8619 72.704C72.684 76.4134 74.0474 77.9372 74.6089 79.5012Z" fill="#C7C6C4"/>
<path d="M15.1384 66.1474C15.6196 66.1474 16.1209 66.4281 16.6021 66.4081C17.5846 67.571 17.8853 68.0322 18.3264 69.5159C18.2262 71.4408 16.5018 72.0423 14.998 70.9796C13.3539 69.8367 13.0731 66.7088 14.597 66.2076" fill="#222A33"/>
<path d="M21.2538 68.3931C21.735 68.3931 22.2363 68.6738 22.7175 68.6537C23.7 69.8167 24.0008 70.2778 24.4419 71.7616C24.3416 73.6865 22.6173 74.288 21.1135 73.2253C19.4693 72.0824 19.1886 68.9545 20.7125 68.4532" fill="#222A33"/>
<path d="M27.3693 70.6588C27.8505 70.6588 28.3518 70.9395 28.833 70.9195C29.8155 72.0824 30.1162 72.5436 30.5573 74.0273C30.4571 75.9522 28.7327 76.5537 27.2289 75.4911C25.5848 74.3482 25.304 71.2202 26.8279 70.719" fill="#222A33"/>
</svg>
