<svg width="168" height="150" viewBox="0 0 168 150" fill="none" xmlns="http://www.w3.org/2000/svg">
<g clip-path="url(#clip0_127_4494)">
<path opacity="0.2" d="M123.643 149.295L3.14845 77.2268L40.0707 56.0635L160.566 128.132L123.643 149.295Z" fill="black"/>
<path d="M152.149 127.625L156.71 130.343L157.098 89.5003L152.536 86.7819L152.149 127.625Z" fill="#B1B1B1"/>
<path d="M160.565 128.132L156.71 130.343L157.098 89.5003L160.953 87.2889L160.565 128.132Z" fill="#C6C6C6"/>
<path d="M1.58424 76.2902L6.14565 79.0311L6.24033 69.0508L1.67871 66.3324L1.58424 76.2902Z" fill="#B1B1B1"/>
<path d="M10.0006 76.8197L6.14571 79.0311L6.24039 69.0508L10.0953 66.8393L10.0006 76.8197Z" fill="#C6C6C6"/>
<path d="M2.74488 70.7486L124.782 143.753L123.738 139.315L1.67871 66.3324L2.74488 70.7486Z" fill="#B1B1B1"/>
<path d="M119.082 146.577L123.644 149.295L123.738 139.315L119.177 136.596L119.082 146.577Z" fill="#B1B1B1"/>
<path d="M155.782 123.028L126.325 139.901L126.352 137.047L155.809 120.174L155.782 123.028Z" fill="#C6C6C6"/>
<path d="M155.81 120.174L126.353 137.047L123.929 135.54L153.387 118.689L155.81 120.174Z" fill="white"/>
<path d="M127.499 147.084L123.644 149.295L123.738 139.315L127.601 136.272L127.499 147.084Z" fill="#C6C6C6"/>
<path d="M166.999 78.3316L124.782 143.753L123.738 139.315L165.933 73.8929L166.999 78.3316Z" fill="#C6C6C6"/>
<path d="M123.738 139.315L165.933 73.893L43.896 0.910843L1.67832 66.3324L123.738 139.315Z" fill="#F0F0F0"/>
<path d="M111.644 73.243L111.009 70.0897L120.45 55.9943L123.738 55.2162L127.462 57.4771L115.39 75.5041L111.666 73.2432L111.644 73.243ZM102.869 94.1787L114.94 76.1517L111.217 73.8909L107.929 74.669L98.4878 88.7644L99.1227 91.9177L102.847 94.1785L102.869 94.1787ZM127.902 57.7285L115.831 75.7555L121.516 79.204L133.587 61.177L127.902 57.7285ZM77.7433 105.27L89.815 87.2434L84.13 83.7949L72.0583 101.822L77.7433 105.27ZM96.6292 65.0976L84.5575 83.1246L90.2424 86.573L102.314 68.546L96.6292 65.0976ZM109.15 46.4004L97.0788 64.4274L102.764 67.8759L114.835 49.8489L109.15 46.4004ZM96.4951 116.598L108.567 98.5715L102.882 95.123L90.8102 113.15L96.4951 116.598ZM115.247 127.927L127.319 109.9L121.634 106.451L109.562 124.478L115.247 127.927ZM146.632 69.0564L134.56 87.0834L140.245 90.5319L152.317 72.5049L146.632 69.0564ZM134.133 87.7538L122.061 105.781L127.746 109.229L139.818 91.2022L134.133 87.7538ZM134.12 86.832L146.191 68.8049L142.467 66.5441L139.18 67.3222L129.739 81.4176L130.374 84.5709L134.097 86.8317L134.12 86.832ZM121.62 105.529L133.692 87.5023L129.968 85.2414L126.681 86.0195L117.239 100.115L117.874 103.268L121.598 105.529L121.62 105.529ZM115.381 76.4257L103.309 94.4527L108.994 97.9011L121.066 79.8741L115.381 76.4257ZM140.259 91.4762L128.187 109.503L131.911 111.764L135.198 110.986L144.639 96.8905L144.004 93.7372L140.281 91.4764L140.259 91.4762ZM121.171 106.199L117.447 103.939L114.16 104.717L104.718 118.812L105.353 121.965L109.077 124.226L121.149 106.199L121.171 106.199ZM96.6381 64.1535L108.71 46.1265L104.986 43.8656L101.699 44.6437L92.2572 58.7392L92.8921 61.8924L96.616 64.1533L96.6381 64.1535ZM109.007 98.8454L96.9358 116.872L100.66 119.133L103.947 118.355L113.388 104.26L112.753 101.107L109.03 98.8456L109.007 98.8454ZM121.507 80.1256L109.435 98.1526L113.159 100.413L116.446 99.6354L125.888 85.5399L125.253 82.3867L121.529 80.1258L121.507 80.1256ZM156.504 75.0174L152.78 72.7565L140.708 90.7835L144.432 93.0444L147.719 92.2663L157.161 78.1709L156.526 75.0176L156.504 75.0174ZM127.759 110.174L115.688 128.201L119.411 130.461L122.699 129.683L132.14 115.588L131.505 112.435L127.782 110.174L127.759 110.174ZM134.028 61.4284L121.956 79.4555L125.68 81.7163L128.968 80.9382L138.409 66.8428L137.774 63.6895L134.05 61.4287L134.028 61.4284ZM102.419 94.8489L98.6953 92.588L95.408 93.3661L85.9665 107.462L86.6014 110.615L90.3253 112.876L102.397 94.8487L102.419 94.8489ZM83.6672 83.5208L79.9434 81.2599L76.6562 82.038L67.2146 96.1335L67.8496 99.2867L71.5734 101.548L83.6451 83.5206L83.6672 83.5208ZM84.1168 82.8506L96.1885 64.8236L92.4647 62.5628L89.1774 63.3409L79.7359 77.4363L80.3708 80.5896L84.0947 82.8504L84.1168 82.8506ZM90.2558 87.4949L78.1841 105.522L81.9079 107.783L85.1952 107.005L94.6367 92.9092L94.0018 89.7559L90.278 87.4951L90.2558 87.4949ZM115.276 50.1003L103.205 68.1274L106.928 70.3882L110.216 69.6101L119.657 55.5147L119.022 52.3614L115.298 50.1006L115.276 50.1003ZM102.777 68.7977L90.7054 86.8247L94.4292 89.0856L97.7165 88.3075L107.158 74.212L106.523 71.0588L102.799 68.7979L102.777 68.7977Z" fill="#036E9D" stroke="white" stroke-width="0.117363" stroke-miterlimit="10"/>
<path d="M55.1243 39.0764L54.4894 35.9231L63.9309 21.8277L67.2181 21.0496L70.942 23.3104L58.8703 41.3374L55.1464 39.0766L55.1243 39.0764ZM46.349 60.0346L58.4207 42.0076L54.6969 39.7467L51.4096 40.5248L41.9681 54.6203L42.603 57.7735L46.3268 60.0344L46.349 60.0346ZM71.3828 23.5619L59.3111 41.5889L64.996 45.0374L77.0677 27.0104L71.3828 23.5619ZM21.2237 71.1038L33.2954 53.0768L27.6105 49.6283L15.5388 67.6553L21.2237 71.1038ZM40.1096 30.931L28.0379 48.958L33.7229 52.4064L45.7946 34.3794L40.1096 30.931ZM52.6309 12.2338L40.5592 30.2608L46.2442 33.7093L58.3159 15.6823L52.6309 12.2338ZM39.9756 82.4319L52.0473 64.4049L46.3624 60.9564L34.2907 78.9834L39.9756 82.4319ZM58.7275 93.76L70.7992 75.7329L65.1143 72.2845L53.0426 90.3115L58.7275 93.76ZM90.1125 34.8898L78.0408 52.9168L83.7258 56.3652L95.7975 38.3382L90.1125 34.8898ZM77.6134 53.5871L65.5417 71.6142L71.2266 75.0626L83.2983 57.0356L77.6134 53.5871ZM77.6222 52.6655L89.6939 34.6385L85.97 32.3777L82.6828 33.1558L73.2412 47.2512L73.8762 50.4045L77.6 52.6653L77.6222 52.6655ZM65.1009 71.3627L77.1726 53.3357L73.4487 51.0748L70.1615 51.8529L60.72 65.9484L61.3549 69.1016L65.0787 71.3625L65.1009 71.3627ZM58.8615 42.2591L46.7898 60.2861L52.4748 63.7345L64.5465 45.7075L58.8615 42.2591ZM83.739 57.3095L71.6673 75.3365L75.3911 77.5974L78.6784 76.8193L88.1199 62.7239L87.485 59.5706L83.7611 57.3097L83.739 57.3095ZM64.6513 72.0328L60.9275 69.772L57.6402 70.5501L48.1987 84.6455L48.8336 87.7988L52.5574 90.0596L64.6291 72.0326L64.6513 72.0328ZM40.1186 29.9869L52.1903 11.9599L48.4665 9.699L45.1792 10.4771L35.7377 24.5725L36.3726 27.7258L40.0964 29.9867L40.1186 29.9869ZM52.4879 64.6788L40.4162 82.7058L44.1401 84.9667L47.4273 84.1886L56.8689 70.0931L56.2339 66.9399L52.5101 64.679L52.4879 64.6788ZM64.9871 45.9814L52.9154 64.0085L56.6392 66.2693L59.9265 65.4912L69.368 51.3958L68.7331 48.2425L65.0092 45.9817L64.9871 45.9814ZM99.9843 40.8508L96.2605 38.5899L84.1888 56.6169L87.9126 58.8778L91.1999 58.0997L100.641 44.0042L100.006 40.851L99.9843 40.8508ZM71.2398 76.0069L59.1681 94.0339L62.892 96.2948L66.1792 95.5167L75.6208 81.4212L74.9858 78.268L71.262 76.0071L71.2398 76.0069ZM77.5086 27.2618L65.4369 45.2888L69.1607 47.5497L72.448 46.7716L81.8895 32.6762L81.2546 29.5229L77.5308 27.262L77.5086 27.2618ZM45.8996 60.6823L42.1758 58.4214L38.8885 59.1995L29.447 73.2949L30.0819 76.4482L33.8057 78.7091L45.8774 60.682L45.8996 60.6823ZM27.1477 49.3542L23.4239 47.0933L20.1366 47.8714L10.6951 61.9668L11.33 65.1201L15.0539 67.381L27.1256 49.354L27.1477 49.3542ZM27.5973 48.684L39.669 30.657L35.9452 28.3961L32.6579 29.1742L23.2164 43.2697L23.8513 46.4229L27.5751 48.6838L27.5973 48.684ZM33.7363 53.3282L21.6646 71.3552L25.3884 73.6161L28.6757 72.838L38.1172 58.7426L37.4823 55.5893L33.7584 53.3284L33.7363 53.3282ZM58.7567 15.9337L46.685 33.9607L50.4088 36.2216L53.6961 35.4435L63.1376 21.3481L62.5027 18.1948L58.7789 15.9339L58.7567 15.9337ZM46.2576 34.6311L34.1859 52.6581L37.9097 54.919L41.197 54.1409L50.6385 40.0454L50.0036 36.8922L46.2797 34.6313L46.2576 34.6311Z" fill="#036E9D" stroke="white" stroke-width="0.117363" stroke-miterlimit="10"/>
</g>
<defs>
<clipPath id="clip0_127_4494">
<rect width="165.427" height="147.621" fill="white" transform="translate(2.30273 0.516235) rotate(0.543567)"/>
</clipPath>
</defs>
</svg>
