<svg width="159" height="87" viewBox="0 0 159 87" fill="none" xmlns="http://www.w3.org/2000/svg">
<g clip-path="url(#clip0_1_2112)">
<path opacity="0.2" d="M117.378 86.3063L1.89285 44.2776L37.1243 32.1958L152.609 74.2244L117.378 86.3063Z" fill="black"/>
<path d="M144.559 73.9014L148.931 75.4868L149.154 51.9152L144.782 50.3298L144.559 73.9014Z" fill="#B1B1B1"/>
<path d="M152.609 74.2243L148.931 75.4868L149.154 51.9152L152.833 50.6527L152.609 74.2243Z" fill="#C6C6C6"/>
<path d="M0.393276 43.7314L4.76507 45.3298L4.81972 39.5698L0.447799 37.9845L0.393276 43.7314Z" fill="#B1B1B1"/>
<path d="M8.44349 44.0673L4.76512 45.3298L4.81977 39.5699L8.49814 38.3074L8.44349 44.0673Z" fill="#C6C6C6"/>
<path d="M1.48323 40.5372L118.446 83.1118L117.432 80.5463L0.447799 37.9845L1.48323 40.5372Z" fill="#B1B1B1"/>
<path d="M113.006 84.7209L117.378 86.3063L117.432 80.5463L113.06 78.9609L113.006 84.7209Z" fill="#B1B1B1"/>
<path d="M148.017 71.2617L119.909 80.8942L119.924 79.2466L148.033 69.6141L148.017 71.2617Z" fill="#C6C6C6"/>
<path d="M148.033 69.6141L119.924 79.2465L117.601 78.3682L145.71 68.7487L148.033 69.6141Z" fill="white"/>
<path d="M121.056 85.0437L117.378 86.3062L117.432 80.5463L121.115 78.8038L121.056 85.0437Z" fill="#C6C6C6"/>
<path d="M158.582 45.5046L118.446 83.1118L117.432 80.5463L157.547 42.939L158.582 45.5046Z" fill="#C6C6C6"/>
<path d="M117.432 80.5463L157.547 42.939L40.584 0.377365L0.447867 37.9845L117.432 80.5463Z" fill="#F0F0F0"/>
<path d="M105.63 42.3686L105.011 40.5464L113.989 32.445L117.13 32.0077L120.699 33.326L109.22 43.6871L105.651 42.3688L105.63 42.3686ZM97.3136 54.4204L108.793 44.0593L105.223 42.741L102.083 43.1783L93.1048 51.2797L93.7233 53.1019L97.2925 54.4202L97.3136 54.4204ZM121.121 33.4727L109.642 43.8338L115.091 45.8446L126.57 35.4835L121.121 33.4727ZM73.3268 60.7317L84.8058 50.3706L79.3571 48.3599L67.8781 58.721L73.3268 60.7317ZM91.2423 37.6134L79.7634 47.9745L85.2121 49.9853L96.6911 39.6241L91.2423 37.6134ZM103.149 26.8671L91.6699 37.2282L97.1186 39.239L108.598 28.8779L103.149 26.8671ZM91.2994 67.3374L102.778 56.9762L97.3297 54.9655L85.8507 65.3266L91.2994 67.3374ZM109.272 73.943L120.751 63.5819L115.302 61.5711L103.823 71.9322L109.272 73.943ZM139.073 40.0781L127.594 50.4393L133.043 52.45L144.522 42.0889L139.073 40.0781ZM127.188 50.8246L115.709 61.1857L121.157 63.1965L132.636 52.8354L127.188 50.8246ZM127.171 50.2925L138.65 39.9314L135.081 38.6131L131.941 39.0504L122.963 47.1518L123.581 48.974L127.15 50.2923L127.171 50.2925ZM115.286 61.039L126.765 50.6779L123.196 49.3596L120.055 49.7969L111.077 57.8983L111.696 59.7205L115.265 61.0388L115.286 61.039ZM109.215 44.219L97.736 54.5801L103.185 56.5909L114.664 46.2298L109.215 44.219ZM133.059 52.9951L121.58 63.3562L125.149 64.6745L128.289 64.2372L137.267 56.1358L136.649 54.3136L133.08 52.9953L133.059 52.9951ZM114.859 61.4242L111.289 60.1059L108.149 60.5432L99.1708 68.6446L99.7893 70.4668L103.358 71.7851L114.837 61.424L114.859 61.4242ZM91.2475 37.0685L102.726 26.7074L99.1574 25.3891L96.0166 25.8264L87.0387 33.9278L87.6572 35.75L91.2263 37.0683L91.2475 37.0685ZM103.201 57.1359L91.7218 67.4971L95.2909 68.8153L98.4316 68.3781L107.41 60.2767L106.791 58.4544L103.222 57.1361L103.201 57.1359ZM115.086 46.3765L103.607 56.7376L107.176 58.0559L110.317 57.6186L119.295 49.5172L118.676 47.695L115.107 46.3767L115.086 46.3765ZM148.534 43.5541L144.965 42.2358L133.486 52.5969L137.055 53.9152L140.196 53.478L149.174 45.3765L148.556 43.5543L148.534 43.5541ZM121.173 63.7416L109.694 74.1027L113.263 75.421L116.404 74.9837L125.382 66.8823L124.764 65.0601L121.195 63.7418L121.173 63.7416ZM126.993 35.6302L115.514 45.9913L119.083 47.3096L122.223 46.8723L131.201 38.7709L130.583 36.9487L127.014 35.6304L126.993 35.6302ZM96.8861 54.8056L93.317 53.4873L90.1763 53.9246L81.1984 62.026L81.8169 63.8482L85.386 65.1665L96.8649 54.8054L96.8861 54.8056ZM78.9135 48.2L75.3444 46.8817L72.2037 47.3189L63.2258 55.4204L63.8443 57.2426L67.4134 58.5609L78.8923 48.1998L78.9135 48.2ZM79.341 47.8148L90.82 37.4537L87.2509 36.1354L84.1102 36.5727L75.1322 44.6741L75.7507 46.4963L79.3198 47.8146L79.341 47.8148ZM85.2283 50.5174L73.7493 60.8785L77.3184 62.1968L80.4591 61.7595L89.4371 53.6581L88.8186 51.8358L85.2494 50.5176L85.2283 50.5174ZM109.02 29.0246L97.5411 39.3857L101.11 40.704L104.251 40.2667L113.229 32.1653L112.61 30.3431L109.041 29.0248L109.02 29.0246ZM97.1347 39.7711L85.6558 50.1322L89.2249 51.4505L92.3656 51.0132L101.344 42.9118L100.725 41.0896L97.1559 39.7713L97.1347 39.7711Z" fill="#036E9D" stroke="white" stroke-width="0.117363" stroke-miterlimit="10"/>
<path d="M51.4585 22.4455L50.84 20.6233L59.8179 12.5219L62.9586 12.0846L66.5278 13.4029L55.0488 23.764L51.4797 22.4457L51.4585 22.4455ZM43.1423 34.5103L54.6213 24.1492L51.0522 22.8309L47.9114 23.2682L38.9335 31.3696L39.552 33.1918L43.1211 34.5101L43.1423 34.5103ZM66.9502 13.5496L55.4713 23.9108L60.92 25.9215L72.3989 15.5604L66.9502 13.5496ZM19.1556 40.8087L30.6346 30.4476L25.1859 28.4368L13.7069 38.7979L19.1556 40.8087ZM37.0711 17.6903L25.5922 28.0514L31.0409 30.0622L42.5199 19.7011L37.0711 17.6903ZM48.9776 6.94402L37.4987 17.3051L42.9474 19.3159L54.4263 8.95479L48.9776 6.94402ZM37.1282 47.4143L48.6072 37.0532L43.1585 35.0424L31.6795 45.4035L37.1282 47.4143ZM55.1008 54.0199L66.5798 43.6588L61.1311 41.648L49.6521 52.0091L55.1008 54.0199ZM84.9016 20.1551L73.4227 30.5162L78.8714 32.5269L90.3504 22.1658L84.9016 20.1551ZM73.0164 30.9015L61.5374 41.2627L66.9861 43.2734L78.4651 32.9123L73.0164 30.9015ZM73.0214 30.3697L84.5004 20.0085L80.9312 18.6902L77.7905 19.1275L68.8126 27.2289L69.4311 29.0512L73.0002 30.3694L73.0214 30.3697ZM61.1149 41.1159L72.5939 30.7548L69.0248 29.4365L65.8841 29.8738L56.9061 37.9752L57.5246 39.7974L61.0937 41.1157L61.1149 41.1159ZM55.0438 24.2959L43.5648 34.657L49.0135 36.6678L60.4925 26.3067L55.0438 24.2959ZM78.8874 33.072L67.4085 43.4331L70.9776 44.7514L74.1183 44.3141L83.0962 36.2127L82.4777 34.3905L78.9086 33.0722L78.8874 33.072ZM60.6874 41.5011L57.1183 40.1828L53.9776 40.6201L44.9996 48.7215L45.6181 50.5437L49.1873 51.862L60.6662 41.5009L60.6874 41.5011ZM37.0763 17.1454L48.5553 6.78433L44.9862 5.46604L41.8454 5.90331L32.8675 14.0047L33.486 15.827L37.0551 17.1452L37.0763 17.1454ZM49.0295 37.2129L37.5506 47.574L41.1197 48.8923L44.2604 48.455L53.2383 40.3536L52.6198 38.5314L49.0507 37.2131L49.0295 37.2129ZM60.9148 26.4664L49.4359 36.8275L53.005 38.1458L56.1457 37.7085L65.1236 29.6071L64.5051 27.7849L60.936 26.4666L60.9148 26.4664ZM94.3631 23.631L90.794 22.3127L79.3151 32.6739L82.8842 33.9922L86.0249 33.5549L95.0028 25.4535L94.3843 23.6312L94.3631 23.631ZM67.0021 43.8185L55.5232 54.1796L59.0923 55.4979L62.233 55.0606L71.211 46.9592L70.5925 45.137L67.0233 43.8187L67.0021 43.8185ZM72.8214 15.7071L61.3425 26.0682L64.9116 27.3865L68.0523 26.9493L77.0302 18.8478L76.4117 17.0256L72.8426 15.7073L72.8214 15.7071ZM42.7149 34.8825L39.1458 33.5642L36.0051 34.0015L27.0272 42.1029L27.6457 43.9251L31.2148 45.2434L42.6937 34.8823L42.7149 34.8825ZM24.7423 28.2769L21.1732 26.9586L18.0325 27.3959L9.05456 35.4973L9.67306 37.3195L13.2422 38.6378L24.7211 28.2767L24.7423 28.2769ZM25.1698 27.8917L36.6488 17.5306L33.0797 16.2123L29.939 16.6496L20.961 24.751L21.5795 26.5732L25.1487 27.8915L25.1698 27.8917ZM31.0571 30.5943L19.5781 40.9554L23.1472 42.2737L26.2879 41.8364L35.2659 33.735L34.6474 31.9128L31.0783 30.5945L31.0571 30.5943ZM54.8488 9.10151L43.3699 19.4626L46.939 20.7809L50.0797 20.3436L59.0576 12.2422L58.4391 10.42L54.87 9.10171L54.8488 9.10151ZM42.9635 19.848L31.4846 30.2091L35.0537 31.5274L38.1944 31.0901L47.1723 22.9887L46.5538 21.1665L42.9847 19.8482L42.9635 19.848Z" fill="#036E9D" stroke="white" stroke-width="0.117363" stroke-miterlimit="10"/>
</g>
<defs>
<clipPath id="clip0_1_2112">
<rect width="79.0268" height="42.5591" fill="white" transform="translate(0.808237) scale(2.00184) rotate(0.543567)"/>
</clipPath>
</defs>
</svg>
