<svg width="402" height="227" viewBox="0 0 402 227" fill="none" xmlns="http://www.w3.org/2000/svg">
<g clip-path="url(#clip0_1_1989)">
<g style="mix-blend-mode:multiply" opacity="0.3">
<path d="M227.797 220.335L14.3835 135.214L32.3879 127.132L245.821 212.253L227.797 220.335Z" fill="#434343"/>
</g>
<g style="mix-blend-mode:multiply" opacity="0.3">
<path d="M257.684 209.252L44.251 124.131L62.2555 116.029L275.689 201.15L257.684 209.252Z" fill="#434343"/>
</g>
<g style="mix-blend-mode:multiply" opacity="0.3">
<path d="M287.552 198.169L74.1186 113.048L92.143 104.946L305.556 190.067L287.552 198.169Z" fill="#434343"/>
</g>
<g style="mix-blend-mode:multiply" opacity="0.3">
<path d="M317.419 187.067L104.006 101.965L122.01 93.8634L335.443 178.985L317.419 187.067Z" fill="#434343"/>
</g>
<g style="mix-blend-mode:multiply" opacity="0.3">
<path d="M347.307 175.984L133.873 90.8626L151.878 82.7606L365.311 167.882L347.307 175.984Z" fill="#434343"/>
</g>
<g style="mix-blend-mode:multiply" opacity="0.3">
<path d="M377.174 164.901L163.741 79.7799L181.765 71.6779L395.178 156.799L377.174 164.901Z" fill="#434343"/>
</g>
<g clip-path="url(#clip1_1_1989)">
<path d="M109.707 115.429V183.906" stroke="#C6C6C6" stroke-miterlimit="10"/>
<path d="M218.414 226.596V158.139" stroke="#C6C6C6" stroke-miterlimit="10"/>
<path d="M1.00025 72.7381V141.195" stroke="#C6C6C6" stroke-miterlimit="10"/>
<path d="M279.269 134.914V203.371" stroke="#C6C6C6" stroke-miterlimit="10"/>
<path d="M340.125 111.708V180.165" stroke="#C6C6C6" stroke-miterlimit="10"/>
<path d="M109.707 115.429V183.906" stroke="#C6C6C6" stroke-miterlimit="10"/>
<path d="M170.562 92.223V160.68" stroke="#C6C6C6" stroke-miterlimit="10"/>
<path d="M231.418 137.474V68.9972" stroke="#C6C6C6" stroke-miterlimit="10"/>
<path d="M401 88.482V156.939" stroke="#C6C6C6" stroke-miterlimit="10"/>
<path d="M292.293 45.7914V114.248" stroke="#C6C6C6" stroke-miterlimit="10"/>
<path d="M61.8555 49.5123V117.989" stroke="#C6C6C6" stroke-miterlimit="10"/>
<path d="M122.71 26.3065V94.7636" stroke="#C6C6C6" stroke-miterlimit="10"/>
<path d="M183.586 3.08075V71.5578" stroke="#C6C6C6" stroke-miterlimit="10"/>
<path d="M183.886 62.3155L123.011 85.5413" stroke="#C6C6C6" stroke-miterlimit="10"/>
<path d="M123.011 85.5413L62.1554 108.747" stroke="#C6C6C6" stroke-miterlimit="10"/>
<path d="M62.1555 108.747L1.30037 131.973" stroke="#C6C6C6" stroke-miterlimit="10"/>
<path d="M292.333 104.066L231.478 127.292" stroke="#C6C6C6" stroke-miterlimit="10"/>
<path d="M231.478 127.292L170.623 150.497" stroke="#C6C6C6" stroke-miterlimit="10"/>
<path d="M170.622 150.497L109.767 173.723" stroke="#C6C6C6" stroke-miterlimit="10"/>
<path d="M400.8 145.816L339.945 169.022" stroke="#C6C6C6" stroke-miterlimit="10"/>
<path d="M339.945 169.022L279.09 192.248" stroke="#C6C6C6" stroke-miterlimit="10"/>
<path d="M279.089 192.248L218.234 215.474" stroke="#C6C6C6" stroke-miterlimit="10"/>
<path d="M183.886 5.00125L123.011 28.207" stroke="#C6C6C6" stroke-miterlimit="10"/>
<path d="M123.011 28.207L62.1554 51.4328" stroke="#C6C6C6" stroke-miterlimit="10"/>
<path d="M62.1555 51.4328L1.30037 74.6386" stroke="#C6C6C6" stroke-miterlimit="10"/>
<path d="M292.333 46.7316L231.478 69.9574" stroke="#C6C6C6" stroke-miterlimit="10"/>
<path d="M231.478 69.9574L170.623 93.1832" stroke="#C6C6C6" stroke-miterlimit="10"/>
<path d="M170.622 93.1832L109.767 116.389" stroke="#C6C6C6" stroke-miterlimit="10"/>
<path d="M400.8 88.482L339.945 111.708" stroke="#C6C6C6" stroke-miterlimit="10"/>
<path d="M339.945 111.708L279.09 134.914" stroke="#C6C6C6" stroke-miterlimit="10"/>
<path d="M279.089 134.914L218.234 158.139" stroke="#C6C6C6" stroke-miterlimit="10"/>
<path d="M1.00025 130.072L218.414 215.474" stroke="#C6C6C6" stroke-miterlimit="10"/>
<path d="M61.6753 106.847L279.089 192.248" stroke="#C6C6C6" stroke-miterlimit="10"/>
<path d="M122.351 83.6408L339.765 169.022" stroke="#C6C6C6" stroke-miterlimit="10"/>
<path d="M183.026 60.415L400.44 145.816" stroke="#C6C6C6" stroke-miterlimit="10"/>
<path d="M1.00025 72.7381L218.414 158.139" stroke="#C6C6C6" stroke-miterlimit="10"/>
<path d="M61.8555 49.5123L279.27 134.914" stroke="#C6C6C6" stroke-miterlimit="10"/>
<path d="M122.71 26.3065L340.125 111.708" stroke="#C6C6C6" stroke-miterlimit="10"/>
<path d="M183.586 3.08075L401 88.482" stroke="#C6C6C6" stroke-miterlimit="10"/>
<path d="M268.247 55.1937L282.55 41.0902L177.464 0L163.141 14.1035L268.247 55.1937Z" fill="#F0F0F0"/>
<path d="M228.557 37.0692L239.039 26.5266L233.998 24.5661L223.516 35.1087L228.557 37.0692ZM245.181 43.5508L255.664 33.0082L250.622 31.0477L240.14 41.5904L245.181 43.5508ZM261.785 50.0325L272.268 39.4898L267.226 37.5293L256.744 48.072L261.785 50.0325ZM266.846 37.3693L263.546 36.089L260.665 36.5691L252.463 44.8112L253.063 46.6516L256.364 47.9319L266.846 37.3893V37.3693ZM256.064 33.1683L245.581 43.7109L248.882 44.9912L251.763 44.5111L259.965 36.269L259.365 34.4286L256.064 33.1482V33.1683ZM272.668 39.6499L262.185 50.1925L265.486 51.4728L268.367 50.9927L276.569 42.7506L275.969 40.9102L272.668 39.6299V39.6499ZM250.222 30.8877L246.921 29.6074L244.041 30.0875L235.839 38.3295L236.439 40.17L239.74 41.4503L250.222 30.9077V30.8877ZM233.618 24.4061L230.317 23.1258L227.437 23.6059L219.235 31.8479L219.835 33.6884L223.136 34.9687L233.618 24.4261V24.4061ZM239.44 26.6866L228.957 37.2293L232.258 38.5096L235.138 38.0295L243.341 29.7874L242.74 27.947L239.44 26.6666V26.6866Z" fill="#036EA3" stroke="white" stroke-width="0.1" stroke-miterlimit="10"/>
<path d="M178.485 17.5244L188.967 6.98173L183.926 5.02124L173.443 15.5639L178.485 17.5244ZM195.089 24.006L205.571 13.4633L200.53 11.5029L190.047 22.0455L195.089 24.006ZM211.713 30.4876L222.195 19.945L217.154 17.9845L206.672 28.5271L211.713 30.4876ZM216.754 17.8244L213.453 16.5441L210.573 17.0242L202.37 25.2663L202.971 27.1067L206.271 28.3871L216.754 17.8444V17.8244ZM205.971 13.6234L195.489 24.166L198.79 25.4463L201.67 24.9662L209.872 16.7242L209.272 14.8837L205.971 13.6034V13.6234ZM222.576 20.105L212.093 30.6476L215.394 31.9279L218.274 31.4478L226.476 23.2058L225.876 21.3653L222.576 20.085V20.105ZM200.13 11.3428L196.829 10.0625L193.948 10.5426L185.746 18.7847L186.346 20.6251L189.647 21.9054L200.13 11.3628V11.3428ZM183.526 4.8612L180.225 3.58088L177.344 4.061L169.142 12.3031L169.742 14.1435L173.043 15.4238L183.526 4.8812V4.8612ZM189.347 7.14176L178.865 17.6844L182.165 18.9647L185.046 18.4846L193.248 10.2425L192.648 8.40208L189.347 7.12176V7.14176Z" fill="#036EA3" stroke="white" stroke-width="0.1" stroke-miterlimit="10"/>
<path d="M238.059 66.4165L252.363 52.313L147.277 11.2228L132.973 25.3263L238.059 66.4165Z" fill="#F0F0F0"/>
<path d="M198.389 48.292L208.872 37.7494L203.831 35.7889L193.348 46.3315L198.389 48.292ZM214.994 54.7736L225.476 44.231L220.435 42.2705L209.952 52.8131L214.994 54.7736ZM231.618 61.2553L242.1 50.7126L237.059 48.7521L226.576 59.2948L231.618 61.2553ZM236.659 48.5921L233.358 47.3118L230.477 47.7919L222.275 56.0339L222.876 57.8744L226.176 59.1547L236.659 48.6121V48.5921ZM225.876 44.371L215.394 54.9137L218.694 56.194L221.575 55.7139L229.777 47.4718L229.177 45.6314L225.876 44.351V44.371ZM242.48 50.8527L231.998 61.3953L235.299 62.6756L238.179 62.1955L246.381 53.9534L245.781 52.113L242.48 50.8327V50.8527ZM220.035 42.1105L216.734 40.8302L213.853 41.3103L205.651 49.5523L206.251 51.3928L209.552 52.6731L220.035 42.1305V42.1105ZM203.431 35.6289L200.13 34.3485L197.249 34.8287L189.047 43.0707L189.647 44.9112L192.948 46.1915L203.431 35.6489V35.6289ZM209.252 37.8894L198.769 48.4321L202.07 49.7124L204.951 49.2323L213.153 40.9902L212.553 39.1497L209.252 37.8694V37.8894Z" fill="#036EA3" stroke="white" stroke-width="0.1" stroke-miterlimit="10"/>
<path d="M148.297 28.7471L158.779 18.2045L153.738 16.244L143.256 26.7867L148.297 28.7471ZM164.901 35.2288L175.384 24.6861L170.342 22.7256L159.86 33.2683L164.901 35.2288ZM181.525 41.7104L192.008 31.1677L186.966 29.2073L176.484 39.7499L181.525 41.7104ZM186.566 29.0472L183.266 27.7669L180.385 28.247L172.183 36.4891L172.783 38.3295L176.084 39.6098L186.566 29.0672V29.0472ZM175.784 24.8462L165.301 35.3888L168.602 36.6691L171.483 36.189L179.685 27.9469L179.085 26.1065L175.784 24.8262V24.8462ZM192.388 31.3278L181.905 41.8704L185.206 43.1507L188.087 42.6706L196.289 34.4286L195.689 32.5881L192.388 31.3078V31.3278ZM169.942 22.5656L166.641 21.2853L163.761 21.7654L155.559 30.0075L156.159 31.8479L159.46 33.1282L169.942 22.5856V22.5656ZM153.338 16.084L150.037 14.8037L147.157 15.2838L138.955 23.5258L139.555 25.3663L142.856 26.6466L153.338 16.104V16.084ZM159.16 18.3646L148.677 28.9072L151.978 30.1875L154.858 29.7074L163.061 21.4653L162.46 19.6249L159.16 18.3446V18.3646Z" fill="#036EA3" stroke="white" stroke-width="0.1" stroke-miterlimit="10"/>
<path d="M377.114 97.7643L391.437 83.6608L286.351 42.5706L272.028 56.6741L377.114 97.7643Z" fill="#F0F0F0"/>
<path d="M337.444 79.6398L347.927 69.0972L342.885 67.1367L332.403 77.6793L337.444 79.6398ZM354.068 86.1214L364.551 75.5788L359.51 73.6183L349.027 84.1609L354.068 86.1214ZM370.672 92.6031L381.155 82.0604L376.114 80.0999L365.631 90.6426L370.672 92.6031ZM375.714 79.9399L372.413 78.6596L369.532 79.1397L361.33 87.3818L361.93 89.2222L365.231 90.5025L375.714 79.9599V79.9399ZM364.931 75.7389L354.448 86.2815L357.749 87.5618L360.63 87.0817L368.832 78.8396L368.232 76.9992L364.931 75.7188V75.7389ZM381.555 82.2205L371.072 92.7631L374.373 94.0434L377.254 93.5633L385.456 85.3212L384.856 83.4808L381.555 82.2005V82.2205ZM359.109 73.4583L355.809 72.178L352.928 72.6581L344.726 80.9001L345.326 82.7406L348.627 84.0209L359.109 73.4783V73.4583ZM342.485 66.9767L339.184 65.6964L336.304 66.1765L328.102 74.4185L328.702 76.259L332.003 77.5393L342.485 66.9967V66.9767ZM348.327 69.2572L337.844 79.7999L341.145 81.0802L344.026 80.6001L352.228 72.358L351.628 70.5176L348.327 69.2372V69.2572Z" fill="#036EA3" stroke="white" stroke-width="0.1" stroke-miterlimit="10"/>
<path d="M287.351 60.115L297.834 49.5724L292.793 47.6119L282.31 58.1545L287.351 60.115ZM303.976 66.5966L314.458 56.054L309.417 54.0935L298.934 64.6361L303.976 66.5966ZM320.58 73.0582L331.062 62.5156L326.021 60.5551L315.538 71.0977L320.58 73.0582ZM325.621 60.3951L322.32 59.1147L319.439 59.5949L311.237 67.8369L311.838 69.6774L315.138 70.9577L325.621 60.4151V60.3951ZM314.838 56.194L304.356 66.7366L307.657 68.017L310.537 67.5368L318.739 59.2948L318.139 57.4543L314.838 56.174V56.194ZM331.462 62.6756L320.98 73.2182L324.281 74.4986L327.161 74.0184L335.363 65.7764L334.763 63.9359L331.462 62.6556V62.6756ZM309.017 53.9134L305.716 52.6331L302.835 53.1132L294.633 61.3553L295.233 63.1958L298.534 64.4761L309.017 53.9334V53.9134ZM292.393 47.4318L289.092 46.1515L286.211 46.6316L278.009 54.8737L278.609 56.7141L281.91 57.9945L292.393 47.4518V47.4318ZM298.234 49.7124L287.752 60.255L291.052 61.5353L293.933 61.0552L302.135 52.8132L301.535 50.9727L298.234 49.6924V49.7124Z" fill="#036EA3" stroke="white" stroke-width="0.1" stroke-miterlimit="10"/>
<path d="M346.926 108.987L361.25 94.8836L256.164 53.7934L241.84 67.8969L346.926 108.987Z" fill="#F0F0F0"/>
<path d="M307.257 90.8626L317.739 80.32L312.698 78.3595L302.215 88.9021L307.257 90.8626ZM323.881 97.3442L334.363 86.8016L329.322 84.8411L318.839 95.3837L323.881 97.3442ZM340.485 103.826L350.967 93.2832L345.926 91.3227L335.444 101.865L340.485 103.826ZM345.526 91.1627L342.225 89.8824L339.345 90.3625L331.143 98.6045L331.743 100.445L335.044 101.725L345.526 91.1827V91.1627ZM334.743 86.9616L324.261 97.5043L327.562 98.7846L330.442 98.3045L338.644 90.0624L338.044 88.222L334.743 86.9416V86.9616ZM351.368 93.4433L340.885 103.986L344.186 105.266L347.067 104.786L355.269 96.544L354.668 94.7036L351.368 93.4233V93.4433ZM328.922 84.6811L325.621 83.4008L322.74 83.8809L314.538 92.1229L315.139 93.9634L318.439 95.2437L328.922 84.7011V84.6811ZM312.298 78.1995L308.997 76.9191L306.116 77.3993L297.914 85.6413L298.514 87.4818L301.815 88.7621L312.298 78.2195V78.1995ZM318.139 80.48L307.657 91.0227L310.958 92.303L313.838 91.8229L322.04 83.5808L321.44 81.7403L318.139 80.46V80.48Z" fill="#036EA3" stroke="white" stroke-width="0.1" stroke-miterlimit="10"/>
<path d="M257.164 71.3177L267.647 60.7751L262.605 58.8146L252.123 69.3573L257.164 71.3177ZM273.788 77.7994L284.271 67.2567L279.23 65.2962L268.747 75.8389L273.788 77.7994ZM290.392 84.281L300.875 73.7383L295.834 71.7779L285.351 82.3205L290.392 84.281ZM295.434 71.6178L292.133 70.3375L289.252 70.8176L281.05 79.0597L281.65 80.9001L284.951 82.1805L295.434 71.6378V71.6178ZM284.651 67.4168L274.168 77.9594L277.469 79.2397L280.35 78.7596L288.552 70.5175L287.952 68.6771L284.651 67.3968V67.4168ZM301.275 73.8984L290.792 84.441L294.093 85.7213L296.974 85.2412L305.176 76.9992L304.576 75.1587L301.275 73.8784V73.8984ZM278.829 65.1362L275.529 63.8559L272.648 64.336L264.446 72.5781L265.046 74.4185L268.347 75.6988L278.829 65.1562V65.1362ZM262.205 58.6546L258.904 57.3743L256.024 57.8544L247.822 66.0964L248.422 67.9369L251.723 69.2172L262.205 58.6746V58.6546ZM268.047 60.9352L257.564 71.4778L260.865 72.7581L263.746 72.278L271.948 64.0359L271.348 62.1955L268.047 60.9152V60.9352Z" fill="#036EA3" stroke="white" stroke-width="0.1" stroke-miterlimit="10"/>
<path d="M205.931 77.7994L220.235 63.6959L115.149 22.6256L100.845 36.7291L205.931 77.7994Z" fill="#F0F0F0"/>
<path d="M166.261 59.6949L176.744 49.1522L171.703 47.1918L161.22 57.7344L166.261 59.6949ZM182.865 66.1765L193.348 55.6339L188.307 53.6734L177.824 64.216L182.865 66.1765ZM199.49 72.6581L209.972 62.1155L204.931 60.155L194.448 70.6976L199.49 72.6581ZM204.531 59.9749L201.23 58.6946L198.349 59.1747L190.147 67.4168L190.747 69.2572L194.048 70.5376L204.531 59.9949V59.9749ZM193.748 55.7739L183.266 66.3165L186.566 67.5968L189.447 67.1167L197.649 58.8747L197.049 57.0342L193.748 55.7539V55.7739ZM210.352 62.2555L199.87 72.7981L203.17 74.0784L206.051 73.5983L214.253 65.3563L213.653 63.5158L210.352 62.2355V62.2555ZM187.907 53.4933L184.606 52.213L181.725 52.6931L173.523 60.9352L174.123 62.7756L177.424 64.056L187.907 53.5133V53.4933ZM171.303 47.0117L168.002 45.7314L165.121 46.2115L156.919 54.4536L157.519 56.294L160.82 57.5743L171.303 47.0317V47.0117ZM177.124 49.2923L166.641 59.8349L169.942 61.1152L172.823 60.6351L181.025 52.393L180.425 50.5526L177.124 49.2723V49.2923Z" fill="#036EA3" stroke="white" stroke-width="0.1" stroke-miterlimit="10"/>
<path d="M116.169 40.15L126.652 29.6074L121.61 27.6469L111.128 38.1895L116.169 40.15ZM132.773 46.6316L143.256 36.089L138.214 34.1285L127.732 44.6711L132.773 46.6316ZM149.397 53.1132L159.88 42.5706L154.839 40.6101L144.356 51.1527L149.397 53.1132ZM154.438 40.4501L151.138 39.1698L148.257 39.6499L140.055 47.8919L140.655 49.7324L143.956 51.0127L154.438 40.4701V40.4501ZM143.656 36.249L133.173 46.7917L136.474 48.072L139.355 47.5919L147.557 39.3498L146.957 37.5094L143.656 36.229V36.249ZM160.26 42.7106L149.777 53.2533L153.078 54.5336L155.959 54.0535L164.161 45.8114L163.561 43.971L160.26 42.6906V42.7106ZM137.814 33.9685L134.514 32.6882L131.633 33.1683L123.431 41.4103L124.031 43.2508L127.332 44.5311L137.814 33.9885V33.9685ZM121.21 27.4869L117.909 26.2065L115.029 26.6867L106.827 34.9287L107.427 36.7692L110.728 38.0495L121.21 27.5069V27.4869ZM127.032 29.7674L116.549 40.31L119.85 41.5904L122.731 41.1102L130.933 32.8682L130.333 31.0277L127.032 29.7474V29.7674Z" fill="#036EA3" stroke="white" stroke-width="0.1" stroke-miterlimit="10"/>
<path d="M175.744 89.0222L190.067 74.9187L84.9611 33.8484L70.6575 47.9519L175.744 89.0222Z" fill="#F0F0F0"/>
<path d="M136.074 70.8977L146.556 60.355L141.515 58.3945L131.033 68.9372L136.074 70.8977ZM152.678 77.3793L163.161 66.8366L158.119 64.8762L147.637 75.4188L152.678 77.3793ZM169.302 83.8609L179.785 73.3183L174.743 71.3578L164.261 81.9004L169.302 83.8609ZM174.343 71.1977L171.043 69.9174L168.162 70.3975L159.96 78.6396L160.56 80.48L163.861 81.7604L174.343 71.2177V71.1977ZM163.561 66.9967L153.078 77.5393L156.379 78.8196L159.26 78.3395L167.462 70.0975L166.862 68.257L163.561 66.9767V66.9967ZM180.165 73.4783L169.682 84.0209L172.983 85.3012L175.864 84.8211L184.066 76.5791L183.466 74.7386L180.165 73.4583V73.4783ZM157.719 64.7161L154.418 63.4358L151.538 63.9159L143.336 72.158L143.936 73.9984L147.237 75.2788L157.719 64.7361V64.7161ZM141.115 58.2345L137.814 56.9542L134.934 57.4343L126.732 65.6764L127.332 67.5168L130.632 68.7971L141.115 58.2545V58.2345ZM146.937 60.5151L136.454 71.0577L139.755 72.338L142.635 71.8579L150.838 63.6158L150.237 61.7754L146.937 60.4951V60.5151Z" fill="#036EA3" stroke="white" stroke-width="0.1" stroke-miterlimit="10"/>
<path d="M85.9815 51.3728L96.4641 40.8302L91.4229 38.8697L80.9403 49.4123L85.9815 51.3728ZM102.586 57.8544L113.068 47.3118L108.027 45.3513L97.5444 55.8939L102.586 57.8544ZM119.21 64.336L129.692 53.7934L124.651 51.8329L114.169 62.3755L119.21 64.336ZM124.251 51.6729L120.95 50.3925L118.07 50.8727L109.867 59.1147L110.468 60.9552L113.768 62.2355L124.251 51.6929V51.6729ZM113.468 47.4518L102.986 57.9944L106.287 59.2747L109.167 58.7946L117.369 50.5526L116.769 48.7121L113.468 47.4318V47.4518ZM130.093 53.9334L119.61 64.476L122.911 65.7564L125.791 65.2762L133.993 57.0342L133.393 55.1937L130.093 53.9134V53.9334ZM107.647 45.1912L104.346 43.9109L101.465 44.391L93.2633 52.6331L93.8635 54.4735L97.1643 55.7539L107.647 45.2112V45.1912ZM91.0228 38.7096L87.722 37.4293L84.8412 37.9094L76.6392 46.1515L77.2393 47.9919L80.5402 49.2723L91.0228 38.7296V38.7096ZM96.8642 40.9702L86.3816 51.5128L89.6824 52.7931L92.5632 52.313L100.765 44.071L100.165 42.2305L96.8642 40.9502V40.9702Z" fill="#036EA3" stroke="white" stroke-width="0.1" stroke-miterlimit="10"/>
<path d="M314.798 120.39L329.122 106.286L224.036 65.1962L209.712 79.2997L314.798 120.39Z" fill="#F0F0F0"/>
<path d="M275.128 102.265L285.611 91.7228L280.57 89.7623L270.087 100.305L275.128 102.265ZM291.753 108.747L302.235 98.2044L297.194 96.244L286.711 106.787L291.753 108.747ZM308.357 115.229L318.839 104.686L313.798 102.726L303.315 113.268L308.357 115.229ZM313.398 102.566L310.097 101.285L307.216 101.765L299.014 110.007L299.615 111.848L302.915 113.128L313.398 102.586V102.566ZM302.615 98.3445L292.133 108.887L295.434 110.167L298.314 109.687L306.516 101.445L305.916 99.6048L302.615 98.3245V98.3445ZM319.239 104.826L308.757 115.369L312.058 116.649L314.938 116.169L323.14 107.927L322.54 106.086L319.239 104.806V104.826ZM296.794 96.0839L293.493 94.8036L290.612 95.2837L282.41 103.526L283.01 105.366L286.311 106.647L296.794 96.1039V96.0839ZM280.17 89.6023L276.869 88.322L273.988 88.8021L265.786 97.0441L266.386 98.8846L269.687 100.165L280.17 89.6223V89.6023ZM286.011 91.8629L275.529 102.405L278.829 103.686L281.71 103.206L289.912 94.9636L289.312 93.1232L286.011 91.8429V91.8629Z" fill="#036EA3" stroke="white" stroke-width="0.1" stroke-miterlimit="10"/>
<path d="M225.036 82.7206L235.519 72.178L230.477 70.2175L219.995 80.7601L225.036 82.7206ZM241.66 89.2022L252.143 78.6596L247.101 76.6991L236.619 87.2417L241.66 89.2022ZM258.264 95.6838L268.747 85.1412L263.706 83.1807L253.223 93.7233L258.264 95.6838ZM263.305 83.0207L260.005 81.7404L257.124 82.2205L248.922 90.4625L249.522 92.303L252.823 93.5833L263.305 83.0407V83.0207ZM252.523 78.8196L242.04 89.3623L245.341 90.6426L248.222 90.1625L256.424 81.9204L255.824 80.0799L252.523 78.7996V78.8196ZM269.147 85.3012L258.664 95.8439L261.965 97.1242L264.846 96.6441L273.048 88.402L272.448 86.5616L269.147 85.2812V85.3012ZM246.701 76.5391L243.4 75.2587L240.52 75.7389L232.318 83.9809L232.918 85.8214L236.219 87.1017L246.701 76.5591V76.5391ZM230.077 70.0575L226.776 68.7771L223.896 69.2573L215.694 77.4993L216.294 79.3398L219.595 80.6201L230.077 70.0775V70.0575ZM235.919 72.338L225.436 82.8806L228.737 84.161L231.618 83.6808L239.82 75.4388L239.219 73.5983L235.919 72.318V72.338Z" fill="#036EA3" stroke="white" stroke-width="0.1" stroke-miterlimit="10"/>
<path d="M284.631 131.613L298.934 117.509L193.848 76.419L179.525 90.5225L284.631 131.613Z" fill="#F0F0F0"/>
<path d="M244.941 113.488L255.424 102.946L250.382 100.985L239.9 111.528L244.941 113.488ZM261.565 119.97L272.048 109.427L267.007 107.467L256.524 118.009L261.565 119.97ZM278.169 126.452L288.652 115.909L283.611 113.948L273.128 124.491L278.169 126.452ZM283.231 113.788L279.93 112.508L277.049 112.988L268.847 121.23L269.447 123.071L272.748 124.351L283.231 113.808V113.788ZM272.448 109.567L261.965 120.11L265.266 121.39L268.147 120.91L276.349 112.668L275.749 110.828L272.448 109.547V109.567ZM289.052 116.049L278.569 126.592L281.87 127.872L284.751 127.392L292.953 119.15L292.353 117.309L289.052 116.029V116.049ZM266.606 107.307L263.306 106.026L260.425 106.507L252.223 114.749L252.823 116.589L256.124 117.869L266.606 107.327V107.307ZM250.002 100.825L246.701 99.5448L243.821 100.025L235.619 108.267L236.219 110.107L239.52 111.388L250.002 100.845V100.825ZM255.824 103.086L245.341 113.628L248.642 114.909L251.523 114.429L259.725 106.186L259.125 104.346L255.824 103.066V103.086Z" fill="#036EA3" stroke="white" stroke-width="0.1" stroke-miterlimit="10"/>
<path d="M194.849 93.9434L205.331 83.4008L200.29 81.4403L189.807 91.9829L194.849 93.9434ZM211.473 100.425L221.955 89.8824L216.914 87.9219L206.431 98.4645L211.473 100.425ZM228.077 106.907L238.559 96.364L233.518 94.4035L223.036 104.946L228.077 106.907ZM233.138 94.2435L229.837 92.9632L226.956 93.4433L218.754 101.685L219.355 103.526L222.655 104.806L233.138 94.2635V94.2435ZM222.355 90.0424L211.873 100.585L215.174 101.865L218.054 101.385L226.256 93.1432L225.656 91.3027L222.355 90.0224V90.0424ZM238.959 96.524L228.477 107.067L231.778 108.347L234.658 107.867L242.86 99.6248L242.26 97.7844L238.959 96.504V96.524ZM216.514 87.7619L213.213 86.4815L210.332 86.9617L202.13 95.2037L202.73 97.0442L206.031 98.3245L216.514 87.7819V87.7619ZM199.91 81.2802L196.609 79.9999L193.728 80.48L185.526 88.7221L186.126 90.5626L189.427 91.8429L199.91 81.3003V81.2802ZM205.731 83.5608L195.249 94.1034L198.549 95.3838L201.43 94.9036L209.632 86.6616L209.032 84.8211L205.731 83.5408V83.5608Z" fill="#036EA3" stroke="white" stroke-width="0.1" stroke-miterlimit="10"/>
<path d="M143.616 100.425L157.939 86.3215L52.8532 45.2313L38.5296 59.3348L143.616 100.425Z" fill="#F0F0F0"/>
<path d="M103.946 82.3005L114.429 71.7579L109.387 69.7974L98.9047 80.34L103.946 82.3005ZM120.55 88.7821L131.033 78.2395L125.991 76.279L115.509 86.8216L120.55 88.7821ZM137.174 95.2637L147.657 84.7211L142.616 82.7606L132.133 93.3032L137.174 95.2637ZM142.215 82.6006L138.915 81.3203L136.034 81.8004L127.832 90.0424L128.432 91.8829L131.733 93.1632L142.215 82.6206V82.6006ZM131.433 78.3995L120.95 88.9421L124.251 90.2225L127.132 89.7423L135.334 81.5003L134.734 79.6598L131.433 78.3795V78.3995ZM148.037 84.8811L137.554 95.4238L140.855 96.7041L143.736 96.224L151.938 87.9819L151.338 86.1415L148.037 84.8611V84.8811ZM125.591 76.119L122.291 74.8386L119.41 75.3188L111.208 83.5608L111.808 85.4013L115.109 86.6816L125.591 76.139V76.119ZM108.987 69.6373L105.686 68.357L102.806 68.8371L94.6036 77.0792L95.2038 78.9197L98.5046 80.2L108.987 69.6573V69.6373ZM114.809 71.9179L104.326 82.4605L107.627 83.7409L110.508 83.2607L118.71 75.0187L118.109 73.1782L114.809 71.8979V71.9179Z" fill="#036EA3" stroke="white" stroke-width="0.1" stroke-miterlimit="10"/>
<path d="M53.8534 62.7756L64.336 52.233L59.2948 50.2725L48.8122 60.8151L53.8534 62.7756ZM70.4575 69.2572L80.9402 58.7146L75.8989 56.7541L65.4163 67.2967L70.4575 69.2572ZM87.0817 75.7388L97.5643 65.1962L92.523 63.2357L82.0404 73.7784L87.0817 75.7388ZM92.1229 63.0557L88.8221 61.7754L85.9414 62.2555L77.7394 70.4975L78.3395 72.338L81.6403 73.6183L92.1229 63.0757V63.0557ZM81.3403 58.8546L70.8576 69.3973L74.1585 70.6776L77.0392 70.1975L85.2412 61.9554L84.6411 60.115L81.3403 58.8346V58.8546ZM97.9644 65.3363L87.4818 75.8789L90.7826 77.1592L93.6633 76.6791L101.865 68.437L101.265 66.5966L97.9644 65.3163V65.3363ZM75.5188 56.5741L72.218 55.2938L69.3373 55.7739L61.1352 64.0159L61.7354 65.8564L65.0362 67.1367L75.5188 56.5941V56.5741ZM58.8947 50.0925L55.5938 48.8121L52.7131 49.2923L44.5111 57.5343L45.1112 59.3748L48.4121 60.6551L58.8947 50.1125V50.0925ZM64.7361 52.373L54.2535 62.9157L57.5543 64.196L60.435 63.7159L68.6371 55.4738L68.0369 53.6333L64.7361 52.353V52.373Z" fill="#036EA3" stroke="white" stroke-width="0.1" stroke-miterlimit="10"/>
<path d="M113.428 111.648L127.752 97.5443L22.6657 56.4541L8.34217 70.5576L113.428 111.648Z" fill="#F0F0F0"/>
<path d="M73.7583 93.5233L84.2409 82.9807L79.1996 81.0202L68.717 91.5628L73.7583 93.5233ZM90.3824 100.005L100.865 89.4623L95.8238 87.5018L85.3412 98.0444L90.3824 100.005ZM106.987 106.487L117.469 95.9439L112.428 93.9834L101.945 104.526L106.987 106.487ZM112.028 93.8234L108.727 92.543L105.846 93.0232L97.6442 101.265L98.2444 103.106L101.545 104.386L112.028 93.8434V93.8234ZM101.245 89.6223L90.7625 100.165L94.0633 101.445L96.944 100.965L105.146 92.7231L104.546 90.8826L101.245 89.6023V89.6223ZM117.869 96.1039L107.387 106.647L110.687 107.927L113.568 107.447L121.77 99.2047L121.17 97.3642L117.869 96.0839V96.1039ZM95.4237 87.3417L92.1228 86.0614L89.2421 86.5415L81.0401 94.7836L81.6402 96.6241L84.941 97.9044L95.4237 87.3617V87.3417ZM78.7995 80.8601L75.4987 79.5798L72.618 80.0599L64.4159 88.302L65.0161 90.1424L68.3169 91.4228L78.7995 80.8801V80.8601ZM84.641 83.1407L74.1584 93.6833L77.4592 94.9636L80.3399 94.4835L88.5419 86.2415L87.9418 84.401L84.641 83.1207V83.1407Z" fill="#036EA3" stroke="white" stroke-width="0.1" stroke-miterlimit="10"/>
<path d="M23.666 73.9784L34.1486 63.4358L29.1073 61.4753L18.6247 72.0179L23.666 73.9784ZM40.2901 80.46L50.7727 69.9174L45.7315 67.9569L35.2488 78.4995L40.2901 80.46ZM56.8942 86.9416L67.3768 76.399L62.3356 74.4385L51.853 84.9811L56.8942 86.9416ZM61.9355 74.2785L58.6347 72.9982L55.754 73.4783L47.5519 81.7203L48.1521 83.5608L51.4529 84.8411L61.9355 74.2985V74.2785ZM51.1528 70.0774L40.6702 80.6201L43.971 81.9004L46.8517 81.4203L55.0538 73.1782L54.4536 71.3378L51.1528 70.0574V70.0774ZM67.7769 76.5591L57.2943 87.1017L60.5952 88.382L63.4759 87.9019L71.6779 79.6598L71.0778 77.8194L67.7769 76.539V76.5591ZM45.3314 67.7969L42.0305 66.5166L39.1498 66.9967L30.9478 75.2387L31.5479 77.0792L34.8487 78.3595L45.3314 67.8169V67.7969ZM28.7072 61.3153L25.4064 60.0349L22.5257 60.5151L14.3236 68.7571L14.9238 70.5976L18.2246 71.8779L28.7072 61.3353V61.3153ZM34.5487 63.5958L24.0661 74.1385L27.3669 75.4188L30.2476 74.9386L38.4496 66.6966L37.8495 64.8561L34.5487 63.5758V63.5958Z" fill="#036EA3" stroke="white" stroke-width="0.1" stroke-miterlimit="10"/>
<path d="M252.503 142.996L266.807 128.892L161.72 87.8219L147.397 101.925L252.503 142.996Z" fill="#F0F0F0"/>
<path d="M212.813 124.871L223.296 114.328L218.254 112.368L207.772 122.911L212.813 124.871ZM229.437 131.353L239.92 120.81L234.878 118.85L224.396 129.392L229.437 131.353ZM246.041 137.834L256.524 127.292L251.483 125.331L241 135.874L246.041 137.834ZM251.102 125.171L247.802 123.891L244.921 124.371L236.719 132.613L237.319 134.453L240.62 135.734L251.102 125.191V125.171ZM240.32 120.97L229.837 131.513L233.138 132.793L236.019 132.313L244.221 124.071L243.621 122.23L240.32 120.95V120.97ZM256.924 127.452L246.441 137.994L249.742 139.275L252.623 138.795L260.825 130.553L260.225 128.712L256.924 127.432V127.452ZM234.478 118.69L231.177 117.409L228.297 117.889L220.095 126.131L220.695 127.972L223.996 129.252L234.478 118.71V118.69ZM217.874 112.208L214.573 110.928L211.693 111.408L203.491 119.65L204.091 121.49L207.392 122.771L217.874 112.228V112.208ZM223.696 114.489L213.213 125.031L216.514 126.311L219.395 125.831L227.597 117.589L226.996 115.749L223.696 114.469V114.489Z" fill="#036EA3" stroke="white" stroke-width="0.1" stroke-miterlimit="10"/>
<path d="M162.741 105.346L173.223 94.8036L168.182 92.8431L157.699 103.386L162.741 105.346ZM179.345 111.828L189.827 101.285L184.786 99.3247L174.304 109.867L179.345 111.828ZM195.969 118.309L206.452 107.767L201.41 105.806L190.928 116.349L195.969 118.309ZM201.01 105.646L197.709 104.366L194.829 104.846L186.627 113.088L187.227 114.929L190.528 116.209L201.01 105.666V105.646ZM190.227 101.425L179.745 111.968L183.046 113.248L185.926 112.768L194.128 104.526L193.528 102.686L190.227 101.405V101.425ZM206.832 107.907L196.349 118.449L199.65 119.73L202.531 119.25L210.733 111.008L210.132 109.167L206.832 107.887V107.907ZM184.386 99.1647L181.085 97.8844L178.204 98.3645L170.002 106.607L170.603 108.447L173.903 109.727L184.386 99.1847V99.1647ZM167.782 92.6831L164.481 91.4028L161.6 91.8829L153.398 100.125L153.998 101.965L157.299 103.246L167.782 92.7031V92.6831ZM173.603 94.9436L163.121 105.486L166.422 106.767L169.302 106.286L177.504 98.0444L176.904 96.204L173.603 94.9236V94.9436Z" fill="#036EA3" stroke="white" stroke-width="0.1" stroke-miterlimit="10"/>
<path d="M222.315 154.218L236.619 140.115L131.533 99.0247L117.229 113.128L222.315 154.218Z" fill="#F0F0F0"/>
<path d="M182.645 136.094L193.128 125.551L188.087 123.591L177.604 134.133L182.645 136.094ZM199.25 142.575L209.732 132.033L204.691 130.072L194.208 140.615L199.25 142.575ZM215.874 149.057L226.356 138.514L221.315 136.554L210.833 147.097L215.874 149.057ZM220.915 136.394L217.614 135.114L214.733 135.594L206.531 143.836L207.132 145.676L210.432 146.957L220.915 136.414V136.394ZM210.132 132.193L199.65 142.736L202.951 144.016L205.831 143.536L214.033 135.294L213.433 133.453L210.132 132.173V132.193ZM226.736 138.675L216.254 149.217L219.555 150.497L222.435 150.017L230.637 141.775L230.037 139.935L226.736 138.655V138.675ZM204.291 129.912L200.99 128.632L198.109 129.112L189.907 137.354L190.507 139.195L193.808 140.475L204.291 129.932V129.912ZM187.687 123.431L184.386 122.15L181.505 122.631L173.303 130.873L173.903 132.713L177.204 133.993L187.687 123.451V123.431ZM193.508 125.711L183.026 136.254L186.326 137.534L189.207 137.054L197.409 128.812L196.809 126.972L193.508 125.691V125.711Z" fill="#036EA3" stroke="white" stroke-width="0.1" stroke-miterlimit="10"/>
<path d="M132.553 116.569L143.036 106.026L137.994 104.066L127.512 114.609L132.553 116.569ZM149.157 123.051L159.64 112.508L154.598 110.547L144.116 121.09L149.157 123.051ZM165.781 129.532L176.264 118.99L171.223 117.029L160.74 127.572L165.781 129.532ZM170.822 116.869L167.522 115.589L164.641 116.069L156.439 124.311L157.039 126.151L160.34 127.432L170.822 116.889V116.869ZM160.04 112.648L149.557 123.191L152.858 124.471L155.739 123.991L163.941 115.749L163.341 113.908L160.04 112.628V112.648ZM176.644 119.13L166.161 129.672L169.462 130.953L172.343 130.472L180.545 122.23L179.945 120.39L176.644 119.11V119.13ZM154.198 110.387L150.898 109.107L148.017 109.587L139.815 117.829L140.415 119.67L143.716 120.95L154.198 110.407V110.387ZM137.594 103.906L134.293 102.626L131.413 103.106L123.211 111.348L123.811 113.188L127.112 114.468L137.594 103.926V103.906ZM143.416 106.166L132.933 116.709L136.234 117.989L139.115 117.509L147.317 109.267L146.716 107.427L143.416 106.146V106.166Z" fill="#036EA3" stroke="white" stroke-width="0.1" stroke-miterlimit="10"/>
</g>
</g>
<defs>
<clipPath id="clip0_1_1989">
<rect width="200.95" height="113.27" fill="white" transform="scale(2.0005)"/>
</clipPath>
<clipPath id="clip1_1_1989">
<rect width="200.95" height="113.27" fill="white" transform="scale(2.0005)"/>
</clipPath>
</defs>
</svg>
