<svg width="900" height="302" viewBox="0 0 900 302" fill="none" xmlns="http://www.w3.org/2000/svg">
<g clip-path="url(#clip0_1_2109)">
<g clip-path="url(#clip1_1_2109)">
<g clip-path="url(#clip2_1_2109)">
<path d="M843.662 180.727C850.256 180.727 855.601 179.177 855.601 177.264C855.601 175.352 850.256 173.801 843.662 173.801C837.069 173.801 831.724 175.352 831.724 177.264C831.724 179.177 837.069 180.727 843.662 180.727Z" fill="black"/>
<path d="M832.386 175.374C832.386 169.127 837.434 164.062 843.662 164.062C849.89 164.062 854.939 169.127 854.939 175.374C854.939 177.711 849.89 179.602 843.662 179.602C837.434 179.602 832.386 177.697 832.386 175.374Z" fill="#6EBA44"/>
<path d="M843.662 164.062C849.89 164.062 854.939 169.127 854.939 175.374C854.939 177.711 849.89 179.602 843.662 179.602" fill="black"/>
</g>
<g clip-path="url(#clip3_1_2109)">
<path d="M524.509 99.0866C531.102 99.0866 536.447 97.5363 536.447 95.6238C536.447 93.7114 531.102 92.161 524.509 92.161C517.916 92.161 512.571 93.7114 512.571 95.6238C512.571 97.5363 517.916 99.0866 524.509 99.0866Z" fill="black"/>
<path d="M513.232 93.7337C513.232 87.4862 518.281 82.4219 524.509 82.4219C530.737 82.4219 535.786 87.4862 535.786 93.7337C535.786 96.0711 530.737 97.9612 524.509 97.9612C518.281 97.9612 513.232 96.0567 513.232 93.7337Z" fill="#6EBA44"/>
<path d="M524.509 82.4219C530.737 82.4219 535.786 87.4862 535.786 93.7337C535.786 96.0711 530.737 97.9612 524.509 97.9612" fill="black"/>
</g>
<g clip-path="url(#clip4_1_2109)">
<path d="M465.157 201.127C471.751 201.127 477.096 199.577 477.096 197.664C477.096 195.752 471.751 194.201 465.157 194.201C458.564 194.201 453.219 195.752 453.219 197.664C453.219 199.577 458.564 201.127 465.157 201.127Z" fill="black"/>
<path d="M453.881 195.774C453.881 189.527 458.929 184.462 465.157 184.462C471.385 184.462 476.434 189.527 476.434 195.774C476.434 198.111 471.385 200.002 465.157 200.002C458.929 200.002 453.881 198.097 453.881 195.774Z" fill="#6EBA44"/>
<path d="M465.157 184.462C471.385 184.462 476.434 189.527 476.434 195.774C476.434 198.111 471.385 200.002 465.157 200.002" fill="black"/>
</g>
<g clip-path="url(#clip5_1_2109)">
<path d="M843.662 158.684C850.256 158.684 855.601 157.133 855.601 155.221C855.601 153.308 850.256 151.758 843.662 151.758C837.069 151.758 831.724 153.308 831.724 155.221C831.724 157.133 837.069 158.684 843.662 158.684Z" fill="black"/>
<path d="M832.386 153.331C832.386 147.083 837.434 142.019 843.662 142.019C849.89 142.019 854.939 147.083 854.939 153.331C854.939 155.668 849.89 157.558 843.662 157.558C837.434 157.558 832.386 155.654 832.386 153.331Z" fill="#6EBA44"/>
<path d="M843.662 142.019C849.89 142.019 854.939 147.083 854.939 153.331C854.939 155.668 849.89 157.558 843.662 157.558" fill="black"/>
</g>
<g clip-path="url(#clip6_1_2109)">
<path d="M865.224 170.973C871.904 170.973 877.319 168.745 877.319 165.997C877.319 163.249 871.904 161.021 865.224 161.021C858.544 161.021 853.129 163.249 853.129 165.997C853.129 168.745 858.544 170.973 865.224 170.973Z" fill="black"/>
<path d="M865.224 118.753C865.224 118.753 861.694 165.755 861.694 165.997C861.694 167.134 863.273 168.047 865.224 168.047C867.175 168.047 868.754 167.134 868.754 165.997C868.754 165.755 865.224 118.753 865.224 118.753Z" fill="#5E853A"/>
<g style="mix-blend-mode:multiply" opacity="0.2">
<path d="M865.224 168.047C867.175 168.047 868.754 167.134 868.754 165.997C868.754 165.755 865.224 118.753 865.224 118.753" fill="black"/>
</g>
<path d="M880.737 145.217L865.224 118.753L849.711 145.217C849.079 146.224 848.745 147.323 848.745 148.441C848.745 153.715 856.12 157.983 865.224 157.983C874.327 157.983 881.703 153.715 881.703 148.441C881.703 147.304 881.369 146.224 880.737 145.217Z" fill="#6EBA44"/>
<g style="mix-blend-mode:multiply" opacity="0.2">
<path d="M865.224 118.753L880.737 145.217C881.369 146.224 881.703 147.323 881.703 148.441C881.703 153.715 874.327 157.983 865.224 157.983V118.753Z" fill="#231815"/>
</g>
</g>
<path d="M280.598 246.925C287.769 244.26 299.416 244.26 306.608 246.925C313.799 249.59 313.779 253.919 306.608 256.604C299.436 259.289 287.789 259.269 280.598 256.604C273.426 253.939 273.426 249.61 280.598 246.925Z" fill="#6BC1A8"/>
<path d="M666.114 161.257C657.125 164.603 642.541 164.603 633.552 161.257C624.562 157.91 624.562 152.499 633.552 149.153L692.324 127.29C701.314 123.943 715.897 123.943 724.887 127.29C733.876 130.637 733.876 136.047 724.887 139.394L666.114 161.257Z" fill="#6BC1A8"/>
<path d="M540.119 193.179C535.904 194.742 529.072 194.742 524.857 193.179C520.642 191.616 520.642 189.071 524.857 187.508L552.425 177.248C556.64 175.685 563.472 175.685 567.687 177.248C571.903 178.811 571.903 181.356 567.687 182.919L540.119 193.179Z" fill="#6BC1A8"/>
<path d="M785.537 209.491C780.803 208.029 780.803 205.163 785.537 203.099L881.008 165.405C885.742 163.341 893.433 162.88 898.168 164.343" fill="#6BC1A8"/>
<path d="M722.929 139.233C732.338 136.308 732.338 130.637 722.929 126.548L533.307 51.6614C523.898 47.5734 508.615 46.6315 499.206 49.5573" fill="#6BC1A8"/>
<path d="M600.849 59.0359C594.217 60.7392 594.217 64.0257 600.849 66.3903L874.135 163.14C880.768 165.505 891.515 166.046 898.148 164.363" fill="#6BC1A8"/>
<g style="mix-blend-mode:multiply">
<path d="M532.488 191.516V188.911L700.635 126.809L700.974 129.174L532.488 191.516Z" fill="#8B8B8B"/>
</g>
<g style="mix-blend-mode:multiply">
<path d="M293.603 252.155V249.55L476.892 181.957L477.231 184.322L293.603 252.155Z" fill="#8B8B8B"/>
</g>
<g style="mix-blend-mode:multiply">
<path d="M293.942 252.295L293.603 249.55L152.005 196.867V199.351L293.942 252.295Z" fill="#8B8B8B"/>
</g>
<g style="mix-blend-mode:multiply">
<path d="M532.488 191.516V188.911L465.305 163.862L465.325 166.367L532.488 191.516Z" fill="#8B8B8B"/>
</g>
<path d="M482.705 152.479L321.391 92.8824L521.461 18.8571L682.775 78.4541L482.705 152.479Z" fill="#F0F0F0"/>
<path d="M700.635 126.809L532.488 188.911V147.149L700.635 85.047V126.809Z" fill="#064055"/>
<path opacity="0.3" d="M700.635 126.809L532.488 188.911V147.149L700.635 85.047V126.809Z" fill="url(#paint0_linear_1_2109)"/>
<path d="M293.603 226.665L152.005 173.962L353.314 99.816L495.291 152.239L293.603 226.665Z" fill="#F0F0F0"/>
<path d="M687.69 131.598L545.933 183.941V147.57L687.69 95.2271V131.598Z" fill="#B1B1B1"/>
<path d="M152.005 196.867L293.603 249.55V207.788L152.005 155.105V196.867Z" fill="#C6C6C6"/>
<path d="M521.461 18.857L700.635 85.047V66.19L521.461 0V18.857Z" fill="#C6C6C6"/>
<path d="M700.635 85.047L532.488 147.149V128.292L700.635 66.1899V85.047Z" fill="#B1B1B1"/>
<g style="mix-blend-mode:multiply">
<path d="M700.635 85.047L532.488 147.149V128.292L700.635 66.1899V85.047Z" fill="#B1B1B1"/>
</g>
<path d="M301.613 168.351L244.399 189.492V170.635L301.613 149.474V168.351Z" fill="#B1B1B1"/>
<path d="M495.231 70.4784L548.53 92.0007L594.717 75.9692L495.231 38.8563V70.4784Z" fill="#C6C6C6"/>
<path d="M495.231 70.0576L431.764 93.4636V75.5885L495.231 52.1625V70.0576Z" fill="#B1B1B1"/>
<path d="M521.461 18.857L152.005 155.105V136.228L521.461 0V18.857Z" fill="#B1B1B1"/>
<path d="M244.399 189.492L293.603 207.788V188.931L244.399 170.635V189.492Z" fill="#C6C6C6"/>
<g style="mix-blend-mode:multiply">
<path d="M244.399 189.492L293.603 207.788V188.931L244.399 170.635V189.492Z" fill="#C6C6C6"/>
</g>
<path d="M223.783 128.452L273.006 146.408V127.55L223.783 109.595V128.452Z" fill="#C6C6C6"/>
<path d="M435.08 84.4459L273.006 146.408V127.551L435.08 65.5889V84.4459Z" fill="#B1B1B1"/>
<path d="M273.006 127.55L223.783 109.595L389.412 48.7958L435.08 65.5888L273.006 127.55Z" fill="#F0F0F0"/>
<path d="M405.854 105.888L455.077 125.787V101.559L405.854 81.6604V105.888Z" fill="#C6C6C6"/>
<path d="M507.756 103.223L455.077 125.787V101.559L507.756 78.9951V103.223Z" fill="#B1B1B1"/>
<path d="M455.077 101.559L405.854 81.6603L462.089 60.3986L507.756 78.9951L455.077 101.559Z" fill="#F0F0F0"/>
<path d="M345.103 135.346L385.517 151.678V108.794L345.103 92.4615V135.346Z" fill="#C6C6C6"/>
<path d="M428.767 133.142L385.517 151.678V108.794L428.767 90.2773V133.142Z" fill="#B1B1B1"/>
<path d="M385.517 108.794L345.103 92.4616L391.27 75.0073L428.767 90.2773L385.517 108.794Z" fill="#F0F0F0"/>
<path d="M301.853 153.642L342.247 169.974V146.207L301.853 129.875V153.642Z" fill="#C6C6C6"/>
<path d="M385.517 151.678L342.247 170.194V146.207L385.517 127.691V151.678Z" fill="#B1B1B1"/>
<path d="M342.247 146.207L301.853 129.875L348.02 112.401L385.517 127.691L342.247 146.207Z" fill="#F0F0F0"/>
<path d="M188.563 149.874L152.005 136.228L274.964 91.0989L308.905 103.864L188.563 149.874Z" fill="#F0F0F0"/>
<path d="M399.781 43.3451C399.781 47.2728 385.897 54.5471 368.796 59.597C351.676 64.6469 337.812 65.5688 337.812 61.641C337.812 57.7133 351.696 50.439 368.796 45.3891C385.916 40.3392 399.781 39.4174 399.781 43.3451Z" fill="#F0F0F0"/>
<path d="M337.792 61.641C337.792 65.5687 351.676 64.6469 368.776 59.597C385.896 54.5471 399.761 47.2728 399.761 43.3451V55.9899C399.761 59.9176 385.876 67.1919 368.776 72.2418C351.656 77.2918 337.792 78.2136 337.792 74.2859V61.641Z" fill="#B1B1B1"/>
<path d="M259.821 141.558L188.543 168.751V149.894L259.821 122.701V141.558Z" fill="#B1B1B1"/>
<path d="M152.005 155.105L192.019 170.014V151.157L152.005 136.228V155.105Z" fill="#C6C6C6"/>
<g style="mix-blend-mode:multiply">
<path d="M152.005 155.105L192.019 170.014V151.157L152.005 136.228V155.105Z" fill="#C6C6C6"/>
</g>
<path d="M218.089 160.395L192.019 170.014V151.157L218.089 141.538V160.395Z" fill="#B1B1B1"/>
<g style="mix-blend-mode:multiply">
<path d="M218.089 160.395L192.019 170.014V151.157L218.089 141.538V160.395Z" fill="#B1B1B1"/>
</g>
<path opacity="0.4" d="M592.239 159.012L584.648 161.818V159.794L592.239 156.988V159.012ZM603.447 152.86L595.855 155.666V157.69L603.447 154.884V152.86ZM581.012 161.136L573.421 163.942V165.966L581.012 163.16V161.136ZM558.578 169.413L550.987 172.218V174.242L558.578 171.437V169.413ZM569.785 165.285L562.194 168.09V170.114L569.785 167.309V165.285ZM625.901 144.584L618.309 147.389V149.413L625.901 146.608V144.584ZM670.769 128.011L663.178 130.817V132.841L670.769 130.035V128.011ZM659.542 132.159L651.951 134.965V136.989L659.542 134.183V132.159ZM614.674 148.712L607.082 151.518V153.541L614.674 150.736V148.712ZM637.108 140.436L629.517 143.241V145.265L637.108 142.46V140.436ZM648.335 136.288L640.744 139.093V141.117L648.335 138.312V136.288Z" fill="black"/>
<path opacity="0.4" d="M592.239 143.842L584.648 146.648V144.624L592.239 141.818V143.842ZM603.447 137.69L595.855 140.496V142.52L603.447 139.714V137.69ZM581.012 145.967L573.421 148.772V150.796L581.012 147.991V145.967ZM558.578 154.243L550.987 157.048V159.072L558.578 156.267V154.243ZM569.785 150.095L562.194 152.9V154.924L569.785 152.119V150.095ZM625.901 129.394L618.309 132.2V134.224L625.901 131.418V129.394ZM670.769 112.842L663.178 115.647V117.671L670.769 114.866V112.842ZM659.542 116.99L651.951 119.795V121.819L659.542 119.014V116.99ZM614.674 133.542L607.082 136.348V138.372L614.674 135.566V133.542ZM637.108 125.266L629.517 128.071V130.095L637.108 127.29V125.266ZM648.335 121.118L640.744 123.923V125.947L648.335 123.142V121.118Z" fill="black"/>
<path d="M152.005 196.867L161.195 200.313V158.551L152.005 155.105V196.867Z" fill="#C6C6C6"/>
<g style="mix-blend-mode:multiply">
<path d="M152.005 196.867L161.195 200.313V158.551L152.005 155.105V196.867Z" fill="#C6C6C6"/>
</g>
<path d="M192.019 211.776L201.209 215.223V204.582L192.019 201.135V211.776Z" fill="#C6C6C6"/>
<g style="mix-blend-mode:multiply">
<path d="M192.019 211.776L201.209 215.223V204.582L192.019 201.135V211.776Z" fill="#C6C6C6"/>
</g>
<path d="M201.209 215.223L210.398 218.669V208.029L201.209 204.582V215.223Z" fill="#C6C6C6"/>
<g style="mix-blend-mode:multiply">
<path d="M201.209 215.223L210.398 218.669V208.029L201.209 204.582V215.223Z" fill="#C6C6C6"/>
</g>
<path d="M489.757 112L463.667 121.619V102.742L489.757 93.1429V112Z" fill="#B1B1B1"/>
<path d="M463.667 121.619L532.488 147.149V128.292L463.667 102.742V121.619Z" fill="#C6C6C6"/>
<g style="mix-blend-mode:multiply">
<path d="M463.667 121.619L532.488 147.149V128.292L463.667 102.742V121.619Z" fill="#C6C6C6"/>
</g>
<path d="M301.613 168.351L350.817 186.647V167.769L301.613 149.474V168.351Z" fill="#C6C6C6"/>
<path d="M350.817 186.647L293.603 207.788V188.931L350.817 167.77V186.647Z" fill="#B1B1B1"/>
<g style="mix-blend-mode:multiply">
<path d="M350.817 186.647L293.603 207.788V188.931L350.817 167.77V186.647Z" fill="#B1B1B1"/>
</g>
<path d="M801.799 137.59C848.405 153.982 833.083 183.4 801.938 196.726L804.835 198.55L887.82 167.309L888.479 163.822L800.061 133.883L801.799 137.59Z" fill="#6BC1A8"/>
<path d="M729.102 191.115C720.112 194.462 705.529 194.462 696.54 191.115C687.55 187.769 687.55 182.358 696.54 179.012L755.312 157.149C764.302 153.802 778.885 153.802 787.875 157.149C796.864 160.495 796.864 165.906 787.875 169.252L729.102 191.115Z" fill="#6BC1A8"/>
<path d="M463.667 163.381L532.488 188.911V147.149L463.667 121.619V163.381Z" fill="#C6C6C6"/>
<path d="M514.389 182.118L532.488 188.911V147.149L514.389 140.356V182.118Z" fill="#386677"/>
<path opacity="0.2" d="M514.389 182.118L532.488 188.911V147.149L514.389 140.356V182.118Z" fill="url(#paint1_linear_1_2109)"/>
<path d="M293.603 207.788V249.55L476.892 181.917V171.316L495.291 164.503V133.382L293.603 207.788Z" fill="#B1B1B1"/>
<path opacity="0.5" d="M325.486 232.116L318.874 234.541V232.937L325.486 230.513V232.116ZM339.57 225.363L332.957 227.787V229.391L339.57 226.966V225.363ZM353.634 220.212L347.021 222.637V224.24L353.634 221.816V220.212ZM367.717 215.062L361.105 217.487V219.09L367.717 216.666V215.062ZM381.781 209.932L375.169 212.357V213.96L381.781 211.535V209.932ZM395.845 204.782L389.233 207.207V208.81L395.845 206.385V204.782ZM409.929 199.632L403.316 202.057V203.66L409.929 201.235V199.632ZM423.993 194.482L417.38 196.907V198.51L423.993 196.085V194.482ZM438.077 189.332L431.464 191.757V193.36L438.077 190.935V189.332ZM452.14 184.202L445.528 186.627V188.23L452.14 185.805V184.202ZM466.204 179.052L459.592 181.476V183.08L466.204 180.655V179.052Z" fill="black"/>
<g style="mix-blend-mode:multiply">
<path d="M558.198 71.7409L564.811 74.1657V75.7689L558.198 73.3441V71.7409ZM544.115 68.194L550.727 70.6187V69.0156L544.115 66.5908V68.194ZM530.051 63.0439L536.663 65.4686V63.8655L530.051 61.4407V63.0439ZM515.987 57.9138L522.599 60.3385V58.7354L515.987 56.3106V57.9138ZM501.903 52.7637L508.516 55.1884V53.5853L501.903 51.1605V52.7637Z" fill="#B1B1B1"/>
</g>
<g style="mix-blend-mode:multiply">
<path d="M558.198 78.394L564.811 80.8188V82.4219L558.198 79.9972V78.394ZM544.115 74.8671L550.727 77.2918V75.6887L544.115 73.2639V74.8671ZM530.051 69.717L536.663 72.1417V70.5386L530.051 68.1138V69.717ZM515.987 64.5669L522.599 66.9916V65.3885L515.987 62.9637V64.5669ZM501.903 59.4167L508.516 61.8415V60.2384L501.903 57.8136V59.4167Z" fill="#B1B1B1"/>
</g>
<path opacity="0.3" d="M558.198 85.0671L563.173 86.9308L558.198 88.6742V85.0871V85.0671ZM544.115 85.4078L550.727 87.8325V82.3418L544.115 79.917V85.4078ZM530.051 80.2577L536.663 82.6824V77.1916L530.051 74.7669V80.2577ZM515.987 75.1276L522.599 77.5524V72.0616L515.987 69.6368V75.1276ZM501.903 69.9775L508.516 72.4022V66.9115L501.903 64.4867V69.9775Z" fill="black"/>
<g clip-path="url(#clip7_1_2109)">
<path opacity="0.3" d="M843.223 179.284C849.816 179.284 855.161 177.734 855.161 175.821C855.161 173.909 849.816 172.359 843.223 172.359C836.63 172.359 831.285 173.909 831.285 175.821C831.285 177.734 836.63 179.284 843.223 179.284Z" fill="black"/>
<path d="M831.946 173.931C831.946 167.684 836.995 162.619 843.223 162.619C849.451 162.619 854.5 167.684 854.5 173.931C854.5 176.269 849.451 178.159 843.223 178.159C836.995 178.159 831.946 176.254 831.946 173.931Z" fill="#4B9E81"/>
<path opacity="0.3" d="M843.223 162.619C849.451 162.619 854.5 167.684 854.5 173.931C854.5 176.269 849.451 178.159 843.223 178.159" fill="black"/>
</g>
<g clip-path="url(#clip8_1_2109)">
<path opacity="0.3" d="M524.07 97.6437C530.663 97.6437 536.008 96.0934 536.008 94.1809C536.008 92.2685 530.663 90.7181 524.07 90.7181C517.476 90.7181 512.131 92.2685 512.131 94.1809C512.131 96.0934 517.476 97.6437 524.07 97.6437Z" fill="black"/>
<path d="M512.793 92.2908C512.793 86.0433 517.842 80.979 524.07 80.979C530.298 80.979 535.346 86.0433 535.346 92.2908C535.346 94.6282 530.298 96.5183 524.07 96.5183C517.842 96.5183 512.793 94.6138 512.793 92.2908Z" fill="#4B9E81"/>
<path opacity="0.3" d="M524.07 80.979C530.298 80.979 535.346 86.0433 535.346 92.2908C535.346 94.6282 530.298 96.5183 524.07 96.5183" fill="black"/>
</g>
<g clip-path="url(#clip9_1_2109)">
<path opacity="0.3" d="M464.718 199.684C471.311 199.684 476.656 198.134 476.656 196.221C476.656 194.309 471.311 192.759 464.718 192.759C458.124 192.759 452.78 194.309 452.78 196.221C452.78 198.134 458.124 199.684 464.718 199.684Z" fill="black"/>
<path d="M453.441 194.331C453.441 188.084 458.49 183.019 464.718 183.019C470.946 183.019 475.994 188.084 475.994 194.331C475.994 196.669 470.946 198.559 464.718 198.559C458.49 198.559 453.441 196.654 453.441 194.331Z" fill="#4B9E81"/>
<path opacity="0.3" d="M464.718 183.019C470.946 183.019 475.995 188.084 475.995 194.331C475.995 196.669 470.946 198.559 464.718 198.559" fill="black"/>
</g>
<g clip-path="url(#clip10_1_2109)">
<path opacity="0.3" d="M843.223 157.241C849.816 157.241 855.161 155.69 855.161 153.778C855.161 151.866 849.816 150.315 843.223 150.315C836.63 150.315 831.285 151.866 831.285 153.778C831.285 155.69 836.63 157.241 843.223 157.241Z" fill="black"/>
<path d="M831.946 151.888C831.946 145.64 836.995 140.576 843.223 140.576C849.451 140.576 854.5 145.64 854.5 151.888C854.5 154.225 849.451 156.115 843.223 156.115C836.995 156.115 831.946 154.211 831.946 151.888Z" fill="#4B9E81"/>
<path opacity="0.3" d="M843.223 140.576C849.451 140.576 854.5 145.64 854.5 151.888C854.5 154.225 849.451 156.115 843.223 156.115" fill="black"/>
</g>
<g clip-path="url(#clip11_1_2109)">
<path opacity="0.3" d="M864.784 169.51C871.464 169.51 876.879 167.282 876.879 164.534C876.879 161.786 871.464 159.558 864.784 159.558C858.105 159.558 852.69 161.786 852.69 164.534C852.69 167.282 858.105 169.51 864.784 169.51Z" fill="black"/>
<path d="M864.784 117.29C864.784 117.29 861.254 164.292 861.254 164.534C861.254 165.671 862.834 166.584 864.784 166.584C866.735 166.584 868.314 165.671 868.314 164.534C868.314 164.292 864.784 117.29 864.784 117.29Z" fill="#9B7225"/>
<g style="mix-blend-mode:multiply" opacity="0.2">
<path d="M864.784 166.584C866.735 166.584 868.314 165.671 868.314 164.534C868.314 164.292 864.784 117.29 864.784 117.29" fill="black"/>
</g>
<path d="M880.298 143.754L864.784 117.29L849.271 143.754C848.64 144.761 848.305 145.86 848.305 146.978C848.305 152.253 855.681 156.52 864.784 156.52C873.888 156.52 881.264 152.253 881.264 146.978C881.264 145.842 880.929 144.761 880.298 143.754Z" fill="#4B9E81"/>
<g style="mix-blend-mode:multiply" opacity="0.2">
<path d="M864.784 117.29L880.298 143.754C880.929 144.761 881.264 145.86 881.264 146.978C881.264 152.253 873.888 156.52 864.784 156.52V117.29Z" fill="#231815"/>
</g>
</g>
<g clip-path="url(#clip12_1_2109)">
<path opacity="0.3" d="M772.77 167.847C779.45 167.847 784.865 165.619 784.865 162.871C784.865 160.123 779.45 157.895 772.77 157.895C766.09 157.895 760.675 160.123 760.675 162.871C760.675 165.619 766.09 167.847 772.77 167.847Z" fill="black"/>
<path d="M772.77 115.627C772.77 115.627 769.24 162.629 769.24 162.871C769.24 164.008 770.819 164.921 772.77 164.921C774.721 164.921 776.3 164.008 776.3 162.871C776.3 162.629 772.77 115.627 772.77 115.627Z" fill="#9B7225"/>
<g style="mix-blend-mode:multiply" opacity="0.2">
<path d="M772.77 164.921C774.721 164.921 776.3 164.008 776.3 162.871C776.3 162.629 772.77 115.627 772.77 115.627" fill="black"/>
</g>
<path d="M788.283 142.091L772.77 115.627L757.257 142.091C756.625 143.097 756.291 144.197 756.291 145.315C756.291 150.589 763.666 154.857 772.77 154.857C781.874 154.857 789.249 150.589 789.249 145.315C789.249 144.178 788.915 143.097 788.283 142.091Z" fill="#4B9E81"/>
<g style="mix-blend-mode:multiply" opacity="0.2">
<path d="M772.77 115.627L788.283 142.091C788.915 143.097 789.249 144.197 789.249 145.315C789.249 150.589 781.874 154.857 772.77 154.857V115.627Z" fill="#231815"/>
</g>
</g>
<g clip-path="url(#clip13_1_2109)">
<path opacity="0.3" d="M744.363 177.846C751.042 177.846 756.457 175.619 756.457 172.871C756.457 170.122 751.042 167.895 744.363 167.895C737.683 167.895 732.268 170.122 732.268 172.871C732.268 175.619 737.683 177.846 744.363 177.846Z" fill="black"/>
<path d="M744.363 125.627C744.363 125.627 740.833 172.628 740.833 172.871C740.833 174.007 742.412 174.921 744.363 174.921C746.313 174.921 747.893 174.007 747.893 172.871C747.893 172.628 744.363 125.627 744.363 125.627Z" fill="#9B7225"/>
<g style="mix-blend-mode:multiply" opacity="0.2">
<path d="M744.363 174.921C746.313 174.921 747.892 174.007 747.892 172.871C747.892 172.628 744.363 125.627 744.363 125.627" fill="black"/>
</g>
<path d="M759.876 152.091L744.363 125.627L728.849 152.091C728.218 153.097 727.883 154.197 727.883 155.315C727.883 160.589 735.259 164.857 744.363 164.857C753.466 164.857 760.842 160.589 760.842 155.315C760.842 154.178 760.507 153.097 759.876 152.091Z" fill="#4B9E81"/>
<g style="mix-blend-mode:multiply" opacity="0.2">
<path d="M744.363 125.627L759.876 152.091C760.507 153.097 760.842 154.197 760.842 155.315C760.842 160.589 753.466 164.857 744.363 164.857V125.627Z" fill="#231815"/>
</g>
</g>
<g clip-path="url(#clip14_1_2109)">
<path opacity="0.3" d="M715.975 187.846C722.655 187.846 728.07 185.618 728.07 182.87C728.07 180.122 722.655 177.894 715.975 177.894C709.296 177.894 703.881 180.122 703.881 182.87C703.881 185.618 709.296 187.846 715.975 187.846Z" fill="black"/>
<path d="M715.976 135.626C715.976 135.626 712.446 182.628 712.446 182.87C712.446 184.007 714.025 184.92 715.976 184.92C717.926 184.92 719.505 184.007 719.505 182.87C719.505 182.628 715.976 135.626 715.976 135.626Z" fill="#9B7225"/>
<g style="mix-blend-mode:multiply" opacity="0.2">
<path d="M715.975 184.92C717.926 184.92 719.505 184.007 719.505 182.87C719.505 182.628 715.975 135.626 715.975 135.626" fill="black"/>
</g>
<path d="M731.489 162.09L715.975 135.626L700.462 162.09C699.831 163.097 699.496 164.196 699.496 165.314C699.496 170.589 706.872 174.856 715.975 174.856C725.079 174.856 732.455 170.589 732.455 165.314C732.455 164.178 732.12 163.097 731.489 162.09Z" fill="#4B9E81"/>
<g style="mix-blend-mode:multiply" opacity="0.2">
<path d="M715.975 135.626L731.489 162.09C732.12 163.097 732.455 164.196 732.455 165.314C732.455 170.589 725.079 174.856 715.975 174.856V135.626Z" fill="#231815"/>
</g>
</g>
<path d="M362.124 265.281L498.966 212.157C498.966 212.157 515.328 221.615 543.515 216.525L362.104 265.281H362.124Z" fill="#6BC1A8" stroke="#6BC1A8" stroke-width="4.35" stroke-linecap="round" stroke-linejoin="round"/>
<path d="M666.973 252.957L725.946 229.691" stroke="#6BC1A8" stroke-width="4.35" stroke-miterlimit="10" stroke-linecap="round"/>
<path d="M666.973 252.957C609.38 275.381 517.066 293.657 423.313 297.023" stroke="#6BC1A8" stroke-width="4.35" stroke-miterlimit="10" stroke-linecap="round"/>
<path d="M460.191 211.515L475.074 218.188V200.975L460.191 194.302V211.515Z" fill="#C6C6C6"/>
<path d="M498.627 208.71L475.074 218.189V200.975L498.627 190.474V208.71Z" fill="#B1B1B1"/>
<path d="M475.074 200.975L460.191 194.302L485.662 185.344L498.627 190.474L475.074 200.975Z" fill="#F0F0F0"/>
<path d="M396.864 234.12L414.164 241.615V228.088L396.864 220.593V234.12Z" fill="#C6C6C6"/>
<path d="M475.074 218.189L414.164 241.615V228.088L475.074 204.662V218.189Z" fill="#B1B1B1"/>
<path d="M414.164 228.088L396.864 220.593L460.051 198.049L475.074 204.662L414.164 228.088Z" fill="#F0F0F0"/>
<path d="M301.314 284.198L283.994 291.212V277.685L301.314 270.651V284.198Z" fill="#C6C6C6"/>
<path d="M223.084 266.103L283.994 291.212V277.685L223.084 252.576V266.103Z" fill="#B1B1B1"/>
<path d="M283.994 277.685L301.314 270.652L238.106 246.384L223.084 252.576L283.994 277.685Z" fill="#F0F0F0"/>
<path d="M579.574 210.493C579.574 210.493 616.092 195.664 641.043 201.676C665.994 207.708 705.289 237.366 705.289 237.366L725.965 229.671C725.965 229.671 667.173 199.311 629.017 200.213" fill="#6BC1A8"/>
<path d="M579.574 210.493C579.574 210.493 616.092 195.664 641.043 201.676C665.994 207.708 705.289 237.366 705.289 237.366L725.965 229.671C725.965 229.671 667.173 199.311 629.017 200.213" stroke="#6BC1A8" stroke-width="4.35" stroke-linecap="round" stroke-linejoin="round"/>
<path d="M671.468 215.243C671.468 217.988 677.381 220.233 684.673 220.233C691.965 220.233 697.878 218.008 697.878 215.243V192.638C697.878 189.893 691.965 187.649 684.673 187.649C677.381 187.649 671.468 189.873 671.468 192.638V215.243Z" fill="#B1B1B1"/>
<path d="M684.673 197.628C691.966 197.628 697.878 195.394 697.878 192.638C697.878 189.883 691.966 187.649 684.673 187.649C677.38 187.649 671.468 189.883 671.468 192.638C671.468 195.394 677.38 197.628 684.673 197.628Z" fill="white"/>
<path d="M521.82 253.037L414.224 280.892L412.406 280.03L520.002 252.175L521.82 253.037ZM429.846 286.903L400 272.896L398.182 273.377L428.028 287.384L429.846 286.903ZM439.515 284.398L409.669 270.391L407.851 270.872L437.697 284.879L439.515 284.398ZM449.184 281.894L419.338 267.886L417.52 268.367L447.366 282.375L449.184 281.894ZM458.833 279.389L428.987 265.381L427.169 265.862L457.015 279.87L458.833 279.389ZM468.502 276.884L438.656 262.876L436.838 263.357L466.684 277.365L468.502 276.884ZM478.15 274.379L448.305 260.371L446.487 260.852L476.333 274.86L478.15 274.379ZM487.819 271.894L457.974 257.886L456.156 258.367L486.001 272.375L487.819 271.894ZM497.488 269.389L467.643 255.381L465.825 255.862L495.67 269.87L497.488 269.389ZM507.137 266.884L477.291 252.877L475.473 253.358L505.319 267.365L507.137 266.884ZM516.806 264.379L486.96 250.372L485.142 250.853L514.988 264.86L516.806 264.379ZM526.455 261.874L496.609 247.867L494.791 248.348L524.637 262.355L526.455 261.874ZM536.124 259.369L506.278 245.362L504.46 245.843L534.306 259.85L536.124 259.369Z" fill="#F0F0F0"/>
<path d="M649.813 222.156L542.217 250.011L540.399 249.149L647.995 221.295L649.813 222.156ZM557.839 256.023L527.993 242.015L526.175 242.496L556.021 256.504L557.839 256.023ZM567.508 253.518L537.662 239.51L535.844 239.991L565.69 253.999L567.508 253.518ZM577.157 251.013L547.311 237.005L545.493 237.486L575.339 251.494L577.157 251.013ZM586.826 248.508L556.98 234.5L555.162 234.981L585.008 248.989L586.826 248.508ZM596.494 246.003L566.649 231.996L564.831 232.477L594.677 246.484L596.494 246.003ZM606.143 243.518L576.298 229.511L574.48 229.992L604.325 243.999L606.143 243.518ZM615.812 241.013L585.967 227.006L584.149 227.487L613.994 241.494L615.812 241.013ZM625.461 238.508L595.615 224.501L593.798 224.982L623.643 238.989L625.461 238.508ZM635.13 236.003L605.284 221.996L603.466 222.477L633.312 236.484L635.13 236.003ZM644.799 233.499L614.953 219.491L613.135 219.972L642.981 233.979L644.799 233.499ZM654.448 230.994L624.602 216.986L622.784 217.467L652.63 231.475L654.448 230.994ZM664.117 228.509L634.271 214.501L632.453 214.982L662.299 228.99L664.117 228.509Z" fill="#F0F0F0"/>
<path opacity="0.2" d="M540.339 144.163L542.297 143.442V124.945L540.339 125.667V144.163ZM549.528 140.797L551.486 140.075V121.579L549.528 122.3V140.797ZM558.738 137.43L560.696 136.709V118.212L558.738 118.934V137.43ZM567.947 134.063L569.905 133.342V114.846L567.947 115.567V134.063ZM577.137 130.697L579.094 129.975V111.479L577.137 112.2V130.697ZM586.346 127.33L588.304 126.609V108.112L586.346 108.834V127.33ZM595.555 123.963L597.513 123.242V104.746L595.555 105.467V123.963ZM604.745 120.597L606.703 119.875V101.379L604.745 102.101V120.597ZM613.954 117.23L615.912 116.509V98.0125L613.954 98.7339V117.23ZM623.164 113.864L625.122 113.142V94.6459L623.164 95.3673V113.864ZM632.353 110.497L634.311 109.776V91.2793L632.353 92.0007V110.497ZM641.563 107.13L643.52 106.409V87.9127L641.563 88.6341V107.13ZM650.772 103.764L652.73 103.042V84.5461L650.772 85.2675V103.764ZM659.961 100.397L661.919 99.6758V81.1795L659.961 81.9009V100.397ZM669.171 97.0306L671.129 96.3092V77.8128L669.171 78.5343V97.0306ZM678.38 93.664L680.338 92.9426V74.4462L678.38 75.1676V93.664ZM687.59 90.2974L689.547 89.5759V71.0796L687.59 71.801V90.2974ZM696.779 86.9308L698.737 86.2093V67.713L696.779 68.4344V86.9308ZM535.904 145.666L537.862 144.945V126.448L535.904 127.17V145.666ZM545.113 142.299L547.071 141.578V123.082L545.113 123.803V142.299ZM554.303 138.933L556.261 138.211V119.715L554.303 120.437V138.933ZM563.512 135.566L565.47 134.845V116.349L563.512 117.07V135.566ZM572.722 132.2L574.679 131.478V112.982L572.722 113.703V132.2ZM581.911 128.833L583.869 128.112V109.615L581.911 110.337V128.833ZM591.121 125.466L593.078 124.745V106.249L591.121 106.97V125.466ZM600.33 122.1L602.288 121.378V102.882L600.33 103.604V122.1ZM609.519 118.733L611.477 118.012V99.5155L609.519 100.237V118.733ZM618.729 115.367L620.687 114.645V96.1489L618.729 96.8703V115.367ZM627.938 112L629.896 111.279V92.7822L627.938 93.5037V112ZM637.128 108.633L639.085 107.912V89.4156L637.128 90.137V108.633ZM646.337 105.267L648.295 104.545V86.049L646.337 86.7704V105.267ZM655.547 101.9L657.504 101.179V82.6824L655.547 83.4038V101.9ZM664.736 98.5335L666.694 97.8121V79.3158L664.736 80.0372V98.5335ZM673.945 95.1669L675.903 94.4455V75.9492L673.945 76.6706V95.1669ZM683.155 91.8003L685.113 91.0789V72.5826L683.155 73.304V91.8003ZM692.344 88.4337L694.302 87.7123V69.216L692.344 69.9374V88.4337Z" fill="black"/>
<path opacity="0.3" d="M527.913 126.428L525.955 125.727V144.684L527.913 145.385V126.428ZM518.724 123.102L516.766 122.4V141.358L518.724 142.059V123.102ZM509.514 119.775L507.557 119.074V138.031L509.514 138.732V119.775ZM500.305 116.449L498.347 115.747V134.705L500.305 135.406V116.449ZM491.115 113.142L489.158 112.441V131.398L491.115 132.099V113.142ZM481.906 109.816L479.948 109.114V128.071L481.906 128.773V109.816ZM472.697 106.489L470.739 105.788V124.745L472.697 125.446V106.489ZM532.348 127.911L530.39 127.21V146.167L532.348 146.868V127.911ZM523.139 124.585L521.181 123.883V142.84L523.139 143.542V124.585ZM513.949 121.278L511.991 120.577V139.534L513.949 140.235V121.278ZM504.74 117.952L502.782 117.25V136.207L504.74 136.909V117.952ZM495.53 114.625L493.573 113.924V132.881L495.53 133.582V114.625ZM486.341 111.299L484.383 110.597V129.554L486.341 130.256V111.299ZM477.132 107.972L475.174 107.271V126.228L477.132 126.929V107.972ZM467.922 104.645L465.964 103.944V122.901L467.922 123.603V104.645Z" fill="black"/>
<path opacity="0.2" d="M300.674 204.983L302.632 204.261V185.164L300.674 185.885V204.983ZM309.844 201.656L311.802 200.935V181.837L309.844 182.558V201.656ZM319.013 198.309L320.971 197.588V178.491L319.013 179.212V198.309ZM328.183 194.963L330.141 194.241V175.144L328.183 175.865V194.963ZM337.352 191.636L339.31 190.915V171.817L337.352 172.539V191.636ZM346.522 188.29L348.479 187.568V168.471L346.522 169.192V188.29ZM296.08 206.646L298.037 205.924V186.827L296.08 187.548V206.646ZM305.249 203.319L307.207 202.598V183.5L305.249 184.222V203.319ZM314.439 199.973L316.396 199.251V180.154L314.439 180.875V199.973ZM323.608 196.646L325.566 195.925V176.827L323.608 177.549V196.646ZM332.778 193.3L334.735 192.578V173.481L332.778 174.202V193.3ZM341.947 189.973L343.905 189.252V170.154L341.947 170.876V189.973Z" fill="black"/>
<path opacity="0.2" d="M199.252 167.449L201.21 166.727V147.63L199.252 148.351V167.449ZM208.422 164.102L210.38 163.381V144.283L208.422 145.005V164.102ZM194.678 169.112L196.635 168.391V149.293L194.678 150.015V169.112ZM203.847 165.786L205.805 165.064V145.967L203.847 146.688V165.786ZM213.017 162.439L214.974 161.718V142.62L213.017 143.342V162.439Z" fill="black"/>
<path opacity="0.2" d="M184.268 147.951L182.31 147.229V166.327L184.268 167.048V147.951ZM175.099 144.604L173.141 143.883V162.98L175.099 163.702V144.604ZM165.929 141.277L163.971 140.556V159.654L165.929 160.375V141.277ZM156.76 137.931L154.802 137.209V156.307L156.76 157.028V137.931ZM188.863 149.614L186.905 148.892V167.99L188.863 168.711V149.614ZM179.693 146.287L177.736 145.566V164.663L179.693 165.385V146.287ZM170.524 142.941L168.566 142.219V161.317L170.524 162.038V142.941ZM161.354 139.614L159.397 138.893V157.99L161.354 158.712V139.614Z" fill="black"/>
<path opacity="0.2" d="M286.351 186.206L284.393 185.484V204.582L286.351 205.303V186.206ZM277.181 182.879L275.224 182.158V201.255L277.181 201.977V182.879ZM268.012 179.533L266.054 178.811V197.909L268.012 198.63V179.533ZM258.843 176.206L256.885 175.485V194.582L258.843 195.304V176.206ZM249.673 172.859L247.715 172.138V191.236L249.673 191.957V172.859ZM290.946 187.889L288.988 187.168V206.265L290.946 206.986V187.889ZM281.776 184.542L279.818 183.821V202.919L281.776 203.64V184.542ZM272.607 181.196L270.649 180.474V199.572L272.607 200.293V181.196ZM263.437 177.869L261.48 177.148V196.245L263.437 196.967V177.869ZM254.248 174.523L252.29 173.801V192.899L254.248 193.62V174.523Z" fill="black"/>
<path d="M463.008 145.325L433.162 133.943L454.518 125.607L484.004 137.63L463.008 145.325Z" fill="#F0F0F0"/>
<path d="M536.064 34.6681V33.7864L544.974 30.6201H547.471L549.828 31.4618L538.441 35.5098L536.084 34.6681H536.064ZM526.615 39.698L538.002 35.65L535.644 34.8084H533.147L524.237 37.9746V38.8563L526.595 39.698H526.615ZM550.108 31.562L538.721 35.61L542.337 36.8925L553.724 32.8445L550.108 31.562ZM506.797 41.0406L518.184 36.9927L514.569 35.7101L503.182 39.7581L506.797 41.0406ZM526.395 31.542L515.008 35.5899L518.624 36.8724L530.011 32.8245L526.395 31.542ZM538.221 27.3537L526.834 31.4017L530.45 32.6842L541.837 28.6363L538.221 27.3537ZM518.684 45.2689L530.071 41.221L526.455 39.9385L515.068 43.9864L518.684 45.2689ZM530.57 49.4772L541.957 45.4292L538.341 44.1467L526.954 48.1947L530.57 49.4772ZM561.994 35.7703L550.607 39.8182L554.223 41.1007L565.61 37.0528L561.994 35.7703ZM550.168 39.9785L538.781 44.0265L542.397 45.309L553.783 41.261L550.168 39.9785ZM550.307 39.718L561.694 35.6701L559.337 34.8284H556.84L547.93 37.9946V38.8764L550.287 39.718H550.307ZM538.501 43.9062L549.888 39.8583L547.531 39.0166H545.034L536.124 42.1829V43.0646L538.481 43.9062H538.501ZM538.281 35.7502L526.894 39.7982L530.51 41.0807L541.897 37.0327L538.281 35.7502ZM554.063 41.3412L542.676 45.3892L545.034 46.2308H547.531L556.44 43.0646V42.1829L554.083 41.3412H554.063ZM538.082 44.0666L535.724 43.2249H533.227L524.317 46.3911V47.2729L526.675 48.1145L538.062 44.0666H538.082ZM526.535 31.2814L537.922 27.2335L535.564 26.3918H533.067L524.158 29.5581V30.4398L526.515 31.2814H526.535ZM530.35 41.3212L518.964 45.3691L521.321 46.2108H523.818L532.728 43.0445V42.1628L530.37 41.3212H530.35ZM542.177 37.1329L530.79 41.1809L533.147 42.0225H535.644L544.554 38.8563V37.9746L542.197 37.1329H542.177ZM568.247 37.9946L565.89 37.153L554.503 41.2009L556.86 42.0426H559.357L568.267 38.8764V37.9946H568.247ZM542.237 45.5294L530.85 49.5774L533.207 50.419H535.704L544.614 47.2528V46.3711L542.257 45.5294H542.237ZM553.983 32.9447L542.596 36.9927L544.954 37.8343H547.451L556.361 34.6681V33.7864L554.003 32.9447H553.983ZM526.195 39.8383L523.838 38.9966H521.341L512.431 42.1628V43.0445L514.788 43.8862L526.175 39.8383H526.195ZM514.309 35.63L511.952 34.7883H509.454L500.545 37.9546V38.8363L502.902 39.6779L514.289 35.63H514.309ZM514.728 35.4697L526.115 31.4217L523.758 30.5801H521.261L512.351 33.7463V34.628L514.708 35.4697H514.728ZM518.464 37.1129L507.077 41.1609L509.434 42.0025H511.932L520.841 38.8363V37.9546L518.484 37.1129H518.464ZM542.097 28.7365L530.71 32.7844L533.067 33.6261H535.564L544.474 30.4598V29.5781L542.117 28.7365H542.097ZM530.291 32.9247L518.904 36.9726L521.261 37.8143H523.758L532.668 34.6481V33.7663L530.31 32.9247H530.291Z" fill="#3D396B" stroke="white" stroke-width="0.145" stroke-miterlimit="10"/>
<path d="M572.562 47.9742V47.0925L581.472 43.9263H583.969L586.326 44.7679L574.939 48.8159L572.582 47.9742H572.562ZM563.113 53.0041L574.5 48.9562L572.142 48.1145H569.645L560.736 51.2807V52.1625L563.093 53.0041H563.113ZM586.606 44.8681L575.219 48.9161L578.835 50.1986L590.222 46.1507L586.606 44.8681ZM543.296 54.3668L554.682 50.3188L551.067 49.0363L539.68 53.0843L543.296 54.3668ZM562.893 44.8481L551.506 48.896L555.122 50.1786L566.509 46.1306L562.893 44.8481ZM574.719 40.6599L563.333 44.7078L566.948 45.9903L578.335 41.9424L574.719 40.6599ZM555.182 58.5751L566.569 54.5271L562.953 53.2446L551.566 57.2925L555.182 58.5751ZM567.068 62.7833L578.455 58.7354L574.839 57.4528L563.452 61.5008L567.068 62.7833ZM598.492 49.0964L587.105 53.1444L590.721 54.4269L602.108 50.379L598.492 49.0964ZM586.666 53.2847L575.279 57.3326L578.895 58.6151L590.282 54.5672L586.666 53.2847ZM586.806 53.0241L598.192 48.9762L595.835 48.1345H593.338L584.428 51.3008V52.1825L586.786 53.0241H586.806ZM574.999 57.2324L586.386 53.1845L584.029 52.3428H581.532L572.622 55.509V56.3908L574.979 57.2324H574.999ZM574.779 49.0764L563.392 53.1243L567.008 54.4069L578.395 50.3589L574.779 49.0764ZM590.561 54.6674L579.174 58.7153L581.532 59.557H584.029L592.939 56.3908V55.509L590.581 54.6674H590.561ZM574.58 57.3727L572.222 56.531H569.725L560.815 59.6973V60.579L563.173 61.4206L574.56 57.3727H574.58ZM563.033 44.6076L574.42 40.5597L572.062 39.718H569.565L560.656 42.8842V43.766L563.013 44.6076H563.033ZM566.868 54.6273L555.482 58.6753L557.839 59.5169H560.336L569.246 56.3507V55.469L566.888 54.6273H566.868ZM578.675 50.4391L567.288 54.487L569.645 55.3287H572.142L581.052 52.1625V51.2807L578.695 50.4391H578.675ZM604.745 51.3208L602.388 50.4792L591.001 54.5271L593.358 55.3688H595.855L604.765 52.2025V51.3208H604.745ZM578.755 58.8556L567.368 62.9036L569.725 63.7452H572.222L581.132 60.579V59.6973L578.775 58.8556H578.755ZM590.501 46.2508L579.114 50.2988L581.472 51.1405H583.969L592.879 47.9742V47.0925L590.521 46.2508H590.501ZM562.693 53.1644L560.336 52.3228H557.839L548.929 55.489V56.3707L551.286 57.2124L562.673 53.1644H562.693ZM550.807 48.9361L548.45 48.0945H545.953L537.043 51.2607V52.1424L539.4 52.9841L550.787 48.9361H550.807ZM551.226 48.7958L562.613 44.7479L560.256 43.9062H557.759L548.849 47.0725V47.9542L551.207 48.7958H551.226ZM554.982 50.419L543.595 54.467L545.953 55.3086H548.45L557.359 52.1424V51.2607L555.002 50.419H554.982ZM578.615 42.0426L567.228 46.0905L569.585 46.9322H572.082L580.992 43.766V42.8842L578.635 42.0426H578.615ZM566.789 46.2308L555.402 50.2788L557.759 51.1204H560.256L569.166 47.9542V47.0725L566.809 46.2308H566.789Z" fill="#3D396B" stroke="white" stroke-width="0.145" stroke-miterlimit="10"/>
<path d="M609.06 61.3004V60.4187L617.97 57.2525H620.467L622.824 58.0941L611.437 62.1421L609.08 61.3004H609.06ZM599.611 66.3303L610.998 62.2824L608.64 61.4407H606.143L597.234 64.6069V65.4887L599.591 66.3303H599.611ZM623.104 58.1943L611.717 62.2423L615.333 63.5248L626.72 59.4768L623.104 58.1943ZM579.794 67.6729L591.18 63.625L587.565 62.3425L576.178 66.3904L579.794 67.6729ZM599.411 58.1743L588.024 62.2222L591.64 63.5048L603.027 59.4568L599.411 58.1743ZM611.217 53.966L599.831 58.014L603.446 59.2965L614.833 55.2485L611.217 53.966ZM591.68 71.9012L603.067 67.8533L599.451 66.5708L588.064 70.6187L591.68 71.9012ZM603.566 76.1095L614.953 72.0616L611.337 70.779L599.95 74.827L603.566 76.1095ZM634.99 62.4026L623.603 66.4505L627.219 67.7331L638.606 63.6851L634.99 62.4026ZM623.184 66.5908L611.797 70.6388L615.413 71.9213L626.8 67.8733L623.184 66.5908ZM623.324 66.3503L634.71 62.3024L632.353 61.4607H629.856L620.946 64.627V65.5087L623.304 66.3503H623.324ZM611.497 70.5386L622.884 66.4906L620.527 65.649H618.03L609.12 68.8152V69.6969L611.477 70.5386H611.497ZM611.297 62.3825L599.91 66.4305L603.526 67.713L614.913 63.6651L611.297 62.3825ZM627.059 67.9735L615.672 72.0215L618.03 72.8631H620.527L629.437 69.6969V68.8152L627.079 67.9735H627.059ZM611.078 70.6788L608.72 69.8372H606.223L597.313 73.0034V73.8851L599.671 74.7268L611.058 70.6788H611.078ZM599.551 57.9138L610.938 53.8658L608.581 53.0242H606.083L597.174 56.1904V57.0721L599.531 57.9138H599.551ZM603.366 67.9535L591.98 72.0014L594.337 72.8431H596.834L605.744 69.6769V68.7951L603.386 67.9535H603.366ZM615.173 63.7653L603.786 67.8132L606.143 68.6549H608.64L617.55 65.4887V64.6069L615.193 63.7653H615.173ZM641.243 64.627L638.886 63.7853L627.499 67.8333L629.856 68.6749H632.353L641.263 65.5087V64.627H641.243ZM615.253 72.1618L603.866 76.2097L606.223 77.0514H608.72L617.63 73.8851V73.0034L615.273 72.1618H615.253ZM626.999 59.577L615.612 63.625L617.97 64.4666H620.467L629.377 61.3004V60.4187L627.019 59.577H626.999ZM599.191 66.4706L596.834 65.6289H594.337L585.427 68.7951V69.6769L587.784 70.5185L599.171 66.4706H599.191ZM587.305 62.2623L584.948 61.4207H582.451L573.541 64.5869V65.4686L575.898 66.3103L587.285 62.2623H587.305ZM587.724 62.102L599.111 58.054L596.754 57.2124H594.257L585.347 60.3786V61.2603L587.704 62.102H587.724ZM591.48 63.7452L580.093 67.7932L582.451 68.6348H584.948L593.857 65.4686V64.5869L591.5 63.7452H591.48ZM615.113 55.3487L603.726 59.3967L606.083 60.2383H608.581L617.49 57.0721V56.1904L615.133 55.3487H615.113ZM603.287 59.537L591.9 63.5849L594.257 64.4266H596.754L605.664 61.2603V60.3786L603.307 59.537H603.287Z" fill="#3D396B" stroke="white" stroke-width="0.145" stroke-miterlimit="10"/>
<g clip-path="url(#clip15_1_2109)">
<path opacity="0.3" d="M656.552 159.512C663.015 159.512 668.254 157.455 668.254 154.917C668.254 152.379 663.015 150.321 656.552 150.321C650.09 150.321 644.851 152.379 644.851 154.917C644.851 157.455 650.09 159.512 656.552 159.512Z" fill="black"/>
<path d="M656.552 118.593C656.552 118.593 653.134 155.144 653.134 155.386C653.134 156.482 654.666 157.364 656.552 157.364C658.438 157.364 659.97 156.482 659.97 155.386C659.97 155.144 656.552 118.593 656.552 118.593Z" fill="#9B7225"/>
<g style="mix-blend-mode:multiply" opacity="0.2">
<path d="M656.552 157.364C658.439 157.364 659.971 156.482 659.971 155.386C659.971 155.144 656.552 118.593 656.552 118.593" fill="black"/>
</g>
<path d="M656.552 148.585C664.809 148.585 671.502 141.871 671.502 133.589C671.502 125.307 664.809 118.593 656.552 118.593C648.296 118.593 641.603 125.307 641.603 133.589C641.603 141.871 648.296 148.585 656.552 148.585Z" fill="#4B9E81"/>
<path opacity="0.3" d="M656.552 118.593C664.807 118.593 671.502 125.308 671.502 133.589C671.502 141.87 664.807 148.585 656.552 148.585" fill="black"/>
</g>
<g clip-path="url(#clip16_1_2109)">
<path opacity="0.3" d="M643.927 256.142C650.389 256.142 655.628 254.085 655.628 251.547C655.628 249.008 650.389 246.951 643.927 246.951C637.464 246.951 632.225 249.008 632.225 251.547C632.225 254.085 637.464 256.142 643.927 256.142Z" fill="black"/>
<path d="M643.927 215.223C643.927 215.223 640.509 251.774 640.509 252.016C640.509 253.112 642.04 253.994 643.927 253.994C645.813 253.994 647.345 253.112 647.345 252.016C647.345 251.774 643.927 215.223 643.927 215.223Z" fill="#9B7225"/>
<g style="mix-blend-mode:multiply" opacity="0.2">
<path d="M643.927 253.994C645.813 253.994 647.345 253.112 647.345 252.016C647.345 251.774 643.927 215.223 643.927 215.223" fill="black"/>
</g>
<path d="M643.927 245.215C652.183 245.215 658.876 238.501 658.876 230.219C658.876 221.937 652.183 215.223 643.927 215.223C635.67 215.223 628.977 221.937 628.977 230.219C628.977 238.501 635.67 245.215 643.927 245.215Z" fill="#4B9E81"/>
<path opacity="0.3" d="M643.927 215.223C652.182 215.223 658.876 221.938 658.876 230.219C658.876 238.5 652.182 245.215 643.927 245.215" fill="black"/>
</g>
<g clip-path="url(#clip17_1_2109)">
<path opacity="0.3" d="M534.972 283.235C541.434 283.235 546.673 281.178 546.673 278.64C546.673 276.102 541.434 274.044 534.972 274.044C528.509 274.044 523.27 276.102 523.27 278.64C523.27 281.178 528.509 283.235 534.972 283.235Z" fill="black"/>
<path d="M534.972 242.316C534.972 242.316 531.554 278.868 531.554 279.109C531.554 280.205 533.085 281.087 534.972 281.087C536.858 281.087 538.39 280.205 538.39 279.109C538.39 278.868 534.972 242.316 534.972 242.316Z" fill="#9B7225"/>
<g style="mix-blend-mode:multiply" opacity="0.2">
<path d="M534.972 281.087C536.858 281.087 538.39 280.205 538.39 279.109C538.39 278.868 534.972 242.316 534.972 242.316" fill="black"/>
</g>
<path d="M534.972 272.308C543.228 272.308 549.921 265.594 549.921 257.312C549.921 249.03 543.228 242.316 534.972 242.316C526.715 242.316 520.022 249.03 520.022 257.312C520.022 265.594 526.715 272.308 534.972 272.308Z" fill="#4B9E81"/>
<path opacity="0.3" d="M534.972 242.316C543.227 242.316 549.922 249.032 549.922 257.312C549.922 265.593 543.227 272.308 534.972 272.308" fill="black"/>
</g>
<g clip-path="url(#clip18_1_2109)">
<path opacity="0.3" d="M406.1 299.908C412.563 299.908 417.802 297.851 417.802 295.313C417.802 292.774 412.563 290.717 406.1 290.717C399.637 290.717 394.398 292.774 394.398 295.313C394.398 297.851 399.637 299.908 406.1 299.908Z" fill="black"/>
<path d="M406.1 258.989C406.1 258.989 402.682 295.54 402.682 295.782C402.682 296.878 404.214 297.76 406.1 297.76C407.986 297.76 409.518 296.878 409.518 295.782C409.518 295.54 406.1 258.989 406.1 258.989Z" fill="#9B7225"/>
<g style="mix-blend-mode:multiply" opacity="0.2">
<path d="M406.1 297.76C407.986 297.76 409.518 296.878 409.518 295.782C409.518 295.54 406.1 258.989 406.1 258.989" fill="black"/>
</g>
<path d="M406.1 288.981C414.356 288.981 421.05 282.267 421.05 273.985C421.05 265.703 414.356 258.989 406.1 258.989C397.844 258.989 391.15 265.703 391.15 273.985C391.15 282.267 397.844 288.981 406.1 288.981Z" fill="#4B9E81"/>
<path opacity="0.3" d="M406.1 258.989C414.355 258.989 421.05 265.704 421.05 273.985C421.05 282.266 414.355 288.981 406.1 288.981" fill="black"/>
</g>
</g>
</g>
<defs>
<linearGradient id="paint0_linear_1_2109" x1="616.571" y1="188.911" x2="616.571" y2="85.047" gradientUnits="userSpaceOnUse">
<stop stop-color="white"/>
<stop offset="0.87" stop-color="white" stop-opacity="0.02"/>
</linearGradient>
<linearGradient id="paint1_linear_1_2109" x1="510.693" y1="142.48" x2="536.303" y2="186.698" gradientUnits="userSpaceOnUse">
<stop stop-color="white"/>
<stop offset="1" stop-color="white" stop-opacity="0.02"/>
</linearGradient>
<clipPath id="clip0_1_2109">
<rect width="450" height="151" fill="white" transform="scale(2)"/>
</clipPath>
<clipPath id="clip1_1_2109">
<rect width="449.084" height="150.696" fill="white" transform="scale(2)"/>
</clipPath>
<clipPath id="clip2_1_2109">
<rect width="11.9383" height="8.33237" fill="white" transform="matrix(2 0 0 2 831.724 164.062)"/>
</clipPath>
<clipPath id="clip3_1_2109">
<rect width="11.9383" height="8.33236" fill="white" transform="matrix(2 0 0 2 512.571 82.4219)"/>
</clipPath>
<clipPath id="clip4_1_2109">
<rect width="11.9383" height="8.33237" fill="white" transform="matrix(2 0 0 2 453.219 184.462)"/>
</clipPath>
<clipPath id="clip5_1_2109">
<rect width="11.9383" height="8.33237" fill="white" transform="matrix(2 0 0 2 831.724 142.019)"/>
</clipPath>
<clipPath id="clip6_1_2109">
<rect width="16.4886" height="26.1099" fill="white" transform="matrix(2 0 0 2 848.745 118.753)"/>
</clipPath>
<clipPath id="clip7_1_2109">
<rect width="11.9383" height="8.33236" fill="white" transform="matrix(2 0 0 2 831.285 162.619)"/>
</clipPath>
<clipPath id="clip8_1_2109">
<rect width="11.9383" height="8.33236" fill="white" transform="matrix(2 0 0 2 512.131 80.979)"/>
</clipPath>
<clipPath id="clip9_1_2109">
<rect width="11.9383" height="8.33236" fill="white" transform="matrix(2 0 0 2 452.78 183.019)"/>
</clipPath>
<clipPath id="clip10_1_2109">
<rect width="11.9383" height="8.33236" fill="white" transform="matrix(2 0 0 2 831.285 140.576)"/>
</clipPath>
<clipPath id="clip11_1_2109">
<rect width="16.4886" height="26.1099" fill="white" transform="matrix(2 0 0 2 848.305 117.29)"/>
</clipPath>
<clipPath id="clip12_1_2109">
<rect width="16.4886" height="26.1099" fill="white" transform="matrix(2 0 0 2 756.291 115.627)"/>
</clipPath>
<clipPath id="clip13_1_2109">
<rect width="16.4886" height="26.1099" fill="white" transform="matrix(2 0 0 2 727.883 125.627)"/>
</clipPath>
<clipPath id="clip14_1_2109">
<rect width="16.4886" height="26.1099" fill="white" transform="matrix(2 0 0 2 699.496 135.626)"/>
</clipPath>
<clipPath id="clip15_1_2109">
<rect width="14.9567" height="20.4598" fill="white" transform="matrix(2 0 0 2 641.603 118.593)"/>
</clipPath>
<clipPath id="clip16_1_2109">
<rect width="14.9567" height="20.4598" fill="white" transform="matrix(2 0 0 2 628.977 215.223)"/>
</clipPath>
<clipPath id="clip17_1_2109">
<rect width="14.9567" height="20.4598" fill="white" transform="matrix(2 0 0 2 520.022 242.316)"/>
</clipPath>
<clipPath id="clip18_1_2109">
<rect width="14.9567" height="20.4598" fill="white" transform="matrix(2 0 0 2 391.15 258.989)"/>
</clipPath>
</defs>
</svg>
